<svg width="117" height="62" viewBox="0 0 117 62" fill="none" xmlns="http://www.w3.org/2000/svg">
<path d="M0.298096 0.268555H115.826V61.2686H75.8104V47.5086H0.298096V0.268555Z" fill="white"/>
<path d="M19.6022 47.479H0.25V0.25H115.779V61.2843H75.8163V57.4019" stroke="#A73C4C" stroke-width="0.5"/>
<path d="M75.8163 52.2686V47.479H25.6022" stroke="#A73C4C" stroke-width="0.5"/>
<path d="M15.2453 0.268555V1.76855M15.2453 4.76855V11.7686M15.2453 15.2686V20.7686M15.2453 25.2686L15.2453 31.2686M15.2453 34.2686V40.7686M15.2453 44.2686V47.2686M28.6022 31.0245L28.6022 47.2686M35.1022 31.2686V47.2686" stroke="#A73C4C" stroke-width="0.5"/>
<path d="M60.1022 37.7686V47.6319M66.1022 37.7686V47.2686M75.8163 47.3153V37.7686H72.8163M93.1022 47.2298V61.2686M84.6022 0.315323V47.3153M61.6022 0.315323V10.7686M61.6022 14.7686V19.7686M61.6022 22.7686V26.7686M61.6022 29.7686V31.7686M69.6022 15.7686V17.2686M69.6022 20.2686V25.7686M69.6022 28.7686V31.7686M77.1022 15.8403V31.7686M79.6022 31.7686V43.0186M55.1022 38.0191V31.2686H42.6022M33.1022 31.2686H38.1022M28.6022 31.2686H30.1022M65.1022 37.7686H69.1022" stroke="#A73C4C" stroke-width="0.5"/>
<path d="M0.102173 8.26855H15.1022M0.102173 19.7686H15.1022M0.102173 27.7686H15.1022M0.102173 39.2686H15.1022M15.6022 18.2686H19.1022M23.6022 18.2686H45.1022M49.6022 18.2686H61.6022M61.6022 15.7686H78.1022M81.6022 15.7686H84.6022M61.6022 23.7686H84.6022M61.3522 31.7686H80.6022M83.3663 31.7686H84.6022M55.1022 37.7686H62.1022M76.0643 47.479H80.2118M83.3663 47.479H87.2912M91.0442 47.479H93.1022M83.3663 42.7686H84.6022M79.6022 42.7686H80.6022" stroke="#A73C4C" stroke-width="0.5"/>
<path d="M65.005 22.7685V21.2213C65.0052 21.1833 64.9973 21.1456 64.9818 21.1109C64.9664 21.0762 64.9437 21.0452 64.9153 21.0199L64.6464 20.7743C64.6324 20.7615 64.6213 20.7459 64.6137 20.7286C64.6061 20.7112 64.6021 20.6925 64.6022 20.6736V19.0772C64.6022 19.0054 64.6306 18.9366 64.6812 18.8857C64.7319 18.8349 64.8006 18.8061 64.8723 18.8058H66.6038C66.7114 18.8061 66.8145 18.8491 66.8904 18.9253C66.9664 19.0015 67.009 19.1047 67.009 19.2123V20.6859C67.0087 20.7205 66.9956 20.7537 66.9722 20.7792L66.7131 21.0555C66.6656 21.1055 66.6392 21.1719 66.6394 21.2409V22.7685" stroke="#3A3A3A" stroke-width="0.5" stroke-linecap="round"/>
<path d="M65.8056 18.22C66.2065 18.22 66.5314 17.8951 66.5314 17.4943C66.5314 17.0935 66.2065 16.7686 65.8056 16.7686C65.4048 16.7686 65.0799 17.0935 65.0799 17.4943C65.0799 17.8951 65.4048 18.22 65.8056 18.22Z" stroke="#3A3A3A" stroke-width="0.5" stroke-linecap="round"/>
<path d="M65.026 30.7686V29.4478C65.0257 29.411 65.0109 29.3759 64.9848 29.3501C64.9587 29.3242 64.9234 29.3097 64.8867 29.3097H64.5541C64.5318 29.3095 64.5098 29.304 64.4901 29.2935C64.4703 29.2831 64.4534 29.2681 64.4407 29.2497C64.4279 29.2313 64.4198 29.2102 64.417 29.188C64.4142 29.1659 64.4167 29.1433 64.4244 29.1224L65.2181 26.9611C65.228 26.9346 65.2457 26.9117 65.2688 26.8954C65.292 26.8791 65.3195 26.8702 65.3478 26.8698H66.1883C66.217 26.8697 66.2451 26.8786 66.2685 26.8951C66.292 26.9117 66.3097 26.9352 66.3192 26.9623L67.0972 29.1236C67.1044 29.1452 67.1061 29.1683 67.1022 29.1908C67.0983 29.2133 67.089 29.2345 67.075 29.2525C67.061 29.2706 67.0428 29.2849 67.0219 29.2942C67.0011 29.3035 66.9783 29.3076 66.9556 29.3061H66.5953C66.5595 29.3082 66.5258 29.3242 66.5014 29.3506C66.477 29.377 66.4638 29.4118 66.4645 29.4478V30.7686" stroke="#3A3A3A" stroke-width="0.5" stroke-linecap="round"/>
<path d="M65.7549 26.1878C66.1468 26.1878 66.4645 25.8701 66.4645 25.4782C66.4645 25.0863 66.1468 24.7686 65.7549 24.7686C65.363 24.7686 65.0453 25.0863 65.0453 25.4782C65.0453 25.8701 65.363 26.1878 65.7549 26.1878Z" stroke="#3A3A3A" stroke-width="0.5" stroke-linecap="round"/>
<path d="M76.1022 54.7686H78.8522M78.8522 54.7686L78.1023 53.8936M78.8522 54.7686L78.1022 55.6436" stroke="#A73C4C" stroke-width="0.5" stroke-linecap="round" stroke-linejoin="round"/>
<path d="M77.1022 53.6776V52.8936C77.1022 52.8245 77.0462 52.7686 76.9772 52.7686H74.7272C74.6581 52.7686 74.6022 52.8245 74.6022 52.8936V56.6436C74.6022 56.7126 74.6581 56.7686 74.7272 56.7686H76.9772C77.0462 56.7686 77.1022 56.7126 77.1022 56.6436V55.8595" stroke="#A73C4C" stroke-width="0.5" stroke-linecap="round" stroke-linejoin="round"/>
<path d="M22.1022 47.7686H24.8522M24.8522 47.7686L24.1023 46.8936M24.8522 47.7686L24.1022 48.6436" stroke="#A73C4C" stroke-width="0.5" stroke-linecap="round" stroke-linejoin="round"/>
<path d="M23.1022 46.6776V45.8936C23.1022 45.8245 23.0462 45.7686 22.9772 45.7686H20.7272C20.6581 45.7686 20.6022 45.8245 20.6022 45.8936V49.6436C20.6022 49.7126 20.6581 49.7686 20.7272 49.7686H22.9772C23.0462 49.7686 23.1022 49.7126 23.1022 49.6436V48.8595" stroke="#A73C4C" stroke-width="0.5" stroke-linecap="round" stroke-linejoin="round"/>
<path d="M3.90217 20.7686C3.73649 20.7686 3.60217 20.9029 3.60217 21.0686V26.4686C3.60217 26.6342 3.73649 26.7686 3.90217 26.7686H4.46168H9.30217C9.46786 26.7686 9.60217 26.6342 9.60217 26.4686V21.8184V21.0686C9.60217 20.9029 9.46786 20.7686 9.30217 20.7686H3.90217ZM4.98679 26.5378V25.9455C4.98679 25.8902 5.03156 25.8455 5.08679 25.8455H5.60986C5.77555 25.8455 5.90986 25.7112 5.90986 25.5455V25.0224C5.90986 24.9672 5.95464 24.9224 6.00987 24.9224H6.53294C6.69863 24.9224 6.83294 24.7881 6.83294 24.6224V24.0993C6.83294 24.0441 6.87771 23.9993 6.93294 23.9993H7.45602C7.62171 23.9993 7.75602 23.865 7.75602 23.6993V23.1762C7.75602 23.121 7.80079 23.0762 7.85602 23.0762H8.3791C8.54478 23.0762 8.6791 22.9419 8.6791 22.7762V22.2532C8.6791 22.1979 8.72387 22.1532 8.7791 22.1532H9.3714V26.4377C9.3714 26.493 9.32663 26.5377 9.27141 26.5377L4.98679 26.5378ZM9.3714 21.9224H8.74833C8.58264 21.9224 8.44833 22.0567 8.44833 22.2224V22.7455C8.44833 22.8007 8.40356 22.8455 8.34833 22.8455H7.82525C7.65956 22.8455 7.52525 22.9798 7.52525 23.1455V23.6686C7.52525 23.7238 7.48048 23.7686 7.42525 23.7686H6.90217C6.73649 23.7686 6.60217 23.9029 6.60217 24.0686V24.5916C6.60217 24.6469 6.5574 24.6916 6.50217 24.6916H5.9791C5.81341 24.6916 5.6791 24.8259 5.6791 24.9916V25.5147C5.6791 25.5699 5.63432 25.6147 5.5791 25.6147H5.05602C4.89033 25.6147 4.75602 25.749 4.75602 25.9147V26.5377H3.93294C3.87771 26.5377 3.83294 26.493 3.83294 26.4377V21.0993C3.83294 21.0441 3.87771 20.9993 3.93294 20.9993H9.2714C9.32663 20.9993 9.3714 21.0441 9.3714 21.0993V21.9224Z" fill="#A73C4C"/>
<path d="M80.9022 49.7686C80.7365 49.7686 80.6022 49.9029 80.6022 50.0686V58.4686C80.6022 58.6342 80.7365 58.7686 80.9022 58.7686H81.8914H89.3022C89.4679 58.7686 89.6022 58.6342 89.6022 58.4686V51.3434V50.0686C89.6022 49.9029 89.4679 49.7686 89.3022 49.7686H80.9022ZM82.6791 58.4224V57.4839C82.6791 57.4287 82.7239 57.3839 82.7791 57.3839H83.7637C83.9294 57.3839 84.0637 57.2496 84.0637 57.0839V56.0993C84.0637 56.0441 84.1085 55.9993 84.1637 55.9993H85.1483C85.314 55.9993 85.4483 55.865 85.4483 55.6993V54.7147C85.4483 54.6595 85.4931 54.6147 85.5483 54.6147H86.5329C86.6986 54.6147 86.8329 54.4804 86.8329 54.3147V53.3301C86.8329 53.2749 86.8777 53.2301 86.9329 53.2301H87.9176C88.0832 53.2301 88.2176 53.0958 88.2176 52.9301V51.9455C88.2176 51.8902 88.2623 51.8455 88.3176 51.8455H89.256V58.3223C89.256 58.3775 89.2112 58.4223 89.156 58.4223L82.6791 58.4224ZM89.256 51.4993H88.1714C88.0057 51.4993 87.8714 51.6336 87.8714 51.7993V52.7839C87.8714 52.8392 87.8266 52.8839 87.7714 52.8839H86.7868C86.6211 52.8839 86.4868 53.0183 86.4868 53.1839V54.1686C86.4868 54.2238 86.442 54.2686 86.3868 54.2686H85.4022C85.2365 54.2686 85.1022 54.4029 85.1022 54.5686V55.5532C85.1022 55.6084 85.0574 55.6532 85.0022 55.6532H84.0176C83.8519 55.6532 83.7176 55.7875 83.7176 55.9532V56.9378C83.7176 56.993 83.6728 57.0378 83.6176 57.0378H82.6329C82.4673 57.0378 82.3329 57.1721 82.3329 57.3378V58.4223H81.0483C80.9931 58.4223 80.9483 58.3775 80.9483 58.3223V50.2147C80.9483 50.1595 80.9931 50.1147 81.0483 50.1147H89.156C89.2112 50.1147 89.256 50.1595 89.256 50.2147V51.4993Z" fill="#A73C4C"/>
<path d="M4.87217 43.6486H4.46717V42.1186L3.82717 42.4186C3.78384 42.4019 3.74717 42.3769 3.71717 42.3436C3.69051 42.3102 3.67717 42.2686 3.67717 42.2186C3.67717 42.1219 3.73717 42.0486 3.85717 41.9986L4.55717 41.6936H4.65217C4.71884 41.6936 4.77217 41.7136 4.81217 41.7536C4.85217 41.7936 4.87217 41.8469 4.87217 41.9136V43.6486ZM4.46717 43.4486H4.87217V44.7736C4.85217 44.7802 4.82551 44.7869 4.79217 44.7936C4.75884 44.8036 4.72217 44.8086 4.68217 44.8086C4.61217 44.8086 4.55884 44.7936 4.52217 44.7636C4.48551 44.7336 4.46717 44.6869 4.46717 44.6236V43.4486ZM6.84428 44.8336C6.61095 44.8336 6.40428 44.7769 6.22428 44.6636C6.04762 44.5469 5.90928 44.3719 5.80928 44.1386C5.70928 43.9019 5.65928 43.6052 5.65928 43.2486C5.65928 42.8652 5.71595 42.5586 5.82928 42.3286C5.94262 42.0986 6.08928 41.9319 6.26928 41.8286C6.44928 41.7219 6.64095 41.6686 6.84428 41.6686C7.05095 41.6686 7.24428 41.7219 7.42428 41.8286C7.60762 41.9352 7.75428 42.1052 7.86428 42.3386C7.97762 42.5686 8.03428 42.8719 8.03428 43.2486C8.03428 43.6019 7.98428 43.8969 7.88428 44.1336C7.78428 44.3669 7.64428 44.5419 7.46428 44.6586C7.28762 44.7752 7.08095 44.8336 6.84428 44.8336ZM6.84428 44.4936C7.09095 44.4936 7.28262 44.3869 7.41928 44.1736C7.55595 43.9569 7.62428 43.6486 7.62428 43.2486C7.62428 42.9519 7.58762 42.7136 7.51428 42.5336C7.44428 42.3502 7.35095 42.2169 7.23428 42.1336C7.11762 42.0502 6.98762 42.0086 6.84428 42.0086C6.70428 42.0086 6.57428 42.0519 6.45428 42.1386C6.33762 42.2219 6.24428 42.3552 6.17428 42.5386C6.10428 42.7219 6.06928 42.9586 6.06928 43.2486C6.06928 43.6486 6.13762 43.9569 6.27428 44.1736C6.41095 44.3869 6.60095 44.4936 6.84428 44.4936ZM8.58444 42.0436C8.58444 41.9836 8.62277 41.9252 8.69944 41.8686C8.77611 41.8086 8.87944 41.7602 9.00944 41.7236C9.13944 41.6869 9.28111 41.6686 9.43444 41.6686C9.64777 41.6686 9.83111 41.7052 9.98444 41.7786C10.1378 41.8486 10.2561 41.9486 10.3394 42.0786C10.4228 42.2086 10.4644 42.3619 10.4644 42.5386C10.4644 42.7219 10.4128 42.9019 10.3094 43.0786C10.2094 43.2552 10.0361 43.4569 9.78944 43.6836L8.97444 44.4386H10.4594C10.4728 44.4519 10.4844 44.4736 10.4944 44.5036C10.5044 44.5302 10.5094 44.5619 10.5094 44.5986C10.5094 44.6519 10.4944 44.6936 10.4644 44.7236C10.4378 44.7536 10.4011 44.7686 10.3544 44.7686H8.58944C8.55611 44.7452 8.53111 44.7169 8.51444 44.6836C8.49777 44.6469 8.48944 44.6086 8.48944 44.5686C8.48944 44.5152 8.49944 44.4686 8.51944 44.4286C8.53944 44.3852 8.56944 44.3452 8.60944 44.3086L9.50944 43.4436C9.71611 43.2502 9.85777 43.0886 9.93444 42.9586C10.0111 42.8252 10.0494 42.6869 10.0494 42.5436C10.0494 42.3869 9.99611 42.2586 9.88944 42.1586C9.78277 42.0586 9.62111 42.0086 9.40444 42.0086C9.25777 42.0086 9.12611 42.0336 9.00944 42.0836C8.89611 42.1336 8.80111 42.1869 8.72444 42.2436C8.68777 42.2269 8.65444 42.2019 8.62444 42.1686C8.59777 42.1352 8.58444 42.0936 8.58444 42.0436Z" fill="#A73C4C"/>
<path d="M4.87217 33.6486H4.46717V32.1186L3.82717 32.4186C3.78384 32.4019 3.74717 32.3769 3.71717 32.3436C3.69051 32.3102 3.67717 32.2686 3.67717 32.2186C3.67717 32.1219 3.73717 32.0486 3.85717 31.9986L4.55717 31.6936H4.65217C4.71884 31.6936 4.77217 31.7136 4.81217 31.7536C4.85217 31.7936 4.87217 31.8469 4.87217 31.9136V33.6486ZM4.46717 33.4486H4.87217V34.7736C4.85217 34.7802 4.82551 34.7869 4.79217 34.7936C4.75884 34.8036 4.72217 34.8086 4.68217 34.8086C4.61217 34.8086 4.55884 34.7936 4.52217 34.7636C4.48551 34.7336 4.46717 34.6869 4.46717 34.6236V33.4486ZM6.84428 34.8336C6.61095 34.8336 6.40428 34.7769 6.22428 34.6636C6.04762 34.5469 5.90928 34.3719 5.80928 34.1386C5.70928 33.9019 5.65928 33.6052 5.65928 33.2486C5.65928 32.8652 5.71595 32.5586 5.82928 32.3286C5.94262 32.0986 6.08928 31.9319 6.26928 31.8286C6.44928 31.7219 6.64095 31.6686 6.84428 31.6686C7.05095 31.6686 7.24428 31.7219 7.42428 31.8286C7.60762 31.9352 7.75428 32.1052 7.86428 32.3386C7.97762 32.5686 8.03428 32.8719 8.03428 33.2486C8.03428 33.6019 7.98428 33.8969 7.88428 34.1336C7.78428 34.3669 7.64428 34.5419 7.46428 34.6586C7.28762 34.7752 7.08095 34.8336 6.84428 34.8336ZM6.84428 34.4936C7.09095 34.4936 7.28262 34.3869 7.41928 34.1736C7.55595 33.9569 7.62428 33.6486 7.62428 33.2486C7.62428 32.9519 7.58762 32.7136 7.51428 32.5336C7.44428 32.3502 7.35095 32.2169 7.23428 32.1336C7.11762 32.0502 6.98762 32.0086 6.84428 32.0086C6.70428 32.0086 6.57428 32.0519 6.45428 32.1386C6.33762 32.2219 6.24428 32.3552 6.17428 32.5386C6.10428 32.7219 6.06928 32.9586 6.06928 33.2486C6.06928 33.6486 6.13762 33.9569 6.27428 34.1736C6.41095 34.3869 6.60095 34.4936 6.84428 34.4936ZM9.35026 31.6636C9.66693 31.6636 9.92193 31.7336 10.1153 31.8736C10.3119 32.0102 10.4103 32.2169 10.4103 32.4936C10.4103 32.6269 10.3819 32.7419 10.3253 32.8386C10.2719 32.9319 10.2069 33.0052 10.1303 33.0586C10.0569 33.1119 9.99026 33.1469 9.93026 33.1636C10.0203 33.1902 10.1086 33.2369 10.1953 33.3036C10.2819 33.3669 10.3536 33.4502 10.4103 33.5536C10.4703 33.6536 10.5003 33.7752 10.5003 33.9186C10.5003 34.1186 10.4519 34.2852 10.3553 34.4186C10.2586 34.5519 10.1253 34.6536 9.95526 34.7236C9.78526 34.7902 9.58859 34.8236 9.36526 34.8236C9.18193 34.8236 9.01859 34.8052 8.87526 34.7686C8.73526 34.7286 8.62526 34.6786 8.54526 34.6186C8.46526 34.5586 8.42526 34.4952 8.42526 34.4286C8.42526 34.3819 8.43693 34.3419 8.46026 34.3086C8.48693 34.2752 8.52026 34.2469 8.56026 34.2236C8.64693 34.2902 8.75193 34.3502 8.87526 34.4036C9.00193 34.4569 9.16526 34.4836 9.36526 34.4836C9.58526 34.4836 9.76359 34.4369 9.90026 34.3436C10.0369 34.2469 10.1053 34.1019 10.1053 33.9086C10.1053 33.7386 10.0419 33.6019 9.91526 33.4986C9.78859 33.3952 9.60526 33.3436 9.36526 33.3436H8.95026C8.93693 33.3269 8.92526 33.3036 8.91526 33.2736C8.90526 33.2402 8.90026 33.2069 8.90026 33.1736C8.90026 33.1369 8.90526 33.1036 8.91526 33.0736C8.92526 33.0436 8.93693 33.0202 8.95026 33.0036H9.33026C9.57693 33.0036 9.75193 32.9586 9.85526 32.8686C9.96193 32.7752 10.0153 32.6536 10.0153 32.5036C10.0153 32.3402 9.95526 32.2169 9.83526 32.1336C9.71526 32.0469 9.55193 32.0036 9.34526 32.0036C9.18526 32.0036 9.04359 32.0286 8.92026 32.0786C8.80026 32.1252 8.70026 32.1769 8.62026 32.2336C8.58693 32.2169 8.55693 32.1902 8.53026 32.1536C8.50359 32.1169 8.49026 32.0769 8.49026 32.0336C8.49026 31.9736 8.52859 31.9152 8.60526 31.8586C8.68193 31.8019 8.78526 31.7552 8.91526 31.7186C9.04526 31.6819 9.19026 31.6636 9.35026 31.6636Z" fill="#A73C4C"/>
<path d="M42.8722 39.6486H42.4672V38.1186L41.8272 38.4186C41.7838 38.4019 41.7472 38.3769 41.7172 38.3436C41.6905 38.3102 41.6772 38.2686 41.6772 38.2186C41.6772 38.1219 41.7372 38.0486 41.8572 37.9986L42.5572 37.6936H42.6522C42.7188 37.6936 42.7722 37.7136 42.8122 37.7536C42.8522 37.7936 42.8722 37.8469 42.8722 37.9136V39.6486ZM42.4672 39.4486H42.8722V40.7736C42.8522 40.7802 42.8255 40.7869 42.7922 40.7936C42.7588 40.8036 42.7222 40.8086 42.6822 40.8086C42.6122 40.8086 42.5588 40.7936 42.5222 40.7636C42.4855 40.7336 42.4672 40.6869 42.4672 40.6236V39.4486ZM44.8443 40.8336C44.6109 40.8336 44.4043 40.7769 44.2243 40.6636C44.0476 40.5469 43.9093 40.3719 43.8093 40.1386C43.7093 39.9019 43.6593 39.6052 43.6593 39.2486C43.6593 38.8652 43.7159 38.5586 43.8293 38.3286C43.9426 38.0986 44.0893 37.9319 44.2693 37.8286C44.4493 37.7219 44.6409 37.6686 44.8443 37.6686C45.0509 37.6686 45.2443 37.7219 45.4243 37.8286C45.6076 37.9352 45.7543 38.1052 45.8643 38.3386C45.9776 38.5686 46.0343 38.8719 46.0343 39.2486C46.0343 39.6019 45.9843 39.8969 45.8843 40.1336C45.7843 40.3669 45.6443 40.5419 45.4643 40.6586C45.2876 40.7752 45.0809 40.8336 44.8443 40.8336ZM44.8443 40.4936C45.0909 40.4936 45.2826 40.3869 45.4193 40.1736C45.5559 39.9569 45.6243 39.6486 45.6243 39.2486C45.6243 38.9519 45.5876 38.7136 45.5143 38.5336C45.4443 38.3502 45.3509 38.2169 45.2343 38.1336C45.1176 38.0502 44.9876 38.0086 44.8443 38.0086C44.7043 38.0086 44.5743 38.0519 44.4543 38.1386C44.3376 38.2219 44.2443 38.3552 44.1743 38.5386C44.1043 38.7219 44.0693 38.9586 44.0693 39.2486C44.0693 39.6486 44.1376 39.9569 44.2743 40.1736C44.4109 40.3869 44.6009 40.4936 44.8443 40.4936ZM47.7293 40.8336C47.5027 40.8336 47.3043 40.8002 47.1343 40.7336C46.9643 40.6636 46.8327 40.5636 46.7393 40.4336C46.646 40.3036 46.5993 40.1469 46.5993 39.9636C46.5993 39.8002 46.636 39.6619 46.7093 39.5486C46.786 39.4319 46.8827 39.3386 46.9993 39.2686C47.116 39.1986 47.2377 39.1519 47.3643 39.1286L47.6643 39.0786C47.9043 39.0319 48.0843 38.9636 48.2043 38.8736C48.3243 38.7802 48.3843 38.6569 48.3843 38.5036C48.3843 38.3469 48.326 38.2252 48.2093 38.1386C48.0927 38.0486 47.9327 38.0036 47.7293 38.0036C47.5327 38.0036 47.3743 38.0486 47.2543 38.1386C47.1343 38.2286 47.0743 38.3486 47.0743 38.4986C47.0743 38.6252 47.1077 38.7269 47.1743 38.8036C47.2443 38.8802 47.336 38.9386 47.4493 38.9786C47.566 39.0152 47.6927 39.0402 47.8293 39.0536L48.0493 39.1286C48.186 39.1552 48.316 39.2036 48.4393 39.2736C48.5627 39.3402 48.6627 39.4302 48.7393 39.5436C48.816 39.6569 48.8543 39.7986 48.8543 39.9686C48.8543 40.1486 48.806 40.3036 48.7093 40.4336C48.616 40.5636 48.4843 40.6636 48.3143 40.7336C48.1477 40.8002 47.9527 40.8336 47.7293 40.8336ZM47.7293 40.4986C47.946 40.4986 48.121 40.4519 48.2543 40.3586C48.3877 40.2652 48.4543 40.1302 48.4543 39.9536C48.4543 39.7602 48.3727 39.6069 48.2093 39.4936C48.0493 39.3802 47.8343 39.3152 47.5643 39.2986L47.3093 39.2236C47.116 39.1702 46.961 39.0836 46.8443 38.9636C46.731 38.8436 46.6743 38.6869 46.6743 38.4936C46.6743 38.3236 46.7177 38.1769 46.8043 38.0536C46.8943 37.9302 47.0177 37.8352 47.1743 37.7686C47.3343 37.7019 47.5193 37.6686 47.7293 37.6686C48.056 37.6686 48.3127 37.7436 48.4993 37.8936C48.6893 38.0402 48.7843 38.2436 48.7843 38.5036C48.7843 38.7136 48.7127 38.8786 48.5693 38.9986C48.4293 39.1186 48.2577 39.1969 48.0543 39.2336L47.7143 39.3036C47.501 39.3369 47.3277 39.4102 47.1943 39.5236C47.0643 39.6336 46.9993 39.7786 46.9993 39.9586C46.9993 40.1286 47.0643 40.2619 47.1943 40.3586C47.3243 40.4519 47.5027 40.4986 47.7293 40.4986Z" fill="#A73C4C"/>
<path d="M68.8722 42.6486H68.4672V41.1186L67.8272 41.4186C67.7838 41.4019 67.7472 41.3769 67.7172 41.3436C67.6905 41.3102 67.6772 41.2686 67.6772 41.2186C67.6772 41.1219 67.7372 41.0486 67.8572 40.9986L68.5572 40.6936H68.6522C68.7188 40.6936 68.7722 40.7136 68.8122 40.7536C68.8522 40.7936 68.8722 40.8469 68.8722 40.9136V42.6486ZM68.4672 42.4486H68.8722V43.7736C68.8522 43.7802 68.8255 43.7869 68.7922 43.7936C68.7588 43.8036 68.7222 43.8086 68.6822 43.8086C68.6122 43.8086 68.5588 43.7936 68.5222 43.7636C68.4855 43.7336 68.4672 43.6869 68.4672 43.6236V42.4486ZM70.6837 42.6486H70.2787V41.1186L69.6387 41.4186C69.5954 41.4019 69.5587 41.3769 69.5287 41.3436C69.502 41.3102 69.4887 41.2686 69.4887 41.2186C69.4887 41.1219 69.5487 41.0486 69.6687 40.9986L70.3687 40.6936H70.4637C70.5304 40.6936 70.5837 40.7136 70.6237 40.7536C70.6637 40.7936 70.6837 40.8469 70.6837 40.9136V42.6486ZM70.2787 42.4486H70.6837V43.7736C70.6637 43.7802 70.637 43.7869 70.6037 43.7936C70.5704 43.8036 70.5337 43.8086 70.4937 43.8086C70.4237 43.8086 70.3704 43.7936 70.3337 43.7636C70.297 43.7336 70.2787 43.6869 70.2787 43.6236V42.4486ZM72.6558 43.8336C72.4225 43.8336 72.2158 43.7769 72.0358 43.6636C71.8591 43.5469 71.7208 43.3719 71.6208 43.1386C71.5208 42.9019 71.4708 42.6052 71.4708 42.2486C71.4708 41.8652 71.5275 41.5586 71.6408 41.3286C71.7541 41.0986 71.9008 40.9319 72.0808 40.8286C72.2608 40.7219 72.4525 40.6686 72.6558 40.6686C72.8625 40.6686 73.0558 40.7219 73.2358 40.8286C73.4191 40.9352 73.5658 41.1052 73.6758 41.3386C73.7891 41.5686 73.8458 41.8719 73.8458 42.2486C73.8458 42.6019 73.7958 42.8969 73.6958 43.1336C73.5958 43.3669 73.4558 43.5419 73.2758 43.6586C73.0991 43.7752 72.8925 43.8336 72.6558 43.8336ZM72.6558 43.4936C72.9025 43.4936 73.0941 43.3869 73.2308 43.1736C73.3675 42.9569 73.4358 42.6486 73.4358 42.2486C73.4358 41.9519 73.3991 41.7136 73.3258 41.5336C73.2558 41.3502 73.1625 41.2169 73.0458 41.1336C72.9291 41.0502 72.7991 41.0086 72.6558 41.0086C72.5158 41.0086 72.3858 41.0519 72.2658 41.1386C72.1491 41.2219 72.0558 41.3552 71.9858 41.5386C71.9158 41.7219 71.8808 41.9586 71.8808 42.2486C71.8808 42.6486 71.9491 42.9569 72.0858 43.1736C72.2225 43.3869 72.4125 43.4936 72.6558 43.4936Z" fill="#A73C4C"/>
<path d="M81.7222 36.0386L81.7222 35.6336L83.2522 35.6336L82.9522 34.9936C82.9688 34.9502 82.9938 34.9136 83.0272 34.8836C83.0605 34.8569 83.1022 34.8436 83.1522 34.8436C83.2488 34.8436 83.3222 34.9036 83.3722 35.0236L83.6772 35.7236L83.6772 35.8186C83.6772 35.8852 83.6572 35.9386 83.6172 35.9786C83.5772 36.0186 83.5238 36.0386 83.4572 36.0386L81.7222 36.0386ZM81.9222 35.6336L81.9222 36.0386L80.5972 36.0386C80.5905 36.0186 80.5838 35.9919 80.5772 35.9586C80.5672 35.9252 80.5622 35.8886 80.5622 35.8486C80.5622 35.7786 80.5772 35.7252 80.6072 35.6886C80.6372 35.6519 80.6838 35.6336 80.7472 35.6336L81.9222 35.6336ZM81.7222 37.8501L81.7222 37.4451L83.2522 37.4451L82.9522 36.8051C82.9688 36.7617 82.9938 36.7251 83.0272 36.6951C83.0605 36.6684 83.1022 36.6551 83.1522 36.6551C83.2488 36.6551 83.3222 36.7151 83.3722 36.8351L83.6772 37.5351L83.6772 37.6301C83.6772 37.6967 83.6572 37.7501 83.6172 37.7901C83.5772 37.8301 83.5238 37.8501 83.4572 37.8501L81.7222 37.8501ZM81.9222 37.4451L81.9222 37.8501L80.5972 37.8501C80.5905 37.8301 80.5838 37.8034 80.5772 37.7701C80.5672 37.7367 80.5622 37.7001 80.5622 37.6601C80.5622 37.5901 80.5772 37.5367 80.6072 37.5001C80.6372 37.4634 80.6838 37.4451 80.7472 37.4451L81.9222 37.4451ZM81.7222 39.6616L81.7222 39.2566L83.2522 39.2566L82.9522 38.6166C82.9688 38.5733 82.9938 38.5366 83.0272 38.5066C83.0605 38.4799 83.1022 38.4666 83.1522 38.4666C83.2488 38.4666 83.3222 38.5266 83.3722 38.6466L83.6772 39.3466L83.6772 39.4416C83.6772 39.5083 83.6572 39.5616 83.6172 39.6016C83.5772 39.6416 83.5238 39.6616 83.4572 39.6616L81.7222 39.6616ZM81.9222 39.2566L81.9222 39.6616L80.5972 39.6616C80.5905 39.6416 80.5838 39.6149 80.5772 39.5816C80.5672 39.5483 80.5622 39.5116 80.5622 39.4716C80.5622 39.4016 80.5772 39.3483 80.6072 39.3116C80.6372 39.2749 80.6838 39.2566 80.7472 39.2566L81.9222 39.2566Z" fill="#A73C4C"/>
<path d="M62.7222 40.0386L62.7222 39.6336L64.2522 39.6336L63.9522 38.9936C63.9688 38.9502 63.9938 38.9136 64.0272 38.8836C64.0605 38.8569 64.1022 38.8436 64.1522 38.8436C64.2488 38.8436 64.3222 38.9036 64.3722 39.0236L64.6772 39.7236L64.6772 39.8186C64.6772 39.8852 64.6572 39.9386 64.6172 39.9786C64.5772 40.0186 64.5238 40.0386 64.4572 40.0386L62.7222 40.0386ZM62.9222 39.6336L62.9222 40.0386L61.5972 40.0386C61.5905 40.0186 61.5838 39.9919 61.5772 39.9586C61.5672 39.9252 61.5622 39.8886 61.5622 39.8486C61.5622 39.7786 61.5772 39.7252 61.6072 39.6886C61.6372 39.6519 61.6838 39.6336 61.7472 39.6336L62.9222 39.6336ZM61.5372 42.0107C61.5372 41.7773 61.5938 41.5707 61.7072 41.3907C61.8238 41.214 61.9988 41.0757 62.2322 40.9757C62.4688 40.8757 62.7655 40.8257 63.1222 40.8257C63.5055 40.8257 63.8122 40.8823 64.0422 40.9957C64.2722 41.109 64.4388 41.2557 64.5422 41.4357C64.6488 41.6157 64.7022 41.8073 64.7022 42.0107C64.7022 42.2173 64.6488 42.4107 64.5422 42.5907C64.4355 42.774 64.2655 42.9207 64.0322 43.0307C63.8022 43.144 63.4988 43.2007 63.1222 43.2007C62.7688 43.2007 62.4738 43.1507 62.2372 43.0507C62.0038 42.9507 61.8288 42.8107 61.7122 42.6307C61.5955 42.454 61.5372 42.2473 61.5372 42.0107ZM61.8772 42.0107C61.8772 42.2573 61.9838 42.449 62.1972 42.5857C62.4138 42.7223 62.7222 42.7907 63.1222 42.7907C63.4188 42.7907 63.6572 42.754 63.8372 42.6807C64.0205 42.6107 64.1538 42.5173 64.2372 42.4007C64.3205 42.284 64.3622 42.154 64.3622 42.0107C64.3622 41.8707 64.3188 41.7407 64.2322 41.6207C64.1488 41.504 64.0155 41.4107 63.8322 41.3407C63.6488 41.2707 63.4122 41.2357 63.1222 41.2357C62.7222 41.2357 62.4138 41.304 62.1972 41.4407C61.9838 41.5773 61.8772 41.7673 61.8772 42.0107ZM61.8472 43.8563C61.8872 43.8563 61.9255 43.8663 61.9622 43.8863C61.9988 43.9096 62.0255 43.938 62.0422 43.9713C62.0055 44.0346 61.9688 44.1163 61.9322 44.2163C61.8988 44.3196 61.8822 44.4413 61.8822 44.5813C61.8822 44.7546 61.9188 44.913 61.9922 45.0563C62.0655 45.1996 62.1855 45.3146 62.3522 45.4013C62.5222 45.488 62.7455 45.5313 63.0222 45.5313C62.9888 45.5013 62.9472 45.4513 62.8972 45.3813C62.8505 45.3146 62.8088 45.2296 62.7722 45.1263C62.7355 45.023 62.7172 44.903 62.7172 44.7663C62.7172 44.5796 62.7488 44.4046 62.8122 44.2413C62.8788 44.078 62.9838 43.9463 63.1272 43.8463C63.2705 43.7496 63.4588 43.7013 63.6922 43.7013C63.9022 43.7013 64.0822 43.748 64.2322 43.8413C64.3855 43.9346 64.5022 44.0613 64.5822 44.2213C64.6622 44.3813 64.7022 44.5596 64.7022 44.7563C64.7022 44.9863 64.6488 45.1896 64.5422 45.3663C64.4388 45.543 64.2772 45.6813 64.0572 45.7813C63.8405 45.8846 63.5605 45.9363 63.2172 45.9363C62.8105 45.9363 62.4838 45.8796 62.2372 45.7663C61.9905 45.653 61.8122 45.4946 61.7022 45.2913C61.5922 45.0913 61.5372 44.8563 61.5372 44.5863C61.5372 44.3863 61.5638 44.2146 61.6172 44.0713C61.6705 43.928 61.7472 43.8563 61.8472 43.8563ZM63.0522 44.8213C63.0522 44.9913 63.0938 45.1413 63.1772 45.2713C63.2638 45.4046 63.3588 45.493 63.4622 45.5363L63.4072 45.5313C63.7038 45.5313 63.9372 45.463 64.1072 45.3263C64.2805 45.193 64.3672 45.003 64.3672 44.7563C64.3672 44.573 64.3072 44.418 64.1872 44.2913C64.0705 44.168 63.9088 44.1063 63.7022 44.1063C63.4722 44.1063 63.3055 44.1763 63.2022 44.3163C63.1022 44.4563 63.0522 44.6246 63.0522 44.8213Z" fill="#A73C4C"/>
<path d="M21.409 8.76855C21.3557 8.76855 21.309 8.75022 21.269 8.71355C21.2324 8.67355 21.214 8.62689 21.214 8.57355V4.86355H21.604V8.57355C21.604 8.62689 21.5857 8.67355 21.549 8.71355C21.5124 8.75022 21.4657 8.76855 21.409 8.76855ZM20.029 5.21855C19.9757 5.21855 19.9324 5.20189 19.899 5.16855C19.8657 5.13522 19.849 5.09355 19.849 5.04355C19.849 4.99022 19.8657 4.94689 19.899 4.91355C19.9324 4.88022 19.9757 4.86355 20.029 4.86355H22.794C22.8474 4.86355 22.8907 4.88022 22.924 4.91355C22.9574 4.94689 22.974 4.99022 22.974 5.04355C22.974 5.09355 22.9574 5.13522 22.924 5.16855C22.8907 5.20189 22.8474 5.21855 22.794 5.21855H20.029ZM23.6954 9.93855C23.6354 9.93855 23.5871 9.92022 23.5504 9.88355C23.5171 9.85022 23.5004 9.80355 23.5004 9.74355V7.38355C23.5037 7.12355 23.5654 6.89022 23.6854 6.68355C23.8087 6.47355 23.9737 6.30855 24.1804 6.18855C24.3904 6.06855 24.6254 6.00855 24.8854 6.00855C25.1521 6.00855 25.3904 6.07022 25.6004 6.19355C25.8104 6.31355 25.9754 6.47855 26.0954 6.68855C26.2187 6.89855 26.2804 7.13689 26.2804 7.40355C26.2804 7.66689 26.2204 7.90355 26.1004 8.11355C25.9837 8.32355 25.8237 8.49022 25.6204 8.61355C25.4171 8.73355 25.1871 8.79355 24.9304 8.79355C24.7071 8.79355 24.5037 8.74689 24.3204 8.65355C24.1404 8.55689 23.9954 8.43022 23.8854 8.27355V9.74355C23.8854 9.80355 23.8671 9.85022 23.8304 9.88355C23.7971 9.92022 23.7521 9.93855 23.6954 9.93855ZM24.8854 8.44355C25.0787 8.44355 25.2521 8.39855 25.4054 8.30855C25.5587 8.21855 25.6787 8.09522 25.7654 7.93855C25.8554 7.77855 25.9004 7.60022 25.9004 7.40355C25.9004 7.20355 25.8554 7.02522 25.7654 6.86855C25.6787 6.71189 25.5587 6.58855 25.4054 6.49855C25.2521 6.40522 25.0787 6.35855 24.8854 6.35855C24.6954 6.35855 24.5237 6.40522 24.3704 6.49855C24.2171 6.58855 24.0971 6.71189 24.0104 6.86855C23.9237 7.02522 23.8804 7.20355 23.8804 7.40355C23.8804 7.60022 23.9237 7.77855 24.0104 7.93855C24.0971 8.09522 24.2171 8.21855 24.3704 8.30855C24.5237 8.39855 24.6954 8.44355 24.8854 8.44355ZM28.2756 8.79355C28.0056 8.79355 27.7656 8.73522 27.5556 8.61855C27.3489 8.49855 27.1856 8.33355 27.0656 8.12355C26.9489 7.91355 26.8906 7.67355 26.8906 7.40355C26.8906 7.13022 26.9456 6.89022 27.0556 6.68355C27.1689 6.47355 27.3239 6.30855 27.5206 6.18855C27.7172 6.06855 27.9439 6.00855 28.2006 6.00855C28.4539 6.00855 28.6739 6.06689 28.8606 6.18355C29.0506 6.29689 29.1972 6.45522 29.3006 6.65855C29.4039 6.86189 29.4556 7.09355 29.4556 7.35355C29.4556 7.40689 29.4389 7.45022 29.4056 7.48355C29.3722 7.51355 29.3289 7.52855 29.2756 7.52855H27.1506V7.20855H29.3156L29.1006 7.36355C29.1039 7.17022 29.0689 6.99689 28.9956 6.84355C28.9222 6.69022 28.8172 6.57022 28.6806 6.48355C28.5472 6.39689 28.3872 6.35355 28.2006 6.35355C28.0106 6.35355 27.8439 6.39855 27.7006 6.48855C27.5572 6.57855 27.4456 6.70355 27.3656 6.86355C27.2889 7.02022 27.2506 7.20022 27.2506 7.40355C27.2506 7.60689 27.2939 7.78689 27.3806 7.94355C27.4706 8.10022 27.5922 8.22355 27.7456 8.31355C27.8989 8.40355 28.0756 8.44855 28.2756 8.44855C28.3956 8.44855 28.5156 8.42855 28.6356 8.38855C28.7589 8.34522 28.8572 8.29189 28.9306 8.22855C28.9672 8.19855 29.0089 8.18355 29.0556 8.18355C29.1022 8.18022 29.1422 8.19189 29.1756 8.21855C29.2189 8.25855 29.2406 8.30189 29.2406 8.34855C29.2439 8.39522 29.2256 8.43522 29.1856 8.46855C29.0756 8.56189 28.9356 8.64022 28.7656 8.70355C28.5956 8.76355 28.4322 8.79355 28.2756 8.79355ZM32.4469 8.76855C32.3902 8.76855 32.3435 8.75189 32.3069 8.71855C32.2702 8.68189 32.2519 8.63355 32.2519 8.57355V6.22855C32.2519 6.16855 32.2702 6.12189 32.3069 6.08855C32.3435 6.05189 32.3902 6.03355 32.4469 6.03355C32.5035 6.03355 32.5485 6.05189 32.5819 6.08855C32.6152 6.12189 32.6319 6.16855 32.6319 6.22855V8.57355C32.6319 8.63355 32.6152 8.68189 32.5819 8.71855C32.5485 8.75189 32.5035 8.76855 32.4469 8.76855ZM30.2969 8.76855C30.2402 8.76855 30.1935 8.75189 30.1569 8.71855C30.1235 8.68189 30.1069 8.63355 30.1069 8.57355V6.22855C30.1069 6.16855 30.1235 6.12189 30.1569 6.08855C30.1935 6.05189 30.2402 6.03355 30.2969 6.03355C30.3535 6.03355 30.3985 6.05189 30.4319 6.08855C30.4685 6.12189 30.4869 6.16855 30.4869 6.22855V8.57355C30.4869 8.63355 30.4685 8.68189 30.4319 8.71855C30.3985 8.75189 30.3535 8.76855 30.2969 8.76855ZM30.4219 7.56355V7.21855H32.3869V7.56355H30.4219ZM34.7347 8.79355C34.478 8.79355 34.248 8.73355 34.0447 8.61355C33.8414 8.49022 33.6797 8.32355 33.5597 8.11355C33.443 7.90355 33.3847 7.66689 33.3847 7.40355C33.3847 7.13689 33.4447 6.89855 33.5647 6.68855C33.688 6.47855 33.8547 6.31355 34.0647 6.19355C34.2747 6.07022 34.5114 6.00855 34.7747 6.00855C35.038 6.00855 35.273 6.07022 35.4797 6.19355C35.6897 6.31355 35.8547 6.47855 35.9747 6.68855C36.098 6.89855 36.1614 7.13689 36.1647 7.40355L36.0097 7.52355C36.0097 7.76355 35.953 7.98022 35.8397 8.17355C35.7297 8.36355 35.578 8.51522 35.3847 8.62855C35.1947 8.73855 34.978 8.79355 34.7347 8.79355ZM34.7747 8.44355C34.968 8.44355 35.1397 8.39855 35.2897 8.30855C35.443 8.21855 35.563 8.09522 35.6497 7.93855C35.7397 7.77855 35.7847 7.60022 35.7847 7.40355C35.7847 7.20355 35.7397 7.02522 35.6497 6.86855C35.563 6.71189 35.443 6.58855 35.2897 6.49855C35.1397 6.40522 34.968 6.35855 34.7747 6.35855C34.5847 6.35855 34.413 6.40522 34.2597 6.49855C34.1064 6.58855 33.9847 6.71189 33.8947 6.86855C33.8047 7.02522 33.7597 7.20355 33.7597 7.40355C33.7597 7.60022 33.8047 7.77855 33.8947 7.93855C33.9847 8.09522 34.1064 8.21855 34.2597 8.30855C34.413 8.39855 34.5847 8.44355 34.7747 8.44355ZM35.9697 8.76855C35.913 8.76855 35.8664 8.75189 35.8297 8.71855C35.793 8.68189 35.7747 8.63522 35.7747 8.57855V7.72355L35.8697 7.32855L36.1647 7.40355V8.57855C36.1647 8.63522 36.1464 8.68189 36.1097 8.71855C36.073 8.75189 36.0264 8.76855 35.9697 8.76855ZM38.4285 8.76855C38.3718 8.76855 38.3252 8.75189 38.2885 8.71855C38.2552 8.68189 38.2385 8.63522 38.2385 8.57855V7.56855H37.7885L36.9535 8.71355C36.9235 8.75355 36.8802 8.77189 36.8235 8.76855C36.7702 8.76855 36.7268 8.75189 36.6935 8.71855C36.6568 8.68189 36.6385 8.64189 36.6385 8.59855C36.6418 8.55522 36.6568 8.51355 36.6835 8.47355L37.4785 7.38355L36.7735 6.32355C36.7468 6.28022 36.7335 6.23689 36.7335 6.19355C36.7335 6.15022 36.7535 6.11022 36.7935 6.07355C36.8268 6.04355 36.8685 6.03022 36.9185 6.03355C36.9685 6.03355 37.0085 6.05355 37.0385 6.09355L37.7835 7.22855H38.2385V6.22855C38.2385 6.16855 38.2552 6.12189 38.2885 6.08855C38.3252 6.05189 38.3718 6.03355 38.4285 6.03355C38.4852 6.03355 38.5318 6.05189 38.5685 6.08855C38.6052 6.12189 38.6235 6.16855 38.6235 6.22855V7.22855H39.0685L39.8185 6.09355C39.8485 6.05355 39.8885 6.03355 39.9385 6.03355C39.9885 6.03022 40.0302 6.04355 40.0635 6.07355C40.1035 6.11022 40.1235 6.15022 40.1235 6.19355C40.1235 6.23689 40.1102 6.28022 40.0835 6.32355L39.3785 7.38355L40.1735 8.47355C40.2002 8.51355 40.2152 8.55522 40.2185 8.59855C40.2218 8.64189 40.2035 8.68189 40.1635 8.71855C40.1302 8.75189 40.0852 8.76855 40.0285 8.76855C39.9752 8.77189 39.9352 8.75355 39.9085 8.71355L39.0735 7.56855H38.6235V8.57855C38.6235 8.63522 38.6052 8.68189 38.5685 8.71855C38.5318 8.75189 38.4852 8.76855 38.4285 8.76855ZM41.8351 8.79355C41.5651 8.79355 41.3251 8.73522 41.1151 8.61855C40.9085 8.49855 40.7451 8.33355 40.6251 8.12355C40.5085 7.91355 40.4501 7.67355 40.4501 7.40355C40.4501 7.13022 40.5051 6.89022 40.6151 6.68355C40.7285 6.47355 40.8835 6.30855 41.0801 6.18855C41.2768 6.06855 41.5035 6.00855 41.7601 6.00855C42.0135 6.00855 42.2335 6.06689 42.4201 6.18355C42.6101 6.29689 42.7568 6.45522 42.8601 6.65855C42.9635 6.86189 43.0151 7.09355 43.0151 7.35355C43.0151 7.40689 42.9985 7.45022 42.9651 7.48355C42.9318 7.51355 42.8885 7.52855 42.8351 7.52855H40.7101V7.20855H42.8751L42.6601 7.36355C42.6635 7.17022 42.6285 6.99689 42.5551 6.84355C42.4818 6.69022 42.3768 6.57022 42.2401 6.48355C42.1068 6.39689 41.9468 6.35355 41.7601 6.35355C41.5701 6.35355 41.4035 6.39855 41.2601 6.48855C41.1168 6.57855 41.0051 6.70355 40.9251 6.86355C40.8485 7.02022 40.8101 7.20022 40.8101 7.40355C40.8101 7.60689 40.8535 7.78689 40.9401 7.94355C41.0301 8.10022 41.1518 8.22355 41.3051 8.31355C41.4585 8.40355 41.6351 8.44855 41.8351 8.44855C41.9551 8.44855 42.0751 8.42855 42.1951 8.38855C42.3185 8.34522 42.4168 8.29189 42.4901 8.22855C42.5268 8.19855 42.5685 8.18355 42.6151 8.18355C42.6618 8.18022 42.7018 8.19189 42.7351 8.21855C42.7785 8.25855 42.8001 8.30189 42.8001 8.34855C42.8035 8.39522 42.7851 8.43522 42.7451 8.46855C42.6351 8.56189 42.4951 8.64022 42.3251 8.70355C42.1551 8.76355 41.9918 8.79355 41.8351 8.79355ZM43.8614 9.93855C43.8014 9.93855 43.7531 9.92022 43.7164 9.88355C43.6831 9.85022 43.6664 9.80355 43.6664 9.74355V7.38355C43.6698 7.12355 43.7314 6.89022 43.8514 6.68355C43.9748 6.47355 44.1398 6.30855 44.3464 6.18855C44.5564 6.06855 44.7914 6.00855 45.0514 6.00855C45.3181 6.00855 45.5564 6.07022 45.7664 6.19355C45.9764 6.31355 46.1414 6.47855 46.2614 6.68855C46.3848 6.89855 46.4464 7.13689 46.4464 7.40355C46.4464 7.66689 46.3864 7.90355 46.2664 8.11355C46.1498 8.32355 45.9898 8.49022 45.7864 8.61355C45.5831 8.73355 45.3531 8.79355 45.0964 8.79355C44.8731 8.79355 44.6698 8.74689 44.4864 8.65355C44.3064 8.55689 44.1614 8.43022 44.0514 8.27355V9.74355C44.0514 9.80355 44.0331 9.85022 43.9964 9.88355C43.9631 9.92022 43.9181 9.93855 43.8614 9.93855ZM45.0514 8.44355C45.2448 8.44355 45.4181 8.39855 45.5714 8.30855C45.7248 8.21855 45.8448 8.09522 45.9314 7.93855C46.0214 7.77855 46.0664 7.60022 46.0664 7.40355C46.0664 7.20355 46.0214 7.02522 45.9314 6.86855C45.8448 6.71189 45.7248 6.58855 45.5714 6.49855C45.4181 6.40522 45.2448 6.35855 45.0514 6.35855C44.8614 6.35855 44.6898 6.40522 44.5364 6.49855C44.3831 6.58855 44.2631 6.71189 44.1764 6.86855C44.0898 7.02522 44.0464 7.20355 44.0464 7.40355C44.0464 7.60022 44.0898 7.77855 44.1764 7.93855C44.2631 8.09522 44.3831 8.21855 44.5364 8.30855C44.6898 8.39855 44.8614 8.44355 45.0514 8.44355ZM49.5416 8.76855C49.4849 8.76855 49.4383 8.75189 49.4016 8.71855C49.3649 8.68189 49.3466 8.63355 49.3466 8.57355V6.22855C49.3466 6.16855 49.3649 6.12189 49.4016 6.08855C49.4383 6.05189 49.4849 6.03355 49.5416 6.03355C49.5983 6.03355 49.6433 6.05189 49.6766 6.08855C49.7099 6.12189 49.7266 6.16855 49.7266 6.22855V8.57355C49.7266 8.63355 49.7099 8.68189 49.6766 8.71855C49.6433 8.75189 49.5983 8.76855 49.5416 8.76855ZM47.3916 8.76855C47.3349 8.76855 47.2883 8.75189 47.2516 8.71855C47.2183 8.68189 47.2016 8.63355 47.2016 8.57355V6.22855C47.2016 6.16855 47.2183 6.12189 47.2516 6.08855C47.2883 6.05189 47.3349 6.03355 47.3916 6.03355C47.4483 6.03355 47.4933 6.05189 47.5266 6.08855C47.5633 6.12189 47.5816 6.16855 47.5816 6.22855V8.57355C47.5816 8.63355 47.5633 8.68189 47.5266 8.71855C47.4933 8.75189 47.4483 8.76855 47.3916 8.76855ZM47.5166 7.56355V7.21855H49.4816V7.56355H47.5166ZM51.7294 8.81855C51.5128 8.81855 51.3211 8.77522 51.1544 8.68855C50.9911 8.60189 50.8611 8.48189 50.7644 8.32855C50.6711 8.17522 50.6244 7.99855 50.6244 7.79855V6.22355C50.6278 6.16689 50.6461 6.12189 50.6794 6.08855C50.7161 6.05189 50.7628 6.03355 50.8194 6.03355C50.8761 6.03355 50.9211 6.05189 50.9544 6.08855C50.9911 6.12189 51.0094 6.16855 51.0094 6.22855V6.93855H51.7494C51.9494 6.93855 52.1261 6.97689 52.2794 7.05355C52.4361 7.12689 52.5578 7.23355 52.6444 7.37355C52.7311 7.51022 52.7744 7.67355 52.7744 7.86355C52.7744 8.05689 52.7294 8.22522 52.6394 8.36855C52.5528 8.51189 52.4294 8.62355 52.2694 8.70355C52.1128 8.78022 51.9328 8.81855 51.7294 8.81855ZM51.7294 8.46355C51.9228 8.46355 52.0828 8.41355 52.2094 8.31355C52.3361 8.21355 52.3994 8.06355 52.3994 7.86355C52.3994 7.66355 52.3378 7.51522 52.2144 7.41855C52.0944 7.32189 51.9394 7.27355 51.7494 7.27355H51.0094V7.79855C51.0094 7.99189 51.0761 8.15189 51.2094 8.27855C51.3461 8.40189 51.5194 8.46355 51.7294 8.46355ZM53.3994 8.76855C53.3428 8.76855 53.2961 8.75189 53.2594 8.71855C53.2261 8.68189 53.2094 8.63355 53.2094 8.57355V6.22855C53.2094 6.16855 53.2261 6.12189 53.2594 6.08855C53.2961 6.05189 53.3428 6.03355 53.3994 6.03355C53.4594 6.03355 53.5061 6.05189 53.5394 6.08855C53.5761 6.12189 53.5944 6.16855 53.5944 6.22855V8.57355C53.5944 8.63355 53.5761 8.68189 53.5394 8.71855C53.5061 8.75189 53.4594 8.76855 53.3994 8.76855ZM55.6865 8.79855C55.4498 8.79855 55.2382 8.75022 55.0515 8.65355C54.8648 8.55355 54.7165 8.40855 54.6065 8.21855C54.4998 8.02855 54.4465 7.79689 54.4465 7.52355V6.22355C54.4465 6.17022 54.4648 6.12522 54.5015 6.08855C54.5382 6.05189 54.5832 6.03355 54.6365 6.03355C54.6932 6.03355 54.7398 6.05189 54.7765 6.08855C54.8132 6.12522 54.8315 6.17022 54.8315 6.22355V7.52355C54.8315 7.73022 54.8698 7.90022 54.9465 8.03355C55.0265 8.16689 55.1332 8.26689 55.2665 8.33355C55.4032 8.40022 55.5565 8.43355 55.7265 8.43355C55.8898 8.43355 56.0365 8.40189 56.1665 8.33855C56.2998 8.27522 56.4048 8.18855 56.4815 8.07855C56.5582 7.96855 56.5965 7.84355 56.5965 7.70355H56.8715C56.8615 7.91355 56.8032 8.10189 56.6965 8.26855C56.5932 8.43189 56.4532 8.56189 56.2765 8.65855C56.0998 8.75189 55.9032 8.79855 55.6865 8.79855ZM56.7865 8.76855C56.7298 8.76855 56.6832 8.75189 56.6465 8.71855C56.6132 8.68189 56.5965 8.63355 56.5965 8.57355V6.22355C56.5965 6.16689 56.6132 6.12189 56.6465 6.08855C56.6832 6.05189 56.7298 6.03355 56.7865 6.03355C56.8432 6.03355 56.8898 6.05189 56.9265 6.08855C56.9632 6.12189 56.9815 6.16689 56.9815 6.22355V8.57355C56.9815 8.63355 56.9632 8.68189 56.9265 8.71855C56.8898 8.75189 56.8432 8.76855 56.7865 8.76855ZM55.7415 5.67855C55.5782 5.67855 55.4315 5.65189 55.3015 5.59855C55.1715 5.54189 55.0682 5.46522 54.9915 5.36855C54.9182 5.27189 54.8815 5.16355 54.8815 5.04355C54.8815 4.99022 54.8982 4.94522 54.9315 4.90855C54.9682 4.87189 55.0115 4.85355 55.0615 4.85355C55.1148 4.85355 55.1582 4.87189 55.1915 4.90855C55.2248 4.94522 55.2415 4.99522 55.2415 5.05855C55.2415 5.15189 55.2898 5.22689 55.3865 5.28355C55.4832 5.34022 55.6015 5.36855 55.7415 5.36855C55.8848 5.36855 56.0032 5.34022 56.0965 5.28355C56.1932 5.22689 56.2415 5.15189 56.2415 5.05855C56.2415 4.99522 56.2582 4.94522 56.2915 4.90855C56.3282 4.87189 56.3715 4.85355 56.4215 4.85355C56.4748 4.85355 56.5182 4.87189 56.5515 4.90855C56.5848 4.94522 56.6015 4.99022 56.6015 5.04355C56.6015 5.16355 56.5632 5.27189 56.4865 5.36855C56.4132 5.46522 56.3115 5.54189 56.1815 5.59855C56.0515 5.65189 55.9048 5.67855 55.7415 5.67855ZM35.4714 14.8136C35.328 14.8136 35.188 14.7952 35.0514 14.7586C34.9147 14.7186 34.7914 14.6652 34.6814 14.5986C34.5714 14.5286 34.4847 14.4519 34.4214 14.3686C34.388 14.3252 34.3747 14.2786 34.3814 14.2286C34.3914 14.1786 34.4214 14.1386 34.4714 14.1086C34.508 14.0852 34.5514 14.0802 34.6014 14.0936C34.6547 14.1036 34.698 14.1269 34.7314 14.1636C34.8147 14.2502 34.9197 14.3219 35.0464 14.3786C35.173 14.4352 35.313 14.4636 35.4664 14.4636C35.6664 14.4636 35.828 14.4219 35.9514 14.3386C36.078 14.2552 36.1414 14.1369 36.1414 13.9836C36.1414 13.8502 36.0914 13.7386 35.9914 13.6486C35.8947 13.5586 35.773 13.5102 35.6264 13.5036H35.3714C35.308 13.5036 35.2564 13.4886 35.2164 13.4586C35.1764 13.4252 35.1564 13.3852 35.1564 13.3386C35.1564 13.2919 35.1764 13.2536 35.2164 13.2236C35.2564 13.1936 35.308 13.1786 35.3714 13.1786H35.6264C35.7497 13.1752 35.8497 13.1336 35.9264 13.0536C36.003 12.9736 36.0414 12.8752 36.0414 12.7586C36.0414 12.6386 35.988 12.5402 35.8814 12.4636C35.778 12.3869 35.638 12.3486 35.4614 12.3486C35.298 12.3486 35.1614 12.3752 35.0514 12.4286C34.9414 12.4819 34.853 12.5502 34.7864 12.6336C34.7497 12.6736 34.7064 12.6986 34.6564 12.7086C34.6097 12.7152 34.5647 12.7052 34.5214 12.6786C34.478 12.6552 34.453 12.6186 34.4464 12.5686C34.443 12.5186 34.458 12.4719 34.4914 12.4286C34.598 12.3052 34.733 12.2019 34.8964 12.1186C35.063 12.0352 35.2497 11.9936 35.4564 11.9936C35.643 11.9936 35.808 12.0269 35.9514 12.0936C36.098 12.1569 36.213 12.2452 36.2964 12.3586C36.3797 12.4686 36.4214 12.5919 36.4214 12.7286C36.4214 12.8386 36.3914 12.9402 36.3314 13.0336C36.2747 13.1236 36.1964 13.1986 36.0964 13.2586C35.9997 13.3152 35.8914 13.3486 35.7714 13.3586V13.3036C35.9114 13.3036 36.038 13.3336 36.1514 13.3936C36.2647 13.4536 36.3547 13.5369 36.4214 13.6436C36.488 13.7469 36.5214 13.8636 36.5214 13.9936C36.5214 14.1502 36.4747 14.2902 36.3814 14.4136C36.2914 14.5369 36.1664 14.6352 36.0064 14.7086C35.8497 14.7786 35.6714 14.8136 35.4714 14.8136ZM38.3797 14.7936C38.1231 14.7936 37.8931 14.7336 37.6897 14.6136C37.4864 14.4902 37.3247 14.3236 37.2047 14.1136C37.0881 13.9036 37.0297 13.6669 37.0297 13.4036C37.0297 13.1369 37.0897 12.8986 37.2097 12.6886C37.3331 12.4786 37.4997 12.3136 37.7097 12.1936C37.9197 12.0702 38.1564 12.0086 38.4197 12.0086C38.6831 12.0086 38.9181 12.0702 39.1247 12.1936C39.3347 12.3136 39.4997 12.4786 39.6197 12.6886C39.7431 12.8986 39.8064 13.1369 39.8097 13.4036L39.6547 13.5236C39.6547 13.7636 39.5981 13.9802 39.4847 14.1736C39.3747 14.3636 39.2231 14.5152 39.0297 14.6286C38.8397 14.7386 38.6231 14.7936 38.3797 14.7936ZM38.4197 14.4436C38.6131 14.4436 38.7847 14.3986 38.9347 14.3086C39.0881 14.2186 39.2081 14.0952 39.2947 13.9386C39.3847 13.7786 39.4297 13.6002 39.4297 13.4036C39.4297 13.2036 39.3847 13.0252 39.2947 12.8686C39.2081 12.7119 39.0881 12.5886 38.9347 12.4986C38.7847 12.4052 38.6131 12.3586 38.4197 12.3586C38.2297 12.3586 38.0581 12.4052 37.9047 12.4986C37.7514 12.5886 37.6297 12.7119 37.5397 12.8686C37.4497 13.0252 37.4047 13.2036 37.4047 13.4036C37.4047 13.6002 37.4497 13.7786 37.5397 13.9386C37.6297 14.0952 37.7514 14.2186 37.9047 14.3086C38.0581 14.3986 38.2297 14.4436 38.4197 14.4436ZM39.6147 14.7686C39.5581 14.7686 39.5114 14.7519 39.4747 14.7186C39.4381 14.6819 39.4197 14.6352 39.4197 14.5786V13.7236L39.5147 13.3286L39.8097 13.4036V14.5786C39.8097 14.6352 39.7914 14.6819 39.7547 14.7186C39.7181 14.7519 39.6714 14.7686 39.6147 14.7686ZM41.5785 12.0336C41.6185 12.0336 41.6552 12.0436 41.6885 12.0636C41.7219 12.0836 41.7485 12.1169 41.7685 12.1636L42.8535 14.5236C42.8769 14.5702 42.8785 14.6152 42.8585 14.6586C42.8419 14.6986 42.8102 14.7302 42.7635 14.7536C42.7102 14.7769 42.6619 14.7819 42.6185 14.7686C42.5752 14.7519 42.5402 14.7186 42.5135 14.6686L41.4785 12.3636H41.7035L40.6485 14.6636C40.6252 14.7136 40.5885 14.7469 40.5385 14.7636C40.4919 14.7769 40.4435 14.7719 40.3935 14.7486C40.3469 14.7252 40.3135 14.6936 40.2935 14.6536C40.2769 14.6102 40.2785 14.5652 40.2985 14.5186L41.3985 12.1636C41.4385 12.0769 41.4985 12.0336 41.5785 12.0336Z" fill="#A73C4C"/>
<path d="M97.1763 22.8186C97.0063 22.8186 96.8397 22.7986 96.6763 22.7586C96.5163 22.7152 96.3697 22.6552 96.2363 22.5786C96.103 22.4986 95.9963 22.4036 95.9163 22.2936C95.8963 22.2502 95.888 22.2052 95.8913 22.1586C95.8947 22.1086 95.9163 22.0669 95.9563 22.0336C95.9963 22.0036 96.0397 21.9919 96.0863 21.9986C96.1363 22.0052 96.178 22.0302 96.2113 22.0736C96.3213 22.1902 96.4597 22.2836 96.6263 22.3536C96.793 22.4202 96.9763 22.4536 97.1763 22.4536C97.3597 22.4536 97.5213 22.4219 97.6613 22.3586C97.8013 22.2952 97.9113 22.2036 97.9913 22.0836C98.0747 21.9636 98.1163 21.8202 98.1163 21.6536C98.1163 21.4069 98.0413 21.2152 97.8913 21.0786C97.7447 20.9419 97.5547 20.8736 97.3213 20.8736H97.0113C96.958 20.8736 96.9147 20.8586 96.8813 20.8286C96.848 20.7952 96.8313 20.7536 96.8313 20.7036C96.8313 20.6502 96.848 20.6086 96.8813 20.5786C96.9147 20.5452 96.9563 20.5286 97.0063 20.5286H97.2863C97.4763 20.5286 97.633 20.4669 97.7563 20.3436C97.883 20.2202 97.9463 20.0486 97.9463 19.8286C97.9463 19.6119 97.8713 19.4502 97.7213 19.3436C97.5713 19.2336 97.378 19.1786 97.1413 19.1786C96.9647 19.1786 96.8047 19.2119 96.6613 19.2786C96.518 19.3452 96.4013 19.4386 96.3113 19.5586C96.2747 19.6086 96.2313 19.6402 96.1813 19.6536C96.1347 19.6669 96.088 19.6586 96.0413 19.6286C95.998 19.6019 95.9697 19.5652 95.9563 19.5186C95.9463 19.4686 95.958 19.4219 95.9913 19.3786C96.1147 19.2152 96.2697 19.0819 96.4563 18.9786C96.6463 18.8719 96.8747 18.8186 97.1413 18.8186C97.3747 18.8186 97.5797 18.8619 97.7563 18.9486C97.9363 19.0319 98.0763 19.1486 98.1763 19.2986C98.2797 19.4486 98.3313 19.6186 98.3313 19.8086C98.3313 19.9419 98.3047 20.0652 98.2513 20.1786C98.2013 20.2886 98.133 20.3852 98.0463 20.4686C97.963 20.5519 97.868 20.6169 97.7613 20.6636C97.658 20.7102 97.5547 20.7369 97.4513 20.7436V20.6236C97.5747 20.6302 97.698 20.6586 97.8213 20.7086C97.9447 20.7552 98.0563 20.8236 98.1563 20.9136C98.2597 21.0002 98.3413 21.1069 98.4013 21.2336C98.4647 21.3569 98.4963 21.5002 98.4963 21.6636C98.4963 21.8869 98.4397 22.0852 98.3263 22.2586C98.213 22.4319 98.0563 22.5686 97.8563 22.6686C97.6597 22.7686 97.433 22.8186 97.1763 22.8186ZM100.455 22.7936C100.198 22.7936 99.9683 22.7336 99.7649 22.6136C99.5616 22.4902 99.3999 22.3236 99.2799 22.1136C99.1633 21.9036 99.1049 21.6669 99.1049 21.4036C99.1049 21.1369 99.1649 20.8986 99.2849 20.6886C99.4083 20.4786 99.5749 20.3136 99.7849 20.1936C99.9949 20.0702 100.232 20.0086 100.495 20.0086C100.758 20.0086 100.993 20.0702 101.2 20.1936C101.41 20.3136 101.575 20.4786 101.695 20.6886C101.818 20.8986 101.882 21.1369 101.885 21.4036L101.73 21.5236C101.73 21.7636 101.673 21.9802 101.56 22.1736C101.45 22.3636 101.298 22.5152 101.105 22.6286C100.915 22.7386 100.698 22.7936 100.455 22.7936ZM100.495 22.4436C100.688 22.4436 100.86 22.3986 101.01 22.3086C101.163 22.2186 101.283 22.0952 101.37 21.9386C101.46 21.7786 101.505 21.6002 101.505 21.4036C101.505 21.2036 101.46 21.0252 101.37 20.8686C101.283 20.7119 101.163 20.5886 101.01 20.4986C100.86 20.4052 100.688 20.3586 100.495 20.3586C100.305 20.3586 100.133 20.4052 99.9799 20.4986C99.8266 20.5886 99.7049 20.7119 99.6149 20.8686C99.5249 21.0252 99.4799 21.2036 99.4799 21.4036C99.4799 21.6002 99.5249 21.7786 99.6149 21.9386C99.7049 22.0952 99.8266 22.2186 99.9799 22.3086C100.133 22.3986 100.305 22.4436 100.495 22.4436ZM101.69 22.7686C101.633 22.7686 101.587 22.7519 101.55 22.7186C101.513 22.6819 101.495 22.6352 101.495 22.5786V21.7236L101.59 21.3286L101.885 21.4036V22.5786C101.885 22.6352 101.867 22.6819 101.83 22.7186C101.793 22.7519 101.747 22.7686 101.69 22.7686ZM103.654 20.0336C103.694 20.0336 103.73 20.0436 103.764 20.0636C103.797 20.0836 103.824 20.1169 103.844 20.1636L104.929 22.5236C104.952 22.5702 104.954 22.6152 104.934 22.6586C104.917 22.6986 104.885 22.7302 104.839 22.7536C104.785 22.7769 104.737 22.7819 104.694 22.7686C104.65 22.7519 104.615 22.7186 104.589 22.6686L103.554 20.3636H103.779L102.724 22.6636C102.7 22.7136 102.664 22.7469 102.614 22.7636C102.567 22.7769 102.519 22.7719 102.469 22.7486C102.422 22.7252 102.389 22.6936 102.369 22.6536C102.352 22.6102 102.354 22.5652 102.374 22.5186L103.474 20.1636C103.514 20.0769 103.574 20.0336 103.654 20.0336ZM89.6761 28.7936C89.4195 28.7936 89.1895 28.7336 88.9861 28.6136C88.7828 28.4902 88.6211 28.3236 88.5011 28.1136C88.3845 27.9036 88.3261 27.6669 88.3261 27.4036C88.3261 27.1369 88.3861 26.8986 88.5061 26.6886C88.6295 26.4786 88.7961 26.3136 89.0061 26.1936C89.2161 26.0702 89.4528 26.0086 89.7161 26.0086C89.9795 26.0086 90.2145 26.0702 90.4211 26.1936C90.6311 26.3136 90.7961 26.4786 90.9161 26.6886C91.0395 26.8986 91.1028 27.1369 91.1061 27.4036L90.9511 27.5236C90.9511 27.7636 90.8945 27.9802 90.7811 28.1736C90.6711 28.3636 90.5195 28.5152 90.3261 28.6286C90.1361 28.7386 89.9195 28.7936 89.6761 28.7936ZM89.7161 28.4436C89.9095 28.4436 90.0811 28.3986 90.2311 28.3086C90.3845 28.2186 90.5045 28.0952 90.5911 27.9386C90.6811 27.7786 90.7261 27.6002 90.7261 27.4036C90.7261 27.2036 90.6811 27.0252 90.5911 26.8686C90.5045 26.7119 90.3845 26.5886 90.2311 26.4986C90.0811 26.4052 89.9095 26.3586 89.7161 26.3586C89.5261 26.3586 89.3545 26.4052 89.2011 26.4986C89.0478 26.5886 88.9261 26.7119 88.8361 26.8686C88.7461 27.0252 88.7011 27.2036 88.7011 27.4036C88.7011 27.6002 88.7461 27.7786 88.8361 27.9386C88.9261 28.0952 89.0478 28.2186 89.2011 28.3086C89.3545 28.3986 89.5261 28.4436 89.7161 28.4436ZM90.9111 28.7686C90.8545 28.7686 90.8078 28.7519 90.7711 28.7186C90.7345 28.6819 90.7161 28.6352 90.7161 28.5786V27.7236L90.8111 27.3286L91.1061 27.4036V28.5786C91.1061 28.6352 91.0878 28.6819 91.0511 28.7186C91.0145 28.7519 90.9678 28.7686 90.9111 28.7686ZM92.7149 28.7936C92.3516 28.7936 92.0499 28.6819 91.8099 28.4586C91.7699 28.4252 91.7516 28.3852 91.7549 28.3386C91.7616 28.2919 91.7866 28.2502 91.8299 28.2136C91.8632 28.1836 91.9016 28.1702 91.9449 28.1736C91.9916 28.1769 92.0349 28.1952 92.0749 28.2286C92.1549 28.3019 92.2482 28.3569 92.3549 28.3936C92.4649 28.4269 92.5849 28.4436 92.7149 28.4436C92.9116 28.4436 93.0832 28.3986 93.2299 28.3086C93.3799 28.2186 93.4966 28.0952 93.5799 27.9386C93.6632 27.7819 93.7049 27.6036 93.7049 27.4036C93.7049 27.2002 93.6649 27.0202 93.5849 26.8636C93.5082 26.7069 93.3999 26.5836 93.2599 26.4936C93.1199 26.4036 92.9566 26.3586 92.7699 26.3586C92.4766 26.3586 92.2332 26.4686 92.0399 26.6886C92.0032 26.7286 91.9616 26.7536 91.9149 26.7636C91.8716 26.7702 91.8316 26.7602 91.7949 26.7336C91.7482 26.7002 91.7199 26.6619 91.7099 26.6186C91.7032 26.5719 91.7166 26.5286 91.7499 26.4886C91.8799 26.3286 92.0299 26.2086 92.1999 26.1286C92.3732 26.0486 92.5632 26.0086 92.7699 26.0086C93.0232 26.0086 93.2482 26.0702 93.4449 26.1936C93.6449 26.3136 93.7999 26.4786 93.9099 26.6886C94.0232 26.8986 94.0799 27.1369 94.0799 27.4036C94.0799 27.6669 94.0216 27.9036 93.9049 28.1136C93.7882 28.3236 93.6266 28.4902 93.4199 28.6136C93.2132 28.7336 92.9782 28.7936 92.7149 28.7936ZM92.5549 27.5336C92.5016 27.5336 92.4582 27.5202 92.4249 27.4936C92.3949 27.4636 92.3799 27.4252 92.3799 27.3786C92.3799 27.3319 92.3949 27.2952 92.4249 27.2686C92.4582 27.2386 92.5016 27.2236 92.5549 27.2236H93.7699C93.8232 27.2236 93.8649 27.2386 93.8949 27.2686C93.9282 27.2952 93.9449 27.3319 93.9449 27.3786C93.9449 27.4252 93.9282 27.4636 93.8949 27.4936C93.8649 27.5202 93.8232 27.5336 93.7699 27.5336H92.5549ZM95.0284 29.9386C94.9684 29.9386 94.9201 29.9202 94.8834 29.8836C94.8501 29.8502 94.8334 29.8036 94.8334 29.7436V27.3836C94.8368 27.1236 94.8984 26.8902 95.0184 26.6836C95.1418 26.4736 95.3068 26.3086 95.5134 26.1886C95.7234 26.0686 95.9584 26.0086 96.2184 26.0086C96.4851 26.0086 96.7234 26.0702 96.9334 26.1936C97.1434 26.3136 97.3084 26.4786 97.4284 26.6886C97.5518 26.8986 97.6134 27.1369 97.6134 27.4036C97.6134 27.6669 97.5534 27.9036 97.4334 28.1136C97.3168 28.3236 97.1568 28.4902 96.9534 28.6136C96.7501 28.7336 96.5201 28.7936 96.2634 28.7936C96.0401 28.7936 95.8368 28.7469 95.6534 28.6536C95.4734 28.5569 95.3284 28.4302 95.2184 28.2736V29.7436C95.2184 29.8036 95.2001 29.8502 95.1634 29.8836C95.1301 29.9202 95.0851 29.9386 95.0284 29.9386ZM96.2184 28.4436C96.4118 28.4436 96.5851 28.3986 96.7384 28.3086C96.8918 28.2186 97.0118 28.0952 97.0984 27.9386C97.1884 27.7786 97.2334 27.6002 97.2334 27.4036C97.2334 27.2036 97.1884 27.0252 97.0984 26.8686C97.0118 26.7119 96.8918 26.5886 96.7384 26.4986C96.5851 26.4052 96.4118 26.3586 96.2184 26.3586C96.0284 26.3586 95.8568 26.4052 95.7034 26.4986C95.5501 26.5886 95.4301 26.7119 95.3434 26.8686C95.2568 27.0252 95.2134 27.2036 95.2134 27.4036C95.2134 27.6002 95.2568 27.7786 95.3434 27.9386C95.4301 28.0952 95.5501 28.2186 95.7034 28.3086C95.8568 28.3986 96.0284 28.4436 96.2184 28.4436ZM99.6136 28.7936C99.3469 28.7936 99.1086 28.7336 98.8986 28.6136C98.6886 28.4936 98.5236 28.3286 98.4036 28.1186C98.2836 27.9086 98.2236 27.6702 98.2236 27.4036C98.2236 27.1336 98.2836 26.8936 98.4036 26.6836C98.5236 26.4736 98.6886 26.3086 98.8986 26.1886C99.1086 26.0686 99.3469 26.0086 99.6136 26.0086C99.8802 26.0086 100.117 26.0686 100.324 26.1886C100.534 26.3086 100.699 26.4736 100.819 26.6836C100.939 26.8936 101 27.1336 101.004 27.4036C101.004 27.6702 100.942 27.9086 100.819 28.1186C100.699 28.3286 100.534 28.4936 100.324 28.6136C100.117 28.7336 99.8802 28.7936 99.6136 28.7936ZM99.6136 28.4436C99.8069 28.4436 99.9802 28.3986 100.134 28.3086C100.287 28.2186 100.407 28.0952 100.494 27.9386C100.58 27.7819 100.624 27.6036 100.624 27.4036C100.624 27.2036 100.58 27.0252 100.494 26.8686C100.407 26.7086 100.287 26.5836 100.134 26.4936C99.9802 26.4036 99.8069 26.3586 99.6136 26.3586C99.4202 26.3586 99.2469 26.4036 99.0936 26.4936C98.9402 26.5836 98.8186 26.7086 98.7286 26.8686C98.6419 27.0252 98.5986 27.2036 98.5986 27.4036C98.5986 27.6036 98.6419 27.7819 98.7286 27.9386C98.8186 28.0952 98.9402 28.2186 99.0936 28.3086C99.2469 28.3986 99.4202 28.4436 99.6136 28.4436ZM102.977 28.7936C102.714 28.7936 102.481 28.7336 102.277 28.6136C102.074 28.4936 101.914 28.3286 101.797 28.1186C101.684 27.9052 101.627 27.6619 101.627 27.3886H101.832C101.832 27.1519 101.882 26.9436 101.982 26.7636C102.086 26.5802 102.226 26.4369 102.402 26.3336C102.582 26.2302 102.787 26.1786 103.017 26.1786C103.267 26.1786 103.489 26.2336 103.682 26.3436C103.879 26.4536 104.032 26.6069 104.142 26.8036C104.252 27.0002 104.307 27.2252 104.307 27.4786C104.307 27.7352 104.251 27.9636 104.137 28.1636C104.024 28.3602 103.867 28.5152 103.667 28.6286C103.467 28.7386 103.237 28.7936 102.977 28.7936ZM102.977 28.4436C103.164 28.4436 103.329 28.4036 103.472 28.3236C103.616 28.2402 103.727 28.1269 103.807 27.9836C103.891 27.8369 103.932 27.6686 103.932 27.4786C103.932 27.2919 103.891 27.1269 103.807 26.9836C103.727 26.8402 103.616 26.7286 103.472 26.6486C103.329 26.5686 103.164 26.5286 102.977 26.5286C102.787 26.5286 102.619 26.5686 102.472 26.6486C102.326 26.7286 102.211 26.8402 102.127 26.9836C102.047 27.1269 102.007 27.2919 102.007 27.4786C102.007 27.6686 102.047 27.8369 102.127 27.9836C102.211 28.1269 102.326 28.2402 102.472 28.3236C102.619 28.4036 102.787 28.4436 102.977 28.4436ZM101.627 27.4036V26.9936C101.631 26.5502 101.749 26.1536 101.982 25.8036C102.216 25.4502 102.579 25.1786 103.072 24.9886L103.807 24.6986C103.861 24.6786 103.907 24.6769 103.947 24.6936C103.987 24.7102 104.017 24.7436 104.037 24.7936C104.054 24.8469 104.054 24.8936 104.037 24.9336C104.024 24.9736 103.986 25.0052 103.922 25.0286L103.142 25.3486C102.849 25.4619 102.612 25.6052 102.432 25.7786C102.256 25.9519 102.127 26.1469 102.047 26.3636C101.967 26.5769 101.927 26.8036 101.927 27.0436L101.932 27.4036H101.627ZM106.248 28.7986C106.011 28.7986 105.8 28.7502 105.613 28.6536C105.426 28.5536 105.278 28.4086 105.168 28.2186C105.061 28.0286 105.008 27.7969 105.008 27.5236V26.2236C105.008 26.1702 105.026 26.1252 105.063 26.0886C105.1 26.0519 105.145 26.0336 105.198 26.0336C105.255 26.0336 105.301 26.0519 105.338 26.0886C105.375 26.1252 105.393 26.1702 105.393 26.2236V27.5236C105.393 27.7302 105.431 27.9002 105.508 28.0336C105.588 28.1669 105.695 28.2669 105.828 28.3336C105.965 28.4002 106.118 28.4336 106.288 28.4336C106.451 28.4336 106.598 28.4019 106.728 28.3386C106.861 28.2752 106.966 28.1886 107.043 28.0786C107.12 27.9686 107.158 27.8436 107.158 27.7036H107.433C107.423 27.9136 107.365 28.1019 107.258 28.2686C107.155 28.4319 107.015 28.5619 106.838 28.6586C106.661 28.7519 106.465 28.7986 106.248 28.7986ZM107.348 28.7686C107.291 28.7686 107.245 28.7519 107.208 28.7186C107.175 28.6819 107.158 28.6336 107.158 28.5736V26.2236C107.158 26.1669 107.175 26.1219 107.208 26.0886C107.245 26.0519 107.291 26.0336 107.348 26.0336C107.405 26.0336 107.451 26.0519 107.488 26.0886C107.525 26.1219 107.543 26.1669 107.543 26.2236V28.5736C107.543 28.6336 107.525 28.6819 107.488 28.7186C107.451 28.7519 107.405 28.7686 107.348 28.7686ZM110.567 28.7186C110.533 28.7519 110.488 28.7686 110.432 28.7686C110.378 28.7686 110.335 28.7502 110.302 28.7136L109.107 27.4036L110.252 26.0936C110.285 26.0569 110.327 26.0369 110.377 26.0336C110.427 26.0302 110.47 26.0436 110.507 26.0736C110.547 26.1102 110.568 26.1519 110.572 26.1986C110.575 26.2419 110.56 26.2836 110.527 26.3236L109.587 27.3836L110.577 28.4736C110.61 28.5102 110.627 28.5519 110.627 28.5986C110.627 28.6419 110.607 28.6819 110.567 28.7186ZM108.627 28.7686C108.57 28.7686 108.525 28.7519 108.492 28.7186C108.458 28.6819 108.442 28.6352 108.442 28.5786V26.2286C108.442 26.1686 108.458 26.1219 108.492 26.0886C108.525 26.0519 108.57 26.0336 108.627 26.0336C108.687 26.0336 108.733 26.0519 108.767 26.0886C108.803 26.1219 108.822 26.1686 108.822 26.2286V27.2186H109.432V27.5686H108.822V28.5786C108.822 28.6352 108.803 28.6819 108.767 28.7186C108.733 28.7519 108.687 28.7686 108.627 28.7686ZM112.439 28.7986C112.203 28.7986 111.991 28.7502 111.804 28.6536C111.618 28.5536 111.469 28.4086 111.359 28.2186C111.253 28.0286 111.199 27.7969 111.199 27.5236V26.2236C111.199 26.1702 111.218 26.1252 111.254 26.0886C111.291 26.0519 111.336 26.0336 111.389 26.0336C111.446 26.0336 111.493 26.0519 111.529 26.0886C111.566 26.1252 111.584 26.1702 111.584 26.2236V27.5236C111.584 27.7302 111.623 27.9002 111.699 28.0336C111.779 28.1669 111.886 28.2669 112.019 28.3336C112.156 28.4002 112.309 28.4336 112.479 28.4336C112.643 28.4336 112.789 28.4019 112.919 28.3386C113.053 28.2752 113.158 28.1886 113.234 28.0786C113.311 27.9686 113.349 27.8436 113.349 27.7036H113.624C113.614 27.9136 113.556 28.1019 113.449 28.2686C113.346 28.4319 113.206 28.5619 113.029 28.6586C112.853 28.7519 112.656 28.7986 112.439 28.7986ZM113.539 28.7686C113.483 28.7686 113.436 28.7519 113.399 28.7186C113.366 28.6819 113.349 28.6336 113.349 28.5736V26.2236C113.349 26.1669 113.366 26.1219 113.399 26.0886C113.436 26.0519 113.483 26.0336 113.539 26.0336C113.596 26.0336 113.643 26.0519 113.679 26.0886C113.716 26.1219 113.734 26.1669 113.734 26.2236V28.5736C113.734 28.6336 113.716 28.6819 113.679 28.7186C113.643 28.7519 113.596 28.7686 113.539 28.7686Z" fill="#A73C4C"/>
</svg>
