<svg width="117" height="62" viewBox="0 0 117 62" fill="none" xmlns="http://www.w3.org/2000/svg">
<path d="M0.298096 0.268547H115.826V61.2685H75.8104V47.5086H0.298096V0.268547Z" fill="white"/>
<path d="M25.6022 47.479H0.25V0.25H115.779V61.2843H75.8163V51.7686" stroke="#A73C4C" stroke-width="0.5"/>
<path d="M75.8163 52.2686V47.479H25.6022" stroke="#A73C4C" stroke-width="0.5"/>
<path d="M8.10217 0.268554V7.26855M16.1022 0.190422V11.2686M16.1022 15.7686V21.2686M16.1022 25.7686V32.2686M16.1022 36.7686V47.2686M8.10217 40.7686V47.2686M93.1022 47.2686V61.2686" stroke="#A73C4C" stroke-width="0.5"/>
<path d="M75.8719 47.479H80.2064M83.4204 47.479H105.102M109.602 47.479H115.602M0.102175 7.26855H3.60218M6.60217 7.26855H10.1022M13.1022 7.26855H16.1022M0.102175 19.7686H16.1022M0.102175 28.2686H16.1022M0.102173 40.7686H3.60217M6.99793 40.7686H10.1022M13.1022 40.7686H16.1022M4.10217 44.2686H8.33246M4.10217 3.76855H8.10217" stroke="#A73C4C" stroke-width="0.5"/>
<path d="M3.90217 20.7685C3.73649 20.7685 3.60217 20.9029 3.60217 21.0685V26.4685C3.60217 26.6342 3.73649 26.7685 3.90217 26.7685H4.46168H9.30217C9.46786 26.7685 9.60217 26.6342 9.60217 26.4685V21.8184V21.0685C9.60217 20.9029 9.46786 20.7685 9.30217 20.7685H3.90217ZM4.98679 26.5378V25.9455C4.98679 25.8902 5.03156 25.8455 5.08679 25.8455H5.60986C5.77555 25.8455 5.90986 25.7112 5.90986 25.5455V25.0224C5.90986 24.9672 5.95464 24.9224 6.00987 24.9224H6.53294C6.69863 24.9224 6.83294 24.7881 6.83294 24.6224V24.0993C6.83294 24.0441 6.87771 23.9993 6.93294 23.9993H7.45602C7.62171 23.9993 7.75602 23.865 7.75602 23.6993V23.1762C7.75602 23.121 7.80079 23.0762 7.85602 23.0762H8.3791C8.54478 23.0762 8.6791 22.9419 8.6791 22.7762V22.2532C8.6791 22.1979 8.72387 22.1532 8.7791 22.1532H9.3714V26.4377C9.3714 26.493 9.32663 26.5377 9.27141 26.5377L4.98679 26.5378ZM9.3714 21.9224H8.74833C8.58264 21.9224 8.44833 22.0567 8.44833 22.2224V22.7455C8.44833 22.8007 8.40356 22.8455 8.34833 22.8455H7.82525C7.65956 22.8455 7.52525 22.9798 7.52525 23.1455V23.6685C7.52525 23.7238 7.48048 23.7685 7.42525 23.7685H6.90217C6.73649 23.7685 6.60217 23.9029 6.60217 24.0685V24.5916C6.60217 24.6469 6.5574 24.6916 6.50217 24.6916H5.9791C5.81341 24.6916 5.6791 24.8259 5.6791 24.9916V25.5147C5.6791 25.5699 5.63432 25.6147 5.5791 25.6147H5.05602C4.89033 25.6147 4.75602 25.749 4.75602 25.9147V26.5377H3.93294C3.87771 26.5377 3.83294 26.4929 3.83294 26.4377V21.0993C3.83294 21.0441 3.87771 20.9993 3.93294 20.9993H9.2714C9.32663 20.9993 9.3714 21.0441 9.3714 21.0993V21.9224Z" fill="#A73C4C"/>
<path d="M80.9022 49.7685C80.7365 49.7685 80.6022 49.9029 80.6022 50.0685V58.4685C80.6022 58.6342 80.7365 58.7685 80.9022 58.7685H81.8914H89.3022C89.4679 58.7685 89.6022 58.6342 89.6022 58.4685V51.3434V50.0685C89.6022 49.9029 89.4679 49.7685 89.3022 49.7685H80.9022ZM82.6791 58.4224V57.4839C82.6791 57.4287 82.7239 57.3839 82.7791 57.3839H83.7637C83.9294 57.3839 84.0637 57.2496 84.0637 57.0839V56.0993C84.0637 56.0441 84.1085 55.9993 84.1637 55.9993H85.1483C85.314 55.9993 85.4483 55.865 85.4483 55.6993V54.7147C85.4483 54.6595 85.4931 54.6147 85.5483 54.6147H86.5329C86.6986 54.6147 86.8329 54.4804 86.8329 54.3147V53.3301C86.8329 53.2749 86.8777 53.2301 86.9329 53.2301H87.9176C88.0832 53.2301 88.2176 53.0958 88.2176 52.9301V51.9455C88.2176 51.8902 88.2623 51.8455 88.3176 51.8455H89.256V58.3223C89.256 58.3775 89.2112 58.4223 89.156 58.4223L82.6791 58.4224ZM89.256 51.4993H88.1714C88.0057 51.4993 87.8714 51.6336 87.8714 51.7993V52.7839C87.8714 52.8392 87.8266 52.8839 87.7714 52.8839H86.7868C86.6211 52.8839 86.4868 53.0182 86.4868 53.1839V54.1685C86.4868 54.2238 86.442 54.2685 86.3868 54.2685H85.4022C85.2365 54.2685 85.1022 54.4029 85.1022 54.5685V55.5532C85.1022 55.6084 85.0574 55.6532 85.0022 55.6532H84.0176C83.8519 55.6532 83.7176 55.7875 83.7176 55.9532V56.9378C83.7176 56.993 83.6728 57.0378 83.6176 57.0378H82.6329C82.4673 57.0378 82.3329 57.1721 82.3329 57.3378V58.4223H81.0483C80.9931 58.4223 80.9483 58.3775 80.9483 58.3223V50.2147C80.9483 50.1595 80.9931 50.1147 81.0483 50.1147H89.156C89.2112 50.1147 89.256 50.1595 89.256 50.2147V51.4993Z" fill="#A73C4C"/>
<path d="M60.3154 20.0435C60.3154 19.9835 60.3537 19.9252 60.4304 19.8685C60.5071 19.8085 60.6104 19.7602 60.7404 19.7235C60.8704 19.6869 61.0121 19.6685 61.1654 19.6685C61.3787 19.6685 61.5621 19.7052 61.7154 19.7785C61.8687 19.8485 61.9871 19.9485 62.0704 20.0785C62.1537 20.2085 62.1954 20.3619 62.1954 20.5385C62.1954 20.7219 62.1437 20.9019 62.0404 21.0785C61.9404 21.2552 61.7671 21.4569 61.5204 21.6835L60.7054 22.4385H62.1904C62.2037 22.4519 62.2154 22.4735 62.2254 22.5035C62.2354 22.5302 62.2404 22.5619 62.2404 22.5985C62.2404 22.6519 62.2254 22.6935 62.1954 22.7235C62.1687 22.7535 62.1321 22.7685 62.0854 22.7685H60.3204C60.2871 22.7452 60.2621 22.7169 60.2454 22.6835C60.2287 22.6469 60.2204 22.6085 60.2204 22.5685C60.2204 22.5152 60.2304 22.4685 60.2504 22.4285C60.2704 22.3852 60.3004 22.3452 60.3404 22.3085L61.2404 21.4435C61.4471 21.2502 61.5887 21.0885 61.6654 20.9585C61.7421 20.8252 61.7804 20.6869 61.7804 20.5435C61.7804 20.3869 61.7271 20.2585 61.6204 20.1585C61.5137 20.0585 61.3521 20.0085 61.1354 20.0085C60.9887 20.0085 60.8571 20.0335 60.7404 20.0835C60.6271 20.1335 60.5321 20.1869 60.4554 20.2435C60.4187 20.2269 60.3854 20.2019 60.3554 20.1685C60.3287 20.1352 60.3154 20.0935 60.3154 20.0435ZM63.9756 22.8335C63.7423 22.8335 63.5356 22.7769 63.3556 22.6635C63.179 22.5469 63.0406 22.3719 62.9406 22.1385C62.8406 21.9019 62.7906 21.6052 62.7906 21.2485C62.7906 20.8652 62.8473 20.5585 62.9606 20.3285C63.074 20.0985 63.2206 19.9319 63.4006 19.8285C63.5806 19.7219 63.7723 19.6685 63.9756 19.6685C64.1823 19.6685 64.3756 19.7219 64.5556 19.8285C64.739 19.9352 64.8856 20.1052 64.9956 20.3385C65.109 20.5685 65.1656 20.8719 65.1656 21.2485C65.1656 21.6019 65.1156 21.8969 65.0156 22.1335C64.9156 22.3669 64.7756 22.5419 64.5956 22.6585C64.419 22.7752 64.2123 22.8335 63.9756 22.8335ZM63.9756 22.4935C64.2223 22.4935 64.414 22.3869 64.5506 22.1735C64.6873 21.9569 64.7556 21.6485 64.7556 21.2485C64.7556 20.9519 64.719 20.7135 64.6456 20.5335C64.5756 20.3502 64.4823 20.2169 64.3656 20.1335C64.249 20.0502 64.119 20.0085 63.9756 20.0085C63.8356 20.0085 63.7056 20.0519 63.5856 20.1385C63.469 20.2219 63.3756 20.3552 63.3056 20.5385C63.2356 20.7219 63.2006 20.9585 63.2006 21.2485C63.2006 21.6485 63.269 21.9569 63.4056 22.1735C63.5423 22.3869 63.7323 22.4935 63.9756 22.4935ZM66.6568 21.6485H66.2518V20.1185L65.6118 20.4185C65.5685 20.4019 65.5318 20.3769 65.5018 20.3435C65.4752 20.3102 65.4618 20.2685 65.4618 20.2185C65.4618 20.1219 65.5218 20.0485 65.6418 19.9985L66.3418 19.6935H66.4368C66.5035 19.6935 66.5568 19.7135 66.5968 19.7535C66.6368 19.7935 66.6568 19.8469 66.6568 19.9135V21.6485ZM66.2518 21.4485H66.6568V22.7735C66.6368 22.7802 66.6102 22.7869 66.5768 22.7935C66.5435 22.8035 66.5068 22.8085 66.4668 22.8085C66.3968 22.8085 66.3435 22.7935 66.3068 22.7635C66.2702 22.7335 66.2518 22.6869 66.2518 22.6235V21.4485ZM47.3832 28.7685C47.3299 28.7685 47.2832 28.7502 47.2432 28.7135C47.2032 28.6769 47.1832 28.6302 47.1832 28.5735V25.0585C47.1832 25.0019 47.2032 24.9552 47.2432 24.9185C47.2832 24.8819 47.3299 24.8635 47.3832 24.8635C47.4399 24.8635 47.4849 24.8819 47.5182 24.9185C47.5549 24.9552 47.5732 25.0019 47.5732 25.0585V28.1285L50.0682 24.9335C50.1049 24.8869 50.1549 24.8635 50.2182 24.8635C50.2749 24.8635 50.3216 24.8819 50.3582 24.9185C50.3949 24.9552 50.4132 25.0019 50.4132 25.0585V28.5735C50.4132 28.6302 50.3949 28.6769 50.3582 28.7135C50.3216 28.7502 50.2749 28.7685 50.2182 28.7685C50.1616 28.7685 50.1149 28.7502 50.0782 28.7135C50.0416 28.6769 50.0232 28.6302 50.0232 28.5735V25.5085L47.5282 28.7035C47.5116 28.7235 47.4899 28.7402 47.4632 28.7535C47.4366 28.7635 47.4099 28.7685 47.3832 28.7685ZM52.1967 28.7935C52.0001 28.7935 51.8234 28.7635 51.6667 28.7035C51.5101 28.6435 51.3851 28.5585 51.2917 28.4485C51.2017 28.3385 51.1567 28.2085 51.1567 28.0585C51.1567 27.9319 51.1901 27.8169 51.2567 27.7135C51.3267 27.6102 51.4367 27.5202 51.5867 27.4435C51.7401 27.3635 51.9401 27.2969 52.1867 27.2435C52.4101 27.1935 52.5634 27.1302 52.6467 27.0535C52.7334 26.9735 52.7767 26.8735 52.7767 26.7535C52.7767 26.6369 52.7267 26.5419 52.6267 26.4685C52.5267 26.3919 52.3884 26.3535 52.2117 26.3535C52.0717 26.3535 51.9417 26.3785 51.8217 26.4285C51.7051 26.4752 51.6084 26.5435 51.5317 26.6335C51.4951 26.6735 51.4534 26.6985 51.4067 26.7085C51.3601 26.7185 51.3201 26.7135 51.2867 26.6935C51.2334 26.6635 51.2017 26.6252 51.1917 26.5785C51.1817 26.5285 51.1934 26.4835 51.2267 26.4435C51.3234 26.3135 51.4551 26.2085 51.6217 26.1285C51.7884 26.0485 51.9834 26.0085 52.2067 26.0085C52.3901 26.0085 52.5534 26.0385 52.6967 26.0985C52.8401 26.1552 52.9517 26.2402 53.0317 26.3535C53.1117 26.4669 53.1517 26.6052 53.1517 26.7685C53.1517 26.9419 53.0851 27.0969 52.9517 27.2335C52.8184 27.3669 52.5967 27.4685 52.2867 27.5385C52.0034 27.6019 51.8084 27.6735 51.7017 27.7535C51.5951 27.8335 51.5417 27.9335 51.5417 28.0535C51.5417 28.1835 51.5934 28.2819 51.6967 28.3485C51.8034 28.4119 51.9667 28.4435 52.1867 28.4435C52.3534 28.4435 52.5017 28.4235 52.6317 28.3835C52.7651 28.3435 52.8751 28.2735 52.9617 28.1735C52.9951 28.1369 53.0351 28.1135 53.0817 28.1035C53.1284 28.0902 53.1751 28.1019 53.2217 28.1385C53.2651 28.1752 53.2884 28.2169 53.2917 28.2635C53.2951 28.3102 53.2784 28.3535 53.2417 28.3935C53.1284 28.5169 52.9751 28.6152 52.7817 28.6885C52.5884 28.7585 52.3934 28.7935 52.1967 28.7935ZM54.1398 29.9385C54.0798 29.9385 54.0314 29.9202 53.9948 29.8835C53.9614 29.8502 53.9448 29.8035 53.9448 29.7435V27.3835C53.9481 27.1235 54.0098 26.8902 54.1298 26.6835C54.2531 26.4735 54.4181 26.3085 54.6248 26.1885C54.8348 26.0685 55.0698 26.0085 55.3298 26.0085C55.5964 26.0085 55.8348 26.0702 56.0448 26.1935C56.2548 26.3135 56.4198 26.4785 56.5398 26.6885C56.6631 26.8985 56.7248 27.1369 56.7248 27.4035C56.7248 27.6669 56.6648 27.9035 56.5448 28.1135C56.4281 28.3235 56.2681 28.4902 56.0648 28.6135C55.8614 28.7335 55.6314 28.7935 55.3748 28.7935C55.1514 28.7935 54.9481 28.7469 54.7648 28.6535C54.5848 28.5569 54.4398 28.4302 54.3298 28.2735V29.7435C54.3298 29.8035 54.3114 29.8502 54.2748 29.8835C54.2414 29.9202 54.1964 29.9385 54.1398 29.9385ZM55.3298 28.4435C55.5231 28.4435 55.6964 28.3985 55.8498 28.3085C56.0031 28.2185 56.1231 28.0952 56.2098 27.9385C56.2998 27.7785 56.3448 27.6002 56.3448 27.4035C56.3448 27.2035 56.2998 27.0252 56.2098 26.8685C56.1231 26.7119 56.0031 26.5885 55.8498 26.4985C55.6964 26.4052 55.5231 26.3585 55.3298 26.3585C55.1398 26.3585 54.9681 26.4052 54.8148 26.4985C54.6614 26.5885 54.5414 26.7119 54.4548 26.8685C54.3681 27.0252 54.3248 27.2035 54.3248 27.4035C54.3248 27.6002 54.3681 27.7785 54.4548 27.9385C54.5414 28.0952 54.6614 28.2185 54.8148 28.3085C54.9681 28.3985 55.1398 28.4435 55.3298 28.4435ZM58.7249 28.7935C58.4582 28.7935 58.2199 28.7335 58.0099 28.6135C57.7999 28.4935 57.6349 28.3285 57.5149 28.1185C57.3949 27.9085 57.3349 27.6702 57.3349 27.4035C57.3349 27.1335 57.3949 26.8935 57.5149 26.6835C57.6349 26.4735 57.7999 26.3085 58.0099 26.1885C58.2199 26.0685 58.4582 26.0085 58.7249 26.0085C58.9916 26.0085 59.2282 26.0685 59.4349 26.1885C59.6449 26.3085 59.8099 26.4735 59.9299 26.6835C60.0499 26.8935 60.1116 27.1335 60.1149 27.4035C60.1149 27.6702 60.0532 27.9085 59.9299 28.1185C59.8099 28.3285 59.6449 28.4935 59.4349 28.6135C59.2282 28.7335 58.9916 28.7935 58.7249 28.7935ZM58.7249 28.4435C58.9182 28.4435 59.0916 28.3985 59.2449 28.3085C59.3982 28.2185 59.5182 28.0952 59.6049 27.9385C59.6916 27.7819 59.7349 27.6035 59.7349 27.4035C59.7349 27.2035 59.6916 27.0252 59.6049 26.8685C59.5182 26.7085 59.3982 26.5835 59.2449 26.4935C59.0916 26.4035 58.9182 26.3585 58.7249 26.3585C58.5316 26.3585 58.3582 26.4035 58.2049 26.4935C58.0516 26.5835 57.9299 26.7085 57.8399 26.8685C57.7532 27.0252 57.7099 27.2035 57.7099 27.4035C57.7099 27.6035 57.7532 27.7819 57.8399 27.9385C57.9299 28.0952 58.0516 28.2185 58.2049 28.3085C58.3582 28.3985 58.5316 28.4435 58.7249 28.4435ZM61.0587 28.7685C60.9987 28.7685 60.9504 28.7519 60.9137 28.7185C60.8804 28.6819 60.8637 28.6335 60.8637 28.5735V26.2235C60.867 26.1669 60.8854 26.1219 60.9187 26.0885C60.9554 26.0519 61.002 26.0335 61.0587 26.0335C61.1154 26.0335 61.1604 26.0519 61.1937 26.0885C61.2304 26.1219 61.2487 26.1685 61.2487 26.2285V27.1785H62.3037V27.2485C62.477 27.2485 62.6304 27.2802 62.7637 27.3435C62.9004 27.4069 63.0054 27.4952 63.0787 27.6085C63.1554 27.7185 63.1937 27.8452 63.1937 27.9885C63.1937 28.1419 63.1554 28.2769 63.0787 28.3935C63.0054 28.5102 62.9004 28.6019 62.7637 28.6685C62.6304 28.7352 62.477 28.7685 62.3037 28.7685H61.0587ZM61.2487 28.4135H62.3037C62.4537 28.4135 62.577 28.3752 62.6737 28.2985C62.7704 28.2219 62.8187 28.1119 62.8187 27.9685C62.8187 27.8185 62.7704 27.7052 62.6737 27.6285C62.577 27.5485 62.4537 27.5085 62.3037 27.5085H61.2487V28.4135ZM61.8087 27.3935V27.1785H62.3037C62.4204 27.1785 62.5154 27.1402 62.5887 27.0635C62.662 26.9869 62.6987 26.8885 62.6987 26.7685C62.6987 26.6619 62.6587 26.5719 62.5787 26.4985C62.502 26.4219 62.4037 26.3835 62.2837 26.3835H61.0637V26.0335H62.2837C62.437 26.0335 62.572 26.0652 62.6887 26.1285C62.8087 26.1885 62.902 26.2719 62.9687 26.3785C63.0387 26.4852 63.0737 26.6085 63.0737 26.7485C63.0737 26.9652 63.0004 27.1269 62.8537 27.2335C62.7104 27.3402 62.527 27.3935 62.3037 27.3935H61.8087ZM65.0921 28.7935C64.8254 28.7935 64.5871 28.7335 64.3771 28.6135C64.1671 28.4935 64.0021 28.3285 63.8821 28.1185C63.7621 27.9085 63.7021 27.6702 63.7021 27.4035C63.7021 27.1335 63.7621 26.8935 63.8821 26.6835C64.0021 26.4735 64.1671 26.3085 64.3771 26.1885C64.5871 26.0685 64.8254 26.0085 65.0921 26.0085C65.3588 26.0085 65.5954 26.0685 65.8021 26.1885C66.0121 26.3085 66.1771 26.4735 66.2971 26.6835C66.4171 26.8935 66.4788 27.1335 66.4821 27.4035C66.4821 27.6702 66.4204 27.9085 66.2971 28.1185C66.1771 28.3285 66.0121 28.4935 65.8021 28.6135C65.5954 28.7335 65.3588 28.7935 65.0921 28.7935ZM65.0921 28.4435C65.2854 28.4435 65.4588 28.3985 65.6121 28.3085C65.7654 28.2185 65.8854 28.0952 65.9721 27.9385C66.0588 27.7819 66.1021 27.6035 66.1021 27.4035C66.1021 27.2035 66.0588 27.0252 65.9721 26.8685C65.8854 26.7085 65.7654 26.5835 65.6121 26.4935C65.4588 26.4035 65.2854 26.3585 65.0921 26.3585C64.8988 26.3585 64.7254 26.4035 64.5721 26.4935C64.4188 26.5835 64.2971 26.7085 64.2071 26.8685C64.1204 27.0252 64.0771 27.2035 64.0771 27.4035C64.0771 27.6035 64.1204 27.7819 64.2071 27.9385C64.2971 28.0952 64.4188 28.2185 64.5721 28.3085C64.7254 28.3985 64.8988 28.4435 65.0921 28.4435ZM68.4209 28.7985C68.1842 28.7985 67.9726 28.7502 67.7859 28.6535C67.5992 28.5535 67.4509 28.4085 67.3409 28.2185C67.2342 28.0285 67.1809 27.7969 67.1809 27.5235V26.2235C67.1809 26.1702 67.1992 26.1252 67.2359 26.0885C67.2726 26.0519 67.3176 26.0335 67.3709 26.0335C67.4276 26.0335 67.4742 26.0519 67.5109 26.0885C67.5476 26.1252 67.5659 26.1702 67.5659 26.2235V27.5235C67.5659 27.7302 67.6042 27.9002 67.6809 28.0335C67.7609 28.1669 67.8676 28.2669 68.0009 28.3335C68.1376 28.4002 68.2909 28.4335 68.4609 28.4335C68.6242 28.4335 68.7709 28.4019 68.9009 28.3385C69.0342 28.2752 69.1392 28.1885 69.2159 28.0785C69.2926 27.9685 69.3309 27.8435 69.3309 27.7035H69.6059C69.5959 27.9135 69.5376 28.1019 69.4309 28.2685C69.3276 28.4319 69.1876 28.5619 69.0109 28.6585C68.8342 28.7519 68.6376 28.7985 68.4209 28.7985ZM69.5209 28.7685C69.4642 28.7685 69.4176 28.7519 69.3809 28.7185C69.3476 28.6819 69.3309 28.6335 69.3309 28.5735V26.2235C69.3309 26.1669 69.3476 26.1219 69.3809 26.0885C69.4176 26.0519 69.4642 26.0335 69.5209 26.0335C69.5776 26.0335 69.6242 26.0519 69.6609 26.0885C69.6976 26.1219 69.7159 26.1669 69.7159 26.2235V28.5735C69.7159 28.6335 69.6976 28.6819 69.6609 28.7185C69.6242 28.7519 69.5776 28.7685 69.5209 28.7685ZM68.4759 25.6785C68.3126 25.6785 68.1659 25.6519 68.0359 25.5985C67.9059 25.5419 67.8026 25.4652 67.7259 25.3685C67.6526 25.2719 67.6159 25.1635 67.6159 25.0435C67.6159 24.9902 67.6326 24.9452 67.6659 24.9085C67.7026 24.8719 67.7459 24.8535 67.7959 24.8535C67.8492 24.8535 67.8926 24.8719 67.9259 24.9085C67.9592 24.9452 67.9759 24.9952 67.9759 25.0585C67.9759 25.1519 68.0242 25.2269 68.1209 25.2835C68.2176 25.3402 68.3359 25.3685 68.4759 25.3685C68.6192 25.3685 68.7376 25.3402 68.8309 25.2835C68.9276 25.2269 68.9759 25.1519 68.9759 25.0585C68.9759 24.9952 68.9926 24.9452 69.0259 24.9085C69.0626 24.8719 69.1059 24.8535 69.1559 24.8535C69.2092 24.8535 69.2526 24.8719 69.2859 24.9085C69.3192 24.9452 69.3359 24.9902 69.3359 25.0435C69.3359 25.1635 69.2976 25.2719 69.2209 25.3685C69.1476 25.4652 69.0459 25.5419 68.9159 25.5985C68.7859 25.6519 68.6392 25.6785 68.4759 25.6785ZM72.9445 28.8135C72.8012 28.8135 72.6612 28.7952 72.5245 28.7585C72.3878 28.7185 72.2645 28.6652 72.1545 28.5985C72.0445 28.5285 71.9578 28.4519 71.8945 28.3685C71.8612 28.3252 71.8478 28.2785 71.8545 28.2285C71.8645 28.1785 71.8945 28.1385 71.9445 28.1085C71.9812 28.0852 72.0245 28.0802 72.0745 28.0935C72.1278 28.1035 72.1712 28.1269 72.2045 28.1635C72.2878 28.2502 72.3928 28.3219 72.5195 28.3785C72.6462 28.4352 72.7862 28.4635 72.9395 28.4635C73.1395 28.4635 73.3012 28.4219 73.4245 28.3385C73.5512 28.2552 73.6145 28.1369 73.6145 27.9835C73.6145 27.8502 73.5645 27.7385 73.4645 27.6485C73.3679 27.5585 73.2462 27.5102 73.0995 27.5035H72.8445C72.7812 27.5035 72.7295 27.4885 72.6895 27.4585C72.6495 27.4252 72.6295 27.3852 72.6295 27.3385C72.6295 27.2919 72.6495 27.2535 72.6895 27.2235C72.7295 27.1935 72.7812 27.1785 72.8445 27.1785H73.0995C73.2229 27.1752 73.3229 27.1335 73.3995 27.0535C73.4762 26.9735 73.5145 26.8752 73.5145 26.7585C73.5145 26.6385 73.4612 26.5402 73.3545 26.4635C73.2512 26.3869 73.1112 26.3485 72.9345 26.3485C72.7712 26.3485 72.6345 26.3752 72.5245 26.4285C72.4145 26.4819 72.3262 26.5502 72.2595 26.6335C72.2228 26.6735 72.1795 26.6985 72.1295 26.7085C72.0828 26.7152 72.0378 26.7052 71.9945 26.6785C71.9512 26.6552 71.9262 26.6185 71.9195 26.5685C71.9162 26.5185 71.9312 26.4719 71.9645 26.4285C72.0712 26.3052 72.2062 26.2019 72.3695 26.1185C72.5362 26.0352 72.7229 25.9935 72.9295 25.9935C73.1162 25.9935 73.2812 26.0269 73.4245 26.0935C73.5712 26.1569 73.6862 26.2452 73.7695 26.3585C73.8529 26.4685 73.8945 26.5919 73.8945 26.7285C73.8945 26.8385 73.8645 26.9402 73.8045 27.0335C73.7479 27.1235 73.6695 27.1985 73.5695 27.2585C73.4729 27.3152 73.3645 27.3485 73.2445 27.3585V27.3035C73.3845 27.3035 73.5112 27.3335 73.6245 27.3935C73.7379 27.4535 73.8279 27.5369 73.8945 27.6435C73.9612 27.7469 73.9945 27.8635 73.9945 27.9935C73.9945 28.1502 73.9479 28.2902 73.8545 28.4135C73.7645 28.5369 73.6395 28.6352 73.4795 28.7085C73.3228 28.7785 73.1445 28.8135 72.9445 28.8135ZM75.8529 28.7935C75.5962 28.7935 75.3662 28.7335 75.1629 28.6135C74.9595 28.4902 74.7979 28.3235 74.6779 28.1135C74.5612 27.9035 74.5029 27.6669 74.5029 27.4035C74.5029 27.1369 74.5629 26.8985 74.6829 26.6885C74.8062 26.4785 74.9729 26.3135 75.1829 26.1935C75.3929 26.0702 75.6295 26.0085 75.8929 26.0085C76.1562 26.0085 76.3912 26.0702 76.5979 26.1935C76.8079 26.3135 76.9729 26.4785 77.0929 26.6885C77.2162 26.8985 77.2795 27.1369 77.2829 27.4035L77.1279 27.5235C77.1279 27.7635 77.0712 27.9802 76.9579 28.1735C76.8479 28.3635 76.6962 28.5152 76.5029 28.6285C76.3129 28.7385 76.0962 28.7935 75.8529 28.7935ZM75.8929 28.4435C76.0862 28.4435 76.2579 28.3985 76.4079 28.3085C76.5612 28.2185 76.6812 28.0952 76.7679 27.9385C76.8579 27.7785 76.9029 27.6002 76.9029 27.4035C76.9029 27.2035 76.8579 27.0252 76.7679 26.8685C76.6812 26.7119 76.5612 26.5885 76.4079 26.4985C76.2579 26.4052 76.0862 26.3585 75.8929 26.3585C75.7029 26.3585 75.5312 26.4052 75.3779 26.4985C75.2245 26.5885 75.1029 26.7119 75.0129 26.8685C74.9229 27.0252 74.8779 27.2035 74.8779 27.4035C74.8779 27.6002 74.9229 27.7785 75.0129 27.9385C75.1029 28.0952 75.2245 28.2185 75.3779 28.3085C75.5312 28.3985 75.7029 28.4435 75.8929 28.4435ZM77.0879 28.7685C77.0312 28.7685 76.9845 28.7519 76.9479 28.7185C76.9112 28.6819 76.8929 28.6352 76.8929 28.5785V27.7235L76.9879 27.3285L77.2829 27.4035V28.5785C77.2829 28.6352 77.2645 28.6819 77.2279 28.7185C77.1912 28.7519 77.1445 28.7685 77.0879 28.7685ZM79.0517 26.0335C79.0917 26.0335 79.1283 26.0435 79.1617 26.0635C79.195 26.0835 79.2217 26.1169 79.2417 26.1635L80.3267 28.5235C80.35 28.5702 80.3517 28.6152 80.3317 28.6585C80.315 28.6985 80.2833 28.7302 80.2367 28.7535C80.1833 28.7769 80.135 28.7819 80.0917 28.7685C80.0483 28.7519 80.0133 28.7185 79.9867 28.6685L78.9517 26.3635H79.1767L78.1217 28.6635C78.0983 28.7135 78.0617 28.7469 78.0117 28.7635C77.965 28.7769 77.9167 28.7719 77.8667 28.7485C77.82 28.7252 77.7867 28.6935 77.7667 28.6535C77.75 28.6102 77.7517 28.5652 77.7717 28.5185L78.8717 26.1635C78.9117 26.0769 78.9717 26.0335 79.0517 26.0335Z" fill="#A73C4C"/>
</svg>
