<svg width="121" height="69" viewBox="0 0 121 69" fill="none" xmlns="http://www.w3.org/2000/svg">
<path d="M0.298096 4.08936H115.826V65.0894H75.8104V51.3294H0.298096V4.08936Z" fill="white"/>
<path d="M0.25 25.5894V4.0708H115.779V65.1051H75.8163V55.5894" stroke="#A73C4C" stroke-width="0.5"/>
<path d="M0.25 30.0894V51.2998H25.6022" stroke="#A73C4C" stroke-width="0.5"/>
<path d="M75.8163 56.0894V51.2998H25.6022" stroke="#A73C4C" stroke-width="0.5"/>
<path d="M16.1022 4.01123V15.0894M16.1022 19.5894V25.0894M16.1022 29.5894V38.0894M16.1022 42.5894V51.0894M93.1022 51.0894V65.0894" stroke="#A73C4C" stroke-width="0.5"/>
<path d="M75.8719 51.2998H80.2064M83.4204 51.2998H105.102M109.602 51.2998H115.602M0.102173 23.5894H16.1022M0.102173 32.0894H16.1022" stroke="#A73C4C" stroke-width="0.5"/>
<path d="M19.834 7.08939L112.102 7.0894L112.102 47.5894L19.834 47.5894L19.834 7.08939Z" stroke="#A73C4C" stroke-width="0.5"/>
<path d="M3.90217 24.5894C3.73649 24.5894 3.60217 24.7237 3.60217 24.8894V30.2894C3.60217 30.455 3.73649 30.5894 3.90217 30.5894H4.46168H9.30217C9.46786 30.5894 9.60217 30.455 9.60217 30.2894V25.6392V24.8894C9.60217 24.7237 9.46786 24.5894 9.30217 24.5894H3.90217ZM4.98679 30.3586V29.7663C4.98679 29.7111 5.03156 29.6663 5.08679 29.6663H5.60986C5.77555 29.6663 5.90986 29.532 5.90986 29.3663V28.8432C5.90986 28.788 5.95464 28.7432 6.00987 28.7432H6.53294C6.69863 28.7432 6.83294 28.6089 6.83294 28.4432V27.9201C6.83294 27.8649 6.87771 27.8201 6.93294 27.8201H7.45602C7.62171 27.8201 7.75602 27.6858 7.75602 27.5201V26.997C7.75602 26.9418 7.80079 26.897 7.85602 26.897H8.3791C8.54478 26.897 8.6791 26.7627 8.6791 26.597V26.074C8.6791 26.0187 8.72387 25.974 8.7791 25.974H9.3714V30.2585C9.3714 30.3138 9.32663 30.3585 9.27141 30.3585L4.98679 30.3586ZM9.3714 25.7432H8.74833C8.58264 25.7432 8.44833 25.8775 8.44833 26.0432V26.5663C8.44833 26.6215 8.40356 26.6663 8.34833 26.6663H7.82525C7.65956 26.6663 7.52525 26.8006 7.52525 26.9663V27.4894C7.52525 27.5446 7.48048 27.5894 7.42525 27.5894H6.90217C6.73649 27.5894 6.60217 27.7237 6.60217 27.8894V28.4124C6.60217 28.4677 6.5574 28.5124 6.50217 28.5124H5.9791C5.81341 28.5124 5.6791 28.6467 5.6791 28.8124V29.3355C5.6791 29.3907 5.63432 29.4355 5.5791 29.4355H5.05602C4.89033 29.4355 4.75602 29.5698 4.75602 29.7355V30.3585H3.93294C3.87771 30.3585 3.83294 30.3138 3.83294 30.2585V24.9201C3.83294 24.8649 3.87771 24.8201 3.93294 24.8201H9.2714C9.32663 24.8201 9.3714 24.8649 9.3714 24.9201V25.7432Z" fill="#A73C4C"/>
<path d="M80.9022 53.5894C80.7365 53.5894 80.6022 53.7237 80.6022 53.8894V62.2894C80.6022 62.455 80.7365 62.5894 80.9022 62.5894H81.8914H89.3022C89.4679 62.5894 89.6022 62.455 89.6022 62.2894V55.1642V53.8894C89.6022 53.7237 89.4679 53.5894 89.3022 53.5894H80.9022ZM82.6791 62.2432V61.3047C82.6791 61.2495 82.7239 61.2047 82.7791 61.2047H83.7637C83.9294 61.2047 84.0637 61.0704 84.0637 60.9047V59.9201C84.0637 59.8649 84.1085 59.8201 84.1637 59.8201H85.1483C85.314 59.8201 85.4483 59.6858 85.4483 59.5201V58.5355C85.4483 58.4803 85.4931 58.4355 85.5483 58.4355H86.5329C86.6986 58.4355 86.8329 58.3012 86.8329 58.1355V57.1509C86.8329 57.0957 86.8777 57.0509 86.9329 57.0509H87.9176C88.0832 57.0509 88.2176 56.9166 88.2176 56.7509V55.7663C88.2176 55.7111 88.2623 55.6663 88.3176 55.6663H89.256V62.1431C89.256 62.1983 89.2112 62.2431 89.156 62.2431L82.6791 62.2432ZM89.256 55.3201H88.1714C88.0057 55.3201 87.8714 55.4544 87.8714 55.6201V56.6047C87.8714 56.66 87.8266 56.7047 87.7714 56.7047H86.7868C86.6211 56.7047 86.4868 56.8391 86.4868 57.0047V57.9894C86.4868 58.0446 86.442 58.0894 86.3868 58.0894H85.4022C85.2365 58.0894 85.1022 58.2237 85.1022 58.3894V59.374C85.1022 59.4292 85.0574 59.474 85.0022 59.474H84.0176C83.8519 59.474 83.7176 59.6083 83.7176 59.774V60.7586C83.7176 60.8138 83.6728 60.8586 83.6176 60.8586H82.6329C82.4673 60.8586 82.3329 60.9929 82.3329 61.1586V62.2431H81.0483C80.9931 62.2431 80.9483 62.1983 80.9483 62.1431V54.0355C80.9483 53.9803 80.9931 53.9355 81.0483 53.9355H89.156C89.2112 53.9355 89.256 53.9803 89.256 54.0355V55.3201Z" fill="#A73C4C"/>
<path d="M5.68717 12.4844C6.00384 12.4844 6.25884 12.5544 6.45217 12.6944C6.64884 12.831 6.74717 13.0377 6.74717 13.3144C6.74717 13.4477 6.71884 13.5627 6.66217 13.6594C6.60884 13.7527 6.54384 13.826 6.46717 13.8794C6.39384 13.9327 6.32717 13.9677 6.26717 13.9844C6.35717 14.011 6.44551 14.0577 6.53217 14.1244C6.61884 14.1877 6.69051 14.271 6.74717 14.3744C6.80717 14.4744 6.83717 14.596 6.83717 14.7394C6.83717 14.9394 6.78884 15.106 6.69217 15.2394C6.59551 15.3727 6.46217 15.4744 6.29217 15.5444C6.12217 15.611 5.92551 15.6444 5.70217 15.6444C5.51884 15.6444 5.35551 15.626 5.21217 15.5894C5.07217 15.5494 4.96217 15.4994 4.88217 15.4394C4.80217 15.3794 4.76217 15.316 4.76217 15.2494C4.76217 15.2027 4.77384 15.1627 4.79717 15.1294C4.82384 15.096 4.85717 15.0677 4.89717 15.0444C4.98384 15.111 5.08884 15.171 5.21217 15.2244C5.33884 15.2777 5.50217 15.3044 5.70217 15.3044C5.92217 15.3044 6.10051 15.2577 6.23717 15.1644C6.37384 15.0677 6.44217 14.9227 6.44217 14.7294C6.44217 14.5594 6.37884 14.4227 6.25217 14.3194C6.12551 14.216 5.94217 14.1644 5.70217 14.1644H5.28717C5.27384 14.1477 5.26217 14.1244 5.25217 14.0944C5.24217 14.061 5.23717 14.0277 5.23717 13.9944C5.23717 13.9577 5.24217 13.9244 5.25217 13.8944C5.26217 13.8644 5.27384 13.841 5.28717 13.8244H5.66717C5.91384 13.8244 6.08884 13.7794 6.19217 13.6894C6.29884 13.596 6.35217 13.4744 6.35217 13.3244C6.35217 13.161 6.29217 13.0377 6.17217 12.9544C6.05217 12.8677 5.88884 12.8244 5.68217 12.8244C5.52217 12.8244 5.38051 12.8494 5.25717 12.8994C5.13717 12.946 5.03717 12.9977 4.95717 13.0544C4.92384 13.0377 4.89384 13.011 4.86717 12.9744C4.84051 12.9377 4.82717 12.8977 4.82717 12.8544C4.82717 12.7944 4.86551 12.736 4.94217 12.6794C5.01884 12.6227 5.12217 12.576 5.25217 12.5394C5.38217 12.5027 5.52717 12.4844 5.68717 12.4844ZM8.58647 15.6544C8.35314 15.6544 8.14647 15.5977 7.96647 15.4844C7.7898 15.3677 7.65147 15.1927 7.55147 14.9594C7.45147 14.7227 7.40147 14.426 7.40147 14.0694C7.40147 13.686 7.45814 13.3794 7.57147 13.1494C7.6848 12.9194 7.83147 12.7527 8.01147 12.6494C8.19147 12.5427 8.38314 12.4894 8.58647 12.4894C8.79314 12.4894 8.98647 12.5427 9.16647 12.6494C9.3498 12.756 9.49647 12.926 9.60647 13.1594C9.7198 13.3894 9.77647 13.6927 9.77647 14.0694C9.77647 14.4227 9.72647 14.7177 9.62647 14.9544C9.52647 15.1877 9.38647 15.3627 9.20647 15.4794C9.0298 15.596 8.82314 15.6544 8.58647 15.6544ZM8.58647 15.3144C8.83314 15.3144 9.0248 15.2077 9.16147 14.9944C9.29814 14.7777 9.36647 14.4694 9.36647 14.0694C9.36647 13.7727 9.3298 13.5344 9.25647 13.3544C9.18647 13.171 9.09314 13.0377 8.97647 12.9544C8.8598 12.871 8.7298 12.8294 8.58647 12.8294C8.44647 12.8294 8.31647 12.8727 8.19647 12.9594C8.0798 13.0427 7.98647 13.176 7.91647 13.3594C7.84647 13.5427 7.81147 13.7794 7.81147 14.0694C7.81147 14.4694 7.8798 14.7777 8.01647 14.9944C8.15314 15.2077 8.34314 15.3144 8.58647 15.3144ZM11.2677 14.4694H10.8627V12.9394L10.2227 13.2394C10.1793 13.2227 10.1427 13.1977 10.1127 13.1644C10.086 13.131 10.0727 13.0894 10.0727 13.0394C10.0727 12.9427 10.1327 12.8694 10.2527 12.8194L10.9527 12.5144H11.0477C11.1143 12.5144 11.1677 12.5344 11.2077 12.5744C11.2477 12.6144 11.2677 12.6677 11.2677 12.7344V14.4694ZM10.8627 14.2694H11.2677V15.5944C11.2477 15.601 11.221 15.6077 11.1877 15.6144C11.1543 15.6244 11.1177 15.6294 11.0777 15.6294C11.0077 15.6294 10.9543 15.6144 10.9177 15.5844C10.881 15.5544 10.8627 15.5077 10.8627 15.4444V14.2694Z" fill="#A73C4C"/>
<path d="M5.68717 37.4844C6.00384 37.4844 6.25884 37.5544 6.45217 37.6944C6.64884 37.831 6.74717 38.0377 6.74717 38.3144C6.74717 38.4477 6.71884 38.5627 6.66217 38.6594C6.60884 38.7527 6.54384 38.826 6.46717 38.8794C6.39384 38.9327 6.32717 38.9677 6.26717 38.9844C6.35717 39.011 6.44551 39.0577 6.53217 39.1244C6.61884 39.1877 6.69051 39.271 6.74717 39.3744C6.80717 39.4744 6.83717 39.596 6.83717 39.7394C6.83717 39.9394 6.78884 40.106 6.69217 40.2394C6.59551 40.3727 6.46217 40.4744 6.29217 40.5444C6.12217 40.611 5.92551 40.6444 5.70217 40.6444C5.51884 40.6444 5.35551 40.626 5.21217 40.5894C5.07217 40.5494 4.96217 40.4994 4.88217 40.4394C4.80217 40.3794 4.76217 40.316 4.76217 40.2494C4.76217 40.2027 4.77384 40.1627 4.79717 40.1294C4.82384 40.096 4.85717 40.0677 4.89717 40.0444C4.98384 40.111 5.08884 40.171 5.21217 40.2244C5.33884 40.2777 5.50217 40.3044 5.70217 40.3044C5.92217 40.3044 6.10051 40.2577 6.23717 40.1644C6.37384 40.0677 6.44217 39.9227 6.44217 39.7294C6.44217 39.5594 6.37884 39.4227 6.25217 39.3194C6.12551 39.216 5.94217 39.1644 5.70217 39.1644H5.28717C5.27384 39.1477 5.26217 39.1244 5.25217 39.0944C5.24217 39.061 5.23717 39.0277 5.23717 38.9944C5.23717 38.9577 5.24217 38.9244 5.25217 38.8944C5.26217 38.8644 5.27384 38.841 5.28717 38.8244H5.66717C5.91384 38.8244 6.08884 38.7794 6.19217 38.6894C6.29884 38.596 6.35217 38.4744 6.35217 38.3244C6.35217 38.161 6.29217 38.0377 6.17217 37.9544C6.05217 37.8677 5.88884 37.8244 5.68217 37.8244C5.52217 37.8244 5.38051 37.8494 5.25717 37.8994C5.13717 37.946 5.03717 37.9977 4.95717 38.0544C4.92384 38.0377 4.89384 38.011 4.86717 37.9744C4.84051 37.9377 4.82717 37.8977 4.82717 37.8544C4.82717 37.7944 4.86551 37.736 4.94217 37.6794C5.01884 37.6227 5.12217 37.576 5.25217 37.5394C5.38217 37.5027 5.52717 37.4844 5.68717 37.4844ZM8.58647 40.6544C8.35314 40.6544 8.14647 40.5977 7.96647 40.4844C7.7898 40.3677 7.65147 40.1927 7.55147 39.9594C7.45147 39.7227 7.40147 39.426 7.40147 39.0694C7.40147 38.686 7.45814 38.3794 7.57147 38.1494C7.6848 37.9194 7.83147 37.7527 8.01147 37.6494C8.19147 37.5427 8.38314 37.4894 8.58647 37.4894C8.79314 37.4894 8.98647 37.5427 9.16647 37.6494C9.3498 37.756 9.49647 37.926 9.60647 38.1594C9.7198 38.3894 9.77647 38.6927 9.77647 39.0694C9.77647 39.4227 9.72647 39.7177 9.62647 39.9544C9.52647 40.1877 9.38647 40.3627 9.20647 40.4794C9.0298 40.596 8.82314 40.6544 8.58647 40.6544ZM8.58647 40.3144C8.83314 40.3144 9.0248 40.2077 9.16147 39.9944C9.29814 39.7777 9.36647 39.4694 9.36647 39.0694C9.36647 38.7727 9.3298 38.5344 9.25647 38.3544C9.18647 38.171 9.09314 38.0377 8.97647 37.9544C8.8598 37.871 8.7298 37.8294 8.58647 37.8294C8.44647 37.8294 8.31647 37.8727 8.19647 37.9594C8.0798 38.0427 7.98647 38.176 7.91647 38.3594C7.84647 38.5427 7.81147 38.7794 7.81147 39.0694C7.81147 39.4694 7.8798 39.7777 8.01647 39.9944C8.15314 40.2077 8.34314 40.3144 8.58647 40.3144ZM10.3266 37.8644C10.3266 37.8044 10.365 37.746 10.4416 37.6894C10.5183 37.6294 10.6216 37.581 10.7516 37.5444C10.8816 37.5077 11.0233 37.4894 11.1766 37.4894C11.39 37.4894 11.5733 37.526 11.7266 37.5994C11.88 37.6694 11.9983 37.7694 12.0816 37.8994C12.165 38.0294 12.2066 38.1827 12.2066 38.3594C12.2066 38.5427 12.155 38.7227 12.0516 38.8994C11.9516 39.076 11.7783 39.2777 11.5316 39.5044L10.7166 40.2594H12.2016C12.215 40.2727 12.2266 40.2944 12.2366 40.3244C12.2466 40.351 12.2516 40.3827 12.2516 40.4194C12.2516 40.4727 12.2366 40.5144 12.2066 40.5444C12.18 40.5744 12.1433 40.5894 12.0966 40.5894H10.3316C10.2983 40.566 10.2733 40.5377 10.2566 40.5044C10.24 40.4677 10.2316 40.4294 10.2316 40.3894C10.2316 40.336 10.2416 40.2894 10.2616 40.2494C10.2816 40.206 10.3116 40.166 10.3516 40.1294L11.2516 39.2644C11.4583 39.071 11.6 38.9094 11.6766 38.7794C11.7533 38.646 11.7916 38.5077 11.7916 38.3644C11.7916 38.2077 11.7383 38.0794 11.6316 37.9794C11.525 37.8794 11.3633 37.8294 11.1466 37.8294C11 37.8294 10.8683 37.8544 10.7516 37.9044C10.6383 37.9544 10.5433 38.0077 10.4666 38.0644C10.43 38.0477 10.3966 38.0227 10.3666 37.9894C10.34 37.956 10.3266 37.9144 10.3266 37.8644Z" fill="#A73C4C"/>
<path d="M5.68717 42.4844C6.00384 42.4844 6.25884 42.5544 6.45217 42.6944C6.64884 42.831 6.74717 43.0377 6.74717 43.3144C6.74717 43.4477 6.71884 43.5627 6.66217 43.6594C6.60884 43.7527 6.54384 43.826 6.46717 43.8794C6.39384 43.9327 6.32717 43.9677 6.26717 43.9844C6.35717 44.011 6.44551 44.0577 6.53217 44.1244C6.61884 44.1877 6.69051 44.271 6.74717 44.3744C6.80717 44.4744 6.83717 44.596 6.83717 44.7394C6.83717 44.9394 6.78884 45.106 6.69217 45.2394C6.59551 45.3727 6.46217 45.4744 6.29217 45.5444C6.12217 45.611 5.92551 45.6444 5.70217 45.6444C5.51884 45.6444 5.35551 45.626 5.21217 45.5894C5.07217 45.5494 4.96217 45.4994 4.88217 45.4394C4.80217 45.3794 4.76217 45.316 4.76217 45.2494C4.76217 45.2027 4.77384 45.1627 4.79717 45.1294C4.82384 45.096 4.85717 45.0677 4.89717 45.0444C4.98384 45.111 5.08884 45.171 5.21217 45.2244C5.33884 45.2777 5.50217 45.3044 5.70217 45.3044C5.92217 45.3044 6.10051 45.2577 6.23717 45.1644C6.37384 45.0677 6.44217 44.9227 6.44217 44.7294C6.44217 44.5594 6.37884 44.4227 6.25217 44.3194C6.12551 44.216 5.94217 44.1644 5.70217 44.1644H5.28717C5.27384 44.1477 5.26217 44.1244 5.25217 44.0944C5.24217 44.061 5.23717 44.0277 5.23717 43.9944C5.23717 43.9577 5.24217 43.9244 5.25217 43.8944C5.26217 43.8644 5.27384 43.841 5.28717 43.8244H5.66717C5.91384 43.8244 6.08884 43.7794 6.19217 43.6894C6.29884 43.596 6.35217 43.4744 6.35217 43.3244C6.35217 43.161 6.29217 43.0377 6.17217 42.9544C6.05217 42.8677 5.88884 42.8244 5.68217 42.8244C5.52217 42.8244 5.38051 42.8494 5.25717 42.8994C5.13717 42.946 5.03717 42.9977 4.95717 43.0544C4.92384 43.0377 4.89384 43.011 4.86717 42.9744C4.84051 42.9377 4.82717 42.8977 4.82717 42.8544C4.82717 42.7944 4.86551 42.736 4.94217 42.6794C5.01884 42.6227 5.12217 42.576 5.25217 42.5394C5.38217 42.5027 5.52717 42.4844 5.68717 42.4844ZM8.58647 45.6544C8.35314 45.6544 8.14647 45.5977 7.96647 45.4844C7.7898 45.3677 7.65147 45.1927 7.55147 44.9594C7.45147 44.7227 7.40147 44.426 7.40147 44.0694C7.40147 43.686 7.45814 43.3794 7.57147 43.1494C7.6848 42.9194 7.83147 42.7527 8.01147 42.6494C8.19147 42.5427 8.38314 42.4894 8.58647 42.4894C8.79314 42.4894 8.98647 42.5427 9.16647 42.6494C9.3498 42.756 9.49647 42.926 9.60647 43.1594C9.7198 43.3894 9.77647 43.6927 9.77647 44.0694C9.77647 44.4227 9.72647 44.7177 9.62647 44.9544C9.52647 45.1877 9.38647 45.3627 9.20647 45.4794C9.0298 45.596 8.82314 45.6544 8.58647 45.6544ZM8.58647 45.3144C8.83314 45.3144 9.0248 45.2077 9.16147 44.9944C9.29814 44.7777 9.36647 44.4694 9.36647 44.0694C9.36647 43.7727 9.3298 43.5344 9.25647 43.3544C9.18647 43.171 9.09314 43.0377 8.97647 42.9544C8.8598 42.871 8.7298 42.8294 8.58647 42.8294C8.44647 42.8294 8.31647 42.8727 8.19647 42.9594C8.0798 43.0427 7.98647 43.176 7.91647 43.3594C7.84647 43.5427 7.81147 43.7794 7.81147 44.0694C7.81147 44.4694 7.8798 44.7777 8.01647 44.9944C8.15314 45.2077 8.34314 45.3144 8.58647 45.3144ZM11.0924 42.4844C11.4091 42.4844 11.6641 42.5544 11.8574 42.6944C12.0541 42.831 12.1524 43.0377 12.1524 43.3144C12.1524 43.4477 12.1241 43.5627 12.0674 43.6594C12.0141 43.7527 11.9491 43.826 11.8724 43.8794C11.7991 43.9327 11.7324 43.9677 11.6724 43.9844C11.7624 44.011 11.8508 44.0577 11.9374 44.1244C12.0241 44.1877 12.0958 44.271 12.1524 44.3744C12.2124 44.4744 12.2424 44.596 12.2424 44.7394C12.2424 44.9394 12.1941 45.106 12.0974 45.2394C12.0008 45.3727 11.8674 45.4744 11.6974 45.5444C11.5274 45.611 11.3308 45.6444 11.1074 45.6444C10.9241 45.6444 10.7608 45.626 10.6174 45.5894C10.4774 45.5494 10.3674 45.4994 10.2874 45.4394C10.2074 45.3794 10.1674 45.316 10.1674 45.2494C10.1674 45.2027 10.1791 45.1627 10.2024 45.1294C10.2291 45.096 10.2624 45.0677 10.3024 45.0444C10.3891 45.111 10.4941 45.171 10.6174 45.2244C10.7441 45.2777 10.9074 45.3044 11.1074 45.3044C11.3274 45.3044 11.5058 45.2577 11.6424 45.1644C11.7791 45.0677 11.8474 44.9227 11.8474 44.7294C11.8474 44.5594 11.7841 44.4227 11.6574 44.3194C11.5308 44.216 11.3474 44.1644 11.1074 44.1644H10.6924C10.6791 44.1477 10.6674 44.1244 10.6574 44.0944C10.6474 44.061 10.6424 44.0277 10.6424 43.9944C10.6424 43.9577 10.6474 43.9244 10.6574 43.8944C10.6674 43.8644 10.6791 43.841 10.6924 43.8244H11.0724C11.3191 43.8244 11.4941 43.7794 11.5974 43.6894C11.7041 43.596 11.7574 43.4744 11.7574 43.3244C11.7574 43.161 11.6974 43.0377 11.5774 42.9544C11.4574 42.8677 11.2941 42.8244 11.0874 42.8244C10.9274 42.8244 10.7858 42.8494 10.6624 42.8994C10.5424 42.946 10.4424 42.9977 10.3624 43.0544C10.3291 43.0377 10.2991 43.011 10.2724 42.9744C10.2458 42.9377 10.2324 42.8977 10.2324 42.8544C10.2324 42.7944 10.2708 42.736 10.3474 42.6794C10.4241 42.6227 10.5274 42.576 10.6574 42.5394C10.7874 42.5027 10.9324 42.4844 11.0924 42.4844Z" fill="#A73C4C"/>
</svg>
