<svg width="66" height="88" viewBox="0 0 66 88" fill="none" xmlns="http://www.w3.org/2000/svg">
<path d="M1.75 1.5H64.25V85.8319H1.75V1.5Z" fill="white"/>
<path d="M42.75 15.7517V1.50004" stroke="#A73C4C" stroke-width="0.5"/>
<path d="M52.75 15.7517V1.50004" stroke="#A73C4C" stroke-width="0.5"/>
<path d="M42.75 15.5L53.75 15.5" stroke="#A73C4C" stroke-width="0.5"/>
<path d="M58.25 15.5L64.25 15.5M58.25 15.5L64.25 15.5" stroke="#A73C4C" stroke-width="0.5"/>
<path d="M64.25 30L42.75 30" stroke="#A73C4C" stroke-width="0.5"/>
<path d="M42.75 31V27.5" stroke="#A73C4C" stroke-width="0.5"/>
<path d="M42.75 43V36" stroke="#A73C4C" stroke-width="0.5"/>
<path d="M42.75 56.5V47.5001" stroke="#A73C4C" stroke-width="0.5"/>
<path d="M42.75 68V60.5001" stroke="#A73C4C" stroke-width="0.5"/>
<path d="M42.75 76V71.5001" stroke="#A73C4C" stroke-width="0.5"/>
<path d="M37.75 76.5V72" stroke="#A73C4C" stroke-width="0.5"/>
<path d="M37.75 66.2374L37.75 24.6721" stroke="#A73C4C" stroke-width="0.5"/>
<path d="M28.1092 57H37.75" stroke="#A73C4C" stroke-width="0.5"/>
<path d="M22.75 26L22.75 60" stroke="#A73C4C" stroke-width="0.5"/>
<path d="M28.1094 51.5H37.8479" stroke="#A73C4C" stroke-width="0.5"/>
<path d="M22.75 44.5H37.75" stroke="#A73C4C" stroke-width="0.5"/>
<path d="M28.4886 34H37.75" stroke="#A73C4C" stroke-width="0.5"/>
<path d="M22.75 51.5H25.25" stroke="#A73C4C" stroke-width="0.5"/>
<path d="M22.75 57H25.25" stroke="#A73C4C" stroke-width="0.5"/>
<path d="M22.75 34H25.25" stroke="#A73C4C" stroke-width="0.5"/>
<path d="M1.75 26H5.75" stroke="#A73C4C" stroke-width="0.5"/>
<path d="M9.25 26L24.25 26" stroke="#A73C4C" stroke-width="0.5"/>
<path d="M9.25 12.5L24.25 12.5" stroke="#A73C4C" stroke-width="0.5"/>
<path d="M14.25 12.5L14.25 26" stroke="#A73C4C" stroke-width="0.5"/>
<path d="M23.25 12.5V21" stroke="#A73C4C" stroke-width="0.5"/>
<path d="M23.25 24.5V26" stroke="#A73C4C" stroke-width="0.5"/>
<path d="M6.1389 12.5H1.75" stroke="#A73C4C" stroke-width="0.5"/>
<path d="M11.75 9H10.25" stroke="#A73C4C" stroke-width="0.5"/>
<path d="M18.9297 9H14.25" stroke="#A73C4C" stroke-width="0.5"/>
<path d="M37.75 21V15.5" stroke="#A73C4C" stroke-width="0.5"/>
<path d="M24.75 9H22.1133" stroke="#A73C4C" stroke-width="0.5"/>
<path d="M24.75 9.25V1.5" stroke="#A73C4C" stroke-width="0.5"/>
<path d="M15.75 9.25L15.75 1.5" stroke="#A73C4C" stroke-width="0.5"/>
<path d="M10.25 9.24219L10.25 1.56604" stroke="#A73C4C" stroke-width="0.5"/>
<path d="M10.25 12.5L10.25 21.5" stroke="#A73C4C" stroke-width="0.5"/>
<path d="M10.25 25V26" stroke="#A73C4C" stroke-width="0.5"/>
<path d="M10.25 20.5H11.1133M13.25 20.5H14.25" stroke="#A73C4C" stroke-width="0.5"/>
<path d="M28.052 26L37.75 26" stroke="#A73C4C" stroke-width="0.5"/>
<path d="M22.75 65.5H37.75" stroke="#A73C4C" stroke-width="0.5"/>
<path d="M22.75 64L22.75 86" stroke="#A73C4C" stroke-width="0.5"/>
<path d="M30.75 65.5V72.5" stroke="#A73C4C" stroke-width="0.5"/>
<path d="M37.75 72.5H29.0035" stroke="#A73C4C" stroke-width="0.5"/>
<path d="M25.75 72.5H22.75" stroke="#A73C4C" stroke-width="0.5"/>
<path d="M22.75 72H21.25" stroke="#A73C4C" stroke-width="0.5"/>
<path d="M18.25 72H9.75" stroke="#A73C4C" stroke-width="0.5"/>
<path d="M6.75 69L6.75 49" stroke="#A73C4C" stroke-width="0.5"/>
<path d="M9.75 79L9.75 71.7539" stroke="#A73C4C" stroke-width="0.5"/>
<path d="M1.75 79H3.75" stroke="#A73C4C" stroke-width="0.5"/>
<path d="M6.75 79H22.75" stroke="#A73C4C" stroke-width="0.5"/>
<path d="M10.5017 51.5H19.5" stroke="#A73C4C" stroke-width="0.5"/>
<path d="M10.75 49V51.5" stroke="#A73C4C" stroke-width="0.5"/>
<path d="M19.25 49V51.5" stroke="#A73C4C" stroke-width="0.5"/>
<path d="M37.75 69H30.75" stroke="#A73C4C" stroke-width="0.5"/>
<path d="M37.75 70V68" stroke="#A73C4C" stroke-width="0.5"/>
<path d="M42.75 86V80" stroke="#A73C4C" stroke-width="0.5"/>
<path d="M37.75 86V80" stroke="#A73C4C" stroke-width="0.5"/>
<path d="M42.75 62L64.25 62" stroke="#A73C4C" stroke-width="0.5"/>
<path d="M42.75 72.5H64.25" stroke="#A73C4C" stroke-width="0.5"/>
<path d="M42.75 51L64.25 51" stroke="#A73C4C" stroke-width="0.5"/>
<path d="M42.75 23V20" stroke="#A73C4C" stroke-width="0.5"/>
<path d="M42.75 21.5L64.25 21.5" stroke="#A73C4C" stroke-width="0.5"/>
<path d="M42.75 37L64.25 37" stroke="#A73C4C" stroke-width="0.5"/>
<path d="M30.25 12.75L30.25 1.50004" stroke="#A73C4C" stroke-width="0.5"/>
<path d="M27.75 12.5H30.25" stroke="#A73C4C" stroke-width="0.5"/>
<path d="M23.25 15.5L38 15.5" stroke="#A73C4C" stroke-width="0.5"/>
<path d="M25.5869 1.5H1.75V20.5" stroke="#A73C4C" stroke-width="0.5"/>
<path d="M64.2375 16.5V1.5H29.5872" stroke="#A73C4C" stroke-width="0.5"/>
<path d="M64.2513 20L64.2475 31.5" stroke="#A73C4C" stroke-width="0.5"/>
<path d="M41.9478 85.7856L64.2375 85.7855V35.3396" stroke="#A73C4C" stroke-width="0.5"/>
<path d="M38.6065 85.7856L8.25 85.7856" stroke="#A73C4C" stroke-width="0.5"/>
<path d="M4.25 85.7855H1.75V24.5" stroke="#A73C4C" stroke-width="0.5"/>
<path d="M56.05 5.5C55.8843 5.5 55.75 5.63431 55.75 5.8V11.2C55.75 11.3657 55.8843 11.5 56.05 11.5H56.6095H61.45C61.6157 11.5 61.75 11.3657 61.75 11.2V6.54988V5.8C61.75 5.63431 61.6157 5.5 61.45 5.5H56.05ZM57.1346 11.2692V10.6769C57.1346 10.6217 57.1794 10.5769 57.2346 10.5769H57.7577C57.9234 10.5769 58.0577 10.4426 58.0577 10.2769V9.75385C58.0577 9.69862 58.1025 9.65385 58.1577 9.65385H58.6808C58.8465 9.65385 58.9808 9.51953 58.9808 9.35385V8.83077C58.9808 8.77554 59.0255 8.73077 59.0808 8.73077H59.6038C59.7695 8.73077 59.9038 8.59645 59.9038 8.43077V7.90769C59.9038 7.85246 59.9486 7.80769 60.0038 7.80769H60.5269C60.6926 7.80769 60.8269 7.67338 60.8269 7.50769V6.98462C60.8269 6.92939 60.8717 6.88462 60.9269 6.88462H61.5192V11.1692C61.5192 11.2244 61.4745 11.2692 61.4192 11.2692L57.1346 11.2692ZM61.5192 6.65385H60.8962C60.7305 6.65385 60.5962 6.78816 60.5962 6.95385V7.47692C60.5962 7.53215 60.5514 7.57692 60.4962 7.57692H59.9731C59.8074 7.57692 59.6731 7.71124 59.6731 7.87692V8.4C59.6731 8.45523 59.6283 8.5 59.5731 8.5H59.05C58.8843 8.5 58.75 8.63431 58.75 8.8V9.32308C58.75 9.37831 58.7052 9.42308 58.65 9.42308H58.1269C57.9612 9.42308 57.8269 9.55739 57.8269 9.72308V10.2462C57.8269 10.3014 57.7822 10.3462 57.7269 10.3462H57.2038C57.0382 10.3462 56.9038 10.4805 56.9038 10.6462V11.2692H56.0808C56.0255 11.2692 55.9808 11.2244 55.9808 11.1692V5.83077C55.9808 5.77554 56.0255 5.73077 56.0808 5.73077H61.4192C61.4745 5.73077 61.5192 5.77554 61.5192 5.83077V6.65385Z" fill="#A73C4C"/>
<path d="M3.3 3.5C3.13431 3.5 3 3.63431 3 3.8V9.2C3 9.36569 3.13431 9.5 3.3 9.5H3.85951H8.7C8.86568 9.5 9 9.36569 9 9.2V4.54988V3.8C9 3.63431 8.86569 3.5 8.7 3.5H3.3ZM4.38462 9.26923V8.67692C4.38462 8.62169 4.42939 8.57692 4.48462 8.57692H5.00769C5.17338 8.57692 5.30769 8.44261 5.30769 8.27692V7.75385C5.30769 7.69862 5.35246 7.65385 5.40769 7.65385H5.93077C6.09645 7.65385 6.23077 7.51953 6.23077 7.35385V6.83077C6.23077 6.77554 6.27554 6.73077 6.33077 6.73077H6.85385C7.01953 6.73077 7.15385 6.59645 7.15385 6.43077V5.90769C7.15385 5.85246 7.19862 5.80769 7.25385 5.80769H7.77692C7.94261 5.80769 8.07692 5.67338 8.07692 5.50769V4.98462C8.07692 4.92939 8.12169 4.88462 8.17692 4.88462H8.76923V9.16918C8.76923 9.2244 8.72446 9.26918 8.66923 9.26918L4.38462 9.26923ZM8.76923 4.65385H8.14615C7.98047 4.65385 7.84615 4.78816 7.84615 4.95385V5.47692C7.84615 5.53215 7.80138 5.57692 7.74615 5.57692H7.22308C7.05739 5.57692 6.92308 5.71124 6.92308 5.87692V6.4C6.92308 6.45523 6.87831 6.5 6.82308 6.5H6.3C6.13431 6.5 6 6.63431 6 6.8V7.32308C6 7.37831 5.95523 7.42308 5.9 7.42308H5.37692C5.21124 7.42308 5.07692 7.55739 5.07692 7.72308V8.24615C5.07692 8.30138 5.03215 8.34615 4.97692 8.34615H4.45385C4.28816 8.34615 4.15385 8.48047 4.15385 8.64615V9.26917H3.33077C3.27554 9.26917 3.23077 9.2244 3.23077 9.16917V3.83077C3.23077 3.77554 3.27554 3.73077 3.33077 3.73077H8.66923C8.72446 3.73077 8.76923 3.77554 8.76923 3.83077V4.65385Z" fill="#A73C4C"/>
<path d="M14.05 79.75C13.8843 79.75 13.75 79.8843 13.75 80.05V84.45C13.75 84.6157 13.8843 84.75 14.05 84.75H14.4663H18.45C18.6157 84.75 18.75 84.6157 18.75 84.45V80.6249V80.05C18.75 79.8843 18.6157 79.75 18.45 79.75H14.05ZM14.9038 84.5577V84.0808C14.9038 84.0255 14.9486 83.9808 15.0038 83.9808H15.3731C15.5388 83.9808 15.6731 83.8465 15.6731 83.6808V83.3115C15.6731 83.2563 15.7178 83.2115 15.7731 83.2115H16.1423C16.308 83.2115 16.4423 83.0772 16.4423 82.9115V82.5423C16.4423 82.4871 16.4871 82.4423 16.5423 82.4423H16.9115C17.0772 82.4423 17.2115 82.308 17.2115 82.1423V81.7731C17.2115 81.7178 17.2563 81.6731 17.3115 81.6731H17.6808C17.8465 81.6731 17.9808 81.5388 17.9808 81.3731V81.0038C17.9808 80.9486 18.0255 80.9038 18.0808 80.9038H18.5577V84.4576C18.5577 84.5129 18.5129 84.5576 18.4577 84.5576L14.9038 84.5577ZM18.5577 80.7115H18.0885C17.9228 80.7115 17.7885 80.8459 17.7885 81.0115V81.3808C17.7885 81.436 17.7437 81.4808 17.6885 81.4808H17.3192C17.1535 81.4808 17.0192 81.6151 17.0192 81.7808V82.15C17.0192 82.2052 16.9745 82.25 16.9192 82.25H16.55C16.3843 82.25 16.25 82.3843 16.25 82.55V82.9192C16.25 82.9745 16.2052 83.0192 16.15 83.0192H15.7808C15.6151 83.0192 15.4808 83.1535 15.4808 83.3192V83.6885C15.4808 83.7437 15.436 83.7885 15.3808 83.7885H15.0115C14.8459 83.7885 14.7115 83.9228 14.7115 84.0885V84.5576H14.0423C13.9871 84.5576 13.9423 84.5129 13.9423 84.4576V80.0423C13.9423 79.9871 13.9871 79.9423 14.0423 79.9423H18.4577C18.5129 79.9423 18.5577 79.9871 18.5577 80.0423V80.7115Z" fill="#A73C4C"/>
<path d="M5.8847 85.795H7.68999M7.68999 85.795L7.19771 85.2285M7.68999 85.795L7.19764 86.3616" stroke="#A73C4C" stroke-width="0.5" stroke-linecap="round" stroke-linejoin="round"/>
<path d="M6.5412 85.0886V84.5809C6.5412 84.5362 6.50445 84.5 6.45914 84.5H4.98208C4.93676 84.5 4.90002 84.5362 4.90002 84.5809V87.0091C4.90002 87.0538 4.93676 87.09 4.98208 87.09H6.45914C6.50445 87.09 6.5412 87.0538 6.5412 87.0091V86.5014" stroke="#A73C4C" stroke-width="0.5" stroke-linecap="round" stroke-linejoin="round"/>
<path d="M39.8824 85.7951H41.5M41.5 85.7951L41.0589 85.2285M41.5 85.7951L41.0589 86.3616" stroke="#A73C4C" stroke-width="0.5" stroke-linecap="round" stroke-linejoin="round"/>
<path d="M40.4706 85.0886V84.5809C40.4706 84.5362 40.4377 84.5 40.3971 84.5H39.0735C39.0329 84.5 39 84.5362 39 84.5809V87.0091C39 87.0538 39.0329 87.09 39.0735 87.09H40.3971C40.4377 87.09 40.4706 87.0538 40.4706 87.0091V86.5014" stroke="#A73C4C" stroke-width="0.5" stroke-linecap="round" stroke-linejoin="round"/>
<path d="M63.6324 33.3951H65.25M65.25 33.3951L64.8089 32.8285M65.25 33.3951L64.8089 33.9616" stroke="#A73C4C" stroke-width="0.5" stroke-linecap="round" stroke-linejoin="round"/>
<path d="M64.2206 32.6886V32.1809C64.2206 32.1362 64.1877 32.1 64.1471 32.1H62.8235C62.7829 32.1 62.75 32.1362 62.75 32.1809V34.6091C62.75 34.6538 62.7829 34.69 62.8235 34.69H64.1471C64.1877 34.69 64.2206 34.6538 64.2206 34.6091V34.1014" stroke="#A73C4C" stroke-width="0.5" stroke-linecap="round" stroke-linejoin="round"/>
<path d="M63.6324 18.2951H65.25M65.25 18.2951L64.8089 17.7285M65.25 18.2951L64.8089 18.8616" stroke="#A73C4C" stroke-width="0.5" stroke-linecap="round" stroke-linejoin="round"/>
<path d="M64.2206 17.5886V17.0809C64.2206 17.0362 64.1877 17 64.1471 17H62.8235C62.7829 17 62.75 17.0362 62.75 17.0809V19.5091C62.75 19.5538 62.7829 19.59 62.8235 19.59H64.1471C64.1877 19.59 64.2206 19.5538 64.2206 19.5091V19.0014" stroke="#A73C4C" stroke-width="0.5" stroke-linecap="round" stroke-linejoin="round"/>
<path d="M27.1324 1.54508H28.75M28.75 1.54508L28.3089 0.978516M28.75 1.54508L28.3089 2.11164" stroke="#A73C4C" stroke-width="0.5" stroke-linecap="round" stroke-linejoin="round"/>
<path d="M27.7206 0.838636V0.330937C27.7206 0.286237 27.6877 0.25 27.6471 0.25H26.3235C26.2829 0.25 26.25 0.286237 26.25 0.330937V2.75906C26.25 2.80376 26.2829 2.84 26.3235 2.84H27.6471C27.6877 2.84 27.7206 2.80376 27.7206 2.75906V2.25136" stroke="#A73C4C" stroke-width="0.5" stroke-linecap="round" stroke-linejoin="round"/>
<path d="M1.23468 22.545H3.03997M3.03997 22.545L2.54768 21.9785M3.03997 22.545L2.54762 23.1116" stroke="#A73C4C" stroke-width="0.5" stroke-linecap="round" stroke-linejoin="round"/>
<path d="M1.89117 21.8386V21.3309C1.89117 21.2862 1.85443 21.25 1.80911 21.25H0.332059C0.286739 21.25 0.25 21.2862 0.25 21.3309V23.7591C0.25 23.8038 0.286739 23.84 0.332059 23.84H1.80911C1.85443 23.84 1.89117 23.8038 1.89117 23.7591V23.2514" stroke="#A73C4C" stroke-width="0.5" stroke-linecap="round" stroke-linejoin="round"/>
<path d="M51.02 45.38H50.615V43.85L49.975 44.15C49.9317 44.1333 49.895 44.1083 49.865 44.075C49.8383 44.0417 49.825 44 49.825 43.95C49.825 43.8533 49.885 43.78 50.005 43.73L50.705 43.425H50.8C50.8667 43.425 50.92 43.445 50.96 43.485C51 43.525 51.02 43.5783 51.02 43.645V45.38ZM50.615 45.18H51.02V46.505C51 46.5117 50.9733 46.5183 50.94 46.525C50.9067 46.535 50.87 46.54 50.83 46.54C50.76 46.54 50.7067 46.525 50.67 46.495C50.6333 46.465 50.615 46.4183 50.615 46.355V45.18ZM51.8709 43.775C51.8709 43.715 51.9093 43.6567 51.9859 43.6C52.0626 43.54 52.1659 43.4917 52.2959 43.455C52.4259 43.4183 52.5676 43.4 52.7209 43.4C52.9343 43.4 53.1176 43.4367 53.2709 43.51C53.4243 43.58 53.5426 43.68 53.6259 43.81C53.7093 43.94 53.7509 44.0933 53.7509 44.27C53.7509 44.4533 53.6993 44.6333 53.5959 44.81C53.4959 44.9867 53.3226 45.1883 53.0759 45.415L52.2609 46.17H53.7459C53.7593 46.1833 53.7709 46.205 53.7809 46.235C53.7909 46.2617 53.7959 46.2933 53.7959 46.33C53.7959 46.3833 53.7809 46.425 53.7509 46.455C53.7243 46.485 53.6876 46.5 53.6409 46.5H51.8759C51.8426 46.4767 51.8176 46.4483 51.8009 46.415C51.7843 46.3783 51.7759 46.34 51.7759 46.3C51.7759 46.2467 51.7859 46.2 51.8059 46.16C51.8259 46.1167 51.8559 46.0767 51.8959 46.04L52.7959 45.175C53.0026 44.9817 53.1443 44.82 53.2209 44.69C53.2976 44.5567 53.3359 44.4183 53.3359 44.275C53.3359 44.1183 53.2826 43.99 53.1759 43.89C53.0693 43.79 52.9076 43.74 52.6909 43.74C52.5443 43.74 52.4126 43.765 52.2959 43.815C52.1826 43.865 52.0876 43.9183 52.0109 43.975C51.9743 43.9583 51.9409 43.9333 51.9109 43.9C51.8843 43.8667 51.8709 43.825 51.8709 43.775ZM54.3512 43.46H56.1512C56.1878 43.48 56.2162 43.5083 56.2362 43.545C56.2562 43.5783 56.2662 43.6167 56.2662 43.66C56.2662 43.6933 56.2612 43.7267 56.2512 43.76C56.2445 43.7933 56.2312 43.83 56.2112 43.87L54.9562 46.52C54.9362 46.5233 54.9162 46.525 54.8962 46.525C54.8795 46.525 54.8612 46.525 54.8412 46.525C54.7778 46.525 54.7228 46.51 54.6762 46.48C54.6295 46.4467 54.6062 46.4017 54.6062 46.345C54.6062 46.305 54.6145 46.2667 54.6312 46.23C54.6478 46.19 54.6678 46.145 54.6912 46.095L55.8212 43.8H54.2412C54.2312 43.7833 54.2212 43.7617 54.2112 43.735C54.2012 43.705 54.1962 43.6733 54.1962 43.64C54.1962 43.5833 54.2095 43.54 54.2362 43.51C54.2628 43.4767 54.3012 43.46 54.3512 43.46Z" fill="#A73C4C"/>
<path d="M51.02 57.38H50.615V55.85L49.975 56.15C49.9317 56.1333 49.895 56.1083 49.865 56.075C49.8383 56.0417 49.825 56 49.825 55.95C49.825 55.8533 49.885 55.78 50.005 55.73L50.705 55.425H50.8C50.8667 55.425 50.92 55.445 50.96 55.485C51 55.525 51.02 55.5783 51.02 55.645V57.38ZM50.615 57.18H51.02V58.505C51 58.5117 50.9733 58.5183 50.94 58.525C50.9067 58.535 50.87 58.54 50.83 58.54C50.76 58.54 50.7067 58.525 50.67 58.495C50.6333 58.465 50.615 58.4183 50.615 58.355V57.18ZM51.8709 55.775C51.8709 55.715 51.9093 55.6567 51.9859 55.6C52.0626 55.54 52.1659 55.4917 52.2959 55.455C52.4259 55.4183 52.5676 55.4 52.7209 55.4C52.9343 55.4 53.1176 55.4367 53.2709 55.51C53.4243 55.58 53.5426 55.68 53.6259 55.81C53.7093 55.94 53.7509 56.0933 53.7509 56.27C53.7509 56.4533 53.6993 56.6333 53.5959 56.81C53.4959 56.9867 53.3226 57.1883 53.0759 57.415L52.2609 58.17H53.7459C53.7593 58.1833 53.7709 58.205 53.7809 58.235C53.7909 58.2617 53.7959 58.2933 53.7959 58.33C53.7959 58.3833 53.7809 58.425 53.7509 58.455C53.7243 58.485 53.6876 58.5 53.6409 58.5H51.8759C51.8426 58.4767 51.8176 58.4483 51.8009 58.415C51.7843 58.3783 51.7759 58.34 51.7759 58.3C51.7759 58.2467 51.7859 58.2 51.8059 58.16C51.8259 58.1167 51.8559 58.0767 51.8959 58.04L52.7959 57.175C53.0026 56.9817 53.1443 56.82 53.2209 56.69C53.2976 56.5567 53.3359 56.4183 53.3359 56.275C53.3359 56.1183 53.2826 55.99 53.1759 55.89C53.0693 55.79 52.9076 55.74 52.6909 55.74C52.5443 55.74 52.4126 55.765 52.2959 55.815C52.1826 55.865 52.0876 55.9183 52.0109 55.975C51.9743 55.9583 51.9409 55.9333 51.9109 55.9C51.8843 55.8667 51.8709 55.825 51.8709 55.775ZM55.4816 58.565C55.255 58.565 55.0566 58.5317 54.8866 58.465C54.7166 58.395 54.585 58.295 54.4916 58.165C54.3983 58.035 54.3516 57.8783 54.3516 57.695C54.3516 57.5317 54.3883 57.3933 54.4616 57.28C54.5383 57.1633 54.635 57.07 54.7516 57C54.8683 56.93 54.99 56.8833 55.1166 56.86L55.4166 56.81C55.6566 56.7633 55.8366 56.695 55.9566 56.605C56.0766 56.5117 56.1366 56.3883 56.1366 56.235C56.1366 56.0783 56.0783 55.9567 55.9616 55.87C55.845 55.78 55.685 55.735 55.4816 55.735C55.285 55.735 55.1266 55.78 55.0066 55.87C54.8866 55.96 54.8266 56.08 54.8266 56.23C54.8266 56.3567 54.86 56.4583 54.9266 56.535C54.9966 56.6117 55.0883 56.67 55.2016 56.71C55.3183 56.7467 55.445 56.7717 55.5816 56.785L55.8016 56.86C55.9383 56.8867 56.0683 56.935 56.1916 57.005C56.315 57.0717 56.415 57.1617 56.4916 57.275C56.5683 57.3883 56.6066 57.53 56.6066 57.7C56.6066 57.88 56.5583 58.035 56.4616 58.165C56.3683 58.295 56.2366 58.395 56.0666 58.465C55.9 58.5317 55.705 58.565 55.4816 58.565ZM55.4816 58.23C55.6983 58.23 55.8733 58.1833 56.0066 58.09C56.14 57.9967 56.2066 57.8617 56.2066 57.685C56.2066 57.4917 56.125 57.3383 55.9616 57.225C55.8016 57.1117 55.5866 57.0467 55.3166 57.03L55.0616 56.955C54.8683 56.9017 54.7133 56.815 54.5966 56.695C54.4833 56.575 54.4266 56.4183 54.4266 56.225C54.4266 56.055 54.47 55.9083 54.5566 55.785C54.6466 55.6617 54.77 55.5667 54.9266 55.5C55.0866 55.4333 55.2716 55.4 55.4816 55.4C55.8083 55.4 56.065 55.475 56.2516 55.625C56.4416 55.7717 56.5366 55.975 56.5366 56.235C56.5366 56.445 56.465 56.61 56.3216 56.73C56.1816 56.85 56.01 56.9283 55.8066 56.965L55.4666 57.035C55.2533 57.0683 55.08 57.1417 54.9466 57.255C54.8166 57.365 54.7516 57.51 54.7516 57.69C54.7516 57.86 54.8166 57.9933 54.9466 58.09C55.0766 58.1833 55.255 58.23 55.4816 58.23Z" fill="#A73C4C"/>
<path d="M51.02 68.88H50.615V67.35L49.975 67.65C49.9317 67.6333 49.895 67.6083 49.865 67.575C49.8383 67.5417 49.825 67.5 49.825 67.45C49.825 67.3533 49.885 67.28 50.005 67.23L50.705 66.925H50.8C50.8667 66.925 50.92 66.945 50.96 66.985C51 67.025 51.02 67.0783 51.02 67.145V68.88ZM50.615 68.68H51.02V70.005C51 70.0117 50.9733 70.0183 50.94 70.025C50.9067 70.035 50.87 70.04 50.83 70.04C50.76 70.04 50.7067 70.025 50.67 69.995C50.6333 69.965 50.615 69.9183 50.615 69.855V68.68ZM51.8709 67.275C51.8709 67.215 51.9093 67.1567 51.9859 67.1C52.0626 67.04 52.1659 66.9917 52.2959 66.955C52.4259 66.9183 52.5676 66.9 52.7209 66.9C52.9343 66.9 53.1176 66.9367 53.2709 67.01C53.4243 67.08 53.5426 67.18 53.6259 67.31C53.7093 67.44 53.7509 67.5933 53.7509 67.77C53.7509 67.9533 53.6993 68.1333 53.5959 68.31C53.4959 68.4867 53.3226 68.6883 53.0759 68.915L52.2609 69.67H53.7459C53.7593 69.6833 53.7709 69.705 53.7809 69.735C53.7909 69.7617 53.7959 69.7933 53.7959 69.83C53.7959 69.8833 53.7809 69.925 53.7509 69.955C53.7243 69.985 53.6876 70 53.6409 70H51.8759C51.8426 69.9767 51.8176 69.9483 51.8009 69.915C51.7843 69.8783 51.7759 69.84 51.7759 69.8C51.7759 69.7467 51.7859 69.7 51.8059 69.66C51.8259 69.6167 51.8559 69.5767 51.8959 69.54L52.7959 68.675C53.0026 68.4817 53.1443 68.32 53.2209 68.19C53.2976 68.0567 53.3359 67.9183 53.3359 67.775C53.3359 67.6183 53.2826 67.49 53.1759 67.39C53.0693 67.29 52.9076 67.24 52.6909 67.24C52.5443 67.24 52.4126 67.265 52.2959 67.315C52.1826 67.365 52.0876 67.4183 52.0109 67.475C51.9743 67.4583 51.9409 67.4333 51.9109 67.4C51.8843 67.3667 51.8709 67.325 51.8709 67.275ZM54.5106 69.755C54.5106 69.715 54.5206 69.6767 54.5406 69.64C54.5639 69.6033 54.5923 69.5767 54.6256 69.56C54.6889 69.5967 54.7706 69.6333 54.8706 69.67C54.9739 69.7033 55.0956 69.72 55.2356 69.72C55.4089 69.72 55.5673 69.6833 55.7106 69.61C55.8539 69.5367 55.9689 69.4167 56.0556 69.25C56.1423 69.08 56.1856 68.8567 56.1856 68.58C56.1556 68.6133 56.1056 68.655 56.0356 68.705C55.9689 68.7517 55.8839 68.7933 55.7806 68.83C55.6773 68.8667 55.5573 68.885 55.4206 68.885C55.2339 68.885 55.0589 68.8533 54.8956 68.79C54.7323 68.7233 54.6006 68.6183 54.5006 68.475C54.4039 68.3317 54.3556 68.1433 54.3556 67.91C54.3556 67.7 54.4023 67.52 54.4956 67.37C54.5889 67.2167 54.7156 67.1 54.8756 67.02C55.0356 66.94 55.2139 66.9 55.4106 66.9C55.6406 66.9 55.8439 66.9533 56.0206 67.06C56.1973 67.1633 56.3356 67.325 56.4356 67.545C56.5389 67.7617 56.5906 68.0417 56.5906 68.385C56.5906 68.7917 56.5339 69.1183 56.4206 69.365C56.3073 69.6117 56.1489 69.79 55.9456 69.9C55.7456 70.01 55.5106 70.065 55.2406 70.065C55.0406 70.065 54.8689 70.0383 54.7256 69.985C54.5823 69.9317 54.5106 69.855 54.5106 69.755ZM55.4756 68.55C55.6456 68.55 55.7956 68.5083 55.9256 68.425C56.0589 68.3383 56.1473 68.2433 56.1906 68.14L56.1856 68.195C56.1856 67.8983 56.1173 67.665 55.9806 67.495C55.8473 67.3217 55.6573 67.235 55.4106 67.235C55.2273 67.235 55.0723 67.295 54.9456 67.415C54.8223 67.5317 54.7606 67.6933 54.7606 67.9C54.7606 68.13 54.8306 68.2967 54.9706 68.4C55.1106 68.5 55.2789 68.55 55.4756 68.55Z" fill="#A73C4C"/>
<path d="M51.02 80.38H50.615V78.85L49.975 79.15C49.9317 79.1333 49.895 79.1083 49.865 79.075C49.8383 79.0417 49.825 79 49.825 78.95C49.825 78.8533 49.885 78.78 50.005 78.73L50.705 78.425H50.8C50.8667 78.425 50.92 78.445 50.96 78.485C51 78.525 51.02 78.5783 51.02 78.645V80.38ZM50.615 80.18H51.02V81.505C51 81.5117 50.9733 81.5183 50.94 81.525C50.9067 81.535 50.87 81.54 50.83 81.54C50.76 81.54 50.7067 81.525 50.67 81.495C50.6333 81.465 50.615 81.4183 50.615 81.355V80.18ZM52.6465 78.395C52.9632 78.395 53.2182 78.465 53.4115 78.605C53.6082 78.7417 53.7065 78.9483 53.7065 79.225C53.7065 79.3583 53.6782 79.4733 53.6215 79.57C53.5682 79.6633 53.5032 79.7367 53.4265 79.79C53.3532 79.8433 53.2865 79.8783 53.2265 79.895C53.3165 79.9217 53.4049 79.9683 53.4915 80.035C53.5782 80.0983 53.6499 80.1817 53.7065 80.285C53.7665 80.385 53.7965 80.5067 53.7965 80.65C53.7965 80.85 53.7482 81.0167 53.6515 81.15C53.5549 81.2833 53.4215 81.385 53.2515 81.455C53.0815 81.5217 52.8849 81.555 52.6615 81.555C52.4782 81.555 52.3149 81.5367 52.1715 81.5C52.0315 81.46 51.9215 81.41 51.8415 81.35C51.7615 81.29 51.7215 81.2267 51.7215 81.16C51.7215 81.1133 51.7332 81.0733 51.7565 81.04C51.7832 81.0067 51.8165 80.9783 51.8565 80.955C51.9432 81.0217 52.0482 81.0817 52.1715 81.135C52.2982 81.1883 52.4615 81.215 52.6615 81.215C52.8815 81.215 53.0599 81.1683 53.1965 81.075C53.3332 80.9783 53.4015 80.8333 53.4015 80.64C53.4015 80.47 53.3382 80.3333 53.2115 80.23C53.0849 80.1267 52.9015 80.075 52.6615 80.075H52.2465C52.2332 80.0583 52.2215 80.035 52.2115 80.005C52.2015 79.9717 52.1965 79.9383 52.1965 79.905C52.1965 79.8683 52.2015 79.835 52.2115 79.805C52.2215 79.775 52.2332 79.7517 52.2465 79.735H52.6265C52.8732 79.735 53.0482 79.69 53.1515 79.6C53.2582 79.5067 53.3115 79.385 53.3115 79.235C53.3115 79.0717 53.2515 78.9483 53.1315 78.865C53.0115 78.7783 52.8482 78.735 52.6415 78.735C52.4815 78.735 52.3399 78.76 52.2165 78.81C52.0965 78.8567 51.9965 78.9083 51.9165 78.965C51.8832 78.9483 51.8532 78.9217 51.8265 78.885C51.7999 78.8483 51.7865 78.8083 51.7865 78.765C51.7865 78.705 51.8249 78.6467 51.9015 78.59C51.9782 78.5333 52.0815 78.4867 52.2115 78.45C52.3415 78.4133 52.4865 78.395 52.6465 78.395ZM55.5458 81.565C55.3125 81.565 55.1058 81.5083 54.9258 81.395C54.7492 81.2783 54.6108 81.1033 54.5108 80.87C54.4108 80.6333 54.3608 80.3367 54.3608 79.98C54.3608 79.5967 54.4175 79.29 54.5308 79.06C54.6442 78.83 54.7908 78.6633 54.9708 78.56C55.1508 78.4533 55.3425 78.4 55.5458 78.4C55.7525 78.4 55.9458 78.4533 56.1258 78.56C56.3092 78.6667 56.4558 78.8367 56.5658 79.07C56.6792 79.3 56.7358 79.6033 56.7358 79.98C56.7358 80.3333 56.6858 80.6283 56.5858 80.865C56.4858 81.0983 56.3458 81.2733 56.1658 81.39C55.9892 81.5067 55.7825 81.565 55.5458 81.565ZM55.5458 81.225C55.7925 81.225 55.9842 81.1183 56.1208 80.905C56.2575 80.6883 56.3258 80.38 56.3258 79.98C56.3258 79.6833 56.2892 79.445 56.2158 79.265C56.1458 79.0817 56.0525 78.9483 55.9358 78.865C55.8192 78.7817 55.6892 78.74 55.5458 78.74C55.4058 78.74 55.2758 78.7833 55.1558 78.87C55.0392 78.9533 54.9458 79.0867 54.8758 79.27C54.8058 79.4533 54.7708 79.69 54.7708 79.98C54.7708 80.38 54.8392 80.6883 54.9758 80.905C55.1125 81.1183 55.3025 81.225 55.5458 81.225Z" fill="#A73C4C"/>
<path d="M28.02 80.38H27.615V78.85L26.975 79.15C26.9317 79.1333 26.895 79.1083 26.865 79.075C26.8383 79.0417 26.825 79 26.825 78.95C26.825 78.8533 26.885 78.78 27.005 78.73L27.705 78.425H27.8C27.8667 78.425 27.92 78.445 27.96 78.485C28 78.525 28.02 78.5783 28.02 78.645V80.38ZM27.615 80.18H28.02V81.505C28 81.5117 27.9733 81.5183 27.94 81.525C27.9067 81.535 27.87 81.54 27.83 81.54C27.76 81.54 27.7067 81.525 27.67 81.495C27.6333 81.465 27.615 81.4183 27.615 81.355V80.18ZM29.6465 78.395C29.9632 78.395 30.2182 78.465 30.4115 78.605C30.6082 78.7417 30.7065 78.9483 30.7065 79.225C30.7065 79.3583 30.6782 79.4733 30.6215 79.57C30.5682 79.6633 30.5032 79.7367 30.4265 79.79C30.3532 79.8433 30.2865 79.8783 30.2265 79.895C30.3165 79.9217 30.4049 79.9683 30.4915 80.035C30.5782 80.0983 30.6499 80.1817 30.7065 80.285C30.7665 80.385 30.7965 80.5067 30.7965 80.65C30.7965 80.85 30.7482 81.0167 30.6515 81.15C30.5549 81.2833 30.4215 81.385 30.2515 81.455C30.0815 81.5217 29.8849 81.555 29.6615 81.555C29.4782 81.555 29.3149 81.5367 29.1715 81.5C29.0315 81.46 28.9215 81.41 28.8415 81.35C28.7615 81.29 28.7215 81.2267 28.7215 81.16C28.7215 81.1133 28.7332 81.0733 28.7565 81.04C28.7832 81.0067 28.8165 80.9783 28.8565 80.955C28.9432 81.0217 29.0482 81.0817 29.1715 81.135C29.2982 81.1883 29.4615 81.215 29.6615 81.215C29.8815 81.215 30.0599 81.1683 30.1965 81.075C30.3332 80.9783 30.4015 80.8333 30.4015 80.64C30.4015 80.47 30.3382 80.3333 30.2115 80.23C30.0849 80.1267 29.9015 80.075 29.6615 80.075H29.2465C29.2332 80.0583 29.2215 80.035 29.2115 80.005C29.2015 79.9717 29.1965 79.9383 29.1965 79.905C29.1965 79.8683 29.2015 79.835 29.2115 79.805C29.2215 79.775 29.2332 79.7517 29.2465 79.735H29.6265C29.8732 79.735 30.0482 79.69 30.1515 79.6C30.2582 79.5067 30.3115 79.385 30.3115 79.235C30.3115 79.0717 30.2515 78.9483 30.1315 78.865C30.0115 78.7783 29.8482 78.735 29.6415 78.735C29.4815 78.735 29.3399 78.76 29.2165 78.81C29.0965 78.8567 28.9965 78.9083 28.9165 78.965C28.8832 78.9483 28.8532 78.9217 28.8265 78.885C28.7999 78.8483 28.7865 78.8083 28.7865 78.765C28.7865 78.705 28.8249 78.6467 28.9015 78.59C28.9782 78.5333 29.0815 78.4867 29.2115 78.45C29.3415 78.4133 29.4865 78.395 29.6465 78.395ZM32.3608 80.38H31.9558V78.85L31.3158 79.15C31.2725 79.1333 31.2358 79.1083 31.2058 79.075C31.1792 79.0417 31.1658 79 31.1658 78.95C31.1658 78.8533 31.2258 78.78 31.3458 78.73L32.0458 78.425H32.1408C32.2075 78.425 32.2608 78.445 32.3008 78.485C32.3408 78.525 32.3608 78.5783 32.3608 78.645V80.38ZM31.9558 80.18H32.3608V81.505C32.3408 81.5117 32.3142 81.5183 32.2808 81.525C32.2475 81.535 32.2108 81.54 32.1708 81.54C32.1008 81.54 32.0475 81.525 32.0108 81.495C31.9742 81.465 31.9558 81.4183 31.9558 81.355V80.18Z" fill="#A73C4C"/>
<path d="M24.766 69.604H24.442V68.38L23.93 68.62C23.8953 68.6067 23.866 68.5867 23.842 68.56C23.8207 68.5333 23.81 68.5 23.81 68.46C23.81 68.3827 23.858 68.324 23.954 68.284L24.514 68.04H24.59C24.6433 68.04 24.686 68.056 24.718 68.088C24.75 68.12 24.766 68.1627 24.766 68.216V69.604ZM24.442 69.444H24.766V70.504C24.75 70.5093 24.7287 70.5147 24.702 70.52C24.6753 70.528 24.646 70.532 24.614 70.532C24.558 70.532 24.5153 70.52 24.486 70.496C24.4567 70.472 24.442 70.4347 24.442 70.384V69.444ZM26.0672 68.016C26.3206 68.016 26.5246 68.072 26.6792 68.184C26.8366 68.2933 26.9152 68.4587 26.9152 68.68C26.9152 68.7867 26.8926 68.8787 26.8472 68.956C26.8046 69.0307 26.7526 69.0893 26.6912 69.132C26.6326 69.1747 26.5792 69.2027 26.5312 69.216C26.6032 69.2373 26.6739 69.2747 26.7432 69.328C26.8126 69.3787 26.8699 69.4453 26.9152 69.528C26.9632 69.608 26.9872 69.7053 26.9872 69.82C26.9872 69.98 26.9486 70.1133 26.8712 70.22C26.7939 70.3267 26.6872 70.408 26.5512 70.464C26.4152 70.5173 26.2579 70.544 26.0792 70.544C25.9326 70.544 25.8019 70.5293 25.6872 70.5C25.5752 70.468 25.4872 70.428 25.4232 70.38C25.3592 70.332 25.3272 70.2813 25.3272 70.228C25.3272 70.1907 25.3366 70.1587 25.3552 70.132C25.3766 70.1053 25.4032 70.0827 25.4352 70.064C25.5046 70.1173 25.5886 70.1653 25.6872 70.208C25.7886 70.2507 25.9192 70.272 26.0792 70.272C26.2552 70.272 26.3979 70.2347 26.5072 70.16C26.6166 70.0827 26.6712 69.9667 26.6712 69.812C26.6712 69.676 26.6206 69.5667 26.5192 69.484C26.4179 69.4013 26.2712 69.36 26.0792 69.36H25.7472C25.7366 69.3467 25.7272 69.328 25.7192 69.304C25.7112 69.2773 25.7072 69.2507 25.7072 69.224C25.7072 69.1947 25.7112 69.168 25.7192 69.144C25.7272 69.12 25.7366 69.1013 25.7472 69.088H26.0512C26.2486 69.088 26.3886 69.052 26.4712 68.98C26.5566 68.9053 26.5992 68.808 26.5992 68.688C26.5992 68.5573 26.5512 68.4587 26.4552 68.392C26.3592 68.3227 26.2286 68.288 26.0632 68.288C25.9352 68.288 25.8219 68.308 25.7232 68.348C25.6272 68.3853 25.5472 68.4267 25.4832 68.472C25.4566 68.4587 25.4326 68.4373 25.4112 68.408C25.3899 68.3787 25.3792 68.3467 25.3792 68.312C25.3792 68.264 25.4099 68.2173 25.4712 68.172C25.5326 68.1267 25.6152 68.0893 25.7192 68.06C25.8232 68.0307 25.9392 68.016 26.0672 68.016ZM27.4507 68.32C27.4507 68.272 27.4813 68.2253 27.5427 68.18C27.604 68.132 27.6867 68.0933 27.7907 68.064C27.8947 68.0347 28.008 68.02 28.1307 68.02C28.3013 68.02 28.448 68.0493 28.5707 68.108C28.6933 68.164 28.788 68.244 28.8547 68.348C28.9213 68.452 28.9547 68.5747 28.9547 68.716C28.9547 68.8627 28.9133 69.0067 28.8307 69.148C28.7507 69.2893 28.612 69.4507 28.4147 69.632L27.7627 70.236H28.9507C28.9613 70.2467 28.9707 70.264 28.9787 70.288C28.9867 70.3093 28.9907 70.3347 28.9907 70.364C28.9907 70.4067 28.9787 70.44 28.9547 70.464C28.9333 70.488 28.904 70.5 28.8667 70.5H27.4547C27.428 70.4813 27.408 70.4587 27.3947 70.432C27.3813 70.4027 27.3747 70.372 27.3747 70.34C27.3747 70.2973 27.3827 70.26 27.3987 70.228C27.4147 70.1933 27.4387 70.1613 27.4707 70.132L28.1907 69.44C28.356 69.2853 28.4693 69.156 28.5307 69.052C28.592 68.9453 28.6227 68.8347 28.6227 68.72C28.6227 68.5947 28.58 68.492 28.4947 68.412C28.4093 68.332 28.28 68.292 28.1067 68.292C27.9893 68.292 27.884 68.312 27.7907 68.352C27.7 68.392 27.624 68.4347 27.5627 68.48C27.5333 68.4667 27.5067 68.4467 27.4827 68.42C27.4613 68.3933 27.4507 68.36 27.4507 68.32Z" fill="#A73C4C"/>
<path d="M51.02 26.38H50.615V24.85L49.975 25.15C49.9317 25.1333 49.895 25.1083 49.865 25.075C49.8383 25.0417 49.825 25 49.825 24.95C49.825 24.8533 49.885 24.78 50.005 24.73L50.705 24.425H50.8C50.8667 24.425 50.92 24.445 50.96 24.485C51 24.525 51.02 24.5783 51.02 24.645V26.38ZM50.615 26.18H51.02V27.505C51 27.5117 50.9733 27.5183 50.94 27.525C50.9067 27.535 50.87 27.54 50.83 27.54C50.76 27.54 50.7067 27.525 50.67 27.495C50.6333 27.465 50.615 27.4183 50.615 27.355V26.18ZM51.8709 24.775C51.8709 24.715 51.9093 24.6567 51.9859 24.6C52.0626 24.54 52.1659 24.4917 52.2959 24.455C52.4259 24.4183 52.5676 24.4 52.7209 24.4C52.9343 24.4 53.1176 24.4367 53.2709 24.51C53.4243 24.58 53.5426 24.68 53.6259 24.81C53.7093 24.94 53.7509 25.0933 53.7509 25.27C53.7509 25.4533 53.6993 25.6333 53.5959 25.81C53.4959 25.9867 53.3226 26.1883 53.0759 26.415L52.2609 27.17H53.7459C53.7593 27.1833 53.7709 27.205 53.7809 27.235C53.7909 27.2617 53.7959 27.2933 53.7959 27.33C53.7959 27.3833 53.7809 27.425 53.7509 27.455C53.7243 27.485 53.6876 27.5 53.6409 27.5H51.8759C51.8426 27.4767 51.8176 27.4483 51.8009 27.415C51.7843 27.3783 51.7759 27.34 51.7759 27.3C51.7759 27.2467 51.7859 27.2 51.8059 27.16C51.8259 27.1167 51.8559 27.0767 51.8959 27.04L52.7959 26.175C53.0026 25.9817 53.1443 25.82 53.2209 25.69C53.2976 25.5567 53.3359 25.4183 53.3359 25.275C53.3359 25.1183 53.2826 24.99 53.1759 24.89C53.0693 24.79 52.9076 24.74 52.6909 24.74C52.5443 24.74 52.4126 24.765 52.2959 24.815C52.1826 24.865 52.0876 24.9183 52.0109 24.975C51.9743 24.9583 51.9409 24.9333 51.9109 24.9C51.8843 24.8667 51.8709 24.825 51.8709 24.775ZM56.3512 24.695C56.3512 24.735 56.3395 24.7733 56.3162 24.81C56.2962 24.8433 56.2695 24.8683 56.2362 24.885C56.1628 24.8483 56.0795 24.8167 55.9862 24.79C55.8962 24.76 55.7978 24.745 55.6912 24.745C55.4312 24.745 55.2112 24.8383 55.0312 25.025C54.8545 25.2117 54.7612 25.5033 54.7512 25.9C54.8178 25.8333 54.9195 25.7633 55.0562 25.69C55.1962 25.6133 55.3678 25.575 55.5712 25.575C55.8645 25.575 56.1062 25.6583 56.2962 25.825C56.4862 25.9917 56.5812 26.2383 56.5812 26.565C56.5812 26.7717 56.5362 26.95 56.4462 27.1C56.3595 27.25 56.2362 27.365 56.0762 27.445C55.9195 27.525 55.7328 27.565 55.5162 27.565C55.2928 27.565 55.0928 27.515 54.9162 27.415C54.7395 27.3117 54.5995 27.1517 54.4962 26.935C54.3962 26.715 54.3462 26.4283 54.3462 26.075C54.3462 25.7617 54.3828 25.4983 54.4562 25.285C54.5328 25.0683 54.6345 24.8967 54.7612 24.77C54.8878 24.64 55.0312 24.5467 55.1912 24.49C55.3512 24.43 55.5145 24.4 55.6812 24.4C55.7978 24.4 55.9062 24.4117 56.0062 24.435C56.1095 24.4583 56.1928 24.4917 56.2562 24.535C56.3195 24.5783 56.3512 24.6317 56.3512 24.695ZM55.5162 27.23C55.7095 27.23 55.8678 27.1717 55.9912 27.055C56.1145 26.935 56.1762 26.7683 56.1762 26.555C56.1762 26.3383 56.1128 26.1783 55.9862 26.075C55.8628 25.9683 55.7095 25.915 55.5262 25.915C55.3428 25.915 55.1845 25.955 55.0512 26.035C54.9178 26.1117 54.8128 26.205 54.7362 26.315L54.7512 26.28C54.7512 26.5633 54.8178 26.7933 54.9512 26.97C55.0845 27.1433 55.2728 27.23 55.5162 27.23Z" fill="#A73C4C"/>
</svg>
