<svg width="63" height="96" viewBox="0 0 63 96" fill="none" xmlns="http://www.w3.org/2000/svg">
<path d="M0.5 10.8808V0.25H22.5V10.8808H62.3516V94.75H0.5V10.8808Z" fill="white"/>
<path d="M0.25 0.25L0.25 11.25" stroke="#A73C4C" stroke-width="0.5"/>
<path d="M22.75 0.25L0 0.25" stroke="#A73C4C" stroke-width="0.5"/>
<path d="M22.5 17.25L0 17.25" stroke="#A73C4C" stroke-width="0.5"/>
<path d="M22.5 30.75L0 30.75" stroke="#A73C4C" stroke-width="0.5"/>
<path d="M22.5 43.75L0 43.75" stroke="#A73C4C" stroke-width="0.5"/>
<path d="M22.5 65.75H21" stroke="#A73C4C" stroke-width="0.5"/>
<path d="M1.7406 65.75H3.52859e-05" stroke="#A73C4C" stroke-width="0.5"/>
<path d="M22.5 87.75H0" stroke="#A73C4C" stroke-width="0.5"/>
<path d="M22.5 94.75L22.5 72.5977" stroke="#A73C4C" stroke-width="0.5"/>
<path d="M22.5 68.25V59.3302" stroke="#A73C4C" stroke-width="0.5"/>
<path d="M22.5 54.9609L22.5 37.3246" stroke="#A73C4C" stroke-width="0.5"/>
<path d="M22.5 68.25V59.3302" stroke="#A73C4C" stroke-width="0.5"/>
<path d="M22.5 32.901V23.9792" stroke="#A73C4C" stroke-width="0.5"/>
<path d="M40 30.75L40 10.75" stroke="#A73C4C" stroke-width="0.5"/>
<path d="M51.5 30.75L51.5 10.75" stroke="#A73C4C" stroke-width="0.5"/>
<path d="M29 88.25L29 37.2499" stroke="#A73C4C" stroke-width="0.5"/>
<path d="M40 89.4414L40 48.3613" stroke="#A73C4C" stroke-width="0.5"/>
<path d="M40 44.0615V37.2501" stroke="#A73C4C" stroke-width="0.5"/>
<path d="M28.7557 37.25H42.2812" stroke="#A73C4C" stroke-width="0.5"/>
<path d="M46.6836 37.25H62.5" stroke="#A73C4C" stroke-width="0.5"/>
<path d="M48.8867 30.75L62.5 30.75" stroke="#A73C4C" stroke-width="0.5"/>
<path d="M28.9153 30.75L44.5 30.75" stroke="#A73C4C" stroke-width="0.5"/>
<path d="M40 66.25H62.5" stroke="#A73C4C" stroke-width="0.5"/>
<path d="M40 88.25H28.7593" stroke="#A73C4C" stroke-width="0.5"/>
<path d="M40 94.75V92.75" stroke="#A73C4C" stroke-width="0.5"/>
<path d="M28.6279 89.4593L29 88.25" stroke="#A73C4C" stroke-width="0.5"/>
<path d="M27 94.75L27.5753 92.8801" stroke="#A73C4C" stroke-width="0.5"/>
<path d="M22.5 11.25L22.5 0.25" stroke="#A73C4C" stroke-width="0.5"/>
<path d="M22.5 19.6745V10.75" stroke="#A73C4C" stroke-width="0.5"/>
<path d="M29.1 19.6746V10.75" stroke="#A73C4C" stroke-width="0.5"/>
<path d="M29.1 31.0027V24.0928" stroke="#A73C4C" stroke-width="0.5"/>
<path d="M62.2373 11V94.7852H0.25V11H62.2373Z" stroke="#A73C4C" stroke-width="0.5"/>
<path d="M8.285 23.025C8.285 22.965 8.32333 22.9067 8.4 22.85C8.47667 22.79 8.58 22.7417 8.71 22.705C8.84 22.6683 8.98167 22.65 9.135 22.65C9.34833 22.65 9.53167 22.6867 9.685 22.76C9.83833 22.83 9.95667 22.93 10.04 23.06C10.1233 23.19 10.165 23.3433 10.165 23.52C10.165 23.7033 10.1133 23.8833 10.01 24.06C9.91 24.2367 9.73667 24.4383 9.49 24.665L8.675 25.42H10.16C10.1733 25.4333 10.185 25.455 10.195 25.485C10.205 25.5117 10.21 25.5433 10.21 25.58C10.21 25.6333 10.195 25.675 10.165 25.705C10.1383 25.735 10.1017 25.75 10.055 25.75H8.29C8.25667 25.7267 8.23167 25.6983 8.215 25.665C8.19833 25.6283 8.19 25.59 8.19 25.55C8.19 25.4967 8.2 25.45 8.22 25.41C8.24 25.3667 8.27 25.3267 8.31 25.29L9.21 24.425C9.41667 24.2317 9.55833 24.07 9.635 23.94C9.71167 23.8067 9.75 23.6683 9.75 23.525C9.75 23.3683 9.69667 23.24 9.59 23.14C9.48333 23.04 9.32167 22.99 9.105 22.99C8.95833 22.99 8.82667 23.015 8.71 23.065C8.59667 23.115 8.50167 23.1683 8.425 23.225C8.38833 23.2083 8.355 23.1833 8.325 23.15C8.29833 23.1167 8.285 23.075 8.285 23.025ZM10.8241 23.025C10.8241 22.965 10.8624 22.9067 10.9391 22.85C11.0157 22.79 11.1191 22.7417 11.2491 22.705C11.3791 22.6683 11.5207 22.65 11.6741 22.65C11.8874 22.65 12.0707 22.6867 12.2241 22.76C12.3774 22.83 12.4957 22.93 12.5791 23.06C12.6624 23.19 12.7041 23.3433 12.7041 23.52C12.7041 23.7033 12.6524 23.8833 12.5491 24.06C12.4491 24.2367 12.2757 24.4383 12.0291 24.665L11.2141 25.42H12.6991C12.7124 25.4333 12.7241 25.455 12.7341 25.485C12.7441 25.5117 12.7491 25.5433 12.7491 25.58C12.7491 25.6333 12.7341 25.675 12.7041 25.705C12.6774 25.735 12.6407 25.75 12.5941 25.75H10.8291C10.7957 25.7267 10.7707 25.6983 10.7541 25.665C10.7374 25.6283 10.7291 25.59 10.7291 25.55C10.7291 25.4967 10.7391 25.45 10.7591 25.41C10.7791 25.3667 10.8091 25.3267 10.8491 25.29L11.7491 24.425C11.9557 24.2317 12.0974 24.07 12.1741 23.94C12.2507 23.8067 12.2891 23.6683 12.2891 23.525C12.2891 23.3683 12.2357 23.24 12.1291 23.14C12.0224 23.04 11.8607 22.99 11.6441 22.99C11.4974 22.99 11.3657 23.015 11.2491 23.065C11.1357 23.115 11.0407 23.1683 10.9641 23.225C10.9274 23.2083 10.8941 23.1833 10.8641 23.15C10.8374 23.1167 10.8241 23.075 10.8241 23.025ZM14.1631 22.645C14.4798 22.645 14.7348 22.715 14.9281 22.855C15.1248 22.9917 15.2231 23.1983 15.2231 23.475C15.2231 23.6083 15.1948 23.7233 15.1381 23.82C15.0848 23.9133 15.0198 23.9867 14.9431 24.04C14.8698 24.0933 14.8031 24.1283 14.7431 24.145C14.8331 24.1717 14.9215 24.2183 15.0081 24.285C15.0948 24.3483 15.1665 24.4317 15.2231 24.535C15.2831 24.635 15.3131 24.7567 15.3131 24.9C15.3131 25.1 15.2648 25.2667 15.1681 25.4C15.0715 25.5333 14.9381 25.635 14.7681 25.705C14.5981 25.7717 14.4015 25.805 14.1781 25.805C13.9948 25.805 13.8315 25.7867 13.6881 25.75C13.5481 25.71 13.4381 25.66 13.3581 25.6C13.2781 25.54 13.2381 25.4767 13.2381 25.41C13.2381 25.3633 13.2498 25.3233 13.2731 25.29C13.2998 25.2567 13.3331 25.2283 13.3731 25.205C13.4598 25.2717 13.5648 25.3317 13.6881 25.385C13.8148 25.4383 13.9781 25.465 14.1781 25.465C14.3981 25.465 14.5765 25.4183 14.7131 25.325C14.8498 25.2283 14.9181 25.0833 14.9181 24.89C14.9181 24.72 14.8548 24.5833 14.7281 24.48C14.6015 24.3767 14.4181 24.325 14.1781 24.325H13.7631C13.7498 24.3083 13.7381 24.285 13.7281 24.255C13.7181 24.2217 13.7131 24.1883 13.7131 24.155C13.7131 24.1183 13.7181 24.085 13.7281 24.055C13.7381 24.025 13.7498 24.0017 13.7631 23.985H14.1431C14.3898 23.985 14.5648 23.94 14.6681 23.85C14.7748 23.7567 14.8281 23.635 14.8281 23.485C14.8281 23.3217 14.7681 23.1983 14.6481 23.115C14.5281 23.0283 14.3648 22.985 14.1581 22.985C13.9981 22.985 13.8565 23.01 13.7331 23.06C13.6131 23.1067 13.5131 23.1583 13.4331 23.215C13.3998 23.1983 13.3698 23.1717 13.3431 23.135C13.3165 23.0983 13.3031 23.0583 13.3031 23.015C13.3031 22.955 13.3415 22.8967 13.4181 22.84C13.4948 22.7833 13.5981 22.7367 13.7281 22.7C13.8581 22.6633 14.0031 22.645 14.1631 22.645Z" fill="#A73C4C"/>
<path d="M8.285 64.025C8.285 63.965 8.32333 63.9067 8.4 63.85C8.47667 63.79 8.58 63.7417 8.71 63.705C8.84 63.6683 8.98167 63.65 9.135 63.65C9.34833 63.65 9.53167 63.6867 9.685 63.76C9.83833 63.83 9.95667 63.93 10.04 64.06C10.1233 64.19 10.165 64.3433 10.165 64.52C10.165 64.7033 10.1133 64.8833 10.01 65.06C9.91 65.2367 9.73667 65.4383 9.49 65.665L8.675 66.42H10.16C10.1733 66.4333 10.185 66.455 10.195 66.485C10.205 66.5117 10.21 66.5433 10.21 66.58C10.21 66.6333 10.195 66.675 10.165 66.705C10.1383 66.735 10.1017 66.75 10.055 66.75H8.29C8.25667 66.7267 8.23167 66.6983 8.215 66.665C8.19833 66.6283 8.19 66.59 8.19 66.55C8.19 66.4967 8.2 66.45 8.22 66.41C8.24 66.3667 8.27 66.3267 8.31 66.29L9.21 65.425C9.41667 65.2317 9.55833 65.07 9.635 64.94C9.71167 64.8067 9.75 64.6683 9.75 64.525C9.75 64.3683 9.69667 64.24 9.59 64.14C9.48333 64.04 9.32167 63.99 9.105 63.99C8.95833 63.99 8.82667 64.015 8.71 64.065C8.59667 64.115 8.50167 64.1683 8.425 64.225C8.38833 64.2083 8.355 64.1833 8.325 64.15C8.29833 64.1167 8.285 64.075 8.285 64.025ZM10.8241 64.025C10.8241 63.965 10.8624 63.9067 10.9391 63.85C11.0157 63.79 11.1191 63.7417 11.2491 63.705C11.3791 63.6683 11.5207 63.65 11.6741 63.65C11.8874 63.65 12.0707 63.6867 12.2241 63.76C12.3774 63.83 12.4957 63.93 12.5791 64.06C12.6624 64.19 12.7041 64.3433 12.7041 64.52C12.7041 64.7033 12.6524 64.8833 12.5491 65.06C12.4491 65.2367 12.2757 65.4383 12.0291 65.665L11.2141 66.42H12.6991C12.7124 66.4333 12.7241 66.455 12.7341 66.485C12.7441 66.5117 12.7491 66.5433 12.7491 66.58C12.7491 66.6333 12.7341 66.675 12.7041 66.705C12.6774 66.735 12.6407 66.75 12.5941 66.75H10.8291C10.7957 66.7267 10.7707 66.6983 10.7541 66.665C10.7374 66.6283 10.7291 66.59 10.7291 66.55C10.7291 66.4967 10.7391 66.45 10.7591 66.41C10.7791 66.3667 10.8091 66.3267 10.8491 66.29L11.7491 65.425C11.9557 65.2317 12.0974 65.07 12.1741 64.94C12.2507 64.8067 12.2891 64.6683 12.2891 64.525C12.2891 64.3683 12.2357 64.24 12.1291 64.14C12.0224 64.04 11.8607 63.99 11.6441 63.99C11.4974 63.99 11.3657 64.015 11.2491 64.065C11.1357 64.115 11.0407 64.1683 10.9641 64.225C10.9274 64.2083 10.8941 64.1833 10.8641 64.15C10.8374 64.1167 10.8241 64.075 10.8241 64.025ZM13.9761 63.71L13.8411 64.005L13.7561 64.95C13.8127 64.92 13.8911 64.8917 13.9911 64.865C14.0944 64.835 14.2027 64.82 14.3161 64.82C14.5161 64.82 14.6961 64.8583 14.8561 64.935C15.0161 65.0083 15.1427 65.1183 15.2361 65.265C15.3327 65.4083 15.3811 65.5867 15.3811 65.8C15.3811 65.9933 15.3361 66.1667 15.2461 66.32C15.1594 66.4733 15.0311 66.595 14.8611 66.685C14.6944 66.7717 14.4894 66.815 14.2461 66.815C14.0561 66.815 13.8894 66.7933 13.7461 66.75C13.6027 66.7067 13.4911 66.6533 13.4111 66.59C13.3311 66.5267 13.2911 66.465 13.2911 66.405C13.2911 66.3517 13.3077 66.305 13.3411 66.265C13.3777 66.225 13.4144 66.1983 13.4511 66.185C13.5244 66.2483 13.6277 66.3133 13.7611 66.38C13.8944 66.4467 14.0561 66.48 14.2461 66.48C14.4761 66.48 14.6544 66.4167 14.7811 66.29C14.9077 66.16 14.9711 65.9967 14.9711 65.8C14.9711 65.5967 14.9061 65.4383 14.7761 65.325C14.6461 65.2117 14.4761 65.155 14.2661 65.155C14.1494 65.155 14.0427 65.1733 13.9461 65.21C13.8494 65.2467 13.7594 65.2883 13.6761 65.335C13.5861 65.3283 13.5127 65.3017 13.4561 65.255C13.4027 65.205 13.3761 65.1417 13.3761 65.065C13.3761 65.045 13.3761 65.02 13.3761 64.99C13.3794 64.9567 13.3827 64.925 13.3861 64.895L13.4711 63.94C13.4777 63.87 13.4994 63.815 13.5361 63.775C13.5727 63.7317 13.6261 63.71 13.6961 63.71H13.9761ZM13.7661 64.05V63.71H15.2261C15.2361 63.7233 15.2461 63.745 15.2561 63.775C15.2661 63.805 15.2711 63.8367 15.2711 63.87C15.2711 63.9233 15.2577 63.9667 15.2311 64C15.2044 64.0333 15.1661 64.05 15.1161 64.05H13.7661Z" fill="#A73C4C"/>
<path d="M8.285 36.025C8.285 35.965 8.32333 35.9067 8.4 35.85C8.47667 35.79 8.58 35.7417 8.71 35.705C8.84 35.6683 8.98167 35.65 9.135 35.65C9.34833 35.65 9.53167 35.6867 9.685 35.76C9.83833 35.83 9.95667 35.93 10.04 36.06C10.1233 36.19 10.165 36.3433 10.165 36.52C10.165 36.7033 10.1133 36.8833 10.01 37.06C9.91 37.2367 9.73667 37.4383 9.49 37.665L8.675 38.42H10.16C10.1733 38.4333 10.185 38.455 10.195 38.485C10.205 38.5117 10.21 38.5433 10.21 38.58C10.21 38.6333 10.195 38.675 10.165 38.705C10.1383 38.735 10.1017 38.75 10.055 38.75H8.29C8.25667 38.7267 8.23167 38.6983 8.215 38.665C8.19833 38.6283 8.19 38.59 8.19 38.55C8.19 38.4967 8.2 38.45 8.22 38.41C8.24 38.3667 8.27 38.3267 8.31 38.29L9.21 37.425C9.41667 37.2317 9.55833 37.07 9.635 36.94C9.71167 36.8067 9.75 36.6683 9.75 36.525C9.75 36.3683 9.69667 36.24 9.59 36.14C9.48333 36.04 9.32167 35.99 9.105 35.99C8.95833 35.99 8.82667 36.015 8.71 36.065C8.59667 36.115 8.50167 36.1683 8.425 36.225C8.38833 36.2083 8.355 36.1833 8.325 36.15C8.29833 36.1167 8.285 36.075 8.285 36.025ZM10.8241 36.025C10.8241 35.965 10.8624 35.9067 10.9391 35.85C11.0157 35.79 11.1191 35.7417 11.2491 35.705C11.3791 35.6683 11.5207 35.65 11.6741 35.65C11.8874 35.65 12.0707 35.6867 12.2241 35.76C12.3774 35.83 12.4957 35.93 12.5791 36.06C12.6624 36.19 12.7041 36.3433 12.7041 36.52C12.7041 36.7033 12.6524 36.8833 12.5491 37.06C12.4491 37.2367 12.2757 37.4383 12.0291 37.665L11.2141 38.42H12.6991C12.7124 38.4333 12.7241 38.455 12.7341 38.485C12.7441 38.5117 12.7491 38.5433 12.7491 38.58C12.7491 38.6333 12.7341 38.675 12.7041 38.705C12.6774 38.735 12.6407 38.75 12.5941 38.75H10.8291C10.7957 38.7267 10.7707 38.6983 10.7541 38.665C10.7374 38.6283 10.7291 38.59 10.7291 38.55C10.7291 38.4967 10.7391 38.45 10.7591 38.41C10.7791 38.3667 10.8091 38.3267 10.8491 38.29L11.7491 37.425C11.9557 37.2317 12.0974 37.07 12.1741 36.94C12.2507 36.8067 12.2891 36.6683 12.2891 36.525C12.2891 36.3683 12.2357 36.24 12.1291 36.14C12.0224 36.04 11.8607 35.99 11.6441 35.99C11.4974 35.99 11.3657 36.015 11.2491 36.065C11.1357 36.115 11.0407 36.1683 10.9641 36.225C10.9274 36.2083 10.8941 36.1833 10.8641 36.15C10.8374 36.1167 10.8241 36.075 10.8241 36.025ZM13.1454 37.635L14.6004 35.705C14.6304 35.6983 14.6637 35.6933 14.7004 35.69C14.7404 35.6833 14.7754 35.68 14.8054 35.68C14.852 35.68 14.8954 35.6867 14.9354 35.7C14.9787 35.7133 15.0137 35.7383 15.0404 35.775C15.067 35.8083 15.0804 35.8583 15.0804 35.925V37.675H15.5804C15.5904 37.6917 15.6004 37.715 15.6104 37.745C15.6204 37.7717 15.6254 37.8033 15.6254 37.84C15.6254 37.8933 15.612 37.935 15.5854 37.965C15.5587 37.995 15.5204 38.01 15.4704 38.01H15.0804V38.76C15.0637 38.7633 15.0387 38.7683 15.0054 38.775C14.9754 38.785 14.942 38.79 14.9054 38.79C14.8354 38.79 14.782 38.775 14.7454 38.745C14.7087 38.715 14.6904 38.6717 14.6904 38.615V38.01H13.2454C13.212 37.9933 13.182 37.9633 13.1554 37.92C13.132 37.8767 13.1204 37.8283 13.1204 37.775C13.1204 37.745 13.122 37.72 13.1254 37.7C13.132 37.6767 13.1387 37.655 13.1454 37.635ZM14.6954 37.675L14.7054 36.1H14.6954L13.5854 37.675H14.6954Z" fill="#A73C4C"/>
<path d="M31.285 20.025C31.285 19.965 31.3233 19.9067 31.4 19.85C31.4767 19.79 31.58 19.7417 31.71 19.705C31.84 19.6683 31.9817 19.65 32.135 19.65C32.3483 19.65 32.5317 19.6867 32.685 19.76C32.8383 19.83 32.9567 19.93 33.04 20.06C33.1233 20.19 33.165 20.3433 33.165 20.52C33.165 20.7033 33.1133 20.8833 33.01 21.06C32.91 21.2367 32.7367 21.4383 32.49 21.665L31.675 22.42H33.16C33.1733 22.4333 33.185 22.455 33.195 22.485C33.205 22.5117 33.21 22.5433 33.21 22.58C33.21 22.6333 33.195 22.675 33.165 22.705C33.1383 22.735 33.1017 22.75 33.055 22.75H31.29C31.2567 22.7267 31.2317 22.6983 31.215 22.665C31.1983 22.6283 31.19 22.59 31.19 22.55C31.19 22.4967 31.2 22.45 31.22 22.41C31.24 22.3667 31.27 22.3267 31.31 22.29L32.21 21.425C32.4167 21.2317 32.5583 21.07 32.635 20.94C32.7117 20.8067 32.75 20.6683 32.75 20.525C32.75 20.3683 32.6967 20.24 32.59 20.14C32.4833 20.04 32.3217 19.99 32.105 19.99C31.9583 19.99 31.8267 20.015 31.71 20.065C31.5967 20.115 31.5017 20.1683 31.425 20.225C31.3883 20.2083 31.355 20.1833 31.325 20.15C31.2983 20.1167 31.285 20.075 31.285 20.025ZM34.8091 21.63H34.4041V20.1L33.7641 20.4C33.7207 20.3833 33.6841 20.3583 33.6541 20.325C33.6274 20.2917 33.6141 20.25 33.6141 20.2C33.6141 20.1033 33.6741 20.03 33.7941 19.98L34.4941 19.675H34.5891C34.6557 19.675 34.7091 19.695 34.7491 19.735C34.7891 19.775 34.8091 19.8283 34.8091 19.895V21.63ZM34.4041 21.43H34.8091V22.755C34.7891 22.7617 34.7624 22.7683 34.7291 22.775C34.6957 22.785 34.6591 22.79 34.6191 22.79C34.5491 22.79 34.4957 22.775 34.4591 22.745C34.4224 22.715 34.4041 22.6683 34.4041 22.605V21.43ZM35.7655 22.505C35.7655 22.465 35.7755 22.4267 35.7955 22.39C35.8188 22.3533 35.8471 22.3267 35.8805 22.31C35.9438 22.3467 36.0255 22.3833 36.1255 22.42C36.2288 22.4533 36.3505 22.47 36.4905 22.47C36.6638 22.47 36.8221 22.4333 36.9655 22.36C37.1088 22.2867 37.2238 22.1667 37.3105 22C37.3971 21.83 37.4405 21.6067 37.4405 21.33C37.4105 21.3633 37.3605 21.405 37.2905 21.455C37.2238 21.5017 37.1388 21.5433 37.0355 21.58C36.9321 21.6167 36.8121 21.635 36.6755 21.635C36.4888 21.635 36.3138 21.6033 36.1505 21.54C35.9871 21.4733 35.8555 21.3683 35.7555 21.225C35.6588 21.0817 35.6105 20.8933 35.6105 20.66C35.6105 20.45 35.6571 20.27 35.7505 20.12C35.8438 19.9667 35.9705 19.85 36.1305 19.77C36.2905 19.69 36.4688 19.65 36.6655 19.65C36.8955 19.65 37.0988 19.7033 37.2755 19.81C37.4521 19.9133 37.5905 20.075 37.6905 20.295C37.7938 20.5117 37.8455 20.7917 37.8455 21.135C37.8455 21.5417 37.7888 21.8683 37.6755 22.115C37.5621 22.3617 37.4038 22.54 37.2005 22.65C37.0005 22.76 36.7655 22.815 36.4955 22.815C36.2955 22.815 36.1238 22.7883 35.9805 22.735C35.8371 22.6817 35.7655 22.605 35.7655 22.505ZM36.7305 21.3C36.9005 21.3 37.0505 21.2583 37.1805 21.175C37.3138 21.0883 37.4021 20.9933 37.4455 20.89L37.4405 20.945C37.4405 20.6483 37.3721 20.415 37.2355 20.245C37.1021 20.0717 36.9121 19.985 36.6655 19.985C36.4821 19.985 36.3271 20.045 36.2005 20.165C36.0771 20.2817 36.0155 20.4433 36.0155 20.65C36.0155 20.88 36.0855 21.0467 36.2255 21.15C36.3655 21.25 36.5338 21.3 36.7305 21.3Z" fill="#A73C4C"/>
<path d="M42.285 20.025C42.285 19.965 42.3233 19.9067 42.4 19.85C42.4767 19.79 42.58 19.7417 42.71 19.705C42.84 19.6683 42.9817 19.65 43.135 19.65C43.3483 19.65 43.5317 19.6867 43.685 19.76C43.8383 19.83 43.9567 19.93 44.04 20.06C44.1233 20.19 44.165 20.3433 44.165 20.52C44.165 20.7033 44.1133 20.8833 44.01 21.06C43.91 21.2367 43.7367 21.4383 43.49 21.665L42.675 22.42H44.16C44.1733 22.4333 44.185 22.455 44.195 22.485C44.205 22.5117 44.21 22.5433 44.21 22.58C44.21 22.6333 44.195 22.675 44.165 22.705C44.1383 22.735 44.1017 22.75 44.055 22.75H42.29C42.2567 22.7267 42.2317 22.6983 42.215 22.665C42.1983 22.6283 42.19 22.59 42.19 22.55C42.19 22.4967 42.2 22.45 42.22 22.41C42.24 22.3667 42.27 22.3267 42.31 22.29L43.21 21.425C43.4167 21.2317 43.5583 21.07 43.635 20.94C43.7117 20.8067 43.75 20.6683 43.75 20.525C43.75 20.3683 43.6967 20.24 43.59 20.14C43.4833 20.04 43.3217 19.99 43.105 19.99C42.9583 19.99 42.8267 20.015 42.71 20.065C42.5967 20.115 42.5017 20.1683 42.425 20.225C42.3883 20.2083 42.355 20.1833 42.325 20.15C42.2983 20.1167 42.285 20.075 42.285 20.025ZM44.8241 20.025C44.8241 19.965 44.8624 19.9067 44.9391 19.85C45.0157 19.79 45.1191 19.7417 45.2491 19.705C45.3791 19.6683 45.5207 19.65 45.6741 19.65C45.8874 19.65 46.0707 19.6867 46.2241 19.76C46.3774 19.83 46.4957 19.93 46.5791 20.06C46.6624 20.19 46.7041 20.3433 46.7041 20.52C46.7041 20.7033 46.6524 20.8833 46.5491 21.06C46.4491 21.2367 46.2757 21.4383 46.0291 21.665L45.2141 22.42H46.6991C46.7124 22.4333 46.7241 22.455 46.7341 22.485C46.7441 22.5117 46.7491 22.5433 46.7491 22.58C46.7491 22.6333 46.7341 22.675 46.7041 22.705C46.6774 22.735 46.6407 22.75 46.5941 22.75H44.8291C44.7957 22.7267 44.7707 22.6983 44.7541 22.665C44.7374 22.6283 44.7291 22.59 44.7291 22.55C44.7291 22.4967 44.7391 22.45 44.7591 22.41C44.7791 22.3667 44.8091 22.3267 44.8491 22.29L45.7491 21.425C45.9557 21.2317 46.0974 21.07 46.1741 20.94C46.2507 20.8067 46.2891 20.6683 46.2891 20.525C46.2891 20.3683 46.2357 20.24 46.1291 20.14C46.0224 20.04 45.8607 19.99 45.6441 19.99C45.4974 19.99 45.3657 20.015 45.2491 20.065C45.1357 20.115 45.0407 20.1683 44.9641 20.225C44.9274 20.2083 44.8941 20.1833 44.8641 20.15C44.8374 20.1167 44.8241 20.075 44.8241 20.025ZM48.4843 22.815C48.251 22.815 48.0443 22.7583 47.8643 22.645C47.6876 22.5283 47.5493 22.3533 47.4493 22.12C47.3493 21.8833 47.2993 21.5867 47.2993 21.23C47.2993 20.8467 47.356 20.54 47.4693 20.31C47.5826 20.08 47.7293 19.9133 47.9093 19.81C48.0893 19.7033 48.281 19.65 48.4843 19.65C48.691 19.65 48.8843 19.7033 49.0643 19.81C49.2476 19.9167 49.3943 20.0867 49.5043 20.32C49.6176 20.55 49.6743 20.8533 49.6743 21.23C49.6743 21.5833 49.6243 21.8783 49.5243 22.115C49.4243 22.3483 49.2843 22.5233 49.1043 22.64C48.9276 22.7567 48.721 22.815 48.4843 22.815ZM48.4843 22.475C48.731 22.475 48.9226 22.3683 49.0593 22.155C49.196 21.9383 49.2643 21.63 49.2643 21.23C49.2643 20.9333 49.2276 20.695 49.1543 20.515C49.0843 20.3317 48.991 20.1983 48.8743 20.115C48.7576 20.0317 48.6276 19.99 48.4843 19.99C48.3443 19.99 48.2143 20.0333 48.0943 20.12C47.9776 20.2033 47.8843 20.3367 47.8143 20.52C47.7443 20.7033 47.7093 20.94 47.7093 21.23C47.7093 21.63 47.7776 21.9383 47.9143 22.155C48.051 22.3683 48.241 22.475 48.4843 22.475Z" fill="#A73C4C"/>
<path d="M31.285 60.025C31.285 59.965 31.3233 59.9067 31.4 59.85C31.4767 59.79 31.58 59.7417 31.71 59.705C31.84 59.6683 31.9817 59.65 32.135 59.65C32.3483 59.65 32.5317 59.6867 32.685 59.76C32.8383 59.83 32.9567 59.93 33.04 60.06C33.1233 60.19 33.165 60.3433 33.165 60.52C33.165 60.7033 33.1133 60.8833 33.01 61.06C32.91 61.2367 32.7367 61.4383 32.49 61.665L31.675 62.42H33.16C33.1733 62.4333 33.185 62.455 33.195 62.485C33.205 62.5117 33.21 62.5433 33.21 62.58C33.21 62.6333 33.195 62.675 33.165 62.705C33.1383 62.735 33.1017 62.75 33.055 62.75H31.29C31.2567 62.7267 31.2317 62.6983 31.215 62.665C31.1983 62.6283 31.19 62.59 31.19 62.55C31.19 62.4967 31.2 62.45 31.22 62.41C31.24 62.3667 31.27 62.3267 31.31 62.29L32.21 61.425C32.4167 61.2317 32.5583 61.07 32.635 60.94C32.7117 60.8067 32.75 60.6683 32.75 60.525C32.75 60.3683 32.6967 60.24 32.59 60.14C32.4833 60.04 32.3217 59.99 32.105 59.99C31.9583 59.99 31.8267 60.015 31.71 60.065C31.5967 60.115 31.5017 60.1683 31.425 60.225C31.3883 60.2083 31.355 60.1833 31.325 60.15C31.2983 60.1167 31.285 60.075 31.285 60.025ZM33.8241 60.025C33.8241 59.965 33.8624 59.9067 33.9391 59.85C34.0157 59.79 34.1191 59.7417 34.2491 59.705C34.3791 59.6683 34.5207 59.65 34.6741 59.65C34.8874 59.65 35.0707 59.6867 35.2241 59.76C35.3774 59.83 35.4957 59.93 35.5791 60.06C35.6624 60.19 35.7041 60.3433 35.7041 60.52C35.7041 60.7033 35.6524 60.8833 35.5491 61.06C35.4491 61.2367 35.2757 61.4383 35.0291 61.665L34.2141 62.42H35.6991C35.7124 62.4333 35.7241 62.455 35.7341 62.485C35.7441 62.5117 35.7491 62.5433 35.7491 62.58C35.7491 62.6333 35.7341 62.675 35.7041 62.705C35.6774 62.735 35.6407 62.75 35.5941 62.75H33.8291C33.7957 62.7267 33.7707 62.6983 33.7541 62.665C33.7374 62.6283 33.7291 62.59 33.7291 62.55C33.7291 62.4967 33.7391 62.45 33.7591 62.41C33.7791 62.3667 33.8091 62.3267 33.8491 62.29L34.7491 61.425C34.9557 61.2317 35.0974 61.07 35.1741 60.94C35.2507 60.8067 35.2891 60.6683 35.2891 60.525C35.2891 60.3683 35.2357 60.24 35.1291 60.14C35.0224 60.04 34.8607 59.99 34.6441 59.99C34.4974 59.99 34.3657 60.015 34.2491 60.065C34.1357 60.115 34.0407 60.1683 33.9641 60.225C33.9274 60.2083 33.8941 60.1833 33.8641 60.15C33.8374 60.1167 33.8241 60.075 33.8241 60.025ZM36.3631 60.025C36.3631 59.965 36.4015 59.9067 36.4781 59.85C36.5548 59.79 36.6581 59.7417 36.7881 59.705C36.9181 59.6683 37.0598 59.65 37.2131 59.65C37.4265 59.65 37.6098 59.6867 37.7631 59.76C37.9165 59.83 38.0348 59.93 38.1181 60.06C38.2015 60.19 38.2431 60.3433 38.2431 60.52C38.2431 60.7033 38.1915 60.8833 38.0881 61.06C37.9881 61.2367 37.8148 61.4383 37.5681 61.665L36.7531 62.42H38.2381C38.2515 62.4333 38.2631 62.455 38.2731 62.485C38.2831 62.5117 38.2881 62.5433 38.2881 62.58C38.2881 62.6333 38.2731 62.675 38.2431 62.705C38.2165 62.735 38.1798 62.75 38.1331 62.75H36.3681C36.3348 62.7267 36.3098 62.6983 36.2931 62.665C36.2765 62.6283 36.2681 62.59 36.2681 62.55C36.2681 62.4967 36.2781 62.45 36.2981 62.41C36.3181 62.3667 36.3481 62.3267 36.3881 62.29L37.2881 61.425C37.4948 61.2317 37.6365 61.07 37.7131 60.94C37.7898 60.8067 37.8281 60.6683 37.8281 60.525C37.8281 60.3683 37.7748 60.24 37.6681 60.14C37.5615 60.04 37.3998 59.99 37.1831 59.99C37.0365 59.99 36.9048 60.015 36.7881 60.065C36.6748 60.115 36.5798 60.1683 36.5031 60.225C36.4665 60.2083 36.4331 60.1833 36.4031 60.15C36.3765 60.1167 36.3631 60.075 36.3631 60.025Z" fill="#A73C4C"/>
<path d="M48.285 50.025C48.285 49.965 48.3233 49.9067 48.4 49.85C48.4767 49.79 48.58 49.7417 48.71 49.705C48.84 49.6683 48.9817 49.65 49.135 49.65C49.3483 49.65 49.5317 49.6867 49.685 49.76C49.8383 49.83 49.9567 49.93 50.04 50.06C50.1233 50.19 50.165 50.3433 50.165 50.52C50.165 50.7033 50.1133 50.8833 50.01 51.06C49.91 51.2367 49.7367 51.4383 49.49 51.665L48.675 52.42H50.16C50.1733 52.4333 50.185 52.455 50.195 52.485C50.205 52.5117 50.21 52.5433 50.21 52.58C50.21 52.6333 50.195 52.675 50.165 52.705C50.1383 52.735 50.1017 52.75 50.055 52.75H48.29C48.2567 52.7267 48.2317 52.6983 48.215 52.665C48.1983 52.6283 48.19 52.59 48.19 52.55C48.19 52.4967 48.2 52.45 48.22 52.41C48.24 52.3667 48.27 52.3267 48.31 52.29L49.21 51.425C49.4167 51.2317 49.5583 51.07 49.635 50.94C49.7117 50.8067 49.75 50.6683 49.75 50.525C49.75 50.3683 49.6967 50.24 49.59 50.14C49.4833 50.04 49.3217 49.99 49.105 49.99C48.9583 49.99 48.8267 50.015 48.71 50.065C48.5967 50.115 48.5017 50.1683 48.425 50.225C48.3883 50.2083 48.355 50.1833 48.325 50.15C48.2983 50.1167 48.285 50.075 48.285 50.025ZM50.8241 50.025C50.8241 49.965 50.8624 49.9067 50.9391 49.85C51.0157 49.79 51.1191 49.7417 51.2491 49.705C51.3791 49.6683 51.5207 49.65 51.6741 49.65C51.8874 49.65 52.0707 49.6867 52.2241 49.76C52.3774 49.83 52.4957 49.93 52.5791 50.06C52.6624 50.19 52.7041 50.3433 52.7041 50.52C52.7041 50.7033 52.6524 50.8833 52.5491 51.06C52.4491 51.2367 52.2757 51.4383 52.0291 51.665L51.2141 52.42H52.6991C52.7124 52.4333 52.7241 52.455 52.7341 52.485C52.7441 52.5117 52.7491 52.5433 52.7491 52.58C52.7491 52.6333 52.7341 52.675 52.7041 52.705C52.6774 52.735 52.6407 52.75 52.5941 52.75H50.8291C50.7957 52.7267 50.7707 52.6983 50.7541 52.665C50.7374 52.6283 50.7291 52.59 50.7291 52.55C50.7291 52.4967 50.7391 52.45 50.7591 52.41C50.7791 52.3667 50.8091 52.3267 50.8491 52.29L51.7491 51.425C51.9557 51.2317 52.0974 51.07 52.1741 50.94C52.2507 50.8067 52.2891 50.6683 52.2891 50.525C52.2891 50.3683 52.2357 50.24 52.1291 50.14C52.0224 50.04 51.8607 49.99 51.6441 49.99C51.4974 49.99 51.3657 50.015 51.2491 50.065C51.1357 50.115 51.0407 50.1683 50.9641 50.225C50.9274 50.2083 50.8941 50.1833 50.8641 50.15C50.8374 50.1167 50.8241 50.075 50.8241 50.025ZM54.3481 51.63H53.9431V50.1L53.3031 50.4C53.2598 50.3833 53.2231 50.3583 53.1931 50.325C53.1665 50.2917 53.1531 50.25 53.1531 50.2C53.1531 50.1033 53.2131 50.03 53.3331 49.98L54.0331 49.675H54.1281C54.1948 49.675 54.2481 49.695 54.2881 49.735C54.3281 49.775 54.3481 49.8283 54.3481 49.895V51.63ZM53.9431 51.43H54.3481V52.755C54.3281 52.7617 54.3015 52.7683 54.2681 52.775C54.2348 52.785 54.1981 52.79 54.1581 52.79C54.0881 52.79 54.0348 52.775 53.9981 52.745C53.9615 52.715 53.9431 52.6683 53.9431 52.605V51.43Z" fill="#A73C4C"/>
<path d="M48.285 79.025C48.285 78.965 48.3233 78.9067 48.4 78.85C48.4767 78.79 48.58 78.7417 48.71 78.705C48.84 78.6683 48.9817 78.65 49.135 78.65C49.3483 78.65 49.5317 78.6867 49.685 78.76C49.8383 78.83 49.9567 78.93 50.04 79.06C50.1233 79.19 50.165 79.3433 50.165 79.52C50.165 79.7033 50.1133 79.8833 50.01 80.06C49.91 80.2367 49.7367 80.4383 49.49 80.665L48.675 81.42H50.16C50.1733 81.4333 50.185 81.455 50.195 81.485C50.205 81.5117 50.21 81.5433 50.21 81.58C50.21 81.6333 50.195 81.675 50.165 81.705C50.1383 81.735 50.1017 81.75 50.055 81.75H48.29C48.2567 81.7267 48.2317 81.6983 48.215 81.665C48.1983 81.6283 48.19 81.59 48.19 81.55C48.19 81.4967 48.2 81.45 48.22 81.41C48.24 81.3667 48.27 81.3267 48.31 81.29L49.21 80.425C49.4167 80.2317 49.5583 80.07 49.635 79.94C49.7117 79.8067 49.75 79.6683 49.75 79.525C49.75 79.3683 49.6967 79.24 49.59 79.14C49.4833 79.04 49.3217 78.99 49.105 78.99C48.9583 78.99 48.8267 79.015 48.71 79.065C48.5967 79.115 48.5017 79.1683 48.425 79.225C48.3883 79.2083 48.355 79.1833 48.325 79.15C48.2983 79.1167 48.285 79.075 48.285 79.025ZM50.8241 79.025C50.8241 78.965 50.8624 78.9067 50.9391 78.85C51.0157 78.79 51.1191 78.7417 51.2491 78.705C51.3791 78.6683 51.5207 78.65 51.6741 78.65C51.8874 78.65 52.0707 78.6867 52.2241 78.76C52.3774 78.83 52.4957 78.93 52.5791 79.06C52.6624 79.19 52.7041 79.3433 52.7041 79.52C52.7041 79.7033 52.6524 79.8833 52.5491 80.06C52.4491 80.2367 52.2757 80.4383 52.0291 80.665L51.2141 81.42H52.6991C52.7124 81.4333 52.7241 81.455 52.7341 81.485C52.7441 81.5117 52.7491 81.5433 52.7491 81.58C52.7491 81.6333 52.7341 81.675 52.7041 81.705C52.6774 81.735 52.6407 81.75 52.5941 81.75H50.8291C50.7957 81.7267 50.7707 81.6983 50.7541 81.665C50.7374 81.6283 50.7291 81.59 50.7291 81.55C50.7291 81.4967 50.7391 81.45 50.7591 81.41C50.7791 81.3667 50.8091 81.3267 50.8491 81.29L51.7491 80.425C51.9557 80.2317 52.0974 80.07 52.1741 79.94C52.2507 79.8067 52.2891 79.6683 52.2891 79.525C52.2891 79.3683 52.2357 79.24 52.1291 79.14C52.0224 79.04 51.8607 78.99 51.6441 78.99C51.4974 78.99 51.3657 79.015 51.2491 79.065C51.1357 79.115 51.0407 79.1683 50.9641 79.225C50.9274 79.2083 50.8941 79.1833 50.8641 79.15C50.8374 79.1167 50.8241 79.075 50.8241 79.025ZM55.3043 78.945C55.3043 78.985 55.2926 79.0233 55.2693 79.06C55.2493 79.0933 55.2226 79.1183 55.1893 79.135C55.116 79.0983 55.0326 79.0667 54.9393 79.04C54.8493 79.01 54.751 78.995 54.6443 78.995C54.3843 78.995 54.1643 79.0883 53.9843 79.275C53.8076 79.4617 53.7143 79.7533 53.7043 80.15C53.771 80.0833 53.8726 80.0133 54.0093 79.94C54.1493 79.8633 54.321 79.825 54.5243 79.825C54.8176 79.825 55.0593 79.9083 55.2493 80.075C55.4393 80.2417 55.5343 80.4883 55.5343 80.815C55.5343 81.0217 55.4893 81.2 55.3993 81.35C55.3126 81.5 55.1893 81.615 55.0293 81.695C54.8726 81.775 54.686 81.815 54.4693 81.815C54.246 81.815 54.046 81.765 53.8693 81.665C53.6926 81.5617 53.5526 81.4017 53.4493 81.185C53.3493 80.965 53.2993 80.6783 53.2993 80.325C53.2993 80.0117 53.336 79.7483 53.4093 79.535C53.486 79.3183 53.5876 79.1467 53.7143 79.02C53.841 78.89 53.9843 78.7967 54.1443 78.74C54.3043 78.68 54.4676 78.65 54.6343 78.65C54.751 78.65 54.8593 78.6617 54.9593 78.685C55.0626 78.7083 55.146 78.7417 55.2093 78.785C55.2726 78.8283 55.3043 78.8817 55.3043 78.945ZM54.4693 81.48C54.6626 81.48 54.821 81.4217 54.9443 81.305C55.0676 81.185 55.1293 81.0183 55.1293 80.805C55.1293 80.5883 55.066 80.4283 54.9393 80.325C54.816 80.2183 54.6626 80.165 54.4793 80.165C54.296 80.165 54.1376 80.205 54.0043 80.285C53.871 80.3617 53.766 80.455 53.6893 80.565L53.7043 80.53C53.7043 80.8133 53.771 81.0433 53.9043 81.22C54.0376 81.3933 54.226 81.48 54.4693 81.48Z" fill="#A73C4C"/>
<path d="M8.285 4.025C8.285 3.965 8.32333 3.90667 8.4 3.85C8.47667 3.79 8.58 3.74167 8.71 3.705C8.84 3.66833 8.98167 3.65 9.135 3.65C9.34833 3.65 9.53167 3.68667 9.685 3.76C9.83833 3.83 9.95667 3.93 10.04 4.06C10.1233 4.19 10.165 4.34333 10.165 4.52C10.165 4.70333 10.1133 4.88333 10.01 5.06C9.91 5.23667 9.73667 5.43833 9.49 5.665L8.675 6.42H10.16C10.1733 6.43333 10.185 6.455 10.195 6.485C10.205 6.51167 10.21 6.54333 10.21 6.58C10.21 6.63333 10.195 6.675 10.165 6.705C10.1383 6.735 10.1017 6.75 10.055 6.75H8.29C8.25667 6.72667 8.23167 6.69833 8.215 6.665C8.19833 6.62833 8.19 6.59 8.19 6.55C8.19 6.49667 8.2 6.45 8.22 6.41C8.24 6.36667 8.27 6.32667 8.31 6.29L9.21 5.425C9.41667 5.23167 9.55833 5.07 9.635 4.94C9.71167 4.80667 9.75 4.66833 9.75 4.525C9.75 4.36833 9.69667 4.24 9.59 4.14C9.48333 4.04 9.32167 3.99 9.105 3.99C8.95833 3.99 8.82667 4.015 8.71 4.065C8.59667 4.115 8.50167 4.16833 8.425 4.225C8.38833 4.20833 8.355 4.18333 8.325 4.15C8.29833 4.11667 8.285 4.075 8.285 4.025ZM11.8091 5.63H11.4041V4.1L10.7641 4.4C10.7207 4.38333 10.6841 4.35833 10.6541 4.325C10.6274 4.29167 10.6141 4.25 10.6141 4.2C10.6141 4.10333 10.6741 4.03 10.7941 3.98L11.4941 3.675H11.5891C11.6557 3.675 11.7091 3.695 11.7491 3.735C11.7891 3.775 11.8091 3.82833 11.8091 3.895V5.63ZM11.4041 5.43H11.8091V6.755C11.7891 6.76167 11.7624 6.76833 11.7291 6.775C11.6957 6.785 11.6591 6.79 11.6191 6.79C11.5491 6.79 11.4957 6.775 11.4591 6.745C11.4224 6.715 11.4041 6.66833 11.4041 6.605V5.43ZM13.7805 6.815C13.5538 6.815 13.3555 6.78167 13.1855 6.715C13.0155 6.645 12.8838 6.545 12.7905 6.415C12.6971 6.285 12.6505 6.12833 12.6505 5.945C12.6505 5.78167 12.6871 5.64333 12.7605 5.53C12.8371 5.41333 12.9338 5.32 13.0505 5.25C13.1671 5.18 13.2888 5.13333 13.4155 5.11L13.7155 5.06C13.9555 5.01333 14.1355 4.945 14.2555 4.855C14.3755 4.76167 14.4355 4.63833 14.4355 4.485C14.4355 4.32833 14.3771 4.20667 14.2605 4.12C14.1438 4.03 13.9838 3.985 13.7805 3.985C13.5838 3.985 13.4255 4.03 13.3055 4.12C13.1855 4.21 13.1255 4.33 13.1255 4.48C13.1255 4.60667 13.1588 4.70833 13.2255 4.785C13.2955 4.86167 13.3871 4.92 13.5005 4.96C13.6171 4.99667 13.7438 5.02167 13.8805 5.035L14.1005 5.11C14.2371 5.13667 14.3671 5.185 14.4905 5.255C14.6138 5.32167 14.7138 5.41167 14.7905 5.525C14.8671 5.63833 14.9055 5.78 14.9055 5.95C14.9055 6.13 14.8571 6.285 14.7605 6.415C14.6671 6.545 14.5355 6.645 14.3655 6.715C14.1988 6.78167 14.0038 6.815 13.7805 6.815ZM13.7805 6.48C13.9971 6.48 14.1721 6.43333 14.3055 6.34C14.4388 6.24667 14.5055 6.11167 14.5055 5.935C14.5055 5.74167 14.4238 5.58833 14.2605 5.475C14.1005 5.36167 13.8855 5.29667 13.6155 5.28L13.3605 5.205C13.1671 5.15167 13.0121 5.065 12.8955 4.945C12.7821 4.825 12.7255 4.66833 12.7255 4.475C12.7255 4.305 12.7688 4.15833 12.8555 4.035C12.9455 3.91167 13.0688 3.81667 13.2255 3.75C13.3855 3.68333 13.5705 3.65 13.7805 3.65C14.1071 3.65 14.3638 3.725 14.5505 3.875C14.7405 4.02167 14.8355 4.225 14.8355 4.485C14.8355 4.695 14.7638 4.86 14.6205 4.98C14.4805 5.1 14.3088 5.17833 14.1055 5.215L13.7655 5.285C13.5521 5.31833 13.3788 5.39167 13.2455 5.505C13.1155 5.615 13.0505 5.76 13.0505 5.94C13.0505 6.11 13.1155 6.24333 13.2455 6.34C13.3755 6.43333 13.5538 6.48 13.7805 6.48Z" fill="#A73C4C"/>
<path d="M9.3 88.75C9.13431 88.75 9 88.8843 9 89.05V93.45C9 93.6157 9.13431 93.75 9.3 93.75H9.71625H13.7C13.8657 93.75 14 93.6157 14 93.45V89.6249V89.05C14 88.8843 13.8657 88.75 13.7 88.75H9.3ZM10.1538 93.5577V93.0808C10.1538 93.0255 10.1986 92.9808 10.2538 92.9808H10.6231C10.7888 92.9808 10.9231 92.8465 10.9231 92.6808V92.3115C10.9231 92.2563 10.9678 92.2115 11.0231 92.2115H11.3923C11.558 92.2115 11.6923 92.0772 11.6923 91.9115V91.5423C11.6923 91.4871 11.7371 91.4423 11.7923 91.4423H12.1615C12.3272 91.4423 12.4615 91.308 12.4615 91.1423V90.7731C12.4615 90.7178 12.5063 90.6731 12.5615 90.6731H12.9308C13.0965 90.6731 13.2308 90.5388 13.2308 90.3731V90.0038C13.2308 89.9486 13.2755 89.9038 13.3308 89.9038H13.8077V93.4576C13.8077 93.5129 13.7629 93.5576 13.7077 93.5576L10.1538 93.5577ZM13.8077 89.7115H13.3385C13.1728 89.7115 13.0385 89.8459 13.0385 90.0115V90.3808C13.0385 90.436 12.9937 90.4808 12.9385 90.4808H12.5692C12.4035 90.4808 12.2692 90.6151 12.2692 90.7808V91.15C12.2692 91.2052 12.2245 91.25 12.1692 91.25H11.8C11.6343 91.25 11.5 91.3843 11.5 91.55V91.9192C11.5 91.9745 11.4552 92.0192 11.4 92.0192H11.0308C10.8651 92.0192 10.7308 92.1535 10.7308 92.3192V92.6885C10.7308 92.7437 10.686 92.7885 10.6308 92.7885H10.2615C10.0959 92.7885 9.96154 92.9228 9.96154 93.0885V93.5576H9.29231C9.23708 93.5576 9.19231 93.5129 9.19231 93.4576V89.0423C9.19231 88.9871 9.23708 88.9423 9.29231 88.9423H13.7077C13.7629 88.9423 13.8077 88.9871 13.8077 89.0423V89.7115Z" fill="#A73C4C"/>
<path d="M54.3 17.75C54.1343 17.75 54 17.8843 54 18.05V23.45C54 23.6157 54.1343 23.75 54.3 23.75H54.8595H59.7C59.8657 23.75 60 23.6157 60 23.45V18.7999V18.05C60 17.8843 59.8657 17.75 59.7 17.75H54.3ZM55.3846 23.5192V22.9269C55.3846 22.8717 55.4294 22.8269 55.4846 22.8269H56.0077C56.1734 22.8269 56.3077 22.6926 56.3077 22.5269V22.0038C56.3077 21.9486 56.3525 21.9038 56.4077 21.9038H56.9308C57.0965 21.9038 57.2308 21.7695 57.2308 21.6038V21.0808C57.2308 21.0255 57.2755 20.9808 57.3308 20.9808H57.8538C58.0195 20.9808 58.1538 20.8465 58.1538 20.6808V20.1577C58.1538 20.1025 58.1986 20.0577 58.2538 20.0577H58.7769C58.9426 20.0577 59.0769 19.9234 59.0769 19.7577V19.2346C59.0769 19.1794 59.1217 19.1346 59.1769 19.1346H59.7692V23.4192C59.7692 23.4744 59.7245 23.5192 59.6692 23.5192L55.3846 23.5192ZM59.7692 18.9038H59.1462C58.9805 18.9038 58.8462 19.0382 58.8462 19.2038V19.7269C58.8462 19.7822 58.8014 19.8269 58.7462 19.8269H58.2231C58.0574 19.8269 57.9231 19.9612 57.9231 20.1269V20.65C57.9231 20.7052 57.8783 20.75 57.8231 20.75H57.3C57.1343 20.75 57 20.8843 57 21.05V21.5731C57 21.6283 56.9552 21.6731 56.9 21.6731H56.3769C56.2112 21.6731 56.0769 21.8074 56.0769 21.9731V22.4962C56.0769 22.5514 56.0322 22.5962 55.9769 22.5962H55.4538C55.2882 22.5962 55.1538 22.7305 55.1538 22.8962V23.5192H54.3308C54.2755 23.5192 54.2308 23.4744 54.2308 23.4192V18.0808C54.2308 18.0255 54.2755 17.9808 54.3308 17.9808H59.6692C59.7245 17.9808 59.7692 18.0255 59.7692 18.0808V18.9038Z" fill="#A73C4C"/>
<path d="M10.3 12.25C10.1343 12.25 10 12.3843 10 12.55V15.95C10 16.1157 10.1343 16.25 10.3 16.25H10.573H13.7C13.8657 16.25 14 16.1157 14 15.95V12.9499V12.55C14 12.3843 13.8657 12.25 13.7 12.25H10.3ZM10.9231 16.0962V15.7346C10.9231 15.6794 10.9678 15.6346 11.0231 15.6346H11.2385C11.4041 15.6346 11.5385 15.5003 11.5385 15.3346V15.1192C11.5385 15.064 11.5832 15.0192 11.6385 15.0192H11.8538C12.0195 15.0192 12.1538 14.8849 12.1538 14.7192V14.5038C12.1538 14.4486 12.1986 14.4038 12.2538 14.4038H12.4692C12.6349 14.4038 12.7692 14.2695 12.7692 14.1038V13.8885C12.7692 13.8332 12.814 13.7885 12.8692 13.7885H13.0846C13.2503 13.7885 13.3846 13.6541 13.3846 13.4885V13.2731C13.3846 13.2178 13.4294 13.1731 13.4846 13.1731H13.8462V15.9961C13.8462 16.0513 13.8014 16.0961 13.7462 16.0961L10.9231 16.0962ZM13.8462 13.0192H13.5308C13.3651 13.0192 13.2308 13.1535 13.2308 13.3192V13.5346C13.2308 13.5898 13.186 13.6346 13.1308 13.6346H12.9154C12.7497 13.6346 12.6154 13.7689 12.6154 13.9346V14.15C12.6154 14.2052 12.5706 14.25 12.5154 14.25H12.3C12.1343 14.25 12 14.3843 12 14.55V14.7654C12 14.8206 11.9552 14.8654 11.9 14.8654H11.6846C11.5189 14.8654 11.3846 14.9997 11.3846 15.1654V15.3808C11.3846 15.436 11.3398 15.4808 11.2846 15.4808H11.0692C10.9035 15.4808 10.7692 15.6151 10.7692 15.7808V16.0961H10.2538C10.1986 16.0961 10.1538 16.0513 10.1538 15.9961V12.5038C10.1538 12.4486 10.1986 12.4038 10.2538 12.4038H13.7462C13.8014 12.4038 13.8462 12.4486 13.8462 12.5038V13.0192Z" fill="#A73C4C"/>
</svg>
