<svg width="308" height="63" viewBox="0 0 308 63" fill="none" xmlns="http://www.w3.org/2000/svg">
<path d="M6.25002 10.5825H0.25V2.25H34.5197V4.94083H49.75V11.25H79.75V4.99316H95.6101V2.25H123.097V4.99316H202.599V2.25H249.946V4.99316H272.601V10.75H307.087V31.25H272.601V50.25H123.097V61.75H95.75V50.25H79.75V44.25H6.25002V10.5825Z" fill="white"/>
<path d="M49.6393 27.5864V44.0253" stroke="#A73C4C" stroke-width="0.5"/>
<path d="M9.57684 44.0253H6.42367V10.5362L0.250013 10.4681L0.25 2.25H9.25" stroke="#A73C4C" stroke-width="0.5"/>
<path d="M49.6393 11.1529H54.25M49.6393 11.1529V21.25M49.6393 11.1529V4.98936H34.5481V2.25H15.75" stroke="#A73C4C" stroke-width="0.5"/>
<path d="M62.75 11.1529H65.25" stroke="#A73C4C" stroke-width="0.5"/>
<path d="M211.75 50.1889H272.577V4.98936H249.94M249.94 4.98936V2.25H202.609V4.98936M249.94 4.98936V23.75M202.609 4.98936H123.037M202.609 4.98936V23.75M123.037 4.98936V2.25H95.5987L95.5987 4.98936M123.037 4.98936V23.75M95.5987 4.98936H79.8216V11.1529M95.5987 4.98936V23.75M79.8216 11.1529V43.9763M79.8216 11.1529H78.25M79.8216 14.25H81.75M86.25 14.25H90.25M95.5987 14.3697H94.25M79.8216 23.75H89.9091M94.75 23.75H110.75M79.8216 31.25H82.25M89.25 31.25V50.1889M94.75 31.25H95.5987V50.1889M102.423 31.25H100.923V37.75M95.5987 37.75H96.25M100.25 37.75H115.923M105.923 31.25H114.75V32.25M121.25 37.75H123.037M115.25 23.75H132.75M125.423 31.25H123.037V50.1889M130.423 31.25H148.423M137.75 23.75H160.75M153.423 31.25H171.423M166.25 23.75H189.75M176.423 31.25H182.423M187.923 31.25H194.423M194.75 23.75H206.75M198.923 31.25H205.923M211.75 23.75H229.75M210.423 31.25H216.923M213.423 37.75H216.923M221.923 37.75H224.75M221.923 31.25H233.923M234.75 23.75H252.75M238.923 31.25H256.923M272.577 31.25H262.25V29.75M257.75 23.75H272.577M87.25 31.25H91.25M87.9536 4.98936V14.25M107.25 31.25V61.8311M114.75 36.75V37.75M145.25 31.25V50.1889M156.75 31.25V35.25M156.75 40.25V50.1889M167.75 31.25V50.1889M179.423 31.25V50.1889M190.75 31.25V50.1889M202.25 31.25V50.1889M213.423 31.25V50.1889M224.75 36.25V50.1889M224.75 31.25V32.25M247.923 31.25V50.1889M262.25 23.75V24.75M224.75 2.25V23.75M179.423 4.98936V23.75M156.75 4.98936V23.75" stroke="#A73C4C" stroke-width="0.5"/>
<path d="M205.512 50.1889H123.037V61.8312H95.5987V50.1889H87.75" stroke="#A73C4C" stroke-width="0.5"/>
<path d="M81.75 50.1889H79.8216V44.0253H78.25" stroke="#A73C4C" stroke-width="0.5"/>
<path d="M65.25 44.0253H62.75" stroke="#A73C4C" stroke-width="0.5"/>
<path d="M54.25 44.0253H14.8705" stroke="#A73C4C" stroke-width="0.5"/>
<path d="M276.25 31.2356L272.75 31.25M272.75 10.7048H276.25" stroke="#A73C4C" stroke-width="0.5"/>
<path d="M83.9423 50.5427H87.0449M87.0449 50.5427L86.1988 49.5396M87.0449 50.5427L86.1987 51.5457" stroke="#A73C4C" stroke-width="0.5" stroke-linecap="round" stroke-linejoin="round"/>
<path d="M85.0705 49.2921V48.3933C85.0705 48.3142 85.0074 48.25 84.9295 48.25H82.391C82.3131 48.25 82.25 48.3142 82.25 48.3933V52.6921C82.25 52.7712 82.3131 52.8354 82.391 52.8354H84.9295C85.0074 52.8354 85.0705 52.7712 85.0705 52.6921V51.7932" stroke="#A73C4C" stroke-width="0.5" stroke-linecap="round" stroke-linejoin="round"/>
<path d="M207.942 50.5427H211.045M211.045 50.5427L210.199 49.5396M211.045 50.5427L210.199 51.5457" stroke="#A73C4C" stroke-width="0.5" stroke-linecap="round" stroke-linejoin="round"/>
<path d="M209.071 49.2921V48.3933C209.071 48.3142 209.007 48.25 208.929 48.25H206.391C206.313 48.25 206.25 48.3142 206.25 48.3933V52.6921C206.25 52.7712 206.313 52.8354 206.391 52.8354H208.929C209.007 52.8354 209.071 52.7712 209.071 52.6921V51.7932" stroke="#A73C4C" stroke-width="0.5" stroke-linecap="round" stroke-linejoin="round"/>
<path d="M11.9423 2.54269H15.0449M15.0449 2.54269L14.1988 1.53964M15.0449 2.54269L14.1987 3.54574" stroke="#A73C4C" stroke-width="0.5" stroke-linecap="round" stroke-linejoin="round"/>
<path d="M13.0705 1.29213V0.393293C13.0705 0.314155 13.0074 0.25 12.9295 0.25H10.391C10.3131 0.25 10.25 0.314155 10.25 0.393293V4.69207C10.25 4.7712 10.3131 4.83537 10.391 4.83537H12.9295C13.0074 4.83537 13.0705 4.7712 13.0705 4.69207V3.79323" stroke="#A73C4C" stroke-width="0.5" stroke-linecap="round" stroke-linejoin="round"/>
<path d="M81.55 36.25C81.3843 36.25 81.25 36.3843 81.25 36.55V42.95C81.25 43.1157 81.3843 43.25 81.55 43.25H82.2369H87.8393C88.0049 43.25 88.1393 43.1157 88.1393 42.95V37.4749V36.55C88.1393 36.3843 88.0049 36.25 87.8393 36.25H81.55ZM82.8398 42.9808V42.2731C82.8398 42.2178 82.8846 42.1731 82.9398 42.1731H83.5997C83.7654 42.1731 83.8997 42.0388 83.8997 41.8731V41.1962C83.8997 41.1409 83.9445 41.0962 83.9997 41.0962H84.6596C84.8253 41.0962 84.9596 40.9618 84.9596 40.7962V40.1192C84.9596 40.064 85.0044 40.0192 85.0596 40.0192H85.7195C85.8852 40.0192 86.0195 39.8849 86.0195 39.7192V39.0423C86.0195 38.9871 86.0643 38.9423 86.1195 38.9423H86.7794C86.9451 38.9423 87.0794 38.808 87.0794 38.6423V37.9654C87.0794 37.9102 87.1241 37.8654 87.1794 37.8654H87.8743V42.8807C87.8743 42.9359 87.8295 42.9807 87.7743 42.9807L82.8398 42.9808ZM87.8743 37.5962H87.1144C86.9487 37.5962 86.8144 37.7305 86.8144 37.8962V38.5731C86.8144 38.6283 86.7696 38.6731 86.7144 38.6731H86.0545C85.8888 38.6731 85.7545 38.8074 85.7545 38.9731V39.65C85.7545 39.7052 85.7097 39.75 85.6545 39.75H84.9946C84.8289 39.75 84.6946 39.8843 84.6946 40.05V40.7269C84.6946 40.7822 84.6499 40.8269 84.5946 40.8269H83.9347C83.7691 40.8269 83.6347 40.9612 83.6347 41.1269V41.8038C83.6347 41.8591 83.59 41.9038 83.5347 41.9038H82.8749C82.7092 41.9038 82.5749 42.0382 82.5749 42.2038V42.9807H81.615C81.5597 42.9807 81.515 42.9359 81.515 42.8807V36.6192C81.515 36.564 81.5597 36.5192 81.615 36.5192H87.7743C87.8295 36.5192 87.8743 36.564 87.8743 36.6192V37.5962Z" fill="#A73C4C"/>
<path d="M204.55 36.25C204.384 36.25 204.25 36.3843 204.25 36.55V42.95C204.25 43.1157 204.384 43.25 204.55 43.25H205.237H210.839C211.005 43.25 211.139 43.1157 211.139 42.95V37.4749V36.55C211.139 36.3843 211.005 36.25 210.839 36.25H204.55ZM205.84 42.9808V42.2731C205.84 42.2178 205.885 42.1731 205.94 42.1731H206.6C206.765 42.1731 206.9 42.0388 206.9 41.8731V41.1962C206.9 41.1409 206.944 41.0962 207 41.0962H207.66C207.825 41.0962 207.96 40.9618 207.96 40.7962V40.1192C207.96 40.064 208.004 40.0192 208.06 40.0192H208.719C208.885 40.0192 209.019 39.8849 209.019 39.7192V39.0423C209.019 38.9871 209.064 38.9423 209.119 38.9423H209.779C209.945 38.9423 210.079 38.808 210.079 38.6423V37.9654C210.079 37.9102 210.124 37.8654 210.179 37.8654H210.874V42.8807C210.874 42.9359 210.83 42.9807 210.774 42.9807L205.84 42.9808ZM210.874 37.5962H210.114C209.949 37.5962 209.814 37.7305 209.814 37.8962V38.5731C209.814 38.6283 209.77 38.6731 209.714 38.6731H209.055C208.889 38.6731 208.755 38.8074 208.755 38.9731V39.65C208.755 39.7052 208.71 39.75 208.655 39.75H207.995C207.829 39.75 207.695 39.8843 207.695 40.05V40.7269C207.695 40.7822 207.65 40.8269 207.595 40.8269H206.935C206.769 40.8269 206.635 40.9612 206.635 41.1269V41.8038C206.635 41.8591 206.59 41.9038 206.535 41.9038H205.875C205.709 41.9038 205.575 42.0382 205.575 42.2038V42.9807H204.615C204.56 42.9807 204.515 42.9359 204.515 42.8807V36.6192C204.515 36.564 204.56 36.5192 204.615 36.5192H210.774C210.83 36.5192 210.874 36.564 210.874 36.6192V37.5962Z" fill="#A73C4C"/>
<path d="M90.7044 13.128V11.3543C90.7047 11.3108 90.6958 11.2676 90.6783 11.2278C90.6609 11.188 90.6353 11.1524 90.6033 11.1235L90.2999 10.8419C90.2841 10.8273 90.2716 10.8094 90.263 10.7895C90.2544 10.7697 90.25 10.7482 90.25 10.7265V8.89648C90.25 8.81421 90.2821 8.7353 90.3392 8.67699C90.3963 8.61869 90.4739 8.58575 90.5548 8.58538H92.5083C92.6297 8.58575 92.7459 8.63501 92.8316 8.72235C92.9173 8.80969 92.9655 8.92799 92.9655 9.05133V10.7406C92.9651 10.7802 92.9503 10.8183 92.9239 10.8476L92.6316 11.1643C92.5779 11.2216 92.5482 11.2978 92.5485 11.3769V13.128" stroke="#3A3A3A" stroke-width="0.5" stroke-linecap="round"/>
<path d="M91.6078 7.91391C92.06 7.91391 92.4266 7.54143 92.4266 7.08196C92.4266 6.62248 92.06 6.25001 91.6078 6.25001C91.1556 6.25001 90.789 6.62248 90.789 7.08196C90.789 7.54143 91.1556 7.91391 91.6078 7.91391Z" stroke="#3A3A3A" stroke-width="0.5" stroke-linecap="round"/>
<path d="M82.9383 13.128V11.6139C82.9379 11.5718 82.9212 11.5316 82.8918 11.5019C82.8624 11.4723 82.8226 11.4557 82.7812 11.4557H82.4059C82.3807 11.4555 82.3559 11.4491 82.3337 11.4371C82.3114 11.4252 82.2923 11.4079 82.2779 11.3869C82.2636 11.3658 82.2544 11.3416 82.2512 11.3162C82.248 11.2908 82.2509 11.265 82.2596 11.2409L83.155 8.76335C83.1662 8.73297 83.1862 8.70673 83.2123 8.68806C83.2384 8.6694 83.2694 8.65918 83.3013 8.65874H84.2496C84.282 8.65861 84.3136 8.66875 84.3401 8.68774C84.3666 8.70674 84.3866 8.73365 84.3973 8.76472L85.2751 11.2423C85.2831 11.2672 85.285 11.2936 85.2807 11.3194C85.2763 11.3452 85.2657 11.3695 85.2499 11.3901C85.2342 11.4108 85.2136 11.4272 85.1901 11.4379C85.1666 11.4486 85.1409 11.4533 85.1152 11.4515H84.7088C84.6683 11.454 84.6304 11.4723 84.6029 11.5026C84.5753 11.5328 84.5604 11.5727 84.5612 11.6139V13.128" stroke="#3A3A3A" stroke-width="0.5" stroke-linecap="round"/>
<path d="M83.7607 7.87695C84.2029 7.87695 84.5613 7.51274 84.5613 7.06347C84.5613 6.6142 84.2029 6.25 83.7607 6.25C83.3186 6.25 82.9601 6.6142 82.9601 7.06347C82.9601 7.51274 83.3186 7.87695 83.7607 7.87695Z" stroke="#3A3A3A" stroke-width="0.5" stroke-linecap="round"/>
<path d="M107.52 14.13H107.115V12.6L106.475 12.9C106.432 12.8833 106.395 12.8583 106.365 12.825C106.338 12.7917 106.325 12.75 106.325 12.7C106.325 12.6033 106.385 12.53 106.505 12.48L107.205 12.175H107.3C107.367 12.175 107.42 12.195 107.46 12.235C107.5 12.275 107.52 12.3283 107.52 12.395V14.13ZM107.115 13.93H107.52V15.255C107.5 15.2617 107.473 15.2683 107.44 15.275C107.407 15.285 107.37 15.29 107.33 15.29C107.26 15.29 107.207 15.275 107.17 15.245C107.133 15.215 107.115 15.1683 107.115 15.105V13.93ZM109.332 14.13H108.927V12.6L108.287 12.9C108.243 12.8833 108.207 12.8583 108.177 12.825C108.15 12.7917 108.137 12.75 108.137 12.7C108.137 12.6033 108.197 12.53 108.317 12.48L109.017 12.175H109.112C109.178 12.175 109.232 12.195 109.272 12.235C109.312 12.275 109.332 12.3283 109.332 12.395V14.13ZM108.927 13.93H109.332V15.255C109.312 15.2617 109.285 15.2683 109.252 15.275C109.218 15.285 109.182 15.29 109.142 15.29C109.072 15.29 109.018 15.275 108.982 15.245C108.945 15.215 108.927 15.1683 108.927 15.105V13.93ZM110.869 12.21L110.734 12.505L110.649 13.45C110.705 13.42 110.784 13.3917 110.884 13.365C110.987 13.335 111.095 13.32 111.209 13.32C111.409 13.32 111.589 13.3583 111.749 13.435C111.909 13.5083 112.035 13.6183 112.129 13.765C112.225 13.9083 112.274 14.0867 112.274 14.3C112.274 14.4933 112.229 14.6667 112.139 14.82C112.052 14.9733 111.924 15.095 111.754 15.185C111.587 15.2717 111.382 15.315 111.139 15.315C110.949 15.315 110.782 15.2933 110.639 15.25C110.495 15.2067 110.384 15.1533 110.304 15.09C110.224 15.0267 110.184 14.965 110.184 14.905C110.184 14.8517 110.2 14.805 110.234 14.765C110.27 14.725 110.307 14.6983 110.344 14.685C110.417 14.7483 110.52 14.8133 110.654 14.88C110.787 14.9467 110.949 14.98 111.139 14.98C111.369 14.98 111.547 14.9167 111.674 14.79C111.8 14.66 111.864 14.4967 111.864 14.3C111.864 14.0967 111.799 13.9383 111.669 13.825C111.539 13.7117 111.369 13.655 111.159 13.655C111.042 13.655 110.935 13.6733 110.839 13.71C110.742 13.7467 110.652 13.7883 110.569 13.835C110.479 13.8283 110.405 13.8017 110.349 13.755C110.295 13.705 110.269 13.6417 110.269 13.565C110.269 13.545 110.269 13.52 110.269 13.49C110.272 13.4567 110.275 13.425 110.279 13.395L110.364 12.44C110.37 12.37 110.392 12.315 110.429 12.275C110.465 12.2317 110.519 12.21 110.589 12.21H110.869ZM110.659 12.55V12.21H112.119C112.129 12.2233 112.139 12.245 112.149 12.275C112.159 12.305 112.164 12.3367 112.164 12.37C112.164 12.4233 112.15 12.4667 112.124 12.5C112.097 12.5333 112.059 12.55 112.009 12.55H110.659Z" fill="#A73C4C"/>
<path d="M138.52 14.13H138.115V12.6L137.475 12.9C137.432 12.8833 137.395 12.8583 137.365 12.825C137.338 12.7917 137.325 12.75 137.325 12.7C137.325 12.6033 137.385 12.53 137.505 12.48L138.205 12.175H138.3C138.367 12.175 138.42 12.195 138.46 12.235C138.5 12.275 138.52 12.3283 138.52 12.395V14.13ZM138.115 13.93H138.52V15.255C138.5 15.2617 138.473 15.2683 138.44 15.275C138.407 15.285 138.37 15.29 138.33 15.29C138.26 15.29 138.207 15.275 138.17 15.245C138.133 15.215 138.115 15.1683 138.115 15.105V13.93ZM140.332 14.13H139.927V12.6L139.287 12.9C139.243 12.8833 139.207 12.8583 139.177 12.825C139.15 12.7917 139.137 12.75 139.137 12.7C139.137 12.6033 139.197 12.53 139.317 12.48L140.017 12.175H140.112C140.178 12.175 140.232 12.195 140.272 12.235C140.312 12.275 140.332 12.3283 140.332 12.395V14.13ZM139.927 13.93H140.332V15.255C140.312 15.2617 140.285 15.2683 140.252 15.275C140.218 15.285 140.182 15.29 140.142 15.29C140.072 15.29 140.018 15.275 139.982 15.245C139.945 15.215 139.927 15.1683 139.927 15.105V13.93ZM141.958 12.145C142.275 12.145 142.53 12.215 142.723 12.355C142.92 12.4917 143.018 12.6983 143.018 12.975C143.018 13.1083 142.99 13.2233 142.933 13.32C142.88 13.4133 142.815 13.4867 142.738 13.54C142.665 13.5933 142.598 13.6283 142.538 13.645C142.628 13.6717 142.716 13.7183 142.803 13.785C142.89 13.8483 142.961 13.9317 143.018 14.035C143.078 14.135 143.108 14.2567 143.108 14.4C143.108 14.6 143.06 14.7667 142.963 14.9C142.866 15.0333 142.733 15.135 142.563 15.205C142.393 15.2717 142.196 15.305 141.973 15.305C141.79 15.305 141.626 15.2867 141.483 15.25C141.343 15.21 141.233 15.16 141.153 15.1C141.073 15.04 141.033 14.9767 141.033 14.91C141.033 14.8633 141.045 14.8233 141.068 14.79C141.095 14.7567 141.128 14.7283 141.168 14.705C141.255 14.7717 141.36 14.8317 141.483 14.885C141.61 14.9383 141.773 14.965 141.973 14.965C142.193 14.965 142.371 14.9183 142.508 14.825C142.645 14.7283 142.713 14.5833 142.713 14.39C142.713 14.22 142.65 14.0833 142.523 13.98C142.396 13.8767 142.213 13.825 141.973 13.825H141.558C141.545 13.8083 141.533 13.785 141.523 13.755C141.513 13.7217 141.508 13.6883 141.508 13.655C141.508 13.6183 141.513 13.585 141.523 13.555C141.533 13.525 141.545 13.5017 141.558 13.485H141.938C142.185 13.485 142.36 13.44 142.463 13.35C142.57 13.2567 142.623 13.135 142.623 12.985C142.623 12.8217 142.563 12.6983 142.443 12.615C142.323 12.5283 142.16 12.485 141.953 12.485C141.793 12.485 141.651 12.51 141.528 12.56C141.408 12.6067 141.308 12.6583 141.228 12.715C141.195 12.6983 141.165 12.6717 141.138 12.635C141.111 12.5983 141.098 12.5583 141.098 12.515C141.098 12.455 141.136 12.3967 141.213 12.34C141.29 12.2833 141.393 12.2367 141.523 12.2C141.653 12.1633 141.798 12.145 141.958 12.145Z" fill="#A73C4C"/>
<path d="M167.52 14.13H167.115V12.6L166.475 12.9C166.432 12.8833 166.395 12.8583 166.365 12.825C166.338 12.7917 166.325 12.75 166.325 12.7C166.325 12.6033 166.385 12.53 166.505 12.48L167.205 12.175H167.3C167.367 12.175 167.42 12.195 167.46 12.235C167.5 12.275 167.52 12.3283 167.52 12.395V14.13ZM167.115 13.93H167.52V15.255C167.5 15.2617 167.473 15.2683 167.44 15.275C167.407 15.285 167.37 15.29 167.33 15.29C167.26 15.29 167.207 15.275 167.17 15.245C167.133 15.215 167.115 15.1683 167.115 15.105V13.93ZM169.332 14.13H168.927V12.6L168.287 12.9C168.243 12.8833 168.207 12.8583 168.177 12.825C168.15 12.7917 168.137 12.75 168.137 12.7C168.137 12.6033 168.197 12.53 168.317 12.48L169.017 12.175H169.112C169.178 12.175 169.232 12.195 169.272 12.235C169.312 12.275 169.332 12.3283 169.332 12.395V14.13ZM168.927 13.93H169.332V15.255C169.312 15.2617 169.285 15.2683 169.252 15.275C169.218 15.285 169.182 15.29 169.142 15.29C169.072 15.29 169.018 15.275 168.982 15.245C168.945 15.215 168.927 15.1683 168.927 15.105V13.93ZM171.143 14.13H170.738V12.6L170.098 12.9C170.055 12.8833 170.018 12.8583 169.988 12.825C169.961 12.7917 169.948 12.75 169.948 12.7C169.948 12.6033 170.008 12.53 170.128 12.48L170.828 12.175H170.923C170.99 12.175 171.043 12.195 171.083 12.235C171.123 12.275 171.143 12.3283 171.143 12.395V14.13ZM170.738 13.93H171.143V15.255C171.123 15.2617 171.096 15.2683 171.063 15.275C171.03 15.285 170.993 15.29 170.953 15.29C170.883 15.29 170.83 15.275 170.793 15.245C170.756 15.215 170.738 15.1683 170.738 15.105V13.93Z" fill="#A73C4C"/>
<path d="M188.52 14.13H188.115V12.6L187.475 12.9C187.432 12.8833 187.395 12.8583 187.365 12.825C187.338 12.7917 187.325 12.75 187.325 12.7C187.325 12.6033 187.385 12.53 187.505 12.48L188.205 12.175H188.3C188.367 12.175 188.42 12.195 188.46 12.235C188.5 12.275 188.52 12.3283 188.52 12.395V14.13ZM188.115 13.93H188.52V15.255C188.5 15.2617 188.473 15.2683 188.44 15.275C188.407 15.285 188.37 15.29 188.33 15.29C188.26 15.29 188.207 15.275 188.17 15.245C188.133 15.215 188.115 15.1683 188.115 15.105V13.93ZM190.492 15.315C190.259 15.315 190.052 15.2583 189.872 15.145C189.695 15.0283 189.557 14.8533 189.457 14.62C189.357 14.3833 189.307 14.0867 189.307 13.73C189.307 13.3467 189.364 13.04 189.477 12.81C189.59 12.58 189.737 12.4133 189.917 12.31C190.097 12.2033 190.289 12.15 190.492 12.15C190.699 12.15 190.892 12.2033 191.072 12.31C191.255 12.4167 191.402 12.5867 191.512 12.82C191.625 13.05 191.682 13.3533 191.682 13.73C191.682 14.0833 191.632 14.3783 191.532 14.615C191.432 14.8483 191.292 15.0233 191.112 15.14C190.935 15.2567 190.729 15.315 190.492 15.315ZM190.492 14.975C190.739 14.975 190.93 14.8683 191.067 14.655C191.204 14.4383 191.272 14.13 191.272 13.73C191.272 13.4333 191.235 13.195 191.162 13.015C191.092 12.8317 190.999 12.6983 190.882 12.615C190.765 12.5317 190.635 12.49 190.492 12.49C190.352 12.49 190.222 12.5333 190.102 12.62C189.985 12.7033 189.892 12.8367 189.822 13.02C189.752 13.2033 189.717 13.44 189.717 13.73C189.717 14.13 189.785 14.4383 189.922 14.655C190.059 14.8683 190.249 14.975 190.492 14.975ZM192.338 15.005C192.338 14.965 192.348 14.9267 192.368 14.89C192.391 14.8533 192.419 14.8267 192.453 14.81C192.516 14.8467 192.598 14.8833 192.698 14.92C192.801 14.9533 192.923 14.97 193.063 14.97C193.236 14.97 193.394 14.9333 193.538 14.86C193.681 14.7867 193.796 14.6667 193.883 14.5C193.969 14.33 194.013 14.1067 194.013 13.83C193.983 13.8633 193.933 13.905 193.863 13.955C193.796 14.0017 193.711 14.0433 193.608 14.08C193.504 14.1167 193.384 14.135 193.248 14.135C193.061 14.135 192.886 14.1033 192.723 14.04C192.559 13.9733 192.428 13.8683 192.328 13.725C192.231 13.5817 192.183 13.3933 192.183 13.16C192.183 12.95 192.229 12.77 192.323 12.62C192.416 12.4667 192.543 12.35 192.703 12.27C192.863 12.19 193.041 12.15 193.238 12.15C193.468 12.15 193.671 12.2033 193.848 12.31C194.024 12.4133 194.163 12.575 194.263 12.795C194.366 13.0117 194.418 13.2917 194.418 13.635C194.418 14.0417 194.361 14.3683 194.248 14.615C194.134 14.8617 193.976 15.04 193.773 15.15C193.573 15.26 193.338 15.315 193.068 15.315C192.868 15.315 192.696 15.2883 192.553 15.235C192.409 15.1817 192.338 15.105 192.338 15.005ZM193.303 13.8C193.473 13.8 193.623 13.7583 193.753 13.675C193.886 13.5883 193.974 13.4933 194.018 13.39L194.013 13.445C194.013 13.1483 193.944 12.915 193.808 12.745C193.674 12.5717 193.484 12.485 193.238 12.485C193.054 12.485 192.899 12.545 192.773 12.665C192.649 12.7817 192.588 12.9433 192.588 13.15C192.588 13.38 192.658 13.5467 192.798 13.65C192.938 13.75 193.106 13.8 193.303 13.8Z" fill="#A73C4C"/>
<path d="M211.52 14.13H211.115V12.6L210.475 12.9C210.432 12.8833 210.395 12.8583 210.365 12.825C210.338 12.7917 210.325 12.75 210.325 12.7C210.325 12.6033 210.385 12.53 210.505 12.48L211.205 12.175H211.3C211.367 12.175 211.42 12.195 211.46 12.235C211.5 12.275 211.52 12.3283 211.52 12.395V14.13ZM211.115 13.93H211.52V15.255C211.5 15.2617 211.473 15.2683 211.44 15.275C211.407 15.285 211.37 15.29 211.33 15.29C211.26 15.29 211.207 15.275 211.17 15.245C211.133 15.215 211.115 15.1683 211.115 15.105V13.93ZM213.492 15.315C213.259 15.315 213.052 15.2583 212.872 15.145C212.695 15.0283 212.557 14.8533 212.457 14.62C212.357 14.3833 212.307 14.0867 212.307 13.73C212.307 13.3467 212.364 13.04 212.477 12.81C212.59 12.58 212.737 12.4133 212.917 12.31C213.097 12.2033 213.289 12.15 213.492 12.15C213.699 12.15 213.892 12.2033 214.072 12.31C214.255 12.4167 214.402 12.5867 214.512 12.82C214.625 13.05 214.682 13.3533 214.682 13.73C214.682 14.0833 214.632 14.3783 214.532 14.615C214.432 14.8483 214.292 15.0233 214.112 15.14C213.935 15.2567 213.729 15.315 213.492 15.315ZM213.492 14.975C213.739 14.975 213.93 14.8683 214.067 14.655C214.204 14.4383 214.272 14.13 214.272 13.73C214.272 13.4333 214.235 13.195 214.162 13.015C214.092 12.8317 213.999 12.6983 213.882 12.615C213.765 12.5317 213.635 12.49 213.492 12.49C213.352 12.49 213.222 12.5333 213.102 12.62C212.985 12.7033 212.892 12.8367 212.822 13.02C212.752 13.2033 212.717 13.44 212.717 13.73C212.717 14.13 212.785 14.4383 212.922 14.655C213.059 14.8683 213.249 14.975 213.492 14.975ZM215.169 12.21H216.969C217.005 12.23 217.034 12.2583 217.054 12.295C217.074 12.3283 217.084 12.3667 217.084 12.41C217.084 12.4433 217.079 12.4767 217.069 12.51C217.062 12.5433 217.049 12.58 217.029 12.62L215.774 15.27C215.754 15.2733 215.734 15.275 215.714 15.275C215.697 15.275 215.679 15.275 215.659 15.275C215.595 15.275 215.54 15.26 215.494 15.23C215.447 15.1967 215.424 15.1517 215.424 15.095C215.424 15.055 215.432 15.0167 215.449 14.98C215.465 14.94 215.485 14.895 215.509 14.845L216.639 12.55H215.059C215.049 12.5333 215.039 12.5117 215.029 12.485C215.019 12.455 215.014 12.4233 215.014 12.39C215.014 12.3333 215.027 12.29 215.054 12.26C215.08 12.2267 215.119 12.21 215.169 12.21Z" fill="#A73C4C"/>
<path d="M234.52 14.13H234.115V12.6L233.475 12.9C233.432 12.8833 233.395 12.8583 233.365 12.825C233.338 12.7917 233.325 12.75 233.325 12.7C233.325 12.6033 233.385 12.53 233.505 12.48L234.205 12.175H234.3C234.367 12.175 234.42 12.195 234.46 12.235C234.5 12.275 234.52 12.3283 234.52 12.395V14.13ZM234.115 13.93H234.52V15.255C234.5 15.2617 234.473 15.2683 234.44 15.275C234.407 15.285 234.37 15.29 234.33 15.29C234.26 15.29 234.207 15.275 234.17 15.245C234.133 15.215 234.115 15.1683 234.115 15.105V13.93ZM236.492 15.315C236.259 15.315 236.052 15.2583 235.872 15.145C235.695 15.0283 235.557 14.8533 235.457 14.62C235.357 14.3833 235.307 14.0867 235.307 13.73C235.307 13.3467 235.364 13.04 235.477 12.81C235.59 12.58 235.737 12.4133 235.917 12.31C236.097 12.2033 236.289 12.15 236.492 12.15C236.699 12.15 236.892 12.2033 237.072 12.31C237.255 12.4167 237.402 12.5867 237.512 12.82C237.625 13.05 237.682 13.3533 237.682 13.73C237.682 14.0833 237.632 14.3783 237.532 14.615C237.432 14.8483 237.292 15.0233 237.112 15.14C236.935 15.2567 236.729 15.315 236.492 15.315ZM236.492 14.975C236.739 14.975 236.93 14.8683 237.067 14.655C237.204 14.4383 237.272 14.13 237.272 13.73C237.272 13.4333 237.235 13.195 237.162 13.015C237.092 12.8317 236.999 12.6983 236.882 12.615C236.765 12.5317 236.635 12.49 236.492 12.49C236.352 12.49 236.222 12.5333 236.102 12.62C235.985 12.7033 235.892 12.8367 235.822 13.02C235.752 13.2033 235.717 13.44 235.717 13.73C235.717 14.13 235.785 14.4383 235.922 14.655C236.059 14.8683 236.249 14.975 236.492 14.975ZM238.972 12.21L238.837 12.505L238.752 13.45C238.809 13.42 238.887 13.3917 238.987 13.365C239.09 13.335 239.199 13.32 239.312 13.32C239.512 13.32 239.692 13.3583 239.852 13.435C240.012 13.5083 240.139 13.6183 240.232 13.765C240.329 13.9083 240.377 14.0867 240.377 14.3C240.377 14.4933 240.332 14.6667 240.242 14.82C240.155 14.9733 240.027 15.095 239.857 15.185C239.69 15.2717 239.485 15.315 239.242 15.315C239.052 15.315 238.885 15.2933 238.742 15.25C238.599 15.2067 238.487 15.1533 238.407 15.09C238.327 15.0267 238.287 14.965 238.287 14.905C238.287 14.8517 238.304 14.805 238.337 14.765C238.374 14.725 238.41 14.6983 238.447 14.685C238.52 14.7483 238.624 14.8133 238.757 14.88C238.89 14.9467 239.052 14.98 239.242 14.98C239.472 14.98 239.65 14.9167 239.777 14.79C239.904 14.66 239.967 14.4967 239.967 14.3C239.967 14.0967 239.902 13.9383 239.772 13.825C239.642 13.7117 239.472 13.655 239.262 13.655C239.145 13.655 239.039 13.6733 238.942 13.71C238.845 13.7467 238.755 13.7883 238.672 13.835C238.582 13.8283 238.509 13.8017 238.452 13.755C238.399 13.705 238.372 13.6417 238.372 13.565C238.372 13.545 238.372 13.52 238.372 13.49C238.375 13.4567 238.379 13.425 238.382 13.395L238.467 12.44C238.474 12.37 238.495 12.315 238.532 12.275C238.569 12.2317 238.622 12.21 238.692 12.21H238.972ZM238.762 12.55V12.21H240.222C240.232 12.2233 240.242 12.245 240.252 12.275C240.262 12.305 240.267 12.3367 240.267 12.37C240.267 12.4233 240.254 12.4667 240.227 12.5C240.2 12.5333 240.162 12.55 240.112 12.55H238.762Z" fill="#A73C4C"/>
<path d="M258.52 14.13H258.115V12.6L257.475 12.9C257.432 12.8833 257.395 12.8583 257.365 12.825C257.338 12.7917 257.325 12.75 257.325 12.7C257.325 12.6033 257.385 12.53 257.505 12.48L258.205 12.175H258.3C258.367 12.175 258.42 12.195 258.46 12.235C258.5 12.275 258.52 12.3283 258.52 12.395V14.13ZM258.115 13.93H258.52V15.255C258.5 15.2617 258.473 15.2683 258.44 15.275C258.407 15.285 258.37 15.29 258.33 15.29C258.26 15.29 258.207 15.275 258.17 15.245C258.133 15.215 258.115 15.1683 258.115 15.105V13.93ZM260.492 15.315C260.259 15.315 260.052 15.2583 259.872 15.145C259.695 15.0283 259.557 14.8533 259.457 14.62C259.357 14.3833 259.307 14.0867 259.307 13.73C259.307 13.3467 259.364 13.04 259.477 12.81C259.59 12.58 259.737 12.4133 259.917 12.31C260.097 12.2033 260.289 12.15 260.492 12.15C260.699 12.15 260.892 12.2033 261.072 12.31C261.255 12.4167 261.402 12.5867 261.512 12.82C261.625 13.05 261.682 13.3533 261.682 13.73C261.682 14.0833 261.632 14.3783 261.532 14.615C261.432 14.8483 261.292 15.0233 261.112 15.14C260.935 15.2567 260.729 15.315 260.492 15.315ZM260.492 14.975C260.739 14.975 260.93 14.8683 261.067 14.655C261.204 14.4383 261.272 14.13 261.272 13.73C261.272 13.4333 261.235 13.195 261.162 13.015C261.092 12.8317 260.999 12.6983 260.882 12.615C260.765 12.5317 260.635 12.49 260.492 12.49C260.352 12.49 260.222 12.5333 260.102 12.62C259.985 12.7033 259.892 12.8367 259.822 13.02C259.752 13.2033 259.717 13.44 259.717 13.73C259.717 14.13 259.785 14.4383 259.922 14.655C260.059 14.8683 260.249 14.975 260.492 14.975ZM262.998 12.145C263.315 12.145 263.57 12.215 263.763 12.355C263.96 12.4917 264.058 12.6983 264.058 12.975C264.058 13.1083 264.03 13.2233 263.973 13.32C263.92 13.4133 263.855 13.4867 263.778 13.54C263.705 13.5933 263.638 13.6283 263.578 13.645C263.668 13.6717 263.756 13.7183 263.843 13.785C263.93 13.8483 264.001 13.9317 264.058 14.035C264.118 14.135 264.148 14.2567 264.148 14.4C264.148 14.6 264.1 14.7667 264.003 14.9C263.906 15.0333 263.773 15.135 263.603 15.205C263.433 15.2717 263.236 15.305 263.013 15.305C262.83 15.305 262.666 15.2867 262.523 15.25C262.383 15.21 262.273 15.16 262.193 15.1C262.113 15.04 262.073 14.9767 262.073 14.91C262.073 14.8633 262.085 14.8233 262.108 14.79C262.135 14.7567 262.168 14.7283 262.208 14.705C262.295 14.7717 262.4 14.8317 262.523 14.885C262.65 14.9383 262.813 14.965 263.013 14.965C263.233 14.965 263.411 14.9183 263.548 14.825C263.685 14.7283 263.753 14.5833 263.753 14.39C263.753 14.22 263.69 14.0833 263.563 13.98C263.436 13.8767 263.253 13.825 263.013 13.825H262.598C262.585 13.8083 262.573 13.785 262.563 13.755C262.553 13.7217 262.548 13.6883 262.548 13.655C262.548 13.6183 262.553 13.585 262.563 13.555C262.573 13.525 262.585 13.5017 262.598 13.485H262.978C263.225 13.485 263.4 13.44 263.503 13.35C263.61 13.2567 263.663 13.135 263.663 12.985C263.663 12.8217 263.603 12.6983 263.483 12.615C263.363 12.5283 263.2 12.485 262.993 12.485C262.833 12.485 262.691 12.51 262.568 12.56C262.448 12.6067 262.348 12.6583 262.268 12.715C262.235 12.6983 262.205 12.6717 262.178 12.635C262.151 12.5983 262.138 12.5583 262.138 12.515C262.138 12.455 262.176 12.3967 262.253 12.34C262.33 12.2833 262.433 12.2367 262.563 12.2C262.693 12.1633 262.838 12.145 262.998 12.145Z" fill="#A73C4C"/>
<path d="M265.52 28.13H265.115V26.6L264.475 26.9C264.432 26.8833 264.395 26.8583 264.365 26.825C264.338 26.7917 264.325 26.75 264.325 26.7C264.325 26.6033 264.385 26.53 264.505 26.48L265.205 26.175H265.3C265.367 26.175 265.42 26.195 265.46 26.235C265.5 26.275 265.52 26.3283 265.52 26.395V28.13ZM265.115 27.93H265.52V29.255C265.5 29.2617 265.473 29.2683 265.44 29.275C265.407 29.285 265.37 29.29 265.33 29.29C265.26 29.29 265.207 29.275 265.17 29.245C265.133 29.215 265.115 29.1683 265.115 29.105V27.93ZM267.492 29.315C267.259 29.315 267.052 29.2583 266.872 29.145C266.695 29.0283 266.557 28.8533 266.457 28.62C266.357 28.3833 266.307 28.0867 266.307 27.73C266.307 27.3467 266.364 27.04 266.477 26.81C266.59 26.58 266.737 26.4133 266.917 26.31C267.097 26.2033 267.289 26.15 267.492 26.15C267.699 26.15 267.892 26.2033 268.072 26.31C268.255 26.4167 268.402 26.5867 268.512 26.82C268.625 27.05 268.682 27.3533 268.682 27.73C268.682 28.0833 268.632 28.3783 268.532 28.615C268.432 28.8483 268.292 29.0233 268.112 29.14C267.935 29.2567 267.729 29.315 267.492 29.315ZM267.492 28.975C267.739 28.975 267.93 28.8683 268.067 28.655C268.204 28.4383 268.272 28.13 268.272 27.73C268.272 27.4333 268.235 27.195 268.162 27.015C268.092 26.8317 267.999 26.6983 267.882 26.615C267.765 26.5317 267.635 26.49 267.492 26.49C267.352 26.49 267.222 26.5333 267.102 26.62C266.985 26.7033 266.892 26.8367 266.822 27.02C266.752 27.2033 266.717 27.44 266.717 27.73C266.717 28.13 266.785 28.4383 266.922 28.655C267.059 28.8683 267.249 28.975 267.492 28.975ZM270.173 28.13H269.768V26.6L269.128 26.9C269.085 26.8833 269.048 26.8583 269.018 26.825C268.992 26.7917 268.978 26.75 268.978 26.7C268.978 26.6033 269.038 26.53 269.158 26.48L269.858 26.175H269.953C270.02 26.175 270.073 26.195 270.113 26.235C270.153 26.275 270.173 26.3283 270.173 26.395V28.13ZM269.768 27.93H270.173V29.255C270.153 29.2617 270.127 29.2683 270.093 29.275C270.06 29.285 270.023 29.29 269.983 29.29C269.913 29.29 269.86 29.275 269.823 29.245C269.787 29.215 269.768 29.1683 269.768 29.105V27.93Z" fill="#A73C4C"/>
<path d="M257.52 41.13H257.115V39.6L256.475 39.9C256.432 39.8833 256.395 39.8583 256.365 39.825C256.338 39.7917 256.325 39.75 256.325 39.7C256.325 39.6033 256.385 39.53 256.505 39.48L257.205 39.175H257.3C257.367 39.175 257.42 39.195 257.46 39.235C257.5 39.275 257.52 39.3283 257.52 39.395V41.13ZM257.115 40.93H257.52V42.255C257.5 42.2617 257.473 42.2683 257.44 42.275C257.407 42.285 257.37 42.29 257.33 42.29C257.26 42.29 257.207 42.275 257.17 42.245C257.133 42.215 257.115 42.1683 257.115 42.105V40.93ZM259.492 42.315C259.259 42.315 259.052 42.2583 258.872 42.145C258.695 42.0283 258.557 41.8533 258.457 41.62C258.357 41.3833 258.307 41.0867 258.307 40.73C258.307 40.3467 258.364 40.04 258.477 39.81C258.59 39.58 258.737 39.4133 258.917 39.31C259.097 39.2033 259.289 39.15 259.492 39.15C259.699 39.15 259.892 39.2033 260.072 39.31C260.255 39.4167 260.402 39.5867 260.512 39.82C260.625 40.05 260.682 40.3533 260.682 40.73C260.682 41.0833 260.632 41.3783 260.532 41.615C260.432 41.8483 260.292 42.0233 260.112 42.14C259.935 42.2567 259.729 42.315 259.492 42.315ZM259.492 41.975C259.739 41.975 259.93 41.8683 260.067 41.655C260.204 41.4383 260.272 41.13 260.272 40.73C260.272 40.4333 260.235 40.195 260.162 40.015C260.092 39.8317 259.999 39.6983 259.882 39.615C259.765 39.5317 259.635 39.49 259.492 39.49C259.352 39.49 259.222 39.5333 259.102 39.62C258.985 39.7033 258.892 39.8367 258.822 40.02C258.752 40.2033 258.717 40.44 258.717 40.73C258.717 41.13 258.785 41.4383 258.922 41.655C259.059 41.8683 259.249 41.975 259.492 41.975ZM261.232 39.525C261.232 39.465 261.271 39.4067 261.347 39.35C261.424 39.29 261.527 39.2417 261.657 39.205C261.787 39.1683 261.929 39.15 262.082 39.15C262.296 39.15 262.479 39.1867 262.632 39.26C262.786 39.33 262.904 39.43 262.987 39.56C263.071 39.69 263.112 39.8433 263.112 40.02C263.112 40.2033 263.061 40.3833 262.957 40.56C262.857 40.7367 262.684 40.9383 262.437 41.165L261.622 41.92H263.107C263.121 41.9333 263.132 41.955 263.142 41.985C263.152 42.0117 263.157 42.0433 263.157 42.08C263.157 42.1333 263.142 42.175 263.112 42.205C263.086 42.235 263.049 42.25 263.002 42.25H261.237C261.204 42.2267 261.179 42.1983 261.162 42.165C261.146 42.1283 261.137 42.09 261.137 42.05C261.137 41.9967 261.147 41.95 261.167 41.91C261.187 41.8667 261.217 41.8267 261.257 41.79L262.157 40.925C262.364 40.7317 262.506 40.57 262.582 40.44C262.659 40.3067 262.697 40.1683 262.697 40.025C262.697 39.8683 262.644 39.74 262.537 39.64C262.431 39.54 262.269 39.49 262.052 39.49C261.906 39.49 261.774 39.515 261.657 39.565C261.544 39.615 261.449 39.6683 261.372 39.725C261.336 39.7083 261.302 39.6833 261.272 39.65C261.246 39.6167 261.232 39.575 261.232 39.525Z" fill="#A73C4C"/>
<path d="M233.52 41.13H233.115V39.6L232.475 39.9C232.432 39.8833 232.395 39.8583 232.365 39.825C232.338 39.7917 232.325 39.75 232.325 39.7C232.325 39.6033 232.385 39.53 232.505 39.48L233.205 39.175H233.3C233.367 39.175 233.42 39.195 233.46 39.235C233.5 39.275 233.52 39.3283 233.52 39.395V41.13ZM233.115 40.93H233.52V42.255C233.5 42.2617 233.473 42.2683 233.44 42.275C233.407 42.285 233.37 42.29 233.33 42.29C233.26 42.29 233.207 42.275 233.17 42.245C233.133 42.215 233.115 42.1683 233.115 42.105V40.93ZM235.492 42.315C235.259 42.315 235.052 42.2583 234.872 42.145C234.695 42.0283 234.557 41.8533 234.457 41.62C234.357 41.3833 234.307 41.0867 234.307 40.73C234.307 40.3467 234.364 40.04 234.477 39.81C234.59 39.58 234.737 39.4133 234.917 39.31C235.097 39.2033 235.289 39.15 235.492 39.15C235.699 39.15 235.892 39.2033 236.072 39.31C236.255 39.4167 236.402 39.5867 236.512 39.82C236.625 40.05 236.682 40.3533 236.682 40.73C236.682 41.0833 236.632 41.3783 236.532 41.615C236.432 41.8483 236.292 42.0233 236.112 42.14C235.935 42.2567 235.729 42.315 235.492 42.315ZM235.492 41.975C235.739 41.975 235.93 41.8683 236.067 41.655C236.204 41.4383 236.272 41.13 236.272 40.73C236.272 40.4333 236.235 40.195 236.162 40.015C236.092 39.8317 235.999 39.6983 235.882 39.615C235.765 39.5317 235.635 39.49 235.492 39.49C235.352 39.49 235.222 39.5333 235.102 39.62C234.985 39.7033 234.892 39.8367 234.822 40.02C234.752 40.2033 234.717 40.44 234.717 40.73C234.717 41.13 234.785 41.4383 234.922 41.655C235.059 41.8683 235.249 41.975 235.492 41.975ZM237.137 41.135L238.592 39.205C238.622 39.1983 238.655 39.1933 238.692 39.19C238.732 39.1833 238.767 39.18 238.797 39.18C238.843 39.18 238.887 39.1867 238.927 39.2C238.97 39.2133 239.005 39.2383 239.032 39.275C239.058 39.3083 239.072 39.3583 239.072 39.425V41.175H239.572C239.582 41.1917 239.592 41.215 239.602 41.245C239.612 41.2717 239.617 41.3033 239.617 41.34C239.617 41.3933 239.603 41.435 239.577 41.465C239.55 41.495 239.512 41.51 239.462 41.51H239.072V42.26C239.055 42.2633 239.03 42.2683 238.997 42.275C238.967 42.285 238.933 42.29 238.897 42.29C238.827 42.29 238.773 42.275 238.737 42.245C238.7 42.215 238.682 42.1717 238.682 42.115V41.51H237.237C237.203 41.4933 237.173 41.4633 237.147 41.42C237.123 41.3767 237.112 41.3283 237.112 41.275C237.112 41.245 237.113 41.22 237.117 41.2C237.123 41.1767 237.13 41.155 237.137 41.135ZM238.687 41.175L238.697 39.6H238.687L237.577 41.175H238.687Z" fill="#A73C4C"/>
<path d="M216.52 44.13H216.115V42.6L215.475 42.9C215.432 42.8833 215.395 42.8583 215.365 42.825C215.338 42.7917 215.325 42.75 215.325 42.7C215.325 42.6033 215.385 42.53 215.505 42.48L216.205 42.175H216.3C216.367 42.175 216.42 42.195 216.46 42.235C216.5 42.275 216.52 42.3283 216.52 42.395V44.13ZM216.115 43.93H216.52V45.255C216.5 45.2617 216.473 45.2683 216.44 45.275C216.407 45.285 216.37 45.29 216.33 45.29C216.26 45.29 216.207 45.275 216.17 45.245C216.133 45.215 216.115 45.1683 216.115 45.105V43.93ZM218.492 45.315C218.259 45.315 218.052 45.2583 217.872 45.145C217.695 45.0283 217.557 44.8533 217.457 44.62C217.357 44.3833 217.307 44.0867 217.307 43.73C217.307 43.3467 217.364 43.04 217.477 42.81C217.59 42.58 217.737 42.4133 217.917 42.31C218.097 42.2033 218.289 42.15 218.492 42.15C218.699 42.15 218.892 42.2033 219.072 42.31C219.255 42.4167 219.402 42.5867 219.512 42.82C219.625 43.05 219.682 43.3533 219.682 43.73C219.682 44.0833 219.632 44.3783 219.532 44.615C219.432 44.8483 219.292 45.0233 219.112 45.14C218.935 45.2567 218.729 45.315 218.492 45.315ZM218.492 44.975C218.739 44.975 218.93 44.8683 219.067 44.655C219.204 44.4383 219.272 44.13 219.272 43.73C219.272 43.4333 219.235 43.195 219.162 43.015C219.092 42.8317 218.999 42.6983 218.882 42.615C218.765 42.5317 218.635 42.49 218.492 42.49C218.352 42.49 218.222 42.5333 218.102 42.62C217.985 42.7033 217.892 42.8367 217.822 43.02C217.752 43.2033 217.717 43.44 217.717 43.73C217.717 44.13 217.785 44.4383 217.922 44.655C218.059 44.8683 218.249 44.975 218.492 44.975ZM222.227 42.445C222.227 42.485 222.215 42.5233 222.192 42.56C222.172 42.5933 222.145 42.6183 222.112 42.635C222.039 42.5983 221.955 42.5667 221.862 42.54C221.772 42.51 221.674 42.495 221.567 42.495C221.307 42.495 221.087 42.5883 220.907 42.775C220.73 42.9617 220.637 43.2533 220.627 43.65C220.694 43.5833 220.795 43.5133 220.932 43.44C221.072 43.3633 221.244 43.325 221.447 43.325C221.74 43.325 221.982 43.4083 222.172 43.575C222.362 43.7417 222.457 43.9883 222.457 44.315C222.457 44.5217 222.412 44.7 222.322 44.85C222.235 45 222.112 45.115 221.952 45.195C221.795 45.275 221.609 45.315 221.392 45.315C221.169 45.315 220.969 45.265 220.792 45.165C220.615 45.0617 220.475 44.9017 220.372 44.685C220.272 44.465 220.222 44.1783 220.222 43.825C220.222 43.5117 220.259 43.2483 220.332 43.035C220.409 42.8183 220.51 42.6467 220.637 42.52C220.764 42.39 220.907 42.2967 221.067 42.24C221.227 42.18 221.39 42.15 221.557 42.15C221.674 42.15 221.782 42.1617 221.882 42.185C221.985 42.2083 222.069 42.2417 222.132 42.285C222.195 42.3283 222.227 42.3817 222.227 42.445ZM221.392 44.98C221.585 44.98 221.744 44.9217 221.867 44.805C221.99 44.685 222.052 44.5183 222.052 44.305C222.052 44.0883 221.989 43.9283 221.862 43.825C221.739 43.7183 221.585 43.665 221.402 43.665C221.219 43.665 221.06 43.705 220.927 43.785C220.794 43.8617 220.689 43.955 220.612 44.065L220.627 44.03C220.627 44.3133 220.694 44.5433 220.827 44.72C220.96 44.8933 221.149 44.98 221.392 44.98Z" fill="#A73C4C"/>
<path d="M193.52 41.13H193.115V39.6L192.475 39.9C192.432 39.8833 192.395 39.8583 192.365 39.825C192.338 39.7917 192.325 39.75 192.325 39.7C192.325 39.6033 192.385 39.53 192.505 39.48L193.205 39.175H193.3C193.367 39.175 193.42 39.195 193.46 39.235C193.5 39.275 193.52 39.3283 193.52 39.395V41.13ZM193.115 40.93H193.52V42.255C193.5 42.2617 193.473 42.2683 193.44 42.275C193.407 42.285 193.37 42.29 193.33 42.29C193.26 42.29 193.207 42.275 193.17 42.245C193.133 42.215 193.115 42.1683 193.115 42.105V40.93ZM195.492 42.315C195.259 42.315 195.052 42.2583 194.872 42.145C194.695 42.0283 194.557 41.8533 194.457 41.62C194.357 41.3833 194.307 41.0867 194.307 40.73C194.307 40.3467 194.364 40.04 194.477 39.81C194.59 39.58 194.737 39.4133 194.917 39.31C195.097 39.2033 195.289 39.15 195.492 39.15C195.699 39.15 195.892 39.2033 196.072 39.31C196.255 39.4167 196.402 39.5867 196.512 39.82C196.625 40.05 196.682 40.3533 196.682 40.73C196.682 41.0833 196.632 41.3783 196.532 41.615C196.432 41.8483 196.292 42.0233 196.112 42.14C195.935 42.2567 195.729 42.315 195.492 42.315ZM195.492 41.975C195.739 41.975 195.93 41.8683 196.067 41.655C196.204 41.4383 196.272 41.13 196.272 40.73C196.272 40.4333 196.235 40.195 196.162 40.015C196.092 39.8317 195.999 39.6983 195.882 39.615C195.765 39.5317 195.635 39.49 195.492 39.49C195.352 39.49 195.222 39.5333 195.102 39.62C194.985 39.7033 194.892 39.8367 194.822 40.02C194.752 40.2033 194.717 40.44 194.717 40.73C194.717 41.13 194.785 41.4383 194.922 41.655C195.059 41.8683 195.249 41.975 195.492 41.975ZM198.377 42.315C198.15 42.315 197.952 42.2817 197.782 42.215C197.612 42.145 197.48 42.045 197.387 41.915C197.294 41.785 197.247 41.6283 197.247 41.445C197.247 41.2817 197.284 41.1433 197.357 41.03C197.434 40.9133 197.53 40.82 197.647 40.75C197.764 40.68 197.885 40.6333 198.012 40.61L198.312 40.56C198.552 40.5133 198.732 40.445 198.852 40.355C198.972 40.2617 199.032 40.1383 199.032 39.985C199.032 39.8283 198.974 39.7067 198.857 39.62C198.74 39.53 198.58 39.485 198.377 39.485C198.18 39.485 198.022 39.53 197.902 39.62C197.782 39.71 197.722 39.83 197.722 39.98C197.722 40.1067 197.755 40.2083 197.822 40.285C197.892 40.3617 197.984 40.42 198.097 40.46C198.214 40.4967 198.34 40.5217 198.477 40.535L198.697 40.61C198.834 40.6367 198.964 40.685 199.087 40.755C199.21 40.8217 199.31 40.9117 199.387 41.025C199.464 41.1383 199.502 41.28 199.502 41.45C199.502 41.63 199.454 41.785 199.357 41.915C199.264 42.045 199.132 42.145 198.962 42.215C198.795 42.2817 198.6 42.315 198.377 42.315ZM198.377 41.98C198.594 41.98 198.769 41.9333 198.902 41.84C199.035 41.7467 199.102 41.6117 199.102 41.435C199.102 41.2417 199.02 41.0883 198.857 40.975C198.697 40.8617 198.482 40.7967 198.212 40.78L197.957 40.705C197.764 40.6517 197.609 40.565 197.492 40.445C197.379 40.325 197.322 40.1683 197.322 39.975C197.322 39.805 197.365 39.6583 197.452 39.535C197.542 39.4117 197.665 39.3167 197.822 39.25C197.982 39.1833 198.167 39.15 198.377 39.15C198.704 39.15 198.96 39.225 199.147 39.375C199.337 39.5217 199.432 39.725 199.432 39.985C199.432 40.195 199.36 40.36 199.217 40.48C199.077 40.6 198.905 40.6783 198.702 40.715L198.362 40.785C198.149 40.8183 197.975 40.8917 197.842 41.005C197.712 41.115 197.647 41.26 197.647 41.44C197.647 41.61 197.712 41.7433 197.842 41.84C197.972 41.9333 198.15 41.98 198.377 41.98Z" fill="#A73C4C"/>
<path d="M183.52 41.13H183.115V39.6L182.475 39.9C182.432 39.8833 182.395 39.8583 182.365 39.825C182.338 39.7917 182.325 39.75 182.325 39.7C182.325 39.6033 182.385 39.53 182.505 39.48L183.205 39.175H183.3C183.367 39.175 183.42 39.195 183.46 39.235C183.5 39.275 183.52 39.3283 183.52 39.395V41.13ZM183.115 40.93H183.52V42.255C183.5 42.2617 183.473 42.2683 183.44 42.275C183.407 42.285 183.37 42.29 183.33 42.29C183.26 42.29 183.207 42.275 183.17 42.245C183.133 42.215 183.115 42.1683 183.115 42.105V40.93ZM185.332 41.13H184.927V39.6L184.287 39.9C184.243 39.8833 184.207 39.8583 184.177 39.825C184.15 39.7917 184.137 39.75 184.137 39.7C184.137 39.6033 184.197 39.53 184.317 39.48L185.017 39.175H185.112C185.178 39.175 185.232 39.195 185.272 39.235C185.312 39.275 185.332 39.3283 185.332 39.395V41.13ZM184.927 40.93H185.332V42.255C185.312 42.2617 185.285 42.2683 185.252 42.275C185.218 42.285 185.182 42.29 185.142 42.29C185.072 42.29 185.018 42.275 184.982 42.245C184.945 42.215 184.927 42.1683 184.927 42.105V40.93ZM187.304 42.315C187.07 42.315 186.864 42.2583 186.684 42.145C186.507 42.0283 186.369 41.8533 186.269 41.62C186.169 41.3833 186.119 41.0867 186.119 40.73C186.119 40.3467 186.175 40.04 186.289 39.81C186.402 39.58 186.549 39.4133 186.729 39.31C186.909 39.2033 187.1 39.15 187.304 39.15C187.51 39.15 187.704 39.2033 187.884 39.31C188.067 39.4167 188.214 39.5867 188.324 39.82C188.437 40.05 188.494 40.3533 188.494 40.73C188.494 41.0833 188.444 41.3783 188.344 41.615C188.244 41.8483 188.104 42.0233 187.924 42.14C187.747 42.2567 187.54 42.315 187.304 42.315ZM187.304 41.975C187.55 41.975 187.742 41.8683 187.879 41.655C188.015 41.4383 188.084 41.13 188.084 40.73C188.084 40.4333 188.047 40.195 187.974 40.015C187.904 39.8317 187.81 39.6983 187.694 39.615C187.577 39.5317 187.447 39.49 187.304 39.49C187.164 39.49 187.034 39.5333 186.914 39.62C186.797 39.7033 186.704 39.8367 186.634 40.02C186.564 40.2033 186.529 40.44 186.529 40.73C186.529 41.13 186.597 41.4383 186.734 41.655C186.87 41.8683 187.06 41.975 187.304 41.975Z" fill="#A73C4C"/>
<path d="M171.52 41.13H171.115V39.6L170.475 39.9C170.432 39.8833 170.395 39.8583 170.365 39.825C170.338 39.7917 170.325 39.75 170.325 39.7C170.325 39.6033 170.385 39.53 170.505 39.48L171.205 39.175H171.3C171.367 39.175 171.42 39.195 171.46 39.235C171.5 39.275 171.52 39.3283 171.52 39.395V41.13ZM171.115 40.93H171.52V42.255C171.5 42.2617 171.473 42.2683 171.44 42.275C171.407 42.285 171.37 42.29 171.33 42.29C171.26 42.29 171.207 42.275 171.17 42.245C171.133 42.215 171.115 42.1683 171.115 42.105V40.93ZM173.332 41.13H172.927V39.6L172.287 39.9C172.243 39.8833 172.207 39.8583 172.177 39.825C172.15 39.7917 172.137 39.75 172.137 39.7C172.137 39.6033 172.197 39.53 172.317 39.48L173.017 39.175H173.112C173.178 39.175 173.232 39.195 173.272 39.235C173.312 39.275 173.332 39.3283 173.332 39.395V41.13ZM172.927 40.93H173.332V42.255C173.312 42.2617 173.285 42.2683 173.252 42.275C173.218 42.285 173.182 42.29 173.142 42.29C173.072 42.29 173.018 42.275 172.982 42.245C172.945 42.215 172.927 42.1683 172.927 42.105V40.93ZM174.182 39.525C174.182 39.465 174.221 39.4067 174.297 39.35C174.374 39.29 174.477 39.2417 174.607 39.205C174.737 39.1683 174.879 39.15 175.032 39.15C175.246 39.15 175.429 39.1867 175.582 39.26C175.736 39.33 175.854 39.43 175.937 39.56C176.021 39.69 176.062 39.8433 176.062 40.02C176.062 40.2033 176.011 40.3833 175.907 40.56C175.807 40.7367 175.634 40.9383 175.387 41.165L174.572 41.92H176.057C176.071 41.9333 176.082 41.955 176.092 41.985C176.102 42.0117 176.107 42.0433 176.107 42.08C176.107 42.1333 176.092 42.175 176.062 42.205C176.036 42.235 175.999 42.25 175.952 42.25H174.187C174.154 42.2267 174.129 42.1983 174.112 42.165C174.096 42.1283 174.087 42.09 174.087 42.05C174.087 41.9967 174.097 41.95 174.117 41.91C174.137 41.8667 174.167 41.8267 174.207 41.79L175.107 40.925C175.314 40.7317 175.456 40.57 175.532 40.44C175.609 40.3067 175.647 40.1683 175.647 40.025C175.647 39.8683 175.594 39.74 175.487 39.64C175.381 39.54 175.219 39.49 175.002 39.49C174.856 39.49 174.724 39.515 174.607 39.565C174.494 39.615 174.399 39.6683 174.322 39.725C174.286 39.7083 174.252 39.6833 174.222 39.65C174.196 39.6167 174.182 39.575 174.182 39.525Z" fill="#A73C4C"/>
<path d="M160.52 41.13H160.115V39.6L159.475 39.9C159.432 39.8833 159.395 39.8583 159.365 39.825C159.338 39.7917 159.325 39.75 159.325 39.7C159.325 39.6033 159.385 39.53 159.505 39.48L160.205 39.175H160.3C160.367 39.175 160.42 39.195 160.46 39.235C160.5 39.275 160.52 39.3283 160.52 39.395V41.13ZM160.115 40.93H160.52V42.255C160.5 42.2617 160.473 42.2683 160.44 42.275C160.407 42.285 160.37 42.29 160.33 42.29C160.26 42.29 160.207 42.275 160.17 42.245C160.133 42.215 160.115 42.1683 160.115 42.105V40.93ZM162.332 41.13H161.927V39.6L161.287 39.9C161.243 39.8833 161.207 39.8583 161.177 39.825C161.15 39.7917 161.137 39.75 161.137 39.7C161.137 39.6033 161.197 39.53 161.317 39.48L162.017 39.175H162.112C162.178 39.175 162.232 39.195 162.272 39.235C162.312 39.275 162.332 39.3283 162.332 39.395V41.13ZM161.927 40.93H162.332V42.255C162.312 42.2617 162.285 42.2683 162.252 42.275C162.218 42.285 162.182 42.29 162.142 42.29C162.072 42.29 162.018 42.275 161.982 42.245C161.945 42.215 161.927 42.1683 161.927 42.105V40.93ZM163.033 41.135L164.488 39.205C164.518 39.1983 164.551 39.1933 164.588 39.19C164.628 39.1833 164.663 39.18 164.693 39.18C164.74 39.18 164.783 39.1867 164.823 39.2C164.866 39.2133 164.901 39.2383 164.928 39.275C164.955 39.3083 164.968 39.3583 164.968 39.425V41.175H165.468C165.478 41.1917 165.488 41.215 165.498 41.245C165.508 41.2717 165.513 41.3033 165.513 41.34C165.513 41.3933 165.5 41.435 165.473 41.465C165.446 41.495 165.408 41.51 165.358 41.51H164.968V42.26C164.951 42.2633 164.926 42.2683 164.893 42.275C164.863 42.285 164.83 42.29 164.793 42.29C164.723 42.29 164.67 42.275 164.633 42.245C164.596 42.215 164.578 42.1717 164.578 42.115V41.51H163.133C163.1 41.4933 163.07 41.4633 163.043 41.42C163.02 41.3767 163.008 41.3283 163.008 41.275C163.008 41.245 163.01 41.22 163.013 41.2C163.02 41.1767 163.026 41.155 163.033 41.135ZM164.583 41.175L164.593 39.6H164.583L163.473 41.175H164.583Z" fill="#A73C4C"/>
<path d="M131.52 41.13H131.115V39.6L130.475 39.9C130.432 39.8833 130.395 39.8583 130.365 39.825C130.338 39.7917 130.325 39.75 130.325 39.7C130.325 39.6033 130.385 39.53 130.505 39.48L131.205 39.175H131.3C131.367 39.175 131.42 39.195 131.46 39.235C131.5 39.275 131.52 39.3283 131.52 39.395V41.13ZM131.115 40.93H131.52V42.255C131.5 42.2617 131.473 42.2683 131.44 42.275C131.407 42.285 131.37 42.29 131.33 42.29C131.26 42.29 131.207 42.275 131.17 42.245C131.133 42.215 131.115 42.1683 131.115 42.105V40.93ZM133.332 41.13H132.927V39.6L132.287 39.9C132.243 39.8833 132.207 39.8583 132.177 39.825C132.15 39.7917 132.137 39.75 132.137 39.7C132.137 39.6033 132.197 39.53 132.317 39.48L133.017 39.175H133.112C133.178 39.175 133.232 39.195 133.272 39.235C133.312 39.275 133.332 39.3283 133.332 39.395V41.13ZM132.927 40.93H133.332V42.255C133.312 42.2617 133.285 42.2683 133.252 42.275C133.218 42.285 133.182 42.29 133.142 42.29C133.072 42.29 133.018 42.275 132.982 42.245C132.945 42.215 132.927 42.1683 132.927 42.105V40.93ZM136.153 39.445C136.153 39.485 136.141 39.5233 136.118 39.56C136.098 39.5933 136.071 39.6183 136.038 39.635C135.965 39.5983 135.881 39.5667 135.788 39.54C135.698 39.51 135.6 39.495 135.493 39.495C135.233 39.495 135.013 39.5883 134.833 39.775C134.656 39.9617 134.563 40.2533 134.553 40.65C134.62 40.5833 134.721 40.5133 134.858 40.44C134.998 40.3633 135.17 40.325 135.373 40.325C135.666 40.325 135.908 40.4083 136.098 40.575C136.288 40.7417 136.383 40.9883 136.383 41.315C136.383 41.5217 136.338 41.7 136.248 41.85C136.161 42 136.038 42.115 135.878 42.195C135.721 42.275 135.535 42.315 135.318 42.315C135.095 42.315 134.895 42.265 134.718 42.165C134.541 42.0617 134.401 41.9017 134.298 41.685C134.198 41.465 134.148 41.1783 134.148 40.825C134.148 40.5117 134.185 40.2483 134.258 40.035C134.335 39.8183 134.436 39.6467 134.563 39.52C134.69 39.39 134.833 39.2967 134.993 39.24C135.153 39.18 135.316 39.15 135.483 39.15C135.6 39.15 135.708 39.1617 135.808 39.185C135.911 39.2083 135.995 39.2417 136.058 39.285C136.121 39.3283 136.153 39.3817 136.153 39.445ZM135.318 41.98C135.511 41.98 135.67 41.9217 135.793 41.805C135.916 41.685 135.978 41.5183 135.978 41.305C135.978 41.0883 135.915 40.9283 135.788 40.825C135.665 40.7183 135.511 40.665 135.328 40.665C135.145 40.665 134.986 40.705 134.853 40.785C134.72 40.8617 134.615 40.955 134.538 41.065L134.553 41.03C134.553 41.3133 134.62 41.5433 134.753 41.72C134.886 41.8933 135.075 41.98 135.318 41.98Z" fill="#A73C4C"/>
<path d="M112.52 49.13H112.115V47.6L111.475 47.9C111.432 47.8833 111.395 47.8583 111.365 47.825C111.338 47.7917 111.325 47.75 111.325 47.7C111.325 47.6033 111.385 47.53 111.505 47.48L112.205 47.175H112.3C112.367 47.175 112.42 47.195 112.46 47.235C112.5 47.275 112.52 47.3283 112.52 47.395V49.13ZM112.115 48.93H112.52V50.255C112.5 50.2617 112.473 50.2683 112.44 50.275C112.407 50.285 112.37 50.29 112.33 50.29C112.26 50.29 112.207 50.275 112.17 50.245C112.133 50.215 112.115 50.1683 112.115 50.105V48.93ZM113.371 47.525C113.371 47.465 113.409 47.4067 113.486 47.35C113.563 47.29 113.666 47.2417 113.796 47.205C113.926 47.1683 114.068 47.15 114.221 47.15C114.434 47.15 114.618 47.1867 114.771 47.26C114.924 47.33 115.043 47.43 115.126 47.56C115.209 47.69 115.251 47.8433 115.251 48.02C115.251 48.2033 115.199 48.3833 115.096 48.56C114.996 48.7367 114.823 48.9383 114.576 49.165L113.761 49.92H115.246C115.259 49.9333 115.271 49.955 115.281 49.985C115.291 50.0117 115.296 50.0433 115.296 50.08C115.296 50.1333 115.281 50.175 115.251 50.205C115.224 50.235 115.188 50.25 115.141 50.25H113.376C113.343 50.2267 113.318 50.1983 113.301 50.165C113.284 50.1283 113.276 50.09 113.276 50.05C113.276 49.9967 113.286 49.95 113.306 49.91C113.326 49.8667 113.356 49.8267 113.396 49.79L114.296 48.925C114.503 48.7317 114.644 48.57 114.721 48.44C114.798 48.3067 114.836 48.1683 114.836 48.025C114.836 47.8683 114.783 47.74 114.676 47.64C114.569 47.54 114.408 47.49 114.191 47.49C114.044 47.49 113.913 47.515 113.796 47.565C113.683 47.615 113.588 47.6683 113.511 47.725C113.474 47.7083 113.441 47.6833 113.411 47.65C113.384 47.6167 113.371 47.575 113.371 47.525ZM117.031 50.315C116.798 50.315 116.591 50.2583 116.411 50.145C116.235 50.0283 116.096 49.8533 115.996 49.62C115.896 49.3833 115.846 49.0867 115.846 48.73C115.846 48.3467 115.903 48.04 116.016 47.81C116.13 47.58 116.276 47.4133 116.456 47.31C116.636 47.2033 116.828 47.15 117.031 47.15C117.238 47.15 117.431 47.2033 117.611 47.31C117.795 47.4167 117.941 47.5867 118.051 47.82C118.165 48.05 118.221 48.3533 118.221 48.73C118.221 49.0833 118.171 49.3783 118.071 49.615C117.971 49.8483 117.831 50.0233 117.651 50.14C117.475 50.2567 117.268 50.315 117.031 50.315ZM117.031 49.975C117.278 49.975 117.47 49.8683 117.606 49.655C117.743 49.4383 117.811 49.13 117.811 48.73C117.811 48.4333 117.775 48.195 117.701 48.015C117.631 47.8317 117.538 47.6983 117.421 47.615C117.305 47.5317 117.175 47.49 117.031 47.49C116.891 47.49 116.761 47.5333 116.641 47.62C116.525 47.7033 116.431 47.8367 116.361 48.02C116.291 48.2033 116.256 48.44 116.256 48.73C116.256 49.13 116.325 49.4383 116.461 49.655C116.598 49.8683 116.788 49.975 117.031 49.975Z" fill="#A73C4C"/>
<path d="M98.52 49.13H98.115V47.6L97.475 47.9C97.4317 47.8833 97.395 47.8583 97.365 47.825C97.3383 47.7917 97.325 47.75 97.325 47.7C97.325 47.6033 97.385 47.53 97.505 47.48L98.205 47.175H98.3C98.3667 47.175 98.42 47.195 98.46 47.235C98.5 47.275 98.52 47.3283 98.52 47.395V49.13ZM98.115 48.93H98.52V50.255C98.5 50.2617 98.4733 50.2683 98.44 50.275C98.4067 50.285 98.37 50.29 98.33 50.29C98.26 50.29 98.2067 50.275 98.17 50.245C98.1333 50.215 98.115 50.1683 98.115 50.105V48.93ZM99.3709 47.525C99.3709 47.465 99.4093 47.4067 99.4859 47.35C99.5626 47.29 99.6659 47.2417 99.7959 47.205C99.9259 47.1683 100.068 47.15 100.221 47.15C100.434 47.15 100.618 47.1867 100.771 47.26C100.924 47.33 101.043 47.43 101.126 47.56C101.209 47.69 101.251 47.8433 101.251 48.02C101.251 48.2033 101.199 48.3833 101.096 48.56C100.996 48.7367 100.823 48.9383 100.576 49.165L99.7609 49.92H101.246C101.259 49.9333 101.271 49.955 101.281 49.985C101.291 50.0117 101.296 50.0433 101.296 50.08C101.296 50.1333 101.281 50.175 101.251 50.205C101.224 50.235 101.188 50.25 101.141 50.25H99.3759C99.3426 50.2267 99.3176 50.1983 99.3009 50.165C99.2843 50.1283 99.2759 50.09 99.2759 50.05C99.2759 49.9967 99.2859 49.95 99.3059 49.91C99.3259 49.8667 99.3559 49.8267 99.3959 49.79L100.296 48.925C100.503 48.7317 100.644 48.57 100.721 48.44C100.798 48.3067 100.836 48.1683 100.836 48.025C100.836 47.8683 100.783 47.74 100.676 47.64C100.569 47.54 100.408 47.49 100.191 47.49C100.044 47.49 99.9126 47.515 99.7959 47.565C99.6826 47.615 99.5876 47.6683 99.5109 47.725C99.4743 47.7083 99.4409 47.6833 99.4109 47.65C99.3843 47.6167 99.3709 47.575 99.3709 47.525ZM103.851 47.445C103.851 47.485 103.84 47.5233 103.816 47.56C103.796 47.5933 103.77 47.6183 103.736 47.635C103.663 47.5983 103.58 47.5667 103.486 47.54C103.396 47.51 103.298 47.495 103.191 47.495C102.931 47.495 102.711 47.5883 102.531 47.775C102.355 47.9617 102.261 48.2533 102.251 48.65C102.318 48.5833 102.42 48.5133 102.556 48.44C102.696 48.3633 102.868 48.325 103.071 48.325C103.365 48.325 103.606 48.4083 103.796 48.575C103.986 48.7417 104.081 48.9883 104.081 49.315C104.081 49.5217 104.036 49.7 103.946 49.85C103.86 50 103.736 50.115 103.576 50.195C103.42 50.275 103.233 50.315 103.016 50.315C102.793 50.315 102.593 50.265 102.416 50.165C102.24 50.0617 102.1 49.9017 101.996 49.685C101.896 49.465 101.846 49.1783 101.846 48.825C101.846 48.5117 101.883 48.2483 101.956 48.035C102.033 47.8183 102.135 47.6467 102.261 47.52C102.388 47.39 102.531 47.2967 102.691 47.24C102.851 47.18 103.015 47.15 103.181 47.15C103.298 47.15 103.406 47.1617 103.506 47.185C103.61 47.2083 103.693 47.2417 103.756 47.285C103.82 47.3283 103.851 47.3817 103.851 47.445ZM103.016 49.98C103.21 49.98 103.368 49.9217 103.491 49.805C103.615 49.685 103.676 49.5183 103.676 49.305C103.676 49.0883 103.613 48.9283 103.486 48.825C103.363 48.7183 103.21 48.665 103.026 48.665C102.843 48.665 102.685 48.705 102.551 48.785C102.418 48.8617 102.313 48.955 102.236 49.065L102.251 49.03C102.251 49.3133 102.318 49.5433 102.451 49.72C102.585 49.8933 102.773 49.98 103.016 49.98Z" fill="#A73C4C"/>
<path d="M91.37 38.52L91.37 38.115L92.9 38.115L92.6 37.475C92.6167 37.4317 92.6417 37.395 92.675 37.365C92.7083 37.3383 92.75 37.325 92.8 37.325C92.8967 37.325 92.97 37.385 93.02 37.505L93.325 38.205L93.325 38.3C93.325 38.3667 93.305 38.42 93.265 38.46C93.225 38.5 93.1717 38.52 93.105 38.52L91.37 38.52ZM91.57 38.115L91.57 38.52L90.245 38.52C90.2383 38.5 90.2317 38.4733 90.225 38.44C90.215 38.4067 90.21 38.37 90.21 38.33C90.21 38.26 90.225 38.2067 90.255 38.17C90.285 38.1333 90.3317 38.115 90.395 38.115L91.57 38.115ZM92.975 39.3709C93.035 39.3709 93.0933 39.4093 93.15 39.4859C93.21 39.5626 93.2583 39.6659 93.295 39.7959C93.3317 39.9259 93.35 40.0676 93.35 40.2209C93.35 40.4343 93.3133 40.6176 93.24 40.7709C93.17 40.9243 93.07 41.0426 92.94 41.1259C92.81 41.2093 92.6567 41.2509 92.48 41.2509C92.2967 41.2509 92.1167 41.1993 91.94 41.0959C91.7633 40.9959 91.5617 40.8226 91.335 40.5759L90.58 39.7609L90.58 41.2459C90.5667 41.2593 90.545 41.2709 90.515 41.2809C90.4883 41.2909 90.4567 41.2959 90.42 41.2959C90.3667 41.2959 90.325 41.2809 90.295 41.2509C90.265 41.2243 90.25 41.1876 90.25 41.1409L90.25 39.3759C90.2733 39.3426 90.3017 39.3176 90.335 39.3009C90.3717 39.2843 90.41 39.2759 90.45 39.2759C90.5033 39.2759 90.55 39.2859 90.59 39.3059C90.6333 39.3259 90.6733 39.3559 90.71 39.3959L91.575 40.2959C91.7683 40.5026 91.93 40.6443 92.06 40.7209C92.1933 40.7976 92.3317 40.8359 92.475 40.8359C92.6317 40.8359 92.76 40.7826 92.86 40.6759C92.96 40.5693 93.01 40.4076 93.01 40.1909C93.01 40.0443 92.985 39.9126 92.935 39.7959C92.885 39.6826 92.8317 39.5876 92.775 39.5109C92.7917 39.4743 92.8167 39.4409 92.85 39.4109C92.8833 39.3843 92.925 39.3709 92.975 39.3709ZM90.185 42.9816C90.185 42.755 90.2183 42.5566 90.285 42.3866C90.355 42.2166 90.455 42.085 90.585 41.9916C90.715 41.8983 90.8717 41.8516 91.055 41.8516C91.2183 41.8516 91.3567 41.8883 91.47 41.9616C91.5867 42.0383 91.68 42.135 91.75 42.2516C91.82 42.3683 91.8667 42.49 91.89 42.6166L91.94 42.9166C91.9867 43.1566 92.055 43.3366 92.145 43.4566C92.2383 43.5766 92.3617 43.6366 92.515 43.6366C92.6717 43.6366 92.7933 43.5783 92.88 43.4616C92.97 43.345 93.015 43.185 93.015 42.9816C93.015 42.785 92.97 42.6266 92.88 42.5066C92.79 42.3866 92.67 42.3266 92.52 42.3266C92.3933 42.3266 92.2917 42.36 92.215 42.4266C92.1383 42.4966 92.08 42.5883 92.04 42.7016C92.0033 42.8183 91.9783 42.945 91.965 43.0816L91.89 43.3016C91.8633 43.4383 91.815 43.5683 91.745 43.6916C91.6783 43.815 91.5883 43.915 91.475 43.9916C91.3617 44.0683 91.22 44.1066 91.05 44.1066C90.87 44.1066 90.715 44.0583 90.585 43.9616C90.455 43.8683 90.355 43.7366 90.285 43.5666C90.2183 43.4 90.185 43.205 90.185 42.9816ZM90.52 42.9816C90.52 43.1983 90.5667 43.3733 90.66 43.5066C90.7533 43.64 90.8883 43.7066 91.065 43.7066C91.2583 43.7066 91.4117 43.625 91.525 43.4616C91.6383 43.3016 91.7033 43.0866 91.72 42.8166L91.795 42.5616C91.8483 42.3683 91.935 42.2133 92.055 42.0966C92.175 41.9833 92.3317 41.9266 92.525 41.9266C92.695 41.9266 92.8417 41.97 92.965 42.0566C93.0883 42.1466 93.1833 42.27 93.25 42.4266C93.3167 42.5866 93.35 42.7716 93.35 42.9816C93.35 43.3083 93.275 43.565 93.125 43.7516C92.9783 43.9416 92.775 44.0366 92.515 44.0366C92.305 44.0366 92.14 43.965 92.02 43.8216C91.9 43.6816 91.8217 43.51 91.785 43.3066L91.715 42.9666C91.6817 42.7533 91.6083 42.58 91.495 42.4466C91.385 42.3166 91.24 42.2516 91.06 42.2516C90.89 42.2516 90.7567 42.3166 90.66 42.4466C90.5667 42.5766 90.52 42.755 90.52 42.9816Z" fill="#A73C4C"/>
</svg>
