<svg width="120" height="212" viewBox="0 0 120 212" fill="none" xmlns="http://www.w3.org/2000/svg">
<path d="M0.25 2.25H117.962V36.75H93.6234V91.75H115.58V125.015H93.5367V177.75H116.25V208.75H6.12832V177.75H56.75V125.25H50.25V114.75H47.75V102.25H50.25V91.75H56.75V36.75H0.25V2.25Z" fill="white"/>
<path d="M56.25 208.604L116.176 208.604V177.591H93.585V125.108H115.581V108.793" stroke="#A73C4C" stroke-width="0.5"/>
<path d="M54.6337 2.25H117.959V36.8412H93.585V91.7099H115.581L115.581 103" stroke="#A73C4C" stroke-width="0.5"/>
<path d="M48.25 2.25H0.25V36.8412H56.7266V91.7099H50.1872V102.25H47.75V114.75H50.1872V125.108H56.7266V177.591H6.19489V178.25" stroke="#A73C4C" stroke-width="0.5"/>
<path d="M6.19489 182.25V208.604H49.9184" stroke="#A73C4C" stroke-width="0.5"/>
<path d="M81.5 2.25V26.25M10.25 12.25V29.25M20.5 2.25V29.25M10.25 33.0772V36.9341M20.5 33.0772V36.9341M31 33.0772V36.9341M46.5 33.0772V36.9341M56.4766 33.0772V36.75M31 26.25V29.25M46 24.0211V26.25M56.4766 24.25V29.25M46 2.25V20.25M56.4766 2.25V20.25M72.5 2.25V26.25M91 2.25V27.25M102.5 2.25V26.25M91 30.25V32.75M91 35.75V36.8412M82.5 36.96V66.75M82.5 70.75V78.75M76 61.25V85.75M76 89.75V94.75M76 98.75V106.75M82.5 82.75V94.75M82.5 98.75V101.75H90M93.5863 91.75V97.75M93.5863 100.851V102M89.25 96.75V101.75M107.25 91.75V97.75M107.25 100.75V101.75M104.25 110.25V111.25M104.25 114.25V118.25M104.25 122.25V125.25M93.585 122.25V125.25M93.25 114.25V118.25M93.25 110.25V111.25M76 110.903V117.25M76 121.25V132.909M82.75 125.108V128.75M82.75 132.909V139.25M76 136.996V169.75M76 174.25L76 177.75M82.75 143.25V147.75M82.75 151.75V169.75M82.75 174.25L82.75 178.443M82.75 181.75V183.75M82.75 187.25V208.604M95.25 177.75V191.25M103.75 188.75V191.25M95.25 194.75V208.604M103.75 194.75V203.75M103.75 207.25V208.604M70.25 188.75V193.25M70.25 196.75V208.604M57.75 188.75V208.604M48.75 188.75V208.604M49.75 184.25V188.75M49.75 177.75V180.75M27.25 177.75V190.75M27.25 194.25V208.75M21.25 177.75V187.75M13.25 177.75V182.75M89 96.974H93.5863M82.5 92.0657H93.5863M82.5 86.9436H85.5545M89.6359 86.9436H93.75M82.3045 76.0507H85.5545M89.6359 76.0507H93.75M82.5 72.25H93.75M82.25 64.75H85.5M89.6359 64.75H93.75M82.75 55.25H93.75M81.75 61.25H82.25M56.75 61.25L77.75 61.25M50.25 114.75H76M50.25 102.25H76M56.7981 91.7099H76M88.75 36.8412H93.75M78.25 36.8412H84.25M56.75 36.8412L74.25 36.8412M91 31.75H117.959M99.25 26.25H105.25M109.75 26.25H117.75M88.75 26.25L95.25 26.25M79.25 26.25H84.25M53.25 26.25H74.75M42.25 26.25H49.25M46.25 26.25V29.25M10.25 26.25L38.25 26.25M0.25 19.75H3.25M7.25 19.75H13.25M17.25 19.75H20.5M72.5 18.25H74.75M79.25 18.25H81.5M81.5 15.4536H84.25M88.75 15.4536H91M10.25 2.25V7.75" stroke="#A73C4C" stroke-width="0.5"/>
<path d="M6.25 182.638H7.25M10.75 182.638H17.25M20.75 182.638H21.25M6.25 187.672H17.25M20.75 187.672H22.25M25.75 187.672H27.25M27.25 188.679H29.75M33.25 188.679H51.75M55.75 188.679H64.25M67.75 188.679H77.25M80.75 188.679H87.25M90.75 188.679H96.75M100.25 188.679H116.25M95.25 198.747H96.75M100.25 198.747H111.25M115.25 198.747H116.25M90.75 199.25H95.25M82.75 199.25H87.25M82.75 182.638H95.25M81.75 177.444H93.7266M56.75 177.444H77.5414M82.75 167.032H86.25M90.25 167.032H93.75M56.75 167.032H76.25M82.75 153.44H93.585M82.75 145.889H93.585M82.75 136.325H93.75M56.8715 125.108H77.6708M81.75 125.108H93.75M93.25 115.75H115.75M93.0071 110.25H115.75M93.75 101.75H115.75" stroke="#A73C4C" stroke-width="0.5"/>
<path d="M52.4423 208.543H55.5449M55.5449 208.543L54.6988 207.54M55.5449 208.543L54.6987 209.546" stroke="#A73C4C" stroke-width="0.5" stroke-linecap="round" stroke-linejoin="round"/>
<path d="M53.5705 207.292V206.393C53.5705 206.314 53.5073 206.25 53.4295 206.25H50.891C50.8131 206.25 50.75 206.314 50.75 206.393V210.692C50.75 210.771 50.8131 210.835 50.891 210.835H53.4295C53.5073 210.835 53.5705 210.771 53.5705 210.692V209.793" stroke="#A73C4C" stroke-width="0.5" stroke-linecap="round" stroke-linejoin="round"/>
<path d="M117.071 104.607V103.708C117.071 103.629 117.007 103.565 116.929 103.565H114.391C114.313 103.565 114.25 103.629 114.25 103.708V108.007C114.25 108.086 114.313 108.15 114.391 108.15H116.929C117.007 108.15 117.071 108.086 117.071 108.007V107.108" stroke="#A73C4C" stroke-width="0.5" stroke-linecap="round" stroke-linejoin="round"/>
<path d="M116.147 105.75H119.25M119.25 105.75L118.404 104.747M119.25 105.75L118.404 106.753" stroke="#A73C4C" stroke-width="0.5" stroke-linecap="round" stroke-linejoin="round"/>
<path d="M50.9423 2.54269H54.0449M54.0449 2.54269L53.1988 1.53964M54.0449 2.54269L53.1987 3.54574" stroke="#A73C4C" stroke-width="0.5" stroke-linecap="round" stroke-linejoin="round"/>
<path d="M52.0705 1.29213V0.393293C52.0705 0.314155 52.0074 0.25 51.9295 0.25H49.391C49.3131 0.25 49.25 0.314155 49.25 0.393293V4.69207C49.25 4.7712 49.3131 4.83537 49.391 4.83537H51.9295C52.0074 4.83537 52.0705 4.7712 52.0705 4.69207V3.79323" stroke="#A73C4C" stroke-width="0.5" stroke-linecap="round" stroke-linejoin="round"/>
<path d="M4.14741 180.043H7.24997M7.24997 180.043L6.40393 179.04M7.24997 180.043L6.40382 181.046" stroke="#A73C4C" stroke-width="0.5" stroke-linecap="round" stroke-linejoin="round"/>
<path d="M5.27563 178.792V177.893C5.27563 177.814 5.21248 177.75 5.1346 177.75H2.59614C2.51825 177.75 2.45511 177.814 2.45511 177.893V182.192C2.45511 182.271 2.51825 182.335 2.59614 182.335H5.1346C5.21248 182.335 5.27563 182.271 5.27563 182.192V181.293" stroke="#A73C4C" stroke-width="0.5" stroke-linecap="round" stroke-linejoin="round"/>
<path d="M101.55 103.25C101.384 103.25 101.25 103.384 101.25 103.55V108.03C101.25 108.196 101.384 108.33 101.55 108.33H101.966H105.95C106.116 108.33 106.25 108.196 106.25 108.03V104.139V103.55C106.25 103.384 106.116 103.25 105.95 103.25H101.55ZM102.404 108.135V107.649C102.404 107.594 102.449 107.549 102.504 107.549H102.873C103.039 107.549 103.173 107.414 103.173 107.249V106.867C103.173 106.812 103.218 106.767 103.273 106.767H103.642C103.808 106.767 103.942 106.633 103.942 106.467V106.086C103.942 106.03 103.987 105.986 104.042 105.986H104.412C104.577 105.986 104.712 105.851 104.712 105.686V105.304C104.712 105.249 104.756 105.204 104.812 105.204H105.181C105.346 105.204 105.481 105.07 105.481 104.904V104.522C105.481 104.467 105.526 104.422 105.581 104.422H106.058V108.035C106.058 108.09 106.013 108.135 105.958 108.135L102.404 108.135ZM106.058 104.227H105.588C105.423 104.227 105.288 104.361 105.288 104.527V104.909C105.288 104.964 105.244 105.009 105.188 105.009H104.819C104.654 105.009 104.519 105.143 104.519 105.309V105.69C104.519 105.745 104.474 105.79 104.419 105.79H104.05C103.884 105.79 103.75 105.925 103.75 106.09V106.472C103.75 106.527 103.705 106.572 103.65 106.572H103.281C103.115 106.572 102.981 106.706 102.981 106.872V107.253C102.981 107.309 102.936 107.353 102.881 107.353H102.512C102.346 107.353 102.212 107.488 102.212 107.653V108.135H101.542C101.487 108.135 101.442 108.09 101.442 108.035V103.545C101.442 103.49 101.487 103.445 101.542 103.445H105.958C106.013 103.445 106.058 103.49 106.058 103.545V104.227Z" fill="#A73C4C"/>
<path d="M47.55 10.25C47.3843 10.25 47.25 10.3843 47.25 10.55V17.95C47.25 18.1157 47.3843 18.25 47.55 18.25H48.3779H54.8234C54.9891 18.25 55.1234 18.1157 55.1234 17.95V11.6498V10.55C55.1234 10.3843 54.9891 10.25 54.8234 10.25H47.55ZM49.0669 17.9423V17.1192C49.0669 17.064 49.1117 17.0192 49.1669 17.0192H49.9782C50.1439 17.0192 50.2782 16.8849 50.2782 16.7192V15.8885C50.2782 15.8332 50.323 15.7885 50.3782 15.7885H51.1895C51.3552 15.7885 51.4895 15.6541 51.4895 15.4885V14.6577C51.4895 14.6025 51.5343 14.5577 51.5895 14.5577H52.4008C52.5665 14.5577 52.7008 14.4234 52.7008 14.2577V13.4269C52.7008 13.3717 52.7456 13.3269 52.8008 13.3269H53.6121C53.7778 13.3269 53.9121 13.1926 53.9121 13.0269V12.1962C53.9121 12.1409 53.9569 12.0962 54.0121 12.0962H54.8206V17.8422C54.8206 17.8975 54.7758 17.9422 54.7206 17.9422L49.0669 17.9423ZM54.8206 11.7885H53.9093C53.7436 11.7885 53.6093 11.9228 53.6093 12.0885V12.9192C53.6093 12.9745 53.5645 13.0192 53.5093 13.0192H52.698C52.5323 13.0192 52.398 13.1535 52.398 13.3192V14.15C52.398 14.2052 52.3532 14.25 52.298 14.25H51.4867C51.321 14.25 51.1867 14.3843 51.1867 14.55V15.3808C51.1867 15.436 51.1419 15.4808 51.0867 15.4808H50.2754C50.1097 15.4808 49.9754 15.6151 49.9754 15.7808V16.6115C49.9754 16.6668 49.9306 16.7115 49.8754 16.7115H49.0641C48.8984 16.7115 48.7641 16.8459 48.7641 17.0115V17.9422H47.6528C47.5976 17.9422 47.5528 17.8975 47.5528 17.8422V10.6577C47.5528 10.6025 47.5976 10.5577 47.6528 10.5577H54.7206C54.7758 10.5577 54.8206 10.6025 54.8206 10.6577V11.7885Z" fill="#A73C4C"/>
<path d="M50.55 195.25C50.3843 195.25 50.25 195.384 50.25 195.55V201.046C50.25 201.212 50.3843 201.346 50.55 201.346H51.1095H55.95C56.1157 201.346 56.25 201.212 56.25 201.046V196.317V195.55C56.25 195.384 56.1157 195.25 55.95 195.25H50.55ZM51.6346 201.112V200.509C51.6346 200.453 51.6794 200.409 51.7346 200.409H52.2577C52.4234 200.409 52.5577 200.274 52.5577 200.109V199.571C52.5577 199.515 52.6025 199.471 52.6577 199.471H53.1808C53.3465 199.471 53.4808 199.336 53.4808 199.171V198.633C53.4808 198.577 53.5255 198.533 53.5808 198.533H54.1038C54.2695 198.533 54.4038 198.398 54.4038 198.233V197.695C54.4038 197.64 54.4486 197.595 54.5038 197.595H55.0269C55.1926 197.595 55.3269 197.46 55.3269 197.295V196.757C55.3269 196.702 55.3717 196.657 55.4269 196.657H56.0192V201.012C56.0192 201.067 55.9745 201.112 55.9192 201.112L51.6346 201.112ZM56.0192 196.422H55.3962C55.2305 196.422 55.0962 196.557 55.0962 196.722V197.26C55.0962 197.316 55.0514 197.36 54.9962 197.36H54.4731C54.3074 197.36 54.1731 197.495 54.1731 197.66V198.198C54.1731 198.253 54.1283 198.298 54.0731 198.298H53.55C53.3843 198.298 53.25 198.433 53.25 198.598V199.136C53.25 199.191 53.2052 199.236 53.15 199.236H52.6269C52.4612 199.236 52.3269 199.37 52.3269 199.536V200.074C52.3269 200.129 52.2822 200.174 52.2269 200.174H51.7038C51.5382 200.174 51.4038 200.308 51.4038 200.474V201.112H50.5808C50.5255 201.112 50.4808 201.067 50.4808 201.012V195.584C50.4808 195.529 50.5255 195.484 50.5808 195.484H55.9192C55.9745 195.484 56.0192 195.529 56.0192 195.584V196.422Z" fill="#A73C4C"/>
<path d="M97.989 123.75V121.976C97.9892 121.933 97.9803 121.89 97.9629 121.85C97.9454 121.81 97.9199 121.774 97.8878 121.745L97.5844 121.464C97.5687 121.449 97.5561 121.431 97.5475 121.412C97.5389 121.392 97.5345 121.37 97.5346 121.348V119.518C97.5346 119.436 97.5666 119.357 97.6237 119.299C97.6809 119.241 97.7584 119.208 97.8393 119.207H99.7928C99.9142 119.208 100.03 119.257 100.116 119.344C100.202 119.432 100.25 119.55 100.25 119.673V121.363C100.25 121.402 100.235 121.44 100.208 121.47L99.9161 121.786C99.8625 121.844 99.8327 121.92 99.833 121.999V123.75" stroke="#3A3A3A" stroke-width="0.5" stroke-linecap="round"/>
<path d="M98.8923 118.536C99.3445 118.536 99.7111 118.163 99.7111 117.704C99.7111 117.244 99.3445 116.872 98.8923 116.872C98.4401 116.872 98.0735 117.244 98.0735 117.704C98.0735 118.163 98.4401 118.536 98.8923 118.536Z" stroke="#3A3A3A" stroke-width="0.5" stroke-linecap="round"/>
<path d="M87.4371 175.75V174.236C87.4367 174.194 87.42 174.154 87.3906 174.124C87.3611 174.094 87.3214 174.078 87.2799 174.078H86.9047C86.8795 174.077 86.8547 174.071 86.8324 174.059C86.8101 174.047 86.791 174.03 86.7767 174.009C86.7623 173.988 86.7532 173.964 86.75 173.938C86.7468 173.913 86.7497 173.887 86.7584 173.863L87.6538 171.385C87.665 171.355 87.6849 171.329 87.711 171.31C87.7372 171.291 87.7682 171.281 87.8001 171.281H88.7484C88.7808 171.281 88.8124 171.291 88.8389 171.31C88.8653 171.329 88.8853 171.356 88.896 171.387L89.7739 173.864C89.7819 173.889 89.7838 173.916 89.7794 173.941C89.775 173.967 89.7645 173.991 89.7487 174.012C89.7329 174.033 89.7124 174.049 89.6889 174.06C89.6654 174.071 89.6397 174.075 89.614 174.074H89.2076C89.1671 174.076 89.1291 174.094 89.1016 174.125C89.0741 174.155 89.0592 174.195 89.0599 174.236V175.75" stroke="#3A3A3A" stroke-width="0.5" stroke-linecap="round"/>
<path d="M88.2595 170.499C88.7016 170.499 89.0601 170.135 89.0601 169.685C89.0601 169.236 88.7016 168.872 88.2595 168.872C87.8173 168.872 87.4589 169.236 87.4589 169.685C87.4589 170.135 87.8173 170.499 88.2595 170.499Z" stroke="#3A3A3A" stroke-width="0.5" stroke-linecap="round"/>
<path d="M85.52 69.13H85.115V67.6L84.475 67.9C84.4317 67.8833 84.395 67.8583 84.365 67.825C84.3383 67.7917 84.325 67.75 84.325 67.7C84.325 67.6033 84.385 67.53 84.505 67.48L85.205 67.175H85.3C85.3667 67.175 85.42 67.195 85.46 67.235C85.5 67.275 85.52 67.3283 85.52 67.395V69.13ZM85.115 68.93H85.52V70.255C85.5 70.2617 85.4733 70.2683 85.44 70.275C85.4067 70.285 85.37 70.29 85.33 70.29C85.26 70.29 85.2067 70.275 85.17 70.245C85.1333 70.215 85.115 70.1683 85.115 70.105V68.93ZM86.3709 67.525C86.3709 67.465 86.4093 67.4067 86.4859 67.35C86.5626 67.29 86.6659 67.2417 86.7959 67.205C86.9259 67.1683 87.0676 67.15 87.2209 67.15C87.4343 67.15 87.6176 67.1867 87.7709 67.26C87.9243 67.33 88.0426 67.43 88.1259 67.56C88.2093 67.69 88.2509 67.8433 88.2509 68.02C88.2509 68.2033 88.1993 68.3833 88.0959 68.56C87.9959 68.7367 87.8226 68.9383 87.5759 69.165L86.7609 69.92H88.2459C88.2593 69.9333 88.2709 69.955 88.2809 69.985C88.2909 70.0117 88.2959 70.0433 88.2959 70.08C88.2959 70.1333 88.2809 70.175 88.2509 70.205C88.2243 70.235 88.1876 70.25 88.1409 70.25H86.3759C86.3426 70.2267 86.3176 70.1983 86.3009 70.165C86.2843 70.1283 86.2759 70.09 86.2759 70.05C86.2759 69.9967 86.2859 69.95 86.3059 69.91C86.3259 69.8667 86.3559 69.8267 86.3959 69.79L87.2959 68.925C87.5026 68.7317 87.6443 68.57 87.7209 68.44C87.7976 68.3067 87.8359 68.1683 87.8359 68.025C87.8359 67.8683 87.7826 67.74 87.6759 67.64C87.5693 67.54 87.4076 67.49 87.1909 67.49C87.0443 67.49 86.9126 67.515 86.7959 67.565C86.6826 67.615 86.5876 67.6683 86.5109 67.725C86.4743 67.7083 86.4409 67.6833 86.4109 67.65C86.3843 67.6167 86.3709 67.575 86.3709 67.525ZM88.6922 69.135L90.1472 67.205C90.1772 67.1983 90.2106 67.1933 90.2472 67.19C90.2872 67.1833 90.3222 67.18 90.3522 67.18C90.3989 67.18 90.4422 67.1867 90.4822 67.2C90.5256 67.2133 90.5606 67.2383 90.5872 67.275C90.6139 67.3083 90.6272 67.3583 90.6272 67.425V69.175H91.1272C91.1372 69.1917 91.1472 69.215 91.1572 69.245C91.1672 69.2717 91.1722 69.3033 91.1722 69.34C91.1722 69.3933 91.1589 69.435 91.1322 69.465C91.1056 69.495 91.0672 69.51 91.0172 69.51H90.6272V70.26C90.6106 70.2633 90.5856 70.2683 90.5522 70.275C90.5222 70.285 90.4889 70.29 90.4522 70.29C90.3822 70.29 90.3289 70.275 90.2922 70.245C90.2556 70.215 90.2372 70.1717 90.2372 70.115V69.51H88.7922C88.7589 69.4933 88.7289 69.4633 88.7022 69.42C88.6789 69.3767 88.6672 69.3283 88.6672 69.275C88.6672 69.245 88.6689 69.22 88.6722 69.2C88.6789 69.1767 88.6856 69.155 88.6922 69.135ZM90.2422 69.175L90.2522 67.6H90.2422L89.1322 69.175H90.2422Z" fill="#A73C4C"/>
<path d="M62.52 15.13H62.115V13.6L61.475 13.9C61.4317 13.8833 61.395 13.8583 61.365 13.825C61.3383 13.7917 61.325 13.75 61.325 13.7C61.325 13.6033 61.385 13.53 61.505 13.48L62.205 13.175H62.3C62.3667 13.175 62.42 13.195 62.46 13.235C62.5 13.275 62.52 13.3283 62.52 13.395V15.13ZM62.115 14.93H62.52V16.255C62.5 16.2617 62.4733 16.2683 62.44 16.275C62.4067 16.285 62.37 16.29 62.33 16.29C62.26 16.29 62.2067 16.275 62.17 16.245C62.1333 16.215 62.115 16.1683 62.115 16.105V14.93ZM64.4921 16.315C64.2588 16.315 64.0521 16.2583 63.8721 16.145C63.6954 16.0283 63.5571 15.8533 63.4571 15.62C63.3571 15.3833 63.3071 15.0867 63.3071 14.73C63.3071 14.3467 63.3638 14.04 63.4771 13.81C63.5904 13.58 63.7371 13.4133 63.9171 13.31C64.0971 13.2033 64.2888 13.15 64.4921 13.15C64.6988 13.15 64.8921 13.2033 65.0721 13.31C65.2554 13.4167 65.4021 13.5867 65.5121 13.82C65.6254 14.05 65.6821 14.3533 65.6821 14.73C65.6821 15.0833 65.6321 15.3783 65.5321 15.615C65.4321 15.8483 65.2921 16.0233 65.1121 16.14C64.9354 16.2567 64.7288 16.315 64.4921 16.315ZM64.4921 15.975C64.7388 15.975 64.9304 15.8683 65.0671 15.655C65.2038 15.4383 65.2721 15.13 65.2721 14.73C65.2721 14.4333 65.2354 14.195 65.1621 14.015C65.0921 13.8317 64.9988 13.6983 64.8821 13.615C64.7654 13.5317 64.6354 13.49 64.4921 13.49C64.3521 13.49 64.2221 13.5333 64.1021 13.62C63.9854 13.7033 63.8921 13.8367 63.8221 14.02C63.7521 14.2033 63.7171 14.44 63.7171 14.73C63.7171 15.13 63.7854 15.4383 63.9221 15.655C64.0588 15.8683 64.2488 15.975 64.4921 15.975ZM67.3771 16.315C67.1505 16.315 66.9521 16.2817 66.7821 16.215C66.6121 16.145 66.4805 16.045 66.3871 15.915C66.2938 15.785 66.2471 15.6283 66.2471 15.445C66.2471 15.2817 66.2838 15.1433 66.3571 15.03C66.4338 14.9133 66.5305 14.82 66.6471 14.75C66.7638 14.68 66.8855 14.6333 67.0121 14.61L67.3121 14.56C67.5521 14.5133 67.7321 14.445 67.8521 14.355C67.9721 14.2617 68.0321 14.1383 68.0321 13.985C68.0321 13.8283 67.9738 13.7067 67.8571 13.62C67.7405 13.53 67.5805 13.485 67.3771 13.485C67.1805 13.485 67.0221 13.53 66.9021 13.62C66.7821 13.71 66.7221 13.83 66.7221 13.98C66.7221 14.1067 66.7555 14.2083 66.8221 14.285C66.8921 14.3617 66.9838 14.42 67.0971 14.46C67.2138 14.4967 67.3405 14.5217 67.4771 14.535L67.6971 14.61C67.8338 14.6367 67.9638 14.685 68.0871 14.755C68.2105 14.8217 68.3105 14.9117 68.3871 15.025C68.4638 15.1383 68.5021 15.28 68.5021 15.45C68.5021 15.63 68.4538 15.785 68.3571 15.915C68.2638 16.045 68.1321 16.145 67.9621 16.215C67.7955 16.2817 67.6005 16.315 67.3771 16.315ZM67.3771 15.98C67.5938 15.98 67.7688 15.9333 67.9021 15.84C68.0355 15.7467 68.1021 15.6117 68.1021 15.435C68.1021 15.2417 68.0205 15.0883 67.8571 14.975C67.6971 14.8617 67.4821 14.7967 67.2121 14.78L66.9571 14.705C66.7638 14.6517 66.6088 14.565 66.4921 14.445C66.3788 14.325 66.3221 14.1683 66.3221 13.975C66.3221 13.805 66.3655 13.6583 66.4521 13.535C66.5421 13.4117 66.6655 13.3167 66.8221 13.25C66.9821 13.1833 67.1671 13.15 67.3771 13.15C67.7038 13.15 67.9605 13.225 68.1471 13.375C68.3371 13.5217 68.4321 13.725 68.4321 13.985C68.4321 14.195 68.3605 14.36 68.2171 14.48C68.0771 14.6 67.9055 14.6783 67.7021 14.715L67.3621 14.785C67.1488 14.8183 66.9755 14.8917 66.8421 15.005C66.7121 15.115 66.6471 15.26 66.6471 15.44C66.6471 15.61 66.7121 15.7433 66.8421 15.84C66.9721 15.9333 67.1505 15.98 67.3771 15.98Z" fill="#A73C4C"/>
<path d="M31.52 15.13H31.115V13.6L30.475 13.9C30.4317 13.8833 30.395 13.8583 30.365 13.825C30.3383 13.7917 30.325 13.75 30.325 13.7C30.325 13.6033 30.385 13.53 30.505 13.48L31.205 13.175H31.3C31.3667 13.175 31.42 13.195 31.46 13.235C31.5 13.275 31.52 13.3283 31.52 13.395V15.13ZM31.115 14.93H31.52V16.255C31.5 16.2617 31.4733 16.2683 31.44 16.275C31.4067 16.285 31.37 16.29 31.33 16.29C31.26 16.29 31.2067 16.275 31.17 16.245C31.1333 16.215 31.115 16.1683 31.115 16.105V14.93ZM33.4921 16.315C33.2588 16.315 33.0521 16.2583 32.8721 16.145C32.6954 16.0283 32.5571 15.8533 32.4571 15.62C32.3571 15.3833 32.3071 15.0867 32.3071 14.73C32.3071 14.3467 32.3638 14.04 32.4771 13.81C32.5904 13.58 32.7371 13.4133 32.9171 13.31C33.0971 13.2033 33.2888 13.15 33.4921 13.15C33.6988 13.15 33.8921 13.2033 34.0721 13.31C34.2554 13.4167 34.4021 13.5867 34.5121 13.82C34.6254 14.05 34.6821 14.3533 34.6821 14.73C34.6821 15.0833 34.6321 15.3783 34.5321 15.615C34.4321 15.8483 34.2921 16.0233 34.1121 16.14C33.9354 16.2567 33.7288 16.315 33.4921 16.315ZM33.4921 15.975C33.7388 15.975 33.9304 15.8683 34.0671 15.655C34.2038 15.4383 34.2721 15.13 34.2721 14.73C34.2721 14.4333 34.2354 14.195 34.1621 14.015C34.0921 13.8317 33.9988 13.6983 33.8821 13.615C33.7654 13.5317 33.6354 13.49 33.4921 13.49C33.3521 13.49 33.2221 13.5333 33.1021 13.62C32.9854 13.7033 32.8921 13.8367 32.8221 14.02C32.7521 14.2033 32.7171 14.44 32.7171 14.73C32.7171 15.13 32.7854 15.4383 32.9221 15.655C33.0588 15.8683 33.2488 15.975 33.4921 15.975ZM35.3377 16.005C35.3377 15.965 35.3477 15.9267 35.3677 15.89C35.3911 15.8533 35.4194 15.8267 35.4527 15.81C35.5161 15.8467 35.5977 15.8833 35.6977 15.92C35.8011 15.9533 35.9227 15.97 36.0627 15.97C36.2361 15.97 36.3944 15.9333 36.5377 15.86C36.6811 15.7867 36.7961 15.6667 36.8827 15.5C36.9694 15.33 37.0127 15.1067 37.0127 14.83C36.9827 14.8633 36.9327 14.905 36.8627 14.955C36.7961 15.0017 36.7111 15.0433 36.6077 15.08C36.5044 15.1167 36.3844 15.135 36.2477 15.135C36.0611 15.135 35.8861 15.1033 35.7227 15.04C35.5594 14.9733 35.4277 14.8683 35.3277 14.725C35.2311 14.5817 35.1827 14.3933 35.1827 14.16C35.1827 13.95 35.2294 13.77 35.3227 13.62C35.4161 13.4667 35.5427 13.35 35.7027 13.27C35.8627 13.19 36.0411 13.15 36.2377 13.15C36.4677 13.15 36.6711 13.2033 36.8477 13.31C37.0244 13.4133 37.1627 13.575 37.2627 13.795C37.3661 14.0117 37.4177 14.2917 37.4177 14.635C37.4177 15.0417 37.3611 15.3683 37.2477 15.615C37.1344 15.8617 36.9761 16.04 36.7727 16.15C36.5727 16.26 36.3377 16.315 36.0677 16.315C35.8677 16.315 35.6961 16.2883 35.5527 16.235C35.4094 16.1817 35.3377 16.105 35.3377 16.005ZM36.3027 14.8C36.4727 14.8 36.6227 14.7583 36.7527 14.675C36.8861 14.5883 36.9744 14.4933 37.0177 14.39L37.0127 14.445C37.0127 14.1483 36.9444 13.915 36.8077 13.745C36.6744 13.5717 36.4844 13.485 36.2377 13.485C36.0544 13.485 35.8994 13.545 35.7727 13.665C35.6494 13.7817 35.5877 13.9433 35.5877 14.15C35.5877 14.38 35.6577 14.5467 35.7977 14.65C35.9377 14.75 36.1061 14.8 36.3027 14.8Z" fill="#A73C4C"/>
<path d="M85.52 82.13H85.115V80.6L84.475 80.9C84.4317 80.8833 84.395 80.8583 84.365 80.825C84.3383 80.7917 84.325 80.75 84.325 80.7C84.325 80.6033 84.385 80.53 84.505 80.48L85.205 80.175H85.3C85.3667 80.175 85.42 80.195 85.46 80.235C85.5 80.275 85.52 80.3283 85.52 80.395V82.13ZM85.115 81.93H85.52V83.255C85.5 83.2617 85.4733 83.2683 85.44 83.275C85.4067 83.285 85.37 83.29 85.33 83.29C85.26 83.29 85.2067 83.275 85.17 83.245C85.1333 83.215 85.115 83.1683 85.115 83.105V81.93ZM86.3709 80.525C86.3709 80.465 86.4093 80.4067 86.4859 80.35C86.5626 80.29 86.6659 80.2417 86.7959 80.205C86.9259 80.1683 87.0676 80.15 87.2209 80.15C87.4343 80.15 87.6176 80.1867 87.7709 80.26C87.9243 80.33 88.0426 80.43 88.1259 80.56C88.2093 80.69 88.2509 80.8433 88.2509 81.02C88.2509 81.2033 88.1993 81.3833 88.0959 81.56C87.9959 81.7367 87.8226 81.9383 87.5759 82.165L86.7609 82.92H88.2459C88.2593 82.9333 88.2709 82.955 88.2809 82.985C88.2909 83.0117 88.2959 83.0433 88.2959 83.08C88.2959 83.1333 88.2809 83.175 88.2509 83.205C88.2243 83.235 88.1876 83.25 88.1409 83.25H86.3759C86.3426 83.2267 86.3176 83.1983 86.3009 83.165C86.2843 83.1283 86.2759 83.09 86.2759 83.05C86.2759 82.9967 86.2859 82.95 86.3059 82.91C86.3259 82.8667 86.3559 82.8267 86.3959 82.79L87.2959 81.925C87.5026 81.7317 87.6443 81.57 87.7209 81.44C87.7976 81.3067 87.8359 81.1683 87.8359 81.025C87.8359 80.8683 87.7826 80.74 87.6759 80.64C87.5693 80.54 87.4076 80.49 87.1909 80.49C87.0443 80.49 86.9126 80.515 86.7959 80.565C86.6826 80.615 86.5876 80.6683 86.5109 80.725C86.4743 80.7083 86.4409 80.6833 86.4109 80.65C86.3843 80.6167 86.3709 80.575 86.3709 80.525ZM90.8512 80.445C90.8512 80.485 90.8395 80.5233 90.8162 80.56C90.7962 80.5933 90.7695 80.6183 90.7362 80.635C90.6628 80.5983 90.5795 80.5667 90.4862 80.54C90.3962 80.51 90.2978 80.495 90.1912 80.495C89.9312 80.495 89.7112 80.5883 89.5312 80.775C89.3545 80.9617 89.2612 81.2533 89.2512 81.65C89.3178 81.5833 89.4195 81.5133 89.5562 81.44C89.6962 81.3633 89.8678 81.325 90.0712 81.325C90.3645 81.325 90.6062 81.4083 90.7962 81.575C90.9862 81.7417 91.0812 81.9883 91.0812 82.315C91.0812 82.5217 91.0362 82.7 90.9462 82.85C90.8595 83 90.7362 83.115 90.5762 83.195C90.4195 83.275 90.2328 83.315 90.0162 83.315C89.7928 83.315 89.5928 83.265 89.4162 83.165C89.2395 83.0617 89.0995 82.9017 88.9962 82.685C88.8962 82.465 88.8462 82.1783 88.8462 81.825C88.8462 81.5117 88.8828 81.2483 88.9562 81.035C89.0328 80.8183 89.1345 80.6467 89.2612 80.52C89.3878 80.39 89.5312 80.2967 89.6912 80.24C89.8512 80.18 90.0145 80.15 90.1812 80.15C90.2978 80.15 90.4062 80.1617 90.5062 80.185C90.6095 80.2083 90.6928 80.2417 90.7562 80.285C90.8195 80.3283 90.8512 80.3817 90.8512 80.445ZM90.0162 82.98C90.2095 82.98 90.3678 82.9217 90.4912 82.805C90.6145 82.685 90.6762 82.5183 90.6762 82.305C90.6762 82.0883 90.6128 81.9283 90.4862 81.825C90.3628 81.7183 90.2095 81.665 90.0262 81.665C89.8428 81.665 89.6845 81.705 89.5512 81.785C89.4178 81.8617 89.3128 81.955 89.2362 82.065L89.2512 82.03C89.2512 82.3133 89.3178 82.5433 89.4512 82.72C89.5845 82.8933 89.7728 82.98 90.0162 82.98Z" fill="#A73C4C"/>
<path d="M98.52 97.13H98.115V95.6L97.475 95.9C97.4317 95.8833 97.395 95.8583 97.365 95.825C97.3383 95.7917 97.325 95.75 97.325 95.7C97.325 95.6033 97.385 95.53 97.505 95.48L98.205 95.175H98.3C98.3667 95.175 98.42 95.195 98.46 95.235C98.5 95.275 98.52 95.3283 98.52 95.395V97.13ZM98.115 96.93H98.52V98.255C98.5 98.2617 98.4733 98.2683 98.44 98.275C98.4067 98.285 98.37 98.29 98.33 98.29C98.26 98.29 98.2067 98.275 98.17 98.245C98.1333 98.215 98.115 98.1683 98.115 98.105V96.93ZM99.3709 95.525C99.3709 95.465 99.4093 95.4067 99.4859 95.35C99.5626 95.29 99.6659 95.2417 99.7959 95.205C99.9259 95.1683 100.068 95.15 100.221 95.15C100.434 95.15 100.618 95.1867 100.771 95.26C100.924 95.33 101.043 95.43 101.126 95.56C101.209 95.69 101.251 95.8433 101.251 96.02C101.251 96.2033 101.199 96.3833 101.096 96.56C100.996 96.7367 100.823 96.9383 100.576 97.165L99.7609 97.92H101.246C101.259 97.9333 101.271 97.955 101.281 97.985C101.291 98.0117 101.296 98.0433 101.296 98.08C101.296 98.1333 101.281 98.175 101.251 98.205C101.224 98.235 101.188 98.25 101.141 98.25H99.3759C99.3426 98.2267 99.3176 98.1983 99.3009 98.165C99.2843 98.1283 99.2759 98.09 99.2759 98.05C99.2759 97.9967 99.2859 97.95 99.3059 97.91C99.3259 97.8667 99.3559 97.8267 99.3959 97.79L100.296 96.925C100.503 96.7317 100.644 96.57 100.721 96.44C100.798 96.3067 100.836 96.1683 100.836 96.025C100.836 95.8683 100.783 95.74 100.676 95.64C100.569 95.54 100.408 95.49 100.191 95.49C100.044 95.49 99.9126 95.515 99.7959 95.565C99.6826 95.615 99.5876 95.6683 99.5109 95.725C99.4743 95.7083 99.4409 95.6833 99.4109 95.65C99.3843 95.6167 99.3709 95.575 99.3709 95.525ZM101.851 95.21H103.651C103.688 95.23 103.716 95.2583 103.736 95.295C103.756 95.3283 103.766 95.3667 103.766 95.41C103.766 95.4433 103.761 95.4767 103.751 95.51C103.745 95.5433 103.731 95.58 103.711 95.62L102.456 98.27C102.436 98.2733 102.416 98.275 102.396 98.275C102.38 98.275 102.361 98.275 102.341 98.275C102.278 98.275 102.223 98.26 102.176 98.23C102.13 98.1967 102.106 98.1517 102.106 98.095C102.106 98.055 102.115 98.0167 102.131 97.98C102.148 97.94 102.168 97.895 102.191 97.845L103.321 95.55H101.741C101.731 95.5333 101.721 95.5117 101.711 95.485C101.701 95.455 101.696 95.4233 101.696 95.39C101.696 95.3333 101.71 95.29 101.736 95.26C101.763 95.2267 101.801 95.21 101.851 95.21Z" fill="#A73C4C"/>
<path d="M86.52 141.13H86.115V139.6L85.475 139.9C85.4317 139.883 85.395 139.858 85.365 139.825C85.3383 139.792 85.325 139.75 85.325 139.7C85.325 139.603 85.385 139.53 85.505 139.48L86.205 139.175H86.3C86.3667 139.175 86.42 139.195 86.46 139.235C86.5 139.275 86.52 139.328 86.52 139.395V141.13ZM86.115 140.93H86.52V142.255C86.5 142.262 86.4733 142.268 86.44 142.275C86.4067 142.285 86.37 142.29 86.33 142.29C86.26 142.29 86.2067 142.275 86.17 142.245C86.1333 142.215 86.115 142.168 86.115 142.105V140.93ZM88.1465 139.145C88.4632 139.145 88.7182 139.215 88.9115 139.355C89.1082 139.492 89.2065 139.698 89.2065 139.975C89.2065 140.108 89.1782 140.223 89.1215 140.32C89.0682 140.413 89.0032 140.487 88.9265 140.54C88.8532 140.593 88.7865 140.628 88.7265 140.645C88.8165 140.672 88.9049 140.718 88.9915 140.785C89.0782 140.848 89.1499 140.932 89.2065 141.035C89.2665 141.135 89.2965 141.257 89.2965 141.4C89.2965 141.6 89.2482 141.767 89.1515 141.9C89.0549 142.033 88.9215 142.135 88.7515 142.205C88.5815 142.272 88.3849 142.305 88.1615 142.305C87.9782 142.305 87.8149 142.287 87.6715 142.25C87.5315 142.21 87.4215 142.16 87.3415 142.1C87.2615 142.04 87.2215 141.977 87.2215 141.91C87.2215 141.863 87.2332 141.823 87.2565 141.79C87.2832 141.757 87.3165 141.728 87.3565 141.705C87.4432 141.772 87.5482 141.832 87.6715 141.885C87.7982 141.938 87.9615 141.965 88.1615 141.965C88.3815 141.965 88.5599 141.918 88.6965 141.825C88.8332 141.728 88.9015 141.583 88.9015 141.39C88.9015 141.22 88.8382 141.083 88.7115 140.98C88.5849 140.877 88.4015 140.825 88.1615 140.825H87.7465C87.7332 140.808 87.7215 140.785 87.7115 140.755C87.7015 140.722 87.6965 140.688 87.6965 140.655C87.6965 140.618 87.7015 140.585 87.7115 140.555C87.7215 140.525 87.7332 140.502 87.7465 140.485H88.1265C88.3732 140.485 88.5482 140.44 88.6515 140.35C88.7582 140.257 88.8115 140.135 88.8115 139.985C88.8115 139.822 88.7515 139.698 88.6315 139.615C88.5115 139.528 88.3482 139.485 88.1415 139.485C87.9815 139.485 87.8399 139.51 87.7165 139.56C87.5965 139.607 87.4965 139.658 87.4165 139.715C87.3832 139.698 87.3532 139.672 87.3265 139.635C87.2999 139.598 87.2865 139.558 87.2865 139.515C87.2865 139.455 87.3249 139.397 87.4015 139.34C87.4782 139.283 87.5815 139.237 87.7115 139.2C87.8415 139.163 87.9865 139.145 88.1465 139.145ZM90.6108 139.21L90.4758 139.505L90.3908 140.45C90.4475 140.42 90.5258 140.392 90.6258 140.365C90.7292 140.335 90.8375 140.32 90.9508 140.32C91.1508 140.32 91.3308 140.358 91.4908 140.435C91.6508 140.508 91.7775 140.618 91.8708 140.765C91.9675 140.908 92.0158 141.087 92.0158 141.3C92.0158 141.493 91.9708 141.667 91.8808 141.82C91.7942 141.973 91.6658 142.095 91.4958 142.185C91.3292 142.272 91.1242 142.315 90.8808 142.315C90.6908 142.315 90.5242 142.293 90.3808 142.25C90.2375 142.207 90.1258 142.153 90.0458 142.09C89.9658 142.027 89.9258 141.965 89.9258 141.905C89.9258 141.852 89.9425 141.805 89.9758 141.765C90.0125 141.725 90.0492 141.698 90.0858 141.685C90.1592 141.748 90.2625 141.813 90.3958 141.88C90.5292 141.947 90.6908 141.98 90.8808 141.98C91.1108 141.98 91.2892 141.917 91.4158 141.79C91.5425 141.66 91.6058 141.497 91.6058 141.3C91.6058 141.097 91.5408 140.938 91.4108 140.825C91.2808 140.712 91.1108 140.655 90.9008 140.655C90.7842 140.655 90.6775 140.673 90.5808 140.71C90.4842 140.747 90.3942 140.788 90.3108 140.835C90.2208 140.828 90.1475 140.802 90.0908 140.755C90.0375 140.705 90.0108 140.642 90.0108 140.565C90.0108 140.545 90.0108 140.52 90.0108 140.49C90.0142 140.457 90.0175 140.425 90.0208 140.395L90.1058 139.44C90.1125 139.37 90.1342 139.315 90.1708 139.275C90.2075 139.232 90.2608 139.21 90.3308 139.21H90.6108ZM90.4008 139.55V139.21H91.8608C91.8708 139.223 91.8808 139.245 91.8908 139.275C91.9008 139.305 91.9058 139.337 91.9058 139.37C91.9058 139.423 91.8925 139.467 91.8658 139.5C91.8392 139.533 91.8008 139.55 91.7508 139.55H90.4008Z" fill="#A73C4C"/>
<path d="M86.52 150.13H86.115V148.6L85.475 148.9C85.4317 148.883 85.395 148.858 85.365 148.825C85.3383 148.792 85.325 148.75 85.325 148.7C85.325 148.603 85.385 148.53 85.505 148.48L86.205 148.175H86.3C86.3667 148.175 86.42 148.195 86.46 148.235C86.5 148.275 86.52 148.328 86.52 148.395V150.13ZM86.115 149.93H86.52V151.255C86.5 151.262 86.4733 151.268 86.44 151.275C86.4067 151.285 86.37 151.29 86.33 151.29C86.26 151.29 86.2067 151.275 86.17 151.245C86.1333 151.215 86.115 151.168 86.115 151.105V149.93ZM88.1465 148.145C88.4632 148.145 88.7182 148.215 88.9115 148.355C89.1082 148.492 89.2065 148.698 89.2065 148.975C89.2065 149.108 89.1782 149.223 89.1215 149.32C89.0682 149.413 89.0032 149.487 88.9265 149.54C88.8532 149.593 88.7865 149.628 88.7265 149.645C88.8165 149.672 88.9049 149.718 88.9915 149.785C89.0782 149.848 89.1499 149.932 89.2065 150.035C89.2665 150.135 89.2965 150.257 89.2965 150.4C89.2965 150.6 89.2482 150.767 89.1515 150.9C89.0549 151.033 88.9215 151.135 88.7515 151.205C88.5815 151.272 88.3849 151.305 88.1615 151.305C87.9782 151.305 87.8149 151.287 87.6715 151.25C87.5315 151.21 87.4215 151.16 87.3415 151.1C87.2615 151.04 87.2215 150.977 87.2215 150.91C87.2215 150.863 87.2332 150.823 87.2565 150.79C87.2832 150.757 87.3165 150.728 87.3565 150.705C87.4432 150.772 87.5482 150.832 87.6715 150.885C87.7982 150.938 87.9615 150.965 88.1615 150.965C88.3815 150.965 88.5599 150.918 88.6965 150.825C88.8332 150.728 88.9015 150.583 88.9015 150.39C88.9015 150.22 88.8382 150.083 88.7115 149.98C88.5849 149.877 88.4015 149.825 88.1615 149.825H87.7465C87.7332 149.808 87.7215 149.785 87.7115 149.755C87.7015 149.722 87.6965 149.688 87.6965 149.655C87.6965 149.618 87.7015 149.585 87.7115 149.555C87.7215 149.525 87.7332 149.502 87.7465 149.485H88.1265C88.3732 149.485 88.5482 149.44 88.6515 149.35C88.7582 149.257 88.8115 149.135 88.8115 148.985C88.8115 148.822 88.7515 148.698 88.6315 148.615C88.5115 148.528 88.3482 148.485 88.1415 148.485C87.9815 148.485 87.8399 148.51 87.7165 148.56C87.5965 148.607 87.4965 148.658 87.4165 148.715C87.3832 148.698 87.3532 148.672 87.3265 148.635C87.2999 148.598 87.2865 148.558 87.2865 148.515C87.2865 148.455 87.3249 148.397 87.4015 148.34C87.4782 148.283 87.5815 148.237 87.7115 148.2C87.8415 148.163 87.9865 148.145 88.1465 148.145ZM91.8658 148.445C91.8658 148.485 91.8542 148.523 91.8308 148.56C91.8108 148.593 91.7842 148.618 91.7508 148.635C91.6775 148.598 91.5942 148.567 91.5008 148.54C91.4108 148.51 91.3125 148.495 91.2058 148.495C90.9458 148.495 90.7258 148.588 90.5458 148.775C90.3692 148.962 90.2758 149.253 90.2658 149.65C90.3325 149.583 90.4342 149.513 90.5708 149.44C90.7108 149.363 90.8825 149.325 91.0858 149.325C91.3792 149.325 91.6208 149.408 91.8108 149.575C92.0008 149.742 92.0958 149.988 92.0958 150.315C92.0958 150.522 92.0508 150.7 91.9608 150.85C91.8742 151 91.7508 151.115 91.5908 151.195C91.4342 151.275 91.2475 151.315 91.0308 151.315C90.8075 151.315 90.6075 151.265 90.4308 151.165C90.2542 151.062 90.1142 150.902 90.0108 150.685C89.9108 150.465 89.8608 150.178 89.8608 149.825C89.8608 149.512 89.8975 149.248 89.9708 149.035C90.0475 148.818 90.1492 148.647 90.2758 148.52C90.4025 148.39 90.5458 148.297 90.7058 148.24C90.8658 148.18 91.0292 148.15 91.1958 148.15C91.3125 148.15 91.4208 148.162 91.5208 148.185C91.6242 148.208 91.7075 148.242 91.7708 148.285C91.8342 148.328 91.8658 148.382 91.8658 148.445ZM91.0308 150.98C91.2242 150.98 91.3825 150.922 91.5058 150.805C91.6292 150.685 91.6908 150.518 91.6908 150.305C91.6908 150.088 91.6275 149.928 91.5008 149.825C91.3775 149.718 91.2242 149.665 91.0408 149.665C90.8575 149.665 90.6992 149.705 90.5658 149.785C90.4325 149.862 90.3275 149.955 90.2508 150.065L90.2658 150.03C90.2658 150.313 90.3325 150.543 90.4658 150.72C90.5992 150.893 90.7875 150.98 91.0308 150.98Z" fill="#A73C4C"/>
<path d="M86.266 180.354H85.942V179.13L85.43 179.37C85.3953 179.357 85.366 179.337 85.342 179.31C85.3207 179.283 85.31 179.25 85.31 179.21C85.31 179.133 85.358 179.074 85.454 179.034L86.014 178.79H86.09C86.1433 178.79 86.186 178.806 86.218 178.838C86.25 178.87 86.266 178.913 86.266 178.966V180.354ZM85.942 180.194H86.266V181.254C86.25 181.259 86.2287 181.265 86.202 181.27C86.1753 181.278 86.146 181.282 86.114 181.282C86.058 181.282 86.0153 181.27 85.986 181.246C85.9567 181.222 85.942 181.185 85.942 181.134V180.194ZM87.5672 178.766C87.8206 178.766 88.0246 178.822 88.1792 178.934C88.3366 179.043 88.4152 179.209 88.4152 179.43C88.4152 179.537 88.3926 179.629 88.3472 179.706C88.3046 179.781 88.2526 179.839 88.1912 179.882C88.1326 179.925 88.0792 179.953 88.0312 179.966C88.1032 179.987 88.1739 180.025 88.2432 180.078C88.3126 180.129 88.3699 180.195 88.4152 180.278C88.4632 180.358 88.4872 180.455 88.4872 180.57C88.4872 180.73 88.4486 180.863 88.3712 180.97C88.2939 181.077 88.1872 181.158 88.0512 181.214C87.9152 181.267 87.7579 181.294 87.5792 181.294C87.4326 181.294 87.3019 181.279 87.1872 181.25C87.0752 181.218 86.9872 181.178 86.9232 181.13C86.8592 181.082 86.8272 181.031 86.8272 180.978C86.8272 180.941 86.8366 180.909 86.8552 180.882C86.8766 180.855 86.9032 180.833 86.9352 180.814C87.0046 180.867 87.0886 180.915 87.1872 180.958C87.2886 181.001 87.4192 181.022 87.5792 181.022C87.7552 181.022 87.8979 180.985 88.0072 180.91C88.1166 180.833 88.1712 180.717 88.1712 180.562C88.1712 180.426 88.1206 180.317 88.0192 180.234C87.9179 180.151 87.7712 180.11 87.5792 180.11H87.2472C87.2366 180.097 87.2272 180.078 87.2192 180.054C87.2112 180.027 87.2072 180.001 87.2072 179.974C87.2072 179.945 87.2112 179.918 87.2192 179.894C87.2272 179.87 87.2366 179.851 87.2472 179.838H87.5512C87.7486 179.838 87.8886 179.802 87.9712 179.73C88.0566 179.655 88.0992 179.558 88.0992 179.438C88.0992 179.307 88.0512 179.209 87.9552 179.142C87.8592 179.073 87.7286 179.038 87.5632 179.038C87.4352 179.038 87.3219 179.058 87.2232 179.098C87.1272 179.135 87.0472 179.177 86.9832 179.222C86.9566 179.209 86.9326 179.187 86.9112 179.158C86.8899 179.129 86.8792 179.097 86.8792 179.062C86.8792 179.014 86.9099 178.967 86.9712 178.922C87.0326 178.877 87.1152 178.839 87.2192 178.81C87.3232 178.781 87.4392 178.766 87.5672 178.766ZM89.8939 181.302C89.7126 181.302 89.5539 181.275 89.4179 181.222C89.2819 181.166 89.1766 181.086 89.1019 180.982C89.0272 180.878 88.9899 180.753 88.9899 180.606C88.9899 180.475 89.0192 180.365 89.0779 180.274C89.1392 180.181 89.2166 180.106 89.3099 180.05C89.4032 179.994 89.5006 179.957 89.6019 179.938L89.8419 179.898C90.0339 179.861 90.1779 179.806 90.2739 179.734C90.3699 179.659 90.4179 179.561 90.4179 179.438C90.4179 179.313 90.3712 179.215 90.2779 179.146C90.1846 179.074 90.0566 179.038 89.8939 179.038C89.7366 179.038 89.6099 179.074 89.5139 179.146C89.4179 179.218 89.3699 179.314 89.3699 179.434C89.3699 179.535 89.3966 179.617 89.4499 179.678C89.5059 179.739 89.5792 179.786 89.6699 179.818C89.7632 179.847 89.8646 179.867 89.9739 179.878L90.1499 179.938C90.2592 179.959 90.3632 179.998 90.4619 180.054C90.5606 180.107 90.6406 180.179 90.7019 180.27C90.7632 180.361 90.7939 180.474 90.7939 180.61C90.7939 180.754 90.7552 180.878 90.6779 180.982C90.6032 181.086 90.4979 181.166 90.3619 181.222C90.2286 181.275 90.0726 181.302 89.8939 181.302ZM89.8939 181.034C90.0672 181.034 90.2072 180.997 90.3139 180.922C90.4206 180.847 90.4739 180.739 90.4739 180.598C90.4739 180.443 90.4086 180.321 90.2779 180.23C90.1499 180.139 89.9779 180.087 89.7619 180.074L89.5579 180.014C89.4032 179.971 89.2792 179.902 89.1859 179.806C89.0952 179.71 89.0499 179.585 89.0499 179.43C89.0499 179.294 89.0846 179.177 89.1539 179.078C89.2259 178.979 89.3246 178.903 89.4499 178.85C89.5779 178.797 89.7259 178.77 89.8939 178.77C90.1552 178.77 90.3606 178.83 90.5099 178.95C90.6619 179.067 90.7379 179.23 90.7379 179.438C90.7379 179.606 90.6806 179.738 90.5659 179.834C90.4539 179.93 90.3166 179.993 90.1539 180.022L89.8819 180.078C89.7112 180.105 89.5726 180.163 89.4659 180.254C89.3619 180.342 89.3099 180.458 89.3099 180.602C89.3099 180.738 89.3619 180.845 89.4659 180.922C89.5699 180.997 89.7126 181.034 89.8939 181.034Z" fill="#A73C4C"/>
<path d="M64.52 146.13H64.115V144.6L63.475 144.9C63.4317 144.883 63.395 144.858 63.365 144.825C63.3383 144.792 63.325 144.75 63.325 144.7C63.325 144.603 63.385 144.53 63.505 144.48L64.205 144.175H64.3C64.3667 144.175 64.42 144.195 64.46 144.235C64.5 144.275 64.52 144.328 64.52 144.395V146.13ZM64.115 145.93H64.52V147.255C64.5 147.262 64.4733 147.268 64.44 147.275C64.4067 147.285 64.37 147.29 64.33 147.29C64.26 147.29 64.2067 147.275 64.17 147.245C64.1333 147.215 64.115 147.168 64.115 147.105V145.93ZM66.1465 144.145C66.4632 144.145 66.7182 144.215 66.9115 144.355C67.1082 144.492 67.2065 144.698 67.2065 144.975C67.2065 145.108 67.1782 145.223 67.1215 145.32C67.0682 145.413 67.0032 145.487 66.9265 145.54C66.8532 145.593 66.7865 145.628 66.7265 145.645C66.8165 145.672 66.9049 145.718 66.9915 145.785C67.0782 145.848 67.1499 145.932 67.2065 146.035C67.2665 146.135 67.2965 146.257 67.2965 146.4C67.2965 146.6 67.2482 146.767 67.1515 146.9C67.0549 147.033 66.9215 147.135 66.7515 147.205C66.5815 147.272 66.3849 147.305 66.1615 147.305C65.9782 147.305 65.8149 147.287 65.6715 147.25C65.5315 147.21 65.4215 147.16 65.3415 147.1C65.2615 147.04 65.2215 146.977 65.2215 146.91C65.2215 146.863 65.2332 146.823 65.2565 146.79C65.2832 146.757 65.3165 146.728 65.3565 146.705C65.4432 146.772 65.5482 146.832 65.6715 146.885C65.7982 146.938 65.9615 146.965 66.1615 146.965C66.3815 146.965 66.5599 146.918 66.6965 146.825C66.8332 146.728 66.9015 146.583 66.9015 146.39C66.9015 146.22 66.8382 146.083 66.7115 145.98C66.5849 145.877 66.4015 145.825 66.1615 145.825H65.7465C65.7332 145.808 65.7215 145.785 65.7115 145.755C65.7015 145.722 65.6965 145.688 65.6965 145.655C65.6965 145.618 65.7015 145.585 65.7115 145.555C65.7215 145.525 65.7332 145.502 65.7465 145.485H66.1265C66.3732 145.485 66.5482 145.44 66.6515 145.35C66.7582 145.257 66.8115 145.135 66.8115 144.985C66.8115 144.822 66.7515 144.698 66.6315 144.615C66.5115 144.528 66.3482 144.485 66.1415 144.485C65.9815 144.485 65.8399 144.51 65.7165 144.56C65.5965 144.607 65.4965 144.658 65.4165 144.715C65.3832 144.698 65.3532 144.672 65.3265 144.635C65.2999 144.598 65.2865 144.558 65.2865 144.515C65.2865 144.455 65.3249 144.397 65.4015 144.34C65.4782 144.283 65.5815 144.237 65.7115 144.2C65.8415 144.163 65.9865 144.145 66.1465 144.145ZM67.7508 146.135L69.2058 144.205C69.2358 144.198 69.2692 144.193 69.3058 144.19C69.3458 144.183 69.3808 144.18 69.4108 144.18C69.4575 144.18 69.5008 144.187 69.5408 144.2C69.5842 144.213 69.6192 144.238 69.6458 144.275C69.6725 144.308 69.6858 144.358 69.6858 144.425V146.175H70.1858C70.1958 146.192 70.2058 146.215 70.2158 146.245C70.2258 146.272 70.2308 146.303 70.2308 146.34C70.2308 146.393 70.2175 146.435 70.1908 146.465C70.1642 146.495 70.1258 146.51 70.0758 146.51H69.6858V147.26C69.6692 147.263 69.6442 147.268 69.6108 147.275C69.5808 147.285 69.5475 147.29 69.5108 147.29C69.4408 147.29 69.3875 147.275 69.3508 147.245C69.3142 147.215 69.2958 147.172 69.2958 147.115V146.51H67.8508C67.8175 146.493 67.7875 146.463 67.7608 146.42C67.7375 146.377 67.7258 146.328 67.7258 146.275C67.7258 146.245 67.7275 146.22 67.7308 146.2C67.7375 146.177 67.7442 146.155 67.7508 146.135ZM69.3008 146.175L69.3108 144.6H69.3008L68.1908 146.175H69.3008Z" fill="#A73C4C"/>
<path d="M64.52 172.13H64.115V170.6L63.475 170.9C63.4317 170.883 63.395 170.858 63.365 170.825C63.3383 170.792 63.325 170.75 63.325 170.7C63.325 170.603 63.385 170.53 63.505 170.48L64.205 170.175H64.3C64.3667 170.175 64.42 170.195 64.46 170.235C64.5 170.275 64.52 170.328 64.52 170.395V172.13ZM64.115 171.93H64.52V173.255C64.5 173.262 64.4733 173.268 64.44 173.275C64.4067 173.285 64.37 173.29 64.33 173.29C64.26 173.29 64.2067 173.275 64.17 173.245C64.1333 173.215 64.115 173.168 64.115 173.105V171.93ZM66.1465 170.145C66.4632 170.145 66.7182 170.215 66.9115 170.355C67.1082 170.492 67.2065 170.698 67.2065 170.975C67.2065 171.108 67.1782 171.223 67.1215 171.32C67.0682 171.413 67.0032 171.487 66.9265 171.54C66.8532 171.593 66.7865 171.628 66.7265 171.645C66.8165 171.672 66.9049 171.718 66.9915 171.785C67.0782 171.848 67.1499 171.932 67.2065 172.035C67.2665 172.135 67.2965 172.257 67.2965 172.4C67.2965 172.6 67.2482 172.767 67.1515 172.9C67.0549 173.033 66.9215 173.135 66.7515 173.205C66.5815 173.272 66.3849 173.305 66.1615 173.305C65.9782 173.305 65.8149 173.287 65.6715 173.25C65.5315 173.21 65.4215 173.16 65.3415 173.1C65.2615 173.04 65.2215 172.977 65.2215 172.91C65.2215 172.863 65.2332 172.823 65.2565 172.79C65.2832 172.757 65.3165 172.728 65.3565 172.705C65.4432 172.772 65.5482 172.832 65.6715 172.885C65.7982 172.938 65.9615 172.965 66.1615 172.965C66.3815 172.965 66.5599 172.918 66.6965 172.825C66.8332 172.728 66.9015 172.583 66.9015 172.39C66.9015 172.22 66.8382 172.083 66.7115 171.98C66.5849 171.877 66.4015 171.825 66.1615 171.825H65.7465C65.7332 171.808 65.7215 171.785 65.7115 171.755C65.7015 171.722 65.6965 171.688 65.6965 171.655C65.6965 171.618 65.7015 171.585 65.7115 171.555C65.7215 171.525 65.7332 171.502 65.7465 171.485H66.1265C66.3732 171.485 66.5482 171.44 66.6515 171.35C66.7582 171.257 66.8115 171.135 66.8115 170.985C66.8115 170.822 66.7515 170.698 66.6315 170.615C66.5115 170.528 66.3482 170.485 66.1415 170.485C65.9815 170.485 65.8399 170.51 65.7165 170.56C65.5965 170.607 65.4965 170.658 65.4165 170.715C65.3832 170.698 65.3532 170.672 65.3265 170.635C65.2999 170.598 65.2865 170.558 65.2865 170.515C65.2865 170.455 65.3249 170.397 65.4015 170.34C65.4782 170.283 65.5815 170.237 65.7115 170.2C65.8415 170.163 65.9865 170.145 66.1465 170.145ZM67.8414 170.21H69.6414C69.6781 170.23 69.7064 170.258 69.7264 170.295C69.7464 170.328 69.7564 170.367 69.7564 170.41C69.7564 170.443 69.7514 170.477 69.7414 170.51C69.7347 170.543 69.7214 170.58 69.7014 170.62L68.4464 173.27C68.4264 173.273 68.4064 173.275 68.3864 173.275C68.3697 173.275 68.3514 173.275 68.3314 173.275C68.2681 173.275 68.2131 173.26 68.1664 173.23C68.1197 173.197 68.0964 173.152 68.0964 173.095C68.0964 173.055 68.1047 173.017 68.1214 172.98C68.1381 172.94 68.1581 172.895 68.1814 172.845L69.3114 170.55H67.7314C67.7214 170.533 67.7114 170.512 67.7014 170.485C67.6914 170.455 67.6864 170.423 67.6864 170.39C67.6864 170.333 67.6997 170.29 67.7264 170.26C67.7531 170.227 67.7914 170.21 67.8414 170.21Z" fill="#A73C4C"/>
<path d="M86.52 131.13H86.115V129.6L85.475 129.9C85.4317 129.883 85.395 129.858 85.365 129.825C85.3383 129.792 85.325 129.75 85.325 129.7C85.325 129.603 85.385 129.53 85.505 129.48L86.205 129.175H86.3C86.3667 129.175 86.42 129.195 86.46 129.235C86.5 129.275 86.52 129.328 86.52 129.395V131.13ZM86.115 130.93H86.52V132.255C86.5 132.262 86.4733 132.268 86.44 132.275C86.4067 132.285 86.37 132.29 86.33 132.29C86.26 132.29 86.2067 132.275 86.17 132.245C86.1333 132.215 86.115 132.168 86.115 132.105V130.93ZM88.1465 129.145C88.4632 129.145 88.7182 129.215 88.9115 129.355C89.1082 129.492 89.2065 129.698 89.2065 129.975C89.2065 130.108 89.1782 130.223 89.1215 130.32C89.0682 130.413 89.0032 130.487 88.9265 130.54C88.8532 130.593 88.7865 130.628 88.7265 130.645C88.8165 130.672 88.9049 130.718 88.9915 130.785C89.0782 130.848 89.1499 130.932 89.2065 131.035C89.2665 131.135 89.2965 131.257 89.2965 131.4C89.2965 131.6 89.2482 131.767 89.1515 131.9C89.0549 132.033 88.9215 132.135 88.7515 132.205C88.5815 132.272 88.3849 132.305 88.1615 132.305C87.9782 132.305 87.8149 132.287 87.6715 132.25C87.5315 132.21 87.4215 132.16 87.3415 132.1C87.2615 132.04 87.2215 131.977 87.2215 131.91C87.2215 131.863 87.2332 131.823 87.2565 131.79C87.2832 131.757 87.3165 131.728 87.3565 131.705C87.4432 131.772 87.5482 131.832 87.6715 131.885C87.7982 131.938 87.9615 131.965 88.1615 131.965C88.3815 131.965 88.5599 131.918 88.6965 131.825C88.8332 131.728 88.9015 131.583 88.9015 131.39C88.9015 131.22 88.8382 131.083 88.7115 130.98C88.5849 130.877 88.4015 130.825 88.1615 130.825H87.7465C87.7332 130.808 87.7215 130.785 87.7115 130.755C87.7015 130.722 87.6965 130.688 87.6965 130.655C87.6965 130.618 87.7015 130.585 87.7115 130.555C87.7215 130.525 87.7332 130.502 87.7465 130.485H88.1265C88.3732 130.485 88.5482 130.44 88.6515 130.35C88.7582 130.257 88.8115 130.135 88.8115 129.985C88.8115 129.822 88.7515 129.698 88.6315 129.615C88.5115 129.528 88.3482 129.485 88.1415 129.485C87.9815 129.485 87.8399 129.51 87.7165 129.56C87.5965 129.607 87.4965 129.658 87.4165 129.715C87.3832 129.698 87.3532 129.672 87.3265 129.635C87.2999 129.598 87.2865 129.558 87.2865 129.515C87.2865 129.455 87.3249 129.397 87.4015 129.34C87.4782 129.283 87.5815 129.237 87.7115 129.2C87.8415 129.163 87.9865 129.145 88.1465 129.145ZM90.7002 129.145C91.0169 129.145 91.2719 129.215 91.4652 129.355C91.6619 129.492 91.7602 129.698 91.7602 129.975C91.7602 130.108 91.7319 130.223 91.6752 130.32C91.6219 130.413 91.5569 130.487 91.4802 130.54C91.4069 130.593 91.3402 130.628 91.2802 130.645C91.3702 130.672 91.4586 130.718 91.5452 130.785C91.6319 130.848 91.7036 130.932 91.7602 131.035C91.8202 131.135 91.8502 131.257 91.8502 131.4C91.8502 131.6 91.8019 131.767 91.7052 131.9C91.6086 132.033 91.4752 132.135 91.3052 132.205C91.1352 132.272 90.9386 132.305 90.7152 132.305C90.5319 132.305 90.3686 132.287 90.2252 132.25C90.0852 132.21 89.9752 132.16 89.8952 132.1C89.8152 132.04 89.7752 131.977 89.7752 131.91C89.7752 131.863 89.7869 131.823 89.8102 131.79C89.8369 131.757 89.8702 131.728 89.9102 131.705C89.9969 131.772 90.1019 131.832 90.2252 131.885C90.3519 131.938 90.5152 131.965 90.7152 131.965C90.9352 131.965 91.1136 131.918 91.2502 131.825C91.3869 131.728 91.4552 131.583 91.4552 131.39C91.4552 131.22 91.3919 131.083 91.2652 130.98C91.1386 130.877 90.9552 130.825 90.7152 130.825H90.3002C90.2869 130.808 90.2752 130.785 90.2652 130.755C90.2552 130.722 90.2502 130.688 90.2502 130.655C90.2502 130.618 90.2552 130.585 90.2652 130.555C90.2752 130.525 90.2869 130.502 90.3002 130.485H90.6802C90.9269 130.485 91.1019 130.44 91.2052 130.35C91.3119 130.257 91.3652 130.135 91.3652 129.985C91.3652 129.822 91.3052 129.698 91.1852 129.615C91.0652 129.528 90.9019 129.485 90.6952 129.485C90.5352 129.485 90.3936 129.51 90.2702 129.56C90.1502 129.607 90.0502 129.658 89.9702 129.715C89.9369 129.698 89.9069 129.672 89.8802 129.635C89.8536 129.598 89.8402 129.558 89.8402 129.515C89.8402 129.455 89.8786 129.397 89.9552 129.34C90.0319 129.283 90.1352 129.237 90.2652 129.2C90.3952 129.163 90.5402 129.145 90.7002 129.145Z" fill="#A73C4C"/>
<path d="M61.52 97.13H61.115V95.6L60.475 95.9C60.4317 95.8833 60.395 95.8583 60.365 95.825C60.3383 95.7917 60.325 95.75 60.325 95.7C60.325 95.6033 60.385 95.53 60.505 95.48L61.205 95.175H61.3C61.3667 95.175 61.42 95.195 61.46 95.235C61.5 95.275 61.52 95.3283 61.52 95.395V97.13ZM61.115 96.93H61.52V98.255C61.5 98.2617 61.4733 98.2683 61.44 98.275C61.4067 98.285 61.37 98.29 61.33 98.29C61.26 98.29 61.2067 98.275 61.17 98.245C61.1333 98.215 61.115 98.1683 61.115 98.105V96.93ZM63.1465 95.145C63.4632 95.145 63.7182 95.215 63.9115 95.355C64.1082 95.4917 64.2065 95.6983 64.2065 95.975C64.2065 96.1083 64.1782 96.2233 64.1215 96.32C64.0682 96.4133 64.0032 96.4867 63.9265 96.54C63.8532 96.5933 63.7865 96.6283 63.7265 96.645C63.8165 96.6717 63.9049 96.7183 63.9915 96.785C64.0782 96.8483 64.1499 96.9317 64.2065 97.035C64.2665 97.135 64.2965 97.2567 64.2965 97.4C64.2965 97.6 64.2482 97.7667 64.1515 97.9C64.0549 98.0333 63.9215 98.135 63.7515 98.205C63.5815 98.2717 63.3849 98.305 63.1615 98.305C62.9782 98.305 62.8149 98.2867 62.6715 98.25C62.5315 98.21 62.4215 98.16 62.3415 98.1C62.2615 98.04 62.2215 97.9767 62.2215 97.91C62.2215 97.8633 62.2332 97.8233 62.2565 97.79C62.2832 97.7567 62.3165 97.7283 62.3565 97.705C62.4432 97.7717 62.5482 97.8317 62.6715 97.885C62.7982 97.9383 62.9615 97.965 63.1615 97.965C63.3815 97.965 63.5599 97.9183 63.6965 97.825C63.8332 97.7283 63.9015 97.5833 63.9015 97.39C63.9015 97.22 63.8382 97.0833 63.7115 96.98C63.5849 96.8767 63.4015 96.825 63.1615 96.825H62.7465C62.7332 96.8083 62.7215 96.785 62.7115 96.755C62.7015 96.7217 62.6965 96.6883 62.6965 96.655C62.6965 96.6183 62.7015 96.585 62.7115 96.555C62.7215 96.525 62.7332 96.5017 62.7465 96.485H63.1265C63.3732 96.485 63.5482 96.44 63.6515 96.35C63.7582 96.2567 63.8115 96.135 63.8115 95.985C63.8115 95.8217 63.7515 95.6983 63.6315 95.615C63.5115 95.5283 63.3482 95.485 63.1415 95.485C62.9815 95.485 62.8399 95.51 62.7165 95.56C62.5965 95.6067 62.4965 95.6583 62.4165 95.715C62.3832 95.6983 62.3532 95.6717 62.3265 95.635C62.2999 95.5983 62.2865 95.5583 62.2865 95.515C62.2865 95.455 62.3249 95.3967 62.4015 95.34C62.4782 95.2833 62.5815 95.2367 62.7115 95.2C62.8415 95.1633 62.9865 95.145 63.1465 95.145ZM66.0458 98.315C65.8125 98.315 65.6058 98.2583 65.4258 98.145C65.2492 98.0283 65.1108 97.8533 65.0108 97.62C64.9108 97.3833 64.8608 97.0867 64.8608 96.73C64.8608 96.3467 64.9175 96.04 65.0308 95.81C65.1442 95.58 65.2908 95.4133 65.4708 95.31C65.6508 95.2033 65.8425 95.15 66.0458 95.15C66.2525 95.15 66.4458 95.2033 66.6258 95.31C66.8092 95.4167 66.9558 95.5867 67.0658 95.82C67.1792 96.05 67.2358 96.3533 67.2358 96.73C67.2358 97.0833 67.1858 97.3783 67.0858 97.615C66.9858 97.8483 66.8458 98.0233 66.6658 98.14C66.4892 98.2567 66.2825 98.315 66.0458 98.315ZM66.0458 97.975C66.2925 97.975 66.4842 97.8683 66.6208 97.655C66.7575 97.4383 66.8258 97.13 66.8258 96.73C66.8258 96.4333 66.7892 96.195 66.7158 96.015C66.6458 95.8317 66.5525 95.6983 66.4358 95.615C66.3192 95.5317 66.1892 95.49 66.0458 95.49C65.9058 95.49 65.7758 95.5333 65.6558 95.62C65.5392 95.7033 65.4458 95.8367 65.3758 96.02C65.3058 96.2033 65.2708 96.44 65.2708 96.73C65.2708 97.13 65.3392 97.4383 65.4758 97.655C65.6125 97.8683 65.8025 97.975 66.0458 97.975Z" fill="#A73C4C"/>
<path d="M61.52 109.13H61.115V107.6L60.475 107.9C60.4317 107.883 60.395 107.858 60.365 107.825C60.3383 107.792 60.325 107.75 60.325 107.7C60.325 107.603 60.385 107.53 60.505 107.48L61.205 107.175H61.3C61.3667 107.175 61.42 107.195 61.46 107.235C61.5 107.275 61.52 107.328 61.52 107.395V109.13ZM61.115 108.93H61.52V110.255C61.5 110.262 61.4733 110.268 61.44 110.275C61.4067 110.285 61.37 110.29 61.33 110.29C61.26 110.29 61.2067 110.275 61.17 110.245C61.1333 110.215 61.115 110.168 61.115 110.105V108.93ZM63.1465 107.145C63.4632 107.145 63.7182 107.215 63.9115 107.355C64.1082 107.492 64.2065 107.698 64.2065 107.975C64.2065 108.108 64.1782 108.223 64.1215 108.32C64.0682 108.413 64.0032 108.487 63.9265 108.54C63.8532 108.593 63.7865 108.628 63.7265 108.645C63.8165 108.672 63.9049 108.718 63.9915 108.785C64.0782 108.848 64.1499 108.932 64.2065 109.035C64.2665 109.135 64.2965 109.257 64.2965 109.4C64.2965 109.6 64.2482 109.767 64.1515 109.9C64.0549 110.033 63.9215 110.135 63.7515 110.205C63.5815 110.272 63.3849 110.305 63.1615 110.305C62.9782 110.305 62.8149 110.287 62.6715 110.25C62.5315 110.21 62.4215 110.16 62.3415 110.1C62.2615 110.04 62.2215 109.977 62.2215 109.91C62.2215 109.863 62.2332 109.823 62.2565 109.79C62.2832 109.757 62.3165 109.728 62.3565 109.705C62.4432 109.772 62.5482 109.832 62.6715 109.885C62.7982 109.938 62.9615 109.965 63.1615 109.965C63.3815 109.965 63.5599 109.918 63.6965 109.825C63.8332 109.728 63.9015 109.583 63.9015 109.39C63.9015 109.22 63.8382 109.083 63.7115 108.98C63.5849 108.877 63.4015 108.825 63.1615 108.825H62.7465C62.7332 108.808 62.7215 108.785 62.7115 108.755C62.7015 108.722 62.6965 108.688 62.6965 108.655C62.6965 108.618 62.7015 108.585 62.7115 108.555C62.7215 108.525 62.7332 108.502 62.7465 108.485H63.1265C63.3732 108.485 63.5482 108.44 63.6515 108.35C63.7582 108.257 63.8115 108.135 63.8115 107.985C63.8115 107.822 63.7515 107.698 63.6315 107.615C63.5115 107.528 63.3482 107.485 63.1415 107.485C62.9815 107.485 62.8399 107.51 62.7165 107.56C62.5965 107.607 62.4965 107.658 62.4165 107.715C62.3832 107.698 62.3532 107.672 62.3265 107.635C62.2999 107.598 62.2865 107.558 62.2865 107.515C62.2865 107.455 62.3249 107.397 62.4015 107.34C62.4782 107.283 62.5815 107.237 62.7115 107.2C62.8415 107.163 62.9865 107.145 63.1465 107.145ZM65.8608 109.13H65.4558V107.6L64.8158 107.9C64.7725 107.883 64.7358 107.858 64.7058 107.825C64.6792 107.792 64.6658 107.75 64.6658 107.7C64.6658 107.603 64.7258 107.53 64.8458 107.48L65.5458 107.175H65.6408C65.7075 107.175 65.7608 107.195 65.8008 107.235C65.8408 107.275 65.8608 107.328 65.8608 107.395V109.13ZM65.4558 108.93H65.8608V110.255C65.8408 110.262 65.8142 110.268 65.7808 110.275C65.7475 110.285 65.7108 110.29 65.6708 110.29C65.6008 110.29 65.5475 110.275 65.5108 110.245C65.4742 110.215 65.4558 110.168 65.4558 110.105V108.93Z" fill="#A73C4C"/>
<path d="M61.52 120.13H61.115V118.6L60.475 118.9C60.4317 118.883 60.395 118.858 60.365 118.825C60.3383 118.792 60.325 118.75 60.325 118.7C60.325 118.603 60.385 118.53 60.505 118.48L61.205 118.175H61.3C61.3667 118.175 61.42 118.195 61.46 118.235C61.5 118.275 61.52 118.328 61.52 118.395V120.13ZM61.115 119.93H61.52V121.255C61.5 121.262 61.4733 121.268 61.44 121.275C61.4067 121.285 61.37 121.29 61.33 121.29C61.26 121.29 61.2067 121.275 61.17 121.245C61.1333 121.215 61.115 121.168 61.115 121.105V119.93ZM63.1465 118.145C63.4632 118.145 63.7182 118.215 63.9115 118.355C64.1082 118.492 64.2065 118.698 64.2065 118.975C64.2065 119.108 64.1782 119.223 64.1215 119.32C64.0682 119.413 64.0032 119.487 63.9265 119.54C63.8532 119.593 63.7865 119.628 63.7265 119.645C63.8165 119.672 63.9049 119.718 63.9915 119.785C64.0782 119.848 64.1499 119.932 64.2065 120.035C64.2665 120.135 64.2965 120.257 64.2965 120.4C64.2965 120.6 64.2482 120.767 64.1515 120.9C64.0549 121.033 63.9215 121.135 63.7515 121.205C63.5815 121.272 63.3849 121.305 63.1615 121.305C62.9782 121.305 62.8149 121.287 62.6715 121.25C62.5315 121.21 62.4215 121.16 62.3415 121.1C62.2615 121.04 62.2215 120.977 62.2215 120.91C62.2215 120.863 62.2332 120.823 62.2565 120.79C62.2832 120.757 62.3165 120.728 62.3565 120.705C62.4432 120.772 62.5482 120.832 62.6715 120.885C62.7982 120.938 62.9615 120.965 63.1615 120.965C63.3815 120.965 63.5599 120.918 63.6965 120.825C63.8332 120.728 63.9015 120.583 63.9015 120.39C63.9015 120.22 63.8382 120.083 63.7115 119.98C63.5849 119.877 63.4015 119.825 63.1615 119.825H62.7465C62.7332 119.808 62.7215 119.785 62.7115 119.755C62.7015 119.722 62.6965 119.688 62.6965 119.655C62.6965 119.618 62.7015 119.585 62.7115 119.555C62.7215 119.525 62.7332 119.502 62.7465 119.485H63.1265C63.3732 119.485 63.5482 119.44 63.6515 119.35C63.7582 119.257 63.8115 119.135 63.8115 118.985C63.8115 118.822 63.7515 118.698 63.6315 118.615C63.5115 118.528 63.3482 118.485 63.1415 118.485C62.9815 118.485 62.8399 118.51 62.7165 118.56C62.5965 118.607 62.4965 118.658 62.4165 118.715C62.3832 118.698 62.3532 118.672 62.3265 118.635C62.2999 118.598 62.2865 118.558 62.2865 118.515C62.2865 118.455 62.3249 118.397 62.4015 118.34C62.4782 118.283 62.5815 118.237 62.7115 118.2C62.8415 118.163 62.9865 118.145 63.1465 118.145ZM64.8758 118.525C64.8758 118.465 64.9142 118.407 64.9908 118.35C65.0675 118.29 65.1708 118.242 65.3008 118.205C65.4308 118.168 65.5725 118.15 65.7258 118.15C65.9392 118.15 66.1225 118.187 66.2758 118.26C66.4292 118.33 66.5475 118.43 66.6308 118.56C66.7142 118.69 66.7558 118.843 66.7558 119.02C66.7558 119.203 66.7042 119.383 66.6008 119.56C66.5008 119.737 66.3275 119.938 66.0808 120.165L65.2658 120.92H66.7508C66.7642 120.933 66.7758 120.955 66.7858 120.985C66.7958 121.012 66.8008 121.043 66.8008 121.08C66.8008 121.133 66.7858 121.175 66.7558 121.205C66.7292 121.235 66.6925 121.25 66.6458 121.25H64.8808C64.8475 121.227 64.8225 121.198 64.8058 121.165C64.7892 121.128 64.7808 121.09 64.7808 121.05C64.7808 120.997 64.7908 120.95 64.8108 120.91C64.8308 120.867 64.8608 120.827 64.9008 120.79L65.8008 119.925C66.0075 119.732 66.1492 119.57 66.2258 119.44C66.3025 119.307 66.3408 119.168 66.3408 119.025C66.3408 118.868 66.2875 118.74 66.1808 118.64C66.0742 118.54 65.9125 118.49 65.6958 118.49C65.5492 118.49 65.4175 118.515 65.3008 118.565C65.1875 118.615 65.0925 118.668 65.0158 118.725C64.9792 118.708 64.9458 118.683 64.9158 118.65C64.8892 118.617 64.8758 118.575 64.8758 118.525Z" fill="#A73C4C"/>
<path d="M109.41 96.1112L109.059 95.9087L109.824 94.5837L109.12 94.5235C109.091 94.4874 109.071 94.4474 109.062 94.4035C109.056 94.3613 109.065 94.3186 109.09 94.2753C109.138 94.1916 109.227 94.1581 109.356 94.1748L110.115 94.2606L110.197 94.3081C110.255 94.3415 110.291 94.3854 110.305 94.4401C110.32 94.4947 110.311 94.5509 110.277 94.6086L109.41 96.1112ZM109.159 95.7355L109.51 95.938L108.847 97.0855C108.827 97.0813 108.8 97.0737 108.768 97.0628C108.734 97.0548 108.7 97.0408 108.665 97.0208C108.605 96.9858 108.566 96.9461 108.549 96.9018C108.532 96.8575 108.54 96.8079 108.572 96.7531L109.159 95.7355ZM110.949 95.1467C110.979 95.0947 111.042 95.0634 111.136 95.0526C111.233 95.039 111.346 95.0488 111.477 95.0821C111.608 95.1153 111.74 95.1703 111.873 95.2469C112.058 95.3536 112.198 95.477 112.294 95.6172C112.392 95.7545 112.444 95.9003 112.452 96.0545C112.459 96.2088 112.418 96.3624 112.33 96.5154C112.238 96.6742 112.104 96.8042 111.926 96.9055C111.751 97.0085 111.5 97.0965 111.173 97.1695L110.09 97.4158L111.376 98.1583C111.38 98.1765 111.38 98.2011 111.373 98.2321C111.369 98.2602 111.357 98.2901 111.339 98.3219C111.312 98.3681 111.278 98.3967 111.237 98.4077C111.199 98.4203 111.16 98.415 111.12 98.3916L109.591 97.5091C109.574 97.4722 109.566 97.4352 109.569 97.398C109.573 97.3579 109.585 97.3206 109.605 97.2859C109.631 97.2397 109.663 97.2043 109.7 97.1797C109.739 97.1521 109.785 97.1325 109.838 97.1207L111.05 96.8216C111.326 96.7575 111.53 96.6884 111.661 96.6141C111.794 96.537 111.896 96.4363 111.968 96.3122C112.046 96.1765 112.064 96.0387 112.022 95.8988C111.98 95.7589 111.865 95.6347 111.677 95.5264C111.55 95.4531 111.423 95.4089 111.297 95.3938C111.174 95.3805 111.065 95.3792 110.971 95.3899C110.947 95.3571 110.931 95.3188 110.921 95.275C110.915 95.2328 110.924 95.19 110.949 95.1467ZM112.681 99.3683C112.485 99.2549 112.33 99.1269 112.216 98.9842C112.104 98.8385 112.04 98.6861 112.024 98.5269C112.008 98.3676 112.046 98.2086 112.138 98.0498C112.219 97.9084 112.32 97.8069 112.44 97.7454C112.565 97.6827 112.696 97.6502 112.832 97.6479C112.968 97.6456 113.096 97.6661 113.218 97.7092L113.502 97.8159C113.734 97.8955 113.924 97.9263 114.073 97.9084C114.223 97.8875 114.337 97.8107 114.413 97.6779C114.492 97.5422 114.502 97.4077 114.444 97.2743C114.388 97.1381 114.272 97.0191 114.096 96.9174C113.926 96.8191 113.766 96.7789 113.617 96.7968C113.468 96.8148 113.356 96.8887 113.281 97.0186C113.218 97.1283 113.196 97.233 113.216 97.3327C113.238 97.4341 113.288 97.5305 113.366 97.6218C113.449 97.7119 113.546 97.7969 113.658 97.8767L113.811 98.0517C113.916 98.1431 114.004 98.25 114.076 98.3723C114.15 98.4917 114.191 98.6196 114.201 98.7561C114.211 98.8926 114.173 99.0344 114.088 99.1817C113.998 99.3375 113.879 99.4476 113.73 99.5119C113.584 99.5778 113.42 99.5985 113.238 99.5742C113.06 99.5486 112.875 99.4799 112.681 99.3683ZM112.849 99.0781C113.036 99.1865 113.211 99.2336 113.373 99.2194C113.536 99.2052 113.661 99.1217 113.749 98.9687C113.846 98.8012 113.852 98.6276 113.767 98.4478C113.685 98.2696 113.531 98.1058 113.306 97.9564L113.123 97.764C112.982 97.6211 112.891 97.4686 112.85 97.3063C112.812 97.1457 112.841 96.9817 112.938 96.8143C113.023 96.667 113.133 96.5617 113.27 96.4982C113.41 96.4364 113.564 96.4158 113.733 96.4364C113.905 96.4587 114.082 96.5223 114.264 96.6273C114.547 96.7906 114.731 96.9839 114.818 97.2071C114.909 97.4292 114.89 97.6528 114.76 97.8779C114.655 98.0598 114.51 98.1669 114.326 98.1991C114.145 98.233 113.957 98.215 113.763 98.1451L113.433 98.0357C113.232 97.9579 113.045 97.9348 112.873 97.9663C112.705 97.9965 112.577 98.0896 112.487 98.2455C112.402 98.3927 112.391 98.5407 112.455 98.6894C112.521 98.8352 112.652 98.9648 112.849 99.0781Z" fill="#A73C4C"/>
<path d="M107.52 194.13H107.115V192.6L106.475 192.9C106.432 192.883 106.395 192.858 106.365 192.825C106.338 192.792 106.325 192.75 106.325 192.7C106.325 192.603 106.385 192.53 106.505 192.48L107.205 192.175H107.3C107.367 192.175 107.42 192.195 107.46 192.235C107.5 192.275 107.52 192.328 107.52 192.395V194.13ZM107.115 193.93H107.52V195.255C107.5 195.262 107.473 195.268 107.44 195.275C107.407 195.285 107.37 195.29 107.33 195.29C107.26 195.29 107.207 195.275 107.17 195.245C107.133 195.215 107.115 195.168 107.115 195.105V193.93ZM109.147 192.145C109.463 192.145 109.718 192.215 109.912 192.355C110.108 192.492 110.207 192.698 110.207 192.975C110.207 193.108 110.178 193.223 110.122 193.32C110.068 193.413 110.003 193.487 109.927 193.54C109.853 193.593 109.787 193.628 109.727 193.645C109.817 193.672 109.905 193.718 109.992 193.785C110.078 193.848 110.15 193.932 110.207 194.035C110.267 194.135 110.297 194.257 110.297 194.4C110.297 194.6 110.248 194.767 110.152 194.9C110.055 195.033 109.922 195.135 109.752 195.205C109.582 195.272 109.385 195.305 109.162 195.305C108.978 195.305 108.815 195.287 108.672 195.25C108.532 195.21 108.422 195.16 108.342 195.1C108.262 195.04 108.222 194.977 108.222 194.91C108.222 194.863 108.233 194.823 108.257 194.79C108.283 194.757 108.317 194.728 108.357 194.705C108.443 194.772 108.548 194.832 108.672 194.885C108.798 194.938 108.962 194.965 109.162 194.965C109.382 194.965 109.56 194.918 109.697 194.825C109.833 194.728 109.902 194.583 109.902 194.39C109.902 194.22 109.838 194.083 109.712 193.98C109.585 193.877 109.402 193.825 109.162 193.825H108.747C108.733 193.808 108.722 193.785 108.712 193.755C108.702 193.722 108.697 193.688 108.697 193.655C108.697 193.618 108.702 193.585 108.712 193.555C108.722 193.525 108.733 193.502 108.747 193.485H109.127C109.373 193.485 109.548 193.44 109.652 193.35C109.758 193.257 109.812 193.135 109.812 192.985C109.812 192.822 109.752 192.698 109.632 192.615C109.512 192.528 109.348 192.485 109.142 192.485C108.982 192.485 108.84 192.51 108.717 192.56C108.597 192.607 108.497 192.658 108.417 192.715C108.383 192.698 108.353 192.672 108.327 192.635C108.3 192.598 108.287 192.558 108.287 192.515C108.287 192.455 108.325 192.397 108.402 192.34C108.478 192.283 108.582 192.237 108.712 192.2C108.842 192.163 108.987 192.145 109.147 192.145ZM111.02 195.005C111.02 194.965 111.03 194.927 111.05 194.89C111.074 194.853 111.102 194.827 111.135 194.81C111.199 194.847 111.28 194.883 111.38 194.92C111.484 194.953 111.605 194.97 111.745 194.97C111.919 194.97 112.077 194.933 112.22 194.86C112.364 194.787 112.479 194.667 112.565 194.5C112.652 194.33 112.695 194.107 112.695 193.83C112.665 193.863 112.615 193.905 112.545 193.955C112.479 194.002 112.394 194.043 112.29 194.08C112.187 194.117 112.067 194.135 111.93 194.135C111.744 194.135 111.569 194.103 111.405 194.04C111.242 193.973 111.11 193.868 111.01 193.725C110.914 193.582 110.865 193.393 110.865 193.16C110.865 192.95 110.912 192.77 111.005 192.62C111.099 192.467 111.225 192.35 111.385 192.27C111.545 192.19 111.724 192.15 111.92 192.15C112.15 192.15 112.354 192.203 112.53 192.31C112.707 192.413 112.845 192.575 112.945 192.795C113.049 193.012 113.1 193.292 113.1 193.635C113.1 194.042 113.044 194.368 112.93 194.615C112.817 194.862 112.659 195.04 112.455 195.15C112.255 195.26 112.02 195.315 111.75 195.315C111.55 195.315 111.379 195.288 111.235 195.235C111.092 195.182 111.02 195.105 111.02 195.005ZM111.985 193.8C112.155 193.8 112.305 193.758 112.435 193.675C112.569 193.588 112.657 193.493 112.7 193.39L112.695 193.445C112.695 193.148 112.627 192.915 112.49 192.745C112.357 192.572 112.167 192.485 111.92 192.485C111.737 192.485 111.582 192.545 111.455 192.665C111.332 192.782 111.27 192.943 111.27 193.15C111.27 193.38 111.34 193.547 111.48 193.65C111.62 193.75 111.789 193.8 111.985 193.8Z" fill="#A73C4C"/>
<path d="M107.52 204.13H107.115V202.6L106.475 202.9C106.432 202.883 106.395 202.858 106.365 202.825C106.338 202.792 106.325 202.75 106.325 202.7C106.325 202.603 106.385 202.53 106.505 202.48L107.205 202.175H107.3C107.367 202.175 107.42 202.195 107.46 202.235C107.5 202.275 107.52 202.328 107.52 202.395V204.13ZM107.115 203.93H107.52V205.255C107.5 205.262 107.473 205.268 107.44 205.275C107.407 205.285 107.37 205.29 107.33 205.29C107.26 205.29 107.207 205.275 107.17 205.245C107.133 205.215 107.115 205.168 107.115 205.105V203.93ZM108.222 204.135L109.677 202.205C109.707 202.198 109.74 202.193 109.777 202.19C109.817 202.183 109.852 202.18 109.882 202.18C109.928 202.18 109.972 202.187 110.012 202.2C110.055 202.213 110.09 202.238 110.117 202.275C110.143 202.308 110.157 202.358 110.157 202.425V204.175H110.657C110.667 204.192 110.677 204.215 110.687 204.245C110.697 204.272 110.702 204.303 110.702 204.34C110.702 204.393 110.688 204.435 110.662 204.465C110.635 204.495 110.597 204.51 110.547 204.51H110.157V205.26C110.14 205.263 110.115 205.268 110.082 205.275C110.052 205.285 110.018 205.29 109.982 205.29C109.912 205.29 109.858 205.275 109.822 205.245C109.785 205.215 109.767 205.172 109.767 205.115V204.51H108.322C108.288 204.493 108.258 204.463 108.232 204.42C108.208 204.377 108.197 204.328 108.197 204.275C108.197 204.245 108.198 204.22 108.202 204.2C108.208 204.177 108.215 204.155 108.222 204.135ZM109.772 204.175L109.782 202.6H109.772L108.662 204.175H109.772ZM112.305 205.315C112.071 205.315 111.865 205.258 111.685 205.145C111.508 205.028 111.37 204.853 111.27 204.62C111.17 204.383 111.12 204.087 111.12 203.73C111.12 203.347 111.176 203.04 111.29 202.81C111.403 202.58 111.55 202.413 111.73 202.31C111.91 202.203 112.101 202.15 112.305 202.15C112.511 202.15 112.705 202.203 112.885 202.31C113.068 202.417 113.215 202.587 113.325 202.82C113.438 203.05 113.495 203.353 113.495 203.73C113.495 204.083 113.445 204.378 113.345 204.615C113.245 204.848 113.105 205.023 112.925 205.14C112.748 205.257 112.541 205.315 112.305 205.315ZM112.305 204.975C112.551 204.975 112.743 204.868 112.88 204.655C113.016 204.438 113.085 204.13 113.085 203.73C113.085 203.433 113.048 203.195 112.975 203.015C112.905 202.832 112.811 202.698 112.695 202.615C112.578 202.532 112.448 202.49 112.305 202.49C112.165 202.49 112.035 202.533 111.915 202.62C111.798 202.703 111.705 202.837 111.635 203.02C111.565 203.203 111.53 203.44 111.53 203.73C111.53 204.13 111.598 204.438 111.735 204.655C111.871 204.868 112.061 204.975 112.305 204.975Z" fill="#A73C4C"/>
<path d="M87.52 204.13H87.115V202.6L86.475 202.9C86.4317 202.883 86.395 202.858 86.365 202.825C86.3383 202.792 86.325 202.75 86.325 202.7C86.325 202.603 86.385 202.53 86.505 202.48L87.205 202.175H87.3C87.3667 202.175 87.42 202.195 87.46 202.235C87.5 202.275 87.52 202.328 87.52 202.395V204.13ZM87.115 203.93H87.52V205.255C87.5 205.262 87.4733 205.268 87.44 205.275C87.4067 205.285 87.37 205.29 87.33 205.29C87.26 205.29 87.2067 205.275 87.17 205.245C87.1333 205.215 87.115 205.168 87.115 205.105V203.93ZM88.2215 204.135L89.6765 202.205C89.7065 202.198 89.7399 202.193 89.7765 202.19C89.8165 202.183 89.8515 202.18 89.8815 202.18C89.9282 202.18 89.9715 202.187 90.0115 202.2C90.0549 202.213 90.0899 202.238 90.1165 202.275C90.1432 202.308 90.1565 202.358 90.1565 202.425V204.175H90.6565C90.6665 204.192 90.6765 204.215 90.6865 204.245C90.6965 204.272 90.7015 204.303 90.7015 204.34C90.7015 204.393 90.6882 204.435 90.6615 204.465C90.6349 204.495 90.5965 204.51 90.5465 204.51H90.1565V205.26C90.1399 205.263 90.1149 205.268 90.0815 205.275C90.0515 205.285 90.0182 205.29 89.9815 205.29C89.9115 205.29 89.8582 205.275 89.8215 205.245C89.7849 205.215 89.7665 205.172 89.7665 205.115V204.51H88.3215C88.2882 204.493 88.2582 204.463 88.2315 204.42C88.2082 204.377 88.1965 204.328 88.1965 204.275C88.1965 204.245 88.1982 204.22 88.2015 204.2C88.2082 204.177 88.2149 204.155 88.2215 204.135ZM89.7715 204.175L89.7815 202.6H89.7715L88.6615 204.175H89.7715ZM92.0659 204.13H91.6609V202.6L91.0209 202.9C90.9776 202.883 90.9409 202.858 90.9109 202.825C90.8842 202.792 90.8709 202.75 90.8709 202.7C90.8709 202.603 90.9309 202.53 91.0509 202.48L91.7509 202.175H91.8459C91.9126 202.175 91.9659 202.195 92.0059 202.235C92.0459 202.275 92.0659 202.328 92.0659 202.395V204.13ZM91.6609 203.93H92.0659V205.255C92.0459 205.262 92.0192 205.268 91.9859 205.275C91.9526 205.285 91.9159 205.29 91.8759 205.29C91.8059 205.29 91.7526 205.275 91.7159 205.245C91.6792 205.215 91.6609 205.168 91.6609 205.105V203.93Z" fill="#A73C4C"/>
<path d="M74.52 196.13H74.115V194.6L73.475 194.9C73.4317 194.883 73.395 194.858 73.365 194.825C73.3383 194.792 73.325 194.75 73.325 194.7C73.325 194.603 73.385 194.53 73.505 194.48L74.205 194.175H74.3C74.3667 194.175 74.42 194.195 74.46 194.235C74.5 194.275 74.52 194.328 74.52 194.395V196.13ZM74.115 195.93H74.52V197.255C74.5 197.262 74.4733 197.268 74.44 197.275C74.4067 197.285 74.37 197.29 74.33 197.29C74.26 197.29 74.2067 197.275 74.17 197.245C74.1333 197.215 74.115 197.168 74.115 197.105V195.93ZM75.2215 196.135L76.6765 194.205C76.7065 194.198 76.7399 194.193 76.7765 194.19C76.8165 194.183 76.8515 194.18 76.8815 194.18C76.9282 194.18 76.9715 194.187 77.0115 194.2C77.0549 194.213 77.0899 194.238 77.1165 194.275C77.1432 194.308 77.1565 194.358 77.1565 194.425V196.175H77.6565C77.6665 196.192 77.6765 196.215 77.6865 196.245C77.6965 196.272 77.7015 196.303 77.7015 196.34C77.7015 196.393 77.6882 196.435 77.6615 196.465C77.6349 196.495 77.5965 196.51 77.5465 196.51H77.1565V197.26C77.1399 197.263 77.1149 197.268 77.0815 197.275C77.0515 197.285 77.0182 197.29 76.9815 197.29C76.9115 197.29 76.8582 197.275 76.8215 197.245C76.7849 197.215 76.7665 197.172 76.7665 197.115V196.51H75.3215C75.2882 196.493 75.2582 196.463 75.2315 196.42C75.2082 196.377 75.1965 196.328 75.1965 196.275C75.1965 196.245 75.1982 196.22 75.2015 196.2C75.2082 196.177 75.2149 196.155 75.2215 196.135ZM76.7715 196.175L76.7815 194.6H76.7715L75.6615 196.175H76.7715ZM78.9346 194.145C79.2513 194.145 79.5063 194.215 79.6996 194.355C79.8963 194.492 79.9946 194.698 79.9946 194.975C79.9946 195.108 79.9663 195.223 79.9096 195.32C79.8563 195.413 79.7913 195.487 79.7146 195.54C79.6413 195.593 79.5746 195.628 79.5146 195.645C79.6046 195.672 79.6929 195.718 79.7796 195.785C79.8663 195.848 79.9379 195.932 79.9946 196.035C80.0546 196.135 80.0846 196.257 80.0846 196.4C80.0846 196.6 80.0363 196.767 79.9396 196.9C79.8429 197.033 79.7096 197.135 79.5396 197.205C79.3696 197.272 79.1729 197.305 78.9496 197.305C78.7663 197.305 78.6029 197.287 78.4596 197.25C78.3196 197.21 78.2096 197.16 78.1296 197.1C78.0496 197.04 78.0096 196.977 78.0096 196.91C78.0096 196.863 78.0213 196.823 78.0446 196.79C78.0713 196.757 78.1046 196.728 78.1446 196.705C78.2313 196.772 78.3363 196.832 78.4596 196.885C78.5863 196.938 78.7496 196.965 78.9496 196.965C79.1696 196.965 79.3479 196.918 79.4846 196.825C79.6213 196.728 79.6896 196.583 79.6896 196.39C79.6896 196.22 79.6263 196.083 79.4996 195.98C79.3729 195.877 79.1896 195.825 78.9496 195.825H78.5346C78.5213 195.808 78.5096 195.785 78.4996 195.755C78.4896 195.722 78.4846 195.688 78.4846 195.655C78.4846 195.618 78.4896 195.585 78.4996 195.555C78.5096 195.525 78.5213 195.502 78.5346 195.485H78.9146C79.1613 195.485 79.3363 195.44 79.4396 195.35C79.5463 195.257 79.5996 195.135 79.5996 194.985C79.5996 194.822 79.5396 194.698 79.4196 194.615C79.2996 194.528 79.1363 194.485 78.9296 194.485C78.7696 194.485 78.6279 194.51 78.5046 194.56C78.3846 194.607 78.2846 194.658 78.2046 194.715C78.1713 194.698 78.1413 194.672 78.1146 194.635C78.0879 194.598 78.0746 194.558 78.0746 194.515C78.0746 194.455 78.1129 194.397 78.1896 194.34C78.2663 194.283 78.3696 194.237 78.4996 194.2C78.6296 194.163 78.7746 194.145 78.9346 194.145Z" fill="#A73C4C"/>
<path d="M74.52 202.13H74.115V200.6L73.475 200.9C73.4317 200.883 73.395 200.858 73.365 200.825C73.3383 200.792 73.325 200.75 73.325 200.7C73.325 200.603 73.385 200.53 73.505 200.48L74.205 200.175H74.3C74.3667 200.175 74.42 200.195 74.46 200.235C74.5 200.275 74.52 200.328 74.52 200.395V202.13ZM74.115 201.93H74.52V203.255C74.5 203.262 74.4733 203.268 74.44 203.275C74.4067 203.285 74.37 203.29 74.33 203.29C74.26 203.29 74.2067 203.275 74.17 203.245C74.1333 203.215 74.115 203.168 74.115 203.105V201.93ZM75.2215 202.135L76.6765 200.205C76.7065 200.198 76.7399 200.193 76.7765 200.19C76.8165 200.183 76.8515 200.18 76.8815 200.18C76.9282 200.18 76.9715 200.187 77.0115 200.2C77.0549 200.213 77.0899 200.238 77.1165 200.275C77.1432 200.308 77.1565 200.358 77.1565 200.425V202.175H77.6565C77.6665 202.192 77.6765 202.215 77.6865 202.245C77.6965 202.272 77.7015 202.303 77.7015 202.34C77.7015 202.393 77.6882 202.435 77.6615 202.465C77.6349 202.495 77.5965 202.51 77.5465 202.51H77.1565V203.26C77.1399 203.263 77.1149 203.268 77.0815 203.275C77.0515 203.285 77.0182 203.29 76.9815 203.29C76.9115 203.29 76.8582 203.275 76.8215 203.245C76.7849 203.215 76.7665 203.172 76.7665 203.115V202.51H75.3215C75.2882 202.493 75.2582 202.463 75.2315 202.42C75.2082 202.377 75.1965 202.328 75.1965 202.275C75.1965 202.245 75.1982 202.22 75.2015 202.2C75.2082 202.177 75.2149 202.155 75.2215 202.135ZM76.7715 202.175L76.7815 200.6H76.7715L75.6615 202.175H76.7715ZM78.0584 202.135L79.5134 200.205C79.5434 200.198 79.5768 200.193 79.6134 200.19C79.6534 200.183 79.6884 200.18 79.7184 200.18C79.7651 200.18 79.8084 200.187 79.8484 200.2C79.8918 200.213 79.9268 200.238 79.9534 200.275C79.9801 200.308 79.9934 200.358 79.9934 200.425V202.175H80.4934C80.5034 202.192 80.5134 202.215 80.5234 202.245C80.5334 202.272 80.5384 202.303 80.5384 202.34C80.5384 202.393 80.5251 202.435 80.4984 202.465C80.4718 202.495 80.4334 202.51 80.3834 202.51H79.9934V203.26C79.9768 203.263 79.9518 203.268 79.9184 203.275C79.8884 203.285 79.8551 203.29 79.8184 203.29C79.7484 203.29 79.6951 203.275 79.6584 203.245C79.6218 203.215 79.6034 203.172 79.6034 203.115V202.51H78.1584C78.1251 202.493 78.0951 202.463 78.0684 202.42C78.0451 202.377 78.0334 202.328 78.0334 202.275C78.0334 202.245 78.0351 202.22 78.0384 202.2C78.0451 202.177 78.0518 202.155 78.0584 202.135ZM79.6084 202.175L79.6184 200.6H79.6084L78.4984 202.175H79.6084Z" fill="#A73C4C"/>
<path d="M61.52 198.13H61.115V196.6L60.475 196.9C60.4317 196.883 60.395 196.858 60.365 196.825C60.3383 196.792 60.325 196.75 60.325 196.7C60.325 196.603 60.385 196.53 60.505 196.48L61.205 196.175H61.3C61.3667 196.175 61.42 196.195 61.46 196.235C61.5 196.275 61.52 196.328 61.52 196.395V198.13ZM61.115 197.93H61.52V199.255C61.5 199.262 61.4733 199.268 61.44 199.275C61.4067 199.285 61.37 199.29 61.33 199.29C61.26 199.29 61.2067 199.275 61.17 199.245C61.1333 199.215 61.115 199.168 61.115 199.105V197.93ZM62.2215 198.135L63.6765 196.205C63.7065 196.198 63.7399 196.193 63.7765 196.19C63.8165 196.183 63.8515 196.18 63.8815 196.18C63.9282 196.18 63.9715 196.187 64.0115 196.2C64.0549 196.213 64.0899 196.238 64.1165 196.275C64.1432 196.308 64.1565 196.358 64.1565 196.425V198.175H64.6565C64.6665 198.192 64.6765 198.215 64.6865 198.245C64.6965 198.272 64.7015 198.303 64.7015 198.34C64.7015 198.393 64.6882 198.435 64.6615 198.465C64.6349 198.495 64.5965 198.51 64.5465 198.51H64.1565V199.26C64.1399 199.263 64.1149 199.268 64.0815 199.275C64.0515 199.285 64.0182 199.29 63.9815 199.29C63.9115 199.29 63.8582 199.275 63.8215 199.245C63.7849 199.215 63.7665 199.172 63.7665 199.115V198.51H62.3215C62.2882 198.493 62.2582 198.463 62.2315 198.42C62.2082 198.377 62.1965 198.328 62.1965 198.275C62.1965 198.245 62.1982 198.22 62.2015 198.2C62.2082 198.177 62.2149 198.155 62.2215 198.135ZM63.7715 198.175L63.7815 196.6H63.7715L62.6615 198.175H63.7715ZM65.0858 196.525C65.0858 196.465 65.1241 196.407 65.2008 196.35C65.2774 196.29 65.3808 196.242 65.5108 196.205C65.6408 196.168 65.7824 196.15 65.9358 196.15C66.1491 196.15 66.3324 196.187 66.4858 196.26C66.6391 196.33 66.7574 196.43 66.8408 196.56C66.9241 196.69 66.9658 196.843 66.9658 197.02C66.9658 197.203 66.9141 197.383 66.8108 197.56C66.7108 197.737 66.5374 197.938 66.2908 198.165L65.4758 198.92H66.9608C66.9741 198.933 66.9858 198.955 66.9958 198.985C67.0058 199.012 67.0108 199.043 67.0108 199.08C67.0108 199.133 66.9958 199.175 66.9658 199.205C66.9391 199.235 66.9024 199.25 66.8558 199.25H65.0908C65.0574 199.227 65.0324 199.198 65.0158 199.165C64.9991 199.128 64.9908 199.09 64.9908 199.05C64.9908 198.997 65.0008 198.95 65.0208 198.91C65.0408 198.867 65.0708 198.827 65.1108 198.79L66.0108 197.925C66.2174 197.732 66.3591 197.57 66.4358 197.44C66.5124 197.307 66.5508 197.168 66.5508 197.025C66.5508 196.868 66.4974 196.74 66.3908 196.64C66.2841 196.54 66.1224 196.49 65.9058 196.49C65.7591 196.49 65.6274 196.515 65.5108 196.565C65.3974 196.615 65.3024 196.668 65.2258 196.725C65.1891 196.708 65.1558 196.683 65.1258 196.65C65.0991 196.617 65.0858 196.575 65.0858 196.525Z" fill="#A73C4C"/>
<path d="M36.52 183.13H36.115V181.6L35.475 181.9C35.4317 181.883 35.395 181.858 35.365 181.825C35.3383 181.792 35.325 181.75 35.325 181.7C35.325 181.603 35.385 181.53 35.505 181.48L36.205 181.175H36.3C36.3667 181.175 36.42 181.195 36.46 181.235C36.5 181.275 36.52 181.328 36.52 181.395V183.13ZM36.115 182.93H36.52V184.255C36.5 184.262 36.4733 184.268 36.44 184.275C36.4067 184.285 36.37 184.29 36.33 184.29C36.26 184.29 36.2067 184.275 36.17 184.245C36.1333 184.215 36.115 184.168 36.115 184.105V182.93ZM37.2215 183.135L38.6765 181.205C38.7065 181.198 38.7399 181.193 38.7765 181.19C38.8165 181.183 38.8515 181.18 38.8815 181.18C38.9282 181.18 38.9715 181.187 39.0115 181.2C39.0549 181.213 39.0899 181.238 39.1165 181.275C39.1432 181.308 39.1565 181.358 39.1565 181.425V183.175H39.6565C39.6665 183.192 39.6765 183.215 39.6865 183.245C39.6965 183.272 39.7015 183.303 39.7015 183.34C39.7015 183.393 39.6882 183.435 39.6615 183.465C39.6349 183.495 39.5965 183.51 39.5465 183.51H39.1565V184.26C39.1399 184.263 39.1149 184.268 39.0815 184.275C39.0515 184.285 39.0182 184.29 38.9815 184.29C38.9115 184.29 38.8582 184.275 38.8215 184.245C38.7849 184.215 38.7665 184.172 38.7665 184.115V183.51H37.3215C37.2882 183.493 37.2582 183.463 37.2315 183.42C37.2082 183.377 37.1965 183.328 37.1965 183.275C37.1965 183.245 37.1982 183.22 37.2015 183.2C37.2082 183.177 37.2149 183.155 37.2215 183.135ZM38.7715 183.175L38.7815 181.6H38.7715L37.6615 183.175H38.7715ZM40.8159 181.21L40.6809 181.505L40.5959 182.45C40.6526 182.42 40.7309 182.392 40.8309 182.365C40.9342 182.335 41.0426 182.32 41.1559 182.32C41.3559 182.32 41.5359 182.358 41.6959 182.435C41.8559 182.508 41.9826 182.618 42.0759 182.765C42.1726 182.908 42.2209 183.087 42.2209 183.3C42.2209 183.493 42.1759 183.667 42.0859 183.82C41.9992 183.973 41.8709 184.095 41.7009 184.185C41.5342 184.272 41.3292 184.315 41.0859 184.315C40.8959 184.315 40.7292 184.293 40.5859 184.25C40.4426 184.207 40.3309 184.153 40.2509 184.09C40.1709 184.027 40.1309 183.965 40.1309 183.905C40.1309 183.852 40.1476 183.805 40.1809 183.765C40.2176 183.725 40.2542 183.698 40.2909 183.685C40.3642 183.748 40.4676 183.813 40.6009 183.88C40.7342 183.947 40.8959 183.98 41.0859 183.98C41.3159 183.98 41.4942 183.917 41.6209 183.79C41.7476 183.66 41.8109 183.497 41.8109 183.3C41.8109 183.097 41.7459 182.938 41.6159 182.825C41.4859 182.712 41.3159 182.655 41.1059 182.655C40.9892 182.655 40.8826 182.673 40.7859 182.71C40.6892 182.747 40.5992 182.788 40.5159 182.835C40.4259 182.828 40.3526 182.802 40.2959 182.755C40.2426 182.705 40.2159 182.642 40.2159 182.565C40.2159 182.545 40.2159 182.52 40.2159 182.49C40.2192 182.457 40.2226 182.425 40.2259 182.395L40.3109 181.44C40.3176 181.37 40.3392 181.315 40.3759 181.275C40.4126 181.232 40.4659 181.21 40.5359 181.21H40.8159ZM40.6059 181.55V181.21H42.0659C42.0759 181.223 42.0859 181.245 42.0959 181.275C42.1059 181.305 42.1109 181.337 42.1109 181.37C42.1109 181.423 42.0976 181.467 42.0709 181.5C42.0442 181.533 42.0059 181.55 41.9559 181.55H40.6059Z" fill="#A73C4C"/>
<path d="M35.52 194.13H35.115V192.6L34.475 192.9C34.4317 192.883 34.395 192.858 34.365 192.825C34.3383 192.792 34.325 192.75 34.325 192.7C34.325 192.603 34.385 192.53 34.505 192.48L35.205 192.175H35.3C35.3667 192.175 35.42 192.195 35.46 192.235C35.5 192.275 35.52 192.328 35.52 192.395V194.13ZM35.115 193.93H35.52V195.255C35.5 195.262 35.4733 195.268 35.44 195.275C35.4067 195.285 35.37 195.29 35.33 195.29C35.26 195.29 35.2067 195.275 35.17 195.245C35.1333 195.215 35.115 195.168 35.115 195.105V193.93ZM36.2215 194.135L37.6765 192.205C37.7065 192.198 37.7399 192.193 37.7765 192.19C37.8165 192.183 37.8515 192.18 37.8815 192.18C37.9282 192.18 37.9715 192.187 38.0115 192.2C38.0549 192.213 38.0899 192.238 38.1165 192.275C38.1432 192.308 38.1565 192.358 38.1565 192.425V194.175H38.6565C38.6665 194.192 38.6765 194.215 38.6865 194.245C38.6965 194.272 38.7015 194.303 38.7015 194.34C38.7015 194.393 38.6882 194.435 38.6615 194.465C38.6349 194.495 38.5965 194.51 38.5465 194.51H38.1565V195.26C38.1399 195.263 38.1149 195.268 38.0815 195.275C38.0515 195.285 38.0182 195.29 37.9815 195.29C37.9115 195.29 37.8582 195.275 37.8215 195.245C37.7849 195.215 37.7665 195.172 37.7665 195.115V194.51H36.3215C36.2882 194.493 36.2582 194.463 36.2315 194.42C36.2082 194.377 36.1965 194.328 36.1965 194.275C36.1965 194.245 36.1982 194.22 36.2015 194.2C36.2082 194.177 36.2149 194.155 36.2215 194.135ZM37.7715 194.175L37.7815 192.6H37.7715L36.6615 194.175H37.7715ZM41.1246 192.445C41.1246 192.485 41.1129 192.523 41.0896 192.56C41.0696 192.593 41.0429 192.618 41.0096 192.635C40.9363 192.598 40.8529 192.567 40.7596 192.54C40.6696 192.51 40.5713 192.495 40.4646 192.495C40.2046 192.495 39.9846 192.588 39.8046 192.775C39.6279 192.962 39.5346 193.253 39.5246 193.65C39.5913 193.583 39.6929 193.513 39.8296 193.44C39.9696 193.363 40.1413 193.325 40.3446 193.325C40.6379 193.325 40.8796 193.408 41.0696 193.575C41.2596 193.742 41.3546 193.988 41.3546 194.315C41.3546 194.522 41.3096 194.7 41.2196 194.85C41.1329 195 41.0096 195.115 40.8496 195.195C40.6929 195.275 40.5063 195.315 40.2896 195.315C40.0663 195.315 39.8663 195.265 39.6896 195.165C39.5129 195.062 39.3729 194.902 39.2696 194.685C39.1696 194.465 39.1196 194.178 39.1196 193.825C39.1196 193.512 39.1563 193.248 39.2296 193.035C39.3063 192.818 39.4079 192.647 39.5346 192.52C39.6613 192.39 39.8046 192.297 39.9646 192.24C40.1246 192.18 40.2879 192.15 40.4546 192.15C40.5713 192.15 40.6796 192.162 40.7796 192.185C40.8829 192.208 40.9663 192.242 41.0296 192.285C41.0929 192.328 41.1246 192.382 41.1246 192.445ZM40.2896 194.98C40.4829 194.98 40.6413 194.922 40.7646 194.805C40.8879 194.685 40.9496 194.518 40.9496 194.305C40.9496 194.088 40.8863 193.928 40.7596 193.825C40.6363 193.718 40.4829 193.665 40.2996 193.665C40.1163 193.665 39.9579 193.705 39.8246 193.785C39.6913 193.862 39.5863 193.955 39.5096 194.065L39.5246 194.03C39.5246 194.313 39.5913 194.543 39.7246 194.72C39.8579 194.893 40.0463 194.98 40.2896 194.98Z" fill="#A73C4C"/>
<path d="M35.52 199.13H35.115V197.6L34.475 197.9C34.4317 197.883 34.395 197.858 34.365 197.825C34.3383 197.792 34.325 197.75 34.325 197.7C34.325 197.603 34.385 197.53 34.505 197.48L35.205 197.175H35.3C35.3667 197.175 35.42 197.195 35.46 197.235C35.5 197.275 35.52 197.328 35.52 197.395V199.13ZM35.115 198.93H35.52V200.255C35.5 200.262 35.4733 200.268 35.44 200.275C35.4067 200.285 35.37 200.29 35.33 200.29C35.26 200.29 35.2067 200.275 35.17 200.245C35.1333 200.215 35.115 200.168 35.115 200.105V198.93ZM36.2215 199.135L37.6765 197.205C37.7065 197.198 37.7399 197.193 37.7765 197.19C37.8165 197.183 37.8515 197.18 37.8815 197.18C37.9282 197.18 37.9715 197.187 38.0115 197.2C38.0549 197.213 38.0899 197.238 38.1165 197.275C38.1432 197.308 38.1565 197.358 38.1565 197.425V199.175H38.6565C38.6665 199.192 38.6765 199.215 38.6865 199.245C38.6965 199.272 38.7015 199.303 38.7015 199.34C38.7015 199.393 38.6882 199.435 38.6615 199.465C38.6349 199.495 38.5965 199.51 38.5465 199.51H38.1565V200.26C38.1399 200.263 38.1149 200.268 38.0815 200.275C38.0515 200.285 38.0182 200.29 37.9815 200.29C37.9115 200.29 37.8582 200.275 37.8215 200.245C37.7849 200.215 37.7665 200.172 37.7665 200.115V199.51H36.3215C36.2882 199.493 36.2582 199.463 36.2315 199.42C36.2082 199.377 36.1965 199.328 36.1965 199.275C36.1965 199.245 36.1982 199.22 36.2015 199.2C36.2082 199.177 36.2149 199.155 36.2215 199.135ZM37.7715 199.175L37.7815 197.6H37.7715L36.6615 199.175H37.7715ZM39.0025 197.21H40.8025C40.8392 197.23 40.8675 197.258 40.8875 197.295C40.9075 197.328 40.9175 197.367 40.9175 197.41C40.9175 197.443 40.9125 197.477 40.9025 197.51C40.8959 197.543 40.8825 197.58 40.8625 197.62L39.6075 200.27C39.5875 200.273 39.5675 200.275 39.5475 200.275C39.5309 200.275 39.5125 200.275 39.4925 200.275C39.4292 200.275 39.3742 200.26 39.3275 200.23C39.2809 200.197 39.2575 200.152 39.2575 200.095C39.2575 200.055 39.2659 200.017 39.2825 199.98C39.2992 199.94 39.3192 199.895 39.3425 199.845L40.4725 197.55H38.8925C38.8825 197.533 38.8725 197.512 38.8625 197.485C38.8525 197.455 38.8475 197.423 38.8475 197.39C38.8475 197.333 38.8609 197.29 38.8875 197.26C38.9142 197.227 38.9525 197.21 39.0025 197.21Z" fill="#A73C4C"/>
<path d="M35.52 204.13H35.115V202.6L34.475 202.9C34.4317 202.883 34.395 202.858 34.365 202.825C34.3383 202.792 34.325 202.75 34.325 202.7C34.325 202.603 34.385 202.53 34.505 202.48L35.205 202.175H35.3C35.3667 202.175 35.42 202.195 35.46 202.235C35.5 202.275 35.52 202.328 35.52 202.395V204.13ZM35.115 203.93H35.52V205.255C35.5 205.262 35.4733 205.268 35.44 205.275C35.4067 205.285 35.37 205.29 35.33 205.29C35.26 205.29 35.2067 205.275 35.17 205.245C35.1333 205.215 35.115 205.168 35.115 205.105V203.93ZM36.2215 204.135L37.6765 202.205C37.7065 202.198 37.7399 202.193 37.7765 202.19C37.8165 202.183 37.8515 202.18 37.8815 202.18C37.9282 202.18 37.9715 202.187 38.0115 202.2C38.0549 202.213 38.0899 202.238 38.1165 202.275C38.1432 202.308 38.1565 202.358 38.1565 202.425V204.175H38.6565C38.6665 204.192 38.6765 204.215 38.6865 204.245C38.6965 204.272 38.7015 204.303 38.7015 204.34C38.7015 204.393 38.6882 204.435 38.6615 204.465C38.6349 204.495 38.5965 204.51 38.5465 204.51H38.1565V205.26C38.1399 205.263 38.1149 205.268 38.0815 205.275C38.0515 205.285 38.0182 205.29 37.9815 205.29C37.9115 205.29 37.8582 205.275 37.8215 205.245C37.7849 205.215 37.7665 205.172 37.7665 205.115V204.51H36.3215C36.2882 204.493 36.2582 204.463 36.2315 204.42C36.2082 204.377 36.1965 204.328 36.1965 204.275C36.1965 204.245 36.1982 204.22 36.2015 204.2C36.2082 204.177 36.2149 204.155 36.2215 204.135ZM37.7715 204.175L37.7815 202.6H37.7715L36.6615 204.175H37.7715ZM40.2307 205.315C40.004 205.315 39.8057 205.282 39.6357 205.215C39.4657 205.145 39.334 205.045 39.2407 204.915C39.1473 204.785 39.1007 204.628 39.1007 204.445C39.1007 204.282 39.1373 204.143 39.2107 204.03C39.2873 203.913 39.384 203.82 39.5007 203.75C39.6173 203.68 39.739 203.633 39.8657 203.61L40.1657 203.56C40.4057 203.513 40.5857 203.445 40.7057 203.355C40.8257 203.262 40.8857 203.138 40.8857 202.985C40.8857 202.828 40.8273 202.707 40.7107 202.62C40.594 202.53 40.434 202.485 40.2307 202.485C40.034 202.485 39.8757 202.53 39.7557 202.62C39.6357 202.71 39.5757 202.83 39.5757 202.98C39.5757 203.107 39.609 203.208 39.6757 203.285C39.7457 203.362 39.8373 203.42 39.9507 203.46C40.0673 203.497 40.194 203.522 40.3307 203.535L40.5507 203.61C40.6873 203.637 40.8173 203.685 40.9407 203.755C41.064 203.822 41.164 203.912 41.2407 204.025C41.3173 204.138 41.3557 204.28 41.3557 204.45C41.3557 204.63 41.3073 204.785 41.2107 204.915C41.1173 205.045 40.9857 205.145 40.8157 205.215C40.649 205.282 40.454 205.315 40.2307 205.315ZM40.2307 204.98C40.4473 204.98 40.6223 204.933 40.7557 204.84C40.889 204.747 40.9557 204.612 40.9557 204.435C40.9557 204.242 40.874 204.088 40.7107 203.975C40.5507 203.862 40.3357 203.797 40.0657 203.78L39.8107 203.705C39.6173 203.652 39.4623 203.565 39.3457 203.445C39.2323 203.325 39.1757 203.168 39.1757 202.975C39.1757 202.805 39.219 202.658 39.3057 202.535C39.3957 202.412 39.519 202.317 39.6757 202.25C39.8357 202.183 40.0207 202.15 40.2307 202.15C40.5573 202.15 40.814 202.225 41.0007 202.375C41.1907 202.522 41.2857 202.725 41.2857 202.985C41.2857 203.195 41.214 203.36 41.0707 203.48C40.9307 203.6 40.759 203.678 40.5557 203.715L40.2157 203.785C40.0023 203.818 39.829 203.892 39.6957 204.005C39.5657 204.115 39.5007 204.26 39.5007 204.44C39.5007 204.61 39.5657 204.743 39.6957 204.84C39.8257 204.933 40.004 204.98 40.2307 204.98Z" fill="#A73C4C"/>
</svg>
