<svg width="126" height="218" viewBox="0 0 126 218" fill="none" xmlns="http://www.w3.org/2000/svg">
<path d="M16.2693 4.94495H22.7693V1.94495H27.7693V4.94495H32.7693V1.94495H46.7693V4.94495H49.2693V1.94495H60.2693V4.94495H62.7693V1.94495H86.2693V4.94495H90.7693V1.94495H95.2693V4.94495H99.7693V33.4449H95.2693V36.4449H90.7693V33.4449H87.7693V95.4449H101.269V92.4449H106.269V95.4449H118.599V128.71H106.269V131.945H101.269V128.71H90.2693V185.945H106.769V212.445H50.2693V208.945H10.7693V181.445H59.7693V128.945H53.2693V118.445V116.445V109.945V105.945V95.4449H59.7693V33.4449H58.7693V37.4449H53.9907V33.4449H43.2693V37.4449H38.2693V33.4449H27.7693V37.4449H18.2693V33.4449H16.2693L16.2693 4.94495Z" fill="white"/>
<path d="M50.2693 212.299H106.769V185.945H90.2693V128.803H101.269V131.945H106.269V128.803H118.6V105.945" stroke="#A73C4C" stroke-width="0.5"/>
<path d="M91.0208 4.94495H86.2693V1.94495H62.7693V4.94495" stroke="#A73C4C" stroke-width="0.5"/>
<path d="M118.6 106.695L118.6 95.4049H106.269V92.4449H101.269V95.4049H87.7693V33.4449H90.7693V36.4449H95.2693V33.4449H99.7693V4.94495H95.2693V1.94495H90.7693V4.94495" stroke="#A73C4C" stroke-width="0.5"/>
<path d="M53.2065 115.945V105.945V95.4049H59.7459V40.5361L59.7693 33.4449H58.7693V37.4449H53.9681V33.4449H43.2693V37.4449H38.2693V33.4449H27.7693V37.4449H18.2693V33.4449H16.2693V4.94495H22.7693V1.94495H27.7693V4.94495H32.7693V1.94495H46.7693V4.94495H49.2693V1.94495H60.2693V4.94495H63.013" stroke="#A73C4C" stroke-width="0.5"/>
<path d="M53.2065 115.445V115.945V118.445V128.803H59.7459V181.286H10.7692V186.445" stroke="#A73C4C" stroke-width="0.5"/>
<path d="M10.7693 186.445V208.945H50.2693V212.547" stroke="#A73C4C" stroke-width="0.5"/>
<path d="M31.2692 4.94492L31.2692 29.4449L42.2692 29.445M46.7693 29.445L54.7693 29.445M57.7692 29.4449L61.7692 29.4449M65.2692 29.4449L69.7692 29.4449M73.2693 29.4449L79.2693 29.4449M83.2693 29.4449L87.2693 29.4449L87.2692 4.94496M59.7693 37.4449L64.7693 37.4449M68.7693 37.4449L83.2693 37.4449M86.2693 37.4449L87.7693 37.445M86.2693 46.9449L87.7693 46.945M59.7693 46.9449L83.2693 46.945M59.7459 95.4048L83.2693 95.4048M86.3045 95.4048L87.8045 95.4048M118.6 104.945L97.2693 104.945L97.2693 101.945M118.6 119.445L97.2693 119.445L97.2693 121.945M90.2693 128.803L79.2693 128.803L79.2693 132.945L81.7693 132.945M86.2693 132.945L90.2693 132.945M77.2693 144.445L90.2693 144.445M59.7459 128.803L75.7693 128.803L75.7693 112.945M59.746 144.445L73.7693 144.445M59.7459 174.945L82.2693 174.945M85.7693 174.945L90.2693 174.945M59.7459 181.286L66.7693 181.286L66.7693 178.445L69.2693 178.445M72.2693 178.445L82.2693 178.445M86.2693 186.945L85.7693 186.945L85.7693 178.445L90.2693 178.445M89.2693 186.945L90.2693 186.945L90.2693 185.945M87.2693 190.945L90.2693 190.945M72.7693 190.945L84.2693 190.945M56.2693 190.945L68.7693 190.945M47.2693 190.945L52.2693 190.945M36.7695 190.945L43.2694 190.945M27.2693 190.945L32.7693 190.945M10.7694 197.445L19.2695 197.445M23.7693 197.445L27.2693 197.445M27.2693 184.445L27.2693 181.286M27.2693 208.945L27.2693 188.445M39.2693 208.945L39.2693 190.945M50.2694 184.445L50.2694 181.286M50.2694 208.945L50.2694 188.445M58.7693 184.445L58.7693 181.445M58.7693 190.945L58.7693 188.445M60.8784 212.299L60.8784 190.945M76.7693 212.299L76.7693 190.945M90.2693 212.445L90.2693 190.445M80.6019 190.945L80.6019 189.945M80.6019 186.945L80.6019 174.945M72.5521 144.445L72.5521 136.945M72.5521 132.945L72.5521 128.803M64.7693 138.945L59.7693 138.945M69.2693 144.445L69.2694 138.945L68.7694 138.945M79.2693 144.445L79.2693 137.445M75.7693 108.945L75.7693 104.445M75.7693 99.9449L75.7693 95.4048M108.269 128.803L108.269 125.945M108.269 121.945L108.269 119.445M97.2693 128.803L97.2693 125.945M97.2693 97.9048L97.2693 95.4048M108.269 104.945L108.269 101.945M108.269 97.9449L108.269 95.4449M72.2693 46.9449L72.2693 43.445M72.2693 39.9448L72.2693 37.4449M82.2693 46.945L82.2693 37.4449M81.7693 4.94493L81.7693 1.94493M72.2693 4.94493L72.2693 1.94493M76.9545 29.4449L76.9545 1.9449M67.5192 29.4449L67.5192 1.94491M60.2693 29.4449L60.2693 4.94493M49.2693 29.445L49.2693 4.94493M41.7693 4.94493L41.7693 1.94493M37.2693 4.94492L37.2693 1.94492M28.2693 17.9449L31.2692 17.9449M16.2693 17.9449L24.2693 17.9449" stroke="#A73C4C" stroke-width="0.5"/>
<path d="M102.943 107.8C102.777 107.8 102.643 107.935 102.643 108.1V116.645C102.643 116.811 102.777 116.945 102.943 116.945H103.932H111.343C111.508 116.945 111.643 116.811 111.643 116.645V109.4V108.1C111.643 107.935 111.508 107.8 111.343 107.8H102.943ZM104.72 116.593V115.638C104.72 115.583 104.764 115.538 104.82 115.538H105.804C105.97 115.538 106.104 115.404 106.104 115.238V114.231C106.104 114.176 106.149 114.131 106.204 114.131H107.189C107.355 114.131 107.489 113.997 107.489 113.831V112.824C107.489 112.769 107.534 112.724 107.589 112.724H108.573C108.739 112.724 108.873 112.59 108.873 112.424V111.417C108.873 111.362 108.918 111.317 108.973 111.317H109.958C110.124 111.317 110.258 111.183 110.258 111.017V110.011C110.258 109.955 110.303 109.911 110.358 109.911H111.297V116.493C111.297 116.548 111.252 116.593 111.197 116.593L104.72 116.593ZM111.297 109.559H110.212C110.046 109.559 109.912 109.693 109.912 109.859V110.866C109.912 110.921 109.867 110.966 109.812 110.966H108.827C108.662 110.966 108.527 111.1 108.527 111.266V112.273C108.527 112.328 108.483 112.373 108.427 112.373H107.443C107.277 112.373 107.143 112.507 107.143 112.673V113.679C107.143 113.735 107.098 113.779 107.043 113.779H106.058C105.892 113.779 105.758 113.914 105.758 114.079V115.086C105.758 115.142 105.713 115.186 105.658 115.186H104.673C104.508 115.186 104.373 115.321 104.373 115.486V116.593H103.089C103.034 116.593 102.989 116.548 102.989 116.493V108.252C102.989 108.197 103.034 108.152 103.089 108.152H111.197C111.252 108.152 111.297 108.197 111.297 108.252V109.559Z" fill="#A73C4C"/>
<path d="M51.1959 10.9449C51.0302 10.9449 50.8959 11.0793 50.8959 11.2449V18.6449C50.8959 18.8106 51.0302 18.9449 51.1959 18.9449H52.0238H58.4693C58.635 18.9449 58.7693 18.8106 58.7693 18.6449V12.3448V11.2449C58.7693 11.0793 58.635 10.9449 58.4693 10.9449H51.1959ZM52.7128 18.6373V17.8142C52.7128 17.7589 52.7576 17.7142 52.8128 17.7142H53.6241C53.7898 17.7142 53.9241 17.5799 53.9241 17.4142V16.5834C53.9241 16.5282 53.9689 16.4834 54.0241 16.4834H54.8354C55.0011 16.4834 55.1354 16.3491 55.1354 16.1834V15.3526C55.1354 15.2974 55.1802 15.2526 55.2354 15.2526H56.0467C56.2124 15.2526 56.3467 15.1183 56.3467 14.9526V14.1219C56.3467 14.0666 56.3915 14.0219 56.4467 14.0219H57.258C57.4237 14.0219 57.558 13.8876 57.558 13.7219V12.8911C57.558 12.8359 57.6028 12.7911 57.658 12.7911H58.4665V18.5372C58.4665 18.5924 58.4217 18.6372 58.3665 18.6372L52.7128 18.6373ZM58.4665 12.4834H57.5552C57.3895 12.4834 57.2552 12.6177 57.2552 12.7834V13.6142C57.2552 13.6694 57.2104 13.7142 57.1552 13.7142H56.3439C56.1782 13.7142 56.0439 13.8485 56.0439 14.0142V14.8449C56.0439 14.9002 55.9991 14.9449 55.9439 14.9449H55.1326C54.9669 14.9449 54.8326 15.0793 54.8326 15.2449V16.0757C54.8326 16.1309 54.7878 16.1757 54.7326 16.1757H53.9213C53.7556 16.1757 53.6213 16.31 53.6213 16.4757V17.3065C53.6213 17.3617 53.5765 17.4065 53.5213 17.4065H52.71C52.5443 17.4065 52.41 17.5408 52.41 17.7065V18.6372H51.2987C51.2435 18.6372 51.1987 18.5924 51.1987 18.5372V11.3526C51.1987 11.2974 51.2435 11.2526 51.2987 11.2526H58.3665C58.4217 11.2526 58.4665 11.2974 58.4665 11.3526V12.4834Z" fill="#A73C4C"/>
<path d="M51.9427 200.445C51.777 200.445 51.6427 200.579 51.6427 200.745V207.766C51.6427 207.931 51.777 208.066 51.9427 208.066H52.7171H58.8427C59.0084 208.066 59.1427 207.931 59.1427 207.766V201.778V200.745C59.1427 200.579 59.0084 200.445 58.8427 200.445H51.9427ZM53.3734 207.772V206.993C53.3734 206.938 53.4182 206.893 53.4734 206.893H54.2273C54.393 206.893 54.5273 206.759 54.5273 206.593V205.821C54.5273 205.766 54.5721 205.721 54.6273 205.721H55.3812C55.5468 205.721 55.6812 205.586 55.6812 205.421V204.648C55.6812 204.593 55.7259 204.548 55.7812 204.548H56.535C56.7007 204.548 56.835 204.414 56.835 204.248V203.476C56.835 203.421 56.8798 203.376 56.935 203.376H57.6889C57.8545 203.376 57.9889 203.242 57.9889 203.076V202.304C57.9889 202.248 58.0336 202.204 58.0889 202.204H58.8543V207.672C58.8543 207.728 58.8095 207.772 58.7543 207.772L53.3734 207.772ZM58.8543 201.91H58.0004C57.8347 201.91 57.7004 202.045 57.7004 202.21V202.983C57.7004 203.038 57.6556 203.083 57.6004 203.083H56.8465C56.6809 203.083 56.5465 203.217 56.5465 203.383V204.155C56.5465 204.21 56.5018 204.255 56.4465 204.255H55.6927C55.527 204.255 55.3927 204.39 55.3927 204.555V205.328C55.3927 205.383 55.3479 205.428 55.2927 205.428H54.5388C54.3732 205.428 54.2388 205.562 54.2388 205.728V206.5C54.2388 206.555 54.1941 206.6 54.1388 206.6H53.385C53.2193 206.6 53.085 206.734 53.085 206.9V207.772H52.0311C51.9759 207.772 51.9311 207.728 51.9311 207.672V200.838C51.9311 200.783 51.9759 200.738 52.0311 200.738H58.7543C58.8095 200.738 58.8543 200.783 58.8543 200.838V201.91Z" fill="#A73C4C"/>
<path d="M71.2893 68.905L71.1543 69.2L71.0693 70.145C71.1259 70.115 71.2043 70.0866 71.3043 70.06C71.4076 70.03 71.5159 70.015 71.6293 70.015C71.8293 70.015 72.0093 70.0533 72.1693 70.13C72.3293 70.2033 72.4559 70.3133 72.5493 70.46C72.6459 70.6033 72.6943 70.7816 72.6943 70.995C72.6943 71.1883 72.6493 71.3616 72.5593 71.515C72.4726 71.6683 72.3443 71.79 72.1743 71.88C72.0076 71.9666 71.8026 72.01 71.5593 72.01C71.3693 72.01 71.2026 71.9883 71.0593 71.945C70.9159 71.9016 70.8043 71.8483 70.7243 71.785C70.6443 71.7216 70.6043 71.66 70.6043 71.6C70.6043 71.5466 70.6209 71.5 70.6543 71.46C70.6909 71.42 70.7276 71.3933 70.7643 71.38C70.8376 71.4433 70.9409 71.5083 71.0743 71.575C71.2076 71.6416 71.3693 71.675 71.5593 71.675C71.7893 71.675 71.9676 71.6116 72.0943 71.485C72.2209 71.355 72.2843 71.1916 72.2843 70.995C72.2843 70.7916 72.2193 70.6333 72.0893 70.52C71.9593 70.4066 71.7893 70.35 71.5793 70.35C71.4626 70.35 71.3559 70.3683 71.2593 70.405C71.1626 70.4416 71.0726 70.4833 70.9893 70.53C70.8993 70.5233 70.8259 70.4966 70.7693 70.45C70.7159 70.4 70.6893 70.3366 70.6893 70.26C70.6893 70.24 70.6893 70.215 70.6893 70.185C70.6926 70.1516 70.6959 70.12 70.6993 70.09L70.7843 69.135C70.7909 69.065 70.8126 69.01 70.8493 68.97C70.8859 68.9266 70.9393 68.905 71.0093 68.905H71.2893ZM71.0793 69.245V68.905H72.5393C72.5493 68.9183 72.5593 68.94 72.5693 68.97C72.5793 69 72.5843 69.0316 72.5843 69.065C72.5843 69.1183 72.5709 69.1616 72.5443 69.195C72.5176 69.2283 72.4793 69.245 72.4293 69.245H71.0793ZM74.2297 70.825H73.8247V69.295L73.1847 69.595C73.1414 69.5783 73.1047 69.5533 73.0747 69.52C73.048 69.4866 73.0347 69.445 73.0347 69.395C73.0347 69.2983 73.0947 69.225 73.2147 69.175L73.9147 68.87H74.0097C74.0764 68.87 74.1297 68.89 74.1697 68.93C74.2097 68.97 74.2297 69.0233 74.2297 69.09V70.825ZM73.8247 70.625H74.2297V71.95C74.2097 71.9566 74.183 71.9633 74.1497 71.97C74.1164 71.98 74.0797 71.985 74.0397 71.985C73.9697 71.985 73.9164 71.97 73.8797 71.94C73.843 71.91 73.8247 71.8633 73.8247 71.8V70.625ZM75.0413 68.905H76.8413C76.878 68.925 76.9063 68.9533 76.9263 68.99C76.9463 69.0233 76.9563 69.0616 76.9563 69.105C76.9563 69.1383 76.9513 69.1716 76.9413 69.205C76.9347 69.2383 76.9213 69.275 76.9013 69.315L75.6463 71.965C75.6263 71.9683 75.6063 71.97 75.5863 71.97C75.5697 71.97 75.5513 71.97 75.5313 71.97C75.468 71.97 75.413 71.955 75.3663 71.925C75.3197 71.8916 75.2963 71.8466 75.2963 71.79C75.2963 71.75 75.3047 71.7116 75.3213 71.675C75.338 71.635 75.358 71.59 75.3813 71.54L76.5113 69.245H74.9313C74.9213 69.2283 74.9113 69.2066 74.9013 69.18C74.8913 69.15 74.8863 69.1183 74.8863 69.085C74.8863 69.0283 74.8997 68.985 74.9263 68.955C74.953 68.9216 74.9913 68.905 75.0413 68.905Z" fill="#A73C4C"/>
<path d="M74.2893 40.905L74.1543 41.2L74.0693 42.145C74.1259 42.115 74.2043 42.0866 74.3043 42.06C74.4076 42.03 74.5159 42.015 74.6293 42.015C74.8293 42.015 75.0093 42.0533 75.1693 42.13C75.3293 42.2033 75.4559 42.3133 75.5493 42.46C75.6459 42.6033 75.6943 42.7816 75.6943 42.995C75.6943 43.1883 75.6493 43.3616 75.5593 43.515C75.4726 43.6683 75.3443 43.79 75.1743 43.88C75.0076 43.9666 74.8026 44.01 74.5593 44.01C74.3693 44.01 74.2026 43.9883 74.0593 43.945C73.9159 43.9016 73.8043 43.8483 73.7243 43.785C73.6443 43.7216 73.6043 43.66 73.6043 43.6C73.6043 43.5466 73.6209 43.5 73.6543 43.46C73.6909 43.42 73.7276 43.3933 73.7643 43.38C73.8376 43.4433 73.9409 43.5083 74.0743 43.575C74.2076 43.6416 74.3693 43.675 74.5593 43.675C74.7893 43.675 74.9676 43.6116 75.0943 43.485C75.2209 43.355 75.2843 43.1916 75.2843 42.995C75.2843 42.7916 75.2193 42.6333 75.0893 42.52C74.9593 42.4066 74.7893 42.35 74.5793 42.35C74.4626 42.35 74.3559 42.3683 74.2593 42.405C74.1626 42.4416 74.0726 42.4833 73.9893 42.53C73.8993 42.5233 73.8259 42.4966 73.7693 42.45C73.7159 42.4 73.6893 42.3366 73.6893 42.26C73.6893 42.24 73.6893 42.215 73.6893 42.185C73.6926 42.1516 73.6959 42.12 73.6993 42.09L73.7843 41.135C73.7909 41.065 73.8126 41.01 73.8493 40.97C73.8859 40.9266 73.9393 40.905 74.0093 40.905H74.2893ZM74.0793 41.245V40.905H75.5393C75.5493 40.9183 75.5593 40.94 75.5693 40.97C75.5793 41 75.5843 41.0316 75.5843 41.065C75.5843 41.1183 75.5709 41.1616 75.5443 41.195C75.5176 41.2283 75.4793 41.245 75.4293 41.245H74.0793ZM77.4391 44.01C77.2058 44.01 76.9991 43.9533 76.8191 43.84C76.6424 43.7233 76.5041 43.5483 76.4041 43.315C76.3041 43.0783 76.2541 42.7816 76.2541 42.425C76.2541 42.0416 76.3108 41.735 76.4241 41.505C76.5374 41.275 76.6841 41.1083 76.8641 41.005C77.0441 40.8983 77.2358 40.845 77.4391 40.845C77.6458 40.845 77.8391 40.8983 78.0191 41.005C78.2024 41.1116 78.3491 41.2816 78.4591 41.515C78.5724 41.745 78.6291 42.0483 78.6291 42.425C78.6291 42.7783 78.5791 43.0733 78.4791 43.31C78.3791 43.5433 78.2391 43.7183 78.0591 43.835C77.8824 43.9516 77.6758 44.01 77.4391 44.01ZM77.4391 43.67C77.6858 43.67 77.8774 43.5633 78.0141 43.35C78.1508 43.1333 78.2191 42.825 78.2191 42.425C78.2191 42.1283 78.1824 41.89 78.1091 41.71C78.0391 41.5266 77.9458 41.3933 77.8291 41.31C77.7124 41.2266 77.5824 41.185 77.4391 41.185C77.2991 41.185 77.1691 41.2283 77.0491 41.315C76.9324 41.3983 76.8391 41.5316 76.7691 41.715C76.6991 41.8983 76.6641 42.135 76.6641 42.425C76.6641 42.825 76.7324 43.1333 76.8691 43.35C77.0058 43.5633 77.1958 43.67 77.4391 43.67ZM79.2847 43.7C79.2847 43.66 79.2947 43.6216 79.3147 43.585C79.3381 43.5483 79.3664 43.5216 79.3997 43.505C79.4631 43.5416 79.5447 43.5783 79.6447 43.615C79.7481 43.6483 79.8697 43.665 80.0097 43.665C80.1831 43.665 80.3414 43.6283 80.4847 43.555C80.6281 43.4816 80.7431 43.3616 80.8297 43.195C80.9164 43.025 80.9597 42.8016 80.9597 42.525C80.9297 42.5583 80.8797 42.6 80.8097 42.65C80.7431 42.6966 80.6581 42.7383 80.5547 42.775C80.4514 42.8116 80.3314 42.83 80.1947 42.83C80.0081 42.83 79.8331 42.7983 79.6697 42.735C79.5064 42.6683 79.3747 42.5633 79.2747 42.42C79.1781 42.2766 79.1297 42.0883 79.1297 41.855C79.1297 41.645 79.1764 41.465 79.2697 41.315C79.3631 41.1616 79.4897 41.045 79.6497 40.965C79.8097 40.885 79.9881 40.845 80.1847 40.845C80.4147 40.845 80.6181 40.8983 80.7947 41.005C80.9714 41.1083 81.1097 41.27 81.2097 41.49C81.3131 41.7066 81.3647 41.9866 81.3647 42.33C81.3647 42.7366 81.3081 43.0633 81.1947 43.31C81.0814 43.5566 80.9231 43.735 80.7197 43.845C80.5197 43.955 80.2847 44.01 80.0147 44.01C79.8147 44.01 79.6431 43.9833 79.4997 43.93C79.3564 43.8766 79.2847 43.8 79.2847 43.7ZM80.2497 42.495C80.4197 42.495 80.5697 42.4533 80.6997 42.37C80.8331 42.2833 80.9214 42.1883 80.9647 42.085L80.9597 42.14C80.9597 41.8433 80.8914 41.61 80.7547 41.44C80.6214 41.2666 80.4314 41.18 80.1847 41.18C80.0014 41.18 79.8464 41.24 79.7197 41.36C79.5964 41.4766 79.5347 41.6383 79.5347 41.845C79.5347 42.075 79.6047 42.2416 79.7447 42.345C79.8847 42.445 80.0531 42.495 80.2497 42.495Z" fill="#A73C4C"/>
<path d="M62.2893 40.905L62.1543 41.2L62.0693 42.145C62.1259 42.115 62.2043 42.0866 62.3043 42.06C62.4076 42.03 62.5159 42.015 62.6293 42.015C62.8293 42.015 63.0093 42.0533 63.1693 42.13C63.3293 42.2033 63.4559 42.3133 63.5493 42.46C63.6459 42.6033 63.6943 42.7816 63.6943 42.995C63.6943 43.1883 63.6493 43.3616 63.5593 43.515C63.4726 43.6683 63.3443 43.79 63.1743 43.88C63.0076 43.9666 62.8026 44.01 62.5593 44.01C62.3693 44.01 62.2026 43.9883 62.0593 43.945C61.9159 43.9016 61.8043 43.8483 61.7243 43.785C61.6443 43.7216 61.6043 43.66 61.6043 43.6C61.6043 43.5466 61.6209 43.5 61.6543 43.46C61.6909 43.42 61.7276 43.3933 61.7643 43.38C61.8376 43.4433 61.9409 43.5083 62.0743 43.575C62.2076 43.6416 62.3693 43.675 62.5593 43.675C62.7893 43.675 62.9676 43.6116 63.0943 43.485C63.2209 43.355 63.2843 43.1916 63.2843 42.995C63.2843 42.7916 63.2193 42.6333 63.0893 42.52C62.9593 42.4066 62.7893 42.35 62.5793 42.35C62.4626 42.35 62.3559 42.3683 62.2593 42.405C62.1626 42.4416 62.0726 42.4833 61.9893 42.53C61.8993 42.5233 61.8259 42.4966 61.7693 42.45C61.7159 42.4 61.6893 42.3366 61.6893 42.26C61.6893 42.24 61.6893 42.215 61.6893 42.185C61.6926 42.1516 61.6959 42.12 61.6993 42.09L61.7843 41.135C61.7909 41.065 61.8126 41.01 61.8493 40.97C61.8859 40.9266 61.9393 40.905 62.0093 40.905H62.2893ZM62.0793 41.245V40.905H63.5393C63.5493 40.9183 63.5593 40.94 63.5693 40.97C63.5793 41 63.5843 41.0316 63.5843 41.065C63.5843 41.1183 63.5709 41.1616 63.5443 41.195C63.5176 41.2283 63.4793 41.245 63.4293 41.245H62.0793ZM65.4391 44.01C65.2058 44.01 64.9991 43.9533 64.8191 43.84C64.6424 43.7233 64.5041 43.5483 64.4041 43.315C64.3041 43.0783 64.2541 42.7816 64.2541 42.425C64.2541 42.0416 64.3108 41.735 64.4241 41.505C64.5374 41.275 64.6841 41.1083 64.8641 41.005C65.0441 40.8983 65.2358 40.845 65.4391 40.845C65.6458 40.845 65.8391 40.8983 66.0191 41.005C66.2024 41.1116 66.3491 41.2816 66.4591 41.515C66.5724 41.745 66.6291 42.0483 66.6291 42.425C66.6291 42.7783 66.5791 43.0733 66.4791 43.31C66.3791 43.5433 66.2391 43.7183 66.0591 43.835C65.8824 43.9516 65.6758 44.01 65.4391 44.01ZM65.4391 43.67C65.6858 43.67 65.8774 43.5633 66.0141 43.35C66.1508 43.1333 66.2191 42.825 66.2191 42.425C66.2191 42.1283 66.1824 41.89 66.1091 41.71C66.0391 41.5266 65.9458 41.3933 65.8291 41.31C65.7124 41.2266 65.5824 41.185 65.4391 41.185C65.2991 41.185 65.1691 41.2283 65.0491 41.315C64.9324 41.3983 64.8391 41.5316 64.7691 41.715C64.6991 41.8983 64.6641 42.135 64.6641 42.425C64.6641 42.825 64.7324 43.1333 64.8691 43.35C65.0058 43.5633 65.1958 43.67 65.4391 43.67ZM68.3241 44.01C68.0975 44.01 67.8991 43.9766 67.7291 43.91C67.5591 43.84 67.4275 43.74 67.3341 43.61C67.2408 43.48 67.1941 43.3233 67.1941 43.14C67.1941 42.9766 67.2308 42.8383 67.3041 42.725C67.3808 42.6083 67.4775 42.515 67.5941 42.445C67.7108 42.375 67.8325 42.3283 67.9591 42.305L68.2591 42.255C68.4991 42.2083 68.6791 42.14 68.7991 42.05C68.9191 41.9566 68.9791 41.8333 68.9791 41.68C68.9791 41.5233 68.9208 41.4016 68.8041 41.315C68.6875 41.225 68.5275 41.18 68.3241 41.18C68.1275 41.18 67.9691 41.225 67.8491 41.315C67.7291 41.405 67.6691 41.525 67.6691 41.675C67.6691 41.8016 67.7025 41.9033 67.7691 41.98C67.8391 42.0566 67.9308 42.115 68.0441 42.155C68.1608 42.1916 68.2875 42.2166 68.4241 42.23L68.6441 42.305C68.7808 42.3316 68.9108 42.38 69.0341 42.45C69.1575 42.5166 69.2575 42.6066 69.3341 42.72C69.4108 42.8333 69.4491 42.975 69.4491 43.145C69.4491 43.325 69.4008 43.48 69.3041 43.61C69.2108 43.74 69.0791 43.84 68.9091 43.91C68.7425 43.9766 68.5475 44.01 68.3241 44.01ZM68.3241 43.675C68.5408 43.675 68.7158 43.6283 68.8491 43.535C68.9825 43.4416 69.0491 43.3066 69.0491 43.13C69.0491 42.9366 68.9675 42.7833 68.8041 42.67C68.6441 42.5566 68.4291 42.4916 68.1591 42.475L67.9041 42.4C67.7108 42.3466 67.5558 42.26 67.4391 42.14C67.3258 42.02 67.2691 41.8633 67.2691 41.67C67.2691 41.5 67.3125 41.3533 67.3991 41.23C67.4891 41.1066 67.6125 41.0116 67.7691 40.945C67.9291 40.8783 68.1141 40.845 68.3241 40.845C68.6508 40.845 68.9075 40.92 69.0941 41.07C69.2841 41.2166 69.3791 41.42 69.3791 41.68C69.3791 41.89 69.3075 42.055 69.1641 42.175C69.0241 42.295 68.8525 42.3733 68.6491 42.41L68.3091 42.48C68.0958 42.5133 67.9225 42.5866 67.7891 42.7C67.6591 42.81 67.5941 42.955 67.5941 43.135C67.5941 43.305 67.6591 43.4383 67.7891 43.535C67.9191 43.6283 68.0975 43.675 68.3241 43.675Z" fill="#A73C4C"/>
<path d="M90.2893 16.905L90.1543 17.2L90.0693 18.145C90.126 18.115 90.2043 18.0866 90.3043 18.06C90.4076 18.03 90.516 18.015 90.6293 18.015C90.8293 18.015 91.0093 18.0533 91.1693 18.13C91.3293 18.2033 91.456 18.3133 91.5493 18.46C91.646 18.6033 91.6943 18.7816 91.6943 18.995C91.6943 19.1883 91.6493 19.3616 91.5593 19.515C91.4726 19.6683 91.3443 19.79 91.1743 19.88C91.0076 19.9666 90.8026 20.01 90.5593 20.01C90.3693 20.01 90.2026 19.9883 90.0593 19.945C89.916 19.9016 89.8043 19.8483 89.7243 19.785C89.6443 19.7216 89.6043 19.66 89.6043 19.6C89.6043 19.5466 89.621 19.5 89.6543 19.46C89.691 19.42 89.7276 19.3933 89.7643 19.38C89.8376 19.4433 89.941 19.5083 90.0743 19.575C90.2076 19.6416 90.3693 19.675 90.5593 19.675C90.7893 19.675 90.9676 19.6116 91.0943 19.485C91.221 19.355 91.2843 19.1916 91.2843 18.995C91.2843 18.7916 91.2193 18.6333 91.0893 18.52C90.9593 18.4066 90.7893 18.35 90.5793 18.35C90.4626 18.35 90.356 18.3683 90.2593 18.405C90.1626 18.4416 90.0726 18.4833 89.9893 18.53C89.8993 18.5233 89.826 18.4966 89.7693 18.45C89.716 18.4 89.6893 18.3366 89.6893 18.26C89.6893 18.24 89.6893 18.215 89.6893 18.185C89.6926 18.1516 89.696 18.12 89.6993 18.09L89.7843 17.135C89.791 17.065 89.8126 17.01 89.8493 16.97C89.886 16.9266 89.9393 16.905 90.0093 16.905H90.2893ZM90.0793 17.245V16.905H91.5393C91.5493 16.9183 91.5593 16.94 91.5693 16.97C91.5793 17 91.5843 17.0316 91.5843 17.065C91.5843 17.1183 91.571 17.1616 91.5443 17.195C91.5176 17.2283 91.4793 17.245 91.4293 17.245H90.0793ZM93.4391 20.01C93.2058 20.01 92.9991 19.9533 92.8191 19.84C92.6425 19.7233 92.5041 19.5483 92.4041 19.315C92.3041 19.0783 92.2541 18.7816 92.2541 18.425C92.2541 18.0416 92.3108 17.735 92.4241 17.505C92.5375 17.275 92.6841 17.1083 92.8641 17.005C93.0441 16.8983 93.2358 16.845 93.4391 16.845C93.6458 16.845 93.8391 16.8983 94.0191 17.005C94.2025 17.1116 94.3491 17.2816 94.4591 17.515C94.5725 17.745 94.6291 18.0483 94.6291 18.425C94.6291 18.7783 94.5791 19.0733 94.4791 19.31C94.3791 19.5433 94.2391 19.7183 94.0591 19.835C93.8825 19.9516 93.6758 20.01 93.4391 20.01ZM93.4391 19.67C93.6858 19.67 93.8775 19.5633 94.0141 19.35C94.1508 19.1333 94.2191 18.825 94.2191 18.425C94.2191 18.1283 94.1825 17.89 94.1091 17.71C94.0391 17.5266 93.9458 17.3933 93.8291 17.31C93.7125 17.2266 93.5825 17.185 93.4391 17.185C93.2991 17.185 93.1691 17.2283 93.0491 17.315C92.9325 17.3983 92.8391 17.5316 92.7691 17.715C92.6991 17.8983 92.6641 18.135 92.6641 18.425C92.6641 18.825 92.7325 19.1333 92.8691 19.35C93.0058 19.5633 93.1958 19.67 93.4391 19.67ZM95.1156 16.905H96.9156C96.9522 16.925 96.9806 16.9533 97.0006 16.99C97.0206 17.0233 97.0306 17.0616 97.0306 17.105C97.0306 17.1383 97.0256 17.1716 97.0156 17.205C97.0089 17.2383 96.9956 17.275 96.9756 17.315L95.7206 19.965C95.7006 19.9683 95.6806 19.97 95.6606 19.97C95.6439 19.97 95.6256 19.97 95.6056 19.97C95.5422 19.97 95.4872 19.955 95.4406 19.925C95.3939 19.8916 95.3706 19.8466 95.3706 19.79C95.3706 19.75 95.3789 19.7116 95.3956 19.675C95.4122 19.635 95.4322 19.59 95.4556 19.54L96.5856 17.245H95.0056C94.9956 17.2283 94.9856 17.2066 94.9756 17.18C94.9656 17.15 94.9606 17.1183 94.9606 17.085C94.9606 17.0283 94.9739 16.985 95.0006 16.955C95.0272 16.9216 95.0656 16.905 95.1156 16.905Z" fill="#A73C4C"/>
<path d="M79.2893 14.905L79.1543 15.2L79.0693 16.145C79.126 16.115 79.2043 16.0866 79.3043 16.06C79.4076 16.03 79.516 16.015 79.6293 16.015C79.8293 16.015 80.0093 16.0533 80.1693 16.13C80.3293 16.2033 80.456 16.3133 80.5493 16.46C80.646 16.6033 80.6943 16.7816 80.6943 16.995C80.6943 17.1883 80.6493 17.3616 80.5593 17.515C80.4726 17.6683 80.3443 17.79 80.1743 17.88C80.0076 17.9666 79.8026 18.01 79.5593 18.01C79.3693 18.01 79.2026 17.9883 79.0593 17.945C78.916 17.9016 78.8043 17.8483 78.7243 17.785C78.6443 17.7216 78.6043 17.66 78.6043 17.6C78.6043 17.5466 78.621 17.5 78.6543 17.46C78.691 17.42 78.7276 17.3933 78.7643 17.38C78.8376 17.4433 78.941 17.5083 79.0743 17.575C79.2076 17.6416 79.3693 17.675 79.5593 17.675C79.7893 17.675 79.9676 17.6116 80.0943 17.485C80.221 17.355 80.2843 17.1916 80.2843 16.995C80.2843 16.7916 80.2193 16.6333 80.0893 16.52C79.9593 16.4066 79.7893 16.35 79.5793 16.35C79.4626 16.35 79.356 16.3683 79.2593 16.405C79.1626 16.4416 79.0726 16.4833 78.9893 16.53C78.8993 16.5233 78.826 16.4966 78.7693 16.45C78.716 16.4 78.6893 16.3366 78.6893 16.26C78.6893 16.24 78.6893 16.215 78.6893 16.185C78.6926 16.1516 78.696 16.12 78.6993 16.09L78.7843 15.135C78.791 15.065 78.8126 15.01 78.8493 14.97C78.886 14.9266 78.9393 14.905 79.0093 14.905H79.2893ZM79.0793 15.245V14.905H80.5393C80.5493 14.9183 80.5593 14.94 80.5693 14.97C80.5793 15 80.5843 15.0316 80.5843 15.065C80.5843 15.1183 80.571 15.1616 80.5443 15.195C80.5176 15.2283 80.4793 15.245 80.4293 15.245H79.0793ZM82.4391 18.01C82.2058 18.01 81.9991 17.9533 81.8191 17.84C81.6425 17.7233 81.5041 17.5483 81.4041 17.315C81.3041 17.0783 81.2541 16.7816 81.2541 16.425C81.2541 16.0416 81.3108 15.735 81.4241 15.505C81.5375 15.275 81.6841 15.1083 81.8641 15.005C82.0441 14.8983 82.2358 14.845 82.4391 14.845C82.6458 14.845 82.8391 14.8983 83.0191 15.005C83.2025 15.1116 83.3491 15.2816 83.4591 15.515C83.5725 15.745 83.6291 16.0483 83.6291 16.425C83.6291 16.7783 83.5791 17.0733 83.4791 17.31C83.3791 17.5433 83.2391 17.7183 83.0591 17.835C82.8825 17.9516 82.6758 18.01 82.4391 18.01ZM82.4391 17.67C82.6858 17.67 82.8775 17.5633 83.0141 17.35C83.1508 17.1333 83.2191 16.825 83.2191 16.425C83.2191 16.1283 83.1825 15.89 83.1091 15.71C83.0391 15.5266 82.9458 15.3933 82.8291 15.31C82.7125 15.2266 82.5825 15.185 82.4391 15.185C82.2991 15.185 82.1691 15.2283 82.0491 15.315C81.9325 15.3983 81.8391 15.5316 81.7691 15.715C81.6991 15.8983 81.6641 16.135 81.6641 16.425C81.6641 16.825 81.7325 17.1333 81.8691 17.35C82.0058 17.5633 82.1958 17.67 82.4391 17.67ZM86.1742 15.14C86.1742 15.18 86.1625 15.2183 86.1392 15.255C86.1192 15.2883 86.0925 15.3133 86.0592 15.33C85.9858 15.2933 85.9025 15.2616 85.8092 15.235C85.7192 15.205 85.6208 15.19 85.5142 15.19C85.2542 15.19 85.0342 15.2833 84.8542 15.47C84.6775 15.6566 84.5842 15.9483 84.5742 16.345C84.6408 16.2783 84.7425 16.2083 84.8792 16.135C85.0192 16.0583 85.1908 16.02 85.3942 16.02C85.6875 16.02 85.9292 16.1033 86.1192 16.27C86.3092 16.4366 86.4042 16.6833 86.4042 17.01C86.4042 17.2166 86.3592 17.395 86.2692 17.545C86.1825 17.695 86.0592 17.81 85.8992 17.89C85.7425 17.97 85.5558 18.01 85.3392 18.01C85.1158 18.01 84.9158 17.96 84.7392 17.86C84.5625 17.7566 84.4225 17.5966 84.3192 17.38C84.2192 17.16 84.1692 16.8733 84.1692 16.52C84.1692 16.2066 84.2058 15.9433 84.2792 15.73C84.3558 15.5133 84.4575 15.3416 84.5842 15.215C84.7108 15.085 84.8542 14.9916 85.0142 14.935C85.1742 14.875 85.3375 14.845 85.5042 14.845C85.6208 14.845 85.7292 14.8566 85.8292 14.88C85.9325 14.9033 86.0158 14.9366 86.0792 14.98C86.1425 15.0233 86.1742 15.0766 86.1742 15.14ZM85.3392 17.675C85.5325 17.675 85.6908 17.6166 85.8142 17.5C85.9375 17.38 85.9992 17.2133 85.9992 17C85.9992 16.7833 85.9358 16.6233 85.8092 16.52C85.6858 16.4133 85.5325 16.36 85.3492 16.36C85.1658 16.36 85.0075 16.4 84.8742 16.48C84.7408 16.5566 84.6358 16.65 84.5592 16.76L84.5742 16.725C84.5742 17.0083 84.6408 17.2383 84.7742 17.415C84.9075 17.5883 85.0958 17.675 85.3392 17.675Z" fill="#A73C4C"/>
<path d="M69.2893 14.905L69.1543 15.2L69.0693 16.145C69.1259 16.115 69.2043 16.0866 69.3043 16.06C69.4076 16.03 69.5159 16.015 69.6293 16.015C69.8293 16.015 70.0093 16.0533 70.1693 16.13C70.3293 16.2033 70.4559 16.3133 70.5493 16.46C70.6459 16.6033 70.6943 16.7816 70.6943 16.995C70.6943 17.1883 70.6493 17.3616 70.5593 17.515C70.4726 17.6683 70.3443 17.79 70.1743 17.88C70.0076 17.9666 69.8026 18.01 69.5593 18.01C69.3693 18.01 69.2026 17.9883 69.0593 17.945C68.9159 17.9016 68.8043 17.8483 68.7243 17.785C68.6443 17.7216 68.6043 17.66 68.6043 17.6C68.6043 17.5466 68.6209 17.5 68.6543 17.46C68.6909 17.42 68.7276 17.3933 68.7643 17.38C68.8376 17.4433 68.9409 17.5083 69.0743 17.575C69.2076 17.6416 69.3693 17.675 69.5593 17.675C69.7893 17.675 69.9676 17.6116 70.0943 17.485C70.2209 17.355 70.2843 17.1916 70.2843 16.995C70.2843 16.7916 70.2193 16.6333 70.0893 16.52C69.9593 16.4066 69.7893 16.35 69.5793 16.35C69.4626 16.35 69.3559 16.3683 69.2593 16.405C69.1626 16.4416 69.0726 16.4833 68.9893 16.53C68.8993 16.5233 68.8259 16.4966 68.7693 16.45C68.7159 16.4 68.6893 16.3366 68.6893 16.26C68.6893 16.24 68.6893 16.215 68.6893 16.185C68.6926 16.1516 68.6959 16.12 68.6993 16.09L68.7843 15.135C68.7909 15.065 68.8126 15.01 68.8493 14.97C68.8859 14.9266 68.9393 14.905 69.0093 14.905H69.2893ZM69.0793 15.245V14.905H70.5393C70.5493 14.9183 70.5593 14.94 70.5693 14.97C70.5793 15 70.5843 15.0316 70.5843 15.065C70.5843 15.1183 70.5709 15.1616 70.5443 15.195C70.5176 15.2283 70.4793 15.245 70.4293 15.245H69.0793ZM72.4391 18.01C72.2058 18.01 71.9991 17.9533 71.8191 17.84C71.6424 17.7233 71.5041 17.5483 71.4041 17.315C71.3041 17.0783 71.2541 16.7816 71.2541 16.425C71.2541 16.0416 71.3108 15.735 71.4241 15.505C71.5374 15.275 71.6841 15.1083 71.8641 15.005C72.0441 14.8983 72.2358 14.845 72.4391 14.845C72.6458 14.845 72.8391 14.8983 73.0191 15.005C73.2024 15.1116 73.3491 15.2816 73.4591 15.515C73.5724 15.745 73.6291 16.0483 73.6291 16.425C73.6291 16.7783 73.5791 17.0733 73.4791 17.31C73.3791 17.5433 73.2391 17.7183 73.0591 17.835C72.8824 17.9516 72.6758 18.01 72.4391 18.01ZM72.4391 17.67C72.6858 17.67 72.8774 17.5633 73.0141 17.35C73.1508 17.1333 73.2191 16.825 73.2191 16.425C73.2191 16.1283 73.1824 15.89 73.1091 15.71C73.0391 15.5266 72.9458 15.3933 72.8291 15.31C72.7124 15.2266 72.5824 15.185 72.4391 15.185C72.2991 15.185 72.1691 15.2283 72.0491 15.315C71.9324 15.3983 71.8391 15.5316 71.7691 15.715C71.6991 15.8983 71.6641 16.135 71.6641 16.425C71.6641 16.825 71.7324 17.1333 71.8691 17.35C72.0058 17.5633 72.1958 17.67 72.4391 17.67ZM74.9191 14.905L74.7841 15.2L74.6991 16.145C74.7558 16.115 74.8341 16.0866 74.9341 16.06C75.0375 16.03 75.1458 16.015 75.2591 16.015C75.4591 16.015 75.6391 16.0533 75.7991 16.13C75.9591 16.2033 76.0858 16.3133 76.1791 16.46C76.2758 16.6033 76.3241 16.7816 76.3241 16.995C76.3241 17.1883 76.2791 17.3616 76.1891 17.515C76.1025 17.6683 75.9741 17.79 75.8041 17.88C75.6375 17.9666 75.4325 18.01 75.1891 18.01C74.9991 18.01 74.8325 17.9883 74.6891 17.945C74.5458 17.9016 74.4341 17.8483 74.3541 17.785C74.2741 17.7216 74.2341 17.66 74.2341 17.6C74.2341 17.5466 74.2508 17.5 74.2841 17.46C74.3208 17.42 74.3575 17.3933 74.3941 17.38C74.4675 17.4433 74.5708 17.5083 74.7041 17.575C74.8375 17.6416 74.9991 17.675 75.1891 17.675C75.4191 17.675 75.5975 17.6116 75.7241 17.485C75.8508 17.355 75.9141 17.1916 75.9141 16.995C75.9141 16.7916 75.8491 16.6333 75.7191 16.52C75.5891 16.4066 75.4191 16.35 75.2091 16.35C75.0925 16.35 74.9858 16.3683 74.8891 16.405C74.7925 16.4416 74.7025 16.4833 74.6191 16.53C74.5291 16.5233 74.4558 16.4966 74.3991 16.45C74.3458 16.4 74.3191 16.3366 74.3191 16.26C74.3191 16.24 74.3191 16.215 74.3191 16.185C74.3225 16.1516 74.3258 16.12 74.3291 16.09L74.4141 15.135C74.4208 15.065 74.4425 15.01 74.4791 14.97C74.5158 14.9266 74.5691 14.905 74.6391 14.905H74.9191ZM74.7091 15.245V14.905H76.1691C76.1791 14.9183 76.1891 14.94 76.1991 14.97C76.2091 15 76.2141 15.0316 76.2141 15.065C76.2141 15.1183 76.2008 15.1616 76.1741 15.195C76.1475 15.2283 76.1091 15.245 76.0591 15.245H74.7091Z" fill="#A73C4C"/>
<path d="M65.3093 13.9649L65.0143 13.8299L64.0693 13.7449C64.0993 13.8016 64.1276 13.8799 64.1543 13.9799C64.1843 14.0833 64.1993 14.1916 64.1993 14.3049C64.1993 14.5049 64.161 14.6849 64.0843 14.8449C64.011 15.0049 63.901 15.1316 63.7543 15.2249C63.611 15.3216 63.4326 15.3699 63.2193 15.3699C63.026 15.3699 62.8526 15.3249 62.6993 15.2349C62.546 15.1483 62.4243 15.0199 62.3343 14.8499C62.2476 14.6833 62.2043 14.4783 62.2043 14.2349C62.2043 14.0449 62.226 13.8783 62.2693 13.7349C62.3126 13.5916 62.366 13.4799 62.4293 13.3999C62.4926 13.3199 62.5543 13.2799 62.6143 13.2799C62.6676 13.2799 62.7143 13.2966 62.7543 13.3299C62.7943 13.3666 62.821 13.4033 62.8343 13.4399C62.771 13.5133 62.706 13.6166 62.6393 13.7499C62.5726 13.8833 62.5393 14.0449 62.5393 14.2349C62.5393 14.4649 62.6026 14.6433 62.7293 14.7699C62.8593 14.8966 63.0226 14.9599 63.2193 14.9599C63.4226 14.9599 63.581 14.8949 63.6943 14.7649C63.8076 14.6349 63.8643 14.4649 63.8643 14.2549C63.8643 14.1383 63.846 14.0316 63.8093 13.9349C63.7726 13.8383 63.731 13.7483 63.6843 13.6649C63.691 13.5749 63.7176 13.5016 63.7643 13.4449C63.8143 13.3916 63.8776 13.3649 63.9543 13.3649C63.9743 13.3649 63.9993 13.3649 64.0293 13.3649C64.0626 13.3683 64.0943 13.3716 64.1243 13.3749L65.0793 13.4599C65.1493 13.4666 65.2043 13.4883 65.2443 13.5249C65.2876 13.5616 65.3093 13.6149 65.3093 13.6849L65.3093 13.9649ZM64.9693 13.7549L65.3093 13.7549L65.3093 15.2149C65.296 15.2249 65.2743 15.2349 65.2443 15.2449C65.2143 15.2549 65.1826 15.2599 65.1493 15.2599C65.096 15.2599 65.0526 15.2466 65.0193 15.2199C64.986 15.1933 64.9693 15.1549 64.9693 15.1049L64.9693 13.7549ZM62.2043 17.1148C62.2043 16.8815 62.261 16.6748 62.3743 16.4948C62.491 16.3181 62.666 16.1798 62.8993 16.0798C63.136 15.9798 63.4326 15.9298 63.7893 15.9298C64.1726 15.9298 64.4793 15.9865 64.7093 16.0998C64.9393 16.2131 65.106 16.3598 65.2093 16.5398C65.316 16.7198 65.3693 16.9115 65.3693 17.1148C65.3693 17.3215 65.316 17.5148 65.2093 17.6948C65.1026 17.8781 64.9326 18.0248 64.6993 18.1348C64.4693 18.2481 64.166 18.3048 63.7893 18.3048C63.436 18.3048 63.141 18.2548 62.9043 18.1548C62.671 18.0548 62.496 17.9148 62.3793 17.7348C62.2626 17.5581 62.2043 17.3515 62.2043 17.1148ZM62.5443 17.1148C62.5443 17.3615 62.651 17.5531 62.8643 17.6898C63.081 17.8265 63.3893 17.8948 63.7893 17.8948C64.086 17.8948 64.3243 17.8581 64.5043 17.7848C64.6876 17.7148 64.821 17.6215 64.9043 17.5048C64.9876 17.3881 65.0293 17.2581 65.0293 17.1148C65.0293 16.9748 64.986 16.8448 64.8993 16.7248C64.816 16.6081 64.6826 16.5148 64.4993 16.4448C64.316 16.3748 64.0793 16.3398 63.7893 16.3398C63.3893 16.3398 63.081 16.4081 62.8643 16.5448C62.651 16.6815 62.5443 16.8715 62.5443 17.1148ZM63.3843 18.7592L65.3143 20.2142C65.321 20.2442 65.326 20.2776 65.3293 20.3142C65.336 20.3542 65.3393 20.3892 65.3393 20.4192C65.3393 20.4659 65.3326 20.5092 65.3193 20.5492C65.306 20.5926 65.281 20.6276 65.2443 20.6542C65.211 20.6809 65.161 20.6942 65.0943 20.6942L63.3443 20.6942L63.3443 21.1942C63.3276 21.2042 63.3043 21.2142 63.2743 21.2242C63.2476 21.2342 63.216 21.2392 63.1793 21.2392C63.126 21.2392 63.0843 21.2259 63.0543 21.1992C63.0243 21.1726 63.0093 21.1342 63.0093 21.0842L63.0093 20.6942L62.2593 20.6942C62.256 20.6776 62.251 20.6526 62.2443 20.6192C62.2343 20.5892 62.2293 20.5559 62.2293 20.5192C62.2293 20.4492 62.2443 20.3959 62.2743 20.3592C62.3043 20.3226 62.3476 20.3042 62.4043 20.3042L63.0093 20.3042L63.0093 18.8592C63.026 18.8259 63.056 18.7959 63.0993 18.7692C63.1426 18.7459 63.191 18.7342 63.2443 18.7342C63.2743 18.7342 63.2993 18.7359 63.3193 18.7392C63.3426 18.7459 63.3643 18.7526 63.3843 18.7592ZM63.3443 20.3092L64.9193 20.3192L64.9193 20.3092L63.3443 19.1992L63.3443 20.3092Z" fill="#A73C4C"/>
<path d="M37.2893 14.9049L37.1543 15.1999L37.0693 16.1449C37.126 16.1149 37.2043 16.0866 37.3043 16.0599C37.4076 16.0299 37.516 16.0149 37.6293 16.0149C37.8293 16.0149 38.0093 16.0533 38.1693 16.1299C38.3293 16.2033 38.456 16.3133 38.5493 16.4599C38.646 16.6033 38.6943 16.7816 38.6943 16.9949C38.6943 17.1883 38.6493 17.3616 38.5593 17.5149C38.4726 17.6683 38.3443 17.7899 38.1743 17.8799C38.0076 17.9666 37.8026 18.0099 37.5593 18.0099C37.3693 18.0099 37.2026 17.9883 37.0593 17.9449C36.916 17.9016 36.8043 17.8483 36.7243 17.7849C36.6443 17.7216 36.6043 17.6599 36.6043 17.5999C36.6043 17.5466 36.621 17.4999 36.6543 17.4599C36.691 17.4199 36.7276 17.3933 36.7643 17.3799C36.8376 17.4433 36.941 17.5083 37.0743 17.5749C37.2076 17.6416 37.3693 17.6749 37.5593 17.6749C37.7893 17.6749 37.9676 17.6116 38.0943 17.4849C38.221 17.3549 38.2843 17.1916 38.2843 16.9949C38.2843 16.7916 38.2193 16.6333 38.0893 16.5199C37.9593 16.4066 37.7893 16.3499 37.5793 16.3499C37.4626 16.3499 37.356 16.3683 37.2593 16.4049C37.1626 16.4416 37.0726 16.4833 36.9893 16.5299C36.8993 16.5233 36.826 16.4966 36.7693 16.4499C36.716 16.3999 36.6893 16.3366 36.6893 16.2599C36.6893 16.2399 36.6893 16.2149 36.6893 16.1849C36.6926 16.1516 36.696 16.1199 36.6993 16.0899L36.7843 15.1349C36.791 15.0649 36.8126 15.0099 36.8493 14.9699C36.886 14.9266 36.9393 14.9049 37.0093 14.9049H37.2893ZM37.0793 15.2449V14.9049H38.5393C38.5493 14.9183 38.5593 14.9399 38.5693 14.9699C38.5793 14.9999 38.5843 15.0316 38.5843 15.0649C38.5843 15.1183 38.571 15.1616 38.5443 15.1949C38.5176 15.2283 38.4793 15.2449 38.4293 15.2449H37.0793ZM40.4391 18.0099C40.2058 18.0099 39.9991 17.9533 39.8191 17.8399C39.6425 17.7233 39.5041 17.5483 39.4041 17.3149C39.3041 17.0783 39.2541 16.7816 39.2541 16.4249C39.2541 16.0416 39.3108 15.7349 39.4241 15.5049C39.5375 15.2749 39.6841 15.1083 39.8641 15.0049C40.0441 14.8983 40.2358 14.8449 40.4391 14.8449C40.6458 14.8449 40.8391 14.8983 41.0191 15.0049C41.2025 15.1116 41.3491 15.2816 41.4591 15.5149C41.5725 15.7449 41.6291 16.0483 41.6291 16.4249C41.6291 16.7783 41.5791 17.0733 41.4791 17.3099C41.3791 17.5433 41.2391 17.7183 41.0591 17.8349C40.8825 17.9516 40.6758 18.0099 40.4391 18.0099ZM40.4391 17.6699C40.6858 17.6699 40.8775 17.5633 41.0141 17.3499C41.1508 17.1333 41.2191 16.8249 41.2191 16.4249C41.2191 16.1283 41.1825 15.8899 41.1091 15.7099C41.0391 15.5266 40.9458 15.3933 40.8291 15.3099C40.7125 15.2266 40.5825 15.1849 40.4391 15.1849C40.2991 15.1849 40.1691 15.2283 40.0491 15.3149C39.9325 15.3983 39.8391 15.5316 39.7691 15.7149C39.6991 15.8983 39.6641 16.1349 39.6641 16.4249C39.6641 16.8249 39.7325 17.1333 39.8691 17.3499C40.0058 17.5633 40.1958 17.6699 40.4391 17.6699ZM42.9451 14.8399C43.2618 14.8399 43.5168 14.9099 43.7101 15.0499C43.9068 15.1866 44.0051 15.3933 44.0051 15.6699C44.0051 15.8033 43.9768 15.9183 43.9201 16.0149C43.8668 16.1083 43.8018 16.1816 43.7251 16.2349C43.6518 16.2883 43.5851 16.3233 43.5251 16.3399C43.6151 16.3666 43.7034 16.4133 43.7901 16.4799C43.8768 16.5433 43.9484 16.6266 44.0051 16.7299C44.0651 16.8299 44.0951 16.9516 44.0951 17.0949C44.0951 17.2949 44.0468 17.4616 43.9501 17.5949C43.8534 17.7283 43.7201 17.8299 43.5501 17.8999C43.3801 17.9666 43.1834 17.9999 42.9601 17.9999C42.7768 17.9999 42.6134 17.9816 42.4701 17.9449C42.3301 17.9049 42.2201 17.8549 42.1401 17.7949C42.0601 17.7349 42.0201 17.6716 42.0201 17.6049C42.0201 17.5583 42.0318 17.5183 42.0551 17.4849C42.0818 17.4516 42.1151 17.4233 42.1551 17.3999C42.2418 17.4666 42.3468 17.5266 42.4701 17.5799C42.5968 17.6333 42.7601 17.6599 42.9601 17.6599C43.1801 17.6599 43.3584 17.6133 43.4951 17.5199C43.6318 17.4233 43.7001 17.2783 43.7001 17.0849C43.7001 16.9149 43.6368 16.7783 43.5101 16.6749C43.3834 16.5716 43.2001 16.5199 42.9601 16.5199H42.5451C42.5318 16.5033 42.5201 16.4799 42.5101 16.4499C42.5001 16.4166 42.4951 16.3833 42.4951 16.3499C42.4951 16.3133 42.5001 16.2799 42.5101 16.2499C42.5201 16.2199 42.5318 16.1966 42.5451 16.1799H42.9251C43.1718 16.1799 43.3468 16.1349 43.4501 16.0449C43.5568 15.9516 43.6101 15.8299 43.6101 15.6799C43.6101 15.5166 43.5501 15.3933 43.4301 15.3099C43.3101 15.2233 43.1468 15.1799 42.9401 15.1799C42.7801 15.1799 42.6384 15.2049 42.5151 15.2549C42.3951 15.3016 42.2951 15.3533 42.2151 15.4099C42.1818 15.3933 42.1518 15.3666 42.1251 15.3299C42.0984 15.2933 42.0851 15.2533 42.0851 15.2099C42.0851 15.1499 42.1234 15.0916 42.2001 15.0349C42.2768 14.9783 42.3801 14.9316 42.5101 14.8949C42.6401 14.8583 42.7851 14.8399 42.9451 14.8399Z" fill="#A73C4C"/>
<path d="M21.2893 9.90495L21.1543 10.1999L21.0693 11.1449C21.126 11.1149 21.2043 11.0866 21.3043 11.0599C21.4076 11.0299 21.516 11.0149 21.6293 11.0149C21.8293 11.0149 22.0093 11.0533 22.1693 11.1299C22.3293 11.2033 22.456 11.3133 22.5493 11.4599C22.646 11.6033 22.6943 11.7816 22.6943 11.9949C22.6943 12.1883 22.6493 12.3616 22.5593 12.5149C22.4726 12.6683 22.3443 12.7899 22.1743 12.8799C22.0076 12.9666 21.8026 13.0099 21.5593 13.0099C21.3693 13.0099 21.2026 12.9883 21.0593 12.9449C20.916 12.9016 20.8043 12.8483 20.7243 12.7849C20.6443 12.7216 20.6043 12.6599 20.6043 12.5999C20.6043 12.5466 20.621 12.4999 20.6543 12.4599C20.691 12.4199 20.7276 12.3933 20.7643 12.3799C20.8376 12.4433 20.941 12.5083 21.0743 12.5749C21.2076 12.6416 21.3693 12.6749 21.5593 12.6749C21.7893 12.6749 21.9676 12.6116 22.0943 12.4849C22.221 12.3549 22.2843 12.1916 22.2843 11.9949C22.2843 11.7916 22.2193 11.6333 22.0893 11.5199C21.9593 11.4066 21.7893 11.3499 21.5793 11.3499C21.4626 11.3499 21.356 11.3683 21.2593 11.4049C21.1626 11.4416 21.0726 11.4833 20.9893 11.5299C20.8993 11.5233 20.826 11.4966 20.7693 11.4499C20.716 11.3999 20.6893 11.3366 20.6893 11.2599C20.6893 11.2399 20.6893 11.2149 20.6893 11.1849C20.6926 11.1516 20.696 11.1199 20.6993 11.0899L20.7843 10.1349C20.791 10.0649 20.8126 10.0099 20.8493 9.96995C20.886 9.92661 20.9393 9.90495 21.0093 9.90495H21.2893ZM21.0793 10.2449V9.90495H22.5393C22.5493 9.91828 22.5593 9.93995 22.5693 9.96995C22.5793 9.99995 22.5843 10.0316 22.5843 10.0649C22.5843 10.1183 22.571 10.1616 22.5443 10.1949C22.5176 10.2283 22.4793 10.2449 22.4293 10.2449H21.0793ZM24.4391 13.0099C24.2058 13.0099 23.9991 12.9533 23.8191 12.8399C23.6425 12.7233 23.5041 12.5483 23.4041 12.3149C23.3041 12.0783 23.2541 11.7816 23.2541 11.4249C23.2541 11.0416 23.3108 10.7349 23.4241 10.5049C23.5375 10.2749 23.6841 10.1083 23.8641 10.0049C24.0441 9.89828 24.2358 9.84495 24.4391 9.84495C24.6458 9.84495 24.8391 9.89828 25.0191 10.0049C25.2025 10.1116 25.3491 10.2816 25.4591 10.5149C25.5725 10.7449 25.6291 11.0483 25.6291 11.4249C25.6291 11.7783 25.5791 12.0733 25.4791 12.3099C25.3791 12.5433 25.2391 12.7183 25.0591 12.8349C24.8825 12.9516 24.6758 13.0099 24.4391 13.0099ZM24.4391 12.6699C24.6858 12.6699 24.8775 12.5633 25.0141 12.3499C25.1508 12.1333 25.2191 11.8249 25.2191 11.4249C25.2191 11.1283 25.1825 10.8899 25.1091 10.7099C25.0391 10.5266 24.9458 10.3933 24.8291 10.3099C24.7125 10.2266 24.5825 10.1849 24.4391 10.1849C24.2991 10.1849 24.1691 10.2283 24.0491 10.3149C23.9325 10.3983 23.8391 10.5316 23.7691 10.7149C23.6991 10.8983 23.6641 11.1349 23.6641 11.4249C23.6641 11.8249 23.7325 12.1333 23.8691 12.3499C24.0058 12.5633 24.1958 12.6699 24.4391 12.6699ZM26.1793 10.2199C26.1793 10.1599 26.2176 10.1016 26.2943 10.0449C26.371 9.98495 26.4743 9.93661 26.6043 9.89995C26.7343 9.86328 26.876 9.84495 27.0293 9.84495C27.2426 9.84495 27.426 9.88161 27.5793 9.95495C27.7326 10.0249 27.851 10.1249 27.9343 10.2549C28.0176 10.3849 28.0593 10.5383 28.0593 10.7149C28.0593 10.8983 28.0076 11.0783 27.9043 11.2549C27.8043 11.4316 27.631 11.6333 27.3843 11.8599L26.5693 12.6149H28.0543C28.0676 12.6283 28.0793 12.6499 28.0893 12.6799C28.0993 12.7066 28.1043 12.7383 28.1043 12.7749C28.1043 12.8283 28.0893 12.8699 28.0593 12.8999C28.0326 12.9299 27.996 12.9449 27.9493 12.9449H26.1843C26.151 12.9216 26.126 12.8933 26.1093 12.8599C26.0926 12.8233 26.0843 12.7849 26.0843 12.7449C26.0843 12.6916 26.0943 12.6449 26.1143 12.6049C26.1343 12.5616 26.1643 12.5216 26.2043 12.4849L27.1043 11.6199C27.311 11.4266 27.4526 11.2649 27.5293 11.1349C27.606 11.0016 27.6443 10.8633 27.6443 10.7199C27.6443 10.5633 27.591 10.4349 27.4843 10.3349C27.3776 10.2349 27.216 10.1849 26.9993 10.1849C26.8526 10.1849 26.721 10.2099 26.6043 10.2599C26.491 10.3099 26.396 10.3633 26.3193 10.4199C26.2826 10.4033 26.2493 10.3783 26.2193 10.3449C26.1926 10.3116 26.1793 10.2699 26.1793 10.2199Z" fill="#A73C4C"/>
<path d="M21.2893 22.9049L21.1543 23.1999L21.0693 24.1449C21.126 24.1149 21.2043 24.0866 21.3043 24.0599C21.4076 24.0299 21.516 24.0149 21.6293 24.0149C21.8293 24.0149 22.0093 24.0533 22.1693 24.1299C22.3293 24.2033 22.456 24.3133 22.5493 24.4599C22.646 24.6033 22.6943 24.7816 22.6943 24.9949C22.6943 25.1883 22.6493 25.3616 22.5593 25.5149C22.4726 25.6683 22.3443 25.7899 22.1743 25.8799C22.0076 25.9666 21.8026 26.0099 21.5593 26.0099C21.3693 26.0099 21.2026 25.9883 21.0593 25.9449C20.916 25.9016 20.8043 25.8483 20.7243 25.7849C20.6443 25.7216 20.6043 25.6599 20.6043 25.5999C20.6043 25.5466 20.621 25.4999 20.6543 25.4599C20.691 25.4199 20.7276 25.3933 20.7643 25.3799C20.8376 25.4433 20.941 25.5083 21.0743 25.5749C21.2076 25.6416 21.3693 25.6749 21.5593 25.6749C21.7893 25.6749 21.9676 25.6116 22.0943 25.4849C22.221 25.3549 22.2843 25.1916 22.2843 24.9949C22.2843 24.7916 22.2193 24.6333 22.0893 24.5199C21.9593 24.4066 21.7893 24.3499 21.5793 24.3499C21.4626 24.3499 21.356 24.3683 21.2593 24.4049C21.1626 24.4416 21.0726 24.4833 20.9893 24.5299C20.8993 24.5233 20.826 24.4966 20.7693 24.4499C20.716 24.3999 20.6893 24.3366 20.6893 24.2599C20.6893 24.2399 20.6893 24.2149 20.6893 24.1849C20.6926 24.1516 20.696 24.1199 20.6993 24.0899L20.7843 23.1349C20.791 23.0649 20.8126 23.0099 20.8493 22.9699C20.886 22.9266 20.9393 22.9049 21.0093 22.9049H21.2893ZM21.0793 23.2449V22.9049H22.5393C22.5493 22.9183 22.5593 22.9399 22.5693 22.9699C22.5793 22.9999 22.5843 23.0316 22.5843 23.0649C22.5843 23.1183 22.571 23.1616 22.5443 23.1949C22.5176 23.2283 22.4793 23.2449 22.4293 23.2449H21.0793ZM24.4391 26.0099C24.2058 26.0099 23.9991 25.9533 23.8191 25.8399C23.6425 25.7233 23.5041 25.5483 23.4041 25.3149C23.3041 25.0783 23.2541 24.7816 23.2541 24.4249C23.2541 24.0416 23.3108 23.7349 23.4241 23.5049C23.5375 23.2749 23.6841 23.1083 23.8641 23.0049C24.0441 22.8983 24.2358 22.8449 24.4391 22.8449C24.6458 22.8449 24.8391 22.8983 25.0191 23.0049C25.2025 23.1116 25.3491 23.2816 25.4591 23.5149C25.5725 23.7449 25.6291 24.0483 25.6291 24.4249C25.6291 24.7783 25.5791 25.0733 25.4791 25.3099C25.3791 25.5433 25.2391 25.7183 25.0591 25.8349C24.8825 25.9516 24.6758 26.0099 24.4391 26.0099ZM24.4391 25.6699C24.6858 25.6699 24.8775 25.5633 25.0141 25.3499C25.1508 25.1333 25.2191 24.8249 25.2191 24.4249C25.2191 24.1283 25.1825 23.8899 25.1091 23.7099C25.0391 23.5266 24.9458 23.3933 24.8291 23.3099C24.7125 23.2266 24.5825 23.1849 24.4391 23.1849C24.2991 23.1849 24.1691 23.2283 24.0491 23.3149C23.9325 23.3983 23.8391 23.5316 23.7691 23.7149C23.6991 23.8983 23.6641 24.1349 23.6641 24.4249C23.6641 24.8249 23.7325 25.1333 23.8691 25.3499C24.0058 25.5633 24.1958 25.6699 24.4391 25.6699ZM27.1203 24.8249H26.7153V23.2949L26.0753 23.5949C26.032 23.5783 25.9953 23.5533 25.9653 23.5199C25.9387 23.4866 25.9253 23.4449 25.9253 23.3949C25.9253 23.2983 25.9853 23.2249 26.1053 23.1749L26.8053 22.8699H26.9003C26.967 22.8699 27.0203 22.8899 27.0603 22.9299C27.1003 22.9699 27.1203 23.0233 27.1203 23.0899V24.8249ZM26.7153 24.6249H27.1203V25.9499C27.1003 25.9566 27.0737 25.9633 27.0403 25.9699C27.007 25.9799 26.9703 25.9849 26.9303 25.9849C26.8603 25.9849 26.807 25.9699 26.7703 25.9399C26.7337 25.9099 26.7153 25.8633 26.7153 25.7999V24.6249Z" fill="#A73C4C"/>
<path d="M100.289 98.905L100.154 99.2L100.069 100.145C100.126 100.115 100.204 100.087 100.304 100.06C100.408 100.03 100.516 100.015 100.629 100.015C100.829 100.015 101.009 100.053 101.169 100.13C101.329 100.203 101.456 100.313 101.549 100.46C101.646 100.603 101.694 100.782 101.694 100.995C101.694 101.188 101.649 101.362 101.559 101.515C101.473 101.668 101.344 101.79 101.174 101.88C101.008 101.967 100.803 102.01 100.559 102.01C100.369 102.01 100.203 101.988 100.059 101.945C99.916 101.902 99.8043 101.848 99.7243 101.785C99.6443 101.722 99.6043 101.66 99.6043 101.6C99.6043 101.547 99.621 101.5 99.6543 101.46C99.691 101.42 99.7276 101.393 99.7643 101.38C99.8376 101.443 99.941 101.508 100.074 101.575C100.208 101.642 100.369 101.675 100.559 101.675C100.789 101.675 100.968 101.612 101.094 101.485C101.221 101.355 101.284 101.192 101.284 100.995C101.284 100.792 101.219 100.633 101.089 100.52C100.959 100.407 100.789 100.35 100.579 100.35C100.463 100.35 100.356 100.368 100.259 100.405C100.163 100.442 100.073 100.483 99.9893 100.53C99.8993 100.523 99.826 100.497 99.7693 100.45C99.716 100.4 99.6893 100.337 99.6893 100.26C99.6893 100.24 99.6893 100.215 99.6893 100.185C99.6926 100.152 99.696 100.12 99.6993 100.09L99.7843 99.135C99.791 99.065 99.8126 99.01 99.8493 98.97C99.886 98.9266 99.9393 98.905 100.009 98.905H100.289ZM100.079 99.245V98.905H101.539C101.549 98.9183 101.559 98.94 101.569 98.97C101.579 99 101.584 99.0316 101.584 99.065C101.584 99.1183 101.571 99.1616 101.544 99.195C101.518 99.2283 101.479 99.245 101.429 99.245H100.079ZM103.23 100.825H102.825V99.295L102.185 99.595C102.141 99.5783 102.105 99.5533 102.075 99.52C102.048 99.4866 102.035 99.445 102.035 99.395C102.035 99.2983 102.095 99.225 102.215 99.175L102.915 98.87H103.01C103.076 98.87 103.13 98.89 103.17 98.93C103.21 98.97 103.23 99.0233 103.23 99.09V100.825ZM102.825 100.625H103.23V101.95C103.21 101.957 103.183 101.963 103.15 101.97C103.116 101.98 103.08 101.985 103.04 101.985C102.97 101.985 102.916 101.97 102.88 101.94C102.843 101.91 102.825 101.863 102.825 101.8V100.625ZM105.201 102.01C104.974 102.01 104.776 101.977 104.606 101.91C104.436 101.84 104.304 101.74 104.211 101.61C104.118 101.48 104.071 101.323 104.071 101.14C104.071 100.977 104.108 100.838 104.181 100.725C104.258 100.608 104.354 100.515 104.471 100.445C104.588 100.375 104.709 100.328 104.836 100.305L105.136 100.255C105.376 100.208 105.556 100.14 105.676 100.05C105.796 99.9566 105.856 99.8333 105.856 99.68C105.856 99.5233 105.798 99.4016 105.681 99.315C105.564 99.225 105.404 99.18 105.201 99.18C105.004 99.18 104.846 99.225 104.726 99.315C104.606 99.405 104.546 99.525 104.546 99.675C104.546 99.8016 104.579 99.9033 104.646 99.98C104.716 100.057 104.808 100.115 104.921 100.155C105.038 100.192 105.164 100.217 105.301 100.23L105.521 100.305C105.658 100.332 105.788 100.38 105.911 100.45C106.034 100.517 106.134 100.607 106.211 100.72C106.288 100.833 106.326 100.975 106.326 101.145C106.326 101.325 106.278 101.48 106.181 101.61C106.088 101.74 105.956 101.84 105.786 101.91C105.619 101.977 105.424 102.01 105.201 102.01ZM105.201 101.675C105.418 101.675 105.593 101.628 105.726 101.535C105.859 101.442 105.926 101.307 105.926 101.13C105.926 100.937 105.844 100.783 105.681 100.67C105.521 100.557 105.306 100.492 105.036 100.475L104.781 100.4C104.588 100.347 104.433 100.26 104.316 100.14C104.203 100.02 104.146 99.8633 104.146 99.67C104.146 99.5 104.189 99.3533 104.276 99.23C104.366 99.1066 104.489 99.0116 104.646 98.945C104.806 98.8783 104.991 98.845 105.201 98.845C105.528 98.845 105.784 98.92 105.971 99.07C106.161 99.2166 106.256 99.42 106.256 99.68C106.256 99.89 106.184 100.055 106.041 100.175C105.901 100.295 105.729 100.373 105.526 100.41L105.186 100.48C104.973 100.513 104.799 100.587 104.666 100.7C104.536 100.81 104.471 100.955 104.471 101.135C104.471 101.305 104.536 101.438 104.666 101.535C104.796 101.628 104.974 101.675 105.201 101.675Z" fill="#A73C4C"/>
<path d="M62.7053 106.905L62.5703 107.2L62.4853 108.145C62.5419 108.115 62.6203 108.087 62.7203 108.06C62.8236 108.03 62.9319 108.015 63.0453 108.015C63.2453 108.015 63.4253 108.053 63.5853 108.13C63.7453 108.203 63.8719 108.313 63.9653 108.46C64.0619 108.603 64.1103 108.782 64.1103 108.995C64.1103 109.188 64.0653 109.362 63.9753 109.515C63.8886 109.668 63.7603 109.79 63.5903 109.88C63.4236 109.967 63.2186 110.01 62.9753 110.01C62.7853 110.01 62.6186 109.988 62.4753 109.945C62.3319 109.902 62.2203 109.848 62.1403 109.785C62.0603 109.722 62.0203 109.66 62.0203 109.6C62.0203 109.547 62.0369 109.5 62.0703 109.46C62.1069 109.42 62.1436 109.393 62.1803 109.38C62.2536 109.443 62.3569 109.508 62.4903 109.575C62.6236 109.642 62.7853 109.675 62.9753 109.675C63.2053 109.675 63.3836 109.612 63.5103 109.485C63.6369 109.355 63.7003 109.192 63.7003 108.995C63.7003 108.792 63.6353 108.633 63.5053 108.52C63.3753 108.407 63.2053 108.35 62.9953 108.35C62.8786 108.35 62.7719 108.368 62.6753 108.405C62.5786 108.442 62.4886 108.483 62.4053 108.53C62.3153 108.523 62.2419 108.497 62.1853 108.45C62.1319 108.4 62.1053 108.337 62.1053 108.26C62.1053 108.24 62.1053 108.215 62.1053 108.185C62.1086 108.152 62.1119 108.12 62.1153 108.09L62.2003 107.135C62.2069 107.065 62.2286 107.01 62.2653 106.97C62.3019 106.927 62.3553 106.905 62.4253 106.905H62.7053ZM62.4953 107.245V106.905H63.9553C63.9653 106.918 63.9753 106.94 63.9853 106.97C63.9953 107 64.0003 107.032 64.0003 107.065C64.0003 107.118 63.9869 107.162 63.9603 107.195C63.9336 107.228 63.8953 107.245 63.8453 107.245H62.4953ZM65.6457 108.825H65.2407V107.295L64.6007 107.595C64.5574 107.578 64.5207 107.553 64.4907 107.52C64.464 107.487 64.4507 107.445 64.4507 107.395C64.4507 107.298 64.5107 107.225 64.6307 107.175L65.3307 106.87H65.4257C65.4924 106.87 65.5457 106.89 65.5857 106.93C65.6257 106.97 65.6457 107.023 65.6457 107.09V108.825ZM65.2407 108.625H65.6457V109.95C65.6257 109.957 65.599 109.963 65.5657 109.97C65.5324 109.98 65.4957 109.985 65.4557 109.985C65.3857 109.985 65.3324 109.97 65.2957 109.94C65.259 109.91 65.2407 109.863 65.2407 109.8V108.625ZM67.1828 106.905L67.0478 107.2L66.9628 108.145C67.0195 108.115 67.0978 108.087 67.1978 108.06C67.3011 108.03 67.4095 108.015 67.5228 108.015C67.7228 108.015 67.9028 108.053 68.0628 108.13C68.2228 108.203 68.3495 108.313 68.4428 108.46C68.5395 108.603 68.5878 108.782 68.5878 108.995C68.5878 109.188 68.5428 109.362 68.4528 109.515C68.3661 109.668 68.2378 109.79 68.0678 109.88C67.9011 109.967 67.6961 110.01 67.4528 110.01C67.2628 110.01 67.0961 109.988 66.9528 109.945C66.8095 109.902 66.6978 109.848 66.6178 109.785C66.5378 109.722 66.4978 109.66 66.4978 109.6C66.4978 109.547 66.5145 109.5 66.5478 109.46C66.5845 109.42 66.6211 109.393 66.6578 109.38C66.7311 109.443 66.8345 109.508 66.9678 109.575C67.1011 109.642 67.2628 109.675 67.4528 109.675C67.6828 109.675 67.8611 109.612 67.9878 109.485C68.1145 109.355 68.1778 109.192 68.1778 108.995C68.1778 108.792 68.1128 108.633 67.9828 108.52C67.8528 108.407 67.6828 108.35 67.4728 108.35C67.3561 108.35 67.2495 108.368 67.1528 108.405C67.0561 108.442 66.9661 108.483 66.8828 108.53C66.7928 108.523 66.7195 108.497 66.6628 108.45C66.6095 108.4 66.5828 108.337 66.5828 108.26C66.5828 108.24 66.5828 108.215 66.5828 108.185C66.5861 108.152 66.5895 108.12 66.5928 108.09L66.6778 107.135C66.6845 107.065 66.7061 107.01 66.7428 106.97C66.7795 106.927 66.8328 106.905 66.9028 106.905H67.1828ZM66.9728 107.245V106.905H68.4328C68.4428 106.918 68.4528 106.94 68.4628 106.97C68.4728 107 68.4778 107.032 68.4778 107.065C68.4778 107.118 68.4645 107.162 68.4378 107.195C68.4111 107.228 68.3728 107.245 68.3228 107.245H66.9728Z" fill="#A73C4C"/>
<path d="M62.2893 111.905L62.1543 112.2L62.0693 113.145C62.1259 113.115 62.2043 113.087 62.3043 113.06C62.4076 113.03 62.5159 113.015 62.6293 113.015C62.8293 113.015 63.0093 113.053 63.1693 113.13C63.3293 113.203 63.4559 113.313 63.5493 113.46C63.6459 113.603 63.6943 113.782 63.6943 113.995C63.6943 114.188 63.6493 114.362 63.5593 114.515C63.4726 114.668 63.3443 114.79 63.1743 114.88C63.0076 114.967 62.8026 115.01 62.5593 115.01C62.3693 115.01 62.2026 114.988 62.0593 114.945C61.9159 114.902 61.8043 114.848 61.7243 114.785C61.6443 114.722 61.6043 114.66 61.6043 114.6C61.6043 114.547 61.6209 114.5 61.6543 114.46C61.6909 114.42 61.7276 114.393 61.7643 114.38C61.8376 114.443 61.9409 114.508 62.0743 114.575C62.2076 114.642 62.3693 114.675 62.5593 114.675C62.7893 114.675 62.9676 114.612 63.0943 114.485C63.2209 114.355 63.2843 114.192 63.2843 113.995C63.2843 113.792 63.2193 113.633 63.0893 113.52C62.9593 113.407 62.7893 113.35 62.5793 113.35C62.4626 113.35 62.3559 113.368 62.2593 113.405C62.1626 113.442 62.0726 113.483 61.9893 113.53C61.8993 113.523 61.8259 113.497 61.7693 113.45C61.7159 113.4 61.6893 113.337 61.6893 113.26C61.6893 113.24 61.6893 113.215 61.6893 113.185C61.6926 113.152 61.6959 113.12 61.6993 113.09L61.7843 112.135C61.7909 112.065 61.8126 112.01 61.8493 111.97C61.8859 111.927 61.9393 111.905 62.0093 111.905H62.2893ZM62.0793 112.245V111.905H63.5393C63.5493 111.918 63.5593 111.94 63.5693 111.97C63.5793 112 63.5843 112.032 63.5843 112.065C63.5843 112.118 63.5709 112.162 63.5443 112.195C63.5176 112.228 63.4793 112.245 63.4293 112.245H62.0793ZM65.2297 113.825H64.8247V112.295L64.1847 112.595C64.1414 112.578 64.1047 112.553 64.0747 112.52C64.048 112.487 64.0347 112.445 64.0347 112.395C64.0347 112.298 64.0947 112.225 64.2147 112.175L64.9147 111.87H65.0097C65.0764 111.87 65.1297 111.89 65.1697 111.93C65.2097 111.97 65.2297 112.023 65.2297 112.09V113.825ZM64.8247 113.625H65.2297V114.95C65.2097 114.957 65.183 114.963 65.1497 114.97C65.1164 114.98 65.0797 114.985 65.0397 114.985C64.9697 114.985 64.9164 114.97 64.8797 114.94C64.843 114.91 64.8247 114.863 64.8247 114.8V113.625ZM68.0511 112.14C68.0511 112.18 68.0394 112.218 68.0161 112.255C67.9961 112.288 67.9694 112.313 67.9361 112.33C67.8628 112.293 67.7794 112.262 67.6861 112.235C67.5961 112.205 67.4978 112.19 67.3911 112.19C67.1311 112.19 66.9111 112.283 66.7311 112.47C66.5544 112.657 66.4611 112.948 66.4511 113.345C66.5178 113.278 66.6194 113.208 66.7561 113.135C66.8961 113.058 67.0678 113.02 67.2711 113.02C67.5644 113.02 67.8061 113.103 67.9961 113.27C68.1861 113.437 68.2811 113.683 68.2811 114.01C68.2811 114.217 68.2361 114.395 68.1461 114.545C68.0594 114.695 67.9361 114.81 67.7761 114.89C67.6194 114.97 67.4328 115.01 67.2161 115.01C66.9928 115.01 66.7928 114.96 66.6161 114.86C66.4394 114.757 66.2994 114.597 66.1961 114.38C66.0961 114.16 66.0461 113.873 66.0461 113.52C66.0461 113.207 66.0828 112.943 66.1561 112.73C66.2328 112.513 66.3344 112.342 66.4611 112.215C66.5878 112.085 66.7311 111.992 66.8911 111.935C67.0511 111.875 67.2144 111.845 67.3811 111.845C67.4978 111.845 67.6061 111.857 67.7061 111.88C67.8094 111.903 67.8928 111.937 67.9561 111.98C68.0194 112.023 68.0511 112.077 68.0511 112.14ZM67.2161 114.675C67.4094 114.675 67.5678 114.617 67.6911 114.5C67.8144 114.38 67.8761 114.213 67.8761 114C67.8761 113.783 67.8128 113.623 67.6861 113.52C67.5628 113.413 67.4094 113.36 67.2261 113.36C67.0428 113.36 66.8844 113.4 66.7511 113.48C66.6178 113.557 66.5128 113.65 66.4361 113.76L66.4511 113.725C66.4511 114.008 66.5178 114.238 66.6511 114.415C66.7844 114.588 66.9728 114.675 67.2161 114.675Z" fill="#A73C4C"/>
<path d="M100.289 122.905L100.154 123.2L100.069 124.145C100.126 124.115 100.204 124.087 100.304 124.06C100.408 124.03 100.516 124.015 100.629 124.015C100.829 124.015 101.009 124.053 101.169 124.13C101.329 124.203 101.456 124.313 101.549 124.46C101.646 124.603 101.694 124.782 101.694 124.995C101.694 125.188 101.649 125.362 101.559 125.515C101.473 125.668 101.344 125.79 101.174 125.88C101.008 125.967 100.803 126.01 100.559 126.01C100.369 126.01 100.203 125.988 100.059 125.945C99.916 125.902 99.8043 125.848 99.7243 125.785C99.6443 125.722 99.6043 125.66 99.6043 125.6C99.6043 125.547 99.621 125.5 99.6543 125.46C99.691 125.42 99.7276 125.393 99.7643 125.38C99.8376 125.443 99.941 125.508 100.074 125.575C100.208 125.642 100.369 125.675 100.559 125.675C100.789 125.675 100.968 125.612 101.094 125.485C101.221 125.355 101.284 125.192 101.284 124.995C101.284 124.792 101.219 124.633 101.089 124.52C100.959 124.407 100.789 124.35 100.579 124.35C100.463 124.35 100.356 124.368 100.259 124.405C100.163 124.442 100.073 124.483 99.9893 124.53C99.8993 124.523 99.826 124.497 99.7693 124.45C99.716 124.4 99.6893 124.337 99.6893 124.26C99.6893 124.24 99.6893 124.215 99.6893 124.185C99.6926 124.152 99.696 124.12 99.6993 124.09L99.7843 123.135C99.791 123.065 99.8126 123.01 99.8493 122.97C99.886 122.927 99.9393 122.905 100.009 122.905H100.289ZM100.079 123.245V122.905H101.539C101.549 122.918 101.559 122.94 101.569 122.97C101.579 123 101.584 123.032 101.584 123.065C101.584 123.118 101.571 123.162 101.544 123.195C101.518 123.228 101.479 123.245 101.429 123.245H100.079ZM103.23 124.825H102.825V123.295L102.185 123.595C102.141 123.578 102.105 123.553 102.075 123.52C102.048 123.487 102.035 123.445 102.035 123.395C102.035 123.298 102.095 123.225 102.215 123.175L102.915 122.87H103.01C103.076 122.87 103.13 122.89 103.17 122.93C103.21 122.97 103.23 123.023 103.23 123.09V124.825ZM102.825 124.625H103.23V125.95C103.21 125.957 103.183 125.963 103.15 125.97C103.116 125.98 103.08 125.985 103.04 125.985C102.97 125.985 102.916 125.97 102.88 125.94C102.843 125.91 102.825 125.863 102.825 125.8V124.625ZM105.202 126.01C104.968 126.01 104.762 125.953 104.582 125.84C104.405 125.723 104.267 125.548 104.167 125.315C104.067 125.078 104.017 124.782 104.017 124.425C104.017 124.042 104.073 123.735 104.187 123.505C104.3 123.275 104.447 123.108 104.627 123.005C104.807 122.898 104.998 122.845 105.202 122.845C105.408 122.845 105.602 122.898 105.782 123.005C105.965 123.112 106.112 123.282 106.222 123.515C106.335 123.745 106.392 124.048 106.392 124.425C106.392 124.778 106.342 125.073 106.242 125.31C106.142 125.543 106.002 125.718 105.822 125.835C105.645 125.952 105.438 126.01 105.202 126.01ZM105.202 125.67C105.448 125.67 105.64 125.563 105.777 125.35C105.913 125.133 105.982 124.825 105.982 124.425C105.982 124.128 105.945 123.89 105.872 123.71C105.802 123.527 105.708 123.393 105.592 123.31C105.475 123.227 105.345 123.185 105.202 123.185C105.062 123.185 104.932 123.228 104.812 123.315C104.695 123.398 104.602 123.532 104.532 123.715C104.462 123.898 104.427 124.135 104.427 124.425C104.427 124.825 104.495 125.133 104.632 125.35C104.768 125.563 104.958 125.67 105.202 125.67Z" fill="#A73C4C"/>
<path d="M63.2893 131.905L63.1543 132.2L63.0693 133.145C63.1259 133.115 63.2043 133.087 63.3043 133.06C63.4076 133.03 63.5159 133.015 63.6293 133.015C63.8293 133.015 64.0093 133.053 64.1693 133.13C64.3293 133.203 64.4559 133.313 64.5493 133.46C64.6459 133.603 64.6943 133.782 64.6943 133.995C64.6943 134.188 64.6493 134.362 64.5593 134.515C64.4726 134.668 64.3443 134.79 64.1743 134.88C64.0076 134.967 63.8026 135.01 63.5593 135.01C63.3693 135.01 63.2026 134.988 63.0593 134.945C62.9159 134.902 62.8043 134.848 62.7243 134.785C62.6443 134.722 62.6043 134.66 62.6043 134.6C62.6043 134.547 62.6209 134.5 62.6543 134.46C62.6909 134.42 62.7276 134.393 62.7643 134.38C62.8376 134.443 62.9409 134.508 63.0743 134.575C63.2076 134.642 63.3693 134.675 63.5593 134.675C63.7893 134.675 63.9676 134.612 64.0943 134.485C64.2209 134.355 64.2843 134.192 64.2843 133.995C64.2843 133.792 64.2193 133.633 64.0893 133.52C63.9593 133.407 63.7893 133.35 63.5793 133.35C63.4626 133.35 63.3559 133.368 63.2593 133.405C63.1626 133.442 63.0726 133.483 62.9893 133.53C62.8993 133.523 62.8259 133.497 62.7693 133.45C62.7159 133.4 62.6893 133.337 62.6893 133.26C62.6893 133.24 62.6893 133.215 62.6893 133.185C62.6926 133.152 62.6959 133.12 62.6993 133.09L62.7843 132.135C62.7909 132.065 62.8126 132.01 62.8493 131.97C62.8859 131.927 62.9393 131.905 63.0093 131.905H63.2893ZM63.0793 132.245V131.905H64.5393C64.5493 131.918 64.5593 131.94 64.5693 131.97C64.5793 132 64.5843 132.032 64.5843 132.065C64.5843 132.118 64.5709 132.162 64.5443 132.195C64.5176 132.228 64.4793 132.245 64.4293 132.245H63.0793ZM66.2297 133.825H65.8247V132.295L65.1847 132.595C65.1414 132.578 65.1047 132.553 65.0747 132.52C65.048 132.487 65.0347 132.445 65.0347 132.395C65.0347 132.298 65.0947 132.225 65.2147 132.175L65.9147 131.87H66.0097C66.0764 131.87 66.1297 131.89 66.1697 131.93C66.2097 131.97 66.2297 132.023 66.2297 132.09V133.825ZM65.8247 133.625H66.2297V134.95C66.2097 134.957 66.183 134.963 66.1497 134.97C66.1164 134.98 66.0797 134.985 66.0397 134.985C65.9697 134.985 65.9164 134.97 65.8797 134.94C65.843 134.91 65.8247 134.863 65.8247 134.8V133.625ZM67.8562 131.84C68.1729 131.84 68.4279 131.91 68.6212 132.05C68.8179 132.187 68.9162 132.393 68.9162 132.67C68.9162 132.803 68.8879 132.918 68.8312 133.015C68.7779 133.108 68.7129 133.182 68.6362 133.235C68.5629 133.288 68.4962 133.323 68.4362 133.34C68.5262 133.367 68.6145 133.413 68.7012 133.48C68.7879 133.543 68.8595 133.627 68.9162 133.73C68.9762 133.83 69.0062 133.952 69.0062 134.095C69.0062 134.295 68.9579 134.462 68.8612 134.595C68.7645 134.728 68.6312 134.83 68.4612 134.9C68.2912 134.967 68.0945 135 67.8712 135C67.6879 135 67.5245 134.982 67.3812 134.945C67.2412 134.905 67.1312 134.855 67.0512 134.795C66.9712 134.735 66.9312 134.672 66.9312 134.605C66.9312 134.558 66.9429 134.518 66.9662 134.485C66.9929 134.452 67.0262 134.423 67.0662 134.4C67.1529 134.467 67.2579 134.527 67.3812 134.58C67.5079 134.633 67.6712 134.66 67.8712 134.66C68.0912 134.66 68.2695 134.613 68.4062 134.52C68.5429 134.423 68.6112 134.278 68.6112 134.085C68.6112 133.915 68.5479 133.778 68.4212 133.675C68.2945 133.572 68.1112 133.52 67.8712 133.52H67.4562C67.4429 133.503 67.4312 133.48 67.4212 133.45C67.4112 133.417 67.4062 133.383 67.4062 133.35C67.4062 133.313 67.4112 133.28 67.4212 133.25C67.4312 133.22 67.4429 133.197 67.4562 133.18H67.8362C68.0829 133.18 68.2579 133.135 68.3612 133.045C68.4679 132.952 68.5212 132.83 68.5212 132.68C68.5212 132.517 68.4612 132.393 68.3412 132.31C68.2212 132.223 68.0579 132.18 67.8512 132.18C67.6912 132.18 67.5495 132.205 67.4262 132.255C67.3062 132.302 67.2062 132.353 67.1262 132.41C67.0929 132.393 67.0629 132.367 67.0362 132.33C67.0095 132.293 66.9962 132.253 66.9962 132.21C66.9962 132.15 67.0345 132.092 67.1112 132.035C67.1879 131.978 67.2912 131.932 67.4212 131.895C67.5512 131.858 67.6962 131.84 67.8562 131.84Z" fill="#A73C4C"/>
<path d="M82.2893 136.905L82.1543 137.2L82.0693 138.145C82.126 138.115 82.2043 138.087 82.3043 138.06C82.4076 138.03 82.516 138.015 82.6293 138.015C82.8293 138.015 83.0093 138.053 83.1693 138.13C83.3293 138.203 83.456 138.313 83.5493 138.46C83.646 138.603 83.6943 138.782 83.6943 138.995C83.6943 139.188 83.6493 139.362 83.5593 139.515C83.4726 139.668 83.3443 139.79 83.1743 139.88C83.0076 139.967 82.8026 140.01 82.5593 140.01C82.3693 140.01 82.2026 139.988 82.0593 139.945C81.916 139.902 81.8043 139.848 81.7243 139.785C81.6443 139.722 81.6043 139.66 81.6043 139.6C81.6043 139.547 81.621 139.5 81.6543 139.46C81.691 139.42 81.7276 139.393 81.7643 139.38C81.8376 139.443 81.941 139.508 82.0743 139.575C82.2076 139.642 82.3693 139.675 82.5593 139.675C82.7893 139.675 82.9676 139.612 83.0943 139.485C83.221 139.355 83.2843 139.192 83.2843 138.995C83.2843 138.792 83.2193 138.633 83.0893 138.52C82.9593 138.407 82.7893 138.35 82.5793 138.35C82.4626 138.35 82.356 138.368 82.2593 138.405C82.1626 138.442 82.0726 138.483 81.9893 138.53C81.8993 138.523 81.826 138.497 81.7693 138.45C81.716 138.4 81.6893 138.337 81.6893 138.26C81.6893 138.24 81.6893 138.215 81.6893 138.185C81.6926 138.152 81.696 138.12 81.6993 138.09L81.7843 137.135C81.791 137.065 81.8126 137.01 81.8493 136.97C81.886 136.927 81.9393 136.905 82.0093 136.905H82.2893ZM82.0793 137.245V136.905H83.5393C83.5493 136.918 83.5593 136.94 83.5693 136.97C83.5793 137 83.5843 137.032 83.5843 137.065C83.5843 137.118 83.571 137.162 83.5443 137.195C83.5176 137.228 83.4793 137.245 83.4293 137.245H82.0793ZM85.2297 138.825H84.8247V137.295L84.1847 137.595C84.1414 137.578 84.1047 137.553 84.0747 137.52C84.0481 137.487 84.0347 137.445 84.0347 137.395C84.0347 137.298 84.0947 137.225 84.2147 137.175L84.9147 136.87H85.0097C85.0764 136.87 85.1297 136.89 85.1697 136.93C85.2097 136.97 85.2297 137.023 85.2297 137.09V138.825ZM84.8247 138.625H85.2297V139.95C85.2097 139.957 85.1831 139.963 85.1497 139.97C85.1164 139.98 85.0797 139.985 85.0397 139.985C84.9697 139.985 84.9164 139.97 84.8797 139.94C84.8431 139.91 84.8247 139.863 84.8247 139.8V138.625ZM87.0412 138.825H86.6362V137.295L85.9962 137.595C85.9529 137.578 85.9162 137.553 85.8862 137.52C85.8596 137.487 85.8462 137.445 85.8462 137.395C85.8462 137.298 85.9062 137.225 86.0262 137.175L86.7262 136.87H86.8212C86.8879 136.87 86.9412 136.89 86.9812 136.93C87.0212 136.97 87.0412 137.023 87.0412 137.09V138.825ZM86.6362 138.625H87.0412V139.95C87.0212 139.957 86.9946 139.963 86.9612 139.97C86.9279 139.98 86.8912 139.985 86.8512 139.985C86.7812 139.985 86.7279 139.97 86.6912 139.94C86.6546 139.91 86.6362 139.863 86.6362 139.8V138.625Z" fill="#A73C4C"/>
<path d="M62.0853 140.513L61.9773 140.749L61.9093 141.505C61.9546 141.481 62.0173 141.458 62.0973 141.437C62.1799 141.413 62.2666 141.401 62.3573 141.401C62.5173 141.401 62.6613 141.432 62.7893 141.493C62.9173 141.552 63.0186 141.64 63.0933 141.757C63.1706 141.872 63.2093 142.014 63.2093 142.185C63.2093 142.34 63.1733 142.478 63.1013 142.601C63.0319 142.724 62.9293 142.821 62.7933 142.893C62.6599 142.962 62.4959 142.997 62.3013 142.997C62.1493 142.997 62.0159 142.98 61.9013 142.945C61.7866 142.91 61.6973 142.868 61.6333 142.817C61.5693 142.766 61.5373 142.717 61.5373 142.669C61.5373 142.626 61.5506 142.589 61.5773 142.557C61.6066 142.525 61.6359 142.504 61.6653 142.493C61.7239 142.544 61.8066 142.596 61.9133 142.649C62.0199 142.702 62.1493 142.729 62.3013 142.729C62.4853 142.729 62.6279 142.678 62.7293 142.577C62.8306 142.473 62.8813 142.342 62.8813 142.185C62.8813 142.022 62.8293 141.896 62.7253 141.805C62.6213 141.714 62.4853 141.669 62.3173 141.669C62.2239 141.669 62.1386 141.684 62.0613 141.713C61.9839 141.742 61.9119 141.776 61.8453 141.813C61.7733 141.808 61.7146 141.786 61.6693 141.749C61.6266 141.709 61.6053 141.658 61.6053 141.597C61.6053 141.581 61.6053 141.561 61.6053 141.537C61.6079 141.51 61.6106 141.485 61.6133 141.461L61.6813 140.697C61.6866 140.641 61.7039 140.597 61.7333 140.565C61.7626 140.53 61.8053 140.513 61.8613 140.513H62.0853ZM61.9173 140.785V140.513H63.0853C63.0933 140.524 63.1013 140.541 63.1093 140.565C63.1173 140.589 63.1213 140.614 63.1213 140.641C63.1213 140.684 63.1106 140.718 63.0893 140.745C63.0679 140.772 63.0373 140.785 62.9973 140.785H61.9173ZM64.4376 142.049H64.1136V140.825L63.6016 141.065C63.5669 141.052 63.5376 141.032 63.5136 141.005C63.4923 140.978 63.4816 140.945 63.4816 140.905C63.4816 140.828 63.5296 140.769 63.6256 140.729L64.1856 140.485H64.2616C64.3149 140.485 64.3576 140.501 64.3896 140.533C64.4216 140.565 64.4376 140.608 64.4376 140.661V142.049ZM64.1136 141.889H64.4376V142.949C64.4216 142.954 64.4003 142.96 64.3736 142.965C64.3469 142.973 64.3176 142.977 64.2856 142.977C64.2296 142.977 64.1869 142.965 64.1576 142.941C64.1283 142.917 64.1136 142.88 64.1136 142.829V141.889ZM64.9988 142.053L66.1628 140.509C66.1868 140.504 66.2135 140.5 66.2428 140.497C66.2748 140.492 66.3028 140.489 66.3268 140.489C66.3642 140.489 66.3988 140.494 66.4308 140.505C66.4655 140.516 66.4935 140.536 66.5148 140.565C66.5362 140.592 66.5468 140.632 66.5468 140.685V142.085H66.9468C66.9548 142.098 66.9628 142.117 66.9708 142.141C66.9788 142.162 66.9828 142.188 66.9828 142.217C66.9828 142.26 66.9722 142.293 66.9508 142.317C66.9295 142.341 66.8988 142.353 66.8588 142.353H66.5468V142.953C66.5335 142.956 66.5135 142.96 66.4868 142.965C66.4628 142.973 66.4362 142.977 66.4068 142.977C66.3508 142.977 66.3082 142.965 66.2788 142.941C66.2495 142.917 66.2348 142.882 66.2348 142.837V142.353H65.0788C65.0522 142.34 65.0282 142.316 65.0068 142.281C64.9882 142.246 64.9788 142.208 64.9788 142.165C64.9788 142.141 64.9802 142.121 64.9828 142.105C64.9882 142.086 64.9935 142.069 64.9988 142.053ZM66.2388 142.085L66.2468 140.825H66.2388L65.3508 142.085H66.2388Z" fill="#A73C4C"/>
<path d="M72.2893 157.905L72.1543 158.2L72.0693 159.145C72.1259 159.115 72.2043 159.087 72.3043 159.06C72.4076 159.03 72.5159 159.015 72.6293 159.015C72.8293 159.015 73.0093 159.053 73.1693 159.13C73.3293 159.203 73.4559 159.313 73.5493 159.46C73.6459 159.603 73.6943 159.782 73.6943 159.995C73.6943 160.188 73.6493 160.362 73.5593 160.515C73.4726 160.668 73.3443 160.79 73.1743 160.88C73.0076 160.967 72.8026 161.01 72.5593 161.01C72.3693 161.01 72.2026 160.988 72.0593 160.945C71.9159 160.902 71.8043 160.848 71.7243 160.785C71.6443 160.722 71.6043 160.66 71.6043 160.6C71.6043 160.547 71.6209 160.5 71.6543 160.46C71.6909 160.42 71.7276 160.393 71.7643 160.38C71.8376 160.443 71.9409 160.508 72.0743 160.575C72.2076 160.642 72.3693 160.675 72.5593 160.675C72.7893 160.675 72.9676 160.612 73.0943 160.485C73.2209 160.355 73.2843 160.192 73.2843 159.995C73.2843 159.792 73.2193 159.633 73.0893 159.52C72.9593 159.407 72.7893 159.35 72.5793 159.35C72.4626 159.35 72.3559 159.368 72.2593 159.405C72.1626 159.442 72.0726 159.483 71.9893 159.53C71.8993 159.523 71.8259 159.497 71.7693 159.45C71.7159 159.4 71.6893 159.337 71.6893 159.26C71.6893 159.24 71.6893 159.215 71.6893 159.185C71.6926 159.152 71.6959 159.12 71.6993 159.09L71.7843 158.135C71.7909 158.065 71.8126 158.01 71.8493 157.97C71.8859 157.927 71.9393 157.905 72.0093 157.905H72.2893ZM72.0793 158.245V157.905H73.5393C73.5493 157.918 73.5593 157.94 73.5693 157.97C73.5793 158 73.5843 158.032 73.5843 158.065C73.5843 158.118 73.5709 158.162 73.5443 158.195C73.5176 158.228 73.4793 158.245 73.4293 158.245H72.0793ZM75.2297 159.825H74.8247V158.295L74.1847 158.595C74.1414 158.578 74.1047 158.553 74.0747 158.52C74.048 158.487 74.0347 158.445 74.0347 158.395C74.0347 158.298 74.0947 158.225 74.2147 158.175L74.9147 157.87H75.0097C75.0764 157.87 75.1297 157.89 75.1697 157.93C75.2097 157.97 75.2297 158.023 75.2297 158.09V159.825ZM74.8247 159.625H75.2297V160.95C75.2097 160.957 75.183 160.963 75.1497 160.97C75.1164 160.98 75.0797 160.985 75.0397 160.985C74.9697 160.985 74.9164 160.97 74.8797 160.94C74.843 160.91 74.8247 160.863 74.8247 160.8V159.625ZM76.0806 158.22C76.0806 158.16 76.119 158.102 76.1956 158.045C76.2723 157.985 76.3756 157.937 76.5056 157.9C76.6356 157.863 76.7773 157.845 76.9306 157.845C77.144 157.845 77.3273 157.882 77.4806 157.955C77.634 158.025 77.7523 158.125 77.8356 158.255C77.919 158.385 77.9606 158.538 77.9606 158.715C77.9606 158.898 77.909 159.078 77.8056 159.255C77.7056 159.432 77.5323 159.633 77.2856 159.86L76.4706 160.615H77.9556C77.969 160.628 77.9806 160.65 77.9906 160.68C78.0006 160.707 78.0056 160.738 78.0056 160.775C78.0056 160.828 77.9906 160.87 77.9606 160.9C77.934 160.93 77.8973 160.945 77.8506 160.945H76.0856C76.0523 160.922 76.0273 160.893 76.0106 160.86C75.994 160.823 75.9856 160.785 75.9856 160.745C75.9856 160.692 75.9956 160.645 76.0156 160.605C76.0356 160.562 76.0656 160.522 76.1056 160.485L77.0056 159.62C77.2123 159.427 77.354 159.265 77.4306 159.135C77.5073 159.002 77.5456 158.863 77.5456 158.72C77.5456 158.563 77.4923 158.435 77.3856 158.335C77.279 158.235 77.1173 158.185 76.9006 158.185C76.754 158.185 76.6223 158.21 76.5056 158.26C76.3923 158.31 76.2973 158.363 76.2206 158.42C76.184 158.403 76.1506 158.378 76.1206 158.345C76.094 158.312 76.0806 158.27 76.0806 158.22Z" fill="#A73C4C"/>
<path d="M95.2893 196.905L95.1543 197.2L95.0693 198.145C95.126 198.115 95.2043 198.087 95.3043 198.06C95.4076 198.03 95.516 198.015 95.6293 198.015C95.8293 198.015 96.0093 198.053 96.1693 198.13C96.3293 198.203 96.456 198.313 96.5493 198.46C96.646 198.603 96.6943 198.782 96.6943 198.995C96.6943 199.188 96.6493 199.362 96.5593 199.515C96.4726 199.668 96.3443 199.79 96.1743 199.88C96.0076 199.967 95.8026 200.01 95.5593 200.01C95.3693 200.01 95.2026 199.988 95.0593 199.945C94.916 199.902 94.8043 199.848 94.7243 199.785C94.6443 199.722 94.6043 199.66 94.6043 199.6C94.6043 199.547 94.621 199.5 94.6543 199.46C94.691 199.42 94.7276 199.393 94.7643 199.38C94.8376 199.443 94.941 199.508 95.0743 199.575C95.2076 199.642 95.3693 199.675 95.5593 199.675C95.7893 199.675 95.9676 199.612 96.0943 199.485C96.221 199.355 96.2843 199.192 96.2843 198.995C96.2843 198.792 96.2193 198.633 96.0893 198.52C95.9593 198.407 95.7893 198.35 95.5793 198.35C95.4626 198.35 95.356 198.368 95.2593 198.405C95.1626 198.442 95.0726 198.483 94.9893 198.53C94.8993 198.523 94.826 198.497 94.7693 198.45C94.716 198.4 94.6893 198.337 94.6893 198.26C94.6893 198.24 94.6893 198.215 94.6893 198.185C94.6926 198.152 94.696 198.12 94.6993 198.09L94.7843 197.135C94.791 197.065 94.8126 197.01 94.8493 196.97C94.886 196.927 94.9393 196.905 95.0093 196.905H95.2893ZM95.0793 197.245V196.905H96.5393C96.5493 196.918 96.5593 196.94 96.5693 196.97C96.5793 197 96.5843 197.032 96.5843 197.065C96.5843 197.118 96.571 197.162 96.5443 197.195C96.5176 197.228 96.4793 197.245 96.4293 197.245H95.0793ZM97.2838 197.22C97.2838 197.16 97.3221 197.102 97.3988 197.045C97.4754 196.985 97.5788 196.937 97.7088 196.9C97.8388 196.863 97.9804 196.845 98.1338 196.845C98.3471 196.845 98.5304 196.882 98.6838 196.955C98.8371 197.025 98.9554 197.125 99.0388 197.255C99.1221 197.385 99.1638 197.538 99.1638 197.715C99.1638 197.898 99.1121 198.078 99.0088 198.255C98.9088 198.432 98.7354 198.633 98.4888 198.86L97.6738 199.615H99.1588C99.1721 199.628 99.1838 199.65 99.1938 199.68C99.2038 199.707 99.2088 199.738 99.2088 199.775C99.2088 199.828 99.1938 199.87 99.1638 199.9C99.1371 199.93 99.1004 199.945 99.0538 199.945H97.2888C97.2554 199.922 97.2304 199.893 97.2138 199.86C97.1971 199.823 97.1888 199.785 97.1888 199.745C97.1888 199.692 97.1988 199.645 97.2188 199.605C97.2388 199.562 97.2688 199.522 97.3088 199.485L98.2088 198.62C98.4154 198.427 98.5571 198.265 98.6338 198.135C98.7104 198.002 98.7488 197.863 98.7488 197.72C98.7488 197.563 98.6954 197.435 98.5888 197.335C98.4821 197.235 98.3204 197.185 98.1038 197.185C97.9571 197.185 97.8254 197.21 97.7088 197.26C97.5954 197.31 97.5004 197.363 97.4238 197.42C97.3871 197.403 97.3538 197.378 97.3238 197.345C97.2971 197.312 97.2838 197.27 97.2838 197.22ZM100.944 200.01C100.711 200.01 100.504 199.953 100.324 199.84C100.147 199.723 100.009 199.548 99.909 199.315C99.809 199.078 99.759 198.782 99.759 198.425C99.759 198.042 99.8157 197.735 99.929 197.505C100.042 197.275 100.189 197.108 100.369 197.005C100.549 196.898 100.741 196.845 100.944 196.845C101.151 196.845 101.344 196.898 101.524 197.005C101.707 197.112 101.854 197.282 101.964 197.515C102.077 197.745 102.134 198.048 102.134 198.425C102.134 198.778 102.084 199.073 101.984 199.31C101.884 199.543 101.744 199.718 101.564 199.835C101.387 199.952 101.181 200.01 100.944 200.01ZM100.944 199.67C101.191 199.67 101.382 199.563 101.519 199.35C101.656 199.133 101.724 198.825 101.724 198.425C101.724 198.128 101.687 197.89 101.614 197.71C101.544 197.527 101.451 197.393 101.334 197.31C101.217 197.227 101.087 197.185 100.944 197.185C100.804 197.185 100.674 197.228 100.554 197.315C100.437 197.398 100.344 197.532 100.274 197.715C100.204 197.898 100.169 198.135 100.169 198.425C100.169 198.825 100.237 199.133 100.374 199.35C100.511 199.563 100.701 199.67 100.944 199.67Z" fill="#A73C4C"/>
<path d="M61.0853 176.513L60.9773 176.749L60.9093 177.505C60.9546 177.481 61.0173 177.458 61.0973 177.437C61.1799 177.413 61.2666 177.401 61.3573 177.401C61.5173 177.401 61.6613 177.432 61.7893 177.493C61.9173 177.552 62.0186 177.64 62.0933 177.757C62.1706 177.872 62.2093 178.014 62.2093 178.185C62.2093 178.34 62.1733 178.478 62.1013 178.601C62.0319 178.724 61.9293 178.821 61.7933 178.893C61.6599 178.962 61.4959 178.997 61.3013 178.997C61.1493 178.997 61.0159 178.98 60.9013 178.945C60.7866 178.91 60.6973 178.868 60.6333 178.817C60.5693 178.766 60.5373 178.717 60.5373 178.669C60.5373 178.626 60.5506 178.589 60.5773 178.557C60.6066 178.525 60.6359 178.504 60.6653 178.493C60.7239 178.544 60.8066 178.596 60.9133 178.649C61.0199 178.702 61.1493 178.729 61.3013 178.729C61.4853 178.729 61.6279 178.678 61.7293 178.577C61.8306 178.473 61.8813 178.342 61.8813 178.185C61.8813 178.022 61.8293 177.896 61.7253 177.805C61.6213 177.714 61.4853 177.669 61.3173 177.669C61.2239 177.669 61.1386 177.684 61.0613 177.713C60.9839 177.742 60.9119 177.776 60.8453 177.813C60.7733 177.808 60.7146 177.786 60.6693 177.749C60.6266 177.709 60.6053 177.658 60.6053 177.597C60.6053 177.581 60.6053 177.561 60.6053 177.537C60.6079 177.51 60.6106 177.485 60.6133 177.461L60.6813 176.697C60.6866 176.641 60.7039 176.597 60.7333 176.565C60.7626 176.53 60.8053 176.513 60.8613 176.513H61.0853ZM60.9173 176.785V176.513H62.0853C62.0933 176.524 62.1013 176.541 62.1093 176.565C62.1173 176.589 62.1213 176.614 62.1213 176.641C62.1213 176.684 62.1106 176.718 62.0893 176.745C62.0679 176.772 62.0373 176.785 61.9973 176.785H60.9173ZM63.4376 178.049H63.1136V176.825L62.6016 177.065C62.5669 177.052 62.5376 177.032 62.5136 177.005C62.4923 176.978 62.4816 176.945 62.4816 176.905C62.4816 176.828 62.5296 176.769 62.6256 176.729L63.1856 176.485H63.2616C63.3149 176.485 63.3576 176.501 63.3896 176.533C63.4216 176.565 63.4376 176.608 63.4376 176.661V178.049ZM63.1136 177.889H63.4376V178.949C63.4216 178.954 63.4003 178.96 63.3736 178.965C63.3469 178.973 63.3176 178.977 63.2856 178.977C63.2296 178.977 63.1869 178.965 63.1576 178.941C63.1283 178.917 63.1136 178.88 63.1136 178.829V177.889ZM64.2027 178.749C64.2027 178.717 64.2107 178.686 64.2267 178.657C64.2454 178.628 64.2681 178.606 64.2947 178.593C64.3454 178.622 64.4107 178.652 64.4907 178.681C64.5734 178.708 64.6707 178.721 64.7827 178.721C64.9214 178.721 65.0481 178.692 65.1627 178.633C65.2774 178.574 65.3694 178.478 65.4387 178.345C65.5081 178.209 65.5427 178.03 65.5427 177.809C65.5187 177.836 65.4787 177.869 65.4227 177.909C65.3694 177.946 65.3014 177.98 65.2187 178.009C65.1361 178.038 65.0401 178.053 64.9307 178.053C64.7814 178.053 64.6414 178.028 64.5107 177.977C64.3801 177.924 64.2747 177.84 64.1947 177.725C64.1174 177.61 64.0787 177.46 64.0787 177.273C64.0787 177.105 64.1161 176.961 64.1907 176.841C64.2654 176.718 64.3667 176.625 64.4947 176.561C64.6227 176.497 64.7654 176.465 64.9227 176.465C65.1067 176.465 65.2694 176.508 65.4107 176.593C65.5521 176.676 65.6627 176.805 65.7427 176.981C65.8254 177.154 65.8667 177.378 65.8667 177.653C65.8667 177.978 65.8214 178.24 65.7307 178.437C65.6401 178.634 65.5134 178.777 65.3507 178.865C65.1907 178.953 65.0027 178.997 64.7867 178.997C64.6267 178.997 64.4894 178.976 64.3747 178.933C64.2601 178.89 64.2027 178.829 64.2027 178.749ZM64.9747 177.785C65.1107 177.785 65.2307 177.752 65.3347 177.685C65.4414 177.616 65.5121 177.54 65.5467 177.457L65.5427 177.501C65.5427 177.264 65.4881 177.077 65.3787 176.941C65.2721 176.802 65.1201 176.733 64.9227 176.733C64.7761 176.733 64.6521 176.781 64.5507 176.877C64.4521 176.97 64.4027 177.1 64.4027 177.265C64.4027 177.449 64.4587 177.582 64.5707 177.665C64.6827 177.745 64.8174 177.785 64.9747 177.785Z" fill="#A73C4C"/>
<path d="M81.2893 198.905L81.1543 199.2L81.0693 200.145C81.126 200.115 81.2043 200.087 81.3043 200.06C81.4076 200.03 81.516 200.015 81.6293 200.015C81.8293 200.015 82.0093 200.053 82.1693 200.13C82.3293 200.203 82.456 200.313 82.5493 200.46C82.646 200.603 82.6943 200.782 82.6943 200.995C82.6943 201.188 82.6493 201.362 82.5593 201.515C82.4726 201.668 82.3443 201.79 82.1743 201.88C82.0076 201.967 81.8026 202.01 81.5593 202.01C81.3693 202.01 81.2026 201.988 81.0593 201.945C80.916 201.902 80.8043 201.848 80.7243 201.785C80.6443 201.722 80.6043 201.66 80.6043 201.6C80.6043 201.547 80.621 201.5 80.6543 201.46C80.691 201.42 80.7276 201.393 80.7643 201.38C80.8376 201.443 80.941 201.508 81.0743 201.575C81.2076 201.642 81.3693 201.675 81.5593 201.675C81.7893 201.675 81.9676 201.612 82.0943 201.485C82.221 201.355 82.2843 201.192 82.2843 200.995C82.2843 200.792 82.2193 200.633 82.0893 200.52C81.9593 200.407 81.7893 200.35 81.5793 200.35C81.4626 200.35 81.356 200.368 81.2593 200.405C81.1626 200.442 81.0726 200.483 80.9893 200.53C80.8993 200.523 80.826 200.497 80.7693 200.45C80.716 200.4 80.6893 200.337 80.6893 200.26C80.6893 200.24 80.6893 200.215 80.6893 200.185C80.6926 200.152 80.696 200.12 80.6993 200.09L80.7843 199.135C80.791 199.065 80.8126 199.01 80.8493 198.97C80.886 198.927 80.9393 198.905 81.0093 198.905H81.2893ZM81.0793 199.245V198.905H82.5393C82.5493 198.918 82.5593 198.94 82.5693 198.97C82.5793 199 82.5843 199.032 82.5843 199.065C82.5843 199.118 82.571 199.162 82.5443 199.195C82.5176 199.228 82.4793 199.245 82.4293 199.245H81.0793ZM83.2838 199.22C83.2838 199.16 83.3221 199.102 83.3988 199.045C83.4754 198.985 83.5788 198.937 83.7088 198.9C83.8388 198.863 83.9804 198.845 84.1338 198.845C84.3471 198.845 84.5304 198.882 84.6838 198.955C84.8371 199.025 84.9554 199.125 85.0388 199.255C85.1221 199.385 85.1638 199.538 85.1638 199.715C85.1638 199.898 85.1121 200.078 85.0088 200.255C84.9088 200.432 84.7354 200.633 84.4888 200.86L83.6738 201.615H85.1588C85.1721 201.628 85.1838 201.65 85.1938 201.68C85.2038 201.707 85.2088 201.738 85.2088 201.775C85.2088 201.828 85.1938 201.87 85.1638 201.9C85.1371 201.93 85.1004 201.945 85.0538 201.945H83.2888C83.2554 201.922 83.2304 201.893 83.2138 201.86C83.1971 201.823 83.1888 201.785 83.1888 201.745C83.1888 201.692 83.1988 201.645 83.2188 201.605C83.2388 201.562 83.2688 201.522 83.3088 201.485L84.2088 200.62C84.4154 200.427 84.5571 200.265 84.6338 200.135C84.7104 200.002 84.7488 199.863 84.7488 199.72C84.7488 199.563 84.6954 199.435 84.5888 199.335C84.4821 199.235 84.3204 199.185 84.1038 199.185C83.9571 199.185 83.8254 199.21 83.7088 199.26C83.5954 199.31 83.5004 199.363 83.4238 199.42C83.3871 199.403 83.3538 199.378 83.3238 199.345C83.2971 199.312 83.2838 199.27 83.2838 199.22ZM86.8078 200.825H86.4028V199.295L85.7628 199.595C85.7195 199.578 85.6828 199.553 85.6528 199.52C85.6262 199.487 85.6128 199.445 85.6128 199.395C85.6128 199.298 85.6728 199.225 85.7928 199.175L86.4928 198.87H86.5878C86.6545 198.87 86.7078 198.89 86.7478 198.93C86.7878 198.97 86.8078 199.023 86.8078 199.09V200.825ZM86.4028 200.625H86.8078V201.95C86.7878 201.957 86.7612 201.963 86.7278 201.97C86.6945 201.98 86.6578 201.985 86.6178 201.985C86.5478 201.985 86.4945 201.97 86.4578 201.94C86.4212 201.91 86.4028 201.863 86.4028 201.8V200.625Z" fill="#A73C4C"/>
<path d="M66.2893 198.905L66.1543 199.2L66.0693 200.145C66.1259 200.115 66.2043 200.087 66.3043 200.06C66.4076 200.03 66.5159 200.015 66.6293 200.015C66.8293 200.015 67.0093 200.053 67.1693 200.13C67.3293 200.203 67.4559 200.313 67.5493 200.46C67.6459 200.603 67.6943 200.782 67.6943 200.995C67.6943 201.188 67.6493 201.362 67.5593 201.515C67.4726 201.668 67.3443 201.79 67.1743 201.88C67.0076 201.967 66.8026 202.01 66.5593 202.01C66.3693 202.01 66.2026 201.988 66.0593 201.945C65.9159 201.902 65.8043 201.848 65.7243 201.785C65.6443 201.722 65.6043 201.66 65.6043 201.6C65.6043 201.547 65.6209 201.5 65.6543 201.46C65.6909 201.42 65.7276 201.393 65.7643 201.38C65.8376 201.443 65.9409 201.508 66.0743 201.575C66.2076 201.642 66.3693 201.675 66.5593 201.675C66.7893 201.675 66.9676 201.612 67.0943 201.485C67.2209 201.355 67.2843 201.192 67.2843 200.995C67.2843 200.792 67.2193 200.633 67.0893 200.52C66.9593 200.407 66.7893 200.35 66.5793 200.35C66.4626 200.35 66.3559 200.368 66.2593 200.405C66.1626 200.442 66.0726 200.483 65.9893 200.53C65.8993 200.523 65.8259 200.497 65.7693 200.45C65.7159 200.4 65.6893 200.337 65.6893 200.26C65.6893 200.24 65.6893 200.215 65.6893 200.185C65.6926 200.152 65.6959 200.12 65.6993 200.09L65.7843 199.135C65.7909 199.065 65.8126 199.01 65.8493 198.97C65.8859 198.927 65.9393 198.905 66.0093 198.905H66.2893ZM66.0793 199.245V198.905H67.5393C67.5493 198.918 67.5593 198.94 67.5693 198.97C67.5793 199 67.5843 199.032 67.5843 199.065C67.5843 199.118 67.5709 199.162 67.5443 199.195C67.5176 199.228 67.4793 199.245 67.4293 199.245H66.0793ZM68.2837 199.22C68.2837 199.16 68.3221 199.102 68.3987 199.045C68.4754 198.985 68.5787 198.937 68.7087 198.9C68.8387 198.863 68.9804 198.845 69.1337 198.845C69.3471 198.845 69.5304 198.882 69.6837 198.955C69.8371 199.025 69.9554 199.125 70.0387 199.255C70.1221 199.385 70.1637 199.538 70.1637 199.715C70.1637 199.898 70.1121 200.078 70.0087 200.255C69.9087 200.432 69.7354 200.633 69.4887 200.86L68.6737 201.615H70.1587C70.1721 201.628 70.1837 201.65 70.1937 201.68C70.2037 201.707 70.2087 201.738 70.2087 201.775C70.2087 201.828 70.1937 201.87 70.1637 201.9C70.1371 201.93 70.1004 201.945 70.0537 201.945H68.2887C68.2554 201.922 68.2304 201.893 68.2137 201.86C68.1971 201.823 68.1887 201.785 68.1887 201.745C68.1887 201.692 68.1987 201.645 68.2187 201.605C68.2387 201.562 68.2687 201.522 68.3087 201.485L69.2087 200.62C69.4154 200.427 69.5571 200.265 69.6337 200.135C69.7104 200.002 69.7487 199.863 69.7487 199.72C69.7487 199.563 69.6954 199.435 69.5887 199.335C69.4821 199.235 69.3204 199.185 69.1037 199.185C68.9571 199.185 68.8254 199.21 68.7087 199.26C68.5954 199.31 68.5004 199.363 68.4237 199.42C68.3871 199.403 68.3537 199.378 68.3237 199.345C68.2971 199.312 68.2837 199.27 68.2837 199.22ZM70.8228 199.22C70.8228 199.16 70.8611 199.102 70.9378 199.045C71.0145 198.985 71.1178 198.937 71.2478 198.9C71.3778 198.863 71.5195 198.845 71.6728 198.845C71.8861 198.845 72.0695 198.882 72.2228 198.955C72.3761 199.025 72.4945 199.125 72.5778 199.255C72.6611 199.385 72.7028 199.538 72.7028 199.715C72.7028 199.898 72.6511 200.078 72.5478 200.255C72.4478 200.432 72.2745 200.633 72.0278 200.86L71.2128 201.615H72.6978C72.7111 201.628 72.7228 201.65 72.7328 201.68C72.7428 201.707 72.7478 201.738 72.7478 201.775C72.7478 201.828 72.7328 201.87 72.7028 201.9C72.6761 201.93 72.6395 201.945 72.5928 201.945H70.8278C70.7945 201.922 70.7695 201.893 70.7528 201.86C70.7361 201.823 70.7278 201.785 70.7278 201.745C70.7278 201.692 70.7378 201.645 70.7578 201.605C70.7778 201.562 70.8078 201.522 70.8478 201.485L71.7478 200.62C71.9545 200.427 72.0961 200.265 72.1728 200.135C72.2495 200.002 72.2878 199.863 72.2878 199.72C72.2878 199.563 72.2345 199.435 72.1278 199.335C72.0211 199.235 71.8595 199.185 71.6428 199.185C71.4961 199.185 71.3645 199.21 71.2478 199.26C71.1345 199.31 71.0395 199.363 70.9628 199.42C70.9261 199.403 70.8928 199.378 70.8628 199.345C70.8361 199.312 70.8228 199.27 70.8228 199.22Z" fill="#A73C4C"/>
</svg>
