<svg width="40" height="117" viewBox="0 0 40 117" fill="none" xmlns="http://www.w3.org/2000/svg">
<path d="M1.25 0.25H39.25V29.25H35.5461V88.0432H39.047V116.552H1.25V0.25Z" fill="white"/>
<path d="M1.25 21.5203V0.25H39.0332V29.1892H35.5531V88.0656H39.0332V116.506H1.25V95.5711" stroke="#A73C4C" stroke-width="0.5"/>
<path d="M1.25 89.5146V27.75" stroke="#A73C4C" stroke-width="0.5"/>
<path d="M1.25 106.651H11.75V105.75M11.75 101.75V97.25M18.25 107.75H17.25V97.25M14.25 116.25V106.849M24.75 116.25V106.651H22.75M22.25 107.75H22.75V103.25M13.75 106.651H14.75M17.25 106.651H16.4683M22.75 99.25V94.75M21.75 97.25H22.75M1.25 97.25H17.9683M13.25 88.0656V84.75M13.25 80.6512V78.25M22.75 90.6512V83.25L22.25 82.75M19.75 80.25L19.25 79.75V67.25M19.25 63.25V35.75L19.75 35.25M22.25 32.75L22.75 32.25V25.75M15.25 40.6512V39.25M15.25 35.25V29.25M22.75 21.6512V19.75L25.75 16.75M25.75 16.75V0.75M25.75 16.75H27.75M31.3488 16.75H38.75M20.75 19.75H22.6512M1.25 19.75H17.1512M1.25 29.25H17.1512M20.75 29.25L35.5531 29.1892M18.5849 40.6512H19.25M1.25 40.6512H15.75M1.25 59.75H19.25M19.25 69.75H35.5531M18.3488 78.25H19.25M1.25 78.25H14.25M1.25 88.0656H16.75M20.8488 88.0656H35.5531" stroke="#A73C4C" stroke-width="0.5"/>
<path d="M1.94232 92.5427H5.04489M5.04489 92.5427L4.19885 91.5396M5.04489 92.5427L4.19873 93.5457" stroke="#A73C4C" stroke-width="0.5" stroke-linecap="round" stroke-linejoin="round"/>
<path d="M3.07051 91.2921V90.3933C3.07051 90.3142 3.00736 90.25 2.92949 90.25H0.391026C0.31314 90.25 0.25 90.3142 0.25 90.3933V94.6921C0.25 94.7712 0.31314 94.8354 0.391026 94.8354H2.92949C3.00736 94.8354 3.07051 94.7712 3.07051 94.6921V93.7932" stroke="#A73C4C" stroke-width="0.5" stroke-linecap="round" stroke-linejoin="round"/>
<path d="M1.94232 24.5427H5.04489M5.04489 24.5427L4.19885 23.5396M5.04489 24.5427L4.19873 25.5457" stroke="#A73C4C" stroke-width="0.5" stroke-linecap="round" stroke-linejoin="round"/>
<path d="M3.07051 23.2921V22.3933C3.07051 22.3142 3.00736 22.25 2.92949 22.25H0.391026C0.31314 22.25 0.25 22.3142 0.25 22.3933V26.6921C0.25 26.7712 0.31314 26.8354 0.391026 26.8354H2.92949C3.00736 26.8354 3.07051 26.7712 3.07051 26.6921V25.7932" stroke="#A73C4C" stroke-width="0.5" stroke-linecap="round" stroke-linejoin="round"/>
<path d="M11.52 10.13H11.115V8.6L10.475 8.9C10.4317 8.88333 10.395 8.85833 10.365 8.825C10.3383 8.79167 10.325 8.75 10.325 8.7C10.325 8.60333 10.385 8.53 10.505 8.48L11.205 8.175H11.3C11.3667 8.175 11.42 8.195 11.46 8.235C11.5 8.275 11.52 8.32833 11.52 8.395V10.13ZM11.115 9.93H11.52V11.255C11.5 11.2617 11.4733 11.2683 11.44 11.275C11.4067 11.285 11.37 11.29 11.33 11.29C11.26 11.29 11.2067 11.275 11.17 11.245C11.1333 11.215 11.115 11.1683 11.115 11.105V9.93ZM13.4921 11.315C13.2588 11.315 13.0521 11.2583 12.8721 11.145C12.6954 11.0283 12.5571 10.8533 12.4571 10.62C12.3571 10.3833 12.3071 10.0867 12.3071 9.73C12.3071 9.34667 12.3638 9.04 12.4771 8.81C12.5904 8.58 12.7371 8.41333 12.9171 8.31C13.0971 8.20333 13.2888 8.15 13.4921 8.15C13.6988 8.15 13.8921 8.20333 14.0721 8.31C14.2554 8.41667 14.4021 8.58667 14.5121 8.82C14.6254 9.05 14.6821 9.35333 14.6821 9.73C14.6821 10.0833 14.6321 10.3783 14.5321 10.615C14.4321 10.8483 14.2921 11.0233 14.1121 11.14C13.9354 11.2567 13.7288 11.315 13.4921 11.315ZM13.4921 10.975C13.7388 10.975 13.9304 10.8683 14.0671 10.655C14.2038 10.4383 14.2721 10.13 14.2721 9.73C14.2721 9.43333 14.2354 9.195 14.1621 9.015C14.0921 8.83167 13.9988 8.69833 13.8821 8.615C13.7654 8.53167 13.6354 8.49 13.4921 8.49C13.3521 8.49 13.2221 8.53333 13.1021 8.62C12.9854 8.70333 12.8921 8.83667 12.8221 9.02C12.7521 9.20333 12.7171 9.44 12.7171 9.73C12.7171 10.13 12.7854 10.4383 12.9221 10.655C13.0588 10.8683 13.2488 10.975 13.4921 10.975ZM15.2323 8.525C15.2323 8.465 15.2706 8.40667 15.3473 8.35C15.4239 8.29 15.5273 8.24167 15.6573 8.205C15.7873 8.16833 15.9289 8.15 16.0823 8.15C16.2956 8.15 16.4789 8.18667 16.6323 8.26C16.7856 8.33 16.9039 8.43 16.9873 8.56C17.0706 8.69 17.1123 8.84333 17.1123 9.02C17.1123 9.20333 17.0606 9.38333 16.9573 9.56C16.8573 9.73667 16.6839 9.93833 16.4373 10.165L15.6223 10.92H17.1073C17.1206 10.9333 17.1323 10.955 17.1423 10.985C17.1523 11.0117 17.1573 11.0433 17.1573 11.08C17.1573 11.1333 17.1423 11.175 17.1123 11.205C17.0856 11.235 17.0489 11.25 17.0023 11.25H15.2373C15.2039 11.2267 15.1789 11.1983 15.1623 11.165C15.1456 11.1283 15.1373 11.09 15.1373 11.05C15.1373 10.9967 15.1473 10.95 15.1673 10.91C15.1873 10.8667 15.2173 10.8267 15.2573 10.79L16.1573 9.925C16.3639 9.73167 16.5056 9.57 16.5823 9.44C16.6589 9.30667 16.6973 9.16833 16.6973 9.025C16.6973 8.86833 16.6439 8.74 16.5373 8.64C16.4306 8.54 16.2689 8.49 16.0523 8.49C15.9056 8.49 15.7739 8.515 15.6573 8.565C15.5439 8.615 15.4489 8.66833 15.3723 8.725C15.3356 8.70833 15.3023 8.68333 15.2723 8.65C15.2456 8.61667 15.2323 8.575 15.2323 8.525Z" fill="#A73C4C"/>
<path d="M29.52 23.13H29.115V21.6L28.475 21.9C28.4317 21.8833 28.395 21.8583 28.365 21.825C28.3383 21.7917 28.325 21.75 28.325 21.7C28.325 21.6033 28.385 21.53 28.505 21.48L29.205 21.175H29.3C29.3667 21.175 29.42 21.195 29.46 21.235C29.5 21.275 29.52 21.3283 29.52 21.395V23.13ZM29.115 22.93H29.52V24.255C29.5 24.2617 29.4733 24.2683 29.44 24.275C29.4067 24.285 29.37 24.29 29.33 24.29C29.26 24.29 29.2067 24.275 29.17 24.245C29.1333 24.215 29.115 24.1683 29.115 24.105V22.93ZM31.4921 24.315C31.2588 24.315 31.0521 24.2583 30.8721 24.145C30.6954 24.0283 30.5571 23.8533 30.4571 23.62C30.3571 23.3833 30.3071 23.0867 30.3071 22.73C30.3071 22.3467 30.3638 22.04 30.4771 21.81C30.5904 21.58 30.7371 21.4133 30.9171 21.31C31.0971 21.2033 31.2888 21.15 31.4921 21.15C31.6988 21.15 31.8921 21.2033 32.0721 21.31C32.2554 21.4167 32.4021 21.5867 32.5121 21.82C32.6254 22.05 32.6821 22.3533 32.6821 22.73C32.6821 23.0833 32.6321 23.3783 32.5321 23.615C32.4321 23.8483 32.2921 24.0233 32.1121 24.14C31.9354 24.2567 31.7288 24.315 31.4921 24.315ZM31.4921 23.975C31.7388 23.975 31.9304 23.8683 32.0671 23.655C32.2038 23.4383 32.2721 23.13 32.2721 22.73C32.2721 22.4333 32.2354 22.195 32.1621 22.015C32.0921 21.8317 31.9988 21.6983 31.8821 21.615C31.7654 21.5317 31.6354 21.49 31.4921 21.49C31.3521 21.49 31.2221 21.5333 31.1021 21.62C30.9854 21.7033 30.8921 21.8367 30.8221 22.02C30.7521 22.2033 30.7171 22.44 30.7171 22.73C30.7171 23.13 30.7854 23.4383 30.9221 23.655C31.0588 23.8683 31.2488 23.975 31.4921 23.975ZM33.9981 21.145C34.3148 21.145 34.5698 21.215 34.7631 21.355C34.9598 21.4917 35.0581 21.6983 35.0581 21.975C35.0581 22.1083 35.0298 22.2233 34.9731 22.32C34.9198 22.4133 34.8548 22.4867 34.7781 22.54C34.7048 22.5933 34.6381 22.6283 34.5781 22.645C34.6681 22.6717 34.7564 22.7183 34.8431 22.785C34.9298 22.8483 35.0014 22.9317 35.0581 23.035C35.1181 23.135 35.1481 23.2567 35.1481 23.4C35.1481 23.6 35.0998 23.7667 35.0031 23.9C34.9064 24.0333 34.7731 24.135 34.6031 24.205C34.4331 24.2717 34.2364 24.305 34.0131 24.305C33.8298 24.305 33.6664 24.2867 33.5231 24.25C33.3831 24.21 33.2731 24.16 33.1931 24.1C33.1131 24.04 33.0731 23.9767 33.0731 23.91C33.0731 23.8633 33.0848 23.8233 33.1081 23.79C33.1348 23.7567 33.1681 23.7283 33.2081 23.705C33.2948 23.7717 33.3998 23.8317 33.5231 23.885C33.6498 23.9383 33.8131 23.965 34.0131 23.965C34.2331 23.965 34.4114 23.9183 34.5481 23.825C34.6848 23.7283 34.7531 23.5833 34.7531 23.39C34.7531 23.22 34.6898 23.0833 34.5631 22.98C34.4364 22.8767 34.2531 22.825 34.0131 22.825H33.5981C33.5848 22.8083 33.5731 22.785 33.5631 22.755C33.5531 22.7217 33.5481 22.6883 33.5481 22.655C33.5481 22.6183 33.5531 22.585 33.5631 22.555C33.5731 22.525 33.5848 22.5017 33.5981 22.485H33.9781C34.2248 22.485 34.3998 22.44 34.5031 22.35C34.6098 22.2567 34.6631 22.135 34.6631 21.985C34.6631 21.8217 34.6031 21.6983 34.4831 21.615C34.3631 21.5283 34.1998 21.485 33.9931 21.485C33.8331 21.485 33.6914 21.51 33.5681 21.56C33.4481 21.6067 33.3481 21.6583 33.2681 21.715C33.2348 21.6983 33.2048 21.6717 33.1781 21.635C33.1514 21.5983 33.1381 21.5583 33.1381 21.515C33.1381 21.455 33.1764 21.3967 33.2531 21.34C33.3298 21.2833 33.4331 21.2367 33.5631 21.2C33.6931 21.1633 33.8381 21.145 33.9981 21.145Z" fill="#A73C4C"/>
<path d="M30.52 9.13H30.115V7.6L29.475 7.9C29.4317 7.88333 29.395 7.85833 29.365 7.825C29.3383 7.79167 29.325 7.75 29.325 7.7C29.325 7.60333 29.385 7.53 29.505 7.48L30.205 7.175H30.3C30.3667 7.175 30.42 7.195 30.46 7.235C30.5 7.275 30.52 7.32833 30.52 7.395V9.13ZM30.115 8.93H30.52V10.255C30.5 10.2617 30.4733 10.2683 30.44 10.275C30.4067 10.285 30.37 10.29 30.33 10.29C30.26 10.29 30.2067 10.275 30.17 10.245C30.1333 10.215 30.115 10.1683 30.115 10.105V8.93ZM32.4921 10.315C32.2588 10.315 32.0521 10.2583 31.8721 10.145C31.6954 10.0283 31.5571 9.85333 31.4571 9.62C31.3571 9.38333 31.3071 9.08667 31.3071 8.73C31.3071 8.34667 31.3638 8.04 31.4771 7.81C31.5904 7.58 31.7371 7.41333 31.9171 7.31C32.0971 7.20333 32.2888 7.15 32.4921 7.15C32.6988 7.15 32.8921 7.20333 33.0721 7.31C33.2554 7.41667 33.4021 7.58667 33.5121 7.82C33.6254 8.05 33.6821 8.35333 33.6821 8.73C33.6821 9.08333 33.6321 9.37833 33.5321 9.615C33.4321 9.84833 33.2921 10.0233 33.1121 10.14C32.9354 10.2567 32.7288 10.315 32.4921 10.315ZM32.4921 9.975C32.7388 9.975 32.9304 9.86833 33.0671 9.655C33.2038 9.43833 33.2721 9.13 33.2721 8.73C33.2721 8.43333 33.2354 8.195 33.1621 8.015C33.0921 7.83167 32.9988 7.69833 32.8821 7.615C32.7654 7.53167 32.6354 7.49 32.4921 7.49C32.3521 7.49 32.2221 7.53333 32.1021 7.62C31.9854 7.70333 31.8921 7.83667 31.8221 8.02C31.7521 8.20333 31.7171 8.44 31.7171 8.73C31.7171 9.13 31.7854 9.43833 31.9221 9.655C32.0588 9.86833 32.2488 9.975 32.4921 9.975ZM35.1733 9.13H34.7683V7.6L34.1283 7.9C34.085 7.88333 34.0483 7.85833 34.0183 7.825C33.9917 7.79167 33.9783 7.75 33.9783 7.7C33.9783 7.60333 34.0383 7.53 34.1583 7.48L34.8583 7.175H34.9533C35.02 7.175 35.0733 7.195 35.1133 7.235C35.1533 7.275 35.1733 7.32833 35.1733 7.395V9.13ZM34.7683 8.93H35.1733V10.255C35.1533 10.2617 35.1267 10.2683 35.0933 10.275C35.06 10.285 35.0233 10.29 34.9833 10.29C34.9133 10.29 34.86 10.275 34.8233 10.245C34.7867 10.215 34.7683 10.1683 34.7683 10.105V8.93Z" fill="#A73C4C"/>
<path d="M5.52 35.13H5.115V33.6L4.475 33.9C4.43167 33.8833 4.395 33.8583 4.365 33.825C4.33833 33.7917 4.325 33.75 4.325 33.7C4.325 33.6033 4.385 33.53 4.505 33.48L5.205 33.175H5.3C5.36667 33.175 5.42 33.195 5.46 33.235C5.5 33.275 5.52 33.3283 5.52 33.395V35.13ZM5.115 34.93H5.52V36.255C5.5 36.2617 5.47333 36.2683 5.44 36.275C5.40667 36.285 5.37 36.29 5.33 36.29C5.26 36.29 5.20667 36.275 5.17 36.245C5.13333 36.215 5.115 36.1683 5.115 36.105V34.93ZM7.49211 36.315C7.25878 36.315 7.05211 36.2583 6.87211 36.145C6.69544 36.0283 6.55711 35.8533 6.45711 35.62C6.35711 35.3833 6.30711 35.0867 6.30711 34.73C6.30711 34.3467 6.36378 34.04 6.47711 33.81C6.59044 33.58 6.73711 33.4133 6.91711 33.31C7.09711 33.2033 7.28878 33.15 7.49211 33.15C7.69878 33.15 7.89211 33.2033 8.07211 33.31C8.25544 33.4167 8.40211 33.5867 8.51211 33.82C8.62544 34.05 8.68211 34.3533 8.68211 34.73C8.68211 35.0833 8.63211 35.3783 8.53211 35.615C8.43211 35.8483 8.29211 36.0233 8.11211 36.14C7.93544 36.2567 7.72878 36.315 7.49211 36.315ZM7.49211 35.975C7.73878 35.975 7.93044 35.8683 8.06711 35.655C8.20378 35.4383 8.27211 35.13 8.27211 34.73C8.27211 34.4333 8.23544 34.195 8.16211 34.015C8.09211 33.8317 7.99878 33.6983 7.88211 33.615C7.76544 33.5317 7.63544 33.49 7.49211 33.49C7.35211 33.49 7.22211 33.5333 7.10211 33.62C6.98544 33.7033 6.89211 33.8367 6.82211 34.02C6.75211 34.2033 6.71711 34.44 6.71711 34.73C6.71711 35.13 6.78544 35.4383 6.92211 35.655C7.05878 35.8683 7.24878 35.975 7.49211 35.975ZM9.13656 35.135L10.5916 33.205C10.6216 33.1983 10.6549 33.1933 10.6916 33.19C10.7316 33.1833 10.7666 33.18 10.7966 33.18C10.8432 33.18 10.8866 33.1867 10.9266 33.2C10.9699 33.2133 11.0049 33.2383 11.0316 33.275C11.0582 33.3083 11.0716 33.3583 11.0716 33.425V35.175H11.5716C11.5816 35.1917 11.5916 35.215 11.6016 35.245C11.6116 35.2717 11.6166 35.3033 11.6166 35.34C11.6166 35.3933 11.6032 35.435 11.5766 35.465C11.5499 35.495 11.5116 35.51 11.4616 35.51H11.0716V36.26C11.0549 36.2633 11.0299 36.2683 10.9966 36.275C10.9666 36.285 10.9332 36.29 10.8966 36.29C10.8266 36.29 10.7732 36.275 10.7366 36.245C10.6999 36.215 10.6816 36.1717 10.6816 36.115V35.51H9.23656C9.20323 35.4933 9.17323 35.4633 9.14656 35.42C9.12323 35.3767 9.11156 35.3283 9.11156 35.275C9.11156 35.245 9.11323 35.22 9.11656 35.2C9.12323 35.1767 9.1299 35.155 9.13656 35.135ZM10.6866 35.175L10.6966 33.6H10.6866L9.57656 35.175H10.6866Z" fill="#A73C4C"/>
<path d="M25.52 49.13H25.115V47.6L24.475 47.9C24.4317 47.8833 24.395 47.8583 24.365 47.825C24.3383 47.7917 24.325 47.75 24.325 47.7C24.325 47.6033 24.385 47.53 24.505 47.48L25.205 47.175H25.3C25.3667 47.175 25.42 47.195 25.46 47.235C25.5 47.275 25.52 47.3283 25.52 47.395V49.13ZM25.115 48.93H25.52V50.255C25.5 50.2617 25.4733 50.2683 25.44 50.275C25.4067 50.285 25.37 50.29 25.33 50.29C25.26 50.29 25.2067 50.275 25.17 50.245C25.1333 50.215 25.115 50.1683 25.115 50.105V48.93ZM27.4921 50.315C27.2588 50.315 27.0521 50.2583 26.8721 50.145C26.6954 50.0283 26.5571 49.8533 26.4571 49.62C26.3571 49.3833 26.3071 49.0867 26.3071 48.73C26.3071 48.3467 26.3638 48.04 26.4771 47.81C26.5904 47.58 26.7371 47.4133 26.9171 47.31C27.0971 47.2033 27.2888 47.15 27.4921 47.15C27.6988 47.15 27.8921 47.2033 28.0721 47.31C28.2554 47.4167 28.4021 47.5867 28.5121 47.82C28.6254 48.05 28.6821 48.3533 28.6821 48.73C28.6821 49.0833 28.6321 49.3783 28.5321 49.615C28.4321 49.8483 28.2921 50.0233 28.1121 50.14C27.9354 50.2567 27.7288 50.315 27.4921 50.315ZM27.4921 49.975C27.7388 49.975 27.9304 49.8683 28.0671 49.655C28.2038 49.4383 28.2721 49.13 28.2721 48.73C28.2721 48.4333 28.2354 48.195 28.1621 48.015C28.0921 47.8317 27.9988 47.6983 27.8821 47.615C27.7654 47.5317 27.6354 47.49 27.4921 47.49C27.3521 47.49 27.2221 47.5333 27.1021 47.62C26.9854 47.7033 26.8921 47.8367 26.8221 48.02C26.7521 48.2033 26.7171 48.44 26.7171 48.73C26.7171 49.13 26.7854 49.4383 26.9221 49.655C27.0588 49.8683 27.2488 49.975 27.4921 49.975ZM29.9721 47.21L29.8371 47.505L29.7521 48.45C29.8088 48.42 29.8871 48.3917 29.9871 48.365C30.0905 48.335 30.1988 48.32 30.3121 48.32C30.5121 48.32 30.6921 48.3583 30.8521 48.435C31.0121 48.5083 31.1388 48.6183 31.2321 48.765C31.3288 48.9083 31.3771 49.0867 31.3771 49.3C31.3771 49.4933 31.3321 49.6667 31.2421 49.82C31.1555 49.9733 31.0271 50.095 30.8571 50.185C30.6905 50.2717 30.4855 50.315 30.2421 50.315C30.0521 50.315 29.8855 50.2933 29.7421 50.25C29.5988 50.2067 29.4871 50.1533 29.4071 50.09C29.3271 50.0267 29.2871 49.965 29.2871 49.905C29.2871 49.8517 29.3038 49.805 29.3371 49.765C29.3738 49.725 29.4105 49.6983 29.4471 49.685C29.5205 49.7483 29.6238 49.8133 29.7571 49.88C29.8905 49.9467 30.0521 49.98 30.2421 49.98C30.4721 49.98 30.6505 49.9167 30.7771 49.79C30.9038 49.66 30.9671 49.4967 30.9671 49.3C30.9671 49.0967 30.9021 48.9383 30.7721 48.825C30.6421 48.7117 30.4721 48.655 30.2621 48.655C30.1455 48.655 30.0388 48.6733 29.9421 48.71C29.8455 48.7467 29.7555 48.7883 29.6721 48.835C29.5821 48.8283 29.5088 48.8017 29.4521 48.755C29.3988 48.705 29.3721 48.6417 29.3721 48.565C29.3721 48.545 29.3721 48.52 29.3721 48.49C29.3755 48.4567 29.3788 48.425 29.3821 48.395L29.4671 47.44C29.4738 47.37 29.4955 47.315 29.5321 47.275C29.5688 47.2317 29.6221 47.21 29.6921 47.21H29.9721ZM29.7621 47.55V47.21H31.2221C31.2321 47.2233 31.2421 47.245 31.2521 47.275C31.2621 47.305 31.2671 47.3367 31.2671 47.37C31.2671 47.4233 31.2538 47.4667 31.2271 47.5C31.2005 47.5333 31.1621 47.55 31.1121 47.55H29.7621Z" fill="#A73C4C"/>
<path d="M8.52 69.13H8.115V67.6L7.475 67.9C7.43167 67.8833 7.395 67.8583 7.365 67.825C7.33833 67.7917 7.325 67.75 7.325 67.7C7.325 67.6033 7.385 67.53 7.505 67.48L8.205 67.175H8.3C8.36667 67.175 8.42 67.195 8.46 67.235C8.5 67.275 8.52 67.3283 8.52 67.395V69.13ZM8.115 68.93H8.52V70.255C8.5 70.2617 8.47333 70.2683 8.44 70.275C8.40667 70.285 8.37 70.29 8.33 70.29C8.26 70.29 8.20667 70.275 8.17 70.245C8.13333 70.215 8.115 70.1683 8.115 70.105V68.93ZM10.4921 70.315C10.2588 70.315 10.0521 70.2583 9.87211 70.145C9.69544 70.0283 9.55711 69.8533 9.45711 69.62C9.35711 69.3833 9.30711 69.0867 9.30711 68.73C9.30711 68.3467 9.36378 68.04 9.47711 67.81C9.59044 67.58 9.73711 67.4133 9.91711 67.31C10.0971 67.2033 10.2888 67.15 10.4921 67.15C10.6988 67.15 10.8921 67.2033 11.0721 67.31C11.2554 67.4167 11.4021 67.5867 11.5121 67.82C11.6254 68.05 11.6821 68.3533 11.6821 68.73C11.6821 69.0833 11.6321 69.3783 11.5321 69.615C11.4321 69.8483 11.2921 70.0233 11.1121 70.14C10.9354 70.2567 10.7288 70.315 10.4921 70.315ZM10.4921 69.975C10.7388 69.975 10.9304 69.8683 11.0671 69.655C11.2038 69.4383 11.2721 69.13 11.2721 68.73C11.2721 68.4333 11.2354 68.195 11.1621 68.015C11.0921 67.8317 10.9988 67.6983 10.8821 67.615C10.7654 67.5317 10.6354 67.49 10.4921 67.49C10.3521 67.49 10.2221 67.5333 10.1021 67.62C9.98544 67.7033 9.89211 67.8367 9.82211 68.02C9.75211 68.2033 9.71711 68.44 9.71711 68.73C9.71711 69.13 9.78544 69.4383 9.92211 69.655C10.0588 69.8683 10.2488 69.975 10.4921 69.975ZM13.3771 70.315C13.1505 70.315 12.9521 70.2817 12.7821 70.215C12.6121 70.145 12.4805 70.045 12.3871 69.915C12.2938 69.785 12.2471 69.6283 12.2471 69.445C12.2471 69.2817 12.2838 69.1433 12.3571 69.03C12.4338 68.9133 12.5305 68.82 12.6471 68.75C12.7638 68.68 12.8855 68.6333 13.0121 68.61L13.3121 68.56C13.5521 68.5133 13.7321 68.445 13.8521 68.355C13.9721 68.2617 14.0321 68.1383 14.0321 67.985C14.0321 67.8283 13.9738 67.7067 13.8571 67.62C13.7405 67.53 13.5805 67.485 13.3771 67.485C13.1805 67.485 13.0221 67.53 12.9021 67.62C12.7821 67.71 12.7221 67.83 12.7221 67.98C12.7221 68.1067 12.7555 68.2083 12.8221 68.285C12.8921 68.3617 12.9838 68.42 13.0971 68.46C13.2138 68.4967 13.3405 68.5217 13.4771 68.535L13.6971 68.61C13.8338 68.6367 13.9638 68.685 14.0871 68.755C14.2105 68.8217 14.3105 68.9117 14.3871 69.025C14.4638 69.1383 14.5021 69.28 14.5021 69.45C14.5021 69.63 14.4538 69.785 14.3571 69.915C14.2638 70.045 14.1321 70.145 13.9621 70.215C13.7955 70.2817 13.6005 70.315 13.3771 70.315ZM13.3771 69.98C13.5938 69.98 13.7688 69.9333 13.9021 69.84C14.0355 69.7467 14.1021 69.6117 14.1021 69.435C14.1021 69.2417 14.0205 69.0883 13.8571 68.975C13.6971 68.8617 13.4821 68.7967 13.2121 68.78L12.9571 68.705C12.7638 68.6517 12.6088 68.565 12.4921 68.445C12.3788 68.325 12.3221 68.1683 12.3221 67.975C12.3221 67.805 12.3655 67.6583 12.4521 67.535C12.5421 67.4117 12.6655 67.3167 12.8221 67.25C12.9821 67.1833 13.1671 67.15 13.3771 67.15C13.7038 67.15 13.9605 67.225 14.1471 67.375C14.3371 67.5217 14.4321 67.725 14.4321 67.985C14.4321 68.195 14.3605 68.36 14.2171 68.48C14.0771 68.6 13.9055 68.6783 13.7021 68.715L13.3621 68.785C13.1488 68.8183 12.9755 68.8917 12.8421 69.005C12.7121 69.115 12.6471 69.26 12.6471 69.44C12.6471 69.61 12.7121 69.7433 12.8421 69.84C12.9721 69.9333 13.1505 69.98 13.3771 69.98Z" fill="#A73C4C"/>
<path d="M25.52 76.13H25.115V74.6L24.475 74.9C24.4317 74.8833 24.395 74.8583 24.365 74.825C24.3383 74.7917 24.325 74.75 24.325 74.7C24.325 74.6033 24.385 74.53 24.505 74.48L25.205 74.175H25.3C25.3667 74.175 25.42 74.195 25.46 74.235C25.5 74.275 25.52 74.3283 25.52 74.395V76.13ZM25.115 75.93H25.52V77.255C25.5 77.2617 25.4733 77.2683 25.44 77.275C25.4067 77.285 25.37 77.29 25.33 77.29C25.26 77.29 25.2067 77.275 25.17 77.245C25.1333 77.215 25.115 77.1683 25.115 77.105V75.93ZM27.4921 77.315C27.2588 77.315 27.0521 77.2583 26.8721 77.145C26.6954 77.0283 26.5571 76.8533 26.4571 76.62C26.3571 76.3833 26.3071 76.0867 26.3071 75.73C26.3071 75.3467 26.3638 75.04 26.4771 74.81C26.5904 74.58 26.7371 74.4133 26.9171 74.31C27.0971 74.2033 27.2888 74.15 27.4921 74.15C27.6988 74.15 27.8921 74.2033 28.0721 74.31C28.2554 74.4167 28.4021 74.5867 28.5121 74.82C28.6254 75.05 28.6821 75.3533 28.6821 75.73C28.6821 76.0833 28.6321 76.3783 28.5321 76.615C28.4321 76.8483 28.2921 77.0233 28.1121 77.14C27.9354 77.2567 27.7288 77.315 27.4921 77.315ZM27.4921 76.975C27.7388 76.975 27.9304 76.8683 28.0671 76.655C28.2038 76.4383 28.2721 76.13 28.2721 75.73C28.2721 75.4333 28.2354 75.195 28.1621 75.015C28.0921 74.8317 27.9988 74.6983 27.8821 74.615C27.7654 74.5317 27.6354 74.49 27.4921 74.49C27.3521 74.49 27.2221 74.5333 27.1021 74.62C26.9854 74.7033 26.8921 74.8367 26.8221 75.02C26.7521 75.2033 26.7171 75.44 26.7171 75.73C26.7171 76.13 26.7854 76.4383 26.9221 76.655C27.0588 76.8683 27.2488 76.975 27.4921 76.975ZM29.1686 74.21H30.9686C31.0052 74.23 31.0336 74.2583 31.0536 74.295C31.0736 74.3283 31.0836 74.3667 31.0836 74.41C31.0836 74.4433 31.0786 74.4767 31.0686 74.51C31.0619 74.5433 31.0486 74.58 31.0286 74.62L29.7736 77.27C29.7536 77.2733 29.7336 77.275 29.7136 77.275C29.6969 77.275 29.6786 77.275 29.6586 77.275C29.5952 77.275 29.5402 77.26 29.4936 77.23C29.4469 77.1967 29.4236 77.1517 29.4236 77.095C29.4236 77.055 29.4319 77.0167 29.4486 76.98C29.4652 76.94 29.4852 76.895 29.5086 76.845L30.6386 74.55H29.0586C29.0486 74.5333 29.0386 74.5117 29.0286 74.485C29.0186 74.455 29.0136 74.4233 29.0136 74.39C29.0136 74.3333 29.0269 74.29 29.0536 74.26C29.0802 74.2267 29.1186 74.21 29.1686 74.21Z" fill="#A73C4C"/>
<path d="M25.52 81.13H25.115V79.6L24.475 79.9C24.4317 79.8833 24.395 79.8583 24.365 79.825C24.3383 79.7917 24.325 79.75 24.325 79.7C24.325 79.6033 24.385 79.53 24.505 79.48L25.205 79.175H25.3C25.3667 79.175 25.42 79.195 25.46 79.235C25.5 79.275 25.52 79.3283 25.52 79.395V81.13ZM25.115 80.93H25.52V82.255C25.5 82.2617 25.4733 82.2683 25.44 82.275C25.4067 82.285 25.37 82.29 25.33 82.29C25.26 82.29 25.2067 82.275 25.17 82.245C25.1333 82.215 25.115 82.1683 25.115 82.105V80.93ZM27.4921 82.315C27.2588 82.315 27.0521 82.2583 26.8721 82.145C26.6954 82.0283 26.5571 81.8533 26.4571 81.62C26.3571 81.3833 26.3071 81.0867 26.3071 80.73C26.3071 80.3467 26.3638 80.04 26.4771 79.81C26.5904 79.58 26.7371 79.4133 26.9171 79.31C27.0971 79.2033 27.2888 79.15 27.4921 79.15C27.6988 79.15 27.8921 79.2033 28.0721 79.31C28.2554 79.4167 28.4021 79.5867 28.5121 79.82C28.6254 80.05 28.6821 80.3533 28.6821 80.73C28.6821 81.0833 28.6321 81.3783 28.5321 81.615C28.4321 81.8483 28.2921 82.0233 28.1121 82.14C27.9354 82.2567 27.7288 82.315 27.4921 82.315ZM27.4921 81.975C27.7388 81.975 27.9304 81.8683 28.0671 81.655C28.2038 81.4383 28.2721 81.13 28.2721 80.73C28.2721 80.4333 28.2354 80.195 28.1621 80.015C28.0921 79.8317 27.9988 79.6983 27.8821 79.615C27.7654 79.5317 27.6354 79.49 27.4921 79.49C27.3521 79.49 27.2221 79.5333 27.1021 79.62C26.9854 79.7033 26.8921 79.8367 26.8221 80.02C26.7521 80.2033 26.7171 80.44 26.7171 80.73C26.7171 81.13 26.7854 81.4383 26.9221 81.655C27.0588 81.8683 27.2488 81.975 27.4921 81.975ZM29.3377 82.005C29.3377 81.965 29.3477 81.9267 29.3677 81.89C29.3911 81.8533 29.4194 81.8267 29.4527 81.81C29.5161 81.8467 29.5977 81.8833 29.6977 81.92C29.8011 81.9533 29.9227 81.97 30.0627 81.97C30.2361 81.97 30.3944 81.9333 30.5377 81.86C30.6811 81.7867 30.7961 81.6667 30.8827 81.5C30.9694 81.33 31.0127 81.1067 31.0127 80.83C30.9827 80.8633 30.9327 80.905 30.8627 80.955C30.7961 81.0017 30.7111 81.0433 30.6077 81.08C30.5044 81.1167 30.3844 81.135 30.2477 81.135C30.0611 81.135 29.8861 81.1033 29.7227 81.04C29.5594 80.9733 29.4277 80.8683 29.3277 80.725C29.2311 80.5817 29.1827 80.3933 29.1827 80.16C29.1827 79.95 29.2294 79.77 29.3227 79.62C29.4161 79.4667 29.5427 79.35 29.7027 79.27C29.8627 79.19 30.0411 79.15 30.2377 79.15C30.4677 79.15 30.6711 79.2033 30.8477 79.31C31.0244 79.4133 31.1627 79.575 31.2627 79.795C31.3661 80.0117 31.4177 80.2917 31.4177 80.635C31.4177 81.0417 31.3611 81.3683 31.2477 81.615C31.1344 81.8617 30.9761 82.04 30.7727 82.15C30.5727 82.26 30.3377 82.315 30.0677 82.315C29.8677 82.315 29.6961 82.2883 29.5527 82.235C29.4094 82.1817 29.3377 82.105 29.3377 82.005ZM30.3027 80.8C30.4727 80.8 30.6227 80.7583 30.7527 80.675C30.8861 80.5883 30.9744 80.4933 31.0177 80.39L31.0127 80.445C31.0127 80.1483 30.9444 79.915 30.8077 79.745C30.6744 79.5717 30.4844 79.485 30.2377 79.485C30.0544 79.485 29.8994 79.545 29.7727 79.665C29.6494 79.7817 29.5877 79.9433 29.5877 80.15C29.5877 80.38 29.6577 80.5467 29.7977 80.65C29.9377 80.75 30.1061 80.8 30.3027 80.8Z" fill="#A73C4C"/>
<path d="M7.52 50.13H7.115V48.6L6.475 48.9C6.43167 48.8833 6.395 48.8583 6.365 48.825C6.33833 48.7917 6.325 48.75 6.325 48.7C6.325 48.6033 6.385 48.53 6.505 48.48L7.205 48.175H7.3C7.36667 48.175 7.42 48.195 7.46 48.235C7.5 48.275 7.52 48.3283 7.52 48.395V50.13ZM7.115 49.93H7.52V51.255C7.5 51.2617 7.47333 51.2683 7.44 51.275C7.40667 51.285 7.37 51.29 7.33 51.29C7.26 51.29 7.20667 51.275 7.17 51.245C7.13333 51.215 7.115 51.1683 7.115 51.105V49.93ZM9.49211 51.315C9.25878 51.315 9.05211 51.2583 8.87211 51.145C8.69544 51.0283 8.55711 50.8533 8.45711 50.62C8.35711 50.3833 8.30711 50.0867 8.30711 49.73C8.30711 49.3467 8.36378 49.04 8.47711 48.81C8.59044 48.58 8.73711 48.4133 8.91711 48.31C9.09711 48.2033 9.28878 48.15 9.49211 48.15C9.69878 48.15 9.89211 48.2033 10.0721 48.31C10.2554 48.4167 10.4021 48.5867 10.5121 48.82C10.6254 49.05 10.6821 49.3533 10.6821 49.73C10.6821 50.0833 10.6321 50.3783 10.5321 50.615C10.4321 50.8483 10.2921 51.0233 10.1121 51.14C9.93544 51.2567 9.72878 51.315 9.49211 51.315ZM9.49211 50.975C9.73878 50.975 9.93044 50.8683 10.0671 50.655C10.2038 50.4383 10.2721 50.13 10.2721 49.73C10.2721 49.4333 10.2354 49.195 10.1621 49.015C10.0921 48.8317 9.99878 48.6983 9.88211 48.615C9.76544 48.5317 9.63544 48.49 9.49211 48.49C9.35211 48.49 9.22211 48.5333 9.10211 48.62C8.98544 48.7033 8.89211 48.8367 8.82211 49.02C8.75211 49.2033 8.71711 49.44 8.71711 49.73C8.71711 50.13 8.78544 50.4383 8.92211 50.655C9.05878 50.8683 9.24878 50.975 9.49211 50.975ZM13.2271 48.445C13.2271 48.485 13.2155 48.5233 13.1921 48.56C13.1721 48.5933 13.1455 48.6183 13.1121 48.635C13.0388 48.5983 12.9555 48.5667 12.8621 48.54C12.7721 48.51 12.6738 48.495 12.5671 48.495C12.3071 48.495 12.0871 48.5883 11.9071 48.775C11.7305 48.9617 11.6371 49.2533 11.6271 49.65C11.6938 49.5833 11.7955 49.5133 11.9321 49.44C12.0721 49.3633 12.2438 49.325 12.4471 49.325C12.7405 49.325 12.9821 49.4083 13.1721 49.575C13.3621 49.7417 13.4571 49.9883 13.4571 50.315C13.4571 50.5217 13.4121 50.7 13.3221 50.85C13.2355 51 13.1121 51.115 12.9521 51.195C12.7955 51.275 12.6088 51.315 12.3921 51.315C12.1688 51.315 11.9688 51.265 11.7921 51.165C11.6155 51.0617 11.4755 50.9017 11.3721 50.685C11.2721 50.465 11.2221 50.1783 11.2221 49.825C11.2221 49.5117 11.2588 49.2483 11.3321 49.035C11.4088 48.8183 11.5105 48.6467 11.6371 48.52C11.7638 48.39 11.9071 48.2967 12.0671 48.24C12.2271 48.18 12.3905 48.15 12.5571 48.15C12.6738 48.15 12.7821 48.1617 12.8821 48.185C12.9855 48.2083 13.0688 48.2417 13.1321 48.285C13.1955 48.3283 13.2271 48.3817 13.2271 48.445ZM12.3921 50.98C12.5855 50.98 12.7438 50.9217 12.8671 50.805C12.9905 50.685 13.0521 50.5183 13.0521 50.305C13.0521 50.0883 12.9888 49.9283 12.8621 49.825C12.7388 49.7183 12.5855 49.665 12.4021 49.665C12.2188 49.665 12.0605 49.705 11.9271 49.785C11.7938 49.8617 11.6888 49.955 11.6121 50.065L11.6271 50.03C11.6271 50.3133 11.6938 50.5433 11.8271 50.72C11.9605 50.8933 12.1488 50.98 12.3921 50.98Z" fill="#A73C4C"/>
<path d="M5.52 83.13H5.115V81.6L4.475 81.9C4.43167 81.8833 4.395 81.8583 4.365 81.825C4.33833 81.7917 4.325 81.75 4.325 81.7C4.325 81.6033 4.385 81.53 4.505 81.48L5.205 81.175H5.3C5.36667 81.175 5.42 81.195 5.46 81.235C5.5 81.275 5.52 81.3283 5.52 81.395V83.13ZM5.115 82.93H5.52V84.255C5.5 84.2617 5.47333 84.2683 5.44 84.275C5.40667 84.285 5.37 84.29 5.33 84.29C5.26 84.29 5.20667 84.275 5.17 84.245C5.13333 84.215 5.115 84.1683 5.115 84.105V82.93ZM7.33152 83.13H6.92652V81.6L6.28652 81.9C6.24319 81.8833 6.20652 81.8583 6.17652 81.825C6.14986 81.7917 6.13652 81.75 6.13652 81.7C6.13652 81.6033 6.19652 81.53 6.31652 81.48L7.01652 81.175H7.11152C7.17819 81.175 7.23152 81.195 7.27152 81.235C7.31152 81.275 7.33152 81.3283 7.33152 81.395V83.13ZM6.92652 82.93H7.33152V84.255C7.31152 84.2617 7.28486 84.2683 7.25152 84.275C7.21819 84.285 7.18152 84.29 7.14152 84.29C7.07152 84.29 7.01819 84.275 6.98152 84.245C6.94486 84.215 6.92652 84.1683 6.92652 84.105V82.93ZM9.30363 84.315C9.0703 84.315 8.86363 84.2583 8.68363 84.145C8.50697 84.0283 8.36863 83.8533 8.26863 83.62C8.16863 83.3833 8.11863 83.0867 8.11863 82.73C8.11863 82.3467 8.1753 82.04 8.28863 81.81C8.40197 81.58 8.54863 81.4133 8.72863 81.31C8.90863 81.2033 9.1003 81.15 9.30363 81.15C9.5103 81.15 9.70363 81.2033 9.88363 81.31C10.067 81.4167 10.2136 81.5867 10.3236 81.82C10.437 82.05 10.4936 82.3533 10.4936 82.73C10.4936 83.0833 10.4436 83.3783 10.3436 83.615C10.2436 83.8483 10.1036 84.0233 9.92363 84.14C9.74697 84.2567 9.5403 84.315 9.30363 84.315ZM9.30363 83.975C9.5503 83.975 9.74197 83.8683 9.87863 83.655C10.0153 83.4383 10.0836 83.13 10.0836 82.73C10.0836 82.4333 10.047 82.195 9.97363 82.015C9.90363 81.8317 9.8103 81.6983 9.69363 81.615C9.57697 81.5317 9.44697 81.49 9.30363 81.49C9.16363 81.49 9.03363 81.5333 8.91363 81.62C8.79697 81.7033 8.70363 81.8367 8.63363 82.02C8.56363 82.2033 8.52863 82.44 8.52863 82.73C8.52863 83.13 8.59697 83.4383 8.73363 83.655C8.8703 83.8683 9.0603 83.975 9.30363 83.975Z" fill="#A73C4C"/>
<path d="M29.52 101.13H29.115V99.6L28.475 99.9C28.4317 99.8833 28.395 99.8583 28.365 99.825C28.3383 99.7917 28.325 99.75 28.325 99.7C28.325 99.6033 28.385 99.53 28.505 99.48L29.205 99.175H29.3C29.3667 99.175 29.42 99.195 29.46 99.235C29.5 99.275 29.52 99.3283 29.52 99.395V101.13ZM29.115 100.93H29.52V102.255C29.5 102.262 29.4733 102.268 29.44 102.275C29.4067 102.285 29.37 102.29 29.33 102.29C29.26 102.29 29.2067 102.275 29.17 102.245C29.1333 102.215 29.115 102.168 29.115 102.105V100.93ZM31.3315 101.13H30.9265V99.6L30.2865 99.9C30.2432 99.8833 30.2065 99.8583 30.1765 99.825C30.1499 99.7917 30.1365 99.75 30.1365 99.7C30.1365 99.6033 30.1965 99.53 30.3165 99.48L31.0165 99.175H31.1115C31.1782 99.175 31.2315 99.195 31.2715 99.235C31.3115 99.275 31.3315 99.3283 31.3315 99.395V101.13ZM30.9265 100.93H31.3315V102.255C31.3115 102.262 31.2849 102.268 31.2515 102.275C31.2182 102.285 31.1815 102.29 31.1415 102.29C31.0715 102.29 31.0182 102.275 30.9815 102.245C30.9449 102.215 30.9265 102.168 30.9265 102.105V100.93ZM33.143 101.13H32.738V99.6L32.098 99.9C32.0547 99.8833 32.018 99.8583 31.988 99.825C31.9614 99.7917 31.948 99.75 31.948 99.7C31.948 99.6033 32.008 99.53 32.128 99.48L32.828 99.175H32.923C32.9897 99.175 33.043 99.195 33.083 99.235C33.123 99.275 33.143 99.3283 33.143 99.395V101.13ZM32.738 100.93H33.143V102.255C33.123 102.262 33.0964 102.268 33.063 102.275C33.0297 102.285 32.993 102.29 32.953 102.29C32.883 102.29 32.8297 102.275 32.793 102.245C32.7564 102.215 32.738 102.168 32.738 102.105V100.93Z" fill="#A73C4C"/>
<path d="M17.52 112.13H17.115V110.6L16.475 110.9C16.4317 110.883 16.395 110.858 16.365 110.825C16.3383 110.792 16.325 110.75 16.325 110.7C16.325 110.603 16.385 110.53 16.505 110.48L17.205 110.175H17.3C17.3667 110.175 17.42 110.195 17.46 110.235C17.5 110.275 17.52 110.328 17.52 110.395V112.13ZM17.115 111.93H17.52V113.255C17.5 113.262 17.4733 113.268 17.44 113.275C17.4067 113.285 17.37 113.29 17.33 113.29C17.26 113.29 17.2067 113.275 17.17 113.245C17.1333 113.215 17.115 113.168 17.115 113.105V111.93ZM19.3315 112.13H18.9265V110.6L18.2865 110.9C18.2432 110.883 18.2065 110.858 18.1765 110.825C18.1499 110.792 18.1365 110.75 18.1365 110.7C18.1365 110.603 18.1965 110.53 18.3165 110.48L19.0165 110.175H19.1115C19.1782 110.175 19.2315 110.195 19.2715 110.235C19.3115 110.275 19.3315 110.328 19.3315 110.395V112.13ZM18.9265 111.93H19.3315V113.255C19.3115 113.262 19.2849 113.268 19.2515 113.275C19.2182 113.285 19.1815 113.29 19.1415 113.29C19.0715 113.29 19.0182 113.275 18.9815 113.245C18.9449 113.215 18.9265 113.168 18.9265 113.105V111.93ZM20.958 110.145C21.2747 110.145 21.5297 110.215 21.723 110.355C21.9197 110.492 22.018 110.698 22.018 110.975C22.018 111.108 21.9897 111.223 21.933 111.32C21.8797 111.413 21.8147 111.487 21.738 111.54C21.6647 111.593 21.598 111.628 21.538 111.645C21.628 111.672 21.7164 111.718 21.803 111.785C21.8897 111.848 21.9614 111.932 22.018 112.035C22.078 112.135 22.108 112.257 22.108 112.4C22.108 112.6 22.0597 112.767 21.963 112.9C21.8664 113.033 21.733 113.135 21.563 113.205C21.393 113.272 21.1964 113.305 20.973 113.305C20.7897 113.305 20.6264 113.287 20.483 113.25C20.343 113.21 20.233 113.16 20.153 113.1C20.073 113.04 20.033 112.977 20.033 112.91C20.033 112.863 20.0447 112.823 20.068 112.79C20.0947 112.757 20.128 112.728 20.168 112.705C20.2547 112.772 20.3597 112.832 20.483 112.885C20.6097 112.938 20.773 112.965 20.973 112.965C21.193 112.965 21.3714 112.918 21.508 112.825C21.6447 112.728 21.713 112.583 21.713 112.39C21.713 112.22 21.6497 112.083 21.523 111.98C21.3964 111.877 21.213 111.825 20.973 111.825H20.558C20.5447 111.808 20.533 111.785 20.523 111.755C20.513 111.722 20.508 111.688 20.508 111.655C20.508 111.618 20.513 111.585 20.523 111.555C20.533 111.525 20.5447 111.502 20.558 111.485H20.938C21.1847 111.485 21.3597 111.44 21.463 111.35C21.5697 111.257 21.623 111.135 21.623 110.985C21.623 110.822 21.563 110.698 21.443 110.615C21.323 110.528 21.1597 110.485 20.953 110.485C20.793 110.485 20.6514 110.51 20.528 110.56C20.408 110.607 20.308 110.658 20.228 110.715C20.1947 110.698 20.1647 110.672 20.138 110.635C20.1114 110.598 20.098 110.558 20.098 110.515C20.098 110.455 20.1364 110.397 20.213 110.34C20.2897 110.283 20.393 110.237 20.523 110.2C20.653 110.163 20.798 110.145 20.958 110.145Z" fill="#A73C4C"/>
<path d="M4.52 103.13H4.115V101.6L3.475 101.9C3.43167 101.883 3.395 101.858 3.365 101.825C3.33833 101.792 3.325 101.75 3.325 101.7C3.325 101.603 3.385 101.53 3.505 101.48L4.205 101.175H4.3C4.36667 101.175 4.42 101.195 4.46 101.235C4.5 101.275 4.52 101.328 4.52 101.395V103.13ZM4.115 102.93H4.52V104.255C4.5 104.262 4.47333 104.268 4.44 104.275C4.40667 104.285 4.37 104.29 4.33 104.29C4.26 104.29 4.20667 104.275 4.17 104.245C4.13333 104.215 4.115 104.168 4.115 104.105V102.93ZM6.33152 103.13H5.92652V101.6L5.28652 101.9C5.24319 101.883 5.20652 101.858 5.17652 101.825C5.14986 101.792 5.13652 101.75 5.13652 101.7C5.13652 101.603 5.19652 101.53 5.31652 101.48L6.01652 101.175H6.11152C6.17819 101.175 6.23152 101.195 6.27152 101.235C6.31152 101.275 6.33152 101.328 6.33152 101.395V103.13ZM5.92652 102.93H6.33152V104.255C6.31152 104.262 6.28486 104.268 6.25152 104.275C6.21819 104.285 6.18152 104.29 6.14152 104.29C6.07152 104.29 6.01819 104.275 5.98152 104.245C5.94486 104.215 5.92652 104.168 5.92652 104.105V102.93ZM7.18246 101.525C7.18246 101.465 7.22079 101.407 7.29746 101.35C7.37413 101.29 7.47746 101.242 7.60746 101.205C7.73746 101.168 7.87913 101.15 8.03246 101.15C8.24579 101.15 8.42913 101.187 8.58246 101.26C8.73579 101.33 8.85413 101.43 8.93746 101.56C9.02079 101.69 9.06246 101.843 9.06246 102.02C9.06246 102.203 9.01079 102.383 8.90746 102.56C8.80746 102.737 8.63413 102.938 8.38746 103.165L7.57246 103.92H9.05746C9.07079 103.933 9.08246 103.955 9.09246 103.985C9.10246 104.012 9.10746 104.043 9.10746 104.08C9.10746 104.133 9.09246 104.175 9.06246 104.205C9.03579 104.235 8.99913 104.25 8.95246 104.25H7.18746C7.15413 104.227 7.12913 104.198 7.11246 104.165C7.09579 104.128 7.08746 104.09 7.08746 104.05C7.08746 103.997 7.09746 103.95 7.11746 103.91C7.13746 103.867 7.16746 103.827 7.20746 103.79L8.10746 102.925C8.31413 102.732 8.45579 102.57 8.53246 102.44C8.60913 102.307 8.64746 102.168 8.64746 102.025C8.64746 101.868 8.59413 101.74 8.48746 101.64C8.38079 101.54 8.21913 101.49 8.00246 101.49C7.85579 101.49 7.72413 101.515 7.60746 101.565C7.49413 101.615 7.39913 101.668 7.32246 101.725C7.28579 101.708 7.25246 101.683 7.22246 101.65C7.19579 101.617 7.18246 101.575 7.18246 101.525Z" fill="#A73C4C"/>
<path d="M7.55 89.25C7.38432 89.25 7.25 89.3843 7.25 89.55V95.8524C7.25 96.0181 7.38431 96.1524 7.55 96.1524H8.22314H13.7432C13.9089 96.1524 14.0432 96.0181 14.0432 95.8524V90.4578V89.55C14.0432 89.3843 13.9089 89.25 13.7432 89.25H7.55ZM8.81767 95.887V95.1905C8.81767 95.1353 8.86244 95.0905 8.91767 95.0905H9.56278C9.72847 95.0905 9.86278 94.9562 9.86278 94.7905V94.1286C9.86278 94.0734 9.90755 94.0286 9.96278 94.0286H10.6079C10.7736 94.0286 10.9079 93.8943 10.9079 93.7286V93.0667C10.9079 93.0115 10.9527 92.9667 11.0079 92.9667H11.653C11.8187 92.9667 11.953 92.8324 11.953 92.6667V92.0048C11.953 91.9496 11.9978 91.9048 12.053 91.9048H12.6981C12.8638 91.9048 12.9981 91.7705 12.9981 91.6048V90.9429C12.9981 90.8876 13.0429 90.8429 13.0981 90.8429H13.782V95.7869C13.782 95.8421 13.7372 95.8869 13.682 95.8869L8.81767 95.887ZM13.782 90.5774H13.0368C12.8712 90.5774 12.7368 90.7117 12.7368 90.8774V91.5393C12.7368 91.5945 12.6921 91.6393 12.6368 91.6393H11.9917C11.826 91.6393 11.6917 91.7736 11.6917 91.9393V92.6012C11.6917 92.6564 11.647 92.7012 11.5917 92.7012H10.9466C10.7809 92.7012 10.6466 92.8355 10.6466 93.0012V93.6631C10.6466 93.7184 10.6018 93.7631 10.5466 93.7631H9.9015C9.73582 93.7631 9.6015 93.8974 9.6015 94.0631V94.725C9.6015 94.7803 9.55673 94.825 9.5015 94.825H8.85639C8.69071 94.825 8.55639 94.9594 8.55639 95.125V95.8869H7.61128C7.55605 95.8869 7.51128 95.8421 7.51128 95.7869V89.6155C7.51128 89.5602 7.55605 89.5155 7.61128 89.5155H13.682C13.7372 89.5155 13.782 89.5602 13.782 89.6155V90.5774Z" fill="#A73C4C"/>
<path d="M7.55 20.75C7.38431 20.75 7.25 20.8843 7.25 21.05V27.5626C7.25 27.7282 7.38431 27.8626 7.55 27.8626H8.25276H13.95C14.1157 27.8626 14.25 27.7282 14.25 27.5626V21.9946V21.05C14.25 20.8843 14.1157 20.75 13.95 20.75H7.55ZM8.86538 27.589V26.8683C8.86538 26.8131 8.91016 26.7683 8.96538 26.7683H9.64231C9.80799 26.7683 9.94231 26.634 9.94231 26.4683V25.7741C9.94231 25.7189 9.98708 25.6741 10.0423 25.6741H10.7192C10.8849 25.6741 11.0192 25.5398 11.0192 25.3741V24.6799C11.0192 24.6246 11.064 24.5799 11.1192 24.5799H11.7962C11.9618 24.5799 12.0962 24.4455 12.0962 24.2799V23.5856C12.0962 23.5304 12.1409 23.4856 12.1962 23.4856H12.8731C13.0388 23.4856 13.1731 23.3513 13.1731 23.1856V22.4914C13.1731 22.4362 13.2178 22.3914 13.2731 22.3914H13.9808V27.4889C13.9808 27.5442 13.936 27.5889 13.8808 27.5889L8.86538 27.589ZM13.9808 22.1178H13.2038C13.0382 22.1178 12.9038 22.2521 12.9038 22.4178V23.1121C12.9038 23.1673 12.8591 23.2121 12.8038 23.2121H12.1269C11.9612 23.2121 11.8269 23.3464 11.8269 23.5121V24.2063C11.8269 24.2615 11.7822 24.3063 11.7269 24.3063H11.05C10.8843 24.3063 10.75 24.4406 10.75 24.6063V25.3005C10.75 25.3558 10.7052 25.4005 10.65 25.4005H9.97308C9.80739 25.4005 9.67308 25.5348 9.67308 25.7005V26.3948C9.67308 26.45 9.62831 26.4948 9.57308 26.4948H8.89615C8.73047 26.4948 8.59615 26.6291 8.59615 26.7948V27.5889H7.61923C7.564 27.5889 7.51923 27.5442 7.51923 27.4889V21.1236C7.51923 21.0684 7.564 21.0236 7.61923 21.0236H13.8808C13.936 21.0236 13.9808 21.0684 13.9808 21.1236V22.1178Z" fill="#A73C4C"/>
</svg>
