<svg width="39" height="117" viewBox="0 0 39 117" fill="none" xmlns="http://www.w3.org/2000/svg">
<path d="M0.25 0.25H38.25V29.25H34.5461V88.0432H38.047V116.552H0.25V0.25Z" fill="white"/>
<path d="M0.25 27.75V0.25H38.0332V29.1892H34.5531V88.0656H38.0332V116.506H0.25V95.5711" stroke="#A73C4C" stroke-width="0.5"/>
<path d="M0.25 95.8103V27.75" stroke="#A73C4C" stroke-width="0.5"/>
<path d="M0.25 19H23.25M20.75 33.75V24.25H25.25V29.1892H34.5531M27.25 19H38.0332M0.25 28.75H15.25M19.25 28.75H20.75M20.75 38.75V38.25H25.75V42.75H20.75V44.25M25.75 40.25H34.5531M0.25 40.25H16.25V48.75M0.25 59.75H16.25M20.75 59.75H34.5532M16.25 68.25H13.75V54.75H16.25M5.75 78.75H16.25V75.25M20.75 78.75H34.5532M0.25 78.75H1.75M0.25 88.0656H15.25M0.25 97.75H16.25M19.75 88.0656H34.5531M20.25 97.75H22.25M25.75 97.75H27.25M31.25 97.75H38.0332M36.75 107.481H38.0332M31.449 107.481H32.75M26.5501 107.481H27.5455M15.25 102.75V102.25L26.5501 102.388M0.25 107.75H10.75M9.75 102.75V97.75M9.75 107.75V106.75M15.25 116.506V106.75M15.25 107.75H14.25M20.75 102.317V95.25M26.5 116.506V97.75M20.75 91.25V83.75M13.75 88.25V83.75M13.75 79.75V78.75M20.75 79.75V75.25M20.75 71.25V48.25M16.25 71.25V67.25M16.25 64.75V62.75M16.25 63.75H13.75M16.25 60.75V58.75M16.25 55.25V52.75M13.75 40.25V38.75M13.75 34.75V28.75M20.75 21V19" stroke="#A73C4C" stroke-width="0.5"/>
<path d="M6.55 20.75C6.38431 20.75 6.25 20.8843 6.25 21.05V27.5626C6.25 27.7282 6.38431 27.8626 6.55 27.8626H7.25276H12.95C13.1157 27.8626 13.25 27.7282 13.25 27.5626V21.9946V21.05C13.25 20.8843 13.1157 20.75 12.95 20.75H6.55ZM7.86538 27.589V26.8683C7.86538 26.8131 7.91016 26.7683 7.96538 26.7683H8.64231C8.80799 26.7683 8.94231 26.634 8.94231 26.4683V25.7741C8.94231 25.7189 8.98708 25.6741 9.04231 25.6741H9.71923C9.88492 25.6741 10.0192 25.5398 10.0192 25.3741V24.6799C10.0192 24.6246 10.064 24.5799 10.1192 24.5799H10.7962C10.9618 24.5799 11.0962 24.4455 11.0962 24.2799V23.5856C11.0962 23.5304 11.1409 23.4856 11.1962 23.4856H11.8731C12.0388 23.4856 12.1731 23.3513 12.1731 23.1856V22.4914C12.1731 22.4362 12.2178 22.3914 12.2731 22.3914H12.9808V27.4889C12.9808 27.5442 12.936 27.5889 12.8808 27.5889L7.86538 27.589ZM12.9808 22.1178H12.2038C12.0382 22.1178 11.9038 22.2521 11.9038 22.4178V23.1121C11.9038 23.1673 11.8591 23.2121 11.8038 23.2121H11.1269C10.9612 23.2121 10.8269 23.3464 10.8269 23.5121V24.2063C10.8269 24.2615 10.7822 24.3063 10.7269 24.3063H10.05C9.88431 24.3063 9.75 24.4406 9.75 24.6063V25.3005C9.75 25.3558 9.70523 25.4005 9.65 25.4005H8.97308C8.80739 25.4005 8.67308 25.5348 8.67308 25.7005V26.3948C8.67308 26.45 8.62831 26.4948 8.57308 26.4948H7.89615C7.73047 26.4948 7.59615 26.6291 7.59615 26.7948V27.5889H6.61923C6.564 27.5889 6.51923 27.5442 6.51923 27.4889V21.1236C6.51923 21.0684 6.564 21.0236 6.61923 21.0236H12.8808C12.936 21.0236 12.9808 21.0684 12.9808 21.1236V22.1178Z" fill="#A73C4C"/>
<path d="M6.55 89.25C6.38432 89.25 6.25 89.3843 6.25 89.55V95.8524C6.25 96.0181 6.38431 96.1524 6.55 96.1524H7.22314H12.7432C12.9089 96.1524 13.0432 96.0181 13.0432 95.8524V90.4578V89.55C13.0432 89.3843 12.9089 89.25 12.7432 89.25H6.55ZM7.81767 95.887V95.1905C7.81767 95.1353 7.86244 95.0905 7.91767 95.0905H8.56278C8.72847 95.0905 8.86278 94.9562 8.86278 94.7905V94.1286C8.86278 94.0734 8.90755 94.0286 8.96278 94.0286H9.6079C9.77358 94.0286 9.9079 93.8943 9.9079 93.7286V93.0667C9.9079 93.0115 9.95267 92.9667 10.0079 92.9667H10.653C10.8187 92.9667 10.953 92.8324 10.953 92.6667V92.0048C10.953 91.9496 10.9978 91.9048 11.053 91.9048H11.6981C11.8638 91.9048 11.9981 91.7705 11.9981 91.6048V90.9429C11.9981 90.8876 12.0429 90.8429 12.0981 90.8429H12.782V95.7869C12.782 95.8421 12.7372 95.8869 12.682 95.8869L7.81767 95.887ZM12.782 90.5774H12.0368C11.8712 90.5774 11.7368 90.7117 11.7368 90.8774V91.5393C11.7368 91.5945 11.6921 91.6393 11.6368 91.6393H10.9917C10.826 91.6393 10.6917 91.7736 10.6917 91.9393V92.6012C10.6917 92.6564 10.647 92.7012 10.5917 92.7012H9.94662C9.78093 92.7012 9.64662 92.8355 9.64662 93.0012V93.6631C9.64662 93.7184 9.60185 93.7631 9.54662 93.7631H8.9015C8.73582 93.7631 8.6015 93.8974 8.6015 94.0631V94.725C8.6015 94.7803 8.55673 94.825 8.5015 94.825H7.85639C7.69071 94.825 7.55639 94.9594 7.55639 95.125V95.8869H6.61128C6.55605 95.8869 6.51128 95.8421 6.51128 95.7869V89.6155C6.51128 89.5602 6.55605 89.5155 6.61128 89.5155H12.682C12.7372 89.5155 12.782 89.5602 12.782 89.6155V90.5774Z" fill="#A73C4C"/>
<path d="M15.535 8.525C15.535 8.465 15.5733 8.40667 15.65 8.35C15.7267 8.29 15.83 8.24167 15.96 8.205C16.09 8.16833 16.2317 8.15 16.385 8.15C16.5983 8.15 16.7817 8.18667 16.935 8.26C17.0883 8.33 17.2067 8.43 17.29 8.56C17.3733 8.69 17.415 8.84333 17.415 9.02C17.415 9.20333 17.3633 9.38333 17.26 9.56C17.16 9.73667 16.9867 9.93833 16.74 10.165L15.925 10.92H17.41C17.4233 10.9333 17.435 10.955 17.445 10.985C17.455 11.0117 17.46 11.0433 17.46 11.08C17.46 11.1333 17.445 11.175 17.415 11.205C17.3883 11.235 17.3517 11.25 17.305 11.25H15.54C15.5067 11.2267 15.4817 11.1983 15.465 11.165C15.4483 11.1283 15.44 11.09 15.44 11.05C15.44 10.9967 15.45 10.95 15.47 10.91C15.49 10.8667 15.52 10.8267 15.56 10.79L16.46 9.925C16.6667 9.73167 16.8083 9.57 16.885 9.44C16.9617 9.30667 17 9.16833 17 9.025C17 8.86833 16.9467 8.74 16.84 8.64C16.7333 8.54 16.5717 8.49 16.355 8.49C16.2083 8.49 16.0767 8.515 15.96 8.565C15.8467 8.615 15.7517 8.66833 15.675 8.725C15.6383 8.70833 15.605 8.68333 15.575 8.65C15.5483 8.61667 15.535 8.575 15.535 8.525ZM19.1952 11.315C18.9619 11.315 18.7552 11.2583 18.5752 11.145C18.3986 11.0283 18.2602 10.8533 18.1602 10.62C18.0602 10.3833 18.0102 10.0867 18.0102 9.73C18.0102 9.34667 18.0669 9.04 18.1802 8.81C18.2936 8.58 18.4402 8.41333 18.6202 8.31C18.8002 8.20333 18.9919 8.15 19.1952 8.15C19.4019 8.15 19.5952 8.20333 19.7752 8.31C19.9586 8.41667 20.1052 8.58667 20.2152 8.82C20.3286 9.05 20.3852 9.35333 20.3852 9.73C20.3852 10.0833 20.3352 10.3783 20.2352 10.615C20.1352 10.8483 19.9952 11.0233 19.8152 11.14C19.6386 11.2567 19.4319 11.315 19.1952 11.315ZM19.1952 10.975C19.4419 10.975 19.6336 10.8683 19.7702 10.655C19.9069 10.4383 19.9752 10.13 19.9752 9.73C19.9752 9.43333 19.9386 9.195 19.8652 9.015C19.7952 8.83167 19.7019 8.69833 19.5852 8.615C19.4686 8.53167 19.3386 8.49 19.1952 8.49C19.0552 8.49 18.9252 8.53333 18.8052 8.62C18.6886 8.70333 18.5952 8.83667 18.5252 9.02C18.4552 9.20333 18.4202 9.44 18.4202 9.73C18.4202 10.13 18.4886 10.4383 18.6252 10.655C18.7619 10.8683 18.9519 10.975 19.1952 10.975ZM20.9354 8.525C20.9354 8.465 20.9737 8.40667 21.0504 8.35C21.1271 8.29 21.2304 8.24167 21.3604 8.205C21.4904 8.16833 21.6321 8.15 21.7854 8.15C21.9987 8.15 22.1821 8.18667 22.3354 8.26C22.4887 8.33 22.6071 8.43 22.6904 8.56C22.7737 8.69 22.8154 8.84333 22.8154 9.02C22.8154 9.20333 22.7637 9.38333 22.6604 9.56C22.5604 9.73667 22.3871 9.93833 22.1404 10.165L21.3254 10.92H22.8104C22.8237 10.9333 22.8354 10.955 22.8454 10.985C22.8554 11.0117 22.8604 11.0433 22.8604 11.08C22.8604 11.1333 22.8454 11.175 22.8154 11.205C22.7887 11.235 22.7521 11.25 22.7054 11.25H20.9404C20.9071 11.2267 20.8821 11.1983 20.8654 11.165C20.8487 11.1283 20.8404 11.09 20.8404 11.05C20.8404 10.9967 20.8504 10.95 20.8704 10.91C20.8904 10.8667 20.9204 10.8267 20.9604 10.79L21.8604 9.925C22.0671 9.73167 22.2087 9.57 22.2854 9.44C22.3621 9.30667 22.4004 9.16833 22.4004 9.025C22.4004 8.86833 22.3471 8.74 22.2404 8.64C22.1337 8.54 21.9721 8.49 21.7554 8.49C21.6087 8.49 21.4771 8.515 21.3604 8.565C21.2471 8.615 21.1521 8.66833 21.0754 8.725C21.0387 8.70833 21.0054 8.68333 20.9754 8.65C20.9487 8.61667 20.9354 8.575 20.9354 8.525Z" fill="#A73C4C"/>
<path d="M28.535 22.525C28.535 22.465 28.5733 22.4067 28.65 22.35C28.7267 22.29 28.83 22.2417 28.96 22.205C29.09 22.1683 29.2317 22.15 29.385 22.15C29.5983 22.15 29.7817 22.1867 29.935 22.26C30.0883 22.33 30.2067 22.43 30.29 22.56C30.3733 22.69 30.415 22.8433 30.415 23.02C30.415 23.2033 30.3633 23.3833 30.26 23.56C30.16 23.7367 29.9867 23.9383 29.74 24.165L28.925 24.92H30.41C30.4233 24.9333 30.435 24.955 30.445 24.985C30.455 25.0117 30.46 25.0433 30.46 25.08C30.46 25.1333 30.445 25.175 30.415 25.205C30.3883 25.235 30.3517 25.25 30.305 25.25H28.54C28.5067 25.2267 28.4817 25.1983 28.465 25.165C28.4483 25.1283 28.44 25.09 28.44 25.05C28.44 24.9967 28.45 24.95 28.47 24.91C28.49 24.8667 28.52 24.8267 28.56 24.79L29.46 23.925C29.6667 23.7317 29.8083 23.57 29.885 23.44C29.9617 23.3067 30 23.1683 30 23.025C30 22.8683 29.9467 22.74 29.84 22.64C29.7333 22.54 29.5717 22.49 29.355 22.49C29.2083 22.49 29.0767 22.515 28.96 22.565C28.8467 22.615 28.7517 22.6683 28.675 22.725C28.6383 22.7083 28.605 22.6833 28.575 22.65C28.5483 22.6167 28.535 22.575 28.535 22.525ZM32.1952 25.315C31.9619 25.315 31.7552 25.2583 31.5752 25.145C31.3986 25.0283 31.2602 24.8533 31.1602 24.62C31.0602 24.3833 31.0102 24.0867 31.0102 23.73C31.0102 23.3467 31.0669 23.04 31.1802 22.81C31.2936 22.58 31.4402 22.4133 31.6202 22.31C31.8002 22.2033 31.9919 22.15 32.1952 22.15C32.4019 22.15 32.5952 22.2033 32.7752 22.31C32.9586 22.4167 33.1052 22.5867 33.2152 22.82C33.3286 23.05 33.3852 23.3533 33.3852 23.73C33.3852 24.0833 33.3352 24.3783 33.2352 24.615C33.1352 24.8483 32.9952 25.0233 32.8152 25.14C32.6386 25.2567 32.4319 25.315 32.1952 25.315ZM32.1952 24.975C32.4419 24.975 32.6336 24.8683 32.7702 24.655C32.9069 24.4383 32.9752 24.13 32.9752 23.73C32.9752 23.4333 32.9386 23.195 32.8652 23.015C32.7952 22.8317 32.7019 22.6983 32.5852 22.615C32.4686 22.5317 32.3386 22.49 32.1952 22.49C32.0552 22.49 31.9252 22.5333 31.8052 22.62C31.6886 22.7033 31.5952 22.8367 31.5252 23.02C31.4552 23.2033 31.4202 23.44 31.4202 23.73C31.4202 24.13 31.4886 24.4383 31.6252 24.655C31.7619 24.8683 31.9519 24.975 32.1952 24.975ZM34.8764 24.13H34.4714V22.6L33.8314 22.9C33.7881 22.8833 33.7514 22.8583 33.7214 22.825C33.6948 22.7917 33.6814 22.75 33.6814 22.7C33.6814 22.6033 33.7414 22.53 33.8614 22.48L34.5614 22.175H34.6564C34.7231 22.175 34.7764 22.195 34.8164 22.235C34.8564 22.275 34.8764 22.3283 34.8764 22.395V24.13ZM34.4714 23.93H34.8764V25.255C34.8564 25.2617 34.8298 25.2683 34.7964 25.275C34.7631 25.285 34.7264 25.29 34.6864 25.29C34.6164 25.29 34.5631 25.275 34.5264 25.245C34.4898 25.215 34.4714 25.1683 34.4714 25.105V23.93Z" fill="#A73C4C"/>
<path d="M3.535 33.525C3.535 33.465 3.57333 33.4067 3.65 33.35C3.72667 33.29 3.83 33.2417 3.96 33.205C4.09 33.1683 4.23167 33.15 4.385 33.15C4.59833 33.15 4.78167 33.1867 4.935 33.26C5.08833 33.33 5.20667 33.43 5.29 33.56C5.37333 33.69 5.415 33.8433 5.415 34.02C5.415 34.2033 5.36333 34.3833 5.26 34.56C5.16 34.7367 4.98667 34.9383 4.74 35.165L3.925 35.92H5.41C5.42333 35.9333 5.435 35.955 5.445 35.985C5.455 36.0117 5.46 36.0433 5.46 36.08C5.46 36.1333 5.445 36.175 5.415 36.205C5.38833 36.235 5.35167 36.25 5.305 36.25H3.54C3.50667 36.2267 3.48167 36.1983 3.465 36.165C3.44833 36.1283 3.44 36.09 3.44 36.05C3.44 35.9967 3.45 35.95 3.47 35.91C3.49 35.8667 3.52 35.8267 3.56 35.79L4.46 34.925C4.66667 34.7317 4.80833 34.57 4.885 34.44C4.96167 34.3067 5 34.1683 5 34.025C5 33.8683 4.94667 33.74 4.84 33.64C4.73333 33.54 4.57167 33.49 4.355 33.49C4.20833 33.49 4.07667 33.515 3.96 33.565C3.84667 33.615 3.75167 33.6683 3.675 33.725C3.63833 33.7083 3.605 33.6833 3.575 33.65C3.54833 33.6167 3.535 33.575 3.535 33.525ZM7.19523 36.315C6.9619 36.315 6.75523 36.2583 6.57523 36.145C6.39857 36.0283 6.26023 35.8533 6.16023 35.62C6.06023 35.3833 6.01023 35.0867 6.01023 34.73C6.01023 34.3467 6.0669 34.04 6.18023 33.81C6.29357 33.58 6.44023 33.4133 6.62023 33.31C6.80023 33.2033 6.9919 33.15 7.19523 33.15C7.4019 33.15 7.59523 33.2033 7.77523 33.31C7.95857 33.4167 8.10523 33.5867 8.21523 33.82C8.32857 34.05 8.38523 34.3533 8.38523 34.73C8.38523 35.0833 8.33523 35.3783 8.23523 35.615C8.13523 35.8483 7.99523 36.0233 7.81523 36.14C7.63857 36.2567 7.4319 36.315 7.19523 36.315ZM7.19523 35.975C7.4419 35.975 7.63357 35.8683 7.77023 35.655C7.9069 35.4383 7.97523 35.13 7.97523 34.73C7.97523 34.4333 7.93857 34.195 7.86523 34.015C7.79523 33.8317 7.7019 33.6983 7.58523 33.615C7.46857 33.5317 7.33857 33.49 7.19523 33.49C7.05523 33.49 6.92523 33.5333 6.80523 33.62C6.68857 33.7033 6.59523 33.8367 6.52523 34.02C6.45523 34.2033 6.42023 34.44 6.42023 34.73C6.42023 35.13 6.48857 35.4383 6.62523 35.655C6.7619 35.8683 6.9519 35.975 7.19523 35.975ZM8.83969 35.135L10.2947 33.205C10.3247 33.1983 10.358 33.1933 10.3947 33.19C10.4347 33.1833 10.4697 33.18 10.4997 33.18C10.5464 33.18 10.5897 33.1867 10.6297 33.2C10.673 33.2133 10.708 33.2383 10.7347 33.275C10.7614 33.3083 10.7747 33.3583 10.7747 33.425V35.175H11.2747C11.2847 35.1917 11.2947 35.215 11.3047 35.245C11.3147 35.2717 11.3197 35.3033 11.3197 35.34C11.3197 35.3933 11.3064 35.435 11.2797 35.465C11.253 35.495 11.2147 35.51 11.1647 35.51H10.7747V36.26C10.758 36.2633 10.733 36.2683 10.6997 36.275C10.6697 36.285 10.6364 36.29 10.5997 36.29C10.5297 36.29 10.4764 36.275 10.4397 36.245C10.403 36.215 10.3847 36.1717 10.3847 36.115V35.51H8.93969C8.90635 35.4933 8.87635 35.4633 8.84969 35.42C8.82635 35.3767 8.81469 35.3283 8.81469 35.275C8.81469 35.245 8.81635 35.22 8.81969 35.2C8.82635 35.1767 8.83302 35.155 8.83969 35.135ZM10.3897 35.175L10.3997 33.6H10.3897L9.27969 35.175H10.3897Z" fill="#A73C4C"/>
<path d="M24.535 32.525C24.535 32.465 24.5733 32.4067 24.65 32.35C24.7267 32.29 24.83 32.2417 24.96 32.205C25.09 32.1683 25.2317 32.15 25.385 32.15C25.5983 32.15 25.7817 32.1867 25.935 32.26C26.0883 32.33 26.2067 32.43 26.29 32.56C26.3733 32.69 26.415 32.8433 26.415 33.02C26.415 33.2033 26.3633 33.3833 26.26 33.56C26.16 33.7367 25.9867 33.9383 25.74 34.165L24.925 34.92H26.41C26.4233 34.9333 26.435 34.955 26.445 34.985C26.455 35.0117 26.46 35.0433 26.46 35.08C26.46 35.1333 26.445 35.175 26.415 35.205C26.3883 35.235 26.3517 35.25 26.305 35.25H24.54C24.5067 35.2267 24.4817 35.1983 24.465 35.165C24.4483 35.1283 24.44 35.09 24.44 35.05C24.44 34.9967 24.45 34.95 24.47 34.91C24.49 34.8667 24.52 34.8267 24.56 34.79L25.46 33.925C25.6667 33.7317 25.8083 33.57 25.885 33.44C25.9617 33.3067 26 33.1683 26 33.025C26 32.8683 25.9467 32.74 25.84 32.64C25.7333 32.54 25.5717 32.49 25.355 32.49C25.2083 32.49 25.0767 32.515 24.96 32.565C24.8467 32.615 24.7517 32.6683 24.675 32.725C24.6383 32.7083 24.605 32.6833 24.575 32.65C24.5483 32.6167 24.535 32.575 24.535 32.525ZM28.1952 35.315C27.9619 35.315 27.7552 35.2583 27.5752 35.145C27.3986 35.0283 27.2602 34.8533 27.1602 34.62C27.0602 34.3833 27.0102 34.0867 27.0102 33.73C27.0102 33.3467 27.0669 33.04 27.1802 32.81C27.2936 32.58 27.4402 32.4133 27.6202 32.31C27.8002 32.2033 27.9919 32.15 28.1952 32.15C28.4019 32.15 28.5952 32.2033 28.7752 32.31C28.9586 32.4167 29.1052 32.5867 29.2152 32.82C29.3286 33.05 29.3852 33.3533 29.3852 33.73C29.3852 34.0833 29.3352 34.3783 29.2352 34.615C29.1352 34.8483 28.9952 35.0233 28.8152 35.14C28.6386 35.2567 28.4319 35.315 28.1952 35.315ZM28.1952 34.975C28.4419 34.975 28.6336 34.8683 28.7702 34.655C28.9069 34.4383 28.9752 34.13 28.9752 33.73C28.9752 33.4333 28.9386 33.195 28.8652 33.015C28.7952 32.8317 28.7019 32.6983 28.5852 32.615C28.4686 32.5317 28.3386 32.49 28.1952 32.49C28.0552 32.49 27.9252 32.5333 27.8052 32.62C27.6886 32.7033 27.5952 32.8367 27.5252 33.02C27.4552 33.2033 27.4202 33.44 27.4202 33.73C27.4202 34.13 27.4886 34.4383 27.6252 34.655C27.7619 34.8683 27.9519 34.975 28.1952 34.975ZM30.7012 32.145C31.0179 32.145 31.2729 32.215 31.4662 32.355C31.6629 32.4917 31.7612 32.6983 31.7612 32.975C31.7612 33.1083 31.7329 33.2233 31.6762 33.32C31.6229 33.4133 31.5579 33.4867 31.4812 33.54C31.4079 33.5933 31.3412 33.6283 31.2812 33.645C31.3712 33.6717 31.4595 33.7183 31.5462 33.785C31.6329 33.8483 31.7045 33.9317 31.7612 34.035C31.8212 34.135 31.8512 34.2567 31.8512 34.4C31.8512 34.6 31.8029 34.7667 31.7062 34.9C31.6095 35.0333 31.4762 35.135 31.3062 35.205C31.1362 35.2717 30.9395 35.305 30.7162 35.305C30.5329 35.305 30.3695 35.2867 30.2262 35.25C30.0862 35.21 29.9762 35.16 29.8962 35.1C29.8162 35.04 29.7762 34.9767 29.7762 34.91C29.7762 34.8633 29.7879 34.8233 29.8112 34.79C29.8379 34.7567 29.8712 34.7283 29.9112 34.705C29.9979 34.7717 30.1029 34.8317 30.2262 34.885C30.3529 34.9383 30.5162 34.965 30.7162 34.965C30.9362 34.965 31.1145 34.9183 31.2512 34.825C31.3879 34.7283 31.4562 34.5833 31.4562 34.39C31.4562 34.22 31.3929 34.0833 31.2662 33.98C31.1395 33.8767 30.9562 33.825 30.7162 33.825H30.3012C30.2879 33.8083 30.2762 33.785 30.2662 33.755C30.2562 33.7217 30.2512 33.6883 30.2512 33.655C30.2512 33.6183 30.2562 33.585 30.2662 33.555C30.2762 33.525 30.2879 33.5017 30.3012 33.485H30.6812C30.9279 33.485 31.1029 33.44 31.2062 33.35C31.3129 33.2567 31.3662 33.135 31.3662 32.985C31.3662 32.8217 31.3062 32.6983 31.1862 32.615C31.0662 32.5283 30.9029 32.485 30.6962 32.485C30.5362 32.485 30.3945 32.51 30.2712 32.56C30.1512 32.6067 30.0512 32.6583 29.9712 32.715C29.9379 32.6983 29.9079 32.6717 29.8812 32.635C29.8545 32.5983 29.8412 32.5583 29.8412 32.515C29.8412 32.455 29.8795 32.3967 29.9562 32.34C30.0329 32.2833 30.1362 32.2367 30.2662 32.2C30.3962 32.1633 30.5412 32.145 30.7012 32.145Z" fill="#A73C4C"/>
<path d="M24.535 49.525C24.535 49.465 24.5733 49.4067 24.65 49.35C24.7267 49.29 24.83 49.2417 24.96 49.205C25.09 49.1683 25.2317 49.15 25.385 49.15C25.5983 49.15 25.7817 49.1867 25.935 49.26C26.0883 49.33 26.2067 49.43 26.29 49.56C26.3733 49.69 26.415 49.8433 26.415 50.02C26.415 50.2033 26.3633 50.3833 26.26 50.56C26.16 50.7367 25.9867 50.9383 25.74 51.165L24.925 51.92H26.41C26.4233 51.9333 26.435 51.955 26.445 51.985C26.455 52.0117 26.46 52.0433 26.46 52.08C26.46 52.1333 26.445 52.175 26.415 52.205C26.3883 52.235 26.3517 52.25 26.305 52.25H24.54C24.5067 52.2267 24.4817 52.1983 24.465 52.165C24.4483 52.1283 24.44 52.09 24.44 52.05C24.44 51.9967 24.45 51.95 24.47 51.91C24.49 51.8667 24.52 51.8267 24.56 51.79L25.46 50.925C25.6667 50.7317 25.8083 50.57 25.885 50.44C25.9617 50.3067 26 50.1683 26 50.025C26 49.8683 25.9467 49.74 25.84 49.64C25.7333 49.54 25.5717 49.49 25.355 49.49C25.2083 49.49 25.0767 49.515 24.96 49.565C24.8467 49.615 24.7517 49.6683 24.675 49.725C24.6383 49.7083 24.605 49.6833 24.575 49.65C24.5483 49.6167 24.535 49.575 24.535 49.525ZM28.1952 52.315C27.9619 52.315 27.7552 52.2583 27.5752 52.145C27.3986 52.0283 27.2602 51.8533 27.1602 51.62C27.0602 51.3833 27.0102 51.0867 27.0102 50.73C27.0102 50.3467 27.0669 50.04 27.1802 49.81C27.2936 49.58 27.4402 49.4133 27.6202 49.31C27.8002 49.2033 27.9919 49.15 28.1952 49.15C28.4019 49.15 28.5952 49.2033 28.7752 49.31C28.9586 49.4167 29.1052 49.5867 29.2152 49.82C29.3286 50.05 29.3852 50.3533 29.3852 50.73C29.3852 51.0833 29.3352 51.3783 29.2352 51.615C29.1352 51.8483 28.9952 52.0233 28.8152 52.14C28.6386 52.2567 28.4319 52.315 28.1952 52.315ZM28.1952 51.975C28.4419 51.975 28.6336 51.8683 28.7702 51.655C28.9069 51.4383 28.9752 51.13 28.9752 50.73C28.9752 50.4333 28.9386 50.195 28.8652 50.015C28.7952 49.8317 28.7019 49.6983 28.5852 49.615C28.4686 49.5317 28.3386 49.49 28.1952 49.49C28.0552 49.49 27.9252 49.5333 27.8052 49.62C27.6886 49.7033 27.5952 49.8367 27.5252 50.02C27.4552 50.2033 27.4202 50.44 27.4202 50.73C27.4202 51.13 27.4886 51.4383 27.6252 51.655C27.7619 51.8683 27.9519 51.975 28.1952 51.975ZM30.6753 49.21L30.5403 49.505L30.4553 50.45C30.5119 50.42 30.5903 50.3917 30.6903 50.365C30.7936 50.335 30.9019 50.32 31.0153 50.32C31.2153 50.32 31.3953 50.3583 31.5553 50.435C31.7153 50.5083 31.8419 50.6183 31.9353 50.765C32.0319 50.9083 32.0803 51.0867 32.0803 51.3C32.0803 51.4933 32.0353 51.6667 31.9453 51.82C31.8586 51.9733 31.7303 52.095 31.5603 52.185C31.3936 52.2717 31.1886 52.315 30.9453 52.315C30.7553 52.315 30.5886 52.2933 30.4453 52.25C30.3019 52.2067 30.1903 52.1533 30.1103 52.09C30.0303 52.0267 29.9903 51.965 29.9903 51.905C29.9903 51.8517 30.0069 51.805 30.0403 51.765C30.0769 51.725 30.1136 51.6983 30.1503 51.685C30.2236 51.7483 30.3269 51.8133 30.4603 51.88C30.5936 51.9467 30.7553 51.98 30.9453 51.98C31.1753 51.98 31.3536 51.9167 31.4803 51.79C31.6069 51.66 31.6703 51.4967 31.6703 51.3C31.6703 51.0967 31.6053 50.9383 31.4753 50.825C31.3453 50.7117 31.1753 50.655 30.9653 50.655C30.8486 50.655 30.7419 50.6733 30.6453 50.71C30.5486 50.7467 30.4586 50.7883 30.3753 50.835C30.2853 50.8283 30.2119 50.8017 30.1553 50.755C30.1019 50.705 30.0753 50.6417 30.0753 50.565C30.0753 50.545 30.0753 50.52 30.0753 50.49C30.0786 50.4567 30.0819 50.425 30.0853 50.395L30.1703 49.44C30.1769 49.37 30.1986 49.315 30.2353 49.275C30.2719 49.2317 30.3253 49.21 30.3953 49.21H30.6753ZM30.4653 49.55V49.21H31.9253C31.9353 49.2233 31.9453 49.245 31.9553 49.275C31.9653 49.305 31.9703 49.3367 31.9703 49.37C31.9703 49.4233 31.9569 49.4667 31.9303 49.5C31.9036 49.5333 31.8653 49.55 31.8153 49.55H30.4653Z" fill="#A73C4C"/>
<path d="M24.535 68.525C24.535 68.465 24.5733 68.4067 24.65 68.35C24.7267 68.29 24.83 68.2417 24.96 68.205C25.09 68.1683 25.2317 68.15 25.385 68.15C25.5983 68.15 25.7817 68.1867 25.935 68.26C26.0883 68.33 26.2067 68.43 26.29 68.56C26.3733 68.69 26.415 68.8433 26.415 69.02C26.415 69.2033 26.3633 69.3833 26.26 69.56C26.16 69.7367 25.9867 69.9383 25.74 70.165L24.925 70.92H26.41C26.4233 70.9333 26.435 70.955 26.445 70.985C26.455 71.0117 26.46 71.0433 26.46 71.08C26.46 71.1333 26.445 71.175 26.415 71.205C26.3883 71.235 26.3517 71.25 26.305 71.25H24.54C24.5067 71.2267 24.4817 71.1983 24.465 71.165C24.4483 71.1283 24.44 71.09 24.44 71.05C24.44 70.9967 24.45 70.95 24.47 70.91C24.49 70.8667 24.52 70.8267 24.56 70.79L25.46 69.925C25.6667 69.7317 25.8083 69.57 25.885 69.44C25.9617 69.3067 26 69.1683 26 69.025C26 68.8683 25.9467 68.74 25.84 68.64C25.7333 68.54 25.5717 68.49 25.355 68.49C25.2083 68.49 25.0767 68.515 24.96 68.565C24.8467 68.615 24.7517 68.6683 24.675 68.725C24.6383 68.7083 24.605 68.6833 24.575 68.65C24.5483 68.6167 24.535 68.575 24.535 68.525ZM28.1952 71.315C27.9619 71.315 27.7552 71.2583 27.5752 71.145C27.3986 71.0283 27.2602 70.8533 27.1602 70.62C27.0602 70.3833 27.0102 70.0867 27.0102 69.73C27.0102 69.3467 27.0669 69.04 27.1802 68.81C27.2936 68.58 27.4402 68.4133 27.6202 68.31C27.8002 68.2033 27.9919 68.15 28.1952 68.15C28.4019 68.15 28.5952 68.2033 28.7752 68.31C28.9586 68.4167 29.1052 68.5867 29.2152 68.82C29.3286 69.05 29.3852 69.3533 29.3852 69.73C29.3852 70.0833 29.3352 70.3783 29.2352 70.615C29.1352 70.8483 28.9952 71.0233 28.8152 71.14C28.6386 71.2567 28.4319 71.315 28.1952 71.315ZM28.1952 70.975C28.4419 70.975 28.6336 70.8683 28.7702 70.655C28.9069 70.4383 28.9752 70.13 28.9752 69.73C28.9752 69.4333 28.9386 69.195 28.8652 69.015C28.7952 68.8317 28.7019 68.6983 28.5852 68.615C28.4686 68.5317 28.3386 68.49 28.1952 68.49C28.0552 68.49 27.9252 68.5333 27.8052 68.62C27.6886 68.7033 27.5952 68.8367 27.5252 69.02C27.4552 69.2033 27.4202 69.44 27.4202 69.73C27.4202 70.13 27.4886 70.4383 27.6252 70.655C27.7619 70.8683 27.9519 70.975 28.1952 70.975ZM29.8717 68.21H31.6717C31.7083 68.23 31.7367 68.2583 31.7567 68.295C31.7767 68.3283 31.7867 68.3667 31.7867 68.41C31.7867 68.4433 31.7817 68.4767 31.7717 68.51C31.765 68.5433 31.7517 68.58 31.7317 68.62L30.4767 71.27C30.4567 71.2733 30.4367 71.275 30.4167 71.275C30.4 71.275 30.3817 71.275 30.3617 71.275C30.2983 71.275 30.2433 71.26 30.1967 71.23C30.15 71.1967 30.1267 71.1517 30.1267 71.095C30.1267 71.055 30.135 71.0167 30.1517 70.98C30.1683 70.94 30.1883 70.895 30.2117 70.845L31.3417 68.55H29.7617C29.7517 68.5333 29.7417 68.5117 29.7317 68.485C29.7217 68.455 29.7167 68.4233 29.7167 68.39C29.7167 68.3333 29.73 68.29 29.7567 68.26C29.7833 68.2267 29.8217 68.21 29.8717 68.21Z" fill="#A73C4C"/>
<path d="M3.535 68.525C3.535 68.465 3.57333 68.4067 3.65 68.35C3.72667 68.29 3.83 68.2417 3.96 68.205C4.09 68.1683 4.23167 68.15 4.385 68.15C4.59833 68.15 4.78167 68.1867 4.935 68.26C5.08833 68.33 5.20667 68.43 5.29 68.56C5.37333 68.69 5.415 68.8433 5.415 69.02C5.415 69.2033 5.36333 69.3833 5.26 69.56C5.16 69.7367 4.98667 69.9383 4.74 70.165L3.925 70.92H5.41C5.42333 70.9333 5.435 70.955 5.445 70.985C5.455 71.0117 5.46 71.0433 5.46 71.08C5.46 71.1333 5.445 71.175 5.415 71.205C5.38833 71.235 5.35167 71.25 5.305 71.25H3.54C3.50667 71.2267 3.48167 71.1983 3.465 71.165C3.44833 71.1283 3.44 71.09 3.44 71.05C3.44 70.9967 3.45 70.95 3.47 70.91C3.49 70.8667 3.52 70.8267 3.56 70.79L4.46 69.925C4.66667 69.7317 4.80833 69.57 4.885 69.44C4.96167 69.3067 5 69.1683 5 69.025C5 68.8683 4.94667 68.74 4.84 68.64C4.73333 68.54 4.57167 68.49 4.355 68.49C4.20833 68.49 4.07667 68.515 3.96 68.565C3.84667 68.615 3.75167 68.6683 3.675 68.725C3.63833 68.7083 3.605 68.6833 3.575 68.65C3.54833 68.6167 3.535 68.575 3.535 68.525ZM7.19523 71.315C6.9619 71.315 6.75523 71.2583 6.57523 71.145C6.39857 71.0283 6.26023 70.8533 6.16023 70.62C6.06023 70.3833 6.01023 70.0867 6.01023 69.73C6.01023 69.3467 6.0669 69.04 6.18023 68.81C6.29357 68.58 6.44023 68.4133 6.62023 68.31C6.80023 68.2033 6.9919 68.15 7.19523 68.15C7.4019 68.15 7.59523 68.2033 7.77523 68.31C7.95857 68.4167 8.10523 68.5867 8.21523 68.82C8.32857 69.05 8.38523 69.3533 8.38523 69.73C8.38523 70.0833 8.33523 70.3783 8.23523 70.615C8.13523 70.8483 7.99523 71.0233 7.81523 71.14C7.63857 71.2567 7.4319 71.315 7.19523 71.315ZM7.19523 70.975C7.4419 70.975 7.63357 70.8683 7.77023 70.655C7.9069 70.4383 7.97523 70.13 7.97523 69.73C7.97523 69.4333 7.93857 69.195 7.86523 69.015C7.79523 68.8317 7.7019 68.6983 7.58523 68.615C7.46857 68.5317 7.33857 68.49 7.19523 68.49C7.05523 68.49 6.92523 68.5333 6.80523 68.62C6.68857 68.7033 6.59523 68.8367 6.52523 69.02C6.45523 69.2033 6.42023 69.44 6.42023 69.73C6.42023 70.13 6.48857 70.4383 6.62523 70.655C6.7619 70.8683 6.9519 70.975 7.19523 70.975ZM10.0803 71.315C9.85361 71.315 9.65527 71.2817 9.48527 71.215C9.31527 71.145 9.18361 71.045 9.09027 70.915C8.99694 70.785 8.95027 70.6283 8.95027 70.445C8.95027 70.2817 8.98694 70.1433 9.06027 70.03C9.13694 69.9133 9.23361 69.82 9.35027 69.75C9.46694 69.68 9.58861 69.6333 9.71527 69.61L10.0153 69.56C10.2553 69.5133 10.4353 69.445 10.5553 69.355C10.6753 69.2617 10.7353 69.1383 10.7353 68.985C10.7353 68.8283 10.6769 68.7067 10.5603 68.62C10.4436 68.53 10.2836 68.485 10.0803 68.485C9.88361 68.485 9.72527 68.53 9.60527 68.62C9.48527 68.71 9.42527 68.83 9.42527 68.98C9.42527 69.1067 9.45861 69.2083 9.52527 69.285C9.59527 69.3617 9.68694 69.42 9.80027 69.46C9.91694 69.4967 10.0436 69.5217 10.1803 69.535L10.4003 69.61C10.5369 69.6367 10.6669 69.685 10.7903 69.755C10.9136 69.8217 11.0136 69.9117 11.0903 70.025C11.1669 70.1383 11.2053 70.28 11.2053 70.45C11.2053 70.63 11.1569 70.785 11.0603 70.915C10.9669 71.045 10.8353 71.145 10.6653 71.215C10.4986 71.2817 10.3036 71.315 10.0803 71.315ZM10.0803 70.98C10.2969 70.98 10.4719 70.9333 10.6053 70.84C10.7386 70.7467 10.8053 70.6117 10.8053 70.435C10.8053 70.2417 10.7236 70.0883 10.5603 69.975C10.4003 69.8617 10.1853 69.7967 9.91527 69.78L9.66027 69.705C9.46694 69.6517 9.31194 69.565 9.19527 69.445C9.08194 69.325 9.02527 69.1683 9.02527 68.975C9.02527 68.805 9.06861 68.6583 9.15527 68.535C9.24527 68.4117 9.36861 68.3167 9.52527 68.25C9.68527 68.1833 9.87027 68.15 10.0803 68.15C10.4069 68.15 10.6636 68.225 10.8503 68.375C11.0403 68.5217 11.1353 68.725 11.1353 68.985C11.1353 69.195 11.0636 69.36 10.9203 69.48C10.7803 69.6 10.6086 69.6783 10.4053 69.715L10.0653 69.785C9.85194 69.8183 9.67861 69.8917 9.54527 70.005C9.41527 70.115 9.35027 70.26 9.35027 70.44C9.35027 70.61 9.41527 70.7433 9.54527 70.84C9.67527 70.9333 9.85361 70.98 10.0803 70.98Z" fill="#A73C4C"/>
<path d="M3.535 48.525C3.535 48.465 3.57333 48.4067 3.65 48.35C3.72667 48.29 3.83 48.2417 3.96 48.205C4.09 48.1683 4.23167 48.15 4.385 48.15C4.59833 48.15 4.78167 48.1867 4.935 48.26C5.08833 48.33 5.20667 48.43 5.29 48.56C5.37333 48.69 5.415 48.8433 5.415 49.02C5.415 49.2033 5.36333 49.3833 5.26 49.56C5.16 49.7367 4.98667 49.9383 4.74 50.165L3.925 50.92H5.41C5.42333 50.9333 5.435 50.955 5.445 50.985C5.455 51.0117 5.46 51.0433 5.46 51.08C5.46 51.1333 5.445 51.175 5.415 51.205C5.38833 51.235 5.35167 51.25 5.305 51.25H3.54C3.50667 51.2267 3.48167 51.1983 3.465 51.165C3.44833 51.1283 3.44 51.09 3.44 51.05C3.44 50.9967 3.45 50.95 3.47 50.91C3.49 50.8667 3.52 50.8267 3.56 50.79L4.46 49.925C4.66667 49.7317 4.80833 49.57 4.885 49.44C4.96167 49.3067 5 49.1683 5 49.025C5 48.8683 4.94667 48.74 4.84 48.64C4.73333 48.54 4.57167 48.49 4.355 48.49C4.20833 48.49 4.07667 48.515 3.96 48.565C3.84667 48.615 3.75167 48.6683 3.675 48.725C3.63833 48.7083 3.605 48.6833 3.575 48.65C3.54833 48.6167 3.535 48.575 3.535 48.525ZM7.19523 51.315C6.9619 51.315 6.75523 51.2583 6.57523 51.145C6.39857 51.0283 6.26023 50.8533 6.16023 50.62C6.06023 50.3833 6.01023 50.0867 6.01023 49.73C6.01023 49.3467 6.0669 49.04 6.18023 48.81C6.29357 48.58 6.44023 48.4133 6.62023 48.31C6.80023 48.2033 6.9919 48.15 7.19523 48.15C7.4019 48.15 7.59523 48.2033 7.77523 48.31C7.95857 48.4167 8.10523 48.5867 8.21523 48.82C8.32857 49.05 8.38523 49.3533 8.38523 49.73C8.38523 50.0833 8.33523 50.3783 8.23523 50.615C8.13523 50.8483 7.99523 51.0233 7.81523 51.14C7.63857 51.2567 7.4319 51.315 7.19523 51.315ZM7.19523 50.975C7.4419 50.975 7.63357 50.8683 7.77023 50.655C7.9069 50.4383 7.97523 50.13 7.97523 49.73C7.97523 49.4333 7.93857 49.195 7.86523 49.015C7.79523 48.8317 7.7019 48.6983 7.58523 48.615C7.46857 48.5317 7.33857 48.49 7.19523 48.49C7.05523 48.49 6.92523 48.5333 6.80523 48.62C6.68857 48.7033 6.59523 48.8367 6.52523 49.02C6.45523 49.2033 6.42023 49.44 6.42023 49.73C6.42023 50.13 6.48857 50.4383 6.62523 50.655C6.7619 50.8683 6.9519 50.975 7.19523 50.975ZM10.9303 48.445C10.9303 48.485 10.9186 48.5233 10.8953 48.56C10.8753 48.5933 10.8486 48.6183 10.8153 48.635C10.7419 48.5983 10.6586 48.5667 10.5653 48.54C10.4753 48.51 10.3769 48.495 10.2703 48.495C10.0103 48.495 9.79027 48.5883 9.61027 48.775C9.43361 48.9617 9.34027 49.2533 9.33027 49.65C9.39694 49.5833 9.49861 49.5133 9.63527 49.44C9.77527 49.3633 9.94694 49.325 10.1503 49.325C10.4436 49.325 10.6853 49.4083 10.8753 49.575C11.0653 49.7417 11.1603 49.9883 11.1603 50.315C11.1603 50.5217 11.1153 50.7 11.0253 50.85C10.9386 51 10.8153 51.115 10.6553 51.195C10.4986 51.275 10.3119 51.315 10.0953 51.315C9.87194 51.315 9.67194 51.265 9.49527 51.165C9.31861 51.0617 9.17861 50.9017 9.07527 50.685C8.97527 50.465 8.92527 50.1783 8.92527 49.825C8.92527 49.5117 8.96194 49.2483 9.03527 49.035C9.11194 48.8183 9.21361 48.6467 9.34027 48.52C9.46694 48.39 9.61027 48.2967 9.77027 48.24C9.93027 48.18 10.0936 48.15 10.2603 48.15C10.3769 48.15 10.4853 48.1617 10.5853 48.185C10.6886 48.2083 10.7719 48.2417 10.8353 48.285C10.8986 48.3283 10.9303 48.3817 10.9303 48.445ZM10.0953 50.98C10.2886 50.98 10.4469 50.9217 10.5703 50.805C10.6936 50.685 10.7553 50.5183 10.7553 50.305C10.7553 50.0883 10.6919 49.9283 10.5653 49.825C10.4419 49.7183 10.2886 49.665 10.1053 49.665C9.92194 49.665 9.76361 49.705 9.63027 49.785C9.49694 49.8617 9.39194 49.955 9.31527 50.065L9.33027 50.03C9.33027 50.3133 9.39694 50.5433 9.53027 50.72C9.66361 50.8933 9.85194 50.98 10.0953 50.98Z" fill="#A73C4C"/>
<path d="M3.535 82.525C3.535 82.465 3.57333 82.4067 3.65 82.35C3.72667 82.29 3.83 82.2417 3.96 82.205C4.09 82.1683 4.23167 82.15 4.385 82.15C4.59833 82.15 4.78167 82.1867 4.935 82.26C5.08833 82.33 5.20667 82.43 5.29 82.56C5.37333 82.69 5.415 82.8433 5.415 83.02C5.415 83.2033 5.36333 83.3833 5.26 83.56C5.16 83.7367 4.98667 83.9383 4.74 84.165L3.925 84.92H5.41C5.42333 84.9333 5.435 84.955 5.445 84.985C5.455 85.0117 5.46 85.0433 5.46 85.08C5.46 85.1333 5.445 85.175 5.415 85.205C5.38833 85.235 5.35167 85.25 5.305 85.25H3.54C3.50667 85.2267 3.48167 85.1983 3.465 85.165C3.44833 85.1283 3.44 85.09 3.44 85.05C3.44 84.9967 3.45 84.95 3.47 84.91C3.49 84.8667 3.52 84.8267 3.56 84.79L4.46 83.925C4.66667 83.7317 4.80833 83.57 4.885 83.44C4.96167 83.3067 5 83.1683 5 83.025C5 82.8683 4.94667 82.74 4.84 82.64C4.73333 82.54 4.57167 82.49 4.355 82.49C4.20833 82.49 4.07667 82.515 3.96 82.565C3.84667 82.615 3.75167 82.6683 3.675 82.725C3.63833 82.7083 3.605 82.6833 3.575 82.65C3.54833 82.6167 3.535 82.575 3.535 82.525ZM7.05906 84.13H6.65406V82.6L6.01406 82.9C5.97073 82.8833 5.93406 82.8583 5.90406 82.825C5.8774 82.7917 5.86406 82.75 5.86406 82.7C5.86406 82.6033 5.92406 82.53 6.04406 82.48L6.74406 82.175H6.83906C6.90573 82.175 6.95906 82.195 6.99906 82.235C7.03906 82.275 7.05906 82.3283 7.05906 82.395V84.13ZM6.65406 83.93H7.05906V85.255C7.03906 85.2617 7.0124 85.2683 6.97906 85.275C6.94573 85.285 6.90906 85.29 6.86906 85.29C6.79906 85.29 6.74573 85.275 6.70906 85.245C6.6724 85.215 6.65406 85.1683 6.65406 85.105V83.93ZM9.03117 85.315C8.79784 85.315 8.59117 85.2583 8.41117 85.145C8.23451 85.0283 8.09617 84.8533 7.99617 84.62C7.89617 84.3833 7.84617 84.0867 7.84617 83.73C7.84617 83.3467 7.90284 83.04 8.01617 82.81C8.12951 82.58 8.27617 82.4133 8.45617 82.31C8.63617 82.2033 8.82784 82.15 9.03117 82.15C9.23784 82.15 9.43117 82.2033 9.61117 82.31C9.79451 82.4167 9.94117 82.5867 10.0512 82.82C10.1645 83.05 10.2212 83.3533 10.2212 83.73C10.2212 84.0833 10.1712 84.3783 10.0712 84.615C9.97117 84.8483 9.83117 85.0233 9.65117 85.14C9.47451 85.2567 9.26784 85.315 9.03117 85.315ZM9.03117 84.975C9.27784 84.975 9.46951 84.8683 9.60617 84.655C9.74284 84.4383 9.81117 84.13 9.81117 83.73C9.81117 83.4333 9.77451 83.195 9.70117 83.015C9.63117 82.8317 9.53784 82.6983 9.42117 82.615C9.30451 82.5317 9.17451 82.49 9.03117 82.49C8.89117 82.49 8.76117 82.5333 8.64117 82.62C8.52451 82.7033 8.43117 82.8367 8.36117 83.02C8.29117 83.2033 8.25617 83.44 8.25617 83.73C8.25617 84.13 8.32451 84.4383 8.46117 84.655C8.59784 84.8683 8.78784 84.975 9.03117 84.975Z" fill="#A73C4C"/>
<path d="M23.535 82.525C23.535 82.465 23.5733 82.4067 23.65 82.35C23.7267 82.29 23.83 82.2417 23.96 82.205C24.09 82.1683 24.2317 82.15 24.385 82.15C24.5983 82.15 24.7817 82.1867 24.935 82.26C25.0883 82.33 25.2067 82.43 25.29 82.56C25.3733 82.69 25.415 82.8433 25.415 83.02C25.415 83.2033 25.3633 83.3833 25.26 83.56C25.16 83.7367 24.9867 83.9383 24.74 84.165L23.925 84.92H25.41C25.4233 84.9333 25.435 84.955 25.445 84.985C25.455 85.0117 25.46 85.0433 25.46 85.08C25.46 85.1333 25.445 85.175 25.415 85.205C25.3883 85.235 25.3517 85.25 25.305 85.25H23.54C23.5067 85.2267 23.4817 85.1983 23.465 85.165C23.4483 85.1283 23.44 85.09 23.44 85.05C23.44 84.9967 23.45 84.95 23.47 84.91C23.49 84.8667 23.52 84.8267 23.56 84.79L24.46 83.925C24.6667 83.7317 24.8083 83.57 24.885 83.44C24.9617 83.3067 25 83.1683 25 83.025C25 82.8683 24.9467 82.74 24.84 82.64C24.7333 82.54 24.5717 82.49 24.355 82.49C24.2083 82.49 24.0767 82.515 23.96 82.565C23.8467 82.615 23.7517 82.6683 23.675 82.725C23.6383 82.7083 23.605 82.6833 23.575 82.65C23.5483 82.6167 23.535 82.575 23.535 82.525ZM27.1952 85.315C26.9619 85.315 26.7552 85.2583 26.5752 85.145C26.3986 85.0283 26.2602 84.8533 26.1602 84.62C26.0602 84.3833 26.0102 84.0867 26.0102 83.73C26.0102 83.3467 26.0669 83.04 26.1802 82.81C26.2936 82.58 26.4402 82.4133 26.6202 82.31C26.8002 82.2033 26.9919 82.15 27.1952 82.15C27.4019 82.15 27.5952 82.2033 27.7752 82.31C27.9586 82.4167 28.1052 82.5867 28.2152 82.82C28.3286 83.05 28.3852 83.3533 28.3852 83.73C28.3852 84.0833 28.3352 84.3783 28.2352 84.615C28.1352 84.8483 27.9952 85.0233 27.8152 85.14C27.6386 85.2567 27.4319 85.315 27.1952 85.315ZM27.1952 84.975C27.4419 84.975 27.6336 84.8683 27.7702 84.655C27.9069 84.4383 27.9752 84.13 27.9752 83.73C27.9752 83.4333 27.9386 83.195 27.8652 83.015C27.7952 82.8317 27.7019 82.6983 27.5852 82.615C27.4686 82.5317 27.3386 82.49 27.1952 82.49C27.0552 82.49 26.9252 82.5333 26.8052 82.62C26.6886 82.7033 26.5952 82.8367 26.5252 83.02C26.4552 83.2033 26.4202 83.44 26.4202 83.73C26.4202 84.13 26.4886 84.4383 26.6252 84.655C26.7619 84.8683 26.9519 84.975 27.1952 84.975ZM29.0409 85.005C29.0409 84.965 29.0509 84.9267 29.0709 84.89C29.0942 84.8533 29.1225 84.8267 29.1559 84.81C29.2192 84.8467 29.3009 84.8833 29.4009 84.92C29.5042 84.9533 29.6259 84.97 29.7659 84.97C29.9392 84.97 30.0975 84.9333 30.2409 84.86C30.3842 84.7867 30.4992 84.6667 30.5859 84.5C30.6725 84.33 30.7159 84.1067 30.7159 83.83C30.6859 83.8633 30.6359 83.905 30.5659 83.955C30.4992 84.0017 30.4142 84.0433 30.3109 84.08C30.2075 84.1167 30.0875 84.135 29.9509 84.135C29.7642 84.135 29.5892 84.1033 29.4259 84.04C29.2625 83.9733 29.1309 83.8683 29.0309 83.725C28.9342 83.5817 28.8859 83.3933 28.8859 83.16C28.8859 82.95 28.9325 82.77 29.0259 82.62C29.1192 82.4667 29.2459 82.35 29.4059 82.27C29.5659 82.19 29.7442 82.15 29.9409 82.15C30.1709 82.15 30.3742 82.2033 30.5509 82.31C30.7275 82.4133 30.8659 82.575 30.9659 82.795C31.0692 83.0117 31.1209 83.2917 31.1209 83.635C31.1209 84.0417 31.0642 84.3683 30.9509 84.615C30.8375 84.8617 30.6792 85.04 30.4759 85.15C30.2759 85.26 30.0409 85.315 29.7709 85.315C29.5709 85.315 29.3992 85.2883 29.2559 85.235C29.1125 85.1817 29.0409 85.105 29.0409 85.005ZM30.0059 83.8C30.1759 83.8 30.3259 83.7583 30.4559 83.675C30.5892 83.5883 30.6775 83.4933 30.7209 83.39L30.7159 83.445C30.7159 83.1483 30.6475 82.915 30.5109 82.745C30.3775 82.5717 30.1875 82.485 29.9409 82.485C29.7575 82.485 29.6025 82.545 29.4759 82.665C29.3525 82.7817 29.2909 82.9433 29.2909 83.15C29.2909 83.38 29.3609 83.5467 29.5009 83.65C29.6409 83.75 29.8092 83.8 30.0059 83.8Z" fill="#A73C4C"/>
<path d="M2.885 105.25L2.627 104.587H1.778L1.523 105.25H1.25L2.087 103.099H2.33L3.164 105.25H2.885ZM2.306 103.699C2.3 103.683 2.29 103.654 2.276 103.612C2.262 103.57 2.248 103.527 2.234 103.483C2.222 103.437 2.212 103.402 2.204 103.378C2.194 103.418 2.183 103.459 2.171 103.501C2.161 103.541 2.15 103.578 2.138 103.612C2.128 103.646 2.119 103.675 2.111 103.699L1.868 104.347H2.546L2.306 103.699ZM4.61502 103.642V105.028H4.84902V105.808H4.59402V105.25H3.47502V105.808H3.22302V105.028H3.35202C3.44402 104.9 3.52002 104.761 3.58002 104.611C3.64202 104.459 3.68802 104.301 3.71802 104.137C3.75002 103.971 3.76702 103.806 3.76902 103.642H4.61502ZM4.00302 103.849C3.99502 103.985 3.97402 104.126 3.94002 104.272C3.90602 104.416 3.86202 104.554 3.80802 104.686C3.75602 104.818 3.69502 104.932 3.62502 105.028H4.36002V103.849H4.00302ZM6.88918 103.642V105.25H6.65218V104.224C6.65218 104.182 6.65318 104.138 6.65518 104.092C6.65918 104.046 6.66318 104.001 6.66718 103.957H6.65818L6.13318 105.25H5.91118L5.40118 103.957H5.39218C5.39618 104.001 5.39818 104.046 5.39818 104.092C5.40018 104.138 5.40118 104.185 5.40118 104.233V105.25H5.16418V103.642H5.51518L6.02218 104.935L6.53818 103.642H6.88918ZM7.65146 104.623C7.65146 104.641 7.65046 104.667 7.64846 104.701C7.64846 104.733 7.64746 104.768 7.64546 104.806C7.64346 104.842 7.64146 104.877 7.63946 104.911C7.63746 104.943 7.63546 104.969 7.63346 104.989L8.49446 103.642H8.81846V105.25H8.57246V104.302C8.57246 104.27 8.57246 104.228 8.57246 104.176C8.57446 104.124 8.57646 104.073 8.57846 104.023C8.58046 103.971 8.58246 103.932 8.58446 103.906L7.72946 105.25H7.40246V103.642H7.65146V104.623ZM9.5942 103.642V104.311H10.4672V103.642H10.7312V105.25H10.4672V104.533H9.5942V105.25H9.3302V103.642H9.5942ZM11.4894 104.623C11.4894 104.641 11.4884 104.667 11.4864 104.701C11.4864 104.733 11.4854 104.768 11.4834 104.806C11.4814 104.842 11.4794 104.877 11.4774 104.911C11.4754 104.943 11.4734 104.969 11.4714 104.989L12.3324 103.642H12.6564V105.25H12.4104V104.302C12.4104 104.27 12.4104 104.228 12.4104 104.176C12.4124 104.124 12.4144 104.073 12.4164 104.023C12.4184 103.971 12.4204 103.932 12.4224 103.906L11.5674 105.25H11.2404V103.642H11.4894V104.623ZM13.8131 105.28C13.6711 105.28 13.5441 105.251 13.4321 105.193C13.3221 105.135 13.2351 105.045 13.1711 104.923C13.1091 104.801 13.0781 104.645 13.0781 104.455C13.0781 104.257 13.1111 104.096 13.1771 103.972C13.2431 103.848 13.3321 103.757 13.4441 103.699C13.5581 103.641 13.6871 103.612 13.8311 103.612C13.9131 103.612 13.9921 103.621 14.0681 103.639C14.1441 103.655 14.2061 103.675 14.2541 103.699L14.1731 103.918C14.1251 103.9 14.0691 103.883 14.0051 103.867C13.9411 103.851 13.8811 103.843 13.8251 103.843C13.7171 103.843 13.6281 103.866 13.5581 103.912C13.4881 103.958 13.4361 104.026 13.4021 104.116C13.3681 104.206 13.3511 104.318 13.3511 104.452C13.3511 104.58 13.3681 104.689 13.4021 104.779C13.4361 104.869 13.4871 104.937 13.5551 104.983C13.6231 105.029 13.7081 105.052 13.8101 105.052C13.8981 105.052 13.9751 105.043 14.0411 105.025C14.1091 105.007 14.1711 104.985 14.2271 104.959V105.193C14.1731 105.221 14.1131 105.242 14.0471 105.256C13.9831 105.272 13.9051 105.28 13.8131 105.28ZM15.7195 103.864H15.1945V105.25H14.9335V103.864H14.4145V103.642H15.7195V103.864ZM16.8013 103.612C16.9993 103.612 17.1583 103.681 17.2783 103.819C17.4003 103.957 17.4613 104.165 17.4613 104.443C17.4613 104.625 17.4333 104.779 17.3773 104.905C17.3232 105.029 17.2463 105.123 17.1463 105.187C17.0483 105.249 16.9323 105.28 16.7983 105.28C16.7163 105.28 16.6433 105.269 16.5793 105.247C16.5153 105.225 16.4603 105.197 16.4143 105.163C16.3703 105.127 16.3323 105.088 16.3003 105.046H16.2823C16.2863 105.08 16.2903 105.123 16.2943 105.175C16.2983 105.227 16.3003 105.272 16.3003 105.31V105.97H16.0363V103.642H16.2523L16.2883 103.861H16.3003C16.3323 103.815 16.3703 103.773 16.4143 103.735C16.4603 103.697 16.5143 103.667 16.5763 103.645C16.6403 103.623 16.7153 103.612 16.8013 103.612ZM16.7533 103.834C16.6453 103.834 16.5583 103.855 16.4923 103.897C16.4263 103.937 16.3783 103.998 16.3483 104.08C16.3183 104.162 16.3023 104.266 16.3003 104.392V104.443C16.3003 104.575 16.3143 104.687 16.3423 104.779C16.3703 104.871 16.4173 104.941 16.4833 104.989C16.5513 105.037 16.6433 105.061 16.7593 105.061C16.8573 105.061 16.9373 105.034 16.9993 104.98C17.0633 104.926 17.1103 104.853 17.1403 104.761C17.1723 104.667 17.1883 104.56 17.1883 104.44C17.1883 104.256 17.1523 104.109 17.0803 103.999C17.0103 103.889 16.9013 103.834 16.7533 103.834ZM18.491 103.615C18.687 103.615 18.832 103.658 18.926 103.744C19.02 103.83 19.067 103.967 19.067 104.155V105.25H18.875L18.824 105.022H18.812C18.766 105.08 18.718 105.129 18.668 105.169C18.62 105.207 18.564 105.235 18.5 105.253C18.438 105.271 18.362 105.28 18.272 105.28C18.176 105.28 18.089 105.263 18.011 105.229C17.935 105.195 17.875 105.143 17.831 105.073C17.787 105.001 17.765 104.911 17.765 104.803C17.765 104.643 17.828 104.52 17.954 104.434C18.08 104.346 18.274 104.298 18.536 104.29L18.809 104.281V104.185C18.809 104.051 18.78 103.958 18.722 103.906C18.664 103.854 18.582 103.828 18.476 103.828C18.392 103.828 18.312 103.841 18.236 103.867C18.16 103.891 18.089 103.919 18.023 103.951L17.942 103.753C18.012 103.715 18.095 103.683 18.191 103.657C18.287 103.629 18.387 103.615 18.491 103.615ZM18.569 104.473C18.369 104.481 18.23 104.513 18.152 104.569C18.076 104.625 18.038 104.704 18.038 104.806C18.038 104.896 18.065 104.962 18.119 105.004C18.175 105.046 18.246 105.067 18.332 105.067C18.468 105.067 18.581 105.03 18.671 104.956C18.761 104.88 18.806 104.764 18.806 104.608V104.464L18.569 104.473ZM21.1506 105.808H20.8926V105.25H19.5636V103.642H19.8276V105.028H20.6586V103.642H20.9226V105.031H21.1506V105.808ZM21.7081 104.623C21.7081 104.641 21.7071 104.667 21.7051 104.701C21.7051 104.733 21.7041 104.768 21.7021 104.806C21.7001 104.842 21.6981 104.877 21.6961 104.911C21.6941 104.943 21.6921 104.969 21.6901 104.989L22.5511 103.642H22.8751V105.25H22.6291V104.302C22.6291 104.27 22.6291 104.228 22.6291 104.176C22.6311 104.124 22.6331 104.073 22.6351 104.023C22.6371 103.971 22.6391 103.932 22.6411 103.906L21.7861 105.25H21.4591V103.642H21.7081V104.623ZM23.4858 105.25H23.1798L23.6388 104.575C23.5768 104.559 23.5168 104.534 23.4588 104.5C23.4008 104.464 23.3538 104.415 23.3178 104.353C23.2818 104.289 23.2638 104.21 23.2638 104.116C23.2638 103.962 23.3158 103.845 23.4198 103.765C23.5238 103.683 23.6618 103.642 23.8338 103.642H24.5538V105.25H24.2898V104.611H23.8998L23.4858 105.25ZM23.5188 104.119C23.5188 104.211 23.5528 104.28 23.6208 104.326C23.6908 104.37 23.7878 104.392 23.9118 104.392H24.2898V103.861H23.8608C23.7388 103.861 23.6508 103.885 23.5968 103.933C23.5448 103.981 23.5188 104.043 23.5188 104.119Z" fill="#A73C4C"/>
<path d="M26.535 91.525C26.535 91.465 26.5733 91.4067 26.65 91.35C26.7267 91.29 26.83 91.2417 26.96 91.205C27.09 91.1683 27.2317 91.15 27.385 91.15C27.5983 91.15 27.7817 91.1867 27.935 91.26C28.0883 91.33 28.2067 91.43 28.29 91.56C28.3733 91.69 28.415 91.8433 28.415 92.02C28.415 92.2033 28.3633 92.3833 28.26 92.56C28.16 92.7367 27.9867 92.9383 27.74 93.165L26.925 93.92H28.41C28.4233 93.9333 28.435 93.955 28.445 93.985C28.455 94.0117 28.46 94.0433 28.46 94.08C28.46 94.1333 28.445 94.175 28.415 94.205C28.3883 94.235 28.3517 94.25 28.305 94.25H26.54C26.5067 94.2267 26.4817 94.1983 26.465 94.165C26.4483 94.1283 26.44 94.09 26.44 94.05C26.44 93.9967 26.45 93.95 26.47 93.91C26.49 93.8667 26.52 93.8267 26.56 93.79L27.46 92.925C27.6667 92.7317 27.8083 92.57 27.885 92.44C27.9617 92.3067 28 92.1683 28 92.025C28 91.8683 27.9467 91.74 27.84 91.64C27.7333 91.54 27.5717 91.49 27.355 91.49C27.2083 91.49 27.0767 91.515 26.96 91.565C26.8467 91.615 26.7517 91.6683 26.675 91.725C26.6383 91.7083 26.605 91.6833 26.575 91.65C26.5483 91.6167 26.535 91.575 26.535 91.525ZM30.0591 93.13H29.6541V91.6L29.0141 91.9C28.9707 91.8833 28.9341 91.8583 28.9041 91.825C28.8774 91.7917 28.8641 91.75 28.8641 91.7C28.8641 91.6033 28.9241 91.53 29.0441 91.48L29.7441 91.175H29.8391C29.9057 91.175 29.9591 91.195 29.9991 91.235C30.0391 91.275 30.0591 91.3283 30.0591 91.395V93.13ZM29.6541 92.93H30.0591V94.255C30.0391 94.2617 30.0124 94.2683 29.9791 94.275C29.9457 94.285 29.9091 94.29 29.8691 94.29C29.7991 94.29 29.7457 94.275 29.7091 94.245C29.6724 94.215 29.6541 94.1683 29.6541 94.105V92.93ZM31.8706 93.13H31.4656V91.6L30.8256 91.9C30.7823 91.8833 30.7456 91.8583 30.7156 91.825C30.6889 91.7917 30.6756 91.75 30.6756 91.7C30.6756 91.6033 30.7356 91.53 30.8556 91.48L31.5556 91.175H31.6506C31.7173 91.175 31.7706 91.195 31.8106 91.235C31.8506 91.275 31.8706 91.3283 31.8706 91.395V93.13ZM31.4656 92.93H31.8706V94.255C31.8506 94.2617 31.8239 94.2683 31.7906 94.275C31.7573 94.285 31.7206 94.29 31.6806 94.29C31.6106 94.29 31.5573 94.275 31.5206 94.245C31.4839 94.215 31.4656 94.1683 31.4656 94.105V92.93Z" fill="#A73C4C"/>
</svg>
