<svg width="38" height="114" viewBox="0 0 38 114" fill="none" xmlns="http://www.w3.org/2000/svg">
<path d="M0.25 19.25H9.25V14.75H4.75V10.25H9.25V4.75H18.75V0.25H23.75V4.75H33.25V10.25H37.75V14.75H33.25V24.25H29.75V28.25H33.25V35.75H37.75V40.25H33.25V55.25H37.75V59.75H33.25V74.25H37.75V78.75H33.25V85.75H29.75V90.25H33.25V100.25H37.75V104.75H33.25V109.25H23.3722V113.75H18.75V109.25H9.25V104.75H4.75V100.25H9.25V95.25H0.25V85.75H9.25V78.75H4.75V74.25H9.25V59.75H4.75V55.25H9.25V40.25H4.75V35.75H9.25V28.25H0.25V19.25Z" fill="white"/>
<path d="M0.0185852 19.25H9.25001V14.75H4.75001V10.25H9.25001V4.75H18.75V0.25H23.75V4.75H33.25V10.25H37.75V14.75H33.25V24.25H29.75V28.25H33.25V35.75H37.75V40.25H33.25V55.25H37.75V59.75H33.25V74.25L37.75 74.25V78.75L33.25 78.75V85.75L29.75 85.75V90.25L33.25 90.25V100.25L37.75 100.25V104.75H33.25V109.25L23.4533 109.25V113.75H18.75V109.25H9.0005" stroke="#A73C4C" stroke-width="0.5"/>
<path d="M9.25 109.25V104.75H4.75V100.25L9.25 100.25V95.25H0.25V85.75L9.25 85.75V78.75H4.75V74.25L9.25 74.25V59.75H4.75V55.25H9.25V40.25H4.75V35.75H9.25V28.25H0.25V19.25" stroke="#A73C4C" stroke-width="0.5"/>
<path d="M18.75 99.75H13.5L13.5 95.25M26.25 99.75H22.25M17.75 95.75V95.25H9.25M33.25 95.25L21.0355 95.25V93.75M29.75 85.75H21.0355L21.0355 89.75M17.75 78.25V85.75H9.25003M17.75 66.75H9.25003M33.25 66.75H23.25M17.75 47.25H9.25003M33.25 47.25H23.25M17.75 36.25L17.75 28.25H9.25003M29.75 28.25H21.25V27.75M33.25 18.75H21.25V19.75M25.75 14.75H20.75M16.75 19.25H9.25003M17.25 14.75H16.25L16.25 4.74998M25.75 11.75V15.25M25.75 4.74998V8.74998M22.25 14.75L22.25 18.75M16.25 18.25V19.25M21.25 22.75V24.75M21.25 24.25H29.75M23.25 28.25L23.25 36.25M17.75 39.75V55.25M23.25 39.75V55.25M17.75 59.25L17.75 74.25M23.25 59.25L23.25 74.25M23.25 78.25V85.75M17.75 98.75V99.75M26.3386 95.25V96.25M26.3386 98.9559V109.25" stroke="#A73C4C" stroke-width="0.5"/>
<path d="M6.55 20.25C6.38431 20.25 6.25 20.3843 6.25 20.55V27.0625C6.25 27.2282 6.38431 27.3625 6.55 27.3625H7.25276H12.95C13.1157 27.3625 13.25 27.2282 13.25 27.0625V21.4946V20.55C13.25 20.3843 13.1157 20.25 12.95 20.25H6.55ZM7.86538 27.089V26.3683C7.86538 26.3131 7.91016 26.2683 7.96538 26.2683H8.64231C8.80799 26.2683 8.94231 26.134 8.94231 25.9683V25.2741C8.94231 25.2188 8.98708 25.1741 9.04231 25.1741H9.71923C9.88492 25.1741 10.0192 25.0397 10.0192 24.8741V24.1798C10.0192 24.1246 10.064 24.0798 10.1192 24.0798H10.7962C10.9618 24.0798 11.0962 23.9455 11.0962 23.7798V23.0856C11.0962 23.0304 11.1409 22.9856 11.1962 22.9856H11.8731C12.0388 22.9856 12.1731 22.8513 12.1731 22.6856V21.9914C12.1731 21.9361 12.2178 21.8914 12.2731 21.8914H12.9808V26.9889C12.9808 27.0441 12.936 27.0889 12.8808 27.0889L7.86538 27.089ZM12.9808 21.6178H12.2038C12.0382 21.6178 11.9038 21.7521 11.9038 21.9178V22.612C11.9038 22.6673 11.8591 22.712 11.8038 22.712H11.1269C10.9612 22.712 10.8269 22.8463 10.8269 23.012V23.7063C10.8269 23.7615 10.7822 23.8063 10.7269 23.8063H10.05C9.88431 23.8063 9.75 23.9406 9.75 24.1063V24.8005C9.75 24.8557 9.70523 24.9005 9.65 24.9005H8.97308C8.80739 24.9005 8.67308 25.0348 8.67308 25.2005V25.8947C8.67308 25.95 8.62831 25.9947 8.57308 25.9947H7.89615C7.73047 25.9947 7.59615 26.129 7.59615 26.2947V27.0889H6.61923C6.564 27.0889 6.51923 27.0441 6.51923 26.9889V20.6236C6.51923 20.5683 6.564 20.5236 6.61923 20.5236H12.8808C12.936 20.5236 12.9808 20.5683 12.9808 20.6236V21.6178Z" fill="#A73C4C"/>
<path d="M6.55 86.75C6.38432 86.75 6.25 86.8843 6.25 87.05V93.3524C6.25 93.5181 6.38431 93.6524 6.55 93.6524H7.22314H12.7432C12.9089 93.6524 13.0432 93.5181 13.0432 93.3524V87.9578V87.05C13.0432 86.8843 12.9089 86.75 12.7432 86.75H6.55ZM7.81767 93.387V92.6905C7.81767 92.6353 7.86244 92.5905 7.91767 92.5905H8.56278C8.72847 92.5905 8.86278 92.4562 8.86278 92.2905V91.6286C8.86278 91.5734 8.90755 91.5286 8.96278 91.5286H9.6079C9.77358 91.5286 9.9079 91.3943 9.9079 91.2286V90.5667C9.9079 90.5115 9.95267 90.4667 10.0079 90.4667H10.653C10.8187 90.4667 10.953 90.3324 10.953 90.1667V89.5048C10.953 89.4496 10.9978 89.4048 11.053 89.4048H11.6981C11.8638 89.4048 11.9981 89.2705 11.9981 89.1048V88.4429C11.9981 88.3876 12.0429 88.3429 12.0981 88.3429H12.782V93.2869C12.782 93.3421 12.7372 93.3869 12.682 93.3869L7.81767 93.387ZM12.782 88.0774H12.0368C11.8712 88.0774 11.7368 88.2117 11.7368 88.3774V89.0393C11.7368 89.0945 11.6921 89.1393 11.6368 89.1393H10.9917C10.826 89.1393 10.6917 89.2736 10.6917 89.4393V90.1012C10.6917 90.1564 10.647 90.2012 10.5917 90.2012H9.94662C9.78093 90.2012 9.64662 90.3355 9.64662 90.5012V91.1631C9.64662 91.2184 9.60185 91.2631 9.54662 91.2631H8.9015C8.73582 91.2631 8.6015 91.3974 8.6015 91.5631V92.225C8.6015 92.2803 8.55673 92.325 8.5015 92.325H7.85639C7.69071 92.325 7.55639 92.4594 7.55639 92.625V93.3869H6.61128C6.55605 93.3869 6.51128 93.3421 6.51128 93.2869V87.1155C6.51128 87.0602 6.55605 87.0155 6.61128 87.0155H12.682C12.7372 87.0155 12.782 87.0602 12.782 87.1155V88.0774Z" fill="#A73C4C"/>
<path d="M18.335 7.645C18.6517 7.645 18.9067 7.715 19.1 7.855C19.2967 7.99167 19.395 8.19833 19.395 8.475C19.395 8.60833 19.3667 8.72333 19.31 8.82C19.2567 8.91333 19.1917 8.98667 19.115 9.04C19.0417 9.09333 18.975 9.12833 18.915 9.145C19.005 9.17167 19.0933 9.21833 19.18 9.285C19.2667 9.34833 19.3383 9.43167 19.395 9.535C19.455 9.635 19.485 9.75667 19.485 9.9C19.485 10.1 19.4367 10.2667 19.34 10.4C19.2433 10.5333 19.11 10.635 18.94 10.705C18.77 10.7717 18.5733 10.805 18.35 10.805C18.1667 10.805 18.0033 10.7867 17.86 10.75C17.72 10.71 17.61 10.66 17.53 10.6C17.45 10.54 17.41 10.4767 17.41 10.41C17.41 10.3633 17.4217 10.3233 17.445 10.29C17.4717 10.2567 17.505 10.2283 17.545 10.205C17.6317 10.2717 17.7367 10.3317 17.86 10.385C17.9867 10.4383 18.15 10.465 18.35 10.465C18.57 10.465 18.7483 10.4183 18.885 10.325C19.0217 10.2283 19.09 10.0833 19.09 9.89C19.09 9.72 19.0267 9.58333 18.9 9.48C18.7733 9.37667 18.59 9.325 18.35 9.325H17.935C17.9217 9.30833 17.91 9.285 17.9 9.255C17.89 9.22167 17.885 9.18833 17.885 9.155C17.885 9.11833 17.89 9.085 17.9 9.055C17.91 9.025 17.9217 9.00167 17.935 8.985H18.315C18.5617 8.985 18.7367 8.94 18.84 8.85C18.9467 8.75667 19 8.635 19 8.485C19 8.32167 18.94 8.19833 18.82 8.115C18.7 8.02833 18.5367 7.985 18.33 7.985C18.17 7.985 18.0283 8.01 17.905 8.06C17.785 8.10667 17.685 8.15833 17.605 8.215C17.5717 8.19833 17.5417 8.17167 17.515 8.135C17.4883 8.09833 17.475 8.05833 17.475 8.015C17.475 7.955 17.5133 7.89667 17.59 7.84C17.6667 7.78333 17.77 7.73667 17.9 7.7C18.03 7.66333 18.175 7.645 18.335 7.645ZM21.2343 10.815C21.001 10.815 20.7943 10.7583 20.6143 10.645C20.4376 10.5283 20.2993 10.3533 20.1993 10.12C20.0993 9.88333 20.0493 9.58667 20.0493 9.23C20.0493 8.84667 20.106 8.54 20.2193 8.31C20.3326 8.08 20.4793 7.91333 20.6593 7.81C20.8393 7.70333 21.031 7.65 21.2343 7.65C21.441 7.65 21.6343 7.70333 21.8143 7.81C21.9976 7.91667 22.1443 8.08667 22.2543 8.32C22.3676 8.55 22.4243 8.85333 22.4243 9.23C22.4243 9.58333 22.3743 9.87833 22.2743 10.115C22.1743 10.3483 22.0343 10.5233 21.8543 10.64C21.6776 10.7567 21.471 10.815 21.2343 10.815ZM21.2343 10.475C21.481 10.475 21.6726 10.3683 21.8093 10.155C21.946 9.93833 22.0143 9.63 22.0143 9.23C22.0143 8.93333 21.9776 8.695 21.9043 8.515C21.8343 8.33167 21.741 8.19833 21.6243 8.115C21.5076 8.03167 21.3776 7.99 21.2343 7.99C21.0943 7.99 20.9643 8.03333 20.8443 8.12C20.7276 8.20333 20.6343 8.33667 20.5643 8.52C20.4943 8.70333 20.4593 8.94 20.4593 9.23C20.4593 9.63 20.5276 9.93833 20.6643 10.155C20.801 10.3683 20.991 10.475 21.2343 10.475ZM22.9745 8.025C22.9745 7.965 23.0128 7.90667 23.0895 7.85C23.1661 7.79 23.2695 7.74167 23.3995 7.705C23.5295 7.66833 23.6711 7.65 23.8245 7.65C24.0378 7.65 24.2211 7.68667 24.3745 7.76C24.5278 7.83 24.6461 7.93 24.7295 8.06C24.8128 8.19 24.8545 8.34333 24.8545 8.52C24.8545 8.70333 24.8028 8.88333 24.6995 9.06C24.5995 9.23667 24.4261 9.43833 24.1795 9.665L23.3645 10.42H24.8495C24.8628 10.4333 24.8745 10.455 24.8845 10.485C24.8945 10.5117 24.8995 10.5433 24.8995 10.58C24.8995 10.6333 24.8845 10.675 24.8545 10.705C24.8278 10.735 24.7911 10.75 24.7445 10.75H22.9795C22.9461 10.7267 22.9211 10.6983 22.9045 10.665C22.8878 10.6283 22.8795 10.59 22.8795 10.55C22.8795 10.4967 22.8895 10.45 22.9095 10.41C22.9295 10.3667 22.9595 10.3267 22.9995 10.29L23.8995 9.425C24.1061 9.23167 24.2478 9.07 24.3245 8.94C24.4011 8.80667 24.4395 8.66833 24.4395 8.525C24.4395 8.36833 24.3861 8.24 24.2795 8.14C24.1728 8.04 24.0111 7.99 23.7945 7.99C23.6478 7.99 23.5161 8.015 23.3995 8.065C23.2861 8.115 23.1911 8.16833 23.1145 8.225C23.0778 8.20833 23.0445 8.18333 23.0145 8.15C22.9878 8.11667 22.9745 8.075 22.9745 8.025Z" fill="#A73C4C"/>
<path d="M10.118 11.266C10.3713 11.266 10.5753 11.322 10.73 11.434C10.8873 11.5433 10.966 11.7087 10.966 11.93C10.966 12.0367 10.9433 12.1287 10.898 12.206C10.8553 12.2807 10.8033 12.3393 10.742 12.382C10.6833 12.4247 10.63 12.4527 10.582 12.466C10.654 12.4873 10.7247 12.5247 10.794 12.578C10.8633 12.6287 10.9207 12.6953 10.966 12.778C11.014 12.858 11.038 12.9553 11.038 13.07C11.038 13.23 10.9993 13.3633 10.922 13.47C10.8447 13.5767 10.738 13.658 10.602 13.714C10.466 13.7673 10.3087 13.794 10.13 13.794C9.98333 13.794 9.85267 13.7793 9.738 13.75C9.626 13.718 9.538 13.678 9.474 13.63C9.41 13.582 9.378 13.5313 9.378 13.478C9.378 13.4407 9.38733 13.4087 9.406 13.382C9.42733 13.3553 9.454 13.3327 9.486 13.314C9.55533 13.3673 9.63933 13.4153 9.738 13.458C9.83933 13.5007 9.97 13.522 10.13 13.522C10.306 13.522 10.4487 13.4847 10.558 13.41C10.6673 13.3327 10.722 13.2167 10.722 13.062C10.722 12.926 10.6713 12.8167 10.57 12.734C10.4687 12.6513 10.322 12.61 10.13 12.61H9.798C9.78733 12.5967 9.778 12.578 9.77 12.554C9.762 12.5273 9.758 12.5007 9.758 12.474C9.758 12.4447 9.762 12.418 9.77 12.394C9.778 12.37 9.78733 12.3513 9.798 12.338H10.102C10.2993 12.338 10.4393 12.302 10.522 12.23C10.6073 12.1553 10.65 12.058 10.65 11.938C10.65 11.8073 10.602 11.7087 10.506 11.642C10.41 11.5727 10.2793 11.538 10.114 11.538C9.986 11.538 9.87267 11.558 9.774 11.598C9.678 11.6353 9.598 11.6767 9.534 11.722C9.50733 11.7087 9.48333 11.6873 9.462 11.658C9.44067 11.6287 9.43 11.5967 9.43 11.562C9.43 11.514 9.46067 11.4673 9.522 11.422C9.58333 11.3767 9.666 11.3393 9.77 11.31C9.874 11.2807 9.99 11.266 10.118 11.266ZM12.4374 13.802C12.2508 13.802 12.0854 13.7567 11.9414 13.666C11.8001 13.5727 11.6894 13.4327 11.6094 13.246C11.5294 13.0567 11.4894 12.8193 11.4894 12.534C11.4894 12.2273 11.5348 11.982 11.6254 11.798C11.7161 11.614 11.8334 11.4807 11.9774 11.398C12.1214 11.3127 12.2748 11.27 12.4374 11.27C12.6028 11.27 12.7574 11.3127 12.9014 11.398C13.0481 11.4833 13.1654 11.6193 13.2534 11.806C13.3441 11.99 13.3894 12.2327 13.3894 12.534C13.3894 12.8167 13.3494 13.0527 13.2694 13.242C13.1894 13.4287 13.0774 13.5687 12.9334 13.662C12.7921 13.7553 12.6268 13.802 12.4374 13.802ZM12.4374 13.53C12.6348 13.53 12.7881 13.4447 12.8974 13.274C13.0068 13.1007 13.0614 12.854 13.0614 12.534C13.0614 12.2967 13.0321 12.106 12.9734 11.962C12.9174 11.8153 12.8428 11.7087 12.7494 11.642C12.6561 11.5753 12.5521 11.542 12.4374 11.542C12.3254 11.542 12.2214 11.5767 12.1254 11.646C12.0321 11.7127 11.9574 11.8193 11.9014 11.966C11.8454 12.1127 11.8174 12.302 11.8174 12.534C11.8174 12.854 11.8721 13.1007 11.9814 13.274C12.0908 13.4447 12.2428 13.53 12.4374 13.53ZM14.5824 12.854H14.2584V11.63L13.7464 11.87C13.7117 11.8567 13.6824 11.8367 13.6584 11.81C13.6371 11.7833 13.6264 11.75 13.6264 11.71C13.6264 11.6327 13.6744 11.574 13.7704 11.534L14.3304 11.29H14.4064C14.4597 11.29 14.5024 11.306 14.5344 11.338C14.5664 11.37 14.5824 11.4127 14.5824 11.466V12.854ZM14.2584 12.694H14.5824V13.754C14.5664 13.7593 14.5451 13.7647 14.5184 13.77C14.4917 13.778 14.4624 13.782 14.4304 13.782C14.3744 13.782 14.3317 13.77 14.3024 13.746C14.2731 13.722 14.2584 13.6847 14.2584 13.634V12.694Z" fill="#A73C4C"/>
<path d="M11.595 35.1525C11.8693 35.3109 12.0551 35.499 12.1525 35.7169C12.2545 35.9336 12.2363 36.1617 12.098 36.4013C12.0313 36.5168 11.9493 36.6022 11.8519 36.6576C11.759 36.7118 11.6661 36.7428 11.573 36.7506C11.4828 36.7601 11.4076 36.7571 11.3473 36.7416C11.4119 36.8097 11.4651 36.8942 11.5068 36.9953C11.5502 37.0935 11.5706 37.2015 11.568 37.3193C11.57 37.4359 11.5351 37.5563 11.4634 37.6804C11.3634 37.8536 11.2383 37.9738 11.0879 38.0409C10.9375 38.1081 10.7712 38.1294 10.589 38.1051C10.4084 38.0778 10.2214 38.0083 10.028 37.8967C9.86923 37.805 9.73695 37.7074 9.63115 37.604C9.52991 37.4994 9.45964 37.4011 9.42036 37.3091C9.38108 37.2172 9.37811 37.1423 9.41144 37.0846C9.43477 37.0442 9.46488 37.0154 9.50175 36.9982C9.54151 36.9826 9.58454 36.9748 9.63085 36.9745C9.67257 37.0756 9.73351 37.1801 9.81365 37.2879C9.89668 37.3974 10.0248 37.5022 10.198 37.6022C10.3885 37.7122 10.5663 37.761 10.7313 37.7485C10.898 37.7331 11.0297 37.6417 11.1264 37.4742C11.2114 37.327 11.2248 37.177 11.1668 37.0242C11.1088 36.8714 10.9758 36.7349 10.768 36.6149L10.4086 36.4074C10.4054 36.3863 10.407 36.3603 10.4133 36.3293C10.4213 36.2955 10.4336 36.2641 10.4503 36.2352C10.4686 36.2035 10.4896 36.1771 10.5133 36.1561C10.537 36.1351 10.5587 36.1208 10.5786 36.113L10.9077 36.303C11.1213 36.4263 11.2954 36.4749 11.4299 36.4486C11.5689 36.4211 11.6759 36.3424 11.7509 36.2125C11.8326 36.071 11.8423 35.9342 11.78 35.8021C11.7194 35.667 11.5997 35.5478 11.4207 35.4445C11.2821 35.3645 11.1469 35.3153 11.0151 35.2969C10.8879 35.2773 10.7754 35.2721 10.6778 35.2812C10.6573 35.2501 10.6446 35.212 10.6399 35.1669C10.6351 35.1218 10.6436 35.0805 10.6652 35.0429C10.6952 34.991 10.7576 34.9596 10.8523 34.9489C10.9471 34.9382 11.0599 34.9494 11.1908 34.9826C11.3217 35.0159 11.4564 35.0725 11.595 35.1525ZM12.5209 39.3475C12.3188 39.2308 12.1682 39.0784 12.0689 38.8902C11.9743 38.7009 11.942 38.4802 11.972 38.2281C12.0038 37.9731 12.1088 37.6912 12.2871 37.3823C12.4788 37.0503 12.6812 36.8131 12.8944 36.6706C13.1075 36.5281 13.3179 36.4571 13.5254 36.4576C13.7346 36.4552 13.9273 36.5048 14.1034 36.6065C14.2824 36.7098 14.4231 36.8527 14.5257 37.0351C14.6311 37.2191 14.6731 37.4397 14.6517 37.6967C14.6349 37.9526 14.5323 38.2436 14.3439 38.5698C14.1673 38.8758 13.9765 39.1063 13.7715 39.2612C13.5683 39.4133 13.3595 39.4949 13.1453 39.5059C12.934 39.5186 12.7258 39.4658 12.5209 39.3475ZM12.6909 39.053C12.9045 39.1764 13.1238 39.1798 13.3488 39.0634C13.5755 38.9441 13.7889 38.7112 13.9889 38.3648C14.1372 38.1079 14.2246 37.8832 14.2511 37.6906C14.2822 37.4968 14.268 37.3347 14.2086 37.2042C14.1493 37.0737 14.0575 36.9726 13.9334 36.9009C13.8121 36.8309 13.6779 36.8035 13.5306 36.8185C13.3879 36.8324 13.2404 36.9012 13.0881 37.0249C12.9359 37.1487 12.7872 37.3362 12.6422 37.5873C12.4422 37.9337 12.3472 38.2349 12.3572 38.4909C12.3689 38.744 12.4801 38.9314 12.6909 39.053ZM14.535 39.1478L16.7601 38.2039C16.7894 38.2131 16.8208 38.2254 16.8542 38.2409C16.8922 38.2551 16.9241 38.2697 16.9501 38.2847C16.9905 38.308 17.0247 38.3355 17.0527 38.367C17.0836 38.4002 17.1014 38.4394 17.1061 38.4845C17.1126 38.5267 17.0991 38.5766 17.0658 38.6344L16.1908 40.1499L16.6238 40.3999C16.6241 40.4194 16.6211 40.4446 16.6148 40.4755C16.6101 40.5036 16.5986 40.5336 16.5803 40.5653C16.5536 40.6115 16.5212 40.6409 16.4831 40.6536C16.445 40.6662 16.4043 40.66 16.361 40.635L16.0233 40.44L15.6483 41.0896C15.6322 41.0841 15.608 41.0759 15.5758 41.0651C15.5448 41.0587 15.5135 41.0464 15.4817 41.028C15.4211 40.993 15.3824 40.9534 15.3657 40.9091C15.3489 40.8648 15.3547 40.8181 15.383 40.769L15.6855 40.245L14.4341 39.5225C14.4136 39.4914 14.4026 39.4505 14.4012 39.3996C14.4026 39.3504 14.4167 39.3027 14.4434 39.2565C14.4584 39.2305 14.4723 39.2097 14.4852 39.1941C14.5026 39.1772 14.5192 39.1618 14.535 39.1478ZM15.8574 39.9574L16.6535 38.5984L16.6449 38.5934L14.8961 39.4024L15.8574 39.9574Z" fill="#A73C4C"/>
<path d="M26.528 35.4025C26.8023 35.5609 26.9881 35.749 27.0855 35.9669C27.1875 36.1836 27.1693 36.4117 27.031 36.6513C26.9643 36.7668 26.8823 36.8522 26.7849 36.9076C26.692 36.9618 26.5991 36.9928 26.506 37.0006C26.4159 37.0101 26.3406 37.0071 26.2803 36.9916C26.3449 37.0597 26.3981 37.1442 26.4398 37.2453C26.4832 37.3435 26.5036 37.4515 26.501 37.5693C26.503 37.6859 26.4681 37.8063 26.3965 37.9304C26.2965 38.1036 26.1713 38.2238 26.0209 38.2909C25.8705 38.3581 25.7042 38.3794 25.522 38.3551C25.3414 38.3278 25.1544 38.2583 24.961 38.1467C24.8022 38.055 24.67 37.9574 24.5642 37.854C24.4629 37.7494 24.3927 37.6511 24.3534 37.5591C24.3141 37.4672 24.3111 37.3923 24.3445 37.3346C24.3678 37.2942 24.3979 37.2654 24.4348 37.2482C24.4745 37.2326 24.5176 37.2248 24.5639 37.2245C24.6056 37.3256 24.6665 37.4301 24.7467 37.5379C24.8297 37.6474 24.9578 37.7522 25.131 37.8522C25.3215 37.9622 25.4993 38.011 25.6643 37.9985C25.831 37.9831 25.9627 37.8917 26.0594 37.7242C26.1444 37.577 26.1579 37.427 26.0998 37.2742C26.0418 37.1214 25.9089 36.9849 25.701 36.8649L25.3416 36.6574C25.3384 36.6363 25.34 36.6103 25.3463 36.5793C25.3543 36.5455 25.3666 36.5141 25.3833 36.4852C25.4016 36.4535 25.4226 36.4271 25.4463 36.4061C25.47 36.3851 25.4917 36.3708 25.5116 36.363L25.8407 36.553C26.0543 36.6763 26.2284 36.7249 26.3629 36.6986C26.5019 36.6711 26.6089 36.5924 26.6839 36.4625C26.7656 36.321 26.7753 36.1842 26.713 36.0521C26.6525 35.917 26.5327 35.7978 26.3537 35.6945C26.2151 35.6145 26.0799 35.5653 25.9481 35.5469C25.8209 35.5273 25.7084 35.5221 25.6108 35.5312C25.5903 35.5001 25.5776 35.462 25.5729 35.4169C25.5681 35.3718 25.5766 35.3305 25.5982 35.2929C25.6282 35.241 25.6906 35.2096 25.7853 35.1989C25.8801 35.1882 25.9929 35.1994 26.1238 35.2326C26.2547 35.2659 26.3895 35.3225 26.528 35.4025ZM27.4539 39.5975C27.2518 39.4808 27.1012 39.3284 27.002 39.1402C26.9073 38.9509 26.875 38.7302 26.9051 38.4781C26.9368 38.2231 27.0418 37.9412 27.2202 37.6323C27.4118 37.3003 27.6142 37.0631 27.8274 36.9206C28.0405 36.7781 28.2509 36.7071 28.4584 36.7076C28.6676 36.7052 28.8603 36.7548 29.0364 36.8565C29.2154 36.9598 29.3561 37.1027 29.4587 37.2851C29.5641 37.4691 29.6061 37.6897 29.5847 37.9467C29.5679 38.2026 29.4653 38.4936 29.277 38.8198C29.1003 39.1258 28.9095 39.3563 28.7046 39.5112C28.5013 39.6633 28.2925 39.7449 28.0783 39.7559C27.867 39.7686 27.6589 39.7158 27.4539 39.5975ZM27.6239 39.303C27.8375 39.4264 28.0568 39.4298 28.2819 39.3134C28.5085 39.1941 28.7219 38.9612 28.9219 38.6148C29.0702 38.3579 29.1576 38.1332 29.1841 37.9406C29.2152 37.7468 29.201 37.5847 29.1416 37.4542C29.0823 37.3237 28.9905 37.2226 28.8664 37.1509C28.7451 37.0809 28.6109 37.0535 28.4636 37.0685C28.3209 37.0824 28.1734 37.1512 28.0212 37.2749C27.8689 37.3987 27.7202 37.5862 27.5752 37.8373C27.3752 38.1837 27.2802 38.4849 27.2903 38.7409C27.3019 38.994 27.4132 39.1814 27.6239 39.303ZM31.2091 38.1052C31.4834 38.2635 31.6692 38.4516 31.7666 38.6695C31.8686 38.8862 31.8505 39.1144 31.7121 39.354C31.6455 39.4694 31.5634 39.5549 31.466 39.6102C31.3732 39.6644 31.2802 39.6954 31.1871 39.7033C31.097 39.7128 31.0217 39.7098 30.9614 39.6942C31.026 39.7623 31.0792 39.8469 31.1209 39.9479C31.1643 40.0461 31.1847 40.1541 31.1821 40.2719C31.1841 40.3885 31.1492 40.5089 31.0776 40.633C30.9776 40.8062 30.8524 40.9264 30.702 40.9936C30.5516 41.0607 30.3853 41.0821 30.2031 41.0577C30.0225 41.0304 29.8355 40.961 29.6421 40.8493C29.4833 40.7576 29.3511 40.6601 29.2453 40.5567C29.144 40.452 29.0738 40.3537 29.0345 40.2618C28.9952 40.1698 28.9922 40.095 29.0256 40.0372C29.0489 39.9968 29.079 39.968 29.1159 39.9508C29.1556 39.9353 29.1987 39.9274 29.245 39.9272C29.2867 40.0282 29.3476 40.1327 29.4278 40.2406C29.5108 40.3501 29.6389 40.4548 29.8121 40.5548C30.0026 40.6648 30.1804 40.7136 30.3454 40.7011C30.5121 40.6857 30.6438 40.5943 30.7405 40.4269C30.8255 40.2797 30.839 40.1296 30.7809 39.9768C30.7229 39.824 30.59 39.6876 30.3821 39.5676L30.0227 39.3601C30.0195 39.339 30.0211 39.3129 30.0274 39.282C30.0354 39.2481 30.0478 39.2167 30.0644 39.1879C30.0828 39.1561 30.1037 39.1297 30.1274 39.1088C30.1511 39.0878 30.1728 39.0734 30.1927 39.0656L30.5218 39.2556C30.7354 39.379 30.9095 39.4275 31.044 39.4012C31.183 39.3737 31.29 39.295 31.365 39.1651C31.4467 39.0237 31.4564 38.8869 31.3942 38.7547C31.3336 38.6196 31.2138 38.5004 31.0348 38.3971C30.8962 38.3171 30.761 38.2679 30.6292 38.2496C30.502 38.23 30.3895 38.2247 30.2919 38.2338C30.2714 38.2027 30.2588 38.1646 30.254 38.1195C30.2492 38.0744 30.2577 38.0331 30.2793 37.9956C30.3093 37.9436 30.3717 37.9123 30.4664 37.9015C30.5612 37.8908 30.674 37.902 30.8049 37.9353C30.9358 37.9685 31.0706 38.0252 31.2091 38.1052Z" fill="#A73C4C"/>
<path d="M26.2421 54.7996C26.5164 54.958 26.7022 55.1461 26.7996 55.364C26.9016 55.5807 26.8835 55.8088 26.7451 56.0484C26.6785 56.1639 26.5964 56.2493 26.499 56.3047C26.4062 56.3589 26.3132 56.3899 26.2201 56.3977C26.13 56.4073 26.0547 56.4042 25.9944 56.3887C26.059 56.4568 26.1122 56.5414 26.1539 56.6424C26.1973 56.7406 26.2177 56.8486 26.2151 56.9664C26.2171 57.083 26.1822 57.2034 26.1106 57.3275C26.0106 57.5007 25.8854 57.6209 25.735 57.688C25.5846 57.7552 25.4183 57.7766 25.2361 57.7522C25.0555 57.7249 24.8685 57.6555 24.6751 57.5438C24.5164 57.4521 24.3841 57.3546 24.2783 57.2512C24.177 57.1465 24.1068 57.0482 24.0675 56.9562C24.0282 56.8643 24.0252 56.7894 24.0586 56.7317C24.0819 56.6913 24.112 56.6625 24.1489 56.6453C24.1886 56.6297 24.2317 56.6219 24.278 56.6217C24.3197 56.7227 24.3806 56.8272 24.4608 56.9351C24.5438 57.0446 24.6719 57.1493 24.8451 57.2493C25.0357 57.3593 25.2134 57.4081 25.3785 57.3956C25.5451 57.3802 25.6768 57.2888 25.7735 57.1214C25.8585 56.9741 25.872 56.8241 25.8139 56.6713C25.7559 56.5185 25.623 56.3821 25.4151 56.2621L25.0557 56.0546C25.0525 56.0335 25.0541 56.0074 25.0604 55.9764C25.0684 55.9426 25.0808 55.9112 25.0974 55.8823C25.1158 55.8506 25.1368 55.8242 25.1604 55.8032C25.1841 55.7823 25.2058 55.7679 25.2257 55.7601L25.5548 55.9501C25.7684 56.0735 25.9425 56.122 26.077 56.0957C26.216 56.0682 26.323 55.9895 26.398 55.8596C26.4797 55.7182 26.4894 55.5813 26.4272 55.4492C26.3666 55.3141 26.2468 55.1949 26.0678 55.0916C25.9292 55.0116 25.7941 54.9624 25.6622 54.944C25.535 54.9245 25.4226 54.9192 25.3249 54.9283C25.3044 54.8972 25.2918 54.8591 25.287 54.814C25.2822 54.7689 25.2907 54.7276 25.3124 54.6901C25.3424 54.6381 25.4047 54.6068 25.4994 54.596C25.5942 54.5853 25.707 54.5965 25.8379 54.6298C25.9688 54.663 26.1036 54.7196 26.2421 54.7996ZM27.168 58.9946C26.9659 58.8779 26.8153 58.7255 26.7161 58.5374C26.6214 58.348 26.5891 58.1273 26.6192 57.8752C26.6509 57.6202 26.7559 57.3383 26.9343 57.0294C27.1259 56.6975 27.3283 56.4602 27.5415 56.3177C27.7546 56.1752 27.965 56.1042 28.1725 56.1047C28.3818 56.1023 28.5744 56.152 28.7505 56.2536C28.9295 56.357 29.0702 56.4998 29.1728 56.6822C29.2782 56.8662 29.3203 57.0868 29.2988 57.3439C29.282 57.5997 29.1794 57.8907 28.9911 58.2169C28.8144 58.5229 28.6236 58.7534 28.4187 58.9084C28.2154 59.0604 28.0067 59.142 27.7924 59.153C27.5811 59.1657 27.373 59.1129 27.168 58.9946ZM27.338 58.7001C27.5516 58.8235 27.7709 58.8269 27.996 58.7105C28.2227 58.5912 28.436 58.3584 28.636 58.0119C28.7843 57.755 28.8717 57.5303 28.8982 57.3377C28.9293 57.144 28.9151 56.9818 28.8558 56.8513C28.7964 56.7208 28.7046 56.6197 28.5805 56.5481C28.4593 56.4781 28.325 56.4506 28.1778 56.4657C28.035 56.4795 27.8876 56.5483 27.7353 56.6721C27.583 56.7958 27.4343 56.9833 27.2893 57.2344C27.0893 57.5809 26.9943 57.882 27.0044 58.138C27.0161 58.3911 27.1273 58.5785 27.338 58.7001ZM30.8683 57.5456L30.6039 57.7336L30.0578 58.5095C30.1218 58.5118 30.2038 58.5265 30.3038 58.5534C30.4083 58.579 30.5096 58.6202 30.6077 58.6769C30.7809 58.7769 30.9177 58.9001 31.0179 59.0465C31.1198 59.19 31.1745 59.3486 31.182 59.5223C31.194 59.6947 31.1467 59.8733 31.04 60.0581C30.9434 60.2255 30.8177 60.3531 30.6631 60.4409C30.5114 60.5304 30.3394 60.5716 30.1472 60.5645C29.9595 60.5563 29.7603 60.4913 29.5496 60.3696C29.3851 60.2746 29.2516 60.1725 29.1491 60.0633C29.0466 59.9541 28.9766 59.8521 28.939 59.7573C28.9014 59.6624 28.8976 59.589 28.9276 59.537C28.9542 59.4909 28.992 59.4588 29.0409 59.4408C29.0926 59.4245 29.1377 59.4197 29.1761 59.4265C29.208 59.518 29.2649 59.626 29.3471 59.7504C29.4292 59.8748 29.5526 59.9845 29.7171 60.0795C29.9163 60.1945 30.1024 60.2288 30.2754 60.1824C30.4501 60.1332 30.5866 60.0234 30.685 59.8531C30.7866 59.677 30.8095 59.5074 30.7536 59.3442C30.6977 59.1811 30.5788 59.047 30.3969 58.942C30.2959 58.8837 30.1943 58.8462 30.0923 58.8296C29.9902 58.8131 29.8915 58.8041 29.796 58.8029C29.7214 58.7521 29.6712 58.6924 29.6454 58.6236C29.6243 58.5536 29.6328 58.4855 29.6712 58.4191C29.6812 58.4017 29.6937 58.3801 29.7087 58.3541C29.7282 58.3269 29.7469 58.3012 29.7648 58.2768L30.3159 57.4923C30.3567 57.435 30.403 57.3982 30.4547 57.3819C30.5081 57.3627 30.5652 57.3706 30.6258 57.4056L30.8683 57.5456ZM30.5164 57.7351L30.6864 57.4406L31.9508 58.1706C31.9528 58.1872 31.9506 58.2109 31.9443 58.2419C31.938 58.2729 31.9264 58.3028 31.9098 58.3317C31.8831 58.3779 31.8499 58.4087 31.8101 58.4243C31.7704 58.4398 31.7288 58.4351 31.6855 58.4101L30.5164 57.7351Z" fill="#A73C4C"/>
<path d="M26.2421 74.7996C26.5164 74.958 26.7022 75.1461 26.7996 75.364C26.9016 75.5807 26.8835 75.8088 26.7451 76.0484C26.6785 76.1639 26.5964 76.2493 26.499 76.3047C26.4062 76.3589 26.3132 76.3899 26.2201 76.3977C26.13 76.4073 26.0547 76.4042 25.9944 76.3887C26.059 76.4568 26.1122 76.5414 26.1539 76.6424C26.1973 76.7406 26.2177 76.8486 26.2151 76.9664C26.2171 77.083 26.1822 77.2034 26.1106 77.3275C26.0106 77.5007 25.8854 77.6209 25.735 77.688C25.5846 77.7552 25.4183 77.7766 25.2361 77.7522C25.0555 77.7249 24.8685 77.6555 24.6751 77.5438C24.5164 77.4521 24.3841 77.3546 24.2783 77.2512C24.177 77.1465 24.1068 77.0482 24.0675 76.9562C24.0282 76.8643 24.0252 76.7894 24.0586 76.7317C24.0819 76.6913 24.112 76.6625 24.1489 76.6453C24.1886 76.6297 24.2317 76.6219 24.278 76.6217C24.3197 76.7227 24.3806 76.8272 24.4608 76.9351C24.5438 77.0446 24.6719 77.1493 24.8451 77.2493C25.0357 77.3593 25.2134 77.4081 25.3785 77.3956C25.5451 77.3802 25.6768 77.2888 25.7735 77.1214C25.8585 76.9741 25.872 76.8241 25.8139 76.6713C25.7559 76.5185 25.623 76.3821 25.4151 76.2621L25.0557 76.0546C25.0525 76.0335 25.0541 76.0074 25.0604 75.9764C25.0684 75.9426 25.0808 75.9112 25.0974 75.8823C25.1158 75.8506 25.1368 75.8242 25.1604 75.8032C25.1841 75.7823 25.2058 75.7679 25.2257 75.7601L25.5548 75.9501C25.7684 76.0735 25.9425 76.122 26.077 76.0957C26.216 76.0682 26.323 75.9895 26.398 75.8596C26.4797 75.7182 26.4894 75.5813 26.4272 75.4492C26.3666 75.3141 26.2468 75.1949 26.0678 75.0916C25.9292 75.0116 25.7941 74.9624 25.6622 74.944C25.535 74.9245 25.4226 74.9192 25.3249 74.9283C25.3044 74.8972 25.2918 74.8591 25.287 74.814C25.2822 74.7689 25.2907 74.7276 25.3124 74.6901C25.3424 74.6381 25.4047 74.6068 25.4994 74.596C25.5942 74.5853 25.707 74.5965 25.8379 74.6298C25.9688 74.663 26.1036 74.7196 26.2421 74.7996ZM27.168 78.9946C26.9659 78.8779 26.8153 78.7255 26.7161 78.5374C26.6214 78.348 26.5891 78.1273 26.6192 77.8752C26.6509 77.6202 26.7559 77.3383 26.9343 77.0294C27.1259 76.6975 27.3283 76.4602 27.5415 76.3177C27.7546 76.1752 27.965 76.1042 28.1725 76.1047C28.3818 76.1023 28.5744 76.152 28.7505 76.2536C28.9295 76.357 29.0702 76.4998 29.1728 76.6822C29.2782 76.8662 29.3203 77.0868 29.2988 77.3439C29.282 77.5997 29.1794 77.8907 28.9911 78.2169C28.8144 78.5229 28.6236 78.7534 28.4187 78.9084C28.2154 79.0604 28.0067 79.142 27.7924 79.153C27.5811 79.1657 27.373 79.1129 27.168 78.9946ZM27.338 78.7001C27.5516 78.8235 27.7709 78.8269 27.996 78.7105C28.2227 78.5912 28.436 78.3584 28.636 78.0119C28.7843 77.755 28.8717 77.5303 28.8982 77.3377C28.9293 77.144 28.9151 76.9818 28.8558 76.8513C28.7964 76.7208 28.7046 76.6197 28.5805 76.5481C28.4593 76.4781 28.325 76.4506 28.1778 76.4657C28.035 76.4795 27.8876 76.5483 27.7353 76.6721C27.583 76.7958 27.4343 76.9833 27.2893 77.2344C27.0893 77.5809 26.9943 77.882 27.0044 78.138C27.0161 78.3911 27.1273 78.5785 27.338 78.7001ZM30.1723 77.1438L31.7312 78.0438C31.7529 78.0795 31.7633 78.1182 31.7623 78.1599C31.763 78.1988 31.7525 78.237 31.7308 78.2745C31.7141 78.3034 31.6931 78.3297 31.6678 78.3536C31.6454 78.3791 31.6155 78.4042 31.5782 78.4289L29.1663 80.0963C29.1473 80.0892 29.1292 80.0807 29.1118 80.0707C29.0974 80.0623 29.0815 80.0532 29.0642 80.0432C29.0094 80.0115 28.9692 79.971 28.9438 79.9217C28.9201 79.8695 28.9223 79.8189 28.9507 79.7698C28.9707 79.7351 28.9971 79.7061 29.0298 79.6827C29.0643 79.6564 29.1041 79.6274 29.1493 79.5958L31.2754 78.1733L29.9071 77.3833C29.9068 77.3638 29.9089 77.3401 29.9136 77.312C29.9199 77.281 29.9314 77.2511 29.9481 77.2222C29.9764 77.1731 30.0097 77.1423 30.0478 77.1296C30.0875 77.1141 30.129 77.1188 30.1723 77.1438Z" fill="#A73C4C"/>
<path d="M11.2421 73.7996C11.5164 73.958 11.7022 74.1461 11.7996 74.364C11.9016 74.5807 11.8835 74.8088 11.7451 75.0484C11.6785 75.1639 11.5964 75.2493 11.499 75.3047C11.4062 75.3589 11.3132 75.3899 11.2201 75.3977C11.13 75.4073 11.0547 75.4042 10.9944 75.3887C11.059 75.4568 11.1122 75.5414 11.1539 75.6424C11.1973 75.7406 11.2177 75.8486 11.2151 75.9664C11.2171 76.083 11.1822 76.2034 11.1106 76.3275C11.0106 76.5007 10.8854 76.6209 10.735 76.688C10.5846 76.7552 10.4183 76.7766 10.2361 76.7522C10.0555 76.7249 9.86854 76.6555 9.67513 76.5438C9.51636 76.4521 9.38407 76.3546 9.27828 76.2512C9.17703 76.1465 9.10677 76.0482 9.06749 75.9562C9.02821 75.8643 9.02523 75.7894 9.05856 75.7317C9.0819 75.6913 9.112 75.6625 9.14887 75.6453C9.18864 75.6297 9.23167 75.6219 9.27798 75.6217C9.3197 75.7227 9.38063 75.8272 9.46078 75.9351C9.54381 76.0446 9.67192 76.1493 9.84513 76.2493C10.0357 76.3593 10.2134 76.4081 10.3785 76.3956C10.5451 76.3802 10.6768 76.2888 10.7735 76.1214C10.8585 75.9741 10.872 75.8241 10.8139 75.6713C10.7559 75.5185 10.623 75.3821 10.4151 75.2621L10.0557 75.0546C10.0525 75.0335 10.0541 75.0074 10.0604 74.9764C10.0684 74.9426 10.0808 74.9112 10.0974 74.8823C10.1158 74.8506 10.1368 74.8242 10.1604 74.8032C10.1841 74.7823 10.2058 74.7679 10.2257 74.7601L10.5548 74.9501C10.7684 75.0735 10.9425 75.122 11.077 75.0957C11.216 75.0682 11.323 74.9895 11.398 74.8596C11.4797 74.7182 11.4894 74.5813 11.4272 74.4492C11.3666 74.3141 11.2468 74.1949 11.0678 74.0916C10.9292 74.0116 10.7941 73.9624 10.6622 73.944C10.535 73.9245 10.4226 73.9192 10.3249 73.9283C10.3044 73.8972 10.2918 73.8591 10.287 73.814C10.2822 73.7689 10.2907 73.7276 10.3124 73.6901C10.3424 73.6381 10.4047 73.6068 10.4994 73.596C10.5942 73.5853 10.707 73.5965 10.8379 73.6298C10.9688 73.663 11.1036 73.7196 11.2421 73.7996ZM12.168 77.9946C11.9659 77.8779 11.8153 77.7255 11.7161 77.5374C11.6214 77.348 11.5891 77.1273 11.6192 76.8752C11.6509 76.6202 11.7559 76.3383 11.9343 76.0294C12.1259 75.6975 12.3283 75.4602 12.5415 75.3177C12.7546 75.1752 12.965 75.1042 13.1725 75.1047C13.3818 75.1023 13.5744 75.152 13.7505 75.2536C13.9295 75.357 14.0702 75.4998 14.1728 75.6822C14.2782 75.8662 14.3203 76.0868 14.2988 76.3439C14.282 76.5997 14.1794 76.8907 13.9911 77.2169C13.8144 77.5229 13.6236 77.7534 13.4187 77.9084C13.2154 78.0604 13.0067 78.142 12.7924 78.153C12.5811 78.1657 12.373 78.1129 12.168 77.9946ZM12.338 77.7001C12.5516 77.8235 12.7709 77.8269 12.996 77.7105C13.2227 77.5912 13.436 77.3584 13.636 77.0119C13.7843 76.755 13.8717 76.5303 13.8982 76.3377C13.9293 76.144 13.9151 75.9818 13.8558 75.8513C13.7964 75.7208 13.7046 75.6197 13.5805 75.5481C13.4593 75.4781 13.325 75.4506 13.1778 75.4657C13.035 75.4795 12.8876 75.5483 12.7353 75.6721C12.583 75.7958 12.4343 75.9833 12.2893 76.2344C12.0893 76.5809 11.9943 76.882 12.0044 77.138C12.0161 77.3911 12.1273 77.5785 12.338 77.7001ZM14.6665 79.4371C14.4702 79.3238 14.3151 79.1957 14.2012 79.053C14.089 78.9074 14.025 78.755 14.0092 78.5957C13.9933 78.4365 14.0312 78.2774 14.1229 78.1187C14.2046 77.9772 14.3055 77.8758 14.4257 77.8143C14.5504 77.7516 14.6808 77.7191 14.8168 77.7168C14.9529 77.7145 15.0816 77.7349 15.2029 77.778L15.4877 77.8847C15.7189 77.9643 15.909 77.9951 16.0579 77.9772C16.2085 77.9564 16.3221 77.8796 16.3988 77.7468C16.4771 77.6111 16.4874 77.4766 16.4297 77.3432C16.3737 77.2069 16.2576 77.0879 16.0815 76.9863C15.9112 76.8879 15.7516 76.8477 15.6027 76.8657C15.4537 76.8836 15.3418 76.9575 15.2668 77.0874C15.2034 77.1971 15.1815 77.3019 15.2009 77.4016C15.2232 77.503 15.2734 77.5993 15.3515 77.6906C15.4342 77.7807 15.5314 77.8657 15.6431 77.9456L15.7961 78.1205C15.9012 78.212 15.9896 78.3188 16.0614 78.4411C16.1349 78.5605 16.1765 78.6885 16.1862 78.8249C16.1959 78.9614 16.1583 79.1033 16.0733 79.2505C15.9833 79.4064 15.8639 79.5165 15.7152 79.5807C15.5694 79.6466 15.4054 79.6674 15.2231 79.643C15.0455 79.6174 14.8599 79.5488 14.6665 79.4371ZM14.834 79.147C15.0217 79.2553 15.1965 79.3024 15.3587 79.2882C15.5208 79.2741 15.6461 79.1905 15.7344 79.0375C15.8311 78.8701 15.837 78.6965 15.7522 78.5166C15.6703 78.3385 15.5166 78.1747 15.2911 78.0253L15.1078 77.8328C14.967 77.69 14.8761 77.5374 14.8351 77.3751C14.7969 77.2146 14.8262 77.0505 14.9229 76.8831C15.0079 76.7359 15.1187 76.6305 15.2554 76.5671C15.3951 76.5053 15.5494 76.4846 15.7184 76.5052C15.8903 76.5275 16.0672 76.5911 16.249 76.6961C16.5319 76.8595 16.7167 77.0528 16.8034 77.276C16.8946 77.498 16.8752 77.7216 16.7452 77.9468C16.6402 78.1286 16.4956 78.2357 16.3115 78.268C16.1302 78.3019 15.9424 78.2839 15.748 78.214L15.4185 78.1046C15.2171 78.0268 15.0303 78.0036 14.8582 78.0351C14.6906 78.0654 14.5618 78.1585 14.4718 78.3143C14.3868 78.4616 14.3764 78.6095 14.4407 78.7582C14.5066 78.9041 14.6377 79.0337 14.834 79.147Z" fill="#A73C4C"/>
<path d="M11.595 54.1525C11.8693 54.3109 12.0551 54.499 12.1525 54.7169C12.2545 54.9336 12.2363 55.1617 12.098 55.4013C12.0313 55.5168 11.9493 55.6022 11.8519 55.6576C11.759 55.7118 11.6661 55.7428 11.573 55.7506C11.4828 55.7601 11.4076 55.7571 11.3473 55.7416C11.4119 55.8097 11.4651 55.8942 11.5068 55.9953C11.5502 56.0935 11.5706 56.2015 11.568 56.3193C11.57 56.4359 11.5351 56.5563 11.4634 56.6804C11.3634 56.8536 11.2383 56.9738 11.0879 57.0409C10.9375 57.1081 10.7712 57.1294 10.589 57.1051C10.4084 57.0778 10.2214 57.0083 10.028 56.8967C9.86923 56.805 9.73695 56.7074 9.63115 56.604C9.52991 56.4994 9.45964 56.4011 9.42036 56.3091C9.38108 56.2172 9.37811 56.1423 9.41144 56.0846C9.43477 56.0442 9.46488 56.0154 9.50175 55.9982C9.54151 55.9826 9.58454 55.9748 9.63085 55.9745C9.67257 56.0756 9.73351 56.1801 9.81365 56.2879C9.89668 56.3974 10.0248 56.5022 10.198 56.6022C10.3885 56.7122 10.5663 56.761 10.7313 56.7485C10.898 56.7331 11.0297 56.6417 11.1264 56.4742C11.2114 56.327 11.2248 56.177 11.1668 56.0242C11.1088 55.8714 10.9758 55.7349 10.768 55.6149L10.4086 55.4074C10.4054 55.3863 10.407 55.3603 10.4133 55.3293C10.4213 55.2955 10.4336 55.2641 10.4503 55.2352C10.4686 55.2035 10.4896 55.1771 10.5133 55.1561C10.537 55.1351 10.5587 55.1208 10.5786 55.113L10.9077 55.303C11.1213 55.4263 11.2954 55.4749 11.4299 55.4486C11.5689 55.4211 11.6759 55.3424 11.7509 55.2125C11.8326 55.071 11.8423 54.9342 11.78 54.8021C11.7194 54.667 11.5997 54.5478 11.4207 54.4445C11.2821 54.3645 11.1469 54.3153 11.0151 54.2969C10.8879 54.2773 10.7754 54.2721 10.6778 54.2812C10.6573 54.2501 10.6446 54.212 10.6399 54.1669C10.6351 54.1218 10.6436 54.0805 10.6652 54.0429C10.6952 53.991 10.7576 53.9596 10.8523 53.9489C10.9471 53.9382 11.0599 53.9494 11.1908 53.9826C11.3217 54.0159 11.4564 54.0725 11.595 54.1525ZM12.5209 58.3475C12.3188 58.2308 12.1682 58.0784 12.0689 57.8902C11.9743 57.7009 11.942 57.4802 11.972 57.2281C12.0038 56.9731 12.1088 56.6912 12.2871 56.3823C12.4788 56.0503 12.6812 55.8131 12.8944 55.6706C13.1075 55.5281 13.3179 55.4571 13.5254 55.4576C13.7346 55.4552 13.9273 55.5048 14.1034 55.6065C14.2824 55.7098 14.4231 55.8527 14.5257 56.0351C14.6311 56.2191 14.6731 56.4397 14.6517 56.6967C14.6349 56.9526 14.5323 57.2436 14.3439 57.5698C14.1673 57.8758 13.9765 58.1063 13.7715 58.2612C13.5683 58.4133 13.3595 58.4949 13.1453 58.5059C12.934 58.5186 12.7258 58.4658 12.5209 58.3475ZM12.6909 58.053C12.9045 58.1764 13.1238 58.1798 13.3488 58.0634C13.5755 57.9441 13.7889 57.7112 13.9889 57.3648C14.1372 57.1079 14.2246 56.8832 14.2511 56.6906C14.2822 56.4968 14.268 56.3347 14.2086 56.2042C14.1493 56.0737 14.0575 55.9726 13.9334 55.9009C13.8121 55.8309 13.6779 55.8035 13.5306 55.8185C13.3879 55.8324 13.2404 55.9012 13.0881 56.0249C12.9359 56.1487 12.7872 56.3362 12.6422 56.5873C12.4422 56.9337 12.3472 57.2349 12.3572 57.4909C12.3689 57.744 12.4801 57.9314 12.6909 58.053ZM17.1905 57.7295C17.1705 57.7641 17.1412 57.7915 17.1027 57.8116C17.0687 57.8305 17.0331 57.8388 16.9959 57.8365C16.9507 57.7681 16.8944 57.699 16.8269 57.6293C16.764 57.5583 16.6863 57.4961 16.5939 57.4428C16.3688 57.3128 16.1316 57.2836 15.8824 57.3553C15.636 57.4286 15.4094 57.6345 15.2024 57.9731C15.2934 57.9487 15.4165 57.9389 15.5715 57.9437C15.7311 57.9473 15.8989 57.9999 16.075 58.1016C16.3291 58.2483 16.4967 58.4413 16.5779 58.6806C16.6591 58.9199 16.618 59.1811 16.4547 59.464C16.3514 59.6429 16.2232 59.7749 16.0703 59.8598C15.9202 59.9464 15.7559 59.9843 15.5774 59.9736C15.4017 59.9645 15.22 59.9058 15.0324 59.7975C14.839 59.6858 14.6908 59.5425 14.5878 59.3676C14.4864 59.1898 14.4452 58.9812 14.464 58.7419C14.4874 58.5014 14.5875 58.2281 14.7641 57.9221C14.9208 57.6508 15.0842 57.441 15.2544 57.2929C15.4291 57.1436 15.603 57.0458 15.776 56.9994C15.9507 56.9502 16.1215 56.941 16.2884 56.972C16.457 57 16.6134 57.0557 16.7578 57.139C16.8588 57.1973 16.9468 57.2616 17.0217 57.3318C17.0996 57.4037 17.1551 57.4742 17.1882 57.5434C17.2214 57.6126 17.2222 57.6746 17.1905 57.7295ZM15.1999 59.5074C15.3673 59.604 15.5336 59.6327 15.6987 59.5933C15.8656 59.5511 16.0023 59.4376 16.109 59.2528C16.2173 59.0652 16.2424 58.8949 16.1844 58.7421C16.1309 58.5881 16.0248 58.4652 15.866 58.3735C15.7073 58.2819 15.5502 58.2374 15.3947 58.24C15.2409 58.2397 15.1033 58.268 14.9819 58.325L15.0124 58.3021C14.8707 58.5475 14.8134 58.78 14.8406 58.9997C14.8694 59.2165 14.9892 59.3857 15.1999 59.5074Z" fill="#A73C4C"/>
<path d="M15.335 102.645C15.6517 102.645 15.9067 102.715 16.1 102.855C16.2967 102.992 16.395 103.198 16.395 103.475C16.395 103.608 16.3667 103.723 16.31 103.82C16.2567 103.913 16.1917 103.987 16.115 104.04C16.0417 104.093 15.975 104.128 15.915 104.145C16.005 104.172 16.0933 104.218 16.18 104.285C16.2667 104.348 16.3383 104.432 16.395 104.535C16.455 104.635 16.485 104.757 16.485 104.9C16.485 105.1 16.4367 105.267 16.34 105.4C16.2433 105.533 16.11 105.635 15.94 105.705C15.77 105.772 15.5733 105.805 15.35 105.805C15.1667 105.805 15.0033 105.787 14.86 105.75C14.72 105.71 14.61 105.66 14.53 105.6C14.45 105.54 14.41 105.477 14.41 105.41C14.41 105.363 14.4217 105.323 14.445 105.29C14.4717 105.257 14.505 105.228 14.545 105.205C14.6317 105.272 14.7367 105.332 14.86 105.385C14.9867 105.438 15.15 105.465 15.35 105.465C15.57 105.465 15.7483 105.418 15.885 105.325C16.0217 105.228 16.09 105.083 16.09 104.89C16.09 104.72 16.0267 104.583 15.9 104.48C15.7733 104.377 15.59 104.325 15.35 104.325H14.935C14.9217 104.308 14.91 104.285 14.9 104.255C14.89 104.222 14.885 104.188 14.885 104.155C14.885 104.118 14.89 104.085 14.9 104.055C14.91 104.025 14.9217 104.002 14.935 103.985H15.315C15.5617 103.985 15.7367 103.94 15.84 103.85C15.9467 103.757 16 103.635 16 103.485C16 103.322 15.94 103.198 15.82 103.115C15.7 103.028 15.5367 102.985 15.33 102.985C15.17 102.985 15.0283 103.01 14.905 103.06C14.785 103.107 14.685 103.158 14.605 103.215C14.5717 103.198 14.5417 103.172 14.515 103.135C14.4883 103.098 14.475 103.058 14.475 103.015C14.475 102.955 14.5133 102.897 14.59 102.84C14.6667 102.783 14.77 102.737 14.9 102.7C15.03 102.663 15.175 102.645 15.335 102.645ZM18.0493 104.63H17.6443V103.1L17.0043 103.4C16.961 103.383 16.9243 103.358 16.8943 103.325C16.8676 103.292 16.8543 103.25 16.8543 103.2C16.8543 103.103 16.9143 103.03 17.0343 102.98L17.7343 102.675H17.8293C17.896 102.675 17.9493 102.695 17.9893 102.735C18.0293 102.775 18.0493 102.828 18.0493 102.895V104.63ZM17.6443 104.43H18.0493V105.755C18.0293 105.762 18.0026 105.768 17.9693 105.775C17.936 105.785 17.8993 105.79 17.8593 105.79C17.7893 105.79 17.736 105.775 17.6993 105.745C17.6626 105.715 17.6443 105.668 17.6443 105.605V104.43ZM19.8608 104.63H19.4558V103.1L18.8158 103.4C18.7725 103.383 18.7358 103.358 18.7058 103.325C18.6792 103.292 18.6658 103.25 18.6658 103.2C18.6658 103.103 18.7258 103.03 18.8458 102.98L19.5458 102.675H19.6408C19.7075 102.675 19.7608 102.695 19.8008 102.735C19.8408 102.775 19.8608 102.828 19.8608 102.895V104.63ZM19.4558 104.43H19.8608V105.755C19.8408 105.762 19.8142 105.768 19.7808 105.775C19.7475 105.785 19.7108 105.79 19.6708 105.79C19.6008 105.79 19.5475 105.775 19.5108 105.745C19.4742 105.715 19.4558 105.668 19.4558 105.605V104.43Z" fill="#A73C4C"/>
<path d="M28.118 101.266C28.3713 101.266 28.5753 101.322 28.73 101.434C28.8873 101.543 28.966 101.709 28.966 101.93C28.966 102.037 28.9433 102.129 28.898 102.206C28.8553 102.281 28.8033 102.339 28.742 102.382C28.6833 102.425 28.63 102.453 28.582 102.466C28.654 102.487 28.7247 102.525 28.794 102.578C28.8633 102.629 28.9207 102.695 28.966 102.778C29.014 102.858 29.038 102.955 29.038 103.07C29.038 103.23 28.9993 103.363 28.922 103.47C28.8447 103.577 28.738 103.658 28.602 103.714C28.466 103.767 28.3087 103.794 28.13 103.794C27.9833 103.794 27.8527 103.779 27.738 103.75C27.626 103.718 27.538 103.678 27.474 103.63C27.41 103.582 27.378 103.531 27.378 103.478C27.378 103.441 27.3873 103.409 27.406 103.382C27.4273 103.355 27.454 103.333 27.486 103.314C27.5553 103.367 27.6393 103.415 27.738 103.458C27.8393 103.501 27.97 103.522 28.13 103.522C28.306 103.522 28.4487 103.485 28.558 103.41C28.6673 103.333 28.722 103.217 28.722 103.062C28.722 102.926 28.6713 102.817 28.57 102.734C28.4687 102.651 28.322 102.61 28.13 102.61H27.798C27.7873 102.597 27.778 102.578 27.77 102.554C27.762 102.527 27.758 102.501 27.758 102.474C27.758 102.445 27.762 102.418 27.77 102.394C27.778 102.37 27.7873 102.351 27.798 102.338H28.102C28.2993 102.338 28.4393 102.302 28.522 102.23C28.6073 102.155 28.65 102.058 28.65 101.938C28.65 101.807 28.602 101.709 28.506 101.642C28.41 101.573 28.2793 101.538 28.114 101.538C27.986 101.538 27.8727 101.558 27.774 101.598C27.678 101.635 27.598 101.677 27.534 101.722C27.5073 101.709 27.4833 101.687 27.462 101.658C27.4407 101.629 27.43 101.597 27.43 101.562C27.43 101.514 27.4607 101.467 27.522 101.422C27.5833 101.377 27.666 101.339 27.77 101.31C27.874 101.281 27.99 101.266 28.118 101.266ZM30.4374 103.802C30.2508 103.802 30.0854 103.757 29.9414 103.666C29.8001 103.573 29.6894 103.433 29.6094 103.246C29.5294 103.057 29.4894 102.819 29.4894 102.534C29.4894 102.227 29.5348 101.982 29.6254 101.798C29.7161 101.614 29.8334 101.481 29.9774 101.398C30.1214 101.313 30.2748 101.27 30.4374 101.27C30.6028 101.27 30.7574 101.313 30.9014 101.398C31.0481 101.483 31.1654 101.619 31.2534 101.806C31.3441 101.99 31.3894 102.233 31.3894 102.534C31.3894 102.817 31.3494 103.053 31.2694 103.242C31.1894 103.429 31.0774 103.569 30.9334 103.662C30.7921 103.755 30.6268 103.802 30.4374 103.802ZM30.4374 103.53C30.6348 103.53 30.7881 103.445 30.8974 103.274C31.0068 103.101 31.0614 102.854 31.0614 102.534C31.0614 102.297 31.0321 102.106 30.9734 101.962C30.9174 101.815 30.8428 101.709 30.7494 101.642C30.6561 101.575 30.5521 101.542 30.4374 101.542C30.3254 101.542 30.2214 101.577 30.1254 101.646C30.0321 101.713 29.9574 101.819 29.9014 101.966C29.8454 102.113 29.8174 102.302 29.8174 102.534C29.8174 102.854 29.8721 103.101 29.9814 103.274C30.0908 103.445 30.2428 103.53 30.4374 103.53ZM31.9139 103.554C31.9139 103.522 31.9219 103.491 31.9379 103.462C31.9566 103.433 31.9793 103.411 32.0059 103.398C32.0566 103.427 32.1219 103.457 32.2019 103.486C32.2846 103.513 32.3819 103.526 32.4939 103.526C32.6326 103.526 32.7593 103.497 32.8739 103.438C32.9886 103.379 33.0806 103.283 33.1499 103.15C33.2193 103.014 33.2539 102.835 33.2539 102.614C33.2299 102.641 33.1899 102.674 33.1339 102.714C33.0806 102.751 33.0126 102.785 32.9299 102.814C32.8473 102.843 32.7513 102.858 32.6419 102.858C32.4926 102.858 32.3526 102.833 32.2219 102.782C32.0913 102.729 31.9859 102.645 31.9059 102.53C31.8286 102.415 31.7899 102.265 31.7899 102.078C31.7899 101.91 31.8273 101.766 31.9019 101.646C31.9766 101.523 32.0779 101.43 32.2059 101.366C32.3339 101.302 32.4766 101.27 32.6339 101.27C32.8179 101.27 32.9806 101.313 33.1219 101.398C33.2633 101.481 33.3739 101.61 33.4539 101.786C33.5366 101.959 33.5779 102.183 33.5779 102.458C33.5779 102.783 33.5326 103.045 33.4419 103.242C33.3513 103.439 33.2246 103.582 33.0619 103.67C32.9019 103.758 32.7139 103.802 32.4979 103.802C32.3379 103.802 32.2006 103.781 32.0859 103.738C31.9713 103.695 31.9139 103.634 31.9139 103.554ZM32.6859 102.59C32.8219 102.59 32.9419 102.557 33.0459 102.49C33.1526 102.421 33.2233 102.345 33.2579 102.262L33.2539 102.306C33.2539 102.069 33.1993 101.882 33.0899 101.746C32.9833 101.607 32.8313 101.538 32.6339 101.538C32.4873 101.538 32.3633 101.586 32.2619 101.682C32.1633 101.775 32.1139 101.905 32.1139 102.07C32.1139 102.254 32.1699 102.387 32.2819 102.47C32.3939 102.55 32.5286 102.59 32.6859 102.59Z" fill="#A73C4C"/>
<path d="M14.901 95.887C15.091 95.887 15.244 95.929 15.36 96.013C15.478 96.095 15.537 96.219 15.537 96.385C15.537 96.465 15.52 96.534 15.486 96.592C15.454 96.648 15.415 96.692 15.369 96.724C15.325 96.756 15.285 96.777 15.249 96.787C15.303 96.803 15.356 96.831 15.408 96.871C15.46 96.909 15.503 96.959 15.537 97.021C15.573 97.081 15.591 97.154 15.591 97.24C15.591 97.36 15.562 97.46 15.504 97.54C15.446 97.62 15.366 97.681 15.264 97.723C15.162 97.763 15.044 97.783 14.91 97.783C14.8 97.783 14.702 97.772 14.616 97.75C14.532 97.726 14.466 97.696 14.418 97.66C14.37 97.624 14.346 97.586 14.346 97.546C14.346 97.518 14.353 97.494 14.367 97.474C14.383 97.454 14.403 97.437 14.427 97.423C14.479 97.463 14.542 97.499 14.616 97.531C14.692 97.563 14.79 97.579 14.91 97.579C15.042 97.579 15.149 97.551 15.231 97.495C15.313 97.437 15.354 97.35 15.354 97.234C15.354 97.132 15.316 97.05 15.24 96.988C15.164 96.926 15.054 96.895 14.91 96.895H14.661C14.653 96.885 14.646 96.871 14.64 96.853C14.634 96.833 14.631 96.813 14.631 96.793C14.631 96.771 14.634 96.751 14.64 96.733C14.646 96.715 14.653 96.701 14.661 96.691H14.889C15.037 96.691 15.142 96.664 15.204 96.61C15.268 96.554 15.3 96.481 15.3 96.391C15.3 96.293 15.264 96.219 15.192 96.169C15.12 96.117 15.022 96.091 14.898 96.091C14.802 96.091 14.717 96.106 14.643 96.136C14.571 96.164 14.511 96.195 14.463 96.229C14.443 96.219 14.425 96.203 14.409 96.181C14.393 96.159 14.385 96.135 14.385 96.109C14.385 96.073 14.408 96.038 14.454 96.004C14.5 95.97 14.562 95.942 14.64 95.92C14.718 95.898 14.805 95.887 14.901 95.887ZM16.5296 97.078H16.2866V96.16L15.9026 96.34C15.8766 96.33 15.8546 96.315 15.8366 96.295C15.8206 96.275 15.8126 96.25 15.8126 96.22C15.8126 96.162 15.8486 96.118 15.9206 96.088L16.3406 95.905H16.3976C16.4376 95.905 16.4696 95.917 16.4936 95.941C16.5176 95.965 16.5296 95.997 16.5296 96.037V97.078ZM16.2866 96.958H16.5296V97.753C16.5176 97.757 16.5016 97.761 16.4816 97.765C16.4616 97.771 16.4396 97.774 16.4156 97.774C16.3736 97.774 16.3416 97.765 16.3196 97.747C16.2976 97.729 16.2866 97.701 16.2866 97.663V96.958ZM17.7128 97.789C17.5728 97.789 17.4488 97.755 17.3408 97.687C17.2348 97.617 17.1518 97.512 17.0918 97.372C17.0318 97.23 17.0018 97.052 17.0018 96.838C17.0018 96.608 17.0358 96.424 17.1038 96.286C17.1718 96.148 17.2598 96.048 17.3678 95.986C17.4758 95.922 17.5908 95.89 17.7128 95.89C17.8368 95.89 17.9528 95.922 18.0608 95.986C18.1708 96.05 18.2588 96.152 18.3248 96.292C18.3928 96.43 18.4268 96.612 18.4268 96.838C18.4268 97.05 18.3968 97.227 18.3368 97.369C18.2768 97.509 18.1928 97.614 18.0848 97.684C17.9788 97.754 17.8548 97.789 17.7128 97.789ZM17.7128 97.585C17.8608 97.585 17.9758 97.521 18.0578 97.393C18.1398 97.263 18.1808 97.078 18.1808 96.838C18.1808 96.66 18.1588 96.517 18.1148 96.409C18.0728 96.299 18.0168 96.219 17.9468 96.169C17.8768 96.119 17.7988 96.094 17.7128 96.094C17.6288 96.094 17.5508 96.12 17.4788 96.172C17.4088 96.222 17.3528 96.302 17.3108 96.412C17.2688 96.522 17.2478 96.664 17.2478 96.838C17.2478 97.078 17.2888 97.263 17.3708 97.393C17.4528 97.521 17.5668 97.585 17.7128 97.585Z" fill="#A73C4C"/>
<path d="M23.25 25.5847L24.5564 25.5847C24.5885 25.5849 24.6202 25.5783 24.6496 25.5655C24.6789 25.5526 24.7051 25.5338 24.7264 25.5102L24.9338 25.2867C24.9446 25.2751 24.9577 25.2659 24.9724 25.2596C24.987 25.2532 25.0028 25.25 25.0188 25.25L26.3667 25.25C26.4272 25.25 26.4854 25.2736 26.5283 25.3157C26.5713 25.3578 26.5955 25.4149 26.5958 25.4745L26.5958 26.9133C26.5955 27.0027 26.5592 27.0883 26.4949 27.1514C26.4306 27.2146 26.3434 27.25 26.2526 27.25L25.0084 27.25C24.9792 27.2497 24.9512 27.2388 24.9296 27.2194L24.6964 27.0041C24.6541 26.9646 24.598 26.9426 24.5398 26.9429L23.25 26.9429" stroke="#3A3A3A" stroke-width="0.4" stroke-linecap="round"/>
<path d="M27.0903 26.25C27.0903 26.5831 27.3647 26.8531 27.7031 26.8531C28.0415 26.8531 28.3159 26.5831 28.3159 26.25C28.3159 25.9169 28.0415 25.6469 27.7031 25.6469C27.3647 25.6469 27.0903 25.9169 27.0903 26.25Z" stroke="#3A3A3A" stroke-width="0.4" stroke-linecap="round"/>
<path d="M23.25 20.7495L24.3506 20.7495C24.3812 20.7492 24.4105 20.7371 24.4321 20.7157C24.4536 20.6943 24.4657 20.6654 24.4657 20.6353L24.4657 20.3625C24.4658 20.3442 24.4705 20.3261 24.4792 20.3099C24.4879 20.2938 24.5004 20.2799 24.5157 20.2694C24.531 20.259 24.5486 20.2523 24.5671 20.25C24.5856 20.2477 24.6043 20.2498 24.6218 20.2561L26.4229 20.9071C26.4449 20.9152 26.464 20.9297 26.4776 20.9487C26.4912 20.9676 26.4986 20.9902 26.4989 21.0134L26.4989 21.7027C26.499 21.7263 26.4916 21.7493 26.4778 21.7685C26.464 21.7878 26.4445 21.8023 26.4219 21.8101L24.6208 22.4482C24.6027 22.4541 24.5835 22.4555 24.5647 22.4523C24.546 22.4491 24.5283 22.4414 24.5133 22.4299C24.4983 22.4185 24.4864 22.4035 24.4786 22.3865C24.4708 22.3694 24.4674 22.3507 24.4687 22.332L24.4687 22.0366C24.4669 22.0071 24.4536 21.9795 24.4316 21.9595C24.4096 21.9395 24.3806 21.9287 24.3506 21.9292L23.25 21.9292" stroke="#3A3A3A" stroke-width="0.4" stroke-linecap="round"/>
<path d="M27.0673 21.3473C27.0673 21.6687 27.332 21.9293 27.6586 21.9293C27.9852 21.9293 28.25 21.6687 28.25 21.3473C28.25 21.0259 27.9852 20.7653 27.6586 20.7653C27.332 20.7653 27.0673 21.0259 27.0673 21.3473Z" stroke="#3A3A3A" stroke-width="0.4" stroke-linecap="round"/>
<path d="M23.849 93.3735L24.9944 91.9624L25.5183 92.6413L24.5085 93.9461C24.1217 94.4454 23.4061 93.9193 23.849 93.3735ZM25.1866 90.16C25.2957 89.7984 25.2456 89.4894 24.8357 89.0304L23.8342 87.8062C23.692 87.6366 23.3571 87.8857 23.497 88.0911L24.298 89.0936C24.4495 89.2806 24.168 89.528 24.0116 89.3355L23.183 88.2988C23.0288 88.1191 22.7098 88.3564 22.8712 88.5619C23.1048 88.8473 23.4662 89.3136 23.6997 89.5991C23.8617 89.7665 23.6155 90.0144 23.4557 89.8056L22.6332 88.7757C22.5126 88.6425 22.3153 88.7253 22.263 88.8809C22.2068 89.0472 22.3451 89.1686 22.4393 89.2918L23.3571 90.4964C23.6419 90.8317 23.9603 91.0304 24.3305 90.9179C24.3873 90.9005 24.4567 90.8652 24.531 90.8188L26.9969 94.053C27.1296 94.2271 27.3858 94.2456 27.5522 94.1051L27.5902 94.0732C27.7775 93.9148 27.8078 93.6254 27.6475 93.4384L25.0362 90.39C25.1122 90.3038 25.1679 90.2221 25.1866 90.16ZM25.8846 90.8652L26.2906 90.3648C25.7684 89.0494 27.7037 87.2963 28.6418 88.1023C29.7816 89.0824 28.0876 91.4446 26.8971 90.8608L26.4162 91.4815L25.8846 90.8652Z" fill="#3A3A3A"/>
</svg>
