<svg width="110" height="93" viewBox="0 0 110 93" fill="none" xmlns="http://www.w3.org/2000/svg">
<path d="M0.19281 2.15002H31.5053V24.4075H77.6928V2.15002H109.193V69.2771H31.5053V92.15H0.19281V2.15002Z" fill="white"/>
<path d="M28.6928 2.15002H31.4741V24.5274H77.6928V2.15002H80.6928" stroke="#A73C4C" stroke-width="0.5"/>
<path d="M85.4107 2.15002H109.24V69.2821H31.4741L31.4741 92.2483H0.25V2.15002H24.1928" stroke="#A73C4C" stroke-width="0.5"/>
<path d="M40.6928 24.65L40.6928 47.4307" stroke="#A73C4C" stroke-width="0.5"/>
<path d="M31.1928 24.65H28.6928" stroke="#A73C4C" stroke-width="0.5"/>
<path d="M24.0992 24.65L7.47015 24.65" stroke="#A73C4C" stroke-width="0.5"/>
<path d="M15.6928 48.818L15.6928 37.1501" stroke="#A73C4C" stroke-width="0.5"/>
<path d="M0.69281 47.15H15.6928" stroke="#A73C4C" stroke-width="0.5"/>
<path d="M0.69281 47.15H15.6928" stroke="#A73C4C" stroke-width="0.5"/>
<path d="M15.6928 53.3571L15.6928 70.2438" stroke="#A73C4C" stroke-width="0.5"/>
<path d="M15.6928 69.15H0.502136" stroke="#A73C4C" stroke-width="0.5"/>
<path d="M15.6928 92.15L15.6928 74.9156" stroke="#A73C4C" stroke-width="0.5"/>
<path d="M31.4428 69.65L31.4728 54.7942" stroke="#A73C4C" stroke-width="0.5"/>
<path d="M40.4428 69.15V54.9099" stroke="#A73C4C" stroke-width="0.5"/>
<path d="M15.6928 32.4391L15.6928 24.65" stroke="#A73C4C" stroke-width="0.5"/>
<path d="M9.69281 24.65L9.69281 2.15005" stroke="#A73C4C" stroke-width="0.5"/>
<path d="M22.1928 24.65L22.1928 23.65" stroke="#A73C4C" stroke-width="0.5"/>
<path d="M22.1928 19.15L22.1928 2.15002" stroke="#A73C4C" stroke-width="0.5"/>
<path d="M2.79047 24.65H0.45343" stroke="#A73C4C" stroke-width="0.5"/>
<path d="M50.1928 24.65L50.1928 47.4307" stroke="#A73C4C" stroke-width="0.5"/>
<path d="M77.9174 47.4001H75.7937" stroke="#A73C4C" stroke-width="0.5"/>
<path d="M109.193 47.4001L85.4428 47.4001" stroke="#A73C4C" stroke-width="0.5"/>
<path d="M109.086 25.15H106.586" stroke="#A73C4C" stroke-width="0.5"/>
<path d="M101.899 25.15L84.6928 25.15" stroke="#A73C4C" stroke-width="0.5"/>
<path d="M80.1928 25.15H77.6928" stroke="#A73C4C" stroke-width="0.5"/>
<path d="M99.9428 25.3204V2.14996" stroke="#A73C4C" stroke-width="0.5"/>
<path d="M87.1928 25.3205L87.1928 22.9664" stroke="#A73C4C" stroke-width="0.5"/>
<path d="M87.1928 18.4156L87.1928 2.15002" stroke="#A73C4C" stroke-width="0.5"/>
<path d="M71.1164 47.4001H66.4391" stroke="#A73C4C" stroke-width="0.5"/>
<path d="M61.7758 47.4001H57.0985" stroke="#A73C4C" stroke-width="0.5"/>
<path d="M52.4073 47.4001H47.7579" stroke="#A73C4C" stroke-width="0.5"/>
<path d="M43.0527 47.4001H38.507" stroke="#A73C4C" stroke-width="0.5"/>
<path d="M33.8369 47.4001H30.9979" stroke="#A73C4C" stroke-width="0.5"/>
<path d="M33.7928 55.04H31.2928" stroke="#A73C4C" stroke-width="0.5"/>
<path d="M43.0712 55.04H38.383" stroke="#A73C4C" stroke-width="0.5"/>
<path d="M57.0873 55.04H47.7397" stroke="#A73C4C" stroke-width="0.5"/>
<path d="M71.125 55.04H61.783" stroke="#A73C4C" stroke-width="0.5"/>
<path d="M93.1928 55.04H85.028" stroke="#A73C4C" stroke-width="0.5"/>
<path d="M80.3467 55.04H75.6928" stroke="#A73C4C" stroke-width="0.5"/>
<path d="M93.1928 49.15V47.15" stroke="#A73C4C" stroke-width="0.5"/>
<path d="M49.6928 69.15V55.15" stroke="#A73C4C" stroke-width="0.5"/>
<path d="M68.1928 69.15V55.15" stroke="#A73C4C" stroke-width="0.5"/>
<path d="M77.6928 69.15V55.15" stroke="#A73C4C" stroke-width="0.5"/>
<path d="M93.1928 69.15V54.0074" stroke="#A73C4C" stroke-width="0.5"/>
<path d="M59.1928 24.6499L59.1928 47.4308" stroke="#A73C4C" stroke-width="0.5"/>
<path d="M31.2228 24.4063V32.5153" stroke="#A73C4C" stroke-width="0.5"/>
<path d="M31.2228 37.15L31.2228 47.65" stroke="#A73C4C" stroke-width="0.5"/>
<path d="M40.6928 43.15H31.1928" stroke="#A73C4C" stroke-width="0.5"/>
<path d="M68.6928 24.6499V47.4307" stroke="#A73C4C" stroke-width="0.5"/>
<path d="M77.6728 24.65V47.4308" stroke="#A73C4C" stroke-width="0.5"/>
<path d="M85.6928 25.15V28.15" stroke="#A73C4C" stroke-width="0.5"/>
<path d="M85.6928 31.65V41.65" stroke="#A73C4C" stroke-width="0.5"/>
<path d="M85.6928 45.15V47.4308" stroke="#A73C4C" stroke-width="0.5"/>
<path d="M15.6928 75.65L23.1928 72.65" stroke="#A73C4C" stroke-width="0.5"/>
<path d="M27.6575 70.8116L31.6928 69.15" stroke="#A73C4C" stroke-width="0.5"/>
<path d="M34.4628 35.03H34.0578V33.5L33.4178 33.8C33.3745 33.7834 33.3378 33.7584 33.3078 33.725C33.2811 33.6917 33.2678 33.65 33.2678 33.6C33.2678 33.5034 33.3278 33.43 33.4478 33.38L34.1478 33.075H34.2428C34.3095 33.075 34.3628 33.095 34.4028 33.135C34.4428 33.175 34.4628 33.2284 34.4628 33.295V35.03ZM34.0578 34.83H34.4628V36.155C34.4428 36.1617 34.4161 36.1684 34.3828 36.175C34.3495 36.185 34.3128 36.19 34.2728 36.19C34.2028 36.19 34.1495 36.175 34.1128 36.145C34.0761 36.115 34.0578 36.0684 34.0578 36.005V34.83ZM36.2743 35.03H35.8693V33.5L35.2293 33.8C35.186 33.7834 35.1493 33.7584 35.1193 33.725C35.0927 33.6917 35.0793 33.65 35.0793 33.6C35.0793 33.5034 35.1393 33.43 35.2593 33.38L35.9593 33.075H36.0543C36.121 33.075 36.1743 33.095 36.2143 33.135C36.2543 33.175 36.2743 33.2284 36.2743 33.295V35.03ZM35.8693 34.83H36.2743V36.155C36.2543 36.1617 36.2277 36.1684 36.1943 36.175C36.161 36.185 36.1243 36.19 36.0843 36.19C36.0143 36.19 35.961 36.175 35.9243 36.145C35.8877 36.115 35.8693 36.0684 35.8693 36.005V34.83ZM37.9009 33.045C38.2175 33.045 38.4725 33.115 38.6659 33.255C38.8625 33.3917 38.9609 33.5984 38.9609 33.875C38.9609 34.0084 38.9325 34.1234 38.8759 34.22C38.8225 34.3134 38.7575 34.3867 38.6809 34.44C38.6075 34.4934 38.5409 34.5284 38.4809 34.545C38.5709 34.5717 38.6592 34.6184 38.7459 34.685C38.8325 34.7484 38.9042 34.8317 38.9609 34.935C39.0209 35.035 39.0509 35.1567 39.0509 35.3C39.0509 35.5 39.0025 35.6667 38.9059 35.8C38.8092 35.9334 38.6759 36.035 38.5059 36.105C38.3359 36.1717 38.1392 36.205 37.9159 36.205C37.7325 36.205 37.5692 36.1867 37.4259 36.15C37.2859 36.11 37.1759 36.06 37.0959 36C37.0159 35.94 36.9759 35.8767 36.9759 35.81C36.9759 35.7634 36.9875 35.7234 37.0109 35.69C37.0375 35.6567 37.0709 35.6284 37.1109 35.605C37.1975 35.6717 37.3025 35.7317 37.4259 35.785C37.5525 35.8384 37.7159 35.865 37.9159 35.865C38.1359 35.865 38.3142 35.8184 38.4509 35.725C38.5875 35.6284 38.6559 35.4834 38.6559 35.29C38.6559 35.12 38.5925 34.9834 38.4659 34.88C38.3392 34.7767 38.1559 34.725 37.9159 34.725H37.5009C37.4875 34.7084 37.4759 34.685 37.4659 34.655C37.4559 34.6217 37.4509 34.5884 37.4509 34.555C37.4509 34.5184 37.4559 34.485 37.4659 34.455C37.4759 34.425 37.4875 34.4017 37.5009 34.385H37.8809C38.1275 34.385 38.3025 34.34 38.4059 34.25C38.5125 34.1567 38.5659 34.035 38.5659 33.885C38.5659 33.7217 38.5059 33.5984 38.3859 33.515C38.2659 33.4284 38.1025 33.385 37.8959 33.385C37.7359 33.385 37.5942 33.41 37.4709 33.46C37.3509 33.5067 37.2509 33.5584 37.1709 33.615C37.1375 33.5984 37.1075 33.5717 37.0809 33.535C37.0542 33.4984 37.0409 33.4584 37.0409 33.415C37.0409 33.355 37.0792 33.2967 37.1559 33.24C37.2325 33.1834 37.3359 33.1367 37.4659 33.1C37.5959 33.0634 37.7409 33.045 37.9009 33.045Z" fill="#A73C4C"/>
<path d="M43.4628 36.03H43.0578V34.5L42.4178 34.8C42.3745 34.7834 42.3378 34.7584 42.3078 34.725C42.2811 34.6917 42.2678 34.65 42.2678 34.6C42.2678 34.5034 42.3278 34.43 42.4478 34.38L43.1478 34.075H43.2428C43.3095 34.075 43.3628 34.095 43.4028 34.135C43.4428 34.175 43.4628 34.2284 43.4628 34.295V36.03ZM43.0578 35.83H43.4628V37.155C43.4428 37.1617 43.4161 37.1684 43.3828 37.175C43.3495 37.185 43.3128 37.19 43.2728 37.19C43.2028 37.19 43.1495 37.175 43.1128 37.145C43.0761 37.115 43.0578 37.0684 43.0578 37.005V35.83ZM45.2743 36.03H44.8693V34.5L44.2293 34.8C44.186 34.7834 44.1493 34.7584 44.1193 34.725C44.0927 34.6917 44.0793 34.65 44.0793 34.6C44.0793 34.5034 44.1393 34.43 44.2593 34.38L44.9593 34.075H45.0543C45.121 34.075 45.1743 34.095 45.2143 34.135C45.2543 34.175 45.2743 34.2284 45.2743 34.295V36.03ZM44.8693 35.83H45.2743V37.155C45.2543 37.1617 45.2277 37.1684 45.1943 37.175C45.161 37.185 45.1243 37.19 45.0843 37.19C45.0143 37.19 44.961 37.175 44.9243 37.145C44.8877 37.115 44.8693 37.0684 44.8693 37.005V35.83ZM47.0859 36.03H46.6809V34.5L46.0409 34.8C45.9975 34.7834 45.9609 34.7584 45.9309 34.725C45.9042 34.6917 45.8909 34.65 45.8909 34.6C45.8909 34.5034 45.9509 34.43 46.0709 34.38L46.7709 34.075H46.8659C46.9325 34.075 46.9859 34.095 47.0259 34.135C47.0659 34.175 47.0859 34.2284 47.0859 34.295V36.03ZM46.6809 35.83H47.0859V37.155C47.0659 37.1617 47.0392 37.1684 47.0059 37.175C46.9725 37.185 46.9359 37.19 46.8959 37.19C46.8259 37.19 46.7725 37.175 46.7359 37.145C46.6992 37.115 46.6809 37.0684 46.6809 37.005V35.83Z" fill="#A73C4C"/>
<path d="M52.9628 36.03H52.5578V34.5L51.9178 34.8C51.8745 34.7834 51.8378 34.7584 51.8078 34.725C51.7811 34.6917 51.7678 34.65 51.7678 34.6C51.7678 34.5034 51.8278 34.43 51.9478 34.38L52.6478 34.075H52.7428C52.8095 34.075 52.8628 34.095 52.9028 34.135C52.9428 34.175 52.9628 34.2284 52.9628 34.295V36.03ZM52.5578 35.83H52.9628V37.155C52.9428 37.1617 52.9161 37.1684 52.8828 37.175C52.8495 37.185 52.8128 37.19 52.7728 37.19C52.7028 37.19 52.6495 37.175 52.6128 37.145C52.5761 37.115 52.5578 37.0684 52.5578 37.005V35.83ZM54.7743 36.03H54.3693V34.5L53.7293 34.8C53.686 34.7834 53.6493 34.7584 53.6193 34.725C53.5927 34.6917 53.5793 34.65 53.5793 34.6C53.5793 34.5034 53.6393 34.43 53.7593 34.38L54.4593 34.075H54.5543C54.621 34.075 54.6743 34.095 54.7143 34.135C54.7543 34.175 54.7743 34.2284 54.7743 34.295V36.03ZM54.3693 35.83H54.7743V37.155C54.7543 37.1617 54.7277 37.1684 54.6943 37.175C54.661 37.185 54.6243 37.19 54.5843 37.19C54.5143 37.19 54.461 37.175 54.4243 37.145C54.3877 37.115 54.3693 37.0684 54.3693 37.005V35.83ZM56.7464 37.215C56.5131 37.215 56.3064 37.1584 56.1264 37.045C55.9498 36.9284 55.8114 36.7534 55.7114 36.52C55.6114 36.2834 55.5614 35.9867 55.5614 35.63C55.5614 35.2467 55.6181 34.94 55.7314 34.71C55.8448 34.48 55.9914 34.3134 56.1714 34.21C56.3514 34.1034 56.5431 34.05 56.7464 34.05C56.9531 34.05 57.1464 34.1034 57.3264 34.21C57.5098 34.3167 57.6564 34.4867 57.7664 34.72C57.8798 34.95 57.9364 35.2534 57.9364 35.63C57.9364 35.9834 57.8864 36.2784 57.7864 36.515C57.6864 36.7484 57.5464 36.9234 57.3664 37.04C57.1898 37.1567 56.9831 37.215 56.7464 37.215ZM56.7464 36.875C56.9931 36.875 57.1848 36.7684 57.3214 36.555C57.4581 36.3384 57.5264 36.03 57.5264 35.63C57.5264 35.3334 57.4898 35.095 57.4164 34.915C57.3464 34.7317 57.2531 34.5984 57.1364 34.515C57.0198 34.4317 56.8898 34.39 56.7464 34.39C56.6064 34.39 56.4764 34.4334 56.3564 34.52C56.2398 34.6034 56.1464 34.7367 56.0764 34.92C56.0064 35.1034 55.9714 35.34 55.9714 35.63C55.9714 36.03 56.0398 36.3384 56.1764 36.555C56.3131 36.7684 56.5031 36.875 56.7464 36.875Z" fill="#A73C4C"/>
<path d="M61.9628 36.03H61.5578V34.5L60.9178 34.8C60.8745 34.7834 60.8378 34.7584 60.8078 34.725C60.7811 34.6917 60.7678 34.65 60.7678 34.6C60.7678 34.5034 60.8278 34.43 60.9478 34.38L61.6478 34.075H61.7428C61.8095 34.075 61.8628 34.095 61.9028 34.135C61.9428 34.175 61.9628 34.2284 61.9628 34.295V36.03ZM61.5578 35.83H61.9628V37.155C61.9428 37.1617 61.9161 37.1684 61.8828 37.175C61.8495 37.185 61.8128 37.19 61.7728 37.19C61.7028 37.19 61.6495 37.175 61.6128 37.145C61.5761 37.115 61.5578 37.0684 61.5578 37.005V35.83ZM63.9349 37.215C63.7016 37.215 63.4949 37.1584 63.3149 37.045C63.1383 36.9284 62.9999 36.7534 62.8999 36.52C62.7999 36.2834 62.7499 35.9867 62.7499 35.63C62.7499 35.2467 62.8066 34.94 62.9199 34.71C63.0333 34.48 63.1799 34.3134 63.3599 34.21C63.5399 34.1034 63.7316 34.05 63.9349 34.05C64.1416 34.05 64.3349 34.1034 64.5149 34.21C64.6983 34.3167 64.8449 34.4867 64.9549 34.72C65.0683 34.95 65.1249 35.2534 65.1249 35.63C65.1249 35.9834 65.0749 36.2784 64.9749 36.515C64.8749 36.7484 64.7349 36.9234 64.5549 37.04C64.3783 37.1567 64.1716 37.215 63.9349 37.215ZM63.9349 36.875C64.1816 36.875 64.3733 36.7684 64.5099 36.555C64.6466 36.3384 64.7149 36.03 64.7149 35.63C64.7149 35.3334 64.6783 35.095 64.6049 34.915C64.5349 34.7317 64.4416 34.5984 64.3249 34.515C64.2083 34.4317 64.0783 34.39 63.9349 34.39C63.7949 34.39 63.6649 34.4334 63.5449 34.52C63.4283 34.6034 63.3349 34.7367 63.2649 34.92C63.1949 35.1034 63.1599 35.34 63.1599 35.63C63.1599 36.03 63.2283 36.3384 63.3649 36.555C63.5016 36.7684 63.6916 36.875 63.9349 36.875ZM66.82 37.215C66.5933 37.215 66.395 37.1817 66.225 37.115C66.055 37.045 65.9233 36.945 65.83 36.815C65.7366 36.685 65.69 36.5284 65.69 36.345C65.69 36.1817 65.7266 36.0434 65.8 35.93C65.8766 35.8134 65.9733 35.72 66.09 35.65C66.2066 35.58 66.3283 35.5334 66.455 35.51L66.755 35.46C66.995 35.4134 67.175 35.345 67.295 35.255C67.415 35.1617 67.475 35.0384 67.475 34.885C67.475 34.7284 67.4166 34.6067 67.3 34.52C67.1833 34.43 67.0233 34.385 66.82 34.385C66.6233 34.385 66.465 34.43 66.345 34.52C66.225 34.61 66.165 34.73 66.165 34.88C66.165 35.0067 66.1983 35.1084 66.265 35.185C66.335 35.2617 66.4266 35.32 66.54 35.36C66.6566 35.3967 66.7833 35.4217 66.92 35.435L67.14 35.51C67.2766 35.5367 67.4066 35.585 67.53 35.655C67.6533 35.7217 67.7533 35.8117 67.83 35.925C67.9066 36.0384 67.945 36.18 67.945 36.35C67.945 36.53 67.8966 36.685 67.8 36.815C67.7066 36.945 67.575 37.045 67.405 37.115C67.2383 37.1817 67.0433 37.215 66.82 37.215ZM66.82 36.88C67.0366 36.88 67.2116 36.8334 67.345 36.74C67.4783 36.6467 67.545 36.5117 67.545 36.335C67.545 36.1417 67.4633 35.9884 67.3 35.875C67.14 35.7617 66.925 35.6967 66.655 35.68L66.4 35.605C66.2066 35.5517 66.0516 35.465 65.935 35.345C65.8216 35.225 65.765 35.0684 65.765 34.875C65.765 34.705 65.8083 34.5584 65.895 34.435C65.985 34.3117 66.1083 34.2167 66.265 34.15C66.425 34.0834 66.61 34.05 66.82 34.05C67.1466 34.05 67.4033 34.125 67.59 34.275C67.78 34.4217 67.875 34.625 67.875 34.885C67.875 35.095 67.8033 35.26 67.66 35.38C67.52 35.5 67.3483 35.5784 67.145 35.615L66.805 35.685C66.5916 35.7184 66.4183 35.7917 66.285 35.905C66.155 36.015 66.09 36.16 66.09 36.34C66.09 36.51 66.155 36.6434 66.285 36.74C66.415 36.8334 66.5933 36.88 66.82 36.88Z" fill="#A73C4C"/>
<path d="M95.4628 33.03H95.0578V31.5L94.4178 31.8C94.3745 31.7834 94.3378 31.7584 94.3078 31.725C94.2811 31.6917 94.2678 31.65 94.2678 31.6C94.2678 31.5034 94.3278 31.43 94.4478 31.38L95.1478 31.075H95.2428C95.3095 31.075 95.3628 31.095 95.4028 31.135C95.4428 31.175 95.4628 31.2284 95.4628 31.295V33.03ZM95.0578 32.83H95.4628V34.155C95.4428 34.1617 95.4161 34.1684 95.3828 34.175C95.3495 34.185 95.3128 34.19 95.2728 34.19C95.2028 34.19 95.1495 34.175 95.1128 34.145C95.0761 34.115 95.0578 34.0684 95.0578 34.005V32.83ZM97.4349 34.215C97.2016 34.215 96.9949 34.1584 96.8149 34.045C96.6383 33.9284 96.4999 33.7534 96.3999 33.52C96.2999 33.2834 96.2499 32.9867 96.2499 32.63C96.2499 32.2467 96.3066 31.94 96.4199 31.71C96.5333 31.48 96.6799 31.3134 96.8599 31.21C97.0399 31.1034 97.2316 31.05 97.4349 31.05C97.6416 31.05 97.8349 31.1034 98.0149 31.21C98.1983 31.3167 98.3449 31.4867 98.4549 31.72C98.5683 31.95 98.6249 32.2534 98.6249 32.63C98.6249 32.9834 98.5749 33.2784 98.4749 33.515C98.3749 33.7484 98.2349 33.9234 98.0549 34.04C97.8783 34.1567 97.6716 34.215 97.4349 34.215ZM97.4349 33.875C97.6816 33.875 97.8733 33.7684 98.0099 33.555C98.1466 33.3384 98.2149 33.03 98.2149 32.63C98.2149 32.3334 98.1783 32.095 98.1049 31.915C98.0349 31.7317 97.9416 31.5984 97.8249 31.515C97.7083 31.4317 97.5783 31.39 97.4349 31.39C97.2949 31.39 97.1649 31.4334 97.0449 31.52C96.9283 31.6034 96.8349 31.7367 96.7649 31.92C96.6949 32.1034 96.6599 32.34 96.6599 32.63C96.6599 33.03 96.7283 33.3384 96.8649 33.555C97.0016 33.7684 97.1916 33.875 97.4349 33.875ZM100.116 33.03H99.7111V31.5L99.0711 31.8C99.0278 31.7834 98.9911 31.7584 98.9611 31.725C98.9345 31.6917 98.9211 31.65 98.9211 31.6C98.9211 31.5034 98.9811 31.43 99.1011 31.38L99.8011 31.075H99.8961C99.9628 31.075 100.016 31.095 100.056 31.135C100.096 31.175 100.116 31.2284 100.116 31.295V33.03ZM99.7111 32.83H100.116V34.155C100.096 34.1617 100.069 34.1684 100.036 34.175C100.003 34.185 99.9661 34.19 99.9261 34.19C99.8561 34.19 99.8028 34.175 99.7661 34.145C99.7295 34.115 99.7111 34.0684 99.7111 34.005V32.83Z" fill="#A73C4C"/>
<path d="M95.4628 41.03H95.0578V39.5L94.4178 39.8C94.3745 39.7834 94.3378 39.7584 94.3078 39.725C94.2811 39.6917 94.2678 39.65 94.2678 39.6C94.2678 39.5034 94.3278 39.43 94.4478 39.38L95.1478 39.075H95.2428C95.3095 39.075 95.3628 39.095 95.4028 39.135C95.4428 39.175 95.4628 39.2284 95.4628 39.295V41.03ZM95.0578 40.83H95.4628V42.155C95.4428 42.1617 95.4161 42.1684 95.3828 42.175C95.3495 42.185 95.3128 42.19 95.2728 42.19C95.2028 42.19 95.1495 42.175 95.1128 42.145C95.0761 42.115 95.0578 42.0684 95.0578 42.005V40.83ZM97.4349 42.215C97.2016 42.215 96.9949 42.1584 96.8149 42.045C96.6383 41.9284 96.4999 41.7534 96.3999 41.52C96.2999 41.2834 96.2499 40.9867 96.2499 40.63C96.2499 40.2467 96.3066 39.94 96.4199 39.71C96.5333 39.48 96.6799 39.3134 96.8599 39.21C97.0399 39.1034 97.2316 39.05 97.4349 39.05C97.6416 39.05 97.8349 39.1034 98.0149 39.21C98.1983 39.3167 98.3449 39.4867 98.4549 39.72C98.5683 39.95 98.6249 40.2534 98.6249 40.63C98.6249 40.9834 98.5749 41.2784 98.4749 41.515C98.3749 41.7484 98.2349 41.9234 98.0549 42.04C97.8783 42.1567 97.6716 42.215 97.4349 42.215ZM97.4349 41.875C97.6816 41.875 97.8733 41.7684 98.0099 41.555C98.1466 41.3384 98.2149 41.03 98.2149 40.63C98.2149 40.3334 98.1783 40.095 98.1049 39.915C98.0349 39.7317 97.9416 39.5984 97.8249 39.515C97.7083 39.4317 97.5783 39.39 97.4349 39.39C97.2949 39.39 97.1649 39.4334 97.0449 39.52C96.9283 39.6034 96.8349 39.7367 96.7649 39.92C96.6949 40.1034 96.6599 40.34 96.6599 40.63C96.6599 41.03 96.7283 41.3384 96.8649 41.555C97.0016 41.7684 97.1916 41.875 97.4349 41.875ZM99.1751 39.425C99.1751 39.365 99.2134 39.3067 99.2901 39.25C99.3667 39.19 99.4701 39.1417 99.6001 39.105C99.7301 39.0684 99.8717 39.05 100.025 39.05C100.238 39.05 100.422 39.0867 100.575 39.16C100.728 39.23 100.847 39.33 100.93 39.46C101.013 39.59 101.055 39.7434 101.055 39.92C101.055 40.1034 101.003 40.2834 100.9 40.46C100.8 40.6367 100.627 40.8384 100.38 41.065L99.5651 41.82H101.05C101.063 41.8334 101.075 41.855 101.085 41.885C101.095 41.9117 101.1 41.9434 101.1 41.98C101.1 42.0334 101.085 42.075 101.055 42.105C101.028 42.135 100.992 42.15 100.945 42.15H99.1801C99.1467 42.1267 99.1217 42.0984 99.1051 42.065C99.0884 42.0284 99.0801 41.99 99.0801 41.95C99.0801 41.8967 99.0901 41.85 99.1101 41.81C99.1301 41.7667 99.1601 41.7267 99.2001 41.69L100.1 40.825C100.307 40.6317 100.448 40.47 100.525 40.34C100.602 40.2067 100.64 40.0684 100.64 39.925C100.64 39.7684 100.587 39.64 100.48 39.54C100.373 39.44 100.212 39.39 99.9951 39.39C99.8484 39.39 99.7167 39.415 99.6001 39.465C99.4867 39.515 99.3917 39.5684 99.3151 39.625C99.2784 39.6084 99.2451 39.5834 99.2151 39.55C99.1884 39.5167 99.1751 39.475 99.1751 39.425Z" fill="#A73C4C"/>
<path d="M98.9628 52.03H98.5578V50.5L97.9178 50.8C97.8745 50.7834 97.8378 50.7584 97.8078 50.725C97.7811 50.6917 97.7678 50.65 97.7678 50.6C97.7678 50.5034 97.8278 50.43 97.9478 50.38L98.6478 50.075H98.7428C98.8095 50.075 98.8628 50.095 98.9028 50.135C98.9428 50.175 98.9628 50.2284 98.9628 50.295V52.03ZM98.5578 51.83H98.9628V53.155C98.9428 53.1617 98.9161 53.1684 98.8828 53.175C98.8495 53.185 98.8128 53.19 98.7728 53.19C98.7028 53.19 98.6495 53.175 98.6128 53.145C98.5761 53.115 98.5578 53.0684 98.5578 53.005V51.83ZM100.935 53.215C100.702 53.215 100.495 53.1584 100.315 53.045C100.138 52.9284 99.9999 52.7534 99.8999 52.52C99.7999 52.2834 99.7499 51.9867 99.7499 51.63C99.7499 51.2467 99.8066 50.94 99.9199 50.71C100.033 50.48 100.18 50.3134 100.36 50.21C100.54 50.1034 100.732 50.05 100.935 50.05C101.142 50.05 101.335 50.1034 101.515 50.21C101.698 50.3167 101.845 50.4867 101.955 50.72C102.068 50.95 102.125 51.2534 102.125 51.63C102.125 51.9834 102.075 52.2784 101.975 52.515C101.875 52.7484 101.735 52.9234 101.555 53.04C101.378 53.1567 101.172 53.215 100.935 53.215ZM100.935 52.875C101.182 52.875 101.373 52.7684 101.51 52.555C101.647 52.3384 101.715 52.03 101.715 51.63C101.715 51.3334 101.678 51.095 101.605 50.915C101.535 50.7317 101.442 50.5984 101.325 50.515C101.208 50.4317 101.078 50.39 100.935 50.39C100.795 50.39 100.665 50.4334 100.545 50.52C100.428 50.6034 100.335 50.7367 100.265 50.92C100.195 51.1034 100.16 51.34 100.16 51.63C100.16 52.03 100.228 52.3384 100.365 52.555C100.502 52.7684 100.692 52.875 100.935 52.875ZM103.441 50.045C103.758 50.045 104.013 50.115 104.206 50.255C104.403 50.3917 104.501 50.5984 104.501 50.875C104.501 51.0084 104.473 51.1234 104.416 51.22C104.363 51.3134 104.298 51.3867 104.221 51.44C104.148 51.4934 104.081 51.5284 104.021 51.545C104.111 51.5717 104.199 51.6184 104.286 51.685C104.373 51.7484 104.444 51.8317 104.501 51.935C104.561 52.035 104.591 52.1567 104.591 52.3C104.591 52.5 104.543 52.6667 104.446 52.8C104.349 52.9334 104.216 53.035 104.046 53.105C103.876 53.1717 103.679 53.205 103.456 53.205C103.273 53.205 103.109 53.1867 102.966 53.15C102.826 53.11 102.716 53.06 102.636 53C102.556 52.94 102.516 52.8767 102.516 52.81C102.516 52.7634 102.528 52.7234 102.551 52.69C102.578 52.6567 102.611 52.6284 102.651 52.605C102.738 52.6717 102.843 52.7317 102.966 52.785C103.093 52.8384 103.256 52.865 103.456 52.865C103.676 52.865 103.854 52.8184 103.991 52.725C104.128 52.6284 104.196 52.4834 104.196 52.29C104.196 52.12 104.133 51.9834 104.006 51.88C103.879 51.7767 103.696 51.725 103.456 51.725H103.041C103.028 51.7084 103.016 51.685 103.006 51.655C102.996 51.6217 102.991 51.5884 102.991 51.555C102.991 51.5184 102.996 51.485 103.006 51.455C103.016 51.425 103.028 51.4017 103.041 51.385H103.421C103.668 51.385 103.843 51.34 103.946 51.25C104.053 51.1567 104.106 51.035 104.106 50.885C104.106 50.7217 104.046 50.5984 103.926 50.515C103.806 50.4284 103.643 50.385 103.436 50.385C103.276 50.385 103.134 50.41 103.011 50.46C102.891 50.5067 102.791 50.5584 102.711 50.615C102.678 50.5984 102.648 50.5717 102.621 50.535C102.594 50.4984 102.581 50.4584 102.581 50.415C102.581 50.355 102.619 50.2967 102.696 50.24C102.773 50.1834 102.876 50.1367 103.006 50.1C103.136 50.0634 103.281 50.045 103.441 50.045Z" fill="#A73C4C"/>
<path d="M98.9628 59.03H98.5578V57.5L97.9178 57.8C97.8745 57.7834 97.8378 57.7584 97.8078 57.725C97.7811 57.6917 97.7678 57.65 97.7678 57.6C97.7678 57.5034 97.8278 57.43 97.9478 57.38L98.6478 57.075H98.7428C98.8095 57.075 98.8628 57.095 98.9028 57.135C98.9428 57.175 98.9628 57.2284 98.9628 57.295V59.03ZM98.5578 58.83H98.9628V60.155C98.9428 60.1617 98.9161 60.1684 98.8828 60.175C98.8495 60.185 98.8128 60.19 98.7728 60.19C98.7028 60.19 98.6495 60.175 98.6128 60.145C98.5761 60.115 98.5578 60.0684 98.5578 60.005V58.83ZM100.935 60.215C100.702 60.215 100.495 60.1584 100.315 60.045C100.138 59.9284 99.9999 59.7534 99.8999 59.52C99.7999 59.2834 99.7499 58.9867 99.7499 58.63C99.7499 58.2467 99.8066 57.94 99.9199 57.71C100.033 57.48 100.18 57.3134 100.36 57.21C100.54 57.1034 100.732 57.05 100.935 57.05C101.142 57.05 101.335 57.1034 101.515 57.21C101.698 57.3167 101.845 57.4867 101.955 57.72C102.068 57.95 102.125 58.2534 102.125 58.63C102.125 58.9834 102.075 59.2784 101.975 59.515C101.875 59.7484 101.735 59.9234 101.555 60.04C101.378 60.1567 101.172 60.215 100.935 60.215ZM100.935 59.875C101.182 59.875 101.373 59.7684 101.51 59.555C101.647 59.3384 101.715 59.03 101.715 58.63C101.715 58.3334 101.678 58.095 101.605 57.915C101.535 57.7317 101.442 57.5984 101.325 57.515C101.208 57.4317 101.078 57.39 100.935 57.39C100.795 57.39 100.665 57.4334 100.545 57.52C100.428 57.6034 100.335 57.7367 100.265 57.92C100.195 58.1034 100.16 58.34 100.16 58.63C100.16 59.03 100.228 59.3384 100.365 59.555C100.502 59.7684 100.692 59.875 100.935 59.875ZM102.579 59.035L104.034 57.105C104.064 57.0984 104.098 57.0934 104.134 57.09C104.174 57.0834 104.209 57.08 104.239 57.08C104.286 57.08 104.329 57.0867 104.369 57.1C104.413 57.1134 104.448 57.1384 104.474 57.175C104.501 57.2084 104.514 57.2584 104.514 57.325V59.075H105.014C105.024 59.0917 105.034 59.115 105.044 59.145C105.054 59.1717 105.059 59.2034 105.059 59.24C105.059 59.2934 105.046 59.335 105.019 59.365C104.993 59.395 104.954 59.41 104.904 59.41H104.514V60.16C104.498 60.1634 104.473 60.1684 104.439 60.175C104.409 60.185 104.376 60.19 104.339 60.19C104.269 60.19 104.216 60.175 104.179 60.145C104.143 60.115 104.124 60.0717 104.124 60.015V59.41H102.679C102.646 59.3934 102.616 59.3634 102.589 59.32C102.566 59.2767 102.554 59.2284 102.554 59.175C102.554 59.145 102.556 59.12 102.559 59.1C102.566 59.0767 102.573 59.055 102.579 59.035ZM104.129 59.075L104.139 57.5H104.129L103.019 59.075H104.129Z" fill="#A73C4C"/>
<path d="M83.4628 63.03H83.0578V61.5L82.4178 61.8C82.3745 61.7834 82.3378 61.7584 82.3078 61.725C82.2811 61.6917 82.2678 61.65 82.2678 61.6C82.2678 61.5034 82.3278 61.43 82.4478 61.38L83.1478 61.075H83.2428C83.3095 61.075 83.3628 61.095 83.4028 61.135C83.4428 61.175 83.4628 61.2284 83.4628 61.295V63.03ZM83.0578 62.83H83.4628V64.155C83.4428 64.1617 83.4161 64.1684 83.3828 64.175C83.3495 64.185 83.3128 64.19 83.2728 64.19C83.2028 64.19 83.1495 64.175 83.1128 64.145C83.0761 64.115 83.0578 64.0684 83.0578 64.005V62.83ZM85.4349 64.215C85.2016 64.215 84.9949 64.1584 84.8149 64.045C84.6383 63.9284 84.4999 63.7534 84.3999 63.52C84.2999 63.2834 84.2499 62.9867 84.2499 62.63C84.2499 62.2467 84.3066 61.94 84.4199 61.71C84.5333 61.48 84.6799 61.3134 84.8599 61.21C85.0399 61.1034 85.2316 61.05 85.4349 61.05C85.6416 61.05 85.8349 61.1034 86.0149 61.21C86.1983 61.3167 86.3449 61.4867 86.4549 61.72C86.5683 61.95 86.6249 62.2534 86.6249 62.63C86.6249 62.9834 86.5749 63.2784 86.4749 63.515C86.3749 63.7484 86.2349 63.9234 86.0549 64.04C85.8783 64.1567 85.6716 64.215 85.4349 64.215ZM85.4349 63.875C85.6816 63.875 85.8733 63.7684 86.0099 63.555C86.1466 63.3384 86.2149 63.03 86.2149 62.63C86.2149 62.3334 86.1783 62.095 86.1049 61.915C86.0349 61.7317 85.9416 61.5984 85.8249 61.515C85.7083 61.4317 85.5783 61.39 85.4349 61.39C85.2949 61.39 85.1649 61.4334 85.0449 61.52C84.9283 61.6034 84.8349 61.7367 84.7649 61.92C84.6949 62.1034 84.6599 62.34 84.6599 62.63C84.6599 63.03 84.7283 63.3384 84.8649 63.555C85.0016 63.7684 85.1916 63.875 85.4349 63.875ZM89.17 61.345C89.17 61.385 89.1583 61.4234 89.135 61.46C89.115 61.4934 89.0883 61.5184 89.055 61.535C88.9816 61.4984 88.8983 61.4667 88.805 61.44C88.715 61.41 88.6166 61.395 88.51 61.395C88.25 61.395 88.03 61.4884 87.85 61.675C87.6733 61.8617 87.58 62.1534 87.57 62.55C87.6366 62.4834 87.7383 62.4134 87.875 62.34C88.015 62.2634 88.1866 62.225 88.39 62.225C88.6833 62.225 88.925 62.3084 89.115 62.475C89.305 62.6417 89.4 62.8884 89.4 63.215C89.4 63.4217 89.355 63.6 89.265 63.75C89.1783 63.9 89.055 64.015 88.895 64.095C88.7383 64.175 88.5516 64.215 88.335 64.215C88.1116 64.215 87.9116 64.165 87.735 64.065C87.5583 63.9617 87.4183 63.8017 87.315 63.585C87.215 63.365 87.165 63.0784 87.165 62.725C87.165 62.4117 87.2016 62.1484 87.275 61.935C87.3516 61.7184 87.4533 61.5467 87.58 61.42C87.7066 61.29 87.85 61.1967 88.01 61.14C88.17 61.08 88.3333 61.05 88.5 61.05C88.6166 61.05 88.725 61.0617 88.825 61.085C88.9283 61.1084 89.0116 61.1417 89.075 61.185C89.1383 61.2284 89.17 61.2817 89.17 61.345ZM88.335 63.88C88.5283 63.88 88.6866 63.8217 88.81 63.705C88.9333 63.585 88.995 63.4184 88.995 63.205C88.995 62.9884 88.9316 62.8284 88.805 62.725C88.6816 62.6184 88.5283 62.565 88.345 62.565C88.1616 62.565 88.0033 62.605 87.87 62.685C87.7366 62.7617 87.6316 62.855 87.555 62.965L87.57 62.93C87.57 63.2134 87.6366 63.4434 87.77 63.62C87.9033 63.7934 88.0916 63.88 88.335 63.88Z" fill="#A73C4C"/>
<path d="M70.4628 63.03H70.0578V61.5L69.4178 61.8C69.3745 61.7834 69.3378 61.7584 69.3078 61.725C69.2811 61.6917 69.2678 61.65 69.2678 61.6C69.2678 61.5034 69.3278 61.43 69.4478 61.38L70.1478 61.075H70.2428C70.3095 61.075 70.3628 61.095 70.4028 61.135C70.4428 61.175 70.4628 61.2284 70.4628 61.295V63.03ZM70.0578 62.83H70.4628V64.155C70.4428 64.1617 70.4161 64.1684 70.3828 64.175C70.3495 64.185 70.3128 64.19 70.2728 64.19C70.2028 64.19 70.1495 64.175 70.1128 64.145C70.0761 64.115 70.0578 64.0684 70.0578 64.005V62.83ZM72.4349 64.215C72.2016 64.215 71.9949 64.1584 71.8149 64.045C71.6383 63.9284 71.4999 63.7534 71.3999 63.52C71.2999 63.2834 71.2499 62.9867 71.2499 62.63C71.2499 62.2467 71.3066 61.94 71.4199 61.71C71.5333 61.48 71.6799 61.3134 71.8599 61.21C72.0399 61.1034 72.2316 61.05 72.4349 61.05C72.6416 61.05 72.8349 61.1034 73.0149 61.21C73.1983 61.3167 73.3449 61.4867 73.4549 61.72C73.5683 61.95 73.6249 62.2534 73.6249 62.63C73.6249 62.9834 73.5749 63.2784 73.4749 63.515C73.3749 63.7484 73.2349 63.9234 73.0549 64.04C72.8783 64.1567 72.6716 64.215 72.4349 64.215ZM72.4349 63.875C72.6816 63.875 72.8733 63.7684 73.0099 63.555C73.1466 63.3384 73.2149 63.03 73.2149 62.63C73.2149 62.3334 73.1783 62.095 73.1049 61.915C73.0349 61.7317 72.9416 61.5984 72.8249 61.515C72.7083 61.4317 72.5783 61.39 72.4349 61.39C72.2949 61.39 72.1649 61.4334 72.0449 61.52C71.9283 61.6034 71.8349 61.7367 71.7649 61.92C71.6949 62.1034 71.6599 62.34 71.6599 62.63C71.6599 63.03 71.7283 63.3384 71.8649 63.555C72.0016 63.7684 72.1916 63.875 72.4349 63.875ZM74.1114 61.11H75.9114C75.948 61.13 75.9764 61.1584 75.9964 61.195C76.0164 61.2284 76.0264 61.2667 76.0264 61.31C76.0264 61.3434 76.0214 61.3767 76.0114 61.41C76.0047 61.4434 75.9914 61.48 75.9714 61.52L74.7164 64.17C74.6964 64.1734 74.6764 64.175 74.6564 64.175C74.6397 64.175 74.6214 64.175 74.6014 64.175C74.538 64.175 74.483 64.16 74.4364 64.13C74.3897 64.0967 74.3664 64.0517 74.3664 63.995C74.3664 63.955 74.3747 63.9167 74.3914 63.88C74.408 63.84 74.428 63.795 74.4514 63.745L75.5814 61.45H74.0014C73.9914 61.4334 73.9814 61.4117 73.9714 61.385C73.9614 61.355 73.9564 61.3234 73.9564 61.29C73.9564 61.2334 73.9697 61.19 73.9964 61.16C74.023 61.1267 74.0614 61.11 74.1114 61.11Z" fill="#A73C4C"/>
<path d="M56.4628 63.03H56.0578V61.5L55.4178 61.8C55.3745 61.7834 55.3378 61.7584 55.3078 61.725C55.2811 61.6917 55.2678 61.65 55.2678 61.6C55.2678 61.5034 55.3278 61.43 55.4478 61.38L56.1478 61.075H56.2428C56.3095 61.075 56.3628 61.095 56.4028 61.135C56.4428 61.175 56.4628 61.2284 56.4628 61.295V63.03ZM56.0578 62.83H56.4628V64.155C56.4428 64.1617 56.4161 64.1684 56.3828 64.175C56.3495 64.185 56.3128 64.19 56.2728 64.19C56.2028 64.19 56.1495 64.175 56.1128 64.145C56.0761 64.115 56.0578 64.0684 56.0578 64.005V62.83ZM58.4349 64.215C58.2016 64.215 57.9949 64.1584 57.8149 64.045C57.6383 63.9284 57.4999 63.7534 57.3999 63.52C57.2999 63.2834 57.2499 62.9867 57.2499 62.63C57.2499 62.2467 57.3066 61.94 57.4199 61.71C57.5333 61.48 57.6799 61.3134 57.8599 61.21C58.0399 61.1034 58.2316 61.05 58.4349 61.05C58.6416 61.05 58.8349 61.1034 59.0149 61.21C59.1983 61.3167 59.3449 61.4867 59.4549 61.72C59.5683 61.95 59.6249 62.2534 59.6249 62.63C59.6249 62.9834 59.5749 63.2784 59.4749 63.515C59.3749 63.7484 59.2349 63.9234 59.0549 64.04C58.8783 64.1567 58.6716 64.215 58.4349 64.215ZM58.4349 63.875C58.6816 63.875 58.8733 63.7684 59.0099 63.555C59.1466 63.3384 59.2149 63.03 59.2149 62.63C59.2149 62.3334 59.1783 62.095 59.1049 61.915C59.0349 61.7317 58.9416 61.5984 58.8249 61.515C58.7083 61.4317 58.5783 61.39 58.4349 61.39C58.2949 61.39 58.1649 61.4334 58.0449 61.52C57.9283 61.6034 57.8349 61.7367 57.7649 61.92C57.6949 62.1034 57.6599 62.34 57.6599 62.63C57.6599 63.03 57.7283 63.3384 57.8649 63.555C58.0016 63.7684 58.1916 63.875 58.4349 63.875ZM60.2805 63.905C60.2805 63.865 60.2905 63.8267 60.3105 63.79C60.3339 63.7534 60.3622 63.7267 60.3955 63.71C60.4589 63.7467 60.5405 63.7834 60.6405 63.82C60.7439 63.8534 60.8655 63.87 61.0055 63.87C61.1789 63.87 61.3372 63.8334 61.4805 63.76C61.6239 63.6867 61.7389 63.5667 61.8255 63.4C61.9122 63.23 61.9555 63.0067 61.9555 62.73C61.9255 62.7634 61.8755 62.805 61.8055 62.855C61.7389 62.9017 61.6539 62.9434 61.5505 62.98C61.4472 63.0167 61.3272 63.035 61.1905 63.035C61.0039 63.035 60.8289 63.0034 60.6655 62.94C60.5022 62.8734 60.3705 62.7684 60.2705 62.625C60.1739 62.4817 60.1255 62.2934 60.1255 62.06C60.1255 61.85 60.1722 61.67 60.2655 61.52C60.3589 61.3667 60.4855 61.25 60.6455 61.17C60.8055 61.09 60.9839 61.05 61.1805 61.05C61.4105 61.05 61.6139 61.1034 61.7905 61.21C61.9672 61.3134 62.1055 61.475 62.2055 61.695C62.3089 61.9117 62.3605 62.1917 62.3605 62.535C62.3605 62.9417 62.3039 63.2684 62.1905 63.515C62.0772 63.7617 61.9189 63.94 61.7155 64.05C61.5155 64.16 61.2805 64.215 61.0105 64.215C60.8105 64.215 60.6389 64.1884 60.4955 64.135C60.3522 64.0817 60.2805 64.005 60.2805 63.905ZM61.2455 62.7C61.4155 62.7 61.5655 62.6584 61.6955 62.575C61.8289 62.4884 61.9172 62.3934 61.9605 62.29L61.9555 62.345C61.9555 62.0484 61.8872 61.815 61.7505 61.645C61.6172 61.4717 61.4272 61.385 61.1805 61.385C60.9972 61.385 60.8422 61.445 60.7155 61.565C60.5922 61.6817 60.5305 61.8434 60.5305 62.05C60.5305 62.28 60.6005 62.4467 60.7405 62.55C60.8805 62.65 61.0489 62.7 61.2455 62.7Z" fill="#A73C4C"/>
<path d="M43.4628 63.03H43.0578V61.5L42.4178 61.8C42.3745 61.7834 42.3378 61.7584 42.3078 61.725C42.2811 61.6917 42.2678 61.65 42.2678 61.6C42.2678 61.5034 42.3278 61.43 42.4478 61.38L43.1478 61.075H43.2428C43.3095 61.075 43.3628 61.095 43.4028 61.135C43.4428 61.175 43.4628 61.2284 43.4628 61.295V63.03ZM43.0578 62.83H43.4628V64.155C43.4428 64.1617 43.4161 64.1684 43.3828 64.175C43.3495 64.185 43.3128 64.19 43.2728 64.19C43.2028 64.19 43.1495 64.175 43.1128 64.145C43.0761 64.115 43.0578 64.0684 43.0578 64.005V62.83ZM45.2743 63.03H44.8693V61.5L44.2293 61.8C44.186 61.7834 44.1493 61.7584 44.1193 61.725C44.0927 61.6917 44.0793 61.65 44.0793 61.6C44.0793 61.5034 44.1393 61.43 44.2593 61.38L44.9593 61.075H45.0543C45.121 61.075 45.1743 61.095 45.2143 61.135C45.2543 61.175 45.2743 61.2284 45.2743 61.295V63.03ZM44.8693 62.83H45.2743V64.155C45.2543 64.1617 45.2277 64.1684 45.1943 64.175C45.161 64.185 45.1243 64.19 45.0843 64.19C45.0143 64.19 44.961 64.175 44.9243 64.145C44.8877 64.115 44.8693 64.0684 44.8693 64.005V62.83ZM46.1253 61.425C46.1253 61.365 46.1636 61.3067 46.2403 61.25C46.3169 61.19 46.4203 61.1417 46.5503 61.105C46.6803 61.0684 46.8219 61.05 46.9753 61.05C47.1886 61.05 47.3719 61.0867 47.5253 61.16C47.6786 61.23 47.7969 61.33 47.8803 61.46C47.9636 61.59 48.0053 61.7434 48.0053 61.92C48.0053 62.1034 47.9536 62.2834 47.8503 62.46C47.7503 62.6367 47.5769 62.8384 47.3303 63.065L46.5153 63.82H48.0003C48.0136 63.8334 48.0253 63.855 48.0353 63.885C48.0453 63.9117 48.0503 63.9434 48.0503 63.98C48.0503 64.0334 48.0353 64.075 48.0053 64.105C47.9786 64.135 47.9419 64.15 47.8953 64.15H46.1303C46.0969 64.1267 46.0719 64.0984 46.0553 64.065C46.0386 64.0284 46.0303 63.99 46.0303 63.95C46.0303 63.8967 46.0403 63.85 46.0603 63.81C46.0803 63.7667 46.1103 63.7267 46.1503 63.69L47.0503 62.825C47.2569 62.6317 47.3986 62.47 47.4753 62.34C47.5519 62.2067 47.5903 62.0684 47.5903 61.925C47.5903 61.7684 47.5369 61.64 47.4303 61.54C47.3236 61.44 47.1619 61.39 46.9453 61.39C46.7986 61.39 46.6669 61.415 46.5503 61.465C46.4369 61.515 46.3419 61.5684 46.2653 61.625C46.2286 61.6084 46.1953 61.5834 46.1653 61.55C46.1386 61.5167 46.1253 61.475 46.1253 61.425Z" fill="#A73C4C"/>
<path d="M34.4628 63.03H34.0578V61.5L33.4178 61.8C33.3745 61.7834 33.3378 61.7584 33.3078 61.725C33.2811 61.6917 33.2678 61.65 33.2678 61.6C33.2678 61.5034 33.3278 61.43 33.4478 61.38L34.1478 61.075H34.2428C34.3095 61.075 34.3628 61.095 34.4028 61.135C34.4428 61.175 34.4628 61.2284 34.4628 61.295V63.03ZM34.0578 62.83H34.4628V64.155C34.4428 64.1617 34.4161 64.1684 34.3828 64.175C34.3495 64.185 34.3128 64.19 34.2728 64.19C34.2028 64.19 34.1495 64.175 34.1128 64.145C34.0761 64.115 34.0578 64.0684 34.0578 64.005V62.83ZM36.2743 63.03H35.8693V61.5L35.2293 61.8C35.186 61.7834 35.1493 61.7584 35.1193 61.725C35.0927 61.6917 35.0793 61.65 35.0793 61.6C35.0793 61.5034 35.1393 61.43 35.2593 61.38L35.9593 61.075H36.0543C36.121 61.075 36.1743 61.095 36.2143 61.135C36.2543 61.175 36.2743 61.2284 36.2743 61.295V63.03ZM35.8693 62.83H36.2743V64.155C36.2543 64.1617 36.2277 64.1684 36.1943 64.175C36.161 64.185 36.1243 64.19 36.0843 64.19C36.0143 64.19 35.961 64.175 35.9243 64.145C35.8877 64.115 35.8693 64.0684 35.8693 64.005V62.83ZM36.9759 63.035L38.4309 61.105C38.4609 61.0984 38.4942 61.0934 38.5309 61.09C38.5709 61.0834 38.6059 61.08 38.6359 61.08C38.6825 61.08 38.7259 61.0867 38.7659 61.1C38.8092 61.1134 38.8442 61.1384 38.8709 61.175C38.8975 61.2084 38.9109 61.2584 38.9109 61.325V63.075H39.4109C39.4209 63.0917 39.4309 63.115 39.4409 63.145C39.4509 63.1717 39.4559 63.2034 39.4559 63.24C39.4559 63.2934 39.4425 63.335 39.4159 63.365C39.3892 63.395 39.3509 63.41 39.3009 63.41H38.9109V64.16C38.8942 64.1634 38.8692 64.1684 38.8359 64.175C38.8059 64.185 38.7725 64.19 38.7359 64.19C38.6659 64.19 38.6125 64.175 38.5759 64.145C38.5392 64.115 38.5209 64.0717 38.5209 64.015V63.41H37.0759C37.0425 63.3934 37.0125 63.3634 36.9859 63.32C36.9625 63.2767 36.9509 63.2284 36.9509 63.175C36.9509 63.145 36.9525 63.12 36.9559 63.1C36.9625 63.0767 36.9692 63.055 36.9759 63.035ZM38.5259 63.075L38.5359 61.5H38.5259L37.4159 63.075H38.5259Z" fill="#A73C4C"/>
<path d="M6.46281 58.03H6.05781V56.5L5.41781 56.8C5.37448 56.7834 5.33781 56.7584 5.30781 56.725C5.28114 56.6917 5.26781 56.65 5.26781 56.6C5.26781 56.5034 5.32781 56.43 5.44781 56.38L6.14781 56.075H6.24281C6.30948 56.075 6.36281 56.095 6.40281 56.135C6.44281 56.175 6.46281 56.2284 6.46281 56.295V58.03ZM6.05781 57.83H6.46281V59.155C6.44281 59.1617 6.41614 59.1684 6.38281 59.175C6.34948 59.185 6.31281 59.19 6.27281 59.19C6.20281 59.19 6.14948 59.175 6.11281 59.145C6.07614 59.115 6.05781 59.0684 6.05781 59.005V57.83ZM8.27433 58.03H7.86933V56.5L7.22933 56.8C7.186 56.7834 7.14933 56.7584 7.11933 56.725C7.09267 56.6917 7.07933 56.65 7.07933 56.6C7.07933 56.5034 7.13933 56.43 7.25933 56.38L7.95933 56.075H8.05433C8.121 56.075 8.17433 56.095 8.21433 56.135C8.25433 56.175 8.27433 56.2284 8.27433 56.295V58.03ZM7.86933 57.83H8.27433V59.155C8.25433 59.1617 8.22767 59.1684 8.19433 59.175C8.161 59.185 8.12433 59.19 8.08433 59.19C8.01433 59.19 7.961 59.175 7.92433 59.145C7.88767 59.115 7.86933 59.0684 7.86933 59.005V57.83ZM9.08597 56.11H10.886C10.9226 56.13 10.951 56.1584 10.971 56.195C10.991 56.2284 11.001 56.2667 11.001 56.31C11.001 56.3434 10.996 56.3767 10.986 56.41C10.9793 56.4434 10.966 56.48 10.946 56.52L9.69097 59.17C9.67097 59.1734 9.65097 59.175 9.63097 59.175C9.61431 59.175 9.59597 59.175 9.57597 59.175C9.51264 59.175 9.45764 59.16 9.41097 59.13C9.36431 59.0967 9.34097 59.0517 9.34097 58.995C9.34097 58.955 9.34931 58.9167 9.36597 58.88C9.38264 58.84 9.40264 58.795 9.42597 58.745L10.556 56.45H8.97597C8.96597 56.4334 8.95597 56.4117 8.94597 56.385C8.93597 56.355 8.93097 56.3234 8.93097 56.29C8.93097 56.2334 8.94431 56.19 8.97097 56.16C8.99764 56.1267 9.03597 56.11 9.08597 56.11Z" fill="#A73C4C"/>
<path d="M6.46281 81.03H6.05781V79.5L5.41781 79.8C5.37448 79.7834 5.33781 79.7584 5.30781 79.725C5.28114 79.6917 5.26781 79.65 5.26781 79.6C5.26781 79.5034 5.32781 79.43 5.44781 79.38L6.14781 79.075H6.24281C6.30948 79.075 6.36281 79.095 6.40281 79.135C6.44281 79.175 6.46281 79.2284 6.46281 79.295V81.03ZM6.05781 80.83H6.46281V82.155C6.44281 82.1617 6.41614 82.1684 6.38281 82.175C6.34948 82.185 6.31281 82.19 6.27281 82.19C6.20281 82.19 6.14948 82.175 6.11281 82.145C6.07614 82.115 6.05781 82.0684 6.05781 82.005V80.83ZM8.27433 81.03H7.86933V79.5L7.22933 79.8C7.186 79.7834 7.14933 79.7584 7.11933 79.725C7.09267 79.6917 7.07933 79.65 7.07933 79.6C7.07933 79.5034 7.13933 79.43 7.25933 79.38L7.95933 79.075H8.05433C8.121 79.075 8.17433 79.095 8.21433 79.135C8.25433 79.175 8.27433 79.2284 8.27433 79.295V81.03ZM7.86933 80.83H8.27433V82.155C8.25433 82.1617 8.22767 82.1684 8.19433 82.175C8.161 82.185 8.12433 82.19 8.08433 82.19C8.01433 82.19 7.961 82.175 7.92433 82.145C7.88767 82.115 7.86933 82.0684 7.86933 82.005V80.83ZM11.0957 79.345C11.0957 79.385 11.0841 79.4234 11.0607 79.46C11.0407 79.4934 11.0141 79.5184 10.9807 79.535C10.9074 79.4984 10.8241 79.4667 10.7307 79.44C10.6407 79.41 10.5424 79.395 10.4357 79.395C10.1757 79.395 9.95574 79.4884 9.77574 79.675C9.59907 79.8617 9.50574 80.1534 9.49574 80.55C9.56241 80.4834 9.66407 80.4134 9.80074 80.34C9.94074 80.2634 10.1124 80.225 10.3157 80.225C10.6091 80.225 10.8507 80.3084 11.0407 80.475C11.2307 80.6417 11.3257 80.8884 11.3257 81.215C11.3257 81.4217 11.2807 81.6 11.1907 81.75C11.1041 81.9 10.9807 82.015 10.8207 82.095C10.6641 82.175 10.4774 82.215 10.2607 82.215C10.0374 82.215 9.83741 82.165 9.66074 82.065C9.48407 81.9617 9.34407 81.8017 9.24074 81.585C9.14074 81.365 9.09074 81.0784 9.09074 80.725C9.09074 80.4117 9.12741 80.1484 9.20074 79.935C9.27741 79.7184 9.37907 79.5467 9.50574 79.42C9.63241 79.29 9.77574 79.1967 9.93574 79.14C10.0957 79.08 10.2591 79.05 10.4257 79.05C10.5424 79.05 10.6507 79.0617 10.7507 79.085C10.8541 79.1084 10.9374 79.1417 11.0007 79.185C11.0641 79.2284 11.0957 79.2817 11.0957 79.345ZM10.2607 81.88C10.4541 81.88 10.6124 81.8217 10.7357 81.705C10.8591 81.585 10.9207 81.4184 10.9207 81.205C10.9207 80.9884 10.8574 80.8284 10.7307 80.725C10.6074 80.6184 10.4541 80.565 10.2707 80.565C10.0874 80.565 9.92907 80.605 9.79574 80.685C9.66241 80.7617 9.55741 80.855 9.48074 80.965L9.49574 80.93C9.49574 81.2134 9.56241 81.4434 9.69574 81.62C9.82907 81.7934 10.0174 81.88 10.2607 81.88Z" fill="#A73C4C"/>
<path d="M21.9628 83.03H21.5578V81.5L20.9178 81.8C20.8745 81.7834 20.8378 81.7584 20.8078 81.725C20.7811 81.6917 20.7678 81.65 20.7678 81.6C20.7678 81.5034 20.8278 81.43 20.9478 81.38L21.6478 81.075H21.7428C21.8095 81.075 21.8628 81.095 21.9028 81.135C21.9428 81.175 21.9628 81.2284 21.9628 81.295V83.03ZM21.5578 82.83H21.9628V84.155C21.9428 84.1617 21.9161 84.1684 21.8828 84.175C21.8495 84.185 21.8128 84.19 21.7728 84.19C21.7028 84.19 21.6495 84.175 21.6128 84.145C21.5761 84.115 21.5578 84.0684 21.5578 84.005V82.83ZM23.7743 83.03H23.3693V81.5L22.7293 81.8C22.686 81.7834 22.6493 81.7584 22.6193 81.725C22.5927 81.6917 22.5793 81.65 22.5793 81.6C22.5793 81.5034 22.6393 81.43 22.7593 81.38L23.4593 81.075H23.5543C23.621 81.075 23.6743 81.095 23.7143 81.135C23.7543 81.175 23.7743 81.2284 23.7743 81.295V83.03ZM23.3693 82.83H23.7743V84.155C23.7543 84.1617 23.7277 84.1684 23.6943 84.175C23.661 84.185 23.6243 84.19 23.5843 84.19C23.5143 84.19 23.461 84.175 23.4243 84.145C23.3877 84.115 23.3693 84.0684 23.3693 84.005V82.83ZM25.3114 81.11L25.1764 81.405L25.0914 82.35C25.1481 82.32 25.2264 82.2917 25.3264 82.265C25.4298 82.235 25.5381 82.22 25.6514 82.22C25.8514 82.22 26.0314 82.2584 26.1914 82.335C26.3514 82.4084 26.4781 82.5184 26.5714 82.665C26.6681 82.8084 26.7164 82.9867 26.7164 83.2C26.7164 83.3934 26.6714 83.5667 26.5814 83.72C26.4948 83.8734 26.3664 83.995 26.1964 84.085C26.0298 84.1717 25.8248 84.215 25.5814 84.215C25.3914 84.215 25.2248 84.1934 25.0814 84.15C24.9381 84.1067 24.8264 84.0534 24.7464 83.99C24.6664 83.9267 24.6264 83.865 24.6264 83.805C24.6264 83.7517 24.6431 83.705 24.6764 83.665C24.7131 83.625 24.7498 83.5984 24.7864 83.585C24.8598 83.6484 24.9631 83.7134 25.0964 83.78C25.2298 83.8467 25.3914 83.88 25.5814 83.88C25.8114 83.88 25.9898 83.8167 26.1164 83.69C26.2431 83.56 26.3064 83.3967 26.3064 83.2C26.3064 82.9967 26.2414 82.8384 26.1114 82.725C25.9814 82.6117 25.8114 82.555 25.6014 82.555C25.4848 82.555 25.3781 82.5734 25.2814 82.61C25.1848 82.6467 25.0948 82.6884 25.0114 82.735C24.9214 82.7284 24.8481 82.7017 24.7914 82.655C24.7381 82.605 24.7114 82.5417 24.7114 82.465C24.7114 82.445 24.7114 82.42 24.7114 82.39C24.7148 82.3567 24.7181 82.325 24.7214 82.295L24.8064 81.34C24.8131 81.27 24.8348 81.215 24.8714 81.175C24.9081 81.1317 24.9614 81.11 25.0314 81.11H25.3114ZM25.1014 81.45V81.11H26.5614C26.5714 81.1234 26.5814 81.145 26.5914 81.175C26.6014 81.205 26.6064 81.2367 26.6064 81.27C26.6064 81.3234 26.5931 81.3667 26.5664 81.4C26.5398 81.4334 26.5014 81.45 26.4514 81.45H25.1014Z" fill="#A73C4C"/>
<path d="M98.9628 66.03H98.5578V64.5L97.9178 64.8C97.8745 64.7834 97.8378 64.7584 97.8078 64.725C97.7811 64.6917 97.7678 64.65 97.7678 64.6C97.7678 64.5034 97.8278 64.43 97.9478 64.38L98.6478 64.075H98.7428C98.8095 64.075 98.8628 64.095 98.9028 64.135C98.9428 64.175 98.9628 64.2284 98.9628 64.295V66.03ZM98.5578 65.83H98.9628V67.155C98.9428 67.1617 98.9161 67.1684 98.8828 67.175C98.8495 67.185 98.8128 67.19 98.7728 67.19C98.7028 67.19 98.6495 67.175 98.6128 67.145C98.5761 67.115 98.5578 67.0684 98.5578 67.005V65.83ZM100.935 67.215C100.702 67.215 100.495 67.1584 100.315 67.045C100.138 66.9284 99.9999 66.7534 99.8999 66.52C99.7999 66.2834 99.7499 65.9867 99.7499 65.63C99.7499 65.2467 99.8066 64.94 99.9199 64.71C100.033 64.48 100.18 64.3134 100.36 64.21C100.54 64.1034 100.732 64.05 100.935 64.05C101.142 64.05 101.335 64.1034 101.515 64.21C101.698 64.3167 101.845 64.4867 101.955 64.72C102.068 64.95 102.125 65.2534 102.125 65.63C102.125 65.9834 102.075 66.2784 101.975 66.515C101.875 66.7484 101.735 66.9234 101.555 67.04C101.378 67.1567 101.172 67.215 100.935 67.215ZM100.935 66.875C101.182 66.875 101.373 66.7684 101.51 66.555C101.647 66.3384 101.715 66.03 101.715 65.63C101.715 65.3334 101.678 65.095 101.605 64.915C101.535 64.7317 101.442 64.5984 101.325 64.515C101.208 64.4317 101.078 64.39 100.935 64.39C100.795 64.39 100.665 64.4334 100.545 64.52C100.428 64.6034 100.335 64.7367 100.265 64.92C100.195 65.1034 100.16 65.34 100.16 65.63C100.16 66.03 100.228 66.3384 100.365 66.555C100.502 66.7684 100.692 66.875 100.935 66.875ZM103.415 64.11L103.28 64.405L103.195 65.35C103.252 65.32 103.33 65.2917 103.43 65.265C103.533 65.235 103.642 65.22 103.755 65.22C103.955 65.22 104.135 65.2584 104.295 65.335C104.455 65.4084 104.582 65.5184 104.675 65.665C104.772 65.8084 104.82 65.9867 104.82 66.2C104.82 66.3934 104.775 66.5667 104.685 66.72C104.598 66.8734 104.47 66.995 104.3 67.085C104.133 67.1717 103.928 67.215 103.685 67.215C103.495 67.215 103.328 67.1934 103.185 67.15C103.042 67.1067 102.93 67.0534 102.85 66.99C102.77 66.9267 102.73 66.865 102.73 66.805C102.73 66.7517 102.747 66.705 102.78 66.665C102.817 66.625 102.853 66.5984 102.89 66.585C102.963 66.6484 103.067 66.7134 103.2 66.78C103.333 66.8467 103.495 66.88 103.685 66.88C103.915 66.88 104.093 66.8167 104.22 66.69C104.347 66.56 104.41 66.3967 104.41 66.2C104.41 65.9967 104.345 65.8384 104.215 65.725C104.085 65.6117 103.915 65.555 103.705 65.555C103.588 65.555 103.482 65.5734 103.385 65.61C103.288 65.6467 103.198 65.6884 103.115 65.735C103.025 65.7284 102.952 65.7017 102.895 65.655C102.842 65.605 102.815 65.5417 102.815 65.465C102.815 65.445 102.815 65.42 102.815 65.39C102.818 65.3567 102.822 65.325 102.825 65.295L102.91 64.34C102.917 64.27 102.938 64.215 102.975 64.175C103.012 64.1317 103.065 64.11 103.135 64.11H103.415ZM103.205 64.45V64.11H104.665C104.675 64.1234 104.685 64.145 104.695 64.175C104.705 64.205 104.71 64.2367 104.71 64.27C104.71 64.3234 104.697 64.3667 104.67 64.4C104.643 64.4334 104.605 64.45 104.555 64.45H103.205Z" fill="#A73C4C"/>
<path d="M6.46281 36.03H6.05781V34.5L5.41781 34.8C5.37448 34.7834 5.33781 34.7584 5.30781 34.725C5.28114 34.6917 5.26781 34.65 5.26781 34.6C5.26781 34.5034 5.32781 34.43 5.44781 34.38L6.14781 34.075H6.24281C6.30948 34.075 6.36281 34.095 6.40281 34.135C6.44281 34.175 6.46281 34.2284 6.46281 34.295V36.03ZM6.05781 35.83H6.46281V37.155C6.44281 37.1617 6.41614 37.1684 6.38281 37.175C6.34948 37.185 6.31281 37.19 6.27281 37.19C6.20281 37.19 6.14948 37.175 6.11281 37.145C6.07614 37.115 6.05781 37.0684 6.05781 37.005V35.83ZM8.27433 36.03H7.86933V34.5L7.22933 34.8C7.186 34.7834 7.14933 34.7584 7.11933 34.725C7.09267 34.6917 7.07933 34.65 7.07933 34.6C7.07933 34.5034 7.13933 34.43 7.25933 34.38L7.95933 34.075H8.05433C8.121 34.075 8.17433 34.095 8.21433 34.135C8.25433 34.175 8.27433 34.2284 8.27433 34.295V36.03ZM7.86933 35.83H8.27433V37.155C8.25433 37.1617 8.22767 37.1684 8.19433 37.175C8.161 37.185 8.12433 37.19 8.08433 37.19C8.01433 37.19 7.961 37.175 7.92433 37.145C7.88767 37.115 7.86933 37.0684 7.86933 37.005V35.83ZM10.2457 37.215C10.0191 37.215 9.82074 37.1817 9.65074 37.115C9.48074 37.045 9.34907 36.945 9.25574 36.815C9.16241 36.685 9.11574 36.5284 9.11574 36.345C9.11574 36.1817 9.15241 36.0434 9.22574 35.93C9.30241 35.8134 9.39907 35.72 9.51574 35.65C9.63241 35.58 9.75407 35.5334 9.88074 35.51L10.1807 35.46C10.4207 35.4134 10.6007 35.345 10.7207 35.255C10.8407 35.1617 10.9007 35.0384 10.9007 34.885C10.9007 34.7284 10.8424 34.6067 10.7257 34.52C10.6091 34.43 10.4491 34.385 10.2457 34.385C10.0491 34.385 9.89074 34.43 9.77074 34.52C9.65074 34.61 9.59074 34.73 9.59074 34.88C9.59074 35.0067 9.62407 35.1084 9.69074 35.185C9.76074 35.2617 9.85241 35.32 9.96574 35.36C10.0824 35.3967 10.2091 35.4217 10.3457 35.435L10.5657 35.51C10.7024 35.5367 10.8324 35.585 10.9557 35.655C11.0791 35.7217 11.1791 35.8117 11.2557 35.925C11.3324 36.0384 11.3707 36.18 11.3707 36.35C11.3707 36.53 11.3224 36.685 11.2257 36.815C11.1324 36.945 11.0007 37.045 10.8307 37.115C10.6641 37.1817 10.4691 37.215 10.2457 37.215ZM10.2457 36.88C10.4624 36.88 10.6374 36.8334 10.7707 36.74C10.9041 36.6467 10.9707 36.5117 10.9707 36.335C10.9707 36.1417 10.8891 35.9884 10.7257 35.875C10.5657 35.7617 10.3507 35.6967 10.0807 35.68L9.82574 35.605C9.63241 35.5517 9.47741 35.465 9.36074 35.345C9.24741 35.225 9.19074 35.0684 9.19074 34.875C9.19074 34.705 9.23407 34.5584 9.32074 34.435C9.41074 34.3117 9.53407 34.2167 9.69074 34.15C9.85074 34.0834 10.0357 34.05 10.2457 34.05C10.5724 34.05 10.8291 34.125 11.0157 34.275C11.2057 34.4217 11.3007 34.625 11.3007 34.885C11.3007 35.095 11.2291 35.26 11.0857 35.38C10.9457 35.5 10.7741 35.5784 10.5707 35.615L10.2307 35.685C10.0174 35.7184 9.84407 35.7917 9.71074 35.905C9.58074 36.015 9.51574 36.16 9.51574 36.34C9.51574 36.51 9.58074 36.6434 9.71074 36.74C9.84074 36.8334 10.0191 36.88 10.2457 36.88Z" fill="#A73C4C"/>
<path d="M25.9305 2.14499H28.3828M28.3828 2.14499L27.7141 1.35968M28.3828 2.14499L27.714 2.93031" stroke="#A73C4C" stroke-width="0.5" stroke-linecap="round" stroke-linejoin="round"/>
<path d="M26.8222 1.16588V0.462163C26.8222 0.400204 26.7723 0.349976 26.7108 0.349976H24.7043C24.6427 0.349976 24.5928 0.400204 24.5928 0.462163V3.82779C24.5928 3.88974 24.6427 3.93998 24.7043 3.93998H26.7108C26.7723 3.93998 26.8222 3.88974 26.8222 3.82779V3.12406" stroke="#A73C4C" stroke-width="0.5" stroke-linecap="round" stroke-linejoin="round"/>
<path d="M82.5305 2.04502H84.9828M84.9828 2.04502L84.3141 1.2597M84.9828 2.04502L84.314 2.83033" stroke="#A73C4C" stroke-width="0.5" stroke-linecap="round" stroke-linejoin="round"/>
<path d="M83.4222 1.06591V0.362187C83.4222 0.300229 83.3723 0.25 83.3107 0.25H81.3043C81.2427 0.25 81.1928 0.300229 81.1928 0.362187V3.72781C81.1928 3.78976 81.2427 3.84 81.3043 3.84H83.3107C83.3723 3.84 83.4222 3.78976 83.4222 3.72781V3.02408" stroke="#A73C4C" stroke-width="0.5" stroke-linecap="round" stroke-linejoin="round"/>
<path d="M12.4928 9.15002C12.3271 9.15002 12.1928 9.28434 12.1928 9.45002V16.75C12.1928 16.9157 12.3271 17.05 12.4928 17.05H13.2915H19.5628C19.7285 17.05 19.8628 16.9157 19.8628 16.75V10.5324V9.45002C19.8628 9.28434 19.7285 9.15002 19.5628 9.15002H12.4928ZM13.9628 16.7462V15.9346C13.9628 15.8794 14.0076 15.8346 14.0628 15.8346H14.8428C15.0085 15.8346 15.1428 15.7003 15.1428 15.5346V14.7193C15.1428 14.664 15.1876 14.6193 15.2428 14.6193H16.0228C16.1885 14.6193 16.3228 14.4849 16.3228 14.3193V13.5039C16.3228 13.4486 16.3676 13.4039 16.4228 13.4039H17.2028C17.3685 13.4039 17.5028 13.2696 17.5028 13.1039V12.2885C17.5028 12.2333 17.5476 12.1885 17.6028 12.1885H18.3828C18.5485 12.1885 18.6828 12.0542 18.6828 11.8885V11.0731C18.6828 11.0179 18.7276 10.9731 18.7828 10.9731H19.5678V16.6461C19.5678 16.7013 19.523 16.7461 19.4678 16.7461L13.9628 16.7462ZM19.5678 10.6693H18.6878C18.5221 10.6693 18.3878 10.8036 18.3878 10.9693V11.7846C18.3878 11.8399 18.343 11.8846 18.2878 11.8846H17.5078C17.3421 11.8846 17.2078 12.019 17.2078 12.1846V13C17.2078 13.0553 17.163 13.1 17.1078 13.1H16.3278C16.1621 13.1 16.0278 13.2343 16.0278 13.4V14.2154C16.0278 14.2706 15.983 14.3154 15.9278 14.3154H15.1478C14.9821 14.3154 14.8478 14.4497 14.8478 14.6154V15.4308C14.8478 15.486 14.803 15.5308 14.7478 15.5308H13.9678C13.8021 15.5308 13.6678 15.6651 13.6678 15.8308V16.7461H12.5878C12.5326 16.7461 12.4878 16.7013 12.4878 16.6461V9.55387C12.4878 9.49864 12.5326 9.45387 12.5878 9.45387H19.4678C19.523 9.45387 19.5678 9.49864 19.5678 9.55387V10.6693Z" fill="#A73C4C"/>
<path d="M90.4928 9.15002C90.3271 9.15002 90.1928 9.28434 90.1928 9.45002V16.75C90.1928 16.9157 90.3271 17.05 90.4928 17.05H91.2915H97.5628C97.7285 17.05 97.8628 16.9157 97.8628 16.75V10.5324V9.45002C97.8628 9.28434 97.7285 9.15002 97.5628 9.15002H90.4928ZM91.9628 16.7462V15.9346C91.9628 15.8794 92.0076 15.8346 92.0628 15.8346H92.8428C93.0085 15.8346 93.1428 15.7003 93.1428 15.5346V14.7193C93.1428 14.664 93.1876 14.6193 93.2428 14.6193H94.0228C94.1885 14.6193 94.3228 14.4849 94.3228 14.3193V13.5039C94.3228 13.4486 94.3676 13.4039 94.4228 13.4039H95.2028C95.3685 13.4039 95.5028 13.2696 95.5028 13.1039V12.2885C95.5028 12.2333 95.5476 12.1885 95.6028 12.1885H96.3828C96.5485 12.1885 96.6828 12.0542 96.6828 11.8885V11.0731C96.6828 11.0179 96.7276 10.9731 96.7828 10.9731H97.5678V16.6461C97.5678 16.7013 97.523 16.7461 97.4678 16.7461L91.9628 16.7462ZM97.5678 10.6693H96.6878C96.5221 10.6693 96.3878 10.8036 96.3878 10.9693V11.7846C96.3878 11.8399 96.343 11.8846 96.2878 11.8846H95.5078C95.3421 11.8846 95.2078 12.019 95.2078 12.1846V13C95.2078 13.0553 95.163 13.1 95.1078 13.1H94.3278C94.1621 13.1 94.0278 13.2343 94.0278 13.4V14.2154C94.0278 14.2706 93.983 14.3154 93.9278 14.3154H93.1478C92.9821 14.3154 92.8478 14.4497 92.8478 14.6154V15.4308C92.8478 15.486 92.803 15.5308 92.7478 15.5308H91.9678C91.8021 15.5308 91.6678 15.6651 91.6678 15.8308V16.7461H90.5878C90.5326 16.7461 90.4878 16.7013 90.4878 16.6461V9.55387C90.4878 9.49864 90.5326 9.45387 90.5878 9.45387H97.4678C97.523 9.45387 97.5678 9.49864 97.5678 9.55387V10.6693Z" fill="#A73C4C"/>
<path d="M72.3917 34.6501V32.8449C72.3919 32.8006 72.3829 32.7567 72.3651 32.7162C72.3474 32.6757 72.3213 32.6394 72.2887 32.61L71.98 32.3234C71.9639 32.3085 71.9511 32.2903 71.9424 32.2701C71.9337 32.2499 71.9292 32.228 71.9292 32.2059V30.3435C71.9292 30.2597 71.9618 30.1794 72.02 30.1201C72.0781 30.0607 72.157 30.0272 72.2394 30.0268H74.2275C74.351 30.0272 74.4694 30.0773 74.5566 30.1662C74.6438 30.2551 74.6928 30.3755 74.6928 30.5011V32.2203C74.6924 32.2606 74.6774 32.2994 74.6505 32.3292L74.353 32.6515C74.2984 32.7098 74.2681 32.7873 74.2684 32.8678V34.6501" stroke="#3A3A3A" stroke-width="0.5" stroke-linecap="round"/>
<path d="M73.311 29.3435C73.7712 29.3435 74.1443 28.9644 74.1443 28.4968C74.1443 28.0292 73.7712 27.6501 73.311 27.6501C72.8507 27.6501 72.4777 28.0292 72.4777 28.4968C72.4777 28.9644 72.8507 29.3435 73.311 29.3435Z" stroke="#3A3A3A" stroke-width="0.5" stroke-linecap="round"/>
<path d="M72.3089 44.15V42.6091C72.3085 42.5662 72.2915 42.5252 72.2616 42.4951C72.2316 42.4649 72.1912 42.448 72.149 42.448H71.7671C71.7414 42.4478 71.7162 42.4413 71.6935 42.4291C71.6709 42.4169 71.6514 42.3994 71.6368 42.378C71.6222 42.3565 71.6129 42.3319 71.6097 42.306C71.6064 42.2802 71.6093 42.2539 71.6182 42.2294L72.5295 39.7079C72.5409 39.677 72.5612 39.6503 72.5877 39.6313C72.6143 39.6123 72.6459 39.6019 72.6784 39.6014H73.6435C73.6764 39.6013 73.7086 39.6116 73.7356 39.631C73.7625 39.6503 73.7828 39.6777 73.7937 39.7093L74.6871 42.2308C74.6953 42.2561 74.6973 42.2831 74.6928 42.3093C74.6883 42.3355 74.6776 42.3602 74.6615 42.3813C74.6455 42.4023 74.6246 42.419 74.6007 42.4299C74.5768 42.4408 74.5506 42.4456 74.5244 42.4438H74.1108C74.0696 42.4463 74.031 42.4649 74.003 42.4957C73.975 42.5265 73.9598 42.5671 73.9606 42.6091V44.15" stroke="#3A3A3A" stroke-width="0.5" stroke-linecap="round"/>
<path d="M73.1459 38.8058C73.5959 38.8058 73.9607 38.4352 73.9607 37.9779C73.9607 37.5207 73.5959 37.15 73.1459 37.15C72.6959 37.15 72.3311 37.5207 72.3311 37.9779C72.3311 38.4352 72.6959 38.8058 73.1459 38.8058Z" stroke="#3A3A3A" stroke-width="0.5" stroke-linecap="round"/>
</svg>
