<svg width="109" height="91" viewBox="0 0 109 91" fill="none" xmlns="http://www.w3.org/2000/svg">
<path d="M0 0H31V22.6354H77.5V0H109V67.1271H31.0677V90H0V0Z" fill="white"/>
<path d="M30.9746 0.25V22.627H77.4268V0.25H108.74V66.8818H30.9746V89.8486H0.25V0.25H30.9746Z" stroke="#A73C4C" stroke-width="0.5"/>
<path d="M87 15.5V0" stroke="#A73C4C" stroke-width="0.5"/>
<path d="M99.5 15.5V0" stroke="#A73C4C" stroke-width="0.5"/>
<path d="M92.3843 22.5L109 22.5" stroke="#A73C4C" stroke-width="0.5"/>
<path d="M87 20.1523V35.7499" stroke="#A73C4C" stroke-width="0.5"/>
<path d="M93 22.5V49.8522" stroke="#A73C4C" stroke-width="0.5"/>
<path d="M93 54.1328V67" stroke="#A73C4C" stroke-width="0.5"/>
<path d="M87.5 56H93" stroke="#A73C4C" stroke-width="0.5"/>
<path d="M87.75 54.1328V56" stroke="#A73C4C" stroke-width="0.5"/>
<path d="M87.75 44.75V50.0001" stroke="#A73C4C" stroke-width="0.5"/>
<path d="M88.5 45H74.4219" stroke="#A73C4C" stroke-width="0.5"/>
<path d="M69.7697 45H61.754" stroke="#A73C4C" stroke-width="0.5"/>
<path d="M62.0001 52H61" stroke="#A73C4C" stroke-width="0.5"/>
<path d="M56.3445 52H39.7222" stroke="#A73C4C" stroke-width="0.5"/>
<path d="M42.4999 66.9999L42.4999 50.8484" stroke="#A73C4C" stroke-width="0.5"/>
<path d="M77.5 67V45" stroke="#A73C4C" stroke-width="0.5"/>
<path d="M62.0001 67L62.0001 45" stroke="#A73C4C" stroke-width="0.5"/>
<path d="M109 45H92.5" stroke="#A73C4C" stroke-width="0.5"/>
<path d="M109 38H98.7148" stroke="#A73C4C" stroke-width="0.5"/>
<path d="M94.5 38H93" stroke="#A73C4C" stroke-width="0.5"/>
<path d="M99.5 22.5V20" stroke="#A73C4C" stroke-width="0.5"/>
<path d="M77.5 22.5L87.7266 22.5" stroke="#A73C4C" stroke-width="0.5"/>
<path d="M87 35.5H84.2421" stroke="#A73C4C" stroke-width="0.5"/>
<path d="M80.1015 35.5H77.2722" stroke="#A73C4C" stroke-width="0.5"/>
<path d="M77.5 37.25V22.5" stroke="#A73C4C" stroke-width="0.5"/>
<path d="M70.0001 37.0742V22.5" stroke="#A73C4C" stroke-width="0.5"/>
<path d="M62.0001 37.0742V22.5" stroke="#A73C4C" stroke-width="0.5"/>
<path d="M54.5001 38.2383V22.5" stroke="#A73C4C" stroke-width="0.5"/>
<path d="M54.5001 37H56.0001" stroke="#A73C4C" stroke-width="0.5"/>
<path d="M60.5938 37H63.6954" stroke="#A73C4C" stroke-width="0.5"/>
<path d="M68.2227 37H71.3113" stroke="#A73C4C" stroke-width="0.5"/>
<path d="M31 66.9999L31 28.3014" stroke="#A73C4C" stroke-width="0.5"/>
<path d="M31 45L54.5 45" stroke="#A73C4C" stroke-width="0.5"/>
<path d="M17.9052 30L31 30" stroke="#A73C4C" stroke-width="0.5"/>
<path d="M18.15 22.25V30" stroke="#A73C4C" stroke-width="0.5"/>
<path d="M23.832 22.5L0 22.5" stroke="#A73C4C" stroke-width="0.5"/>
<path d="M9.5 22.5V21" stroke="#A73C4C" stroke-width="0.5"/>
<path d="M9.5 16.5614L9.5 0.167971" stroke="#A73C4C" stroke-width="0.5"/>
<path d="M22 22.5V21" stroke="#A73C4C" stroke-width="0.5"/>
<path d="M31 24V22.5" stroke="#A73C4C" stroke-width="0.5"/>
<path d="M22 16.4749L22 0.167955" stroke="#A73C4C" stroke-width="0.5"/>
<path d="M31 22.5H28.5" stroke="#A73C4C" stroke-width="0.5"/>
<path d="M42.4999 45L42.4999 46" stroke="#A73C4C" stroke-width="0.5"/>
<path d="M75.9999 37H77.4999" stroke="#A73C4C" stroke-width="0.5"/>
<path d="M89.8 6C89.6343 6 89.5 6.13431 89.5 6.3V13.6C89.5 13.7657 89.6343 13.9 89.8 13.9H90.5987H96.87C97.0357 13.9 97.17 13.7657 97.17 13.6V7.38235V6.3C97.17 6.13431 97.0357 6 96.87 6H89.8ZM91.27 13.5962V12.7846C91.27 12.7294 91.3148 12.6846 91.37 12.6846H92.15C92.3157 12.6846 92.45 12.5503 92.45 12.3846V11.5692C92.45 11.514 92.4948 11.4692 92.55 11.4692H93.33C93.4957 11.4692 93.63 11.3349 93.63 11.1692V10.3538C93.63 10.2986 93.6748 10.2538 93.73 10.2538H94.51C94.6757 10.2538 94.81 10.1195 94.81 9.95385V9.13846C94.81 9.08323 94.8548 9.03846 94.91 9.03846H95.69C95.8557 9.03846 95.99 8.90415 95.99 8.73846V7.92308C95.99 7.86785 96.0348 7.82308 96.09 7.82308H96.875V13.4961C96.875 13.5513 96.8302 13.5961 96.775 13.5961L91.27 13.5962ZM96.875 7.51923H95.995C95.8293 7.51923 95.695 7.65355 95.695 7.81923V8.63462C95.695 8.68984 95.6502 8.73462 95.595 8.73462H94.815C94.6493 8.73462 94.515 8.86893 94.515 9.03462V9.85C94.515 9.90523 94.4702 9.95 94.415 9.95H93.635C93.4693 9.95 93.335 10.0843 93.335 10.25V11.0654C93.335 11.1206 93.2902 11.1654 93.235 11.1654H92.455C92.2893 11.1654 92.155 11.2997 92.155 11.4654V12.2808C92.155 12.336 92.1102 12.3808 92.055 12.3808H91.275C91.1093 12.3808 90.975 12.5151 90.975 12.6808V13.5961H89.895C89.8398 13.5961 89.795 13.5513 89.795 13.4961V6.40385C89.795 6.34862 89.8398 6.30385 89.895 6.30385H96.775C96.8302 6.30385 96.875 6.34862 96.875 6.40385V7.51923Z" fill="#A73C4C"/>
<path d="M12.3 6C12.1343 6 12 6.13431 12 6.3V13.6C12 13.7657 12.1343 13.9 12.3 13.9H13.0987H19.37C19.5357 13.9 19.67 13.7657 19.67 13.6V7.38235V6.3C19.67 6.13431 19.5357 6 19.37 6H12.3ZM13.77 13.5962V12.7846C13.77 12.7294 13.8148 12.6846 13.87 12.6846H14.65C14.8157 12.6846 14.95 12.5503 14.95 12.3846V11.5692C14.95 11.514 14.9948 11.4692 15.05 11.4692H15.83C15.9957 11.4692 16.13 11.3349 16.13 11.1692V10.3538C16.13 10.2986 16.1748 10.2538 16.23 10.2538H17.01C17.1757 10.2538 17.31 10.1195 17.31 9.95385V9.13846C17.31 9.08323 17.3548 9.03846 17.41 9.03846H18.19C18.3557 9.03846 18.49 8.90415 18.49 8.73846V7.92308C18.49 7.86785 18.5348 7.82308 18.59 7.82308H19.375V13.4961C19.375 13.5513 19.3302 13.5961 19.275 13.5961L13.77 13.5962ZM19.375 7.51923H18.495C18.3293 7.51923 18.195 7.65355 18.195 7.81923V8.63462C18.195 8.68984 18.1502 8.73462 18.095 8.73462H17.315C17.1493 8.73462 17.015 8.86893 17.015 9.03462V9.85C17.015 9.90523 16.9702 9.95 16.915 9.95H16.135C15.9693 9.95 15.835 10.0843 15.835 10.25V11.0654C15.835 11.1206 15.7902 11.1654 15.735 11.1654H14.955C14.7893 11.1654 14.655 11.2997 14.655 11.4654V12.2808C14.655 12.336 14.6102 12.3808 14.555 12.3808H13.775C13.6093 12.3808 13.475 12.5151 13.475 12.6808V13.5961H12.395C12.3398 13.5961 12.295 13.5513 12.295 13.4961V6.40385C12.295 6.34862 12.3398 6.30385 12.395 6.30385H19.275C19.3302 6.30385 19.375 6.34862 19.375 6.40385V7.51923Z" fill="#A73C4C"/>
<path d="M97.285 29.275C97.285 29.215 97.3233 29.1567 97.4 29.1C97.4767 29.04 97.58 28.9917 97.71 28.955C97.84 28.9183 97.9817 28.9 98.135 28.9C98.3483 28.9 98.5317 28.9367 98.685 29.01C98.8383 29.08 98.9567 29.18 99.04 29.31C99.1233 29.44 99.165 29.5933 99.165 29.77C99.165 29.9533 99.1133 30.1333 99.01 30.31C98.91 30.4867 98.7367 30.6883 98.49 30.915L97.675 31.67H99.16C99.1733 31.6833 99.185 31.705 99.195 31.735C99.205 31.7617 99.21 31.7933 99.21 31.83C99.21 31.8833 99.195 31.925 99.165 31.955C99.1383 31.985 99.1017 32 99.055 32H97.29C97.2567 31.9767 97.2317 31.9483 97.215 31.915C97.1983 31.8783 97.19 31.84 97.19 31.8C97.19 31.7467 97.2 31.7 97.22 31.66C97.24 31.6167 97.27 31.5767 97.31 31.54L98.21 30.675C98.4167 30.4817 98.5583 30.32 98.635 30.19C98.7117 30.0567 98.75 29.9183 98.75 29.775C98.75 29.6183 98.6967 29.49 98.59 29.39C98.4833 29.29 98.3217 29.24 98.105 29.24C97.9583 29.24 97.8267 29.265 97.71 29.315C97.5967 29.365 97.5017 29.4183 97.425 29.475C97.3883 29.4583 97.355 29.4333 97.325 29.4C97.2983 29.3667 97.285 29.325 97.285 29.275ZM100.945 32.065C100.712 32.065 100.505 32.0083 100.325 31.895C100.149 31.7783 100.01 31.6033 99.9102 31.37C99.8102 31.1333 99.7602 30.8367 99.7602 30.48C99.7602 30.0967 99.8169 29.79 99.9302 29.56C100.044 29.33 100.19 29.1633 100.37 29.06C100.55 28.9533 100.742 28.9 100.945 28.9C101.152 28.9 101.345 28.9533 101.525 29.06C101.709 29.1667 101.855 29.3367 101.965 29.57C102.079 29.8 102.135 30.1033 102.135 30.48C102.135 30.8333 102.085 31.1283 101.985 31.365C101.885 31.5983 101.745 31.7733 101.565 31.89C101.389 32.0067 101.182 32.065 100.945 32.065ZM100.945 31.725C101.192 31.725 101.384 31.6183 101.52 31.405C101.657 31.1883 101.725 30.88 101.725 30.48C101.725 30.1833 101.689 29.945 101.615 29.765C101.545 29.5817 101.452 29.4483 101.335 29.365C101.219 29.2817 101.089 29.24 100.945 29.24C100.805 29.24 100.675 29.2833 100.555 29.37C100.439 29.4533 100.345 29.5867 100.275 29.77C100.205 29.9533 100.17 30.19 100.17 30.48C100.17 30.88 100.239 31.1883 100.375 31.405C100.512 31.6183 100.702 31.725 100.945 31.725ZM102.685 29.275C102.685 29.215 102.724 29.1567 102.8 29.1C102.877 29.04 102.98 28.9917 103.11 28.955C103.24 28.9183 103.382 28.9 103.535 28.9C103.749 28.9 103.932 28.9367 104.085 29.01C104.239 29.08 104.357 29.18 104.44 29.31C104.524 29.44 104.565 29.5933 104.565 29.77C104.565 29.9533 104.514 30.1333 104.41 30.31C104.31 30.4867 104.137 30.6883 103.89 30.915L103.075 31.67H104.56C104.574 31.6833 104.585 31.705 104.595 31.735C104.605 31.7617 104.61 31.7933 104.61 31.83C104.61 31.8833 104.595 31.925 104.565 31.955C104.539 31.985 104.502 32 104.455 32H102.69C102.657 31.9767 102.632 31.9483 102.615 31.915C102.599 31.8783 102.59 31.84 102.59 31.8C102.59 31.7467 102.6 31.7 102.62 31.66C102.64 31.6167 102.67 31.5767 102.71 31.54L103.61 30.675C103.817 30.4817 103.959 30.32 104.035 30.19C104.112 30.0567 104.15 29.9183 104.15 29.775C104.15 29.6183 104.097 29.49 103.99 29.39C103.884 29.29 103.722 29.24 103.505 29.24C103.359 29.24 103.227 29.265 103.11 29.315C102.997 29.365 102.902 29.4183 102.825 29.475C102.789 29.4583 102.755 29.4333 102.725 29.4C102.699 29.3667 102.685 29.325 102.685 29.275Z" fill="#A73C4C"/>
<path d="M97.285 54.275C97.285 54.215 97.3233 54.1567 97.4 54.1C97.4767 54.04 97.58 53.9917 97.71 53.955C97.84 53.9183 97.9817 53.9 98.135 53.9C98.3483 53.9 98.5317 53.9367 98.685 54.01C98.8383 54.08 98.9567 54.18 99.04 54.31C99.1233 54.44 99.165 54.5933 99.165 54.77C99.165 54.9533 99.1133 55.1333 99.01 55.31C98.91 55.4867 98.7367 55.6883 98.49 55.915L97.675 56.67H99.16C99.1733 56.6833 99.185 56.705 99.195 56.735C99.205 56.7617 99.21 56.7933 99.21 56.83C99.21 56.8833 99.195 56.925 99.165 56.955C99.1383 56.985 99.1017 57 99.055 57H97.29C97.2567 56.9767 97.2317 56.9483 97.215 56.915C97.1983 56.8783 97.19 56.84 97.19 56.8C97.19 56.7467 97.2 56.7 97.22 56.66C97.24 56.6167 97.27 56.5767 97.31 56.54L98.21 55.675C98.4167 55.4817 98.5583 55.32 98.635 55.19C98.7117 55.0567 98.75 54.9183 98.75 54.775C98.75 54.6183 98.6967 54.49 98.59 54.39C98.4833 54.29 98.3217 54.24 98.105 54.24C97.9583 54.24 97.8267 54.265 97.71 54.315C97.5967 54.365 97.5017 54.4183 97.425 54.475C97.3883 54.4583 97.355 54.4333 97.325 54.4C97.2983 54.3667 97.285 54.325 97.285 54.275ZM100.945 57.065C100.712 57.065 100.505 57.0083 100.325 56.895C100.149 56.7783 100.01 56.6033 99.9102 56.37C99.8102 56.1333 99.7602 55.8367 99.7602 55.48C99.7602 55.0967 99.8169 54.79 99.9302 54.56C100.044 54.33 100.19 54.1633 100.37 54.06C100.55 53.9533 100.742 53.9 100.945 53.9C101.152 53.9 101.345 53.9533 101.525 54.06C101.709 54.1667 101.855 54.3367 101.965 54.57C102.079 54.8 102.135 55.1033 102.135 55.48C102.135 55.8333 102.085 56.1283 101.985 56.365C101.885 56.5983 101.745 56.7733 101.565 56.89C101.389 57.0067 101.182 57.065 100.945 57.065ZM100.945 56.725C101.192 56.725 101.384 56.6183 101.52 56.405C101.657 56.1883 101.725 55.88 101.725 55.48C101.725 55.1833 101.689 54.945 101.615 54.765C101.545 54.5817 101.452 54.4483 101.335 54.365C101.219 54.2817 101.089 54.24 100.945 54.24C100.805 54.24 100.675 54.2833 100.555 54.37C100.439 54.4533 100.345 54.5867 100.275 54.77C100.205 54.9533 100.17 55.19 100.17 55.48C100.17 55.88 100.239 56.1883 100.375 56.405C100.512 56.6183 100.702 56.725 100.945 56.725ZM102.59 55.885L104.045 53.955C104.075 53.9483 104.108 53.9433 104.145 53.94C104.185 53.9333 104.22 53.93 104.25 53.93C104.296 53.93 104.34 53.9367 104.38 53.95C104.423 53.9633 104.458 53.9883 104.485 54.025C104.511 54.0583 104.525 54.1083 104.525 54.175V55.925H105.025C105.035 55.9417 105.045 55.965 105.055 55.995C105.065 56.0217 105.07 56.0533 105.07 56.09C105.07 56.1433 105.056 56.185 105.03 56.215C105.003 56.245 104.965 56.26 104.915 56.26H104.525V57.01C104.508 57.0133 104.483 57.0183 104.45 57.025C104.42 57.035 104.386 57.04 104.35 57.04C104.28 57.04 104.226 57.025 104.19 56.995C104.153 56.965 104.135 56.9217 104.135 56.865V56.26H102.69C102.656 56.2433 102.626 56.2133 102.6 56.17C102.576 56.1267 102.565 56.0783 102.565 56.025C102.565 55.995 102.566 55.97 102.57 55.95C102.576 55.9267 102.583 55.905 102.59 55.885ZM104.14 55.925L104.15 54.35H104.14L103.03 55.925H104.14Z" fill="#A73C4C"/>
<path d="M81.285 59.275C81.285 59.215 81.3233 59.1567 81.4 59.1C81.4767 59.04 81.58 58.9917 81.71 58.955C81.84 58.9183 81.9817 58.9 82.135 58.9C82.3483 58.9 82.5317 58.9367 82.685 59.01C82.8383 59.08 82.9567 59.18 83.04 59.31C83.1233 59.44 83.165 59.5933 83.165 59.77C83.165 59.9533 83.1133 60.1333 83.01 60.31C82.91 60.4867 82.7367 60.6883 82.49 60.915L81.675 61.67H83.16C83.1733 61.6833 83.185 61.705 83.195 61.735C83.205 61.7617 83.21 61.7933 83.21 61.83C83.21 61.8833 83.195 61.925 83.165 61.955C83.1383 61.985 83.1017 62 83.055 62H81.29C81.2567 61.9767 81.2317 61.9483 81.215 61.915C81.1983 61.8783 81.19 61.84 81.19 61.8C81.19 61.7467 81.2 61.7 81.22 61.66C81.24 61.6167 81.27 61.5767 81.31 61.54L82.21 60.675C82.4167 60.4817 82.5583 60.32 82.635 60.19C82.7117 60.0567 82.75 59.9183 82.75 59.775C82.75 59.6183 82.6967 59.49 82.59 59.39C82.4833 59.29 82.3217 59.24 82.105 59.24C81.9583 59.24 81.8267 59.265 81.71 59.315C81.5967 59.365 81.5017 59.4183 81.425 59.475C81.3883 59.4583 81.355 59.4333 81.325 59.4C81.2983 59.3667 81.285 59.325 81.285 59.275ZM84.9452 62.065C84.7119 62.065 84.5052 62.0083 84.3252 61.895C84.1486 61.7783 84.0102 61.6033 83.9102 61.37C83.8102 61.1333 83.7602 60.8367 83.7602 60.48C83.7602 60.0967 83.8169 59.79 83.9302 59.56C84.0436 59.33 84.1902 59.1633 84.3702 59.06C84.5502 58.9533 84.7419 58.9 84.9452 58.9C85.1519 58.9 85.3452 58.9533 85.5252 59.06C85.7086 59.1667 85.8552 59.3367 85.9652 59.57C86.0786 59.8 86.1352 60.1033 86.1352 60.48C86.1352 60.8333 86.0852 61.1283 85.9852 61.365C85.8852 61.5983 85.7452 61.7733 85.5652 61.89C85.3886 62.0067 85.1819 62.065 84.9452 62.065ZM84.9452 61.725C85.1919 61.725 85.3836 61.6183 85.5202 61.405C85.6569 61.1883 85.7252 60.88 85.7252 60.48C85.7252 60.1833 85.6886 59.945 85.6152 59.765C85.5452 59.5817 85.4519 59.4483 85.3352 59.365C85.2186 59.2817 85.0886 59.24 84.9452 59.24C84.8052 59.24 84.6752 59.2833 84.5552 59.37C84.4386 59.4533 84.3452 59.5867 84.2752 59.77C84.2052 59.9533 84.1702 60.19 84.1702 60.48C84.1702 60.88 84.2386 61.1883 84.3752 61.405C84.5119 61.6183 84.7019 61.725 84.9452 61.725ZM87.4253 58.96L87.2903 59.255L87.2053 60.2C87.2619 60.17 87.3403 60.1417 87.4403 60.115C87.5436 60.085 87.6519 60.07 87.7653 60.07C87.9653 60.07 88.1453 60.1083 88.3053 60.185C88.4653 60.2583 88.5919 60.3683 88.6853 60.515C88.7819 60.6583 88.8303 60.8367 88.8303 61.05C88.8303 61.2433 88.7853 61.4167 88.6953 61.57C88.6086 61.7233 88.4803 61.845 88.3103 61.935C88.1436 62.0217 87.9386 62.065 87.6953 62.065C87.5053 62.065 87.3386 62.0433 87.1953 62C87.0519 61.9567 86.9403 61.9033 86.8603 61.84C86.7803 61.7767 86.7403 61.715 86.7403 61.655C86.7403 61.6017 86.7569 61.555 86.7903 61.515C86.8269 61.475 86.8636 61.4483 86.9003 61.435C86.9736 61.4983 87.0769 61.5633 87.2103 61.63C87.3436 61.6967 87.5053 61.73 87.6953 61.73C87.9253 61.73 88.1036 61.6667 88.2303 61.54C88.3569 61.41 88.4203 61.2467 88.4203 61.05C88.4203 60.8467 88.3553 60.6883 88.2253 60.575C88.0953 60.4617 87.9253 60.405 87.7153 60.405C87.5986 60.405 87.4919 60.4233 87.3953 60.46C87.2986 60.4967 87.2086 60.5383 87.1253 60.585C87.0353 60.5783 86.9619 60.5517 86.9053 60.505C86.8519 60.455 86.8253 60.3917 86.8253 60.315C86.8253 60.295 86.8253 60.27 86.8253 60.24C86.8286 60.2067 86.8319 60.175 86.8353 60.145L86.9203 59.19C86.9269 59.12 86.9486 59.065 86.9853 59.025C87.0219 58.9817 87.0753 58.96 87.1453 58.96H87.4253ZM87.2153 59.3V58.96H88.6753C88.6853 58.9733 88.6953 58.995 88.7053 59.025C88.7153 59.055 88.7203 59.0867 88.7203 59.12C88.7203 59.1733 88.7069 59.2167 88.6803 59.25C88.6536 59.2833 88.6153 59.3 88.5653 59.3H87.2153Z" fill="#A73C4C"/>
<path d="M66.285 55.275C66.285 55.215 66.3233 55.1567 66.4 55.1C66.4767 55.04 66.58 54.9917 66.71 54.955C66.84 54.9183 66.9817 54.9 67.135 54.9C67.3483 54.9 67.5317 54.9367 67.685 55.01C67.8383 55.08 67.9567 55.18 68.04 55.31C68.1233 55.44 68.165 55.5933 68.165 55.77C68.165 55.9533 68.1133 56.1333 68.01 56.31C67.91 56.4867 67.7367 56.6883 67.49 56.915L66.675 57.67H68.16C68.1733 57.6833 68.185 57.705 68.195 57.735C68.205 57.7617 68.21 57.7933 68.21 57.83C68.21 57.8833 68.195 57.925 68.165 57.955C68.1383 57.985 68.1017 58 68.055 58H66.29C66.2567 57.9767 66.2317 57.9483 66.215 57.915C66.1983 57.8783 66.19 57.84 66.19 57.8C66.19 57.7467 66.2 57.7 66.22 57.66C66.24 57.6167 66.27 57.5767 66.31 57.54L67.21 56.675C67.4167 56.4817 67.5583 56.32 67.635 56.19C67.7117 56.0567 67.75 55.9183 67.75 55.775C67.75 55.6183 67.6967 55.49 67.59 55.39C67.4833 55.29 67.3217 55.24 67.105 55.24C66.9583 55.24 66.8267 55.265 66.71 55.315C66.5967 55.365 66.5017 55.4183 66.425 55.475C66.3883 55.4583 66.355 55.4333 66.325 55.4C66.2983 55.3667 66.285 55.325 66.285 55.275ZM69.9452 58.065C69.7119 58.065 69.5052 58.0083 69.3252 57.895C69.1486 57.7783 69.0102 57.6033 68.9102 57.37C68.8102 57.1333 68.7602 56.8367 68.7602 56.48C68.7602 56.0967 68.8169 55.79 68.9302 55.56C69.0436 55.33 69.1902 55.1633 69.3702 55.06C69.5502 54.9533 69.7419 54.9 69.9452 54.9C70.1519 54.9 70.3452 54.9533 70.5252 55.06C70.7086 55.1667 70.8552 55.3367 70.9652 55.57C71.0786 55.8 71.1352 56.1033 71.1352 56.48C71.1352 56.8333 71.0852 57.1283 70.9852 57.365C70.8852 57.5983 70.7452 57.7733 70.5652 57.89C70.3886 58.0067 70.1819 58.065 69.9452 58.065ZM69.9452 57.725C70.1919 57.725 70.3836 57.6183 70.5202 57.405C70.6569 57.1883 70.7252 56.88 70.7252 56.48C70.7252 56.1833 70.6886 55.945 70.6152 55.765C70.5452 55.5817 70.4519 55.4483 70.3352 55.365C70.2186 55.2817 70.0886 55.24 69.9452 55.24C69.8052 55.24 69.6752 55.2833 69.5552 55.37C69.4386 55.4533 69.3452 55.5867 69.2752 55.77C69.2052 55.9533 69.1702 56.19 69.1702 56.48C69.1702 56.88 69.2386 57.1883 69.3752 57.405C69.5119 57.6183 69.7019 57.725 69.9452 57.725ZM73.6803 55.195C73.6803 55.235 73.6686 55.2733 73.6453 55.31C73.6253 55.3433 73.5986 55.3683 73.5653 55.385C73.4919 55.3483 73.4086 55.3167 73.3153 55.29C73.2253 55.26 73.1269 55.245 73.0203 55.245C72.7603 55.245 72.5403 55.3383 72.3603 55.525C72.1836 55.7117 72.0903 56.0033 72.0803 56.4C72.1469 56.3333 72.2486 56.2633 72.3853 56.19C72.5253 56.1133 72.6969 56.075 72.9003 56.075C73.1936 56.075 73.4353 56.1583 73.6253 56.325C73.8153 56.4917 73.9103 56.7383 73.9103 57.065C73.9103 57.2717 73.8653 57.45 73.7753 57.6C73.6886 57.75 73.5653 57.865 73.4053 57.945C73.2486 58.025 73.0619 58.065 72.8453 58.065C72.6219 58.065 72.4219 58.015 72.2453 57.915C72.0686 57.8117 71.9286 57.6517 71.8253 57.435C71.7253 57.215 71.6753 56.9283 71.6753 56.575C71.6753 56.2617 71.7119 55.9983 71.7853 55.785C71.8619 55.5683 71.9636 55.3967 72.0903 55.27C72.2169 55.14 72.3603 55.0467 72.5203 54.99C72.6803 54.93 72.8436 54.9 73.0103 54.9C73.1269 54.9 73.2353 54.9117 73.3353 54.935C73.4386 54.9583 73.5219 54.9917 73.5853 55.035C73.6486 55.0783 73.6803 55.1317 73.6803 55.195ZM72.8453 57.73C73.0386 57.73 73.1969 57.6717 73.3203 57.555C73.4436 57.435 73.5053 57.2683 73.5053 57.055C73.5053 56.8383 73.4419 56.6783 73.3153 56.575C73.1919 56.4683 73.0386 56.415 72.8553 56.415C72.6719 56.415 72.5136 56.455 72.3803 56.535C72.2469 56.6117 72.1419 56.705 72.0653 56.815L72.0803 56.78C72.0803 57.0633 72.1469 57.2933 72.2803 57.47C72.4136 57.6433 72.6019 57.73 72.8453 57.73Z" fill="#A73C4C"/>
<path d="M49.285 58.275C49.285 58.215 49.3233 58.1567 49.4 58.1C49.4767 58.04 49.58 57.9917 49.71 57.955C49.84 57.9183 49.9817 57.9 50.135 57.9C50.3483 57.9 50.5317 57.9367 50.685 58.01C50.8383 58.08 50.9567 58.18 51.04 58.31C51.1233 58.44 51.165 58.5933 51.165 58.77C51.165 58.9533 51.1133 59.1333 51.01 59.31C50.91 59.4867 50.7367 59.6883 50.49 59.915L49.675 60.67H51.16C51.1733 60.6833 51.185 60.705 51.195 60.735C51.205 60.7617 51.21 60.7933 51.21 60.83C51.21 60.8833 51.195 60.925 51.165 60.955C51.1383 60.985 51.1017 61 51.055 61H49.29C49.2567 60.9767 49.2317 60.9483 49.215 60.915C49.1983 60.8783 49.19 60.84 49.19 60.8C49.19 60.7467 49.2 60.7 49.22 60.66C49.24 60.6167 49.27 60.5767 49.31 60.54L50.21 59.675C50.4167 59.4817 50.5583 59.32 50.635 59.19C50.7117 59.0567 50.75 58.9183 50.75 58.775C50.75 58.6183 50.6967 58.49 50.59 58.39C50.4833 58.29 50.3217 58.24 50.105 58.24C49.9583 58.24 49.8267 58.265 49.71 58.315C49.5967 58.365 49.5017 58.4183 49.425 58.475C49.3883 58.4583 49.355 58.4333 49.325 58.4C49.2983 58.3667 49.285 58.325 49.285 58.275ZM52.8091 59.88H52.4041V58.35L51.7641 58.65C51.7207 58.6333 51.6841 58.6083 51.6541 58.575C51.6274 58.5417 51.6141 58.5 51.6141 58.45C51.6141 58.3533 51.6741 58.28 51.7941 58.23L52.4941 57.925H52.5891C52.6557 57.925 52.7091 57.945 52.7491 57.985C52.7891 58.025 52.8091 58.0783 52.8091 58.145V59.88ZM52.4041 59.68H52.8091V61.005C52.7891 61.0117 52.7624 61.0183 52.7291 61.025C52.6957 61.035 52.6591 61.04 52.6191 61.04C52.5491 61.04 52.4957 61.025 52.4591 60.995C52.4224 60.965 52.4041 60.9183 52.4041 60.855V59.68ZM54.7812 61.065C54.5478 61.065 54.3412 61.0083 54.1612 60.895C53.9845 60.7783 53.8462 60.6033 53.7462 60.37C53.6462 60.1333 53.5962 59.8367 53.5962 59.48C53.5962 59.0967 53.6528 58.79 53.7662 58.56C53.8795 58.33 54.0262 58.1633 54.2062 58.06C54.3862 57.9533 54.5778 57.9 54.7812 57.9C54.9878 57.9 55.1812 57.9533 55.3612 58.06C55.5445 58.1667 55.6912 58.3367 55.8012 58.57C55.9145 58.8 55.9712 59.1033 55.9712 59.48C55.9712 59.8333 55.9212 60.1283 55.8212 60.365C55.7212 60.5983 55.5812 60.7733 55.4012 60.89C55.2245 61.0067 55.0178 61.065 54.7812 61.065ZM54.7812 60.725C55.0278 60.725 55.2195 60.6183 55.3562 60.405C55.4928 60.1883 55.5612 59.88 55.5612 59.48C55.5612 59.1833 55.5245 58.945 55.4512 58.765C55.3812 58.5817 55.2878 58.4483 55.1712 58.365C55.0545 58.2817 54.9245 58.24 54.7812 58.24C54.6412 58.24 54.5112 58.2833 54.3912 58.37C54.2745 58.4533 54.1812 58.5867 54.1112 58.77C54.0412 58.9533 54.0062 59.19 54.0062 59.48C54.0062 59.88 54.0745 60.1883 54.2112 60.405C54.3478 60.6183 54.5378 60.725 54.7812 60.725Z" fill="#A73C4C"/>
<path d="M33.985 55.275C33.985 55.215 34.0233 55.1567 34.1 55.1C34.1767 55.04 34.28 54.9917 34.41 54.955C34.54 54.9183 34.6817 54.9 34.835 54.9C35.0483 54.9 35.2317 54.9367 35.385 55.01C35.5383 55.08 35.6567 55.18 35.74 55.31C35.8233 55.44 35.865 55.5933 35.865 55.77C35.865 55.9533 35.8133 56.1333 35.71 56.31C35.61 56.4867 35.4367 56.6883 35.19 56.915L34.375 57.67H35.86C35.8733 57.6833 35.885 57.705 35.895 57.735C35.905 57.7617 35.91 57.7933 35.91 57.83C35.91 57.8833 35.895 57.925 35.865 57.955C35.8383 57.985 35.8017 58 35.755 58H33.99C33.9567 57.9767 33.9317 57.9483 33.915 57.915C33.8983 57.8783 33.89 57.84 33.89 57.8C33.89 57.7467 33.9 57.7 33.92 57.66C33.94 57.6167 33.97 57.5767 34.01 57.54L34.91 56.675C35.1167 56.4817 35.2583 56.32 35.335 56.19C35.4117 56.0567 35.45 55.9183 35.45 55.775C35.45 55.6183 35.3967 55.49 35.29 55.39C35.1833 55.29 35.0217 55.24 34.805 55.24C34.6583 55.24 34.5267 55.265 34.41 55.315C34.2967 55.365 34.2017 55.4183 34.125 55.475C34.0883 55.4583 34.055 55.4333 34.025 55.4C33.9983 55.3667 33.985 55.325 33.985 55.275ZM37.5091 56.88H37.1041V55.35L36.4641 55.65C36.4207 55.6333 36.3841 55.6083 36.3541 55.575C36.3274 55.5417 36.3141 55.5 36.3141 55.45C36.3141 55.3533 36.3741 55.28 36.4941 55.23L37.1941 54.925H37.2891C37.3557 54.925 37.4091 54.945 37.4491 54.985C37.4891 55.025 37.5091 55.0783 37.5091 55.145V56.88ZM37.1041 56.68H37.5091V58.005C37.4891 58.0117 37.4624 58.0183 37.4291 58.025C37.3957 58.035 37.3591 58.04 37.3191 58.04C37.2491 58.04 37.1957 58.025 37.1591 57.995C37.1224 57.965 37.1041 57.9183 37.1041 57.855V56.68ZM39.3206 56.88H38.9156V55.35L38.2756 55.65C38.2323 55.6333 38.1956 55.6083 38.1656 55.575C38.1389 55.5417 38.1256 55.5 38.1256 55.45C38.1256 55.3533 38.1856 55.28 38.3056 55.23L39.0056 54.925H39.1006C39.1673 54.925 39.2206 54.945 39.2606 54.985C39.3006 55.025 39.3206 55.0783 39.3206 55.145V56.88ZM38.9156 56.68H39.3206V58.005C39.3006 58.0117 39.2739 58.0183 39.2406 58.025C39.2073 58.035 39.1706 58.04 39.1306 58.04C39.0606 58.04 39.0073 58.025 38.9706 57.995C38.9339 57.965 38.9156 57.9183 38.9156 57.855V56.68Z" fill="#A73C4C"/>
<path d="M39.285 32.275C39.285 32.215 39.3233 32.1567 39.4 32.1C39.4767 32.04 39.58 31.9917 39.71 31.955C39.84 31.9183 39.9817 31.9 40.135 31.9C40.3483 31.9 40.5317 31.9367 40.685 32.01C40.8383 32.08 40.9567 32.18 41.04 32.31C41.1233 32.44 41.165 32.5933 41.165 32.77C41.165 32.9533 41.1133 33.1333 41.01 33.31C40.91 33.4867 40.7367 33.6883 40.49 33.915L39.675 34.67H41.16C41.1733 34.6833 41.185 34.705 41.195 34.735C41.205 34.7617 41.21 34.7933 41.21 34.83C41.21 34.8833 41.195 34.925 41.165 34.955C41.1383 34.985 41.1017 35 41.055 35H39.29C39.2567 34.9767 39.2317 34.9483 39.215 34.915C39.1983 34.8783 39.19 34.84 39.19 34.8C39.19 34.7467 39.2 34.7 39.22 34.66C39.24 34.6167 39.27 34.5767 39.31 34.54L40.21 33.675C40.4167 33.4817 40.5583 33.32 40.635 33.19C40.7117 33.0567 40.75 32.9183 40.75 32.775C40.75 32.6183 40.6967 32.49 40.59 32.39C40.4833 32.29 40.3217 32.24 40.105 32.24C39.9583 32.24 39.8267 32.265 39.71 32.315C39.5967 32.365 39.5017 32.4183 39.425 32.475C39.3883 32.4583 39.355 32.4333 39.325 32.4C39.2983 32.3667 39.285 32.325 39.285 32.275ZM41.8241 32.275C41.8241 32.215 41.8624 32.1567 41.9391 32.1C42.0157 32.04 42.1191 31.9917 42.2491 31.955C42.3791 31.9183 42.5207 31.9 42.6741 31.9C42.8874 31.9 43.0707 31.9367 43.2241 32.01C43.3774 32.08 43.4957 32.18 43.5791 32.31C43.6624 32.44 43.7041 32.5933 43.7041 32.77C43.7041 32.9533 43.6524 33.1333 43.5491 33.31C43.4491 33.4867 43.2757 33.6883 43.0291 33.915L42.2141 34.67H43.6991C43.7124 34.6833 43.7241 34.705 43.7341 34.735C43.7441 34.7617 43.7491 34.7933 43.7491 34.83C43.7491 34.8833 43.7341 34.925 43.7041 34.955C43.6774 34.985 43.6407 35 43.5941 35H41.8291C41.7957 34.9767 41.7707 34.9483 41.7541 34.915C41.7374 34.8783 41.7291 34.84 41.7291 34.8C41.7291 34.7467 41.7391 34.7 41.7591 34.66C41.7791 34.6167 41.8091 34.5767 41.8491 34.54L42.7491 33.675C42.9557 33.4817 43.0974 33.32 43.1741 33.19C43.2507 33.0567 43.2891 32.9183 43.2891 32.775C43.2891 32.6183 43.2357 32.49 43.1291 32.39C43.0224 32.29 42.8607 32.24 42.6441 32.24C42.4974 32.24 42.3657 32.265 42.2491 32.315C42.1357 32.365 42.0407 32.4183 41.9641 32.475C41.9274 32.4583 41.8941 32.4333 41.8641 32.4C41.8374 32.3667 41.8241 32.325 41.8241 32.275ZM44.3631 32.275C44.3631 32.215 44.4015 32.1567 44.4781 32.1C44.5548 32.04 44.6581 31.9917 44.7881 31.955C44.9181 31.9183 45.0598 31.9 45.2131 31.9C45.4265 31.9 45.6098 31.9367 45.7631 32.01C45.9165 32.08 46.0348 32.18 46.1181 32.31C46.2015 32.44 46.2431 32.5933 46.2431 32.77C46.2431 32.9533 46.1915 33.1333 46.0881 33.31C45.9881 33.4867 45.8148 33.6883 45.5681 33.915L44.7531 34.67H46.2381C46.2515 34.6833 46.2631 34.705 46.2731 34.735C46.2831 34.7617 46.2881 34.7933 46.2881 34.83C46.2881 34.8833 46.2731 34.925 46.2431 34.955C46.2165 34.985 46.1798 35 46.1331 35H44.3681C44.3348 34.9767 44.3098 34.9483 44.2931 34.915C44.2765 34.8783 44.2681 34.84 44.2681 34.8C44.2681 34.7467 44.2781 34.7 44.2981 34.66C44.3181 34.6167 44.3481 34.5767 44.3881 34.54L45.2881 33.675C45.4948 33.4817 45.6365 33.32 45.7131 33.19C45.7898 33.0567 45.8281 32.9183 45.8281 32.775C45.8281 32.6183 45.7748 32.49 45.6681 32.39C45.5615 32.29 45.3998 32.24 45.1831 32.24C45.0365 32.24 44.9048 32.265 44.7881 32.315C44.6748 32.365 44.5798 32.4183 44.5031 32.475C44.4665 32.4583 44.4331 32.4333 44.4031 32.4C44.3765 32.3667 44.3631 32.325 44.3631 32.275Z" fill="#A73C4C"/>
<path d="M55.228 28.82C55.228 28.772 55.2587 28.7253 55.32 28.68C55.3813 28.632 55.464 28.5933 55.568 28.564C55.672 28.5347 55.7853 28.52 55.908 28.52C56.0787 28.52 56.2253 28.5493 56.348 28.608C56.4707 28.664 56.5653 28.744 56.632 28.848C56.6987 28.952 56.732 29.0747 56.732 29.216C56.732 29.3627 56.6907 29.5067 56.608 29.648C56.528 29.7893 56.3893 29.9507 56.192 30.132L55.54 30.736H56.728C56.7387 30.7467 56.748 30.764 56.756 30.788C56.764 30.8093 56.768 30.8347 56.768 30.864C56.768 30.9067 56.756 30.94 56.732 30.964C56.7107 30.988 56.6813 31 56.644 31H55.232C55.2053 30.9813 55.1853 30.9587 55.172 30.932C55.1587 30.9027 55.152 30.872 55.152 30.84C55.152 30.7973 55.16 30.76 55.176 30.728C55.192 30.6933 55.216 30.6613 55.248 30.632L55.968 29.94C56.1333 29.7853 56.2467 29.656 56.308 29.552C56.3693 29.4453 56.4 29.3347 56.4 29.22C56.4 29.0947 56.3573 28.992 56.272 28.912C56.1867 28.832 56.0573 28.792 55.884 28.792C55.7667 28.792 55.6613 28.812 55.568 28.852C55.4773 28.892 55.4013 28.9347 55.34 28.98C55.3107 28.9667 55.284 28.9467 55.26 28.92C55.2387 28.8933 55.228 28.86 55.228 28.82ZM58.1562 31.052C57.9695 31.052 57.8042 31.0067 57.6602 30.916C57.5189 30.8227 57.4082 30.6827 57.3282 30.496C57.2482 30.3067 57.2082 30.0693 57.2082 29.784C57.2082 29.4773 57.2535 29.232 57.3442 29.048C57.4349 28.864 57.5522 28.7307 57.6962 28.648C57.8402 28.5627 57.9935 28.52 58.1562 28.52C58.3215 28.52 58.4762 28.5627 58.6202 28.648C58.7669 28.7333 58.8842 28.8693 58.9722 29.056C59.0629 29.24 59.1082 29.4827 59.1082 29.784C59.1082 30.0667 59.0682 30.3027 58.9882 30.492C58.9082 30.6787 58.7962 30.8187 58.6522 30.912C58.5109 31.0053 58.3455 31.052 58.1562 31.052ZM58.1562 30.78C58.3535 30.78 58.5069 30.6947 58.6162 30.524C58.7255 30.3507 58.7802 30.104 58.7802 29.784C58.7802 29.5467 58.7509 29.356 58.6922 29.212C58.6362 29.0653 58.5615 28.9587 58.4682 28.892C58.3749 28.8253 58.2709 28.792 58.1562 28.792C58.0442 28.792 57.9402 28.8267 57.8442 28.896C57.7509 28.9627 57.6762 29.0693 57.6202 29.216C57.5642 29.3627 57.5362 29.552 57.5362 29.784C57.5362 30.104 57.5909 30.3507 57.7002 30.524C57.8095 30.6947 57.9615 30.78 58.1562 30.78ZM59.6327 30.804C59.6327 30.772 59.6407 30.7413 59.6567 30.712C59.6754 30.6827 59.698 30.6613 59.7247 30.648C59.7754 30.6773 59.8407 30.7067 59.9207 30.736C60.0034 30.7627 60.1007 30.776 60.2127 30.776C60.3514 30.776 60.478 30.7467 60.5927 30.688C60.7074 30.6293 60.7994 30.5333 60.8687 30.4C60.938 30.264 60.9727 30.0853 60.9727 29.864C60.9487 29.8907 60.9087 29.924 60.8527 29.964C60.7994 30.0013 60.7314 30.0347 60.6487 30.064C60.566 30.0933 60.47 30.108 60.3607 30.108C60.2114 30.108 60.0714 30.0827 59.9407 30.032C59.81 29.9787 59.7047 29.8947 59.6247 29.78C59.5474 29.6653 59.5087 29.5147 59.5087 29.328C59.5087 29.16 59.546 29.016 59.6207 28.896C59.6954 28.7733 59.7967 28.68 59.9247 28.616C60.0527 28.552 60.1954 28.52 60.3527 28.52C60.5367 28.52 60.6994 28.5627 60.8407 28.648C60.982 28.7307 61.0927 28.86 61.1727 29.036C61.2554 29.2093 61.2967 29.4333 61.2967 29.708C61.2967 30.0333 61.2514 30.2947 61.1607 30.492C61.07 30.6893 60.9434 30.832 60.7807 30.92C60.6207 31.008 60.4327 31.052 60.2167 31.052C60.0567 31.052 59.9194 31.0307 59.8047 30.988C59.69 30.9453 59.6327 30.884 59.6327 30.804ZM60.4047 29.84C60.5407 29.84 60.6607 29.8067 60.7647 29.74C60.8714 29.6707 60.942 29.5947 60.9767 29.512L60.9727 29.556C60.9727 29.3187 60.918 29.132 60.8087 28.996C60.702 28.8573 60.55 28.788 60.3527 28.788C60.206 28.788 60.082 28.836 59.9807 28.932C59.882 29.0253 59.8327 29.1547 59.8327 29.32C59.8327 29.504 59.8887 29.6373 60.0007 29.72C60.1127 29.8 60.2474 29.84 60.4047 29.84Z" fill="#A73C4C"/>
<path d="M70.978 28.82C70.978 28.772 71.0087 28.7253 71.07 28.68C71.1313 28.632 71.214 28.5933 71.318 28.564C71.422 28.5347 71.5353 28.52 71.658 28.52C71.8287 28.52 71.9753 28.5493 72.098 28.608C72.2207 28.664 72.3153 28.744 72.382 28.848C72.4487 28.952 72.482 29.0747 72.482 29.216C72.482 29.3627 72.4407 29.5067 72.358 29.648C72.278 29.7893 72.1393 29.9507 71.942 30.132L71.29 30.736H72.478C72.4887 30.7467 72.498 30.764 72.506 30.788C72.514 30.8093 72.518 30.8347 72.518 30.864C72.518 30.9067 72.506 30.94 72.482 30.964C72.4607 30.988 72.4313 31 72.394 31H70.982C70.9553 30.9813 70.9353 30.9587 70.922 30.932C70.9087 30.9027 70.902 30.872 70.902 30.84C70.902 30.7973 70.91 30.76 70.926 30.728C70.942 30.6933 70.966 30.6613 70.998 30.632L71.718 29.94C71.8833 29.7853 71.9967 29.656 72.058 29.552C72.1193 29.4453 72.15 29.3347 72.15 29.22C72.15 29.0947 72.1073 28.992 72.022 28.912C71.9367 28.832 71.8073 28.792 71.634 28.792C71.5167 28.792 71.4113 28.812 71.318 28.852C71.2273 28.892 71.1513 28.9347 71.09 28.98C71.0607 28.9667 71.034 28.9467 71.01 28.92C70.9887 28.8933 70.978 28.86 70.978 28.82ZM73.9062 31.052C73.7195 31.052 73.5542 31.0067 73.4102 30.916C73.2689 30.8227 73.1582 30.6827 73.0782 30.496C72.9982 30.3067 72.9582 30.0693 72.9582 29.784C72.9582 29.4773 73.0035 29.232 73.0942 29.048C73.1849 28.864 73.3022 28.7307 73.4462 28.648C73.5902 28.5627 73.7435 28.52 73.9062 28.52C74.0715 28.52 74.2262 28.5627 74.3702 28.648C74.5169 28.7333 74.6342 28.8693 74.7222 29.056C74.8129 29.24 74.8582 29.4827 74.8582 29.784C74.8582 30.0667 74.8182 30.3027 74.7382 30.492C74.6582 30.6787 74.5462 30.8187 74.4022 30.912C74.2609 31.0053 74.0955 31.052 73.9062 31.052ZM73.9062 30.78C74.1035 30.78 74.2569 30.6947 74.3662 30.524C74.4755 30.3507 74.5302 30.104 74.5302 29.784C74.5302 29.5467 74.5009 29.356 74.4422 29.212C74.3862 29.0653 74.3115 28.9587 74.2182 28.892C74.1249 28.8253 74.0209 28.792 73.9062 28.792C73.7942 28.792 73.6902 28.8267 73.5942 28.896C73.5009 28.9627 73.4262 29.0693 73.3702 29.216C73.3142 29.3627 73.2862 29.552 73.2862 29.784C73.2862 30.104 73.3409 30.3507 73.4502 30.524C73.5595 30.6947 73.7115 30.78 73.9062 30.78ZM75.2473 28.568H76.6873C76.7167 28.584 76.7393 28.6067 76.7553 28.636C76.7713 28.6627 76.7793 28.6933 76.7793 28.728C76.7793 28.7547 76.7753 28.7813 76.7673 28.808C76.762 28.8347 76.7513 28.864 76.7353 28.896L75.7313 31.016C75.7153 31.0187 75.6993 31.02 75.6833 31.02C75.67 31.02 75.6553 31.02 75.6393 31.02C75.5887 31.02 75.5447 31.008 75.5073 30.984C75.47 30.9573 75.4513 30.9213 75.4513 30.876C75.4513 30.844 75.458 30.8133 75.4713 30.784C75.4847 30.752 75.5007 30.716 75.5193 30.676L76.4233 28.84H75.1593C75.1513 28.8267 75.1433 28.8093 75.1353 28.788C75.1273 28.764 75.1233 28.7387 75.1233 28.712C75.1233 28.6667 75.134 28.632 75.1553 28.608C75.1767 28.5813 75.2073 28.568 75.2473 28.568Z" fill="#A73C4C"/>
<path d="M79.728 10.82C79.728 10.772 79.7587 10.7253 79.82 10.68C79.8813 10.632 79.964 10.5933 80.068 10.564C80.172 10.5347 80.2853 10.52 80.408 10.52C80.5787 10.52 80.7253 10.5493 80.848 10.608C80.9707 10.664 81.0653 10.744 81.132 10.848C81.1987 10.952 81.232 11.0747 81.232 11.216C81.232 11.3627 81.1907 11.5067 81.108 11.648C81.028 11.7893 80.8893 11.9507 80.692 12.132L80.04 12.736H81.228C81.2387 12.7467 81.248 12.764 81.256 12.788C81.264 12.8093 81.268 12.8347 81.268 12.864C81.268 12.9067 81.256 12.94 81.232 12.964C81.2107 12.988 81.1813 13 81.144 13H79.732C79.7053 12.9813 79.6853 12.9587 79.672 12.932C79.6587 12.9027 79.652 12.872 79.652 12.84C79.652 12.7973 79.66 12.76 79.676 12.728C79.692 12.6933 79.716 12.6613 79.748 12.632L80.468 11.94C80.6333 11.7853 80.7467 11.656 80.808 11.552C80.8693 11.4453 80.9 11.3347 80.9 11.22C80.9 11.0947 80.8573 10.992 80.772 10.912C80.6867 10.832 80.5573 10.792 80.384 10.792C80.2667 10.792 80.1613 10.812 80.068 10.852C79.9773 10.892 79.9013 10.9347 79.84 10.98C79.8107 10.9667 79.784 10.9467 79.76 10.92C79.7387 10.8933 79.728 10.86 79.728 10.82ZM82.6562 13.052C82.4695 13.052 82.3042 13.0067 82.1602 12.916C82.0189 12.8227 81.9082 12.6827 81.8282 12.496C81.7482 12.3067 81.7082 12.0693 81.7082 11.784C81.7082 11.4773 81.7535 11.232 81.8442 11.048C81.9349 10.864 82.0522 10.7307 82.1962 10.648C82.3402 10.5627 82.4935 10.52 82.6562 10.52C82.8215 10.52 82.9762 10.5627 83.1202 10.648C83.2669 10.7333 83.3842 10.8693 83.4722 11.056C83.5629 11.24 83.6082 11.4827 83.6082 11.784C83.6082 12.0667 83.5682 12.3027 83.4882 12.492C83.4082 12.6787 83.2962 12.8187 83.1522 12.912C83.0109 13.0053 82.8455 13.052 82.6562 13.052ZM82.6562 12.78C82.8535 12.78 83.0069 12.6947 83.1162 12.524C83.2255 12.3507 83.2802 12.104 83.2802 11.784C83.2802 11.5467 83.2509 11.356 83.1922 11.212C83.1362 11.0653 83.0615 10.9587 82.9682 10.892C82.8749 10.8253 82.7709 10.792 82.6562 10.792C82.5442 10.792 82.4402 10.8267 82.3442 10.896C82.2509 10.9627 82.1762 11.0693 82.1202 11.216C82.0642 11.3627 82.0362 11.552 82.0362 11.784C82.0362 12.104 82.0909 12.3507 82.2002 12.524C82.3095 12.6947 82.4615 12.78 82.6562 12.78ZM84.8012 12.104H84.4772V10.88L83.9652 11.12C83.9305 11.1067 83.9012 11.0867 83.8772 11.06C83.8558 11.0333 83.8452 11 83.8452 10.96C83.8452 10.8827 83.8932 10.824 83.9892 10.784L84.5492 10.54H84.6252C84.6785 10.54 84.7212 10.556 84.7532 10.588C84.7852 10.62 84.8012 10.6627 84.8012 10.716V12.104ZM84.4772 11.944H84.8012V13.004C84.7852 13.0093 84.7638 13.0147 84.7372 13.02C84.7105 13.028 84.6812 13.032 84.6492 13.032C84.5932 13.032 84.5505 13.02 84.5212 12.996C84.4918 12.972 84.4772 12.9347 84.4772 12.884V11.944Z" fill="#A73C4C"/>
<path d="M98.228 40.82C98.228 40.772 98.2587 40.7253 98.32 40.68C98.3813 40.632 98.464 40.5933 98.568 40.564C98.672 40.5347 98.7853 40.52 98.908 40.52C99.0787 40.52 99.2253 40.5493 99.348 40.608C99.4707 40.664 99.5653 40.744 99.632 40.848C99.6987 40.952 99.732 41.0747 99.732 41.216C99.732 41.3627 99.6907 41.5067 99.608 41.648C99.528 41.7893 99.3893 41.9507 99.192 42.132L98.54 42.736H99.728C99.7387 42.7467 99.748 42.764 99.756 42.788C99.764 42.8093 99.768 42.8347 99.768 42.864C99.768 42.9067 99.756 42.94 99.732 42.964C99.7107 42.988 99.6813 43 99.644 43H98.232C98.2053 42.9813 98.1853 42.9587 98.172 42.932C98.1587 42.9027 98.152 42.872 98.152 42.84C98.152 42.7973 98.16 42.76 98.176 42.728C98.192 42.6933 98.216 42.6613 98.248 42.632L98.968 41.94C99.1333 41.7853 99.2467 41.656 99.308 41.552C99.3693 41.4453 99.4 41.3347 99.4 41.22C99.4 41.0947 99.3573 40.992 99.272 40.912C99.1867 40.832 99.0573 40.792 98.884 40.792C98.7667 40.792 98.6613 40.812 98.568 40.852C98.4773 40.892 98.4013 40.9347 98.34 40.98C98.3107 40.9667 98.284 40.9467 98.26 40.92C98.2387 40.8933 98.228 40.86 98.228 40.82ZM101.156 43.052C100.97 43.052 100.804 43.0067 100.66 42.916C100.519 42.8227 100.408 42.6827 100.328 42.496C100.248 42.3067 100.208 42.0693 100.208 41.784C100.208 41.4773 100.254 41.232 100.344 41.048C100.435 40.864 100.552 40.7307 100.696 40.648C100.84 40.5627 100.994 40.52 101.156 40.52C101.322 40.52 101.476 40.5627 101.62 40.648C101.767 40.7333 101.884 40.8693 101.972 41.056C102.063 41.24 102.108 41.4827 102.108 41.784C102.108 42.0667 102.068 42.3027 101.988 42.492C101.908 42.6787 101.796 42.8187 101.652 42.912C101.511 43.0053 101.346 43.052 101.156 43.052ZM101.156 42.78C101.354 42.78 101.507 42.6947 101.616 42.524C101.726 42.3507 101.78 42.104 101.78 41.784C101.78 41.5467 101.751 41.356 101.692 41.212C101.636 41.0653 101.562 40.9587 101.468 40.892C101.375 40.8253 101.271 40.792 101.156 40.792C101.044 40.792 100.94 40.8267 100.844 40.896C100.751 40.9627 100.676 41.0693 100.62 41.216C100.564 41.3627 100.536 41.552 100.536 41.784C100.536 42.104 100.591 42.3507 100.7 42.524C100.81 42.6947 100.962 42.78 101.156 42.78ZM103.161 40.516C103.414 40.516 103.618 40.572 103.773 40.684C103.93 40.7933 104.009 40.9587 104.009 41.18C104.009 41.2867 103.986 41.3787 103.941 41.456C103.898 41.5307 103.846 41.5893 103.785 41.632C103.726 41.6747 103.673 41.7027 103.625 41.716C103.697 41.7373 103.768 41.7747 103.837 41.828C103.906 41.8787 103.964 41.9453 104.009 42.028C104.057 42.108 104.081 42.2053 104.081 42.32C104.081 42.48 104.042 42.6133 103.965 42.72C103.888 42.8267 103.781 42.908 103.645 42.964C103.509 43.0173 103.352 43.044 103.173 43.044C103.026 43.044 102.896 43.0293 102.781 43C102.669 42.968 102.581 42.928 102.517 42.88C102.453 42.832 102.421 42.7813 102.421 42.728C102.421 42.6907 102.43 42.6587 102.449 42.632C102.47 42.6053 102.497 42.5827 102.529 42.564C102.598 42.6173 102.682 42.6653 102.781 42.708C102.882 42.7507 103.013 42.772 103.173 42.772C103.349 42.772 103.492 42.7347 103.601 42.66C103.71 42.5827 103.765 42.4667 103.765 42.312C103.765 42.176 103.714 42.0667 103.613 41.984C103.512 41.9013 103.365 41.86 103.173 41.86H102.841C102.83 41.8467 102.821 41.828 102.813 41.804C102.805 41.7773 102.801 41.7507 102.801 41.724C102.801 41.6947 102.805 41.668 102.813 41.644C102.821 41.62 102.83 41.6013 102.841 41.588H103.145C103.342 41.588 103.482 41.552 103.565 41.48C103.65 41.4053 103.693 41.308 103.693 41.188C103.693 41.0573 103.645 40.9587 103.549 40.892C103.453 40.8227 103.322 40.788 103.157 40.788C103.029 40.788 102.916 40.808 102.817 40.848C102.721 40.8853 102.641 40.9267 102.577 40.972C102.55 40.9587 102.526 40.9373 102.505 40.908C102.484 40.8787 102.473 40.8467 102.473 40.812C102.473 40.764 102.504 40.7173 102.565 40.672C102.626 40.6267 102.709 40.5893 102.813 40.56C102.917 40.5307 103.033 40.516 103.161 40.516Z" fill="#A73C4C"/>
<path d="M62.978 28.82C62.978 28.772 63.0087 28.7253 63.07 28.68C63.1313 28.632 63.214 28.5933 63.318 28.564C63.422 28.5347 63.5353 28.52 63.658 28.52C63.8287 28.52 63.9753 28.5493 64.098 28.608C64.2207 28.664 64.3153 28.744 64.382 28.848C64.4487 28.952 64.482 29.0747 64.482 29.216C64.482 29.3627 64.4407 29.5067 64.358 29.648C64.278 29.7893 64.1393 29.9507 63.942 30.132L63.29 30.736H64.478C64.4887 30.7467 64.498 30.764 64.506 30.788C64.514 30.8093 64.518 30.8347 64.518 30.864C64.518 30.9067 64.506 30.94 64.482 30.964C64.4607 30.988 64.4313 31 64.394 31H62.982C62.9553 30.9813 62.9353 30.9587 62.922 30.932C62.9087 30.9027 62.902 30.872 62.902 30.84C62.902 30.7973 62.91 30.76 62.926 30.728C62.942 30.6933 62.966 30.6613 62.998 30.632L63.718 29.94C63.8833 29.7853 63.9967 29.656 64.058 29.552C64.1193 29.4453 64.15 29.3347 64.15 29.22C64.15 29.0947 64.1073 28.992 64.022 28.912C63.9367 28.832 63.8073 28.792 63.634 28.792C63.5167 28.792 63.4113 28.812 63.318 28.852C63.2273 28.892 63.1513 28.9347 63.09 28.98C63.0607 28.9667 63.034 28.9467 63.01 28.92C62.9887 28.8933 62.978 28.86 62.978 28.82ZM65.9062 31.052C65.7195 31.052 65.5542 31.0067 65.4102 30.916C65.2689 30.8227 65.1582 30.6827 65.0782 30.496C64.9982 30.3067 64.9582 30.0693 64.9582 29.784C64.9582 29.4773 65.0035 29.232 65.0942 29.048C65.1849 28.864 65.3022 28.7307 65.4462 28.648C65.5902 28.5627 65.7435 28.52 65.9062 28.52C66.0715 28.52 66.2262 28.5627 66.3702 28.648C66.5169 28.7333 66.6342 28.8693 66.7222 29.056C66.8129 29.24 66.8582 29.4827 66.8582 29.784C66.8582 30.0667 66.8182 30.3027 66.7382 30.492C66.6582 30.6787 66.5462 30.8187 66.4022 30.912C66.2609 31.0053 66.0955 31.052 65.9062 31.052ZM65.9062 30.78C66.1035 30.78 66.2569 30.6947 66.3662 30.524C66.4755 30.3507 66.5302 30.104 66.5302 29.784C66.5302 29.5467 66.5009 29.356 66.4422 29.212C66.3862 29.0653 66.3115 28.9587 66.2182 28.892C66.1249 28.8253 66.0209 28.792 65.9062 28.792C65.7942 28.792 65.6902 28.8267 65.5942 28.896C65.5009 28.9627 65.4262 29.0693 65.3702 29.216C65.3142 29.3627 65.2862 29.552 65.2862 29.784C65.2862 30.104 65.3409 30.3507 65.4502 30.524C65.5595 30.6947 65.7115 30.78 65.9062 30.78ZM68.2142 31.052C68.0329 31.052 67.8742 31.0253 67.7382 30.972C67.6022 30.916 67.4969 30.836 67.4222 30.732C67.3476 30.628 67.3102 30.5027 67.3102 30.356C67.3102 30.2253 67.3396 30.1147 67.3982 30.024C67.4596 29.9307 67.5369 29.856 67.6302 29.8C67.7236 29.744 67.8209 29.7067 67.9222 29.688L68.1622 29.648C68.3542 29.6107 68.4982 29.556 68.5942 29.484C68.6902 29.4093 68.7382 29.3107 68.7382 29.188C68.7382 29.0627 68.6916 28.9653 68.5982 28.896C68.5049 28.824 68.3769 28.788 68.2142 28.788C68.0569 28.788 67.9302 28.824 67.8342 28.896C67.7382 28.968 67.6902 29.064 67.6902 29.184C67.6902 29.2853 67.7169 29.3667 67.7702 29.428C67.8262 29.4893 67.8996 29.536 67.9902 29.568C68.0836 29.5973 68.1849 29.6173 68.2942 29.628L68.4702 29.688C68.5796 29.7093 68.6836 29.748 68.7822 29.804C68.8809 29.8573 68.9609 29.9293 69.0222 30.02C69.0836 30.1107 69.1142 30.224 69.1142 30.36C69.1142 30.504 69.0756 30.628 68.9982 30.732C68.9236 30.836 68.8182 30.916 68.6822 30.972C68.5489 31.0253 68.3929 31.052 68.2142 31.052ZM68.2142 30.784C68.3876 30.784 68.5276 30.7467 68.6342 30.672C68.7409 30.5973 68.7942 30.4893 68.7942 30.348C68.7942 30.1933 68.7289 30.0707 68.5982 29.98C68.4702 29.8893 68.2982 29.8373 68.0822 29.824L67.8782 29.764C67.7236 29.7213 67.5996 29.652 67.5062 29.556C67.4156 29.46 67.3702 29.3347 67.3702 29.18C67.3702 29.044 67.4049 28.9267 67.4742 28.828C67.5462 28.7293 67.6449 28.6533 67.7702 28.6C67.8982 28.5467 68.0462 28.52 68.2142 28.52C68.4756 28.52 68.6809 28.58 68.8302 28.7C68.9822 28.8173 69.0582 28.98 69.0582 29.188C69.0582 29.356 69.0009 29.488 68.8862 29.584C68.7742 29.68 68.6369 29.7427 68.4742 29.772L68.2022 29.828C68.0316 29.8547 67.8929 29.9133 67.7862 30.004C67.6822 30.092 67.6302 30.208 67.6302 30.352C67.6302 30.488 67.6822 30.5947 67.7862 30.672C67.8902 30.7467 68.0329 30.784 68.2142 30.784Z" fill="#A73C4C"/>
<path d="M103.688 14.878V13.3639C103.688 13.3218 103.671 13.2816 103.642 13.2519C103.612 13.2223 103.573 13.2056 103.531 13.2056H103.156C103.131 13.2054 103.106 13.1991 103.084 13.1871C103.061 13.1752 103.042 13.1579 103.028 13.1369C103.014 13.1158 103.004 13.0916 103.001 13.0662C102.998 13.0408 103.001 13.015 103.01 12.9909L103.905 10.5133C103.916 10.483 103.936 10.4567 103.962 10.438C103.988 10.4194 104.019 10.4092 104.051 10.4087H105C105.032 10.4086 105.064 10.4187 105.09 10.4377C105.117 10.4567 105.137 10.4836 105.147 10.5147L106.025 12.9923C106.033 13.0171 106.035 13.0436 106.031 13.0694C106.026 13.0952 106.016 13.1195 106 13.1401C105.984 13.1608 105.964 13.1772 105.94 13.1879C105.917 13.1986 105.891 13.2033 105.865 13.2015H105.459C105.418 13.204 105.38 13.2223 105.353 13.2525C105.325 13.2828 105.31 13.3227 105.311 13.3639V14.878" stroke="#3A3A3A" stroke-width="0.5" stroke-linecap="round"/>
<path d="M104.511 9.62695C104.953 9.62695 105.311 9.26274 105.311 8.81347C105.311 8.3642 104.953 8 104.511 8C104.069 8 103.71 8.3642 103.71 8.81347C103.71 9.26274 104.069 9.62695 104.511 9.62695Z" stroke="#3A3A3A" stroke-width="0.5" stroke-linecap="round"/>
<path d="M81.4545 31.8779V30.1042C81.4547 30.0607 81.4458 30.0175 81.4284 29.9777C81.411 29.9379 81.3854 29.9023 81.3534 29.8734L81.0499 29.5918C81.0342 29.5772 81.0216 29.5593 81.013 29.5394C81.0045 29.5196 81 29.4981 81.0001 29.4764V27.6464C81.0001 27.5641 81.0321 27.4852 81.0893 27.4269C81.1464 27.3686 81.2239 27.3356 81.3049 27.3353H83.2583C83.3797 27.3356 83.496 27.3849 83.5817 27.4722C83.6674 27.5596 83.7155 27.6779 83.7155 27.8012V29.4905C83.7151 29.5301 83.7003 29.5682 83.674 29.5974L83.3816 29.9142C83.328 29.9715 83.2982 30.0477 83.2985 30.1267V31.8779" stroke="#3A3A3A" stroke-width="0.5" stroke-linecap="round"/>
<path d="M82.3577 26.6638C82.8099 26.6638 83.1765 26.2913 83.1765 25.8318C83.1765 25.3724 82.8099 24.9999 82.3577 24.9999C81.9055 24.9999 81.5389 25.3724 81.5389 25.8318C81.5389 26.2913 81.9055 26.6638 82.3577 26.6638Z" stroke="#3A3A3A" stroke-width="0.5" stroke-linecap="round"/>
</svg>
