<svg width="109" height="91" viewBox="0 0 109 91" fill="none" xmlns="http://www.w3.org/2000/svg">
<path d="M0.312574 0.238342L31 0.129974V22.5001H77.5L77.4043 0.193802H108.822V67.0001H31V90.0001H0.312548L0.312574 0.238342Z" fill="white"/>
<path d="M30.9746 0.250061V22.627H77.4268V0.250061H108.74V66.8819H30.9746V89.8487H0.25V0.250061H30.9746Z" stroke="#A73C4C" stroke-width="0.5"/>
<path d="M-1.52588e-05 22.6301L23.8169 22.6301" stroke="#A73C4C" stroke-width="0.5"/>
<path d="M76.9999 22.63L90.3226 22.63" stroke="#A73C4C" stroke-width="0.5"/>
<path d="M86.9999 4.3869e-05V15.576" stroke="#A73C4C" stroke-width="0.5"/>
<path d="M86.9999 20.3672V22.8789" stroke="#A73C4C" stroke-width="0.5"/>
<path d="M98.9999 6.86646e-05V15.713" stroke="#A73C4C" stroke-width="0.5"/>
<path d="M98.9999 20.3672V22.8789" stroke="#A73C4C" stroke-width="0.5"/>
<path d="M94.9999 22.63L109 22.63" stroke="#A73C4C" stroke-width="0.5"/>
<path d="M28.4648 22.6301H31" stroke="#A73C4C" stroke-width="0.5"/>
<path d="M21.9999 0L21.9999 16.5" stroke="#A73C4C" stroke-width="0.5"/>
<path d="M21.9999 21V22.8579" stroke="#A73C4C" stroke-width="0.5"/>
<path d="M9.49994 1.90735e-06L9.49994 16.5" stroke="#A73C4C" stroke-width="0.5"/>
<path d="M9.49994 21V22.8579" stroke="#A73C4C" stroke-width="0.5"/>
<path d="M12.3 7.00006C12.1343 7.00006 12 7.13438 12 7.30006V14.6001C12 14.7657 12.1343 14.9001 12.3 14.9001H13.0987H19.37C19.5357 14.9001 19.67 14.7657 19.67 14.6001V8.38241V7.30006C19.67 7.13438 19.5357 7.00006 19.37 7.00006H12.3ZM13.77 14.5962V13.7847C13.77 13.7294 13.8148 13.6847 13.87 13.6847H14.65C14.8157 13.6847 14.95 13.5504 14.95 13.3847V12.5693C14.95 12.5141 14.9948 12.4693 15.05 12.4693H15.83C15.9957 12.4693 16.13 12.335 16.13 12.1693V11.3539C16.13 11.2987 16.1748 11.2539 16.23 11.2539H17.01C17.1757 11.2539 17.31 11.1196 17.31 10.9539V10.1385C17.31 10.0833 17.3548 10.0385 17.41 10.0385H18.19C18.3557 10.0385 18.49 9.90421 18.49 9.73852V8.92314C18.49 8.86791 18.5348 8.82314 18.59 8.82314H19.375V14.4961C19.375 14.5514 19.3302 14.5961 19.275 14.5961L13.77 14.5962ZM19.375 8.51929H18.495C18.3293 8.51929 18.195 8.65361 18.195 8.81929V9.63468C18.195 9.6899 18.1502 9.73468 18.095 9.73468H17.315C17.1493 9.73468 17.015 9.86899 17.015 10.0347V10.8501C17.015 10.9053 16.9702 10.9501 16.915 10.9501H16.135C15.9693 10.9501 15.835 11.0844 15.835 11.2501V12.0654C15.835 12.1207 15.7902 12.1654 15.735 12.1654H14.955C14.7893 12.1654 14.655 12.2998 14.655 12.4654V13.2808C14.655 13.3361 14.6102 13.3808 14.555 13.3808H13.775C13.6093 13.3808 13.475 13.5151 13.475 13.6808V14.5961H12.395C12.3398 14.5961 12.295 14.5514 12.295 14.4961V7.40391C12.295 7.34868 12.3398 7.30391 12.395 7.30391H19.275C19.3302 7.30391 19.375 7.34868 19.375 7.40391V8.51929Z" fill="#A73C4C"/>
<path d="M89.3 7.00006C89.1343 7.00006 89 7.13438 89 7.30006V14.6001C89 14.7657 89.1343 14.9001 89.3 14.9001H90.0987H96.37C96.5357 14.9001 96.67 14.7657 96.67 14.6001V8.38241V7.30006C96.67 7.13438 96.5357 7.00006 96.37 7.00006H89.3ZM90.77 14.5962V13.7847C90.77 13.7294 90.8148 13.6847 90.87 13.6847H91.65C91.8157 13.6847 91.95 13.5504 91.95 13.3847V12.5693C91.95 12.5141 91.9948 12.4693 92.05 12.4693H92.83C92.9957 12.4693 93.13 12.335 93.13 12.1693V11.3539C93.13 11.2987 93.1748 11.2539 93.23 11.2539H94.01C94.1757 11.2539 94.31 11.1196 94.31 10.9539V10.1385C94.31 10.0833 94.3548 10.0385 94.41 10.0385H95.19C95.3557 10.0385 95.49 9.90421 95.49 9.73852V8.92314C95.49 8.86791 95.5348 8.82314 95.59 8.82314H96.375V14.4961C96.375 14.5514 96.3302 14.5961 96.275 14.5961L90.77 14.5962ZM96.375 8.51929H95.495C95.3293 8.51929 95.195 8.65361 95.195 8.81929V9.63468C95.195 9.6899 95.1502 9.73468 95.095 9.73468H94.315C94.1493 9.73468 94.015 9.86899 94.015 10.0347V10.8501C94.015 10.9053 93.9702 10.9501 93.915 10.9501H93.135C92.9693 10.9501 92.835 11.0844 92.835 11.2501V12.0654C92.835 12.1207 92.7902 12.1654 92.735 12.1654H91.955C91.7893 12.1654 91.655 12.2998 91.655 12.4654V13.2808C91.655 13.3361 91.6102 13.3808 91.555 13.3808H90.775C90.6093 13.3808 90.475 13.5151 90.475 13.6808V14.5961H89.395C89.3398 14.5961 89.295 14.5514 89.295 14.4961V7.40391C89.295 7.34868 89.3398 7.30391 89.395 7.30391H96.275C96.3302 7.30391 96.375 7.34868 96.375 7.40391V8.51929Z" fill="#A73C4C"/>
<path d="M9.27248 48.0501C9.04248 48.0501 8.82248 48.0184 8.61248 47.9551C8.40581 47.8884 8.21581 47.7767 8.04248 47.6201C8.02248 47.5967 8.00915 47.5751 8.00248 47.5551C7.99581 47.5317 7.99248 47.5067 7.99248 47.4801C7.99248 47.4267 8.00748 47.3834 8.03748 47.3501C8.07081 47.3167 8.10915 47.2967 8.15248 47.2901C8.19915 47.2834 8.24248 47.2967 8.28248 47.3301C8.42915 47.4434 8.58415 47.5301 8.74748 47.5901C8.91081 47.6501 9.08581 47.6801 9.27248 47.6801C9.48581 47.6801 9.68581 47.6384 9.87248 47.5551C10.0625 47.4684 10.2291 47.3501 10.3725 47.2001C10.5158 47.0501 10.6275 46.8767 10.7075 46.6801C10.7908 46.4834 10.8325 46.2717 10.8325 46.0451C10.8325 45.8251 10.7908 45.6167 10.7075 45.4201C10.6275 45.2234 10.5158 45.0501 10.3725 44.9001C10.2291 44.7501 10.0625 44.6317 9.87248 44.5451C9.68581 44.4584 9.48581 44.4151 9.27248 44.4151C9.06581 44.4151 8.88581 44.4434 8.73248 44.5001C8.57915 44.5534 8.43748 44.6367 8.30748 44.7501C8.27415 44.7767 8.23915 44.7917 8.20248 44.7951C8.16915 44.7984 8.13915 44.7934 8.11248 44.7801C8.08915 44.7667 8.07248 44.7467 8.06248 44.7201C8.03581 44.7067 8.01581 44.6867 8.00248 44.6601C7.98915 44.6301 7.98415 44.6001 7.98748 44.5701C7.99415 44.5367 8.01248 44.5084 8.04248 44.4851C8.22581 44.3317 8.41581 44.2201 8.61248 44.1501C8.81248 44.0801 9.03248 44.0451 9.27248 44.0451C9.54248 44.0451 9.79581 44.0984 10.0325 44.2051C10.2691 44.3084 10.4758 44.4517 10.6525 44.6351C10.8291 44.8184 10.9658 45.0317 11.0625 45.2751C11.1625 45.5151 11.2125 45.7717 11.2125 46.0451C11.2125 46.3217 11.1625 46.5817 11.0625 46.8251C10.9625 47.0651 10.8225 47.2784 10.6425 47.4651C10.4658 47.6484 10.2591 47.7917 10.0225 47.8951C9.78915 47.9984 9.53915 48.0501 9.27248 48.0501ZM9.04248 46.2001C8.99248 46.2001 8.95081 46.1834 8.91748 46.1501C8.88415 46.1167 8.86748 46.0751 8.86748 46.0251C8.86748 45.9784 8.88415 45.9384 8.91748 45.9051C8.95081 45.8684 8.99248 45.8501 9.04248 45.8501H10.9925V46.2001H9.04248ZM15.6699 48.0001C15.6132 48.0001 15.5666 47.9834 15.5299 47.9501C15.4932 47.9134 15.4749 47.8667 15.4749 47.8101V46.3701C15.4749 46.1334 15.4132 45.9467 15.2899 45.8101C15.1666 45.6701 15.0082 45.6001 14.8149 45.6001C14.6082 45.6001 14.4382 45.6701 14.3049 45.8101C14.1749 45.9467 14.1116 46.1301 14.1149 46.3601H13.7699C13.7732 46.1367 13.8216 45.9401 13.9149 45.7701C14.0082 45.6001 14.1366 45.4684 14.2999 45.3751C14.4632 45.2817 14.6482 45.2351 14.8549 45.2351C15.0516 45.2351 15.2249 45.2817 15.3749 45.3751C15.5282 45.4684 15.6466 45.6001 15.7299 45.7701C15.8166 45.9401 15.8599 46.1401 15.8599 46.3701V47.8101C15.8599 47.8667 15.8416 47.9134 15.8049 47.9501C15.7716 47.9834 15.7266 48.0001 15.6699 48.0001ZM12.1699 48.0001C12.1099 48.0001 12.0616 47.9834 12.0249 47.9501C11.9916 47.9134 11.9749 47.8667 11.9749 47.8101V45.4601C11.9749 45.4034 11.9916 45.3567 12.0249 45.3201C12.0616 45.2834 12.1099 45.2651 12.1699 45.2651C12.2266 45.2651 12.2716 45.2834 12.3049 45.3201C12.3416 45.3567 12.3599 45.4034 12.3599 45.4601V47.8101C12.3599 47.8667 12.3416 47.9134 12.3049 47.9501C12.2716 47.9834 12.2266 48.0001 12.1699 48.0001ZM13.9249 48.0001C13.8682 48.0001 13.8216 47.9834 13.7849 47.9501C13.7482 47.9134 13.7299 47.8667 13.7299 47.8101V46.3701C13.7299 46.1334 13.6682 45.9467 13.5449 45.8101C13.4216 45.6701 13.2632 45.6001 13.0699 45.6001C12.8632 45.6001 12.6932 45.6684 12.5599 45.8051C12.4266 45.9384 12.3599 46.1134 12.3599 46.3301H12.0849C12.0916 46.1167 12.1382 45.9284 12.2249 45.7651C12.3149 45.5984 12.4366 45.4684 12.5899 45.3751C12.7432 45.2817 12.9166 45.2351 13.1099 45.2351C13.3066 45.2351 13.4799 45.2817 13.6299 45.3751C13.7832 45.4684 13.9016 45.6001 13.9849 45.7701C14.0716 45.9401 14.1149 46.1401 14.1149 46.3701V47.8101C14.1149 47.8667 14.0966 47.9134 14.0599 47.9501C14.0266 47.9834 13.9816 48.0001 13.9249 48.0001ZM17.9162 48.0251C17.6596 48.0251 17.4296 47.9651 17.2262 47.8451C17.0229 47.7217 16.8612 47.5551 16.7412 47.3451C16.6246 47.1351 16.5662 46.8984 16.5662 46.6351C16.5662 46.3684 16.6262 46.1301 16.7462 45.9201C16.8696 45.7101 17.0362 45.5451 17.2462 45.4251C17.4562 45.3017 17.6929 45.2401 17.9562 45.2401C18.2196 45.2401 18.4546 45.3017 18.6612 45.4251C18.8712 45.5451 19.0362 45.7101 19.1562 45.9201C19.2796 46.1301 19.3429 46.3684 19.3462 46.6351L19.1912 46.7551C19.1912 46.9951 19.1346 47.2117 19.0212 47.4051C18.9112 47.5951 18.7596 47.7467 18.5662 47.8601C18.3762 47.9701 18.1596 48.0251 17.9162 48.0251ZM17.9562 47.6751C18.1496 47.6751 18.3212 47.6301 18.4712 47.5401C18.6246 47.4501 18.7446 47.3267 18.8312 47.1701C18.9212 47.0101 18.9662 46.8317 18.9662 46.6351C18.9662 46.4351 18.9212 46.2567 18.8312 46.1001C18.7446 45.9434 18.6246 45.8201 18.4712 45.7301C18.3212 45.6367 18.1496 45.5901 17.9562 45.5901C17.7662 45.5901 17.5946 45.6367 17.4412 45.7301C17.2879 45.8201 17.1662 45.9434 17.0762 46.1001C16.9862 46.2567 16.9412 46.4351 16.9412 46.6351C16.9412 46.8317 16.9862 47.0101 17.0762 47.1701C17.1662 47.3267 17.2879 47.4501 17.4412 47.5401C17.5946 47.6301 17.7662 47.6751 17.9562 47.6751ZM19.1512 48.0001C19.0946 48.0001 19.0479 47.9834 19.0112 47.9501C18.9746 47.9134 18.9562 47.8667 18.9562 47.8101V46.9551L19.0512 46.5601L19.3462 46.6351V47.8101C19.3462 47.8667 19.3279 47.9134 19.2912 47.9501C19.2546 47.9834 19.2079 48.0001 19.1512 48.0001ZM21.61 48.0001C21.5534 48.0001 21.5067 47.9834 21.47 47.9501C21.4367 47.9134 21.42 47.8667 21.42 47.8101V46.8001H20.97L20.135 47.9451C20.105 47.9851 20.0617 48.0034 20.005 48.0001C19.9517 48.0001 19.9084 47.9834 19.875 47.9501C19.8384 47.9134 19.82 47.8734 19.82 47.8301C19.8234 47.7867 19.8384 47.7451 19.865 47.7051L20.66 46.6151L19.955 45.5551C19.9284 45.5117 19.915 45.4684 19.915 45.4251C19.915 45.3817 19.935 45.3417 19.975 45.3051C20.0084 45.2751 20.05 45.2617 20.1 45.2651C20.15 45.2651 20.19 45.2851 20.22 45.3251L20.965 46.4601H21.42V45.4601C21.42 45.4001 21.4367 45.3534 21.47 45.3201C21.5067 45.2834 21.5534 45.2651 21.61 45.2651C21.6667 45.2651 21.7134 45.2834 21.75 45.3201C21.7867 45.3534 21.805 45.4001 21.805 45.4601V46.4601H22.25L23 45.3251C23.03 45.2851 23.07 45.2651 23.12 45.2651C23.17 45.2617 23.2117 45.2751 23.245 45.3051C23.285 45.3417 23.305 45.3817 23.305 45.4251C23.305 45.4684 23.2917 45.5117 23.265 45.5551L22.56 46.6151L23.355 47.7051C23.3817 47.7451 23.3967 47.7867 23.4 47.8301C23.4034 47.8734 23.385 47.9134 23.345 47.9501C23.3117 47.9834 23.2667 48.0001 23.21 48.0001C23.1567 48.0034 23.1167 47.9851 23.09 47.9451L22.255 46.8001H21.805V47.8101C21.805 47.8667 21.7867 47.9134 21.75 47.9501C21.7134 47.9834 21.6667 48.0001 21.61 48.0001ZM27.8305 48.0001C27.7739 48.0001 27.7272 47.9834 27.6905 47.9501C27.6539 47.9134 27.6355 47.8651 27.6355 47.8051V45.4601C27.6355 45.4001 27.6539 45.3534 27.6905 45.3201C27.7272 45.2834 27.7739 45.2651 27.8305 45.2651C27.8872 45.2651 27.9322 45.2834 27.9655 45.3201C27.9989 45.3534 28.0155 45.4001 28.0155 45.4601V47.8051C28.0155 47.8651 27.9989 47.9134 27.9655 47.9501C27.9322 47.9834 27.8872 48.0001 27.8305 48.0001ZM25.6805 48.0001C25.6239 48.0001 25.5772 47.9834 25.5405 47.9501C25.5072 47.9134 25.4905 47.8651 25.4905 47.8051V45.4601C25.4905 45.4001 25.5072 45.3534 25.5405 45.3201C25.5772 45.2834 25.6239 45.2651 25.6805 45.2651C25.7372 45.2651 25.7822 45.2834 25.8155 45.3201C25.8522 45.3534 25.8705 45.4001 25.8705 45.4601V47.8051C25.8705 47.8651 25.8522 47.9134 25.8155 47.9501C25.7822 47.9834 25.7372 48.0001 25.6805 48.0001ZM25.8055 46.7951V46.4501H27.7705V46.7951H25.8055ZM30.1534 48.0251C29.8834 48.0251 29.6434 47.9667 29.4334 47.8501C29.2267 47.7301 29.0634 47.5651 28.9434 47.3551C28.8267 47.1451 28.7684 46.9051 28.7684 46.6351C28.7684 46.3617 28.8234 46.1217 28.9334 45.9151C29.0467 45.7051 29.2017 45.5401 29.3984 45.4201C29.595 45.3001 29.8217 45.2401 30.0784 45.2401C30.3317 45.2401 30.5517 45.2984 30.7384 45.4151C30.9284 45.5284 31.075 45.6867 31.1784 45.8901C31.2817 46.0934 31.3334 46.3251 31.3334 46.5851C31.3334 46.6384 31.3167 46.6817 31.2834 46.7151C31.25 46.7451 31.2067 46.7601 31.1534 46.7601H29.0284V46.4401H31.1934L30.9784 46.5951C30.9817 46.4017 30.9467 46.2284 30.8734 46.0751C30.8 45.9217 30.695 45.8017 30.5584 45.7151C30.425 45.6284 30.265 45.5851 30.0784 45.5851C29.8884 45.5851 29.7217 45.6301 29.5784 45.7201C29.435 45.8101 29.3234 45.9351 29.2434 46.0951C29.1667 46.2517 29.1284 46.4317 29.1284 46.6351C29.1284 46.8384 29.1717 47.0184 29.2584 47.1751C29.3484 47.3317 29.47 47.4551 29.6234 47.5451C29.7767 47.6351 29.9534 47.6801 30.1534 47.6801C30.2734 47.6801 30.3934 47.6601 30.5134 47.6201C30.6367 47.5767 30.735 47.5234 30.8084 47.4601C30.845 47.4301 30.8867 47.4151 30.9334 47.4151C30.98 47.4117 31.02 47.4234 31.0534 47.4501C31.0967 47.4901 31.1184 47.5334 31.1184 47.5801C31.1217 47.6267 31.1034 47.6667 31.0634 47.7001C30.9534 47.7934 30.8134 47.8717 30.6434 47.9351C30.4734 47.9951 30.31 48.0251 30.1534 48.0251ZM33.092 48.0251C32.8287 48.0251 32.5953 47.9667 32.392 47.8501C32.1887 47.7301 32.0287 47.5651 31.912 47.3551C31.7987 47.1451 31.742 46.9051 31.742 46.6351C31.742 46.3617 31.802 46.1201 31.922 45.9101C32.042 45.7001 32.207 45.5367 32.417 45.4201C32.627 45.3001 32.8653 45.2401 33.132 45.2401C33.402 45.2401 33.6403 45.3001 33.847 45.4201C34.057 45.5367 34.2203 45.7001 34.337 45.9101C34.457 46.1201 34.5187 46.3617 34.522 46.6351L34.297 46.7551C34.297 47.0017 34.2453 47.2217 34.142 47.4151C34.0387 47.6051 33.8953 47.7551 33.712 47.8651C33.532 47.9717 33.3253 48.0251 33.092 48.0251ZM33.142 49.0801C32.8787 49.0801 32.647 49.0301 32.447 48.9301C32.247 48.8334 32.082 48.7001 31.952 48.5301C31.9153 48.4901 31.8987 48.4467 31.902 48.4001C31.9087 48.3534 31.9337 48.3151 31.977 48.2851C32.0203 48.2551 32.0687 48.2451 32.122 48.2551C32.1753 48.2651 32.217 48.2901 32.247 48.3301C32.3437 48.4501 32.467 48.5467 32.617 48.6201C32.7703 48.6934 32.947 48.7301 33.147 48.7301C33.3337 48.7301 33.502 48.6851 33.652 48.5951C33.802 48.5051 33.9203 48.3784 34.007 48.2151C34.097 48.0517 34.142 47.8601 34.142 47.6401V46.8801L34.287 46.5901L34.522 46.6351V47.6551C34.522 47.9251 34.462 48.1667 34.342 48.3801C34.222 48.5967 34.0587 48.7667 33.852 48.8901C33.6453 49.0167 33.4087 49.0801 33.142 49.0801ZM33.132 47.6751C33.3287 47.6751 33.502 47.6317 33.652 47.5451C33.8053 47.4551 33.9253 47.3317 34.012 47.1751C34.0987 47.0184 34.142 46.8384 34.142 46.6351C34.142 46.4317 34.0987 46.2517 34.012 46.0951C33.9253 45.9351 33.8053 45.8117 33.652 45.7251C33.502 45.6351 33.3287 45.5901 33.132 45.5901C32.9353 45.5901 32.7603 45.6351 32.607 45.7251C32.4537 45.8117 32.3337 45.9351 32.247 46.0951C32.1603 46.2517 32.117 46.4317 32.117 46.6351C32.117 46.8384 32.1603 47.0184 32.247 47.1751C32.3337 47.3317 32.4537 47.4551 32.607 47.5451C32.7603 47.6317 32.9353 47.6751 33.132 47.6751ZM36.5158 48.0251C36.2491 48.0251 36.0108 47.9651 35.8008 47.8451C35.5908 47.7251 35.4258 47.5601 35.3058 47.3501C35.1858 47.1401 35.1258 46.9017 35.1258 46.6351C35.1258 46.3651 35.1858 46.1251 35.3058 45.9151C35.4258 45.7051 35.5908 45.5401 35.8008 45.4201C36.0108 45.3001 36.2491 45.2401 36.5158 45.2401C36.7825 45.2401 37.0191 45.3001 37.2258 45.4201C37.4358 45.5401 37.6008 45.7051 37.7208 45.9151C37.8408 46.1251 37.9025 46.3651 37.9058 46.6351C37.9058 46.9017 37.8441 47.1401 37.7208 47.3501C37.6008 47.5601 37.4358 47.7251 37.2258 47.8451C37.0191 47.9651 36.7825 48.0251 36.5158 48.0251ZM36.5158 47.6751C36.7091 47.6751 36.8825 47.6301 37.0358 47.5401C37.1891 47.4501 37.3091 47.3267 37.3958 47.1701C37.4825 47.0134 37.5258 46.8351 37.5258 46.6351C37.5258 46.4351 37.4825 46.2567 37.3958 46.1001C37.3091 45.9401 37.1891 45.8151 37.0358 45.7251C36.8825 45.6351 36.7091 45.5901 36.5158 45.5901C36.3225 45.5901 36.1491 45.6351 35.9958 45.7251C35.8425 45.8151 35.7208 45.9401 35.6308 46.1001C35.5441 46.2567 35.5008 46.4351 35.5008 46.6351C35.5008 46.8351 35.5441 47.0134 35.6308 47.1701C35.7208 47.3267 35.8425 47.4501 35.9958 47.5401C36.1491 47.6301 36.3225 47.6751 36.5158 47.6751ZM39.8746 48.0251C39.6113 48.0251 39.3763 47.9651 39.1696 47.8451C38.9663 47.7217 38.8046 47.5551 38.6846 47.3451C38.5679 47.1351 38.5096 46.8984 38.5096 46.6351C38.5096 46.3684 38.5663 46.1301 38.6796 45.9201C38.7929 45.7101 38.9479 45.5451 39.1446 45.4251C39.3413 45.3017 39.5679 45.2401 39.8246 45.2401C40.0279 45.2401 40.2146 45.2801 40.3846 45.3601C40.5579 45.4401 40.7096 45.5601 40.8396 45.7201C40.8763 45.7601 40.8896 45.8034 40.8796 45.8501C40.8696 45.8934 40.8413 45.9317 40.7946 45.9651C40.7579 45.9917 40.7163 46.0017 40.6696 45.9951C40.6263 45.9851 40.5879 45.9601 40.5546 45.9201C40.3613 45.7001 40.1179 45.5901 39.8246 45.5901C39.6379 45.5901 39.4729 45.6351 39.3296 45.7251C39.1896 45.8151 39.0796 45.9384 38.9996 46.0951C38.9229 46.2517 38.8846 46.4317 38.8846 46.6351C38.8846 46.8351 38.9263 47.0134 39.0096 47.1701C39.0929 47.3267 39.2096 47.4501 39.3596 47.5401C39.5096 47.6301 39.6813 47.6751 39.8746 47.6751C40.0046 47.6751 40.1229 47.6584 40.2296 47.6251C40.3396 47.5884 40.4363 47.5334 40.5196 47.4601C40.5596 47.4267 40.6013 47.4084 40.6446 47.4051C40.6879 47.4017 40.7279 47.4151 40.7646 47.4451C40.8046 47.4817 40.8263 47.5234 40.8296 47.5701C40.8363 47.6167 40.8213 47.6567 40.7846 47.6901C40.5413 47.9134 40.2379 48.0251 39.8746 48.0251ZM45.3232 48.0001C45.2666 48.0001 45.2199 47.9834 45.1832 47.9501C45.1466 47.9134 45.1282 47.8667 45.1282 47.8101V46.3701C45.1282 46.1334 45.0666 45.9467 44.9432 45.8101C44.8199 45.6701 44.6616 45.6001 44.4682 45.6001C44.2616 45.6001 44.0916 45.6701 43.9582 45.8101C43.8282 45.9467 43.7649 46.1301 43.7682 46.3601H43.4232C43.4266 46.1367 43.4749 45.9401 43.5682 45.7701C43.6616 45.6001 43.7899 45.4684 43.9532 45.3751C44.1166 45.2817 44.3016 45.2351 44.5082 45.2351C44.7049 45.2351 44.8782 45.2817 45.0282 45.3751C45.1816 45.4684 45.2999 45.6001 45.3832 45.7701C45.4699 45.9401 45.5132 46.1401 45.5132 46.3701V47.8101C45.5132 47.8667 45.4949 47.9134 45.4582 47.9501C45.4249 47.9834 45.3799 48.0001 45.3232 48.0001ZM41.8232 48.0001C41.7632 48.0001 41.7149 47.9834 41.6782 47.9501C41.6449 47.9134 41.6282 47.8667 41.6282 47.8101V45.4601C41.6282 45.4034 41.6449 45.3567 41.6782 45.3201C41.7149 45.2834 41.7632 45.2651 41.8232 45.2651C41.8799 45.2651 41.9249 45.2834 41.9582 45.3201C41.9949 45.3567 42.0132 45.4034 42.0132 45.4601V47.8101C42.0132 47.8667 41.9949 47.9134 41.9582 47.9501C41.9249 47.9834 41.8799 48.0001 41.8232 48.0001ZM43.5782 48.0001C43.5216 48.0001 43.4749 47.9834 43.4382 47.9501C43.4016 47.9134 43.3832 47.8667 43.3832 47.8101V46.3701C43.3832 46.1334 43.3216 45.9467 43.1982 45.8101C43.0749 45.6701 42.9166 45.6001 42.7232 45.6001C42.5166 45.6001 42.3466 45.6684 42.2132 45.8051C42.0799 45.9384 42.0132 46.1134 42.0132 46.3301H41.7382C41.7449 46.1167 41.7916 45.9284 41.8782 45.7651C41.9682 45.5984 42.0899 45.4684 42.2432 45.3751C42.3966 45.2817 42.5699 45.2351 42.7632 45.2351C42.9599 45.2351 43.1332 45.2817 43.2832 45.3751C43.4366 45.4684 43.5549 45.6001 43.6382 45.7701C43.7249 45.9401 43.7682 46.1401 43.7682 46.3701V47.8101C43.7682 47.8667 43.7499 47.9134 43.7132 47.9501C43.6799 47.9834 43.6349 48.0001 43.5782 48.0001ZM46.1932 49.1951C46.1199 49.1984 46.0465 49.1884 45.9732 49.1651C45.9032 49.1451 45.8332 49.1151 45.7632 49.0751C45.7099 49.0417 45.6765 48.9984 45.6632 48.9451C45.6465 48.8951 45.6565 48.8467 45.6932 48.8001C45.7265 48.7567 45.7665 48.7334 45.8132 48.7301C45.8632 48.7301 45.9149 48.7434 45.9682 48.7701C46.0049 48.7934 46.0415 48.8101 46.0782 48.8201C46.1149 48.8301 46.1565 48.8351 46.2032 48.8351C46.3132 48.8317 46.4182 48.7801 46.5182 48.6801C46.6215 48.5801 46.7149 48.4351 46.7982 48.2451L48.0432 45.3701C48.0632 45.3201 48.0965 45.2867 48.1432 45.2701C48.1932 45.2501 48.2432 45.2517 48.2932 45.2751C48.3399 45.2951 48.3699 45.3284 48.3832 45.3751C48.3999 45.4217 48.3965 45.4717 48.3732 45.5251L47.1232 48.3951C47.0165 48.6351 46.8815 48.8284 46.7182 48.9751C46.5582 49.1217 46.3832 49.1951 46.1932 49.1951ZM47.2382 47.9151C47.1882 47.9384 47.1415 47.9434 47.0982 47.9301C47.0549 47.9134 47.0199 47.8801 46.9932 47.8301L45.8782 45.5201C45.8549 45.4701 45.8515 45.4234 45.8682 45.3801C45.8849 45.3367 45.9182 45.3034 45.9682 45.2801C46.0182 45.2567 46.0649 45.2534 46.1082 45.2701C46.1515 45.2834 46.1849 45.3151 46.2082 45.3651L47.3082 47.6651C47.3315 47.7151 47.3382 47.7634 47.3282 47.8101C47.3182 47.8567 47.2882 47.8917 47.2382 47.9151ZM51.356 48.0001C51.2994 48.0001 51.2527 47.9817 51.216 47.9451C51.1794 47.9084 51.161 47.8634 51.161 47.8101V46.5101C51.161 46.3034 51.121 46.1334 51.041 46.0001C50.9644 45.8667 50.8577 45.7667 50.721 45.7001C50.5877 45.6334 50.436 45.6001 50.266 45.6001C50.1027 45.6001 49.9544 45.6317 49.821 45.6951C49.691 45.7584 49.5877 45.8451 49.511 45.9551C49.4344 46.0651 49.396 46.1901 49.396 46.3301H49.121C49.1277 46.1201 49.1844 45.9334 49.291 45.7701C49.3977 45.6034 49.5394 45.4734 49.716 45.3801C49.8927 45.2834 50.0894 45.2351 50.306 45.2351C50.5427 45.2351 50.7544 45.2851 50.941 45.3851C51.1277 45.4817 51.2744 45.6251 51.381 45.8151C51.491 46.0051 51.546 46.2367 51.546 46.5101V47.8101C51.546 47.8634 51.5277 47.9084 51.491 47.9451C51.4544 47.9817 51.4094 48.0001 51.356 48.0001ZM49.206 48.0001C49.146 48.0001 49.0977 47.9834 49.061 47.9501C49.0277 47.9134 49.011 47.8667 49.011 47.8101V45.4601C49.011 45.4001 49.0277 45.3534 49.061 45.3201C49.0977 45.2834 49.146 45.2651 49.206 45.2651C49.2627 45.2651 49.3077 45.2834 49.341 45.3201C49.3777 45.3534 49.396 45.4001 49.396 45.4601V47.8101C49.396 47.8667 49.3777 47.9134 49.341 47.9501C49.3077 47.9834 49.2627 48.0001 49.206 48.0001ZM53.6348 48.0251C53.3648 48.0251 53.1248 47.9667 52.9148 47.8501C52.7082 47.7301 52.5448 47.5651 52.4248 47.3551C52.3082 47.1451 52.2498 46.9051 52.2498 46.6351C52.2498 46.3617 52.3048 46.1217 52.4148 45.9151C52.5282 45.7051 52.6832 45.5401 52.8798 45.4201C53.0765 45.3001 53.3032 45.2401 53.5598 45.2401C53.8132 45.2401 54.0332 45.2984 54.2198 45.4151C54.4098 45.5284 54.5565 45.6867 54.6598 45.8901C54.7632 46.0934 54.8148 46.3251 54.8148 46.5851C54.8148 46.6384 54.7982 46.6817 54.7648 46.7151C54.7315 46.7451 54.6882 46.7601 54.6348 46.7601H52.5098V46.4401H54.6748L54.4598 46.5951C54.4632 46.4017 54.4282 46.2284 54.3548 46.0751C54.2815 45.9217 54.1765 45.8017 54.0398 45.7151C53.9065 45.6284 53.7465 45.5851 53.5598 45.5851C53.3698 45.5851 53.2032 45.6301 53.0598 45.7201C52.9165 45.8101 52.8048 45.9351 52.7248 46.0951C52.6482 46.2517 52.6098 46.4317 52.6098 46.6351C52.6098 46.8384 52.6532 47.0184 52.7398 47.1751C52.8298 47.3317 52.9515 47.4551 53.1048 47.5451C53.2582 47.6351 53.4348 47.6801 53.6348 47.6801C53.7548 47.6801 53.8748 47.6601 53.9948 47.6201C54.1182 47.5767 54.2165 47.5234 54.2898 47.4601C54.3265 47.4301 54.3682 47.4151 54.4148 47.4151C54.4615 47.4117 54.5015 47.4234 54.5348 47.4501C54.5782 47.4901 54.5998 47.5334 54.5998 47.5801C54.6032 47.6267 54.5848 47.6667 54.5448 47.7001C54.4348 47.7934 54.2948 47.8717 54.1248 47.9351C53.9548 47.9951 53.7915 48.0251 53.6348 48.0251ZM57.8061 48.0001C57.7494 48.0001 57.7028 47.9834 57.6661 47.9501C57.6294 47.9134 57.6111 47.8651 57.6111 47.8051V45.4601C57.6111 45.4001 57.6294 45.3534 57.6661 45.3201C57.7028 45.2834 57.7494 45.2651 57.8061 45.2651C57.8628 45.2651 57.9078 45.2834 57.9411 45.3201C57.9744 45.3534 57.9911 45.4001 57.9911 45.4601V47.8051C57.9911 47.8651 57.9744 47.9134 57.9411 47.9501C57.9078 47.9834 57.8628 48.0001 57.8061 48.0001ZM55.6561 48.0001C55.5994 48.0001 55.5528 47.9834 55.5161 47.9501C55.4828 47.9134 55.4661 47.8651 55.4661 47.8051V45.4601C55.4661 45.4001 55.4828 45.3534 55.5161 45.3201C55.5528 45.2834 55.5994 45.2651 55.6561 45.2651C55.7128 45.2651 55.7578 45.2834 55.7911 45.3201C55.8278 45.3534 55.8461 45.4001 55.8461 45.4601V47.8051C55.8461 47.8651 55.8278 47.9134 55.7911 47.9501C55.7578 47.9834 55.7128 48.0001 55.6561 48.0001ZM55.7811 46.7951V46.4501H57.7461V46.7951H55.7811ZM61.5588 48.0251C61.2955 48.0251 61.0621 47.9667 60.8588 47.8501C60.6555 47.7301 60.4955 47.5651 60.3788 47.3551C60.2655 47.1451 60.2088 46.9051 60.2088 46.6351C60.2088 46.3617 60.2688 46.1201 60.3888 45.9101C60.5088 45.7001 60.6738 45.5367 60.8838 45.4201C61.0938 45.3001 61.3321 45.2401 61.5988 45.2401C61.8688 45.2401 62.1071 45.3001 62.3138 45.4201C62.5238 45.5367 62.6871 45.7001 62.8038 45.9101C62.9238 46.1201 62.9855 46.3617 62.9888 46.6351L62.7638 46.7551C62.7638 47.0017 62.7121 47.2217 62.6088 47.4151C62.5055 47.6051 62.3621 47.7551 62.1788 47.8651C61.9988 47.9717 61.7921 48.0251 61.5588 48.0251ZM61.6088 49.0801C61.3455 49.0801 61.1138 49.0301 60.9138 48.9301C60.7138 48.8334 60.5488 48.7001 60.4188 48.5301C60.3821 48.4901 60.3655 48.4467 60.3688 48.4001C60.3755 48.3534 60.4005 48.3151 60.4438 48.2851C60.4871 48.2551 60.5355 48.2451 60.5888 48.2551C60.6421 48.2651 60.6838 48.2901 60.7138 48.3301C60.8105 48.4501 60.9338 48.5467 61.0838 48.6201C61.2371 48.6934 61.4138 48.7301 61.6138 48.7301C61.8005 48.7301 61.9688 48.6851 62.1188 48.5951C62.2688 48.5051 62.3871 48.3784 62.4738 48.2151C62.5638 48.0517 62.6088 47.8601 62.6088 47.6401V46.8801L62.7538 46.5901L62.9888 46.6351V47.6551C62.9888 47.9251 62.9288 48.1667 62.8088 48.3801C62.6888 48.5967 62.5255 48.7667 62.3188 48.8901C62.1121 49.0167 61.8755 49.0801 61.6088 49.0801ZM61.5988 47.6751C61.7955 47.6751 61.9688 47.6317 62.1188 47.5451C62.2721 47.4551 62.3921 47.3317 62.4788 47.1751C62.5655 47.0184 62.6088 46.8384 62.6088 46.6351C62.6088 46.4317 62.5655 46.2517 62.4788 46.0951C62.3921 45.9351 62.2721 45.8117 62.1188 45.7251C61.9688 45.6351 61.7955 45.5901 61.5988 45.5901C61.4021 45.5901 61.2271 45.6351 61.0738 45.7251C60.9205 45.8117 60.8005 45.9351 60.7138 46.0951C60.6271 46.2517 60.5838 46.4317 60.5838 46.6351C60.5838 46.8384 60.6271 47.0184 60.7138 47.1751C60.8005 47.3317 60.9205 47.4551 61.0738 47.5451C61.2271 47.6317 61.4021 47.6751 61.5988 47.6751ZM64.7576 45.2651C64.7976 45.2651 64.8343 45.2751 64.8676 45.2951C64.9009 45.3151 64.9276 45.3484 64.9476 45.3951L66.0326 47.7551C66.0559 47.8017 66.0576 47.8467 66.0376 47.8901C66.0209 47.9301 65.9893 47.9617 65.9426 47.9851C65.8893 48.0084 65.8409 48.0134 65.7976 48.0001C65.7543 47.9834 65.7193 47.9501 65.6926 47.9001L64.6576 45.5951H64.8826L63.8276 47.8951C63.8043 47.9451 63.7676 47.9784 63.7176 47.9951C63.6709 48.0084 63.6226 48.0034 63.5726 47.9801C63.5259 47.9567 63.4926 47.9251 63.4726 47.8851C63.4559 47.8417 63.4576 47.7967 63.4776 47.7501L64.5776 45.3951C64.6176 45.3084 64.6776 45.2651 64.7576 45.2651ZM68.4821 48.0001C68.4287 48.0001 68.3837 47.9834 68.3471 47.9501C68.3137 47.9134 68.2971 47.8651 68.2971 47.8051V47.0551H67.4971V47.0051C67.3271 47.0051 67.1754 46.9701 67.0421 46.9001C66.9087 46.8267 66.8054 46.7267 66.7321 46.6001C66.6587 46.4734 66.6221 46.3267 66.6221 46.1601C66.6221 45.9867 66.6621 45.8334 66.7421 45.7001C66.8254 45.5634 66.9404 45.4567 67.0871 45.3801C67.2337 45.3034 67.4021 45.2651 67.5921 45.2651H68.4821C68.5421 45.2651 68.5887 45.2834 68.6221 45.3201C68.6587 45.3534 68.6771 45.4001 68.6771 45.4601V47.8101C68.6737 47.8667 68.6537 47.9134 68.6171 47.9501C68.5837 47.9834 68.5387 48.0001 68.4821 48.0001ZM66.6121 47.9501C66.5721 47.9134 66.5521 47.8734 66.5521 47.8301C66.5554 47.7867 66.5721 47.7451 66.6021 47.7051L67.3021 46.8151L67.7971 46.8251L66.8971 47.9301C66.8571 47.9801 66.8071 48.0034 66.7471 48.0001C66.6904 48.0001 66.6454 47.9834 66.6121 47.9501ZM67.5921 46.7251H68.2971V45.6201H67.5921C67.4221 45.6201 67.2804 45.6701 67.1671 45.7701C67.0537 45.8667 66.9971 45.9967 66.9971 46.1601C66.9971 46.3367 67.0537 46.4751 67.1671 46.5751C67.2804 46.6751 67.4221 46.7251 67.5921 46.7251ZM72.2623 48.0251C71.999 48.0251 71.764 47.9651 71.5573 47.8451C71.354 47.7217 71.1923 47.5551 71.0723 47.3451C70.9556 47.1351 70.8973 46.8984 70.8973 46.6351C70.8973 46.3684 70.954 46.1301 71.0673 45.9201C71.1806 45.7101 71.3356 45.5451 71.5323 45.4251C71.729 45.3017 71.9556 45.2401 72.2123 45.2401C72.4156 45.2401 72.6023 45.2801 72.7723 45.3601C72.9456 45.4401 73.0973 45.5601 73.2273 45.7201C73.264 45.7601 73.2773 45.8034 73.2673 45.8501C73.2573 45.8934 73.229 45.9317 73.1823 45.9651C73.1456 45.9917 73.104 46.0017 73.0573 45.9951C73.014 45.9851 72.9756 45.9601 72.9423 45.9201C72.749 45.7001 72.5056 45.5901 72.2123 45.5901C72.0256 45.5901 71.8606 45.6351 71.7173 45.7251C71.5773 45.8151 71.4673 45.9384 71.3873 46.0951C71.3106 46.2517 71.2723 46.4317 71.2723 46.6351C71.2723 46.8351 71.314 47.0134 71.3973 47.1701C71.4806 47.3267 71.5973 47.4501 71.7473 47.5401C71.8973 47.6301 72.069 47.6751 72.2623 47.6751C72.3923 47.6751 72.5106 47.6584 72.6173 47.6251C72.7273 47.5884 72.824 47.5334 72.9073 47.4601C72.9473 47.4267 72.989 47.4084 73.0323 47.4051C73.0756 47.4017 73.1156 47.4151 73.1523 47.4451C73.1923 47.4817 73.214 47.5234 73.2173 47.5701C73.224 47.6167 73.209 47.6567 73.1723 47.6901C72.929 47.9134 72.6256 48.0251 72.2623 48.0251ZM77.7109 48.0001C77.6543 48.0001 77.6076 47.9834 77.5709 47.9501C77.5343 47.9134 77.5159 47.8667 77.5159 47.8101V46.3701C77.5159 46.1334 77.4543 45.9467 77.3309 45.8101C77.2076 45.6701 77.0493 45.6001 76.8559 45.6001C76.6493 45.6001 76.4793 45.6701 76.3459 45.8101C76.2159 45.9467 76.1526 46.1301 76.1559 46.3601H75.8109C75.8143 46.1367 75.8626 45.9401 75.9559 45.7701C76.0493 45.6001 76.1776 45.4684 76.3409 45.3751C76.5043 45.2817 76.6893 45.2351 76.8959 45.2351C77.0926 45.2351 77.2659 45.2817 77.4159 45.3751C77.5693 45.4684 77.6876 45.6001 77.7709 45.7701C77.8576 45.9401 77.9009 46.1401 77.9009 46.3701V47.8101C77.9009 47.8667 77.8826 47.9134 77.8459 47.9501C77.8126 47.9834 77.7676 48.0001 77.7109 48.0001ZM74.2109 48.0001C74.1509 48.0001 74.1026 47.9834 74.0659 47.9501C74.0326 47.9134 74.0159 47.8667 74.0159 47.8101V45.4601C74.0159 45.4034 74.0326 45.3567 74.0659 45.3201C74.1026 45.2834 74.1509 45.2651 74.2109 45.2651C74.2676 45.2651 74.3126 45.2834 74.3459 45.3201C74.3826 45.3567 74.4009 45.4034 74.4009 45.4601V47.8101C74.4009 47.8667 74.3826 47.9134 74.3459 47.9501C74.3126 47.9834 74.2676 48.0001 74.2109 48.0001ZM75.9659 48.0001C75.9093 48.0001 75.8626 47.9834 75.8259 47.9501C75.7893 47.9134 75.7709 47.8667 75.7709 47.8101V46.3701C75.7709 46.1334 75.7093 45.9467 75.5859 45.8101C75.4626 45.6701 75.3043 45.6001 75.1109 45.6001C74.9043 45.6001 74.7343 45.6684 74.6009 45.8051C74.4676 45.9384 74.4009 46.1134 74.4009 46.3301H74.1259C74.1326 46.1167 74.1793 45.9284 74.2659 45.7651C74.3559 45.5984 74.4776 45.4684 74.6309 45.3751C74.7843 45.2817 74.9576 45.2351 75.1509 45.2351C75.3476 45.2351 75.5209 45.2817 75.6709 45.3751C75.8243 45.4684 75.9426 45.6001 76.0259 45.7701C76.1126 45.9401 76.1559 46.1401 76.1559 46.3701V47.8101C76.1559 47.8667 76.1376 47.9134 76.1009 47.9501C76.0676 47.9834 76.0226 48.0001 75.9659 48.0001ZM78.5809 49.1951C78.5075 49.1984 78.4342 49.1884 78.3609 49.1651C78.2909 49.1451 78.2209 49.1151 78.1509 49.0751C78.0975 49.0417 78.0642 48.9984 78.0509 48.9451C78.0342 48.8951 78.0442 48.8467 78.0809 48.8001C78.1142 48.7567 78.1542 48.7334 78.2009 48.7301C78.2509 48.7301 78.3025 48.7434 78.3559 48.7701C78.3925 48.7934 78.4292 48.8101 78.4659 48.8201C78.5025 48.8301 78.5442 48.8351 78.5909 48.8351C78.7009 48.8317 78.8059 48.7801 78.9059 48.6801C79.0092 48.5801 79.1025 48.4351 79.1859 48.2451L80.4309 45.3701C80.4509 45.3201 80.4842 45.2867 80.5309 45.2701C80.5809 45.2501 80.6309 45.2517 80.6809 45.2751C80.7275 45.2951 80.7575 45.3284 80.7709 45.3751C80.7875 45.4217 80.7842 45.4717 80.7609 45.5251L79.5109 48.3951C79.4042 48.6351 79.2692 48.8284 79.1059 48.9751C78.9459 49.1217 78.7709 49.1951 78.5809 49.1951ZM79.6259 47.9151C79.5759 47.9384 79.5292 47.9434 79.4859 47.9301C79.4425 47.9134 79.4075 47.8801 79.3809 47.8301L78.2659 45.5201C78.2425 45.4701 78.2392 45.4234 78.2559 45.3801C78.2725 45.3367 78.3059 45.3034 78.3559 45.2801C78.4059 45.2567 78.4525 45.2534 78.4959 45.2701C78.5392 45.2834 78.5725 45.3151 78.5959 45.3651L79.6959 47.6651C79.7192 47.7151 79.7259 47.7634 79.7159 47.8101C79.7059 47.8567 79.6759 47.8917 79.6259 47.9151ZM82.5061 48.0251C82.2427 48.0251 82.0094 47.9667 81.8061 47.8501C81.6027 47.7301 81.4427 47.5651 81.3261 47.3551C81.2127 47.1451 81.1561 46.9051 81.1561 46.6351C81.1561 46.3617 81.2161 46.1201 81.3361 45.9101C81.4561 45.7001 81.6211 45.5367 81.8311 45.4201C82.0411 45.3001 82.2794 45.2401 82.5461 45.2401C82.8161 45.2401 83.0544 45.3001 83.2611 45.4201C83.4711 45.5367 83.6344 45.7001 83.7511 45.9101C83.8711 46.1201 83.9327 46.3617 83.9361 46.6351L83.7111 46.7551C83.7111 47.0017 83.6594 47.2217 83.5561 47.4151C83.4527 47.6051 83.3094 47.7551 83.1261 47.8651C82.9461 47.9717 82.7394 48.0251 82.5061 48.0251ZM82.5561 49.0801C82.2927 49.0801 82.0611 49.0301 81.8611 48.9301C81.6611 48.8334 81.4961 48.7001 81.3661 48.5301C81.3294 48.4901 81.3127 48.4467 81.3161 48.4001C81.3227 48.3534 81.3477 48.3151 81.3911 48.2851C81.4344 48.2551 81.4827 48.2451 81.5361 48.2551C81.5894 48.2651 81.6311 48.2901 81.6611 48.3301C81.7577 48.4501 81.8811 48.5467 82.0311 48.6201C82.1844 48.6934 82.3611 48.7301 82.5611 48.7301C82.7477 48.7301 82.9161 48.6851 83.0661 48.5951C83.2161 48.5051 83.3344 48.3784 83.4211 48.2151C83.5111 48.0517 83.5561 47.8601 83.5561 47.6401V46.8801L83.7011 46.5901L83.9361 46.6351V47.6551C83.9361 47.9251 83.8761 48.1667 83.7561 48.3801C83.6361 48.5967 83.4727 48.7667 83.2661 48.8901C83.0594 49.0167 82.8227 49.0801 82.5561 49.0801ZM82.5461 47.6751C82.7427 47.6751 82.9161 47.6317 83.0661 47.5451C83.2194 47.4551 83.3394 47.3317 83.4261 47.1751C83.5127 47.0184 83.5561 46.8384 83.5561 46.6351C83.5561 46.4317 83.5127 46.2517 83.4261 46.0951C83.3394 45.9351 83.2194 45.8117 83.0661 45.7251C82.9161 45.6351 82.7427 45.5901 82.5461 45.5901C82.3494 45.5901 82.1744 45.6351 82.0211 45.7251C81.8677 45.8117 81.7477 45.9351 81.6611 46.0951C81.5744 46.2517 81.5311 46.4317 81.5311 46.6351C81.5311 46.8384 81.5744 47.0184 81.6611 47.1751C81.7477 47.3317 81.8677 47.4551 82.0211 47.5451C82.1744 47.6317 82.3494 47.6751 82.5461 47.6751ZM85.9249 48.0251C85.6549 48.0251 85.4149 47.9667 85.2049 47.8501C84.9982 47.7301 84.8349 47.5651 84.7149 47.3551C84.5982 47.1451 84.5399 46.9051 84.5399 46.6351C84.5399 46.3617 84.5949 46.1217 84.7049 45.9151C84.8182 45.7051 84.9732 45.5401 85.1699 45.4201C85.3665 45.3001 85.5932 45.2401 85.8499 45.2401C86.1032 45.2401 86.3232 45.2984 86.5099 45.4151C86.6999 45.5284 86.8465 45.6867 86.9499 45.8901C87.0532 46.0934 87.1049 46.3251 87.1049 46.5851C87.1049 46.6384 87.0882 46.6817 87.0549 46.7151C87.0215 46.7451 86.9782 46.7601 86.9249 46.7601H84.7999V46.4401H86.9649L86.7499 46.5951C86.7532 46.4017 86.7182 46.2284 86.6449 46.0751C86.5715 45.9217 86.4665 45.8017 86.3299 45.7151C86.1965 45.6284 86.0365 45.5851 85.8499 45.5851C85.6599 45.5851 85.4932 45.6301 85.3499 45.7201C85.2065 45.8101 85.0949 45.9351 85.0149 46.0951C84.9382 46.2517 84.8999 46.4317 84.8999 46.6351C84.8999 46.8384 84.9432 47.0184 85.0299 47.1751C85.1199 47.3317 85.2415 47.4551 85.3949 47.5451C85.5482 47.6351 85.7249 47.6801 85.9249 47.6801C86.0449 47.6801 86.1649 47.6601 86.2849 47.6201C86.4082 47.5767 86.5065 47.5234 86.5799 47.4601C86.6165 47.4301 86.6582 47.4151 86.7049 47.4151C86.7515 47.4117 86.7915 47.4234 86.8249 47.4501C86.8682 47.4901 86.8899 47.5334 86.8899 47.5801C86.8932 47.6267 86.8749 47.6667 86.8349 47.7001C86.7249 47.7934 86.5849 47.8717 86.4149 47.9351C86.2449 47.9951 86.0815 48.0251 85.9249 48.0251ZM90.0962 48.0001C90.0395 48.0001 89.9928 47.9834 89.9562 47.9501C89.9195 47.9134 89.9012 47.8651 89.9012 47.8051V45.4601C89.9012 45.4001 89.9195 45.3534 89.9562 45.3201C89.9928 45.2834 90.0395 45.2651 90.0962 45.2651C90.1528 45.2651 90.1978 45.2834 90.2312 45.3201C90.2645 45.3534 90.2812 45.4001 90.2812 45.4601V47.8051C90.2812 47.8651 90.2645 47.9134 90.2312 47.9501C90.1978 47.9834 90.1528 48.0001 90.0962 48.0001ZM87.9462 48.0001C87.8895 48.0001 87.8428 47.9834 87.8062 47.9501C87.7728 47.9134 87.7562 47.8651 87.7562 47.8051V45.4601C87.7562 45.4001 87.7728 45.3534 87.8062 45.3201C87.8428 45.2834 87.8895 45.2651 87.9462 45.2651C88.0028 45.2651 88.0478 45.2834 88.0812 45.3201C88.1178 45.3534 88.1362 45.4001 88.1362 45.4601V47.8051C88.1362 47.8651 88.1178 47.9134 88.0812 47.9501C88.0478 47.9834 88.0028 48.0001 87.9462 48.0001ZM88.0712 46.7951V46.4501H90.0362V46.7951H88.0712ZM94.874 48.0001C94.8173 48.0001 94.7707 47.9834 94.734 47.9501C94.6973 47.9134 94.679 47.8667 94.679 47.8101V46.3701C94.679 46.1334 94.6173 45.9467 94.494 45.8101C94.3707 45.6701 94.2123 45.6001 94.019 45.6001C93.8123 45.6001 93.6423 45.6701 93.509 45.8101C93.379 45.9467 93.3157 46.1301 93.319 46.3601H92.974C92.9773 46.1367 93.0257 45.9401 93.119 45.7701C93.2123 45.6001 93.3407 45.4684 93.504 45.3751C93.6673 45.2817 93.8523 45.2351 94.059 45.2351C94.2557 45.2351 94.429 45.2817 94.579 45.3751C94.7323 45.4684 94.8507 45.6001 94.934 45.7701C95.0207 45.9401 95.064 46.1401 95.064 46.3701V47.8101C95.064 47.8667 95.0457 47.9134 95.009 47.9501C94.9757 47.9834 94.9307 48.0001 94.874 48.0001ZM91.374 48.0001C91.314 48.0001 91.2657 47.9834 91.229 47.9501C91.1957 47.9134 91.179 47.8667 91.179 47.8101V45.4601C91.179 45.4034 91.1957 45.3567 91.229 45.3201C91.2657 45.2834 91.314 45.2651 91.374 45.2651C91.4307 45.2651 91.4757 45.2834 91.509 45.3201C91.5457 45.3567 91.564 45.4034 91.564 45.4601V47.8101C91.564 47.8667 91.5457 47.9134 91.509 47.9501C91.4757 47.9834 91.4307 48.0001 91.374 48.0001ZM93.129 48.0001C93.0723 48.0001 93.0257 47.9834 92.989 47.9501C92.9523 47.9134 92.934 47.8667 92.934 47.8101V46.3701C92.934 46.1334 92.8723 45.9467 92.749 45.8101C92.6257 45.6701 92.4673 45.6001 92.274 45.6001C92.0673 45.6001 91.8973 45.6684 91.764 45.8051C91.6307 45.9384 91.564 46.1134 91.564 46.3301H91.289C91.2957 46.1167 91.3423 45.9284 91.429 45.7651C91.519 45.5984 91.6407 45.4684 91.794 45.3751C91.9473 45.2817 92.1207 45.2351 92.314 45.2351C92.5107 45.2351 92.684 45.2817 92.834 45.3751C92.9873 45.4684 93.1057 45.6001 93.189 45.7701C93.2757 45.9401 93.319 46.1401 93.319 46.3701V47.8101C93.319 47.8667 93.3007 47.9134 93.264 47.9501C93.2307 47.9834 93.1857 48.0001 93.129 48.0001ZM97.1603 48.0251C96.8937 48.0251 96.6553 47.9651 96.4453 47.8451C96.2353 47.7251 96.0703 47.5601 95.9503 47.3501C95.8303 47.1401 95.7703 46.9017 95.7703 46.6351C95.7703 46.3651 95.8303 46.1251 95.9503 45.9151C96.0703 45.7051 96.2353 45.5401 96.4453 45.4201C96.6553 45.3001 96.8937 45.2401 97.1603 45.2401C97.427 45.2401 97.6637 45.3001 97.8703 45.4201C98.0803 45.5401 98.2453 45.7051 98.3653 45.9151C98.4853 46.1251 98.547 46.3651 98.5503 46.6351C98.5503 46.9017 98.4887 47.1401 98.3653 47.3501C98.2453 47.5601 98.0803 47.7251 97.8703 47.8451C97.6637 47.9651 97.427 48.0251 97.1603 48.0251ZM97.1603 47.6751C97.3537 47.6751 97.527 47.6301 97.6803 47.5401C97.8337 47.4501 97.9537 47.3267 98.0403 47.1701C98.127 47.0134 98.1703 46.8351 98.1703 46.6351C98.1703 46.4351 98.127 46.2567 98.0403 46.1001C97.9537 45.9401 97.8337 45.8151 97.6803 45.7251C97.527 45.6351 97.3537 45.5901 97.1603 45.5901C96.967 45.5901 96.7937 45.6351 96.6403 45.7251C96.487 45.8151 96.3653 45.9401 96.2753 46.1001C96.1887 46.2567 96.1453 46.4351 96.1453 46.6351C96.1453 46.8351 96.1887 47.0134 96.2753 47.1701C96.3653 47.3267 96.487 47.4501 96.6403 47.5401C96.7937 47.6301 96.967 47.6751 97.1603 47.6751ZM99.4941 48.0001C99.4341 48.0001 99.3858 47.9834 99.3491 47.9501C99.3158 47.9134 99.2991 47.8651 99.2991 47.8051V45.4551C99.3025 45.3984 99.3208 45.3534 99.3541 45.3201C99.3908 45.2834 99.4375 45.2651 99.4941 45.2651C99.5508 45.2651 99.5958 45.2834 99.6291 45.3201C99.6658 45.3534 99.6841 45.4001 99.6841 45.4601V46.4101H100.739V46.4801C100.912 46.4801 101.066 46.5117 101.199 46.5751C101.336 46.6384 101.441 46.7267 101.514 46.8401C101.591 46.9501 101.629 47.0767 101.629 47.2201C101.629 47.3734 101.591 47.5084 101.514 47.6251C101.441 47.7417 101.336 47.8334 101.199 47.9001C101.066 47.9667 100.912 48.0001 100.739 48.0001H99.4941ZM99.6841 47.6451H100.739C100.889 47.6451 101.012 47.6067 101.109 47.5301C101.206 47.4534 101.254 47.3434 101.254 47.2001C101.254 47.0501 101.206 46.9367 101.109 46.8601C101.012 46.7801 100.889 46.7401 100.739 46.7401H99.6841V47.6451ZM100.244 46.6251V46.4101H100.739C100.856 46.4101 100.951 46.3717 101.024 46.2951C101.097 46.2184 101.134 46.1201 101.134 46.0001C101.134 45.8934 101.094 45.8034 101.014 45.7301C100.937 45.6534 100.839 45.6151 100.719 45.6151H99.4991V45.2651H100.719C100.872 45.2651 101.007 45.2967 101.124 45.3601C101.244 45.4201 101.337 45.5034 101.404 45.6101C101.474 45.7167 101.509 45.8401 101.509 45.9801C101.509 46.1967 101.436 46.3584 101.289 46.4651C101.146 46.5717 100.962 46.6251 100.739 46.6251H100.244Z" fill="#A73C4C"/>
</svg>
