<svg width="225" height="385" viewBox="0 0 225 385" fill="none" xmlns="http://www.w3.org/2000/svg">
<path d="M0.25 0.25H224.035V40.0613H185.75V360.573H165.25V383.975H150.75V246.75H133.038V185.564H150.75V39.4641H122.051V43.5295H96.75V37.25H0.25V0.25Z" fill="white"/>
<path d="M0.25 15.75V0.25H224.043L224.043 28.75M0.25 15.75H15.496M0.25 15.75V21.75M21.75 37.3105V21.75M45.25 15.75H42.75M40.25 15.75H42.75M43.25 21.75H31.75M47.25 21.75H48.75V37.3105M55.75 21.75H54.25V37.3105M73.25 15.75H74.25M66.75 21.75H61.25M105.75 16.25H106.75V0.25M185.717 40.0557H168.25V47.75M163.75 39.3694H150.814M163.75 47.25H150.814M163.75 89.25H150.814M163.75 97.75H150.814M163.75 156.966H150.814M163.75 165.75H150.814M150.814 185.552H164.368H185.717M185.717 93.75H168.25M185.717 160.75H168.25M24.75 15.75H21.25M32.25 37.3105V21.75M32.25 15.75V0.25M55.75 15.75H50.25M42.75 15.75V0.25M53.75 15.75V0.25M74.25 16.9375V0.25M63.75 15.8105V0.25M96.7478 21.75V16.25H101.75M122.07 0.25V26.25V39.3694M168.25 98.0628V89.0719M168.25 166.069V156.75M160.186 360.56H150.814M166.75 323.5V313.75M74.25 37.3105V20.4955M74.25 21.75H72.25M64.25 37.3105V21.75M66.75 15.75H61.25M34.75 15.75H28.75M13.75 20.75V21.75M163.25 360.56H165.186M13.75 15.75V16.75" stroke="#A73C4C" stroke-width="0.5"/>
<path d="M25.25 21.75L20.75 21.75" stroke="#A73C4C" stroke-width="0.5"/>
<path d="M18.25 21.75H0.25" stroke="#A73C4C" stroke-width="0.5"/>
<path d="M96.7478 5.75L96.7478 16.25H74.0026" stroke="#A73C4C" stroke-width="0.5"/>
<path d="M96.7478 2.25V0.25" stroke="#A73C4C" stroke-width="0.5"/>
<path d="M96.7478 21.75L96.7477 37.3105" stroke="#A73C4C" stroke-width="0.5"/>
<path d="M150.814 246.633H163.75H185.717M185.717 313.75H166.25M163.75 313.75H150.814M166.75 323.25L166.25 323.25M163.75 323.25H150.814" stroke="#A73C4C" stroke-width="0.5"/>
<path d="M185.717 217.48L185.717 40.0557H224.043V28.75" stroke="#A73C4C" stroke-width="0.5"/>
<path d="M185.717 217.48L185.717 350.25" stroke="#A73C4C" stroke-width="0.5"/>
<path d="M185.717 350.25V360.56H165.186V383.894H150.814V368.75" stroke="#A73C4C" stroke-width="0.5"/>
<path d="M150.814 368.75V356.435" stroke="#A73C4C" stroke-width="0.5"/>
<path d="M150.814 356.435V320.75" stroke="#A73C4C" stroke-width="0.5"/>
<path d="M150.814 320.75L150.814 246.633H133.02V185.552H150.814V164.472" stroke="#A73C4C" stroke-width="0.5"/>
<path d="M87.75 37.3105H96.7477V43.4872H122.07V39.3694H150.814L150.814 164.472" stroke="#A73C4C" stroke-width="0.5"/>
<path d="M87.75 37.3105H54.25" stroke="#A73C4C" stroke-width="0.5"/>
<path d="M54.25 37.3105L0.25 37.3105L0.250004 21.5039" stroke="#A73C4C" stroke-width="0.5"/>
<path d="M153.55 40.25C153.384 40.25 153.25 40.3843 153.25 40.55V46.0465C153.25 46.2121 153.384 46.3465 153.55 46.3465H154.11H158.95C159.116 46.3465 159.25 46.2121 159.25 46.0465V41.3168V40.55C159.25 40.3843 159.116 40.25 158.95 40.25H153.55ZM154.635 46.112V45.5085C154.635 45.4533 154.679 45.4085 154.735 45.4085H155.258C155.423 45.4085 155.558 45.2742 155.558 45.1085V44.5706C155.558 44.5154 155.602 44.4706 155.658 44.4706H156.181C156.346 44.4706 156.481 44.3363 156.481 44.1706V43.6327C156.481 43.5775 156.526 43.5327 156.581 43.5327H157.104C157.27 43.5327 157.404 43.3984 157.404 43.2327V42.6948C157.404 42.6396 157.449 42.5948 157.504 42.5948H158.027C158.193 42.5948 158.327 42.4605 158.327 42.2948V41.7569C158.327 41.7016 158.372 41.6569 158.427 41.6569H159.019V46.0119C159.019 46.0671 158.974 46.1119 158.919 46.1119L154.635 46.112ZM159.019 41.4224H158.396C158.23 41.4224 158.096 41.5567 158.096 41.7224V42.2603C158.096 42.3155 158.051 42.3603 157.996 42.3603H157.473C157.307 42.3603 157.173 42.4946 157.173 42.6603V43.1982C157.173 43.2535 157.128 43.2982 157.073 43.2982H156.55C156.384 43.2982 156.25 43.4325 156.25 43.5982V44.1361C156.25 44.1914 156.205 44.2361 156.15 44.2361H155.627C155.461 44.2361 155.327 44.3705 155.327 44.5361V45.0741C155.327 45.1293 155.282 45.1741 155.227 45.1741H154.704C154.538 45.1741 154.404 45.3084 154.404 45.4741V46.1119H153.581C153.526 46.1119 153.481 46.0671 153.481 46.0119V40.5845C153.481 40.5293 153.526 40.4845 153.581 40.4845H158.919C158.974 40.4845 159.019 40.5293 159.019 40.5845V41.4224Z" fill="#A73C4C"/>
<path d="M153.55 90.25C153.384 90.25 153.25 90.3843 153.25 90.55V96.0465C153.25 96.2121 153.384 96.3465 153.55 96.3465H154.11H158.95C159.116 96.3465 159.25 96.2121 159.25 96.0465V91.3168V90.55C159.25 90.3843 159.116 90.25 158.95 90.25H153.55ZM154.635 96.112V95.5085C154.635 95.4533 154.679 95.4085 154.735 95.4085H155.258C155.423 95.4085 155.558 95.2742 155.558 95.1085V94.5706C155.558 94.5154 155.602 94.4706 155.658 94.4706H156.181C156.346 94.4706 156.481 94.3363 156.481 94.1706V93.6327C156.481 93.5775 156.526 93.5327 156.581 93.5327H157.104C157.27 93.5327 157.404 93.3984 157.404 93.2327V92.6948C157.404 92.6396 157.449 92.5948 157.504 92.5948H158.027C158.193 92.5948 158.327 92.4605 158.327 92.2948V91.7569C158.327 91.7016 158.372 91.6569 158.427 91.6569H159.019V96.0119C159.019 96.0671 158.974 96.1119 158.919 96.1119L154.635 96.112ZM159.019 91.4224H158.396C158.23 91.4224 158.096 91.5567 158.096 91.7224V92.2603C158.096 92.3155 158.051 92.3603 157.996 92.3603H157.473C157.307 92.3603 157.173 92.4946 157.173 92.6603V93.1982C157.173 93.2535 157.128 93.2982 157.073 93.2982H156.55C156.384 93.2982 156.25 93.4325 156.25 93.5982V94.1361C156.25 94.1914 156.205 94.2361 156.15 94.2361H155.627C155.461 94.2361 155.327 94.3705 155.327 94.5361V95.0741C155.327 95.1293 155.282 95.1741 155.227 95.1741H154.704C154.538 95.1741 154.404 95.3084 154.404 95.4741V96.1119H153.581C153.526 96.1119 153.481 96.0671 153.481 96.0119V90.5845C153.481 90.5293 153.526 90.4845 153.581 90.4845H158.919C158.974 90.4845 159.019 90.5293 159.019 90.5845V91.4224Z" fill="#A73C4C"/>
<path d="M154.55 158.25C154.384 158.25 154.25 158.384 154.25 158.55V164.046C154.25 164.212 154.384 164.346 154.55 164.346H155.11H159.95C160.116 164.346 160.25 164.212 160.25 164.046V159.317V158.55C160.25 158.384 160.116 158.25 159.95 158.25H154.55ZM155.635 164.112V163.509C155.635 163.453 155.679 163.409 155.735 163.409H156.258C156.423 163.409 156.558 163.274 156.558 163.109V162.571C156.558 162.515 156.602 162.471 156.658 162.471H157.181C157.346 162.471 157.481 162.336 157.481 162.171V161.633C157.481 161.577 157.526 161.533 157.581 161.533H158.104C158.27 161.533 158.404 161.398 158.404 161.233V160.695C158.404 160.64 158.449 160.595 158.504 160.595H159.027C159.193 160.595 159.327 160.46 159.327 160.295V159.757C159.327 159.702 159.372 159.657 159.427 159.657H160.019V164.012C160.019 164.067 159.974 164.112 159.919 164.112L155.635 164.112ZM160.019 159.422H159.396C159.23 159.422 159.096 159.557 159.096 159.722V160.26C159.096 160.316 159.051 160.36 158.996 160.36H158.473C158.307 160.36 158.173 160.495 158.173 160.66V161.198C158.173 161.253 158.128 161.298 158.073 161.298H157.55C157.384 161.298 157.25 161.433 157.25 161.598V162.136C157.25 162.191 157.205 162.236 157.15 162.236H156.627C156.461 162.236 156.327 162.37 156.327 162.536V163.074C156.327 163.129 156.282 163.174 156.227 163.174H155.704C155.538 163.174 155.404 163.308 155.404 163.474V164.112H154.581C154.526 164.112 154.481 164.067 154.481 164.012V158.584C154.481 158.529 154.526 158.484 154.581 158.484H159.919C159.974 158.484 160.019 158.529 160.019 158.584V159.422Z" fill="#A73C4C"/>
<path d="M49.5501 26.25C49.3844 26.25 49.2501 26.3843 49.2501 26.55V30.5223C49.2501 30.688 49.3844 30.8223 49.5501 30.8223H49.8947H53.4501C53.6158 30.8223 53.7501 30.688 53.7501 30.5223V27.0501V26.55C53.7501 26.3843 53.6158 26.25 53.4501 26.25H49.5501ZM50.2886 30.6465V30.2189C50.2886 30.1637 50.3333 30.1189 50.3886 30.1189H50.6809C50.8465 30.1189 50.9809 29.9846 50.9809 29.8189V29.5155C50.9809 29.4602 51.0256 29.4155 51.0809 29.4155H51.3732C51.5389 29.4155 51.6732 29.2812 51.6732 29.1155V28.812C51.6732 28.7568 51.7179 28.712 51.7732 28.712H52.0655C52.2312 28.712 52.3655 28.5777 52.3655 28.412V28.1086C52.3655 28.0534 52.4102 28.0086 52.4655 28.0086H52.7578C52.9235 28.0086 53.0578 27.8743 53.0578 27.7086V27.4052C53.0578 27.3499 53.1026 27.3052 53.1578 27.3052H53.577V30.5464C53.577 30.6017 53.5322 30.6464 53.477 30.6464L50.2886 30.6465ZM53.577 27.1293H53.1847C53.019 27.1293 52.8847 27.2636 52.8847 27.4293V27.7327C52.8847 27.788 52.8399 27.8327 52.7847 27.8327H52.4924C52.3267 27.8327 52.1924 27.967 52.1924 28.1327V28.4362C52.1924 28.4914 52.1476 28.5362 52.0924 28.5362H51.8001C51.6344 28.5362 51.5001 28.6705 51.5001 28.8362V29.1396C51.5001 29.1948 51.4553 29.2396 51.4001 29.2396H51.1078C50.9421 29.2396 50.8078 29.3739 50.8078 29.5396V29.843C50.8078 29.8983 50.763 29.943 50.7078 29.943H50.4155C50.2498 29.943 50.1155 30.0774 50.1155 30.243V30.6464H49.5232C49.4679 30.6464 49.4232 30.6017 49.4232 30.5464V26.5259C49.4232 26.4706 49.4679 26.4259 49.5232 26.4259H53.477C53.5322 26.4259 53.577 26.4706 53.577 26.5259V27.1293Z" fill="#A73C4C"/>
<path d="M97.6925 4.25C97.5268 4.25 97.3925 4.38431 97.3925 4.55V12.95C97.3925 13.1157 97.5268 13.25 97.6925 13.25H98.6613H105.95C106.116 13.25 106.25 13.1157 106.25 12.95V5.82483V4.55C106.25 4.38431 106.116 4.25 105.95 4.25H97.6925ZM99.4366 12.9038V11.9654C99.4366 11.9102 99.4813 11.8654 99.5366 11.8654H100.499C100.665 11.8654 100.799 11.7311 100.799 11.5654V10.5808C100.799 10.5255 100.844 10.4808 100.899 10.4808H101.862C102.028 10.4808 102.162 10.3465 102.162 10.1808V9.19615C102.162 9.14093 102.207 9.09615 102.262 9.09615H103.225C103.39 9.09615 103.525 8.96184 103.525 8.79615V7.81154C103.525 7.75631 103.569 7.71154 103.625 7.71154H104.587C104.753 7.71154 104.887 7.57722 104.887 7.41154V6.42692C104.887 6.37169 104.932 6.32692 104.987 6.32692H105.909V12.8038C105.909 12.859 105.865 12.9038 105.809 12.9038L99.4366 12.9038ZM105.909 5.98077H104.847C104.681 5.98077 104.547 6.11508 104.547 6.28077V7.26538C104.547 7.32061 104.502 7.36538 104.447 7.36538H103.484C103.318 7.36538 103.184 7.4997 103.184 7.66538V8.65C103.184 8.70523 103.139 8.75 103.084 8.75H102.121C101.956 8.75 101.821 8.88431 101.821 9.05V10.0346C101.821 10.0898 101.777 10.1346 101.721 10.1346H100.759C100.593 10.1346 100.459 10.2689 100.459 10.4346V11.4192C100.459 11.4745 100.414 11.5192 100.359 11.5192H99.3959C99.2302 11.5192 99.0959 11.6535 99.0959 11.8192V12.9038H97.8332C97.7779 12.9038 97.7332 12.859 97.7332 12.8038V4.69615C97.7332 4.64093 97.7779 4.59615 97.8332 4.59615H105.809C105.865 4.59615 105.909 4.64093 105.909 4.69615V5.98077Z" fill="#A73C4C"/>
<path d="M154.55 315.25C154.384 315.25 154.25 315.384 154.25 315.55V321.95C154.25 322.116 154.384 322.25 154.55 322.25H155.237H160.839C161.005 322.25 161.139 322.116 161.139 321.95V316.475V315.55C161.139 315.384 161.005 315.25 160.839 315.25H154.55ZM155.84 321.981V321.273C155.84 321.218 155.885 321.173 155.94 321.173H156.6C156.765 321.173 156.9 321.039 156.9 320.873V320.196C156.9 320.141 156.944 320.096 157 320.096H157.66C157.825 320.096 157.96 319.962 157.96 319.796V319.119C157.96 319.064 158.004 319.019 158.06 319.019H158.719C158.885 319.019 159.019 318.885 159.019 318.719V318.042C159.019 317.987 159.064 317.942 159.119 317.942H159.779C159.945 317.942 160.079 317.808 160.079 317.642V316.965C160.079 316.91 160.124 316.865 160.179 316.865H160.874V321.881C160.874 321.936 160.83 321.981 160.774 321.981L155.84 321.981ZM160.874 316.596H160.114C159.949 316.596 159.814 316.73 159.814 316.896V317.573C159.814 317.628 159.77 317.673 159.714 317.673H159.055C158.889 317.673 158.755 317.807 158.755 317.973V318.65C158.755 318.705 158.71 318.75 158.655 318.75H157.995C157.829 318.75 157.695 318.884 157.695 319.05V319.727C157.695 319.782 157.65 319.827 157.595 319.827H156.935C156.769 319.827 156.635 319.961 156.635 320.127V320.804C156.635 320.859 156.59 320.904 156.535 320.904H155.875C155.709 320.904 155.575 321.038 155.575 321.204V321.981H154.615C154.56 321.981 154.515 321.936 154.515 321.881V315.619C154.515 315.564 154.56 315.519 154.615 315.519H160.774C160.83 315.519 160.874 315.564 160.874 315.619V316.596Z" fill="#A73C4C"/>
</svg>
