<svg width="188" height="142" viewBox="0 0 188 142" fill="none" xmlns="http://www.w3.org/2000/svg">
<path d="M5.04488 0.25H21.5449V10.25H33.8031V8.25H176.762V23.1196H184.68V41.0497H178.188V141.016H161.272V128.553H148.802V136.051H118.045V106.25H131.855V66.25H51.0449L50.7944 106.25H81.7772V136.25H1.54488V99.25H5.04488V0.25Z" fill="white"/>
<path d="M81.9511 106.23H77.998" stroke="#A73C4C" stroke-width="0.5"/>
<path d="M74.0449 106.23H65.5449" stroke="#A73C4C" stroke-width="0.5"/>
<path d="M117.952 106.23H131.854V66.2305L50.8545 66.2305V106.23H61.5449" stroke="#A73C4C" stroke-width="0.5"/>
<path d="M118.203 106.23V109.553" stroke="#A73C4C" stroke-width="0.5"/>
<path d="M118.203 115.362V136.084H148.823V128.621H161.262V141.06H178.179V96.5508" stroke="#A73C4C" stroke-width="0.5"/>
<path d="M81.7034 133.362V136.084L1.54488 136.306V106.862M81.7034 125.862V129.862M81.7034 106.231V121.862M6.45906 125.75V136.07M6.45906 118.75V121.571M24.0449 125.764V136.084M32.0449 125.679V136M24.0449 118.75V121.571M32.0449 118.75V121.571M1.54488 118.75H26.0449M49.5449 118.75V135.951M30.0449 118.75H52.0449M58.0449 127.25H81.7034M58.0449 135.928V106.231M56.0449 118.75H81.7034M69.7949 106.231V118.75M19.5449 114.75V118.75M19.5449 106.231V110.75M19.5449 99.2646V101.862M33.8863 95.3182V106.497M33.8863 81.75V90.9512M33.8863 61.25V77.75M21.4473 95.25L21.4473 99.2646H5.0278M21.4473 64.25V90.9512M21.4473 42.75V60.25M21.4473 31.25V38.4511M21.4473 23.5488V27.3696M21.4473 16.25V19.75M21.4473 12.2012V10.2012H20.0449M33.8863 56.75V48.75H50.8545M33.8863 10.2012L33.8863 23.1378H50.6424M41.5449 42.75V48.75M50.8545 35.75V66.2305H33.8863M68.5449 8.25V23.25M90.5449 35.75V66.2305M123.545 8.21097V23.1378M131.854 35.75V66.2305M125.045 57.75V66.2305M125.045 35.75V53.75M139.045 8.21097V23.1378M162.045 8.21097V19.25M162.045 22.25V23.1378M154.545 8.21097V23.1378M147.045 8.21097V19.25M147.045 22.25V23.1378M148.823 44.75V35.75H131.045M156.045 44.75V40.75H148.545M148.823 49.25V128.621M156.045 49.25V64.75M156.045 68.75V77.75M156.045 81.75V93.25M156.045 97.25V106.23H131.854M142.045 104.75V106.23M142.045 97.75V100.25M142.045 91.25V93.75M142.045 83.75V87.25M142.045 79.75V77.25H148.823M161.262 121.25V128.621M178.179 113.75H161.262V117.25M178.179 106.23L177.045 106.23M174.545 106.23L173.045 106.23V101.75H178.179M148.823 119.25H142.045M137.545 119.25H118.203M142.045 99.25H131.854M148.823 92.75H147.545M143.545 92.75H131.854M148.823 86.25H140.545M136.545 86.25H131.854M156.045 57.75H148.823M176.686 23.1378H136.545M162.045 16.25H159.545M156.545 16.25H154.545M154.545 12.25H152.545M149.045 12.25H147.045M132.545 23.1378H81.5449M77.6424 23.1378H54.5449M131.854 50.9902H125.045M126.642 35.75H122.045M118.142 35.75H65.0449M61.1424 35.75H41.0449M37.0449 35.75H33.8863V42.75H45.5449M50.8545 42.75H49.5449M21.4473 3.75H13.0449M8.64244 3.75H5.0278M16.1424 10.2012H5.04488M21.4473 18H5.0278M21.4473 25.75H5.0278M21.4473 33.75H5.04488M21.4473 50.25H20.0449M16.1424 50.25H5.0278M21.4473 58.25H5.0278M21.4473 79.25H5.0278M51.0449 106.25H33.7353" stroke="#A73C4C" stroke-width="0.5"/>
<path d="M147.839 8.21097H33.8863V10.2012H21.4473V0.25H5.0278V99.2646H1.54488V101.862" stroke="#A73C4C" stroke-width="0.5"/>
<path d="M184.647 25.5269V23.1378H176.686V8.21097H153.882" stroke="#A73C4C" stroke-width="0.5"/>
<path d="M184.647 31.6094V41.05H178.179V90.4374" stroke="#A73C4C" stroke-width="0.5"/>
<path d="M126.424 40.25C126.258 40.25 126.124 40.3843 126.124 40.55V44.95C126.124 45.1157 126.258 45.25 126.424 45.25H126.829H130.745C130.911 45.25 131.045 45.1157 131.045 44.95V41.1249V40.55C131.045 40.3843 130.911 40.25 130.745 40.25H126.424ZM127.26 45.0577V44.5808C127.26 44.5255 127.304 44.4808 127.36 44.4808H127.717C127.882 44.4808 128.017 44.3465 128.017 44.1808V43.8115C128.017 43.7563 128.061 43.7115 128.117 43.7115H128.474C128.639 43.7115 128.774 43.5772 128.774 43.4115V43.0423C128.774 42.9871 128.818 42.9423 128.874 42.9423H129.231C129.396 42.9423 129.531 42.808 129.531 42.6423V42.2731C129.531 42.2178 129.576 42.1731 129.631 42.1731H129.988C130.153 42.1731 130.288 42.0388 130.288 41.8731V41.5038C130.288 41.4486 130.333 41.4038 130.388 41.4038H130.856V44.9576C130.856 45.0129 130.811 45.0576 130.756 45.0576L127.26 45.0577ZM130.856 41.2115H130.399C130.233 41.2115 130.099 41.3459 130.099 41.5115V41.8808C130.099 41.936 130.054 41.9808 129.999 41.9808H129.641C129.476 41.9808 129.341 42.1151 129.341 42.2808V42.65C129.341 42.7052 129.297 42.75 129.241 42.75H128.884C128.719 42.75 128.584 42.8843 128.584 43.05V43.4192C128.584 43.4745 128.54 43.5192 128.484 43.5192H128.127C127.962 43.5192 127.827 43.6535 127.827 43.8192V44.1885C127.827 44.2437 127.783 44.2885 127.727 44.2885H127.37C127.205 44.2885 127.07 44.4228 127.07 44.5885V45.0576H126.413C126.358 45.0576 126.313 45.0129 126.313 44.9576V40.5423C126.313 40.4871 126.358 40.4423 126.413 40.4423H130.756C130.811 40.4423 130.856 40.4871 130.856 40.5423V41.2115Z" fill="#A73C4C"/>
<path d="M167.845 25.25C167.679 25.25 167.545 25.3843 167.545 25.55V38.8364C167.545 39.0021 167.679 39.1364 167.845 39.1364H169.503H180.912C181.077 39.1364 181.212 39.0021 181.212 38.8364V27.6799V25.55C181.212 25.3843 181.077 25.25 180.912 25.25H167.845ZM170.699 38.6023V37.1C170.699 37.0448 170.743 37 170.799 37H172.501C172.667 37 172.801 36.8657 172.801 36.7V34.9636C172.801 34.9084 172.846 34.8636 172.901 34.8636H174.604C174.77 34.8636 174.904 34.7293 174.904 34.5636V32.8273C174.904 32.772 174.949 32.7273 175.004 32.7273H176.706C176.872 32.7273 177.006 32.593 177.006 32.4273V30.6909C177.006 30.6357 177.051 30.5909 177.106 30.5909H178.809C178.975 30.5909 179.109 30.4566 179.109 30.2909V28.5545C179.109 28.4993 179.154 28.4545 179.209 28.4545H180.686V38.5021C180.686 38.5574 180.641 38.6021 180.586 38.6021L170.699 38.6023ZM180.686 27.9205H178.883C178.718 27.9205 178.583 28.0548 178.583 28.2205V29.9568C178.583 30.0121 178.539 30.0568 178.483 30.0568H176.781C176.615 30.0568 176.481 30.1911 176.481 30.3568V32.0932C176.481 32.1484 176.436 32.1932 176.381 32.1932H174.678C174.513 32.1932 174.378 32.3275 174.378 32.4932V34.2295C174.378 34.2848 174.333 34.3295 174.278 34.3295H172.576C172.41 34.3295 172.276 34.4639 172.276 34.6295V36.3659C172.276 36.4211 172.231 36.4659 172.176 36.4659H170.473C170.307 36.4659 170.173 36.6002 170.173 36.7659V38.6021H168.171C168.115 38.6021 168.071 38.5574 168.071 38.5021V25.8841C168.071 25.8289 168.115 25.7841 168.171 25.7841H180.586C180.641 25.7841 180.686 25.8289 180.686 25.8841V27.9205Z" fill="#A73C4C"/>
<path d="M5.84489 102.25C5.67921 102.25 5.54489 102.384 5.54489 102.55V114.836C5.54489 115.002 5.67921 115.136 5.84489 115.136H7.36167H17.9274C18.0931 115.136 18.2274 115.002 18.2274 114.836V104.505V102.55C18.2274 102.384 18.0931 102.25 17.9274 102.25H5.84489ZM8.47162 114.641V113.254C8.47162 113.199 8.51639 113.154 8.57162 113.154H10.1228C10.2885 113.154 10.4228 113.02 10.4228 112.854V111.271C10.4228 111.216 10.4675 111.171 10.5228 111.171H12.0739C12.2396 111.171 12.3739 111.037 12.3739 110.871V109.289C12.3739 109.234 12.4187 109.189 12.4739 109.189H14.0251C14.1908 109.189 14.3251 109.054 14.3251 108.889V107.306C14.3251 107.251 14.3698 107.206 14.4251 107.206H15.9762C16.1419 107.206 16.2762 107.072 16.2762 106.906V105.324C16.2762 105.269 16.321 105.224 16.3762 105.224H17.7396V114.541C17.7396 114.596 17.6948 114.641 17.6396 114.641L8.47162 114.641ZM17.7396 104.728H16.0884C15.9228 104.728 15.7884 104.862 15.7884 105.028V106.611C15.7884 106.666 15.7437 106.711 15.6884 106.711H14.1373C13.9716 106.711 13.8373 106.845 13.8373 107.011V108.593C13.8373 108.648 13.7925 108.693 13.7373 108.693H12.1861C12.0204 108.693 11.8861 108.827 11.8861 108.993V110.576C11.8861 110.631 11.8414 110.676 11.7861 110.676H10.235C10.0693 110.676 9.93498 110.81 9.93498 110.976V112.558C9.93498 112.613 9.89021 112.658 9.83498 112.658H8.28383C8.11815 112.658 7.98383 112.793 7.98383 112.958V114.641H6.13268C6.07745 114.641 6.03268 114.596 6.03268 114.541V102.846C6.03268 102.79 6.07745 102.746 6.13268 102.746H17.6396C17.6948 102.746 17.7396 102.79 17.7396 102.846V104.728Z" fill="#A73C4C"/>
<path d="M1.58937 104.435H4.04488M4.04488 104.435L3.37528 103.642M4.04488 104.435L3.37519 105.229" stroke="#A73C4C" stroke-width="0.5" stroke-linecap="round" stroke-linejoin="round"/>
<path d="M2.48228 103.446V102.734C2.48228 102.672 2.4323 102.621 2.37066 102.621H0.361612C0.29997 102.621 0.249998 102.672 0.249998 102.734V106.137C0.249998 106.199 0.29997 106.25 0.361612 106.25H2.37066C2.4323 106.25 2.48228 106.199 2.48228 106.137V105.425" stroke="#A73C4C" stroke-width="0.5" stroke-linecap="round" stroke-linejoin="round"/>
<path d="M184.237 28.5427H187.34M187.34 28.5427L186.494 27.5396M187.34 28.5427L186.494 29.5457" stroke="#A73C4C" stroke-width="0.5" stroke-linecap="round" stroke-linejoin="round"/>
<path d="M185.365 27.2921V26.3933C185.365 26.3142 185.302 26.25 185.224 26.25H182.686C182.608 26.25 182.545 26.3142 182.545 26.3933V30.6921C182.545 30.7712 182.608 30.8354 182.686 30.8354H185.224C185.302 30.8354 185.365 30.7712 185.365 30.6921V29.7932" stroke="#A73C4C" stroke-width="0.5" stroke-linecap="round" stroke-linejoin="round"/>
<path d="M150.237 8.54269H153.34M153.34 8.54269L152.494 7.53964M153.34 8.54269L152.494 9.54574" stroke="#A73C4C" stroke-width="0.5" stroke-linecap="round" stroke-linejoin="round"/>
<path d="M151.365 7.29213V6.39329C151.365 6.31416 151.302 6.25 151.224 6.25H148.686C148.608 6.25 148.545 6.31416 148.545 6.39329V10.6921C148.545 10.7712 148.608 10.8354 148.686 10.8354H151.224C151.302 10.8354 151.365 10.7712 151.365 10.6921V9.79323" stroke="#A73C4C" stroke-width="0.5" stroke-linecap="round" stroke-linejoin="round"/>
<path d="M178.237 93.5427H181.34M181.34 93.5427L180.494 92.5396M181.34 93.5427L180.494 94.5457" stroke="#A73C4C" stroke-width="0.5" stroke-linecap="round" stroke-linejoin="round"/>
<path d="M179.365 92.2921V91.3933C179.365 91.3142 179.302 91.25 179.224 91.25H176.686C176.608 91.25 176.545 91.3142 176.545 91.3933V95.6921C176.545 95.7712 176.608 95.8354 176.686 95.8354H179.224C179.302 95.8354 179.365 95.7712 179.365 95.6921V94.7932" stroke="#A73C4C" stroke-width="0.5" stroke-linecap="round" stroke-linejoin="round"/>
<path d="M118.237 112.543H121.34M121.34 112.543L120.494 111.54M121.34 112.543L120.494 113.546" stroke="#A73C4C" stroke-width="0.5" stroke-linecap="round" stroke-linejoin="round"/>
<path d="M119.365 111.292V110.393C119.365 110.314 119.302 110.25 119.224 110.25H116.686C116.608 110.25 116.545 110.314 116.545 110.393V114.692C116.545 114.771 116.608 114.835 116.686 114.835H119.224C119.302 114.835 119.365 114.771 119.365 114.692V113.793" stroke="#A73C4C" stroke-width="0.5" stroke-linecap="round" stroke-linejoin="round"/>
<path d="M41.9988 41.7855V40.7871C41.9985 40.7593 41.9875 40.7328 41.9681 40.7132C41.9487 40.6937 41.9225 40.6827 41.8951 40.6827H41.6477C41.6311 40.6826 41.6147 40.6784 41.6 40.6705C41.5854 40.6626 41.5727 40.6512 41.5633 40.6373C41.5538 40.6235 41.5478 40.6075 41.5457 40.5907C41.5436 40.574 41.5455 40.5569 41.5512 40.5411L42.1417 38.9073C42.1491 38.8873 42.1622 38.87 42.1794 38.8577C42.1966 38.8454 42.2171 38.8386 42.2382 38.8384H42.8635C42.8848 38.8383 42.9057 38.845 42.9231 38.8575C42.9406 38.87 42.9538 38.8878 42.9608 38.9082L43.5397 40.542C43.545 40.5584 43.5462 40.5758 43.5433 40.5928C43.5405 40.6098 43.5335 40.6259 43.5231 40.6395C43.5127 40.6531 43.4991 40.6639 43.4836 40.671C43.4682 40.678 43.4512 40.6811 43.4343 40.68H43.1663C43.1396 40.6816 43.1145 40.6937 43.0964 40.7136C43.0782 40.7336 43.0684 40.7599 43.0689 40.7871V41.7855" stroke="#3A3A3A" stroke-width="0.4" stroke-linecap="round"/>
<path d="M42.5411 38.3228C42.8326 38.3228 43.069 38.0827 43.069 37.7864C43.069 37.4902 42.8326 37.25 42.5411 37.25C42.2495 37.25 42.0131 37.4902 42.0131 37.7864C42.0131 38.0827 42.2495 38.3228 42.5411 38.3228Z" stroke="#3A3A3A" stroke-width="0.4" stroke-linecap="round"/>
<path d="M136.144 48.8735L137.289 47.4624L137.813 48.1414L136.803 49.4461C136.417 49.9454 135.701 49.4193 136.144 48.8735ZM137.481 45.66C137.591 45.2984 137.54 44.9894 137.131 44.5304L136.129 43.3062C135.987 43.1366 135.652 43.3857 135.792 43.5911L136.593 44.5936C136.744 44.7806 136.463 45.028 136.306 44.8355L135.478 43.7988C135.324 43.6191 135.005 43.8565 135.166 44.0619C135.4 44.3474 135.761 44.8136 135.995 45.0991C136.157 45.2665 135.91 45.5144 135.751 45.3057L134.928 44.2757C134.807 44.1425 134.61 44.2253 134.558 44.3809C134.502 44.5472 134.64 44.6687 134.734 44.7918L135.652 45.9964C135.937 46.3317 136.255 46.5304 136.625 46.4179C136.682 46.4005 136.752 46.3653 136.826 46.3188L139.292 49.553C139.424 49.7271 139.681 49.7456 139.847 49.6051L139.885 49.5732C140.072 49.4148 140.103 49.1254 139.942 48.9384L137.331 45.89C137.407 45.8038 137.463 45.7221 137.481 45.66ZM138.179 46.3653L138.585 45.8648C138.063 44.5494 139.999 42.7963 140.937 43.6023C142.077 44.5825 140.383 46.9446 139.192 46.3608L138.711 46.9815L138.179 46.3653Z" fill="#3A3A3A"/>
<path d="M171.144 50.8735L172.289 49.4624L172.813 50.1414L171.803 51.4461C171.417 51.9454 170.701 51.4193 171.144 50.8735ZM172.481 47.66C172.591 47.2984 172.54 46.9894 172.131 46.5304L171.129 45.3062C170.987 45.1366 170.652 45.3857 170.792 45.5911L171.593 46.5936C171.744 46.7806 171.463 47.028 171.306 46.8355L170.478 45.7988C170.324 45.6191 170.005 45.8565 170.166 46.0619C170.4 46.3474 170.761 46.8136 170.995 47.0991C171.157 47.2665 170.91 47.5144 170.751 47.3057L169.928 46.2757C169.807 46.1425 169.61 46.2253 169.558 46.3809C169.502 46.5472 169.64 46.6687 169.734 46.7918L170.652 47.9964C170.937 48.3317 171.255 48.5304 171.625 48.4179C171.682 48.4005 171.752 48.3653 171.826 48.3188L174.292 51.553C174.424 51.7271 174.681 51.7456 174.847 51.6051L174.885 51.5732C175.072 51.4148 175.103 51.1254 174.942 50.9384L172.331 47.89C172.407 47.8038 172.463 47.7221 172.481 47.66ZM173.179 48.3653L173.585 47.8648C173.063 46.5494 174.999 44.7963 175.937 45.6023C177.077 46.5825 175.383 48.9446 174.192 48.3608L173.711 48.9815L173.179 48.3653Z" fill="#3A3A3A"/>
<path d="M11.8149 22.13H11.4099V20.6L10.7699 20.9C10.7265 20.8833 10.6899 20.8583 10.6599 20.825C10.6332 20.7917 10.6199 20.75 10.6199 20.7C10.6199 20.6033 10.6799 20.53 10.7999 20.48L11.4999 20.175H11.5949C11.6615 20.175 11.7149 20.195 11.7549 20.235C11.7949 20.275 11.8149 20.3283 11.8149 20.395V22.13ZM11.4099 21.93H11.8149V23.255C11.7949 23.2617 11.7682 23.2683 11.7349 23.275C11.7015 23.285 11.6649 23.29 11.6249 23.29C11.5549 23.29 11.5015 23.275 11.4649 23.245C11.4282 23.215 11.4099 23.1683 11.4099 23.105V21.93ZM13.6264 22.13H13.2214V20.6L12.5814 20.9C12.5381 20.8833 12.5014 20.8583 12.4714 20.825C12.4447 20.7917 12.4314 20.75 12.4314 20.7C12.4314 20.6033 12.4914 20.53 12.6114 20.48L13.3114 20.175H13.4064C13.4731 20.175 13.5264 20.195 13.5664 20.235C13.6064 20.275 13.6264 20.3283 13.6264 20.395V22.13ZM13.2214 21.93H13.6264V23.255C13.6064 23.2617 13.5797 23.2683 13.5464 23.275C13.5131 23.285 13.4764 23.29 13.4364 23.29C13.3664 23.29 13.3131 23.275 13.2764 23.245C13.2397 23.215 13.2214 23.1683 13.2214 23.105V21.93ZM15.5985 23.315C15.3652 23.315 15.1585 23.2583 14.9785 23.145C14.8018 23.0283 14.6635 22.8533 14.5635 22.62C14.4635 22.3833 14.4135 22.0867 14.4135 21.73C14.4135 21.3467 14.4702 21.04 14.5835 20.81C14.6968 20.58 14.8435 20.4133 15.0235 20.31C15.2035 20.2033 15.3952 20.15 15.5985 20.15C15.8052 20.15 15.9985 20.2033 16.1785 20.31C16.3618 20.4167 16.5085 20.5867 16.6185 20.82C16.7318 21.05 16.7885 21.3533 16.7885 21.73C16.7885 22.0833 16.7385 22.3783 16.6385 22.615C16.5385 22.8483 16.3985 23.0233 16.2185 23.14C16.0418 23.2567 15.8352 23.315 15.5985 23.315ZM15.5985 22.975C15.8452 22.975 16.0368 22.8683 16.1735 22.655C16.3102 22.4383 16.3785 22.13 16.3785 21.73C16.3785 21.4333 16.3418 21.195 16.2685 21.015C16.1985 20.8317 16.1052 20.6983 15.9885 20.615C15.8718 20.5317 15.7418 20.49 15.5985 20.49C15.4585 20.49 15.3285 20.5333 15.2085 20.62C15.0918 20.7033 14.9985 20.8367 14.9285 21.02C14.8585 21.2033 14.8235 21.44 14.8235 21.73C14.8235 22.13 14.8918 22.4383 15.0285 22.655C15.1652 22.8683 15.3552 22.975 15.5985 22.975Z" fill="#A73C4C"/>
<path d="M11.8149 30.13H11.4099V28.6L10.7699 28.9C10.7265 28.8833 10.6899 28.8583 10.6599 28.825C10.6332 28.7917 10.6199 28.75 10.6199 28.7C10.6199 28.6033 10.6799 28.53 10.7999 28.48L11.4999 28.175H11.5949C11.6615 28.175 11.7149 28.195 11.7549 28.235C11.7949 28.275 11.8149 28.3283 11.8149 28.395V30.13ZM11.4099 29.93H11.8149V31.255C11.7949 31.2617 11.7682 31.2683 11.7349 31.275C11.7015 31.285 11.6649 31.29 11.6249 31.29C11.5549 31.29 11.5015 31.275 11.4649 31.245C11.4282 31.215 11.4099 31.1683 11.4099 31.105V29.93ZM13.6264 30.13H13.2214V28.6L12.5814 28.9C12.5381 28.8833 12.5014 28.8583 12.4714 28.825C12.4447 28.7917 12.4314 28.75 12.4314 28.7C12.4314 28.6033 12.4914 28.53 12.6114 28.48L13.3114 28.175H13.4064C13.4731 28.175 13.5264 28.195 13.5664 28.235C13.6064 28.275 13.6264 28.3283 13.6264 28.395V30.13ZM13.2214 29.93H13.6264V31.255C13.6064 31.2617 13.5797 31.2683 13.5464 31.275C13.5131 31.285 13.4764 31.29 13.4364 31.29C13.3664 31.29 13.3131 31.275 13.2764 31.245C13.2397 31.215 13.2214 31.1683 13.2214 31.105V29.93ZM15.4379 30.13H15.0329V28.6L14.3929 28.9C14.3496 28.8833 14.3129 28.8583 14.2829 28.825C14.2563 28.7917 14.2429 28.75 14.2429 28.7C14.2429 28.6033 14.3029 28.53 14.4229 28.48L15.1229 28.175H15.2179C15.2846 28.175 15.3379 28.195 15.3779 28.235C15.4179 28.275 15.4379 28.3283 15.4379 28.395V30.13ZM15.0329 29.93H15.4379V31.255C15.4179 31.2617 15.3913 31.2683 15.3579 31.275C15.3246 31.285 15.2879 31.29 15.2479 31.29C15.1779 31.29 15.1246 31.275 15.0879 31.245C15.0513 31.215 15.0329 31.1683 15.0329 31.105V29.93Z" fill="#A73C4C"/>
<path d="M12.8149 128.13H12.4099V126.6L11.7699 126.9C11.7265 126.883 11.6899 126.858 11.6599 126.825C11.6332 126.792 11.6199 126.75 11.6199 126.7C11.6199 126.603 11.6799 126.53 11.7999 126.48L12.4999 126.175H12.5949C12.6615 126.175 12.7149 126.195 12.7549 126.235C12.7949 126.275 12.8149 126.328 12.8149 126.395V128.13ZM12.4099 127.93H12.8149V129.255C12.7949 129.262 12.7682 129.268 12.7349 129.275C12.7015 129.285 12.6649 129.29 12.6249 129.29C12.5549 129.29 12.5015 129.275 12.4649 129.245C12.4282 129.215 12.4099 129.168 12.4099 129.105V127.93ZM14.6264 128.13H14.2214V126.6L13.5814 126.9C13.5381 126.883 13.5014 126.858 13.4714 126.825C13.4447 126.792 13.4314 126.75 13.4314 126.7C13.4314 126.603 13.4914 126.53 13.6114 126.48L14.3114 126.175H14.4064C14.4731 126.175 14.5264 126.195 14.5664 126.235C14.6064 126.275 14.6264 126.328 14.6264 126.395V128.13ZM14.2214 127.93H14.6264V129.255C14.6064 129.262 14.5797 129.268 14.5464 129.275C14.5131 129.285 14.4764 129.29 14.4364 129.29C14.3664 129.29 14.3131 129.275 14.2764 129.245C14.2397 129.215 14.2214 129.168 14.2214 129.105V127.93ZM15.5828 129.005C15.5828 128.965 15.5928 128.927 15.6128 128.89C15.6361 128.853 15.6645 128.827 15.6978 128.81C15.7611 128.847 15.8428 128.883 15.9428 128.92C16.0461 128.953 16.1678 128.97 16.3078 128.97C16.4811 128.97 16.6395 128.933 16.7828 128.86C16.9261 128.787 17.0411 128.667 17.1278 128.5C17.2145 128.33 17.2578 128.107 17.2578 127.83C17.2278 127.863 17.1778 127.905 17.1078 127.955C17.0411 128.002 16.9561 128.043 16.8528 128.08C16.7495 128.117 16.6295 128.135 16.4928 128.135C16.3061 128.135 16.1311 128.103 15.9678 128.04C15.8045 127.973 15.6728 127.868 15.5728 127.725C15.4761 127.582 15.4278 127.393 15.4278 127.16C15.4278 126.95 15.4745 126.77 15.5678 126.62C15.6611 126.467 15.7878 126.35 15.9478 126.27C16.1078 126.19 16.2861 126.15 16.4828 126.15C16.7128 126.15 16.9161 126.203 17.0928 126.31C17.2695 126.413 17.4078 126.575 17.5078 126.795C17.6111 127.012 17.6628 127.292 17.6628 127.635C17.6628 128.042 17.6061 128.368 17.4928 128.615C17.3795 128.862 17.2211 129.04 17.0178 129.15C16.8178 129.26 16.5828 129.315 16.3128 129.315C16.1128 129.315 15.9411 129.288 15.7978 129.235C15.6545 129.182 15.5828 129.105 15.5828 129.005ZM16.5478 127.8C16.7178 127.8 16.8678 127.758 16.9978 127.675C17.1311 127.588 17.2195 127.493 17.2628 127.39L17.2578 127.445C17.2578 127.148 17.1895 126.915 17.0528 126.745C16.9195 126.572 16.7295 126.485 16.4828 126.485C16.2995 126.485 16.1445 126.545 16.0178 126.665C15.8945 126.782 15.8328 126.943 15.8328 127.15C15.8328 127.38 15.9028 127.547 16.0428 127.65C16.1828 127.75 16.3511 127.8 16.5478 127.8Z" fill="#A73C4C"/>
<path d="M25.8149 128.13H25.4099V126.6L24.7699 126.9C24.7265 126.883 24.6899 126.858 24.6599 126.825C24.6332 126.792 24.6199 126.75 24.6199 126.7C24.6199 126.603 24.6799 126.53 24.7999 126.48L25.4999 126.175H25.5949C25.6615 126.175 25.7149 126.195 25.7549 126.235C25.7949 126.275 25.8149 126.328 25.8149 126.395V128.13ZM25.4099 127.93H25.8149V129.255C25.7949 129.262 25.7682 129.268 25.7349 129.275C25.7015 129.285 25.6649 129.29 25.6249 129.29C25.5549 129.29 25.5015 129.275 25.4649 129.245C25.4282 129.215 25.4099 129.168 25.4099 129.105V127.93ZM27.6264 128.13H27.2214V126.6L26.5814 126.9C26.5381 126.883 26.5014 126.858 26.4714 126.825C26.4447 126.792 26.4314 126.75 26.4314 126.7C26.4314 126.603 26.4914 126.53 26.6114 126.48L27.3114 126.175H27.4064C27.4731 126.175 27.5264 126.195 27.5664 126.235C27.6064 126.275 27.6264 126.328 27.6264 126.395V128.13ZM27.2214 127.93H27.6264V129.255C27.6064 129.262 27.5797 129.268 27.5464 129.275C27.5131 129.285 27.4764 129.29 27.4364 129.29C27.3664 129.29 27.3131 129.275 27.2764 129.245C27.2397 129.215 27.2214 129.168 27.2214 129.105V127.93ZM29.5978 129.315C29.3711 129.315 29.1728 129.282 29.0028 129.215C28.8328 129.145 28.7011 129.045 28.6078 128.915C28.5145 128.785 28.4678 128.628 28.4678 128.445C28.4678 128.282 28.5045 128.143 28.5778 128.03C28.6545 127.913 28.7511 127.82 28.8678 127.75C28.9845 127.68 29.1061 127.633 29.2328 127.61L29.5328 127.56C29.7728 127.513 29.9528 127.445 30.0728 127.355C30.1928 127.262 30.2528 127.138 30.2528 126.985C30.2528 126.828 30.1945 126.707 30.0778 126.62C29.9611 126.53 29.8011 126.485 29.5978 126.485C29.4011 126.485 29.2428 126.53 29.1228 126.62C29.0028 126.71 28.9428 126.83 28.9428 126.98C28.9428 127.107 28.9761 127.208 29.0428 127.285C29.1128 127.362 29.2045 127.42 29.3178 127.46C29.4345 127.497 29.5611 127.522 29.6978 127.535L29.9178 127.61C30.0545 127.637 30.1845 127.685 30.3078 127.755C30.4311 127.822 30.5311 127.912 30.6078 128.025C30.6845 128.138 30.7228 128.28 30.7228 128.45C30.7228 128.63 30.6745 128.785 30.5778 128.915C30.4845 129.045 30.3528 129.145 30.1828 129.215C30.0161 129.282 29.8211 129.315 29.5978 129.315ZM29.5978 128.98C29.8145 128.98 29.9895 128.933 30.1228 128.84C30.2561 128.747 30.3228 128.612 30.3228 128.435C30.3228 128.242 30.2411 128.088 30.0778 127.975C29.9178 127.862 29.7028 127.797 29.4328 127.78L29.1778 127.705C28.9845 127.652 28.8295 127.565 28.7128 127.445C28.5995 127.325 28.5428 127.168 28.5428 126.975C28.5428 126.805 28.5861 126.658 28.6728 126.535C28.7628 126.412 28.8861 126.317 29.0428 126.25C29.2028 126.183 29.3878 126.15 29.5978 126.15C29.9245 126.15 30.1811 126.225 30.3678 126.375C30.5578 126.522 30.6528 126.725 30.6528 126.985C30.6528 127.195 30.5811 127.36 30.4378 127.48C30.2978 127.6 30.1261 127.678 29.9228 127.715L29.5828 127.785C29.3695 127.818 29.1961 127.892 29.0628 128.005C28.9328 128.115 28.8678 128.26 28.8678 128.44C28.8678 128.61 28.9328 128.743 29.0628 128.84C29.1928 128.933 29.3711 128.98 29.5978 128.98Z" fill="#A73C4C"/>
<path d="M38.8149 128.13H38.4099V126.6L37.7699 126.9C37.7265 126.883 37.6899 126.858 37.6599 126.825C37.6332 126.792 37.6199 126.75 37.6199 126.7C37.6199 126.603 37.6799 126.53 37.7999 126.48L38.4999 126.175H38.5949C38.6615 126.175 38.7149 126.195 38.7549 126.235C38.7949 126.275 38.8149 126.328 38.8149 126.395V128.13ZM38.4099 127.93H38.8149V129.255C38.7949 129.262 38.7682 129.268 38.7349 129.275C38.7015 129.285 38.6649 129.29 38.6249 129.29C38.5549 129.29 38.5015 129.275 38.4649 129.245C38.4282 129.215 38.4099 129.168 38.4099 129.105V127.93ZM40.6264 128.13H40.2214V126.6L39.5814 126.9C39.5381 126.883 39.5014 126.858 39.4714 126.825C39.4447 126.792 39.4314 126.75 39.4314 126.7C39.4314 126.603 39.4914 126.53 39.6114 126.48L40.3114 126.175H40.4064C40.4731 126.175 40.5264 126.195 40.5664 126.235C40.6064 126.275 40.6264 126.328 40.6264 126.395V128.13ZM40.2214 127.93H40.6264V129.255C40.6064 129.262 40.5797 129.268 40.5464 129.275C40.5131 129.285 40.4764 129.29 40.4364 129.29C40.3664 129.29 40.3131 129.275 40.2764 129.245C40.2397 129.215 40.2214 129.168 40.2214 129.105V127.93ZM41.438 126.21H43.238C43.2747 126.23 43.303 126.258 43.323 126.295C43.343 126.328 43.353 126.367 43.353 126.41C43.353 126.443 43.348 126.477 43.338 126.51C43.3314 126.543 43.318 126.58 43.298 126.62L42.043 129.27C42.023 129.273 42.003 129.275 41.983 129.275C41.9664 129.275 41.948 129.275 41.928 129.275C41.8647 129.275 41.8097 129.26 41.763 129.23C41.7164 129.197 41.693 129.152 41.693 129.095C41.693 129.055 41.7014 129.017 41.718 128.98C41.7347 128.94 41.7547 128.895 41.778 128.845L42.908 126.55H41.328C41.318 126.533 41.308 126.512 41.298 126.485C41.288 126.455 41.283 126.423 41.283 126.39C41.283 126.333 41.2964 126.29 41.323 126.26C41.3497 126.227 41.388 126.21 41.438 126.21Z" fill="#A73C4C"/>
<path d="M51.8149 128.13H51.4099V126.6L50.7699 126.9C50.7265 126.883 50.6899 126.858 50.6599 126.825C50.6332 126.792 50.6199 126.75 50.6199 126.7C50.6199 126.603 50.6799 126.53 50.7999 126.48L51.4999 126.175H51.5949C51.6615 126.175 51.7149 126.195 51.7549 126.235C51.7949 126.275 51.8149 126.328 51.8149 126.395V128.13ZM51.4099 127.93H51.8149V129.255C51.7949 129.262 51.7682 129.268 51.7349 129.275C51.7015 129.285 51.6649 129.29 51.6249 129.29C51.5549 129.29 51.5015 129.275 51.4649 129.245C51.4282 129.215 51.4099 129.168 51.4099 129.105V127.93ZM52.6658 126.525C52.6658 126.465 52.7041 126.407 52.7808 126.35C52.8575 126.29 52.9608 126.242 53.0908 126.205C53.2208 126.168 53.3625 126.15 53.5158 126.15C53.7291 126.15 53.9125 126.187 54.0658 126.26C54.2191 126.33 54.3375 126.43 54.4208 126.56C54.5041 126.69 54.5458 126.843 54.5458 127.02C54.5458 127.203 54.4941 127.383 54.3908 127.56C54.2908 127.737 54.1175 127.938 53.8708 128.165L53.0558 128.92H54.5408C54.5541 128.933 54.5658 128.955 54.5758 128.985C54.5858 129.012 54.5908 129.043 54.5908 129.08C54.5908 129.133 54.5758 129.175 54.5458 129.205C54.5191 129.235 54.4825 129.25 54.4358 129.25H52.6708C52.6375 129.227 52.6125 129.198 52.5958 129.165C52.5791 129.128 52.5708 129.09 52.5708 129.05C52.5708 128.997 52.5808 128.95 52.6008 128.91C52.6208 128.867 52.6508 128.827 52.6908 128.79L53.5908 127.925C53.7975 127.732 53.9391 127.57 54.0158 127.44C54.0925 127.307 54.1308 127.168 54.1308 127.025C54.1308 126.868 54.0775 126.74 53.9708 126.64C53.8641 126.54 53.7025 126.49 53.4858 126.49C53.3391 126.49 53.2075 126.515 53.0908 126.565C52.9775 126.615 52.8825 126.668 52.8058 126.725C52.7691 126.708 52.7358 126.683 52.7058 126.65C52.6791 126.617 52.6658 126.575 52.6658 126.525ZM56.326 129.315C56.0927 129.315 55.886 129.258 55.706 129.145C55.5294 129.028 55.391 128.853 55.291 128.62C55.191 128.383 55.141 128.087 55.141 127.73C55.141 127.347 55.1977 127.04 55.311 126.81C55.4244 126.58 55.571 126.413 55.751 126.31C55.931 126.203 56.1227 126.15 56.326 126.15C56.5327 126.15 56.726 126.203 56.906 126.31C57.0894 126.417 57.236 126.587 57.346 126.82C57.4594 127.05 57.516 127.353 57.516 127.73C57.516 128.083 57.466 128.378 57.366 128.615C57.266 128.848 57.126 129.023 56.946 129.14C56.7694 129.257 56.5627 129.315 56.326 129.315ZM56.326 128.975C56.5727 128.975 56.7644 128.868 56.901 128.655C57.0377 128.438 57.106 128.13 57.106 127.73C57.106 127.433 57.0694 127.195 56.996 127.015C56.926 126.832 56.8327 126.698 56.716 126.615C56.5994 126.532 56.4694 126.49 56.326 126.49C56.186 126.49 56.056 126.533 55.936 126.62C55.8194 126.703 55.726 126.837 55.656 127.02C55.586 127.203 55.551 127.44 55.551 127.73C55.551 128.13 55.6194 128.438 55.756 128.655C55.8927 128.868 56.0827 128.975 56.326 128.975Z" fill="#A73C4C"/>
<path d="M11.8149 69.13H11.4099V67.6L10.7699 67.9C10.7265 67.8833 10.6899 67.8583 10.6599 67.825C10.6332 67.7917 10.6199 67.75 10.6199 67.7C10.6199 67.6033 10.6799 67.53 10.7999 67.48L11.4999 67.175H11.5949C11.6615 67.175 11.7149 67.195 11.7549 67.235C11.7949 67.275 11.8149 67.3283 11.8149 67.395V69.13ZM11.4099 68.93H11.8149V70.255C11.7949 70.2617 11.7682 70.2683 11.7349 70.275C11.7015 70.285 11.6649 70.29 11.6249 70.29C11.5549 70.29 11.5015 70.275 11.4649 70.245C11.4282 70.215 11.4099 70.1683 11.4099 70.105V68.93ZM13.6264 69.13H13.2214V67.6L12.5814 67.9C12.5381 67.8833 12.5014 67.8583 12.4714 67.825C12.4447 67.7917 12.4314 67.75 12.4314 67.7C12.4314 67.6033 12.4914 67.53 12.6114 67.48L13.3114 67.175H13.4064C13.4731 67.175 13.5264 67.195 13.5664 67.235C13.6064 67.275 13.6264 67.3283 13.6264 67.395V69.13ZM13.2214 68.93H13.6264V70.255C13.6064 70.2617 13.5797 70.2683 13.5464 70.275C13.5131 70.285 13.4764 70.29 13.4364 70.29C13.3664 70.29 13.3131 70.275 13.2764 70.245C13.2397 70.215 13.2214 70.1683 13.2214 70.105V68.93ZM14.3279 69.135L15.7829 67.205C15.8129 67.1983 15.8463 67.1933 15.8829 67.19C15.9229 67.1833 15.9579 67.18 15.9879 67.18C16.0346 67.18 16.0779 67.1867 16.1179 67.2C16.1613 67.2133 16.1963 67.2383 16.2229 67.275C16.2496 67.3083 16.2629 67.3583 16.2629 67.425V69.175H16.7629C16.7729 69.1917 16.7829 69.215 16.7929 69.245C16.8029 69.2717 16.8079 69.3033 16.8079 69.34C16.8079 69.3933 16.7946 69.435 16.7679 69.465C16.7413 69.495 16.7029 69.51 16.6529 69.51H16.2629V70.26C16.2463 70.2633 16.2213 70.2683 16.1879 70.275C16.1579 70.285 16.1246 70.29 16.0879 70.29C16.0179 70.29 15.9646 70.275 15.9279 70.245C15.8913 70.215 15.8729 70.1717 15.8729 70.115V69.51H14.4279C14.3946 69.4933 14.3646 69.4633 14.3379 69.42C14.3146 69.3767 14.3029 69.3283 14.3029 69.275C14.3029 69.245 14.3046 69.22 14.3079 69.2C14.3146 69.1767 14.3213 69.155 14.3279 69.135ZM15.8779 69.175L15.8879 67.6H15.8779L14.7679 69.175H15.8779Z" fill="#A73C4C"/>
<path d="M11.8149 90.13H11.4099V88.6L10.7699 88.9C10.7265 88.8833 10.6899 88.8583 10.6599 88.825C10.6332 88.7917 10.6199 88.75 10.6199 88.7C10.6199 88.6033 10.6799 88.53 10.7999 88.48L11.4999 88.175H11.5949C11.6615 88.175 11.7149 88.195 11.7549 88.235C11.7949 88.275 11.8149 88.3283 11.8149 88.395V90.13ZM11.4099 89.93H11.8149V91.255C11.7949 91.2617 11.7682 91.2683 11.7349 91.275C11.7015 91.285 11.6649 91.29 11.6249 91.29C11.5549 91.29 11.5015 91.275 11.4649 91.245C11.4282 91.215 11.4099 91.1683 11.4099 91.105V89.93ZM13.6264 90.13H13.2214V88.6L12.5814 88.9C12.5381 88.8833 12.5014 88.8583 12.4714 88.825C12.4447 88.7917 12.4314 88.75 12.4314 88.7C12.4314 88.6033 12.4914 88.53 12.6114 88.48L13.3114 88.175H13.4064C13.4731 88.175 13.5264 88.195 13.5664 88.235C13.6064 88.275 13.6264 88.3283 13.6264 88.395V90.13ZM13.2214 89.93H13.6264V91.255C13.6064 91.2617 13.5797 91.2683 13.5464 91.275C13.5131 91.285 13.4764 91.29 13.4364 91.29C13.3664 91.29 13.3131 91.275 13.2764 91.245C13.2397 91.215 13.2214 91.1683 13.2214 91.105V89.93ZM16.4478 88.445C16.4478 88.485 16.4361 88.5233 16.4128 88.56C16.3928 88.5933 16.3661 88.6183 16.3328 88.635C16.2595 88.5983 16.1761 88.5667 16.0828 88.54C15.9928 88.51 15.8945 88.495 15.7878 88.495C15.5278 88.495 15.3078 88.5883 15.1278 88.775C14.9511 88.9617 14.8578 89.2533 14.8478 89.65C14.9145 89.5833 15.0161 89.5133 15.1528 89.44C15.2928 89.3633 15.4645 89.325 15.6678 89.325C15.9611 89.325 16.2028 89.4083 16.3928 89.575C16.5828 89.7417 16.6778 89.9883 16.6778 90.315C16.6778 90.5217 16.6328 90.7 16.5428 90.85C16.4561 91 16.3328 91.115 16.1728 91.195C16.0161 91.275 15.8295 91.315 15.6128 91.315C15.3895 91.315 15.1895 91.265 15.0128 91.165C14.8361 91.0617 14.6961 90.9017 14.5928 90.685C14.4928 90.465 14.4428 90.1783 14.4428 89.825C14.4428 89.5117 14.4795 89.2483 14.5528 89.035C14.6295 88.8183 14.7311 88.6467 14.8578 88.52C14.9845 88.39 15.1278 88.2967 15.2878 88.24C15.4478 88.18 15.6111 88.15 15.7778 88.15C15.8945 88.15 16.0028 88.1617 16.1028 88.185C16.2061 88.2083 16.2895 88.2417 16.3528 88.285C16.4161 88.3283 16.4478 88.3817 16.4478 88.445ZM15.6128 90.98C15.8061 90.98 15.9645 90.9217 16.0878 90.805C16.2111 90.685 16.2728 90.5183 16.2728 90.305C16.2728 90.0883 16.2095 89.9283 16.0828 89.825C15.9595 89.7183 15.8061 89.665 15.6228 89.665C15.4395 89.665 15.2811 89.705 15.1478 89.785C15.0145 89.8617 14.9095 89.955 14.8328 90.065L14.8478 90.03C14.8478 90.3133 14.9145 90.5433 15.0478 90.72C15.1811 90.8933 15.3695 90.98 15.6128 90.98Z" fill="#A73C4C"/>
<path d="M40.8149 57.13H40.4099V55.6L39.7699 55.9C39.7265 55.8833 39.6899 55.8583 39.6599 55.825C39.6332 55.7917 39.6199 55.75 39.6199 55.7C39.6199 55.6033 39.6799 55.53 39.7999 55.48L40.4999 55.175H40.5949C40.6615 55.175 40.7149 55.195 40.7549 55.235C40.7949 55.275 40.8149 55.3283 40.8149 55.395V57.13ZM40.4099 56.93H40.8149V58.255C40.7949 58.2617 40.7682 58.2683 40.7349 58.275C40.7015 58.285 40.6649 58.29 40.6249 58.29C40.5549 58.29 40.5015 58.275 40.4649 58.245C40.4282 58.215 40.4099 58.1683 40.4099 58.105V56.93ZM42.6264 57.13H42.2214V55.6L41.5814 55.9C41.5381 55.8833 41.5014 55.8583 41.4714 55.825C41.4447 55.7917 41.4314 55.75 41.4314 55.7C41.4314 55.6033 41.4914 55.53 41.6114 55.48L42.3114 55.175H42.4064C42.4731 55.175 42.5264 55.195 42.5664 55.235C42.6064 55.275 42.6264 55.3283 42.6264 55.395V57.13ZM42.2214 56.93H42.6264V58.255C42.6064 58.2617 42.5797 58.2683 42.5464 58.275C42.5131 58.285 42.4764 58.29 42.4364 58.29C42.3664 58.29 42.3131 58.275 42.2764 58.245C42.2397 58.215 42.2214 58.1683 42.2214 58.105V56.93ZM44.2529 55.145C44.5696 55.145 44.8246 55.215 45.0179 55.355C45.2146 55.4917 45.3129 55.6983 45.3129 55.975C45.3129 56.1083 45.2846 56.2233 45.2279 56.32C45.1746 56.4133 45.1096 56.4867 45.0329 56.54C44.9596 56.5933 44.8929 56.6283 44.8329 56.645C44.9229 56.6717 45.0113 56.7183 45.0979 56.785C45.1846 56.8483 45.2563 56.9317 45.3129 57.035C45.3729 57.135 45.4029 57.2567 45.4029 57.4C45.4029 57.6 45.3546 57.7667 45.2579 57.9C45.1613 58.0333 45.0279 58.135 44.8579 58.205C44.6879 58.2717 44.4913 58.305 44.2679 58.305C44.0846 58.305 43.9213 58.2867 43.7779 58.25C43.6379 58.21 43.5279 58.16 43.4479 58.1C43.3679 58.04 43.3279 57.9767 43.3279 57.91C43.3279 57.8633 43.3396 57.8233 43.3629 57.79C43.3896 57.7567 43.4229 57.7283 43.4629 57.705C43.5496 57.7717 43.6546 57.8317 43.7779 57.885C43.9046 57.9383 44.0679 57.965 44.2679 57.965C44.4879 57.965 44.6663 57.9183 44.8029 57.825C44.9396 57.7283 45.0079 57.5833 45.0079 57.39C45.0079 57.22 44.9446 57.0833 44.8179 56.98C44.6913 56.8767 44.5079 56.825 44.2679 56.825H43.8529C43.8396 56.8083 43.8279 56.785 43.8179 56.755C43.8079 56.7217 43.8029 56.6883 43.8029 56.655C43.8029 56.6183 43.8079 56.585 43.8179 56.555C43.8279 56.525 43.8396 56.5017 43.8529 56.485H44.2329C44.4796 56.485 44.6546 56.44 44.7579 56.35C44.8646 56.2567 44.9179 56.135 44.9179 55.985C44.9179 55.8217 44.8579 55.6983 44.7379 55.615C44.6179 55.5283 44.4546 55.485 44.2479 55.485C44.0879 55.485 43.9463 55.51 43.8229 55.56C43.7029 55.6067 43.6029 55.6583 43.5229 55.715C43.4896 55.6983 43.4596 55.6717 43.4329 55.635C43.4063 55.5983 43.3929 55.5583 43.3929 55.515C43.3929 55.455 43.4313 55.3967 43.5079 55.34C43.5846 55.2833 43.6879 55.2367 43.8179 55.2C43.9479 55.1633 44.0929 55.145 44.2529 55.145Z" fill="#A73C4C"/>
<path d="M40.8149 86.13H40.4099V84.6L39.7699 84.9C39.7265 84.8833 39.6899 84.8583 39.6599 84.825C39.6332 84.7917 39.6199 84.75 39.6199 84.7C39.6199 84.6033 39.6799 84.53 39.7999 84.48L40.4999 84.175H40.5949C40.6615 84.175 40.7149 84.195 40.7549 84.235C40.7949 84.275 40.8149 84.3283 40.8149 84.395V86.13ZM40.4099 85.93H40.8149V87.255C40.7949 87.2617 40.7682 87.2683 40.7349 87.275C40.7015 87.285 40.6649 87.29 40.6249 87.29C40.5549 87.29 40.5015 87.275 40.4649 87.245C40.4282 87.215 40.4099 87.1683 40.4099 87.105V85.93ZM42.6264 86.13H42.2214V84.6L41.5814 84.9C41.5381 84.8833 41.5014 84.8583 41.4714 84.825C41.4447 84.7917 41.4314 84.75 41.4314 84.7C41.4314 84.6033 41.4914 84.53 41.6114 84.48L42.3114 84.175H42.4064C42.4731 84.175 42.5264 84.195 42.5664 84.235C42.6064 84.275 42.6264 84.3283 42.6264 84.395V86.13ZM42.2214 85.93H42.6264V87.255C42.6064 87.2617 42.5797 87.2683 42.5464 87.275C42.5131 87.285 42.4764 87.29 42.4364 87.29C42.3664 87.29 42.3131 87.275 42.2764 87.245C42.2397 87.215 42.2214 87.1683 42.2214 87.105V85.93ZM44.1635 84.21L44.0285 84.505L43.9435 85.45C44.0002 85.42 44.0785 85.3917 44.1785 85.365C44.2818 85.335 44.3902 85.32 44.5035 85.32C44.7035 85.32 44.8835 85.3583 45.0435 85.435C45.2035 85.5083 45.3302 85.6183 45.4235 85.765C45.5202 85.9083 45.5685 86.0867 45.5685 86.3C45.5685 86.4933 45.5235 86.6667 45.4335 86.82C45.3468 86.9733 45.2185 87.095 45.0485 87.185C44.8818 87.2717 44.6768 87.315 44.4335 87.315C44.2435 87.315 44.0768 87.2933 43.9335 87.25C43.7902 87.2067 43.6785 87.1533 43.5985 87.09C43.5185 87.0267 43.4785 86.965 43.4785 86.905C43.4785 86.8517 43.4952 86.805 43.5285 86.765C43.5652 86.725 43.6018 86.6983 43.6385 86.685C43.7118 86.7483 43.8152 86.8133 43.9485 86.88C44.0818 86.9467 44.2435 86.98 44.4335 86.98C44.6635 86.98 44.8418 86.9167 44.9685 86.79C45.0952 86.66 45.1585 86.4967 45.1585 86.3C45.1585 86.0967 45.0935 85.9383 44.9635 85.825C44.8335 85.7117 44.6635 85.655 44.4535 85.655C44.3368 85.655 44.2302 85.6733 44.1335 85.71C44.0368 85.7467 43.9468 85.7883 43.8635 85.835C43.7735 85.8283 43.7002 85.8017 43.6435 85.755C43.5902 85.705 43.5635 85.6417 43.5635 85.565C43.5635 85.545 43.5635 85.52 43.5635 85.49C43.5668 85.4567 43.5702 85.425 43.5735 85.395L43.6585 84.44C43.6652 84.37 43.6868 84.315 43.7235 84.275C43.7602 84.2317 43.8135 84.21 43.8835 84.21H44.1635ZM43.9535 84.55V84.21H45.4135C45.4235 84.2233 45.4335 84.245 45.4435 84.275C45.4535 84.305 45.4585 84.3367 45.4585 84.37C45.4585 84.4233 45.4452 84.4667 45.4185 84.5C45.3918 84.5333 45.3535 84.55 45.3035 84.55H43.9535Z" fill="#A73C4C"/>
<path d="M11.8149 42.13H11.4099V40.6L10.7699 40.9C10.7265 40.8833 10.6899 40.8583 10.6599 40.825C10.6332 40.7917 10.6199 40.75 10.6199 40.7C10.6199 40.6033 10.6799 40.53 10.7999 40.48L11.4999 40.175H11.5949C11.6615 40.175 11.7149 40.195 11.7549 40.235C11.7949 40.275 11.8149 40.3283 11.8149 40.395V42.13ZM11.4099 41.93H11.8149V43.255C11.7949 43.2617 11.7682 43.2683 11.7349 43.275C11.7015 43.285 11.6649 43.29 11.6249 43.29C11.5549 43.29 11.5015 43.275 11.4649 43.245C11.4282 43.215 11.4099 43.1683 11.4099 43.105V41.93ZM13.6264 42.13H13.2214V40.6L12.5814 40.9C12.5381 40.8833 12.5014 40.8583 12.4714 40.825C12.4447 40.7917 12.4314 40.75 12.4314 40.7C12.4314 40.6033 12.4914 40.53 12.6114 40.48L13.3114 40.175H13.4064C13.4731 40.175 13.5264 40.195 13.5664 40.235C13.6064 40.275 13.6264 40.3283 13.6264 40.395V42.13ZM13.2214 41.93H13.6264V43.255C13.6064 43.2617 13.5797 43.2683 13.5464 43.275C13.5131 43.285 13.4764 43.29 13.4364 43.29C13.3664 43.29 13.3131 43.275 13.2764 43.245C13.2397 43.215 13.2214 43.1683 13.2214 43.105V41.93ZM14.4773 40.525C14.4773 40.465 14.5157 40.4067 14.5923 40.35C14.669 40.29 14.7723 40.2417 14.9023 40.205C15.0323 40.1683 15.174 40.15 15.3273 40.15C15.5407 40.15 15.724 40.1867 15.8773 40.26C16.0307 40.33 16.149 40.43 16.2323 40.56C16.3157 40.69 16.3573 40.8433 16.3573 41.02C16.3573 41.2033 16.3057 41.3833 16.2023 41.56C16.1023 41.7367 15.929 41.9383 15.6823 42.165L14.8673 42.92H16.3523C16.3657 42.9333 16.3773 42.955 16.3873 42.985C16.3973 43.0117 16.4023 43.0433 16.4023 43.08C16.4023 43.1333 16.3873 43.175 16.3573 43.205C16.3307 43.235 16.294 43.25 16.2473 43.25H14.4823C14.449 43.2267 14.424 43.1983 14.4073 43.165C14.3907 43.1283 14.3823 43.09 14.3823 43.05C14.3823 42.9967 14.3923 42.95 14.4123 42.91C14.4323 42.8667 14.4623 42.8267 14.5023 42.79L15.4023 41.925C15.609 41.7317 15.7507 41.57 15.8273 41.44C15.904 41.3067 15.9423 41.1683 15.9423 41.025C15.9423 40.8683 15.889 40.74 15.7823 40.64C15.6757 40.54 15.514 40.49 15.2973 40.49C15.1507 40.49 15.019 40.515 14.9023 40.565C14.789 40.615 14.694 40.6683 14.6173 40.725C14.5807 40.7083 14.5473 40.6833 14.5173 40.65C14.4907 40.6167 14.4773 40.575 14.4773 40.525Z" fill="#A73C4C"/>
<path d="M68.8149 51.13H68.4099V49.6L67.7699 49.9C67.7265 49.8833 67.6899 49.8583 67.6599 49.825C67.6332 49.7917 67.6199 49.75 67.6199 49.7C67.6199 49.6033 67.6799 49.53 67.7999 49.48L68.4999 49.175H68.5949C68.6615 49.175 68.7149 49.195 68.7549 49.235C68.7949 49.275 68.8149 49.3283 68.8149 49.395V51.13ZM68.4099 50.93H68.8149V52.255C68.7949 52.2617 68.7682 52.2683 68.7349 52.275C68.7015 52.285 68.6649 52.29 68.6249 52.29C68.5549 52.29 68.5015 52.275 68.4649 52.245C68.4282 52.215 68.4099 52.1683 68.4099 52.105V50.93ZM70.787 52.315C70.5537 52.315 70.347 52.2583 70.167 52.145C69.9903 52.0283 69.852 51.8533 69.752 51.62C69.652 51.3833 69.602 51.0867 69.602 50.73C69.602 50.3467 69.6587 50.04 69.772 49.81C69.8853 49.58 70.032 49.4133 70.212 49.31C70.392 49.2033 70.5837 49.15 70.787 49.15C70.9937 49.15 71.187 49.2033 71.367 49.31C71.5503 49.4167 71.697 49.5867 71.807 49.82C71.9203 50.05 71.977 50.3533 71.977 50.73C71.977 51.0833 71.927 51.3783 71.827 51.615C71.727 51.8483 71.587 52.0233 71.407 52.14C71.2303 52.2567 71.0237 52.315 70.787 52.315ZM70.787 51.975C71.0337 51.975 71.2253 51.8683 71.362 51.655C71.4987 51.4383 71.567 51.13 71.567 50.73C71.567 50.4333 71.5303 50.195 71.457 50.015C71.387 49.8317 71.2937 49.6983 71.177 49.615C71.0603 49.5317 70.9303 49.49 70.787 49.49C70.647 49.49 70.517 49.5333 70.397 49.62C70.2803 49.7033 70.187 49.8367 70.117 50.02C70.047 50.2033 70.012 50.44 70.012 50.73C70.012 51.13 70.0803 51.4383 70.217 51.655C70.3537 51.8683 70.5437 51.975 70.787 51.975ZM72.4634 49.21H74.2634C74.3001 49.23 74.3284 49.2583 74.3484 49.295C74.3684 49.3283 74.3784 49.3667 74.3784 49.41C74.3784 49.4433 74.3734 49.4767 74.3634 49.51C74.3568 49.5433 74.3434 49.58 74.3234 49.62L73.0684 52.27C73.0484 52.2733 73.0284 52.275 73.0084 52.275C72.9918 52.275 72.9734 52.275 72.9534 52.275C72.8901 52.275 72.8351 52.26 72.7884 52.23C72.7418 52.1967 72.7184 52.1517 72.7184 52.095C72.7184 52.055 72.7268 52.0167 72.7434 51.98C72.7601 51.94 72.7801 51.895 72.8034 51.845L73.9334 49.55H72.3534C72.3434 49.5333 72.3334 49.5117 72.3234 49.485C72.3134 49.455 72.3084 49.4233 72.3084 49.39C72.3084 49.3333 72.3218 49.29 72.3484 49.26C72.3751 49.2267 72.4134 49.21 72.4634 49.21ZM74.7635 50.64C74.7635 50.25 74.8018 49.9183 74.8785 49.645C74.9585 49.3683 75.0801 49.1483 75.2435 48.985C75.4101 48.8183 75.6235 48.7067 75.8835 48.65C76.1001 48.6033 76.3118 48.5617 76.5185 48.525C76.7251 48.4883 76.9185 48.455 77.0985 48.425L77.1735 48.81C77.0868 48.8233 76.9901 48.84 76.8835 48.86C76.7768 48.8767 76.6685 48.895 76.5585 48.915C76.4485 48.9317 76.3418 48.95 76.2385 48.97C76.1385 48.9867 76.0501 49.0033 75.9735 49.02C75.8635 49.0433 75.7651 49.0833 75.6785 49.14C75.5918 49.1933 75.5168 49.2667 75.4535 49.36C75.3935 49.4533 75.3451 49.5683 75.3085 49.705C75.2718 49.8417 75.2501 50.0033 75.2435 50.19H75.2735C75.3201 50.1267 75.3835 50.0617 75.4635 49.995C75.5468 49.9283 75.6451 49.8717 75.7585 49.825C75.8751 49.7783 76.0068 49.755 76.1535 49.755C76.3868 49.755 76.5801 49.8067 76.7335 49.91C76.8901 50.01 77.0068 50.15 77.0835 50.33C77.1635 50.51 77.2035 50.72 77.2035 50.96C77.2035 51.2567 77.1518 51.505 77.0485 51.705C76.9451 51.905 76.8018 52.055 76.6185 52.155C76.4351 52.2517 76.2218 52.3 75.9785 52.3C75.7951 52.3 75.6285 52.265 75.4785 52.195C75.3285 52.1217 75.2001 52.015 75.0935 51.875C74.9868 51.735 74.9051 51.5617 74.8485 51.355C74.7918 51.1483 74.7635 50.91 74.7635 50.64ZM76.0135 51.935C76.1601 51.935 76.2868 51.905 76.3935 51.845C76.5035 51.785 76.5885 51.6867 76.6485 51.55C76.7085 51.4133 76.7385 51.2317 76.7385 51.005C76.7385 50.7317 76.6868 50.5167 76.5835 50.36C76.4835 50.2 76.3168 50.12 76.0835 50.12C75.9368 50.12 75.8035 50.1533 75.6835 50.22C75.5635 50.2833 75.4635 50.3567 75.3835 50.44C75.3035 50.5233 75.2468 50.5933 75.2135 50.65C75.2135 50.8133 75.2251 50.9717 75.2485 51.125C75.2718 51.2783 75.3118 51.4167 75.3685 51.54C75.4285 51.66 75.5101 51.7567 75.6135 51.83C75.7201 51.9 75.8535 51.935 76.0135 51.935Z" fill="#A73C4C"/>
<path d="M140.991 14.7141L140.64 14.5116L141.405 13.1866L140.701 13.1264C140.671 13.0903 140.652 13.0503 140.643 13.0064C140.636 12.9642 140.646 12.9215 140.671 12.8782C140.719 12.7945 140.808 12.7609 140.937 12.7776L141.695 12.8635L141.778 12.911C141.835 12.9443 141.872 12.9883 141.886 13.043C141.901 13.0976 141.891 13.1538 141.858 13.2115L140.991 14.7141ZM140.74 14.3384L141.091 14.5409L140.428 15.6884C140.407 15.6841 140.381 15.6766 140.349 15.6657C140.315 15.6577 140.281 15.6437 140.246 15.6237C140.185 15.5887 140.147 15.549 140.13 15.5047C140.113 15.4604 140.121 15.4108 140.152 15.356L140.74 14.3384ZM142.106 16.7264C141.904 16.6097 141.753 16.4573 141.654 16.2692C141.559 16.0798 141.527 15.8591 141.557 15.607C141.589 15.352 141.694 15.0701 141.872 14.7612C142.064 14.4293 142.266 14.192 142.479 14.0495C142.693 13.907 142.903 13.836 143.111 13.8365C143.32 13.8341 143.512 13.8837 143.689 13.9854C143.867 14.0887 144.008 14.2316 144.111 14.414C144.216 14.598 144.258 14.8186 144.237 15.0757C144.22 15.3315 144.117 15.6225 143.929 15.9487C143.752 16.2547 143.562 16.4852 143.357 16.6402C143.153 16.7922 142.945 16.8738 142.73 16.8848C142.519 16.8975 142.311 16.8447 142.106 16.7264ZM142.276 16.4319C142.49 16.5553 142.709 16.5587 142.934 16.4423C143.161 16.323 143.374 16.0901 143.574 15.7437C143.722 15.4868 143.81 15.2621 143.836 15.0695C143.867 14.8758 143.853 14.7136 143.794 14.5831C143.734 14.4526 143.643 14.3515 143.519 14.2799C143.397 14.2099 143.263 14.1824 143.116 14.1974C142.973 14.2113 142.826 14.2801 142.673 14.4039C142.521 14.5276 142.372 14.7151 142.227 14.9662C142.027 15.3126 141.932 15.6138 141.942 15.8698C141.954 16.1229 142.065 16.3103 142.276 16.4319ZM145.806 15.2774L145.542 15.4654L144.996 16.2413C145.06 16.2436 145.142 16.2582 145.242 16.2852C145.346 16.3108 145.448 16.352 145.546 16.4087C145.719 16.5087 145.856 16.6319 145.956 16.7783C146.058 16.9218 146.112 17.0804 146.12 17.2541C146.132 17.4265 146.085 17.6051 145.978 17.7899C145.881 17.9573 145.756 18.0849 145.601 18.1727C145.449 18.2622 145.277 18.3034 145.085 18.2963C144.898 18.288 144.698 18.2231 144.488 18.1014C144.323 18.0064 144.19 17.9043 144.087 17.7951C143.985 17.6859 143.915 17.5839 143.877 17.489C143.839 17.3942 143.836 17.3208 143.866 17.2688C143.892 17.2226 143.93 17.1906 143.979 17.1726C144.031 17.1563 144.076 17.1515 144.114 17.1583C144.146 17.2498 144.203 17.3578 144.285 17.4822C144.367 17.6066 144.491 17.7163 144.655 17.8113C144.854 17.9263 145.04 17.9606 145.213 17.9142C145.388 17.865 145.525 17.7552 145.623 17.5849C145.725 17.4088 145.748 17.2392 145.692 17.076C145.636 16.9129 145.517 16.7788 145.335 16.6738C145.234 16.6155 145.132 16.578 145.03 16.5614C144.928 16.5449 144.829 16.5359 144.734 16.5347C144.659 16.4839 144.609 16.4242 144.583 16.3554C144.562 16.2854 144.571 16.2173 144.609 16.1509C144.619 16.1335 144.632 16.1119 144.647 16.0859C144.666 16.0587 144.685 16.0329 144.703 16.0086L145.254 15.2241C145.295 15.1668 145.341 15.13 145.393 15.1137C145.446 15.0945 145.503 15.1024 145.564 15.1374L145.806 15.2774ZM145.454 15.4668L145.624 15.1724L146.889 15.9024C146.891 15.9189 146.889 15.9427 146.882 15.9737C146.876 16.0047 146.864 16.0346 146.848 16.0635C146.821 16.1096 146.788 16.1405 146.748 16.156C146.708 16.1716 146.667 16.1668 146.624 16.1418L145.454 15.4668Z" fill="#A73C4C"/>
<path d="M156.561 12.354H156.237V11.13L155.725 11.37C155.69 11.3567 155.661 11.3367 155.637 11.31C155.616 11.2833 155.605 11.25 155.605 11.21C155.605 11.1327 155.653 11.074 155.749 11.034L156.309 10.79H156.385C156.438 10.79 156.481 10.806 156.513 10.838C156.545 10.87 156.561 10.9127 156.561 10.966V12.354ZM156.237 12.194H156.561V13.254C156.545 13.2593 156.524 13.2647 156.497 13.27C156.47 13.278 156.441 13.282 156.409 13.282C156.353 13.282 156.31 13.27 156.281 13.246C156.252 13.222 156.237 13.1847 156.237 13.134V12.194ZM158.139 13.302C157.952 13.302 157.787 13.2567 157.643 13.166C157.501 13.0727 157.391 12.9327 157.311 12.746C157.231 12.5567 157.191 12.3193 157.191 12.034C157.191 11.7273 157.236 11.482 157.327 11.298C157.417 11.114 157.535 10.9807 157.679 10.898C157.823 10.8127 157.976 10.77 158.139 10.77C158.304 10.77 158.459 10.8127 158.603 10.898C158.749 10.9833 158.867 11.1193 158.955 11.306C159.045 11.49 159.091 11.7327 159.091 12.034C159.091 12.3167 159.051 12.5527 158.971 12.742C158.891 12.9287 158.779 13.0687 158.635 13.162C158.493 13.2553 158.328 13.302 158.139 13.302ZM158.139 13.03C158.336 13.03 158.489 12.9447 158.599 12.774C158.708 12.6007 158.763 12.354 158.763 12.034C158.763 11.7967 158.733 11.606 158.675 11.462C158.619 11.3153 158.544 11.2087 158.451 11.142C158.357 11.0753 158.253 11.042 158.139 11.042C158.027 11.042 157.923 11.0767 157.827 11.146C157.733 11.2127 157.659 11.3193 157.603 11.466C157.547 11.6127 157.519 11.802 157.519 12.034C157.519 12.354 157.573 12.6007 157.683 12.774C157.792 12.9447 157.944 13.03 158.139 13.03ZM159.454 12.358L160.618 10.814C160.642 10.8087 160.669 10.8047 160.698 10.802C160.73 10.7967 160.758 10.794 160.782 10.794C160.819 10.794 160.854 10.7993 160.886 10.81C160.921 10.8207 160.949 10.8407 160.97 10.87C160.991 10.8967 161.002 10.9367 161.002 10.99V12.39H161.402C161.41 12.4033 161.418 12.422 161.426 12.446C161.434 12.4673 161.438 12.4927 161.438 12.522C161.438 12.5647 161.427 12.598 161.406 12.622C161.385 12.646 161.354 12.658 161.314 12.658H161.002V13.258C160.989 13.2607 160.969 13.2647 160.942 13.27C160.918 13.278 160.891 13.282 160.862 13.282C160.806 13.282 160.763 13.27 160.734 13.246C160.705 13.222 160.69 13.1873 160.69 13.142V12.658H159.534C159.507 12.6447 159.483 12.6207 159.462 12.586C159.443 12.5513 159.434 12.5127 159.434 12.47C159.434 12.446 159.435 12.426 159.438 12.41C159.443 12.3913 159.449 12.374 159.454 12.358ZM160.694 12.39L160.702 11.13H160.694L159.806 12.39H160.694Z" fill="#A73C4C"/>
<path d="M166.815 16.13H166.41V14.6L165.77 14.9C165.727 14.8833 165.69 14.8583 165.66 14.825C165.633 14.7917 165.62 14.75 165.62 14.7C165.62 14.6033 165.68 14.53 165.8 14.48L166.5 14.175H166.595C166.662 14.175 166.715 14.195 166.755 14.235C166.795 14.275 166.815 14.3283 166.815 14.395V16.13ZM166.41 15.93H166.815V17.255C166.795 17.2617 166.768 17.2683 166.735 17.275C166.702 17.285 166.665 17.29 166.625 17.29C166.555 17.29 166.502 17.275 166.465 17.245C166.428 17.215 166.41 17.1683 166.41 17.105V15.93ZM168.787 17.315C168.554 17.315 168.347 17.2583 168.167 17.145C167.99 17.0283 167.852 16.8533 167.752 16.62C167.652 16.3833 167.602 16.0867 167.602 15.73C167.602 15.3467 167.659 15.04 167.772 14.81C167.885 14.58 168.032 14.4133 168.212 14.31C168.392 14.2033 168.584 14.15 168.787 14.15C168.994 14.15 169.187 14.2033 169.367 14.31C169.55 14.4167 169.697 14.5867 169.807 14.82C169.92 15.05 169.977 15.3533 169.977 15.73C169.977 16.0833 169.927 16.3783 169.827 16.615C169.727 16.8483 169.587 17.0233 169.407 17.14C169.23 17.2567 169.024 17.315 168.787 17.315ZM168.787 16.975C169.034 16.975 169.225 16.8683 169.362 16.655C169.499 16.4383 169.567 16.13 169.567 15.73C169.567 15.4333 169.53 15.195 169.457 15.015C169.387 14.8317 169.294 14.6983 169.177 14.615C169.06 14.5317 168.93 14.49 168.787 14.49C168.647 14.49 168.517 14.5333 168.397 14.62C168.28 14.7033 168.187 14.8367 168.117 15.02C168.047 15.2033 168.012 15.44 168.012 15.73C168.012 16.13 168.08 16.4383 168.217 16.655C168.354 16.8683 168.544 16.975 168.787 16.975ZM171.293 14.145C171.61 14.145 171.865 14.215 172.058 14.355C172.255 14.4917 172.353 14.6983 172.353 14.975C172.353 15.1083 172.325 15.2233 172.268 15.32C172.215 15.4133 172.15 15.4867 172.073 15.54C172 15.5933 171.933 15.6283 171.873 15.645C171.963 15.6717 172.051 15.7183 172.138 15.785C172.225 15.8483 172.296 15.9317 172.353 16.035C172.413 16.135 172.443 16.2567 172.443 16.4C172.443 16.6 172.395 16.7667 172.298 16.9C172.201 17.0333 172.068 17.135 171.898 17.205C171.728 17.2717 171.531 17.305 171.308 17.305C171.125 17.305 170.961 17.2867 170.818 17.25C170.678 17.21 170.568 17.16 170.488 17.1C170.408 17.04 170.368 16.9767 170.368 16.91C170.368 16.8633 170.38 16.8233 170.403 16.79C170.43 16.7567 170.463 16.7283 170.503 16.705C170.59 16.7717 170.695 16.8317 170.818 16.885C170.945 16.9383 171.108 16.965 171.308 16.965C171.528 16.965 171.706 16.9183 171.843 16.825C171.98 16.7283 172.048 16.5833 172.048 16.39C172.048 16.22 171.985 16.0833 171.858 15.98C171.731 15.8767 171.548 15.825 171.308 15.825H170.893C170.88 15.8083 170.868 15.785 170.858 15.755C170.848 15.7217 170.843 15.6883 170.843 15.655C170.843 15.6183 170.848 15.585 170.858 15.555C170.868 15.525 170.88 15.5017 170.893 15.485H171.273C171.52 15.485 171.695 15.44 171.798 15.35C171.905 15.2567 171.958 15.135 171.958 14.985C171.958 14.8217 171.898 14.6983 171.778 14.615C171.658 14.5283 171.495 14.485 171.288 14.485C171.128 14.485 170.986 14.51 170.863 14.56C170.743 14.6067 170.643 14.6583 170.563 14.715C170.53 14.6983 170.5 14.6717 170.473 14.635C170.446 14.5983 170.433 14.5583 170.433 14.515C170.433 14.455 170.471 14.3967 170.548 14.34C170.625 14.2833 170.728 14.2367 170.858 14.2C170.988 14.1633 171.133 14.145 171.293 14.145Z" fill="#A73C4C"/>
<path d="M167.815 127.13H167.41V125.6L166.77 125.9C166.727 125.883 166.69 125.858 166.66 125.825C166.633 125.792 166.62 125.75 166.62 125.7C166.62 125.603 166.68 125.53 166.8 125.48L167.5 125.175H167.595C167.662 125.175 167.715 125.195 167.755 125.235C167.795 125.275 167.815 125.328 167.815 125.395V127.13ZM167.41 126.93H167.815V128.255C167.795 128.262 167.768 128.268 167.735 128.275C167.702 128.285 167.665 128.29 167.625 128.29C167.555 128.29 167.502 128.275 167.465 128.245C167.428 128.215 167.41 128.168 167.41 128.105V126.93ZM169.787 128.315C169.554 128.315 169.347 128.258 169.167 128.145C168.99 128.028 168.852 127.853 168.752 127.62C168.652 127.383 168.602 127.087 168.602 126.73C168.602 126.347 168.659 126.04 168.772 125.81C168.885 125.58 169.032 125.413 169.212 125.31C169.392 125.203 169.584 125.15 169.787 125.15C169.994 125.15 170.187 125.203 170.367 125.31C170.55 125.417 170.697 125.587 170.807 125.82C170.92 126.05 170.977 126.353 170.977 126.73C170.977 127.083 170.927 127.378 170.827 127.615C170.727 127.848 170.587 128.023 170.407 128.14C170.23 128.257 170.024 128.315 169.787 128.315ZM169.787 127.975C170.034 127.975 170.225 127.868 170.362 127.655C170.499 127.438 170.567 127.13 170.567 126.73C170.567 126.433 170.53 126.195 170.457 126.015C170.387 125.832 170.294 125.698 170.177 125.615C170.06 125.532 169.93 125.49 169.787 125.49C169.647 125.49 169.517 125.533 169.397 125.62C169.28 125.703 169.187 125.837 169.117 126.02C169.047 126.203 169.012 126.44 169.012 126.73C169.012 127.13 169.08 127.438 169.217 127.655C169.354 127.868 169.544 127.975 169.787 127.975ZM171.527 125.525C171.527 125.465 171.565 125.407 171.642 125.35C171.719 125.29 171.822 125.242 171.952 125.205C172.082 125.168 172.224 125.15 172.377 125.15C172.59 125.15 172.774 125.187 172.927 125.26C173.08 125.33 173.199 125.43 173.282 125.56C173.365 125.69 173.407 125.843 173.407 126.02C173.407 126.203 173.355 126.383 173.252 126.56C173.152 126.737 172.979 126.938 172.732 127.165L171.917 127.92H173.402C173.415 127.933 173.427 127.955 173.437 127.985C173.447 128.012 173.452 128.043 173.452 128.08C173.452 128.133 173.437 128.175 173.407 128.205C173.38 128.235 173.344 128.25 173.297 128.25H171.532C171.499 128.227 171.474 128.198 171.457 128.165C171.44 128.128 171.432 128.09 171.432 128.05C171.432 127.997 171.442 127.95 171.462 127.91C171.482 127.867 171.512 127.827 171.552 127.79L172.452 126.925C172.659 126.732 172.8 126.57 172.877 126.44C172.954 126.307 172.992 126.168 172.992 126.025C172.992 125.868 172.939 125.74 172.832 125.64C172.725 125.54 172.564 125.49 172.347 125.49C172.2 125.49 172.069 125.515 171.952 125.565C171.839 125.615 171.744 125.668 171.667 125.725C171.63 125.708 171.597 125.683 171.567 125.65C171.54 125.617 171.527 125.575 171.527 125.525Z" fill="#A73C4C"/>
<path d="M131.815 128.13H131.41V126.6L130.77 126.9C130.727 126.883 130.69 126.858 130.66 126.825C130.633 126.792 130.62 126.75 130.62 126.7C130.62 126.603 130.68 126.53 130.8 126.48L131.5 126.175H131.595C131.662 126.175 131.715 126.195 131.755 126.235C131.795 126.275 131.815 126.328 131.815 126.395V128.13ZM131.41 127.93H131.815V129.255C131.795 129.262 131.768 129.268 131.735 129.275C131.702 129.285 131.665 129.29 131.625 129.29C131.555 129.29 131.502 129.275 131.465 129.245C131.428 129.215 131.41 129.168 131.41 129.105V127.93ZM133.787 129.315C133.554 129.315 133.347 129.258 133.167 129.145C132.99 129.028 132.852 128.853 132.752 128.62C132.652 128.383 132.602 128.087 132.602 127.73C132.602 127.347 132.659 127.04 132.772 126.81C132.885 126.58 133.032 126.413 133.212 126.31C133.392 126.203 133.584 126.15 133.787 126.15C133.994 126.15 134.187 126.203 134.367 126.31C134.55 126.417 134.697 126.587 134.807 126.82C134.92 127.05 134.977 127.353 134.977 127.73C134.977 128.083 134.927 128.378 134.827 128.615C134.727 128.848 134.587 129.023 134.407 129.14C134.23 129.257 134.024 129.315 133.787 129.315ZM133.787 128.975C134.034 128.975 134.225 128.868 134.362 128.655C134.499 128.438 134.567 128.13 134.567 127.73C134.567 127.433 134.53 127.195 134.457 127.015C134.387 126.832 134.294 126.698 134.177 126.615C134.06 126.532 133.93 126.49 133.787 126.49C133.647 126.49 133.517 126.533 133.397 126.62C133.28 126.703 133.187 126.837 133.117 127.02C133.047 127.203 133.012 127.44 133.012 127.73C133.012 128.13 133.08 128.438 133.217 128.655C133.354 128.868 133.544 128.975 133.787 128.975ZM136.468 128.13H136.063V126.6L135.423 126.9C135.38 126.883 135.343 126.858 135.313 126.825C135.287 126.792 135.273 126.75 135.273 126.7C135.273 126.603 135.333 126.53 135.453 126.48L136.153 126.175H136.248C136.315 126.175 136.368 126.195 136.408 126.235C136.448 126.275 136.468 126.328 136.468 126.395V128.13ZM136.063 127.93H136.468V129.255C136.448 129.262 136.422 129.268 136.388 129.275C136.355 129.285 136.318 129.29 136.278 129.29C136.208 129.29 136.155 129.275 136.118 129.245C136.082 129.215 136.063 129.168 136.063 129.105V127.93Z" fill="#A73C4C"/>
<path d="M105.815 51.13H105.41V49.6L104.77 49.9C104.727 49.8833 104.69 49.8583 104.66 49.825C104.633 49.7917 104.62 49.75 104.62 49.7C104.62 49.6033 104.68 49.53 104.8 49.48L105.5 49.175H105.595C105.662 49.175 105.715 49.195 105.755 49.235C105.795 49.275 105.815 49.3283 105.815 49.395V51.13ZM105.41 50.93H105.815V52.255C105.795 52.2617 105.768 52.2683 105.735 52.275C105.702 52.285 105.665 52.29 105.625 52.29C105.555 52.29 105.502 52.275 105.465 52.245C105.428 52.215 105.41 52.1683 105.41 52.105V50.93ZM107.787 52.315C107.554 52.315 107.347 52.2583 107.167 52.145C106.99 52.0283 106.852 51.8533 106.752 51.62C106.652 51.3833 106.602 51.0867 106.602 50.73C106.602 50.3467 106.659 50.04 106.772 49.81C106.885 49.58 107.032 49.4133 107.212 49.31C107.392 49.2033 107.584 49.15 107.787 49.15C107.994 49.15 108.187 49.2033 108.367 49.31C108.55 49.4167 108.697 49.5867 108.807 49.82C108.92 50.05 108.977 50.3533 108.977 50.73C108.977 51.0833 108.927 51.3783 108.827 51.615C108.727 51.8483 108.587 52.0233 108.407 52.14C108.23 52.2567 108.024 52.315 107.787 52.315ZM107.787 51.975C108.034 51.975 108.225 51.8683 108.362 51.655C108.499 51.4383 108.567 51.13 108.567 50.73C108.567 50.4333 108.53 50.195 108.457 50.015C108.387 49.8317 108.294 49.6983 108.177 49.615C108.06 49.5317 107.93 49.49 107.787 49.49C107.647 49.49 107.517 49.5333 107.397 49.62C107.28 49.7033 107.187 49.8367 107.117 50.02C107.047 50.2033 107.012 50.44 107.012 50.73C107.012 51.13 107.08 51.4383 107.217 51.655C107.354 51.8683 107.544 51.975 107.787 51.975ZM109.463 49.21H111.263C111.3 49.23 111.328 49.2583 111.348 49.295C111.368 49.3283 111.378 49.3667 111.378 49.41C111.378 49.4433 111.373 49.4767 111.363 49.51C111.357 49.5433 111.343 49.58 111.323 49.62L110.068 52.27C110.048 52.2733 110.028 52.275 110.008 52.275C109.992 52.275 109.973 52.275 109.953 52.275C109.89 52.275 109.835 52.26 109.788 52.23C109.742 52.1967 109.718 52.1517 109.718 52.095C109.718 52.055 109.727 52.0167 109.743 51.98C109.76 51.94 109.78 51.895 109.803 51.845L110.933 49.55H109.353C109.343 49.5333 109.333 49.5117 109.323 49.485C109.313 49.455 109.308 49.4233 109.308 49.39C109.308 49.3333 109.322 49.29 109.348 49.26C109.375 49.2267 109.413 49.21 109.463 49.21ZM112.918 49.525C113.245 49.525 113.487 49.5967 113.643 49.74C113.8 49.8833 113.878 50.1117 113.878 50.425V52.25H113.558L113.473 51.87H113.453C113.377 51.9667 113.297 52.0483 113.213 52.115C113.133 52.1783 113.04 52.225 112.933 52.255C112.83 52.285 112.703 52.3 112.553 52.3C112.393 52.3 112.248 52.2717 112.118 52.215C111.992 52.1583 111.892 52.0717 111.818 51.955C111.745 51.835 111.708 51.685 111.708 51.505C111.708 51.2383 111.813 51.0333 112.023 50.89C112.233 50.7433 112.557 50.6633 112.993 50.65L113.448 50.635V50.475C113.448 50.2517 113.4 50.0967 113.303 50.01C113.207 49.9233 113.07 49.88 112.893 49.88C112.753 49.88 112.62 49.9017 112.493 49.945C112.367 49.985 112.248 50.0317 112.138 50.085L112.003 49.755C112.12 49.6917 112.258 49.6383 112.418 49.595C112.578 49.5483 112.745 49.525 112.918 49.525ZM113.048 50.955C112.715 50.9683 112.483 51.0217 112.353 51.115C112.227 51.2083 112.163 51.34 112.163 51.51C112.163 51.66 112.208 51.77 112.298 51.84C112.392 51.91 112.51 51.945 112.653 51.945C112.88 51.945 113.068 51.8833 113.218 51.76C113.368 51.6333 113.443 51.44 113.443 51.18V50.94L113.048 50.955Z" fill="#A73C4C"/>
<path d="M48.8149 16.13H48.4099V14.6L47.7699 14.9C47.7265 14.8833 47.6899 14.8583 47.6599 14.825C47.6332 14.7917 47.6199 14.75 47.6199 14.7C47.6199 14.6033 47.6799 14.53 47.7999 14.48L48.4999 14.175H48.5949C48.6615 14.175 48.7149 14.195 48.7549 14.235C48.7949 14.275 48.8149 14.3283 48.8149 14.395V16.13ZM48.4099 15.93H48.8149V17.255C48.7949 17.2617 48.7682 17.2683 48.7349 17.275C48.7015 17.285 48.6649 17.29 48.6249 17.29C48.5549 17.29 48.5015 17.275 48.4649 17.245C48.4282 17.215 48.4099 17.1683 48.4099 17.105V15.93ZM50.787 17.315C50.5537 17.315 50.347 17.2583 50.167 17.145C49.9903 17.0283 49.852 16.8533 49.752 16.62C49.652 16.3833 49.602 16.0867 49.602 15.73C49.602 15.3467 49.6587 15.04 49.772 14.81C49.8853 14.58 50.032 14.4133 50.212 14.31C50.392 14.2033 50.5837 14.15 50.787 14.15C50.9937 14.15 51.187 14.2033 51.367 14.31C51.5503 14.4167 51.697 14.5867 51.807 14.82C51.9203 15.05 51.977 15.3533 51.977 15.73C51.977 16.0833 51.927 16.3783 51.827 16.615C51.727 16.8483 51.587 17.0233 51.407 17.14C51.2303 17.2567 51.0237 17.315 50.787 17.315ZM50.787 16.975C51.0337 16.975 51.2253 16.8683 51.362 16.655C51.4987 16.4383 51.567 16.13 51.567 15.73C51.567 15.4333 51.5303 15.195 51.457 15.015C51.387 14.8317 51.2937 14.6983 51.177 14.615C51.0603 14.5317 50.9303 14.49 50.787 14.49C50.647 14.49 50.517 14.5333 50.397 14.62C50.2803 14.7033 50.187 14.8367 50.117 15.02C50.047 15.2033 50.012 15.44 50.012 15.73C50.012 16.13 50.0803 16.4383 50.217 16.655C50.3537 16.8683 50.5437 16.975 50.787 16.975ZM53.672 17.315C53.4454 17.315 53.247 17.2817 53.077 17.215C52.907 17.145 52.7754 17.045 52.682 16.915C52.5887 16.785 52.542 16.6283 52.542 16.445C52.542 16.2817 52.5787 16.1433 52.652 16.03C52.7287 15.9133 52.8254 15.82 52.942 15.75C53.0587 15.68 53.1804 15.6333 53.307 15.61L53.607 15.56C53.847 15.5133 54.027 15.445 54.147 15.355C54.267 15.2617 54.327 15.1383 54.327 14.985C54.327 14.8283 54.2687 14.7067 54.152 14.62C54.0354 14.53 53.8754 14.485 53.672 14.485C53.4754 14.485 53.317 14.53 53.197 14.62C53.077 14.71 53.017 14.83 53.017 14.98C53.017 15.1067 53.0504 15.2083 53.117 15.285C53.187 15.3617 53.2787 15.42 53.392 15.46C53.5087 15.4967 53.6354 15.5217 53.772 15.535L53.992 15.61C54.1287 15.6367 54.2587 15.685 54.382 15.755C54.5054 15.8217 54.6054 15.9117 54.682 16.025C54.7587 16.1383 54.797 16.28 54.797 16.45C54.797 16.63 54.7487 16.785 54.652 16.915C54.5587 17.045 54.427 17.145 54.257 17.215C54.0904 17.2817 53.8954 17.315 53.672 17.315ZM53.672 16.98C53.8887 16.98 54.0637 16.9333 54.197 16.84C54.3304 16.7467 54.397 16.6117 54.397 16.435C54.397 16.2417 54.3154 16.0883 54.152 15.975C53.992 15.8617 53.777 15.7967 53.507 15.78L53.252 15.705C53.0587 15.6517 52.9037 15.565 52.787 15.445C52.6737 15.325 52.617 15.1683 52.617 14.975C52.617 14.805 52.6604 14.6583 52.747 14.535C52.837 14.4117 52.9604 14.3167 53.117 14.25C53.277 14.1833 53.462 14.15 53.672 14.15C53.9987 14.15 54.2554 14.225 54.442 14.375C54.632 14.5217 54.727 14.725 54.727 14.985C54.727 15.195 54.6554 15.36 54.512 15.48C54.372 15.6 54.2004 15.6783 53.997 15.715L53.657 15.785C53.4437 15.8183 53.2704 15.8917 53.137 16.005C53.007 16.115 52.942 16.26 52.942 16.44C52.942 16.61 53.007 16.7433 53.137 16.84C53.267 16.9333 53.4454 16.98 53.672 16.98Z" fill="#A73C4C"/>
<path d="M93.8149 16.13H93.4099V14.6L92.7699 14.9C92.7265 14.8833 92.6899 14.8583 92.6599 14.825C92.6332 14.7917 92.6199 14.75 92.6199 14.7C92.6199 14.6033 92.6799 14.53 92.7999 14.48L93.4999 14.175H93.5949C93.6615 14.175 93.7149 14.195 93.7549 14.235C93.7949 14.275 93.8149 14.3283 93.8149 14.395V16.13ZM93.4099 15.93H93.8149V17.255C93.7949 17.2617 93.7682 17.2683 93.7349 17.275C93.7015 17.285 93.6649 17.29 93.6249 17.29C93.5549 17.29 93.5015 17.275 93.4649 17.245C93.4282 17.215 93.4099 17.1683 93.4099 17.105V15.93ZM95.787 17.315C95.5537 17.315 95.347 17.2583 95.167 17.145C94.9903 17.0283 94.852 16.8533 94.752 16.62C94.652 16.3833 94.602 16.0867 94.602 15.73C94.602 15.3467 94.6587 15.04 94.772 14.81C94.8853 14.58 95.032 14.4133 95.212 14.31C95.392 14.2033 95.5837 14.15 95.787 14.15C95.9937 14.15 96.187 14.2033 96.367 14.31C96.5503 14.4167 96.697 14.5867 96.807 14.82C96.9203 15.05 96.977 15.3533 96.977 15.73C96.977 16.0833 96.927 16.3783 96.827 16.615C96.727 16.8483 96.587 17.0233 96.407 17.14C96.2303 17.2567 96.0237 17.315 95.787 17.315ZM95.787 16.975C96.0337 16.975 96.2253 16.8683 96.362 16.655C96.4987 16.4383 96.567 16.13 96.567 15.73C96.567 15.4333 96.5303 15.195 96.457 15.015C96.387 14.8317 96.2937 14.6983 96.177 14.615C96.0603 14.5317 95.9303 14.49 95.787 14.49C95.647 14.49 95.517 14.5333 95.397 14.62C95.2803 14.7033 95.187 14.8367 95.117 15.02C95.047 15.2033 95.012 15.44 95.012 15.73C95.012 16.13 95.0803 16.4383 95.217 16.655C95.3537 16.8683 95.5437 16.975 95.787 16.975ZM97.4634 14.21H99.2634C99.3001 14.23 99.3284 14.2583 99.3484 14.295C99.3684 14.3283 99.3784 14.3667 99.3784 14.41C99.3784 14.4433 99.3734 14.4767 99.3634 14.51C99.3568 14.5433 99.3434 14.58 99.3234 14.62L98.0684 17.27C98.0484 17.2733 98.0284 17.275 98.0084 17.275C97.9918 17.275 97.9734 17.275 97.9534 17.275C97.8901 17.275 97.8351 17.26 97.7884 17.23C97.7418 17.1967 97.7184 17.1517 97.7184 17.095C97.7184 17.055 97.7268 17.0167 97.7434 16.98C97.7601 16.94 97.7801 16.895 97.8034 16.845L98.9334 14.55H97.3534C97.3434 14.5333 97.3334 14.5117 97.3234 14.485C97.3134 14.455 97.3084 14.4233 97.3084 14.39C97.3084 14.3333 97.3218 14.29 97.3484 14.26C97.3751 14.2267 97.4134 14.21 97.4634 14.21Z" fill="#A73C4C"/>
<path d="M128.815 16.13H128.41V14.6L127.77 14.9C127.727 14.8833 127.69 14.8583 127.66 14.825C127.633 14.7917 127.62 14.75 127.62 14.7C127.62 14.6033 127.68 14.53 127.8 14.48L128.5 14.175H128.595C128.662 14.175 128.715 14.195 128.755 14.235C128.795 14.275 128.815 14.3283 128.815 14.395V16.13ZM128.41 15.93H128.815V17.255C128.795 17.2617 128.768 17.2683 128.735 17.275C128.702 17.285 128.665 17.29 128.625 17.29C128.555 17.29 128.502 17.275 128.465 17.245C128.428 17.215 128.41 17.1683 128.41 17.105V15.93ZM130.787 17.315C130.554 17.315 130.347 17.2583 130.167 17.145C129.99 17.0283 129.852 16.8533 129.752 16.62C129.652 16.3833 129.602 16.0867 129.602 15.73C129.602 15.3467 129.659 15.04 129.772 14.81C129.885 14.58 130.032 14.4133 130.212 14.31C130.392 14.2033 130.584 14.15 130.787 14.15C130.994 14.15 131.187 14.2033 131.367 14.31C131.55 14.4167 131.697 14.5867 131.807 14.82C131.92 15.05 131.977 15.3533 131.977 15.73C131.977 16.0833 131.927 16.3783 131.827 16.615C131.727 16.8483 131.587 17.0233 131.407 17.14C131.23 17.2567 131.024 17.315 130.787 17.315ZM130.787 16.975C131.034 16.975 131.225 16.8683 131.362 16.655C131.499 16.4383 131.567 16.13 131.567 15.73C131.567 15.4333 131.53 15.195 131.457 15.015C131.387 14.8317 131.294 14.6983 131.177 14.615C131.06 14.5317 130.93 14.49 130.787 14.49C130.647 14.49 130.517 14.5333 130.397 14.62C130.28 14.7033 130.187 14.8367 130.117 15.02C130.047 15.2033 130.012 15.44 130.012 15.73C130.012 16.13 130.08 16.4383 130.217 16.655C130.354 16.8683 130.544 16.975 130.787 16.975ZM134.522 14.445C134.522 14.485 134.51 14.5233 134.487 14.56C134.467 14.5933 134.44 14.6183 134.407 14.635C134.334 14.5983 134.25 14.5667 134.157 14.54C134.067 14.51 133.969 14.495 133.862 14.495C133.602 14.495 133.382 14.5883 133.202 14.775C133.025 14.9617 132.932 15.2533 132.922 15.65C132.989 15.5833 133.09 15.5133 133.227 15.44C133.367 15.3633 133.539 15.325 133.742 15.325C134.035 15.325 134.277 15.4083 134.467 15.575C134.657 15.7417 134.752 15.9883 134.752 16.315C134.752 16.5217 134.707 16.7 134.617 16.85C134.53 17 134.407 17.115 134.247 17.195C134.09 17.275 133.904 17.315 133.687 17.315C133.464 17.315 133.264 17.265 133.087 17.165C132.91 17.0617 132.77 16.9017 132.667 16.685C132.567 16.465 132.517 16.1783 132.517 15.825C132.517 15.5117 132.554 15.2483 132.627 15.035C132.704 14.8183 132.805 14.6467 132.932 14.52C133.059 14.39 133.202 14.2967 133.362 14.24C133.522 14.18 133.685 14.15 133.852 14.15C133.969 14.15 134.077 14.1617 134.177 14.185C134.28 14.2083 134.364 14.2417 134.427 14.285C134.49 14.3283 134.522 14.3817 134.522 14.445ZM133.687 16.98C133.88 16.98 134.039 16.9217 134.162 16.805C134.285 16.685 134.347 16.5183 134.347 16.305C134.347 16.0883 134.284 15.9283 134.157 15.825C134.034 15.7183 133.88 15.665 133.697 15.665C133.514 15.665 133.355 15.705 133.222 15.785C133.089 15.8617 132.984 15.955 132.907 16.065L132.922 16.03C132.922 16.3133 132.989 16.5433 133.122 16.72C133.255 16.8933 133.444 16.98 133.687 16.98Z" fill="#A73C4C"/>
<path d="M10.8149 15.13H10.4099V13.6L9.76988 13.9C9.72654 13.8833 9.68988 13.8583 9.65988 13.825C9.63321 13.7917 9.61988 13.75 9.61988 13.7C9.61988 13.6033 9.67988 13.53 9.79988 13.48L10.4999 13.175H10.5949C10.6615 13.175 10.7149 13.195 10.7549 13.235C10.7949 13.275 10.8149 13.3283 10.8149 13.395V15.13ZM10.4099 14.93H10.8149V16.255C10.7949 16.2617 10.7682 16.2683 10.7349 16.275C10.7015 16.285 10.6649 16.29 10.6249 16.29C10.5549 16.29 10.5015 16.275 10.4649 16.245C10.4282 16.215 10.4099 16.1683 10.4099 16.105V14.93ZM12.787 16.315C12.5537 16.315 12.347 16.2583 12.167 16.145C11.9903 16.0283 11.852 15.8533 11.752 15.62C11.652 15.3833 11.602 15.0867 11.602 14.73C11.602 14.3467 11.6587 14.04 11.772 13.81C11.8853 13.58 12.032 13.4133 12.212 13.31C12.392 13.2033 12.5837 13.15 12.787 13.15C12.9937 13.15 13.187 13.2033 13.367 13.31C13.5503 13.4167 13.697 13.5867 13.807 13.82C13.9203 14.05 13.977 14.3533 13.977 14.73C13.977 15.0833 13.927 15.3783 13.827 15.615C13.727 15.8483 13.587 16.0233 13.407 16.14C13.2303 16.2567 13.0237 16.315 12.787 16.315ZM12.787 15.975C13.0337 15.975 13.2253 15.8683 13.362 15.655C13.4987 15.4383 13.567 15.13 13.567 14.73C13.567 14.4333 13.5303 14.195 13.457 14.015C13.387 13.8317 13.2937 13.6983 13.177 13.615C13.0603 13.5317 12.9303 13.49 12.787 13.49C12.647 13.49 12.517 13.5333 12.397 13.62C12.2803 13.7033 12.187 13.8367 12.117 14.02C12.047 14.2033 12.012 14.44 12.012 14.73C12.012 15.13 12.0803 15.4383 12.217 15.655C12.3537 15.8683 12.5437 15.975 12.787 15.975ZM14.6326 16.005C14.6326 15.965 14.6426 15.9267 14.6626 15.89C14.6859 15.8533 14.7143 15.8267 14.7476 15.81C14.8109 15.8467 14.8926 15.8833 14.9926 15.92C15.0959 15.9533 15.2176 15.97 15.3576 15.97C15.5309 15.97 15.6893 15.9333 15.8326 15.86C15.9759 15.7867 16.0909 15.6667 16.1776 15.5C16.2643 15.33 16.3076 15.1067 16.3076 14.83C16.2776 14.8633 16.2276 14.905 16.1576 14.955C16.0909 15.0017 16.0059 15.0433 15.9026 15.08C15.7993 15.1167 15.6793 15.135 15.5426 15.135C15.3559 15.135 15.1809 15.1033 15.0176 15.04C14.8543 14.9733 14.7226 14.8683 14.6226 14.725C14.5259 14.5817 14.4776 14.3933 14.4776 14.16C14.4776 13.95 14.5243 13.77 14.6176 13.62C14.7109 13.4667 14.8376 13.35 14.9976 13.27C15.1576 13.19 15.3359 13.15 15.5326 13.15C15.7626 13.15 15.9659 13.2033 16.1426 13.31C16.3193 13.4133 16.4576 13.575 16.5576 13.795C16.6609 14.0117 16.7126 14.2917 16.7126 14.635C16.7126 15.0417 16.6559 15.3683 16.5426 15.615C16.4293 15.8617 16.2709 16.04 16.0676 16.15C15.8676 16.26 15.6326 16.315 15.3626 16.315C15.1626 16.315 14.9909 16.2883 14.8476 16.235C14.7043 16.1817 14.6326 16.105 14.6326 16.005ZM15.5976 14.8C15.7676 14.8 15.9176 14.7583 16.0476 14.675C16.1809 14.5883 16.2693 14.4933 16.3126 14.39L16.3076 14.445C16.3076 14.1483 16.2393 13.915 16.1026 13.745C15.9693 13.5717 15.7793 13.485 15.5326 13.485C15.3493 13.485 15.1943 13.545 15.0676 13.665C14.9443 13.7817 14.8826 13.9433 14.8826 14.15C14.8826 14.38 14.9526 14.5467 15.0926 14.65C15.2326 14.75 15.4009 14.8 15.5976 14.8Z" fill="#A73C4C"/>
</svg>
