<svg width="172" height="78" viewBox="0 0 172 78" fill="none" xmlns="http://www.w3.org/2000/svg">
<path d="M2.45001 3.62476L27.1408 3.75061V0.505066L154.692 0.250549V20.7505H170.95V75.7505H144.734V64.9158H121.23V61.2505H27.95V71.2505H2.45001V3.62476Z" fill="white"/>
<path d="M2.45001 19.9018V71.2506H21.2377" stroke="#A73C4C" stroke-width="0.5"/>
<path d="M2.45001 14.7505V3.65444H27.1636V0.53732L154.708 0.250549V20.6739H171.021V75.7505H151.45" stroke="#A73C4C" stroke-width="0.5"/>
<path d="M26.45 71.2505H27.95V61.2505H121.218V64.8392H144.78V75.7505H146.45" stroke="#A73C4C" stroke-width="0.5"/>
<path d="M58.7 0.250557V31.7129" stroke="#A73C4C" stroke-width="0.5"/>
<path d="M89.95 0.250496V31.7129" stroke="#A73C4C" stroke-width="0.5"/>
<path d="M137.7 0.250496V31.7129" stroke="#A73C4C" stroke-width="0.5"/>
<path d="M137.7 44.2506V61.2506M121.2 44.2506V61.2506" stroke="#A73C4C" stroke-width="0.5"/>
<path d="M121.2 44.2506V61.2506" stroke="#A73C4C" stroke-width="0.5"/>
<path d="M105.95 44.2506V61.2506" stroke="#A73C4C" stroke-width="0.5"/>
<path d="M89.95 44.2506V61.2506" stroke="#A73C4C" stroke-width="0.5"/>
<path d="M70.95 44.2506V61.2506" stroke="#A73C4C" stroke-width="0.5"/>
<path d="M58.95 44.2506V61.2506" stroke="#A73C4C" stroke-width="0.5"/>
<path d="M27.95 61.2706H26.1102" stroke="#A73C4C" stroke-width="0.5"/>
<path d="M21.2586 61.2706H12.0974" stroke="#A73C4C" stroke-width="0.5"/>
<path d="M5.95001 61.2706H2.45001" stroke="#A73C4C" stroke-width="0.5"/>
<path d="M19.95 51.2505H2.45001" stroke="#A73C4C" stroke-width="0.5"/>
<path d="M19.95 38.2505H2.45001" stroke="#A73C4C" stroke-width="0.5"/>
<path d="M19.95 25.2505L16.45 25.2507" stroke="#A73C4C" stroke-width="0.5"/>
<path d="M10.45 25.2507L2.45001 25.2505" stroke="#A73C4C" stroke-width="0.5"/>
<path d="M21.2529 20.7505H2.45001" stroke="#A73C4C" stroke-width="0.5"/>
<path d="M26.95 20.7505H25.95" stroke="#A73C4C" stroke-width="0.5"/>
<path d="M11.95 20.7505V10.2505" stroke="#A73C4C" stroke-width="0.5"/>
<path d="M19.95 27.942V20.7505" stroke="#A73C4C" stroke-width="0.5"/>
<path d="M19.95 41.4029V33.8638" stroke="#A73C4C" stroke-width="0.5"/>
<path d="M19.95 51.4966V46.7505" stroke="#A73C4C" stroke-width="0.5"/>
<path d="M11.95 5.25055V3.75055" stroke="#A73C4C" stroke-width="0.5"/>
<path d="M19.95 71.2506V61.2506" stroke="#A73C4C" stroke-width="0.5"/>
<path d="M28.05 61.2506V44.2506" stroke="#A73C4C" stroke-width="0.5"/>
<path d="M27.17 31.7506V3.75055" stroke="#A73C4C" stroke-width="0.5"/>
<path d="M27.8016 44.2506H31.95" stroke="#A73C4C" stroke-width="0.5"/>
<path d="M37.95 44.2506H63.45" stroke="#A73C4C" stroke-width="0.5"/>
<path d="M68.6425 44.2506H74.5674" stroke="#A73C4C" stroke-width="0.5"/>
<path d="M79.95 44.2506H97.1805" stroke="#A73C4C" stroke-width="0.5"/>
<path d="M102.038 44.2506H107.45" stroke="#A73C4C" stroke-width="0.5"/>
<path d="M112.45 44.2506H130.028" stroke="#A73C4C" stroke-width="0.5"/>
<path d="M135.45 44.2506H137.95" stroke="#A73C4C" stroke-width="0.5"/>
<path d="M144.76 61.2506V66.2506" stroke="#A73C4C" stroke-width="0.5"/>
<path d="M146.17 61.2506H131.65" stroke="#A73C4C" stroke-width="0.5"/>
<path d="M170.95 61.2506H163.45" stroke="#A73C4C" stroke-width="0.5"/>
<path d="M170.95 50.7506H160.729" stroke="#A73C4C" stroke-width="0.5"/>
<path d="M157.489 61.2506H151.584" stroke="#A73C4C" stroke-width="0.5"/>
<path d="M153.95 75.7506V61.2506M153.95 55.7506V50.5553" stroke="#A73C4C" stroke-width="0.5"/>
<path d="M153.7 55.7505H170.95" stroke="#A73C4C" stroke-width="0.5"/>
<path d="M127.45 61.2506H121.45" stroke="#A73C4C" stroke-width="0.5"/>
<path d="M137.95 31.5006H135.45" stroke="#A73C4C" stroke-width="0.5"/>
<path d="M129.486 31.5006H117.646" stroke="#A73C4C" stroke-width="0.5"/>
<path d="M111.712 31.5006H106.45" stroke="#A73C4C" stroke-width="0.5"/>
<path d="M100.95 31.5006H87.45" stroke="#A73C4C" stroke-width="0.5"/>
<path d="M82.1075 31.5006H76.1702" stroke="#A73C4C" stroke-width="0.5"/>
<path d="M70.7986 31.5006H56.8018" stroke="#A73C4C" stroke-width="0.5"/>
<path d="M51.95 31.5006H46.0321" stroke="#A73C4C" stroke-width="0.5"/>
<path d="M41.3412 31.5006H27.1808" stroke="#A73C4C" stroke-width="0.5"/>
<path d="M121.2 0.250542V38.1725" stroke="#A73C4C" stroke-width="0.5"/>
<path d="M23.2877 71.2956H25.74M25.74 71.2956L25.0713 70.5103M25.74 71.2956L25.0712 72.0809" stroke="#A73C4C" stroke-width="0.5" stroke-linecap="round" stroke-linejoin="round"/>
<path d="M24.1794 70.3165V69.6127C24.1794 69.5508 24.1295 69.5005 24.0679 69.5005H22.0615C21.9999 69.5005 21.95 69.5508 21.95 69.6127V72.9784C21.95 73.0403 21.9999 73.0905 22.0615 73.0905H24.0679C24.1295 73.0905 24.1794 73.0403 24.1794 72.9784V72.2746" stroke="#A73C4C" stroke-width="0.5" stroke-linecap="round" stroke-linejoin="round"/>
<path d="M1.58765 17.2956H4.03999M4.03999 17.2956L3.37126 16.5103M4.03999 17.2956L3.37117 18.0809" stroke="#A73C4C" stroke-width="0.5" stroke-linecap="round" stroke-linejoin="round"/>
<path d="M2.47941 16.3165V15.6127C2.47941 15.5508 2.42949 15.5005 2.36793 15.5005H0.36147C0.299907 15.5005 0.25 15.5508 0.25 15.6127V18.9784C0.25 19.0403 0.299907 19.0905 0.36147 19.0905H2.36793C2.42949 19.0905 2.47941 19.0403 2.47941 18.9784V18.2746" stroke="#A73C4C" stroke-width="0.5" stroke-linecap="round" stroke-linejoin="round"/>
<path d="M148.438 75.7456H150.89M150.89 75.7456L150.221 74.9603M150.89 75.7456L150.221 76.5309" stroke="#A73C4C" stroke-width="0.5" stroke-linecap="round" stroke-linejoin="round"/>
<path d="M149.329 74.7665V74.0627C149.329 74.0008 149.28 73.9506 149.218 73.9506H147.212C147.15 73.9506 147.1 74.0008 147.1 74.0627V77.4284C147.1 77.4903 147.15 77.5406 147.212 77.5406H149.218C149.28 77.5406 149.329 77.4903 149.329 77.4284V76.7246" stroke="#A73C4C" stroke-width="0.5" stroke-linecap="round" stroke-linejoin="round"/>
<path d="M8.75001 63.2505C8.58433 63.2505 8.45001 63.3849 8.45001 63.5505V68.9505C8.45001 69.1162 8.58433 69.2505 8.75001 69.2505H9.30952H14.15C14.3157 69.2505 14.45 69.1162 14.45 68.9505V64.3004V63.5505C14.45 63.3849 14.3157 63.2505 14.15 63.2505H8.75001ZM9.83463 69.0198V68.4275C9.83463 68.3722 9.8794 68.3275 9.93463 68.3275H10.4577C10.6234 68.3275 10.7577 68.1932 10.7577 68.0275V67.5044C10.7577 67.4492 10.8025 67.4044 10.8577 67.4044H11.3808C11.5465 67.4044 11.6808 67.2701 11.6808 67.1044V66.5813C11.6808 66.5261 11.7256 66.4813 11.7808 66.4813H12.3039C12.4695 66.4813 12.6039 66.347 12.6039 66.1813V65.6582C12.6039 65.603 12.6486 65.5582 12.7039 65.5582H13.2269C13.3926 65.5582 13.5269 65.4239 13.5269 65.2582V64.7352C13.5269 64.6799 13.5717 64.6352 13.6269 64.6352H14.2192V68.9197C14.2192 68.975 14.1745 69.0197 14.1192 69.0197L9.83463 69.0198ZM14.2192 64.4044H13.5962C13.4305 64.4044 13.2962 64.5387 13.2962 64.7044V65.2275C13.2962 65.2827 13.2514 65.3275 13.1962 65.3275H12.6731C12.5074 65.3275 12.3731 65.4618 12.3731 65.6275V66.1505C12.3731 66.2058 12.3283 66.2505 12.2731 66.2505H11.75C11.5843 66.2505 11.45 66.3849 11.45 66.5505V67.0736C11.45 67.1289 11.4052 67.1736 11.35 67.1736H10.8269C10.6612 67.1736 10.5269 67.3079 10.5269 67.4736V67.9967C10.5269 68.0519 10.4822 68.0967 10.4269 68.0967H9.90386C9.73817 68.0967 9.60386 68.231 9.60386 68.3967V69.0197H8.78078C8.72555 69.0197 8.68078 68.975 8.68078 68.9197V63.5813C8.68078 63.5261 8.72555 63.4813 8.78078 63.4813H14.1192C14.1745 63.4813 14.2192 63.5261 14.2192 63.5813V64.4044Z" fill="#A73C4C"/>
<path d="M163.75 43.2505C163.584 43.2505 163.45 43.3849 163.45 43.5505V48.9505C163.45 49.1162 163.584 49.2505 163.75 49.2505H164.31H169.15C169.316 49.2505 169.45 49.1162 169.45 48.9505V44.3004V43.5505C169.45 43.3849 169.316 43.2505 169.15 43.2505H163.75ZM164.835 49.0198V48.4275C164.835 48.3722 164.879 48.3275 164.935 48.3275H165.458C165.623 48.3275 165.758 48.1932 165.758 48.0275V47.5044C165.758 47.4492 165.802 47.4044 165.858 47.4044H166.381C166.546 47.4044 166.681 47.2701 166.681 47.1044V46.5813C166.681 46.5261 166.726 46.4813 166.781 46.4813H167.304C167.47 46.4813 167.604 46.347 167.604 46.1813V45.6582C167.604 45.603 167.649 45.5582 167.704 45.5582H168.227C168.393 45.5582 168.527 45.4239 168.527 45.2582V44.7352C168.527 44.6799 168.572 44.6352 168.627 44.6352H169.219V48.9197C169.219 48.975 169.174 49.0197 169.119 49.0197L164.835 49.0198ZM169.219 44.4044H168.596C168.43 44.4044 168.296 44.5387 168.296 44.7044V45.2275C168.296 45.2827 168.251 45.3275 168.196 45.3275H167.673C167.507 45.3275 167.373 45.4618 167.373 45.6275V46.1505C167.373 46.2058 167.328 46.2505 167.273 46.2505H166.75C166.584 46.2505 166.45 46.3849 166.45 46.5505V47.0736C166.45 47.1289 166.405 47.1736 166.35 47.1736H165.827C165.661 47.1736 165.527 47.3079 165.527 47.4736V47.9967C165.527 48.0519 165.482 48.0967 165.427 48.0967H164.904C164.738 48.0967 164.604 48.231 164.604 48.3967V49.0197H163.781C163.726 49.0197 163.681 48.975 163.681 48.9197V43.5813C163.681 43.5261 163.726 43.4813 163.781 43.4813H169.119C169.174 43.4813 169.219 43.5261 169.219 43.5813V44.4044Z" fill="#A73C4C"/>
<path d="M155.25 50.2505C155.084 50.2505 154.95 50.3849 154.95 50.5505V54.9505C154.95 55.1162 155.084 55.2505 155.25 55.2505H155.666H159.65C159.816 55.2505 159.95 55.1162 159.95 54.9505V51.1255V50.5505C159.95 50.3849 159.816 50.2505 159.65 50.2505H155.25ZM156.104 55.0582V54.5813C156.104 54.5261 156.149 54.4813 156.204 54.4813H156.573C156.739 54.4813 156.873 54.347 156.873 54.1813V53.8121C156.873 53.7569 156.918 53.7121 156.973 53.7121H157.342C157.508 53.7121 157.642 53.5778 157.642 53.4121V53.0429C157.642 52.9876 157.687 52.9429 157.742 52.9429H158.112C158.277 52.9429 158.412 52.8085 158.412 52.6429V52.2736C158.412 52.2184 158.456 52.1736 158.512 52.1736H158.881C159.046 52.1736 159.181 52.0393 159.181 51.8736V51.5044C159.181 51.4492 159.226 51.4044 159.281 51.4044H159.758V54.9582C159.758 55.0134 159.713 55.0582 159.658 55.0582L156.104 55.0582ZM159.758 51.2121H159.288C159.123 51.2121 158.988 51.3464 158.988 51.5121V51.8813C158.988 51.9365 158.944 51.9813 158.888 51.9813H158.519C158.354 51.9813 158.219 52.1156 158.219 52.2813V52.6505C158.219 52.7058 158.174 52.7505 158.119 52.7505H157.75C157.584 52.7505 157.45 52.8849 157.45 53.0505V53.4198C157.45 53.475 157.405 53.5198 157.35 53.5198H156.981C156.815 53.5198 156.681 53.6541 156.681 53.8198V54.189C156.681 54.2442 156.636 54.289 156.581 54.289H156.212C156.046 54.289 155.912 54.4233 155.912 54.589V55.0582H155.242C155.187 55.0582 155.142 55.0134 155.142 54.9582V50.5429C155.142 50.4876 155.187 50.4429 155.242 50.4429H159.658C159.713 50.4429 159.758 50.4876 159.758 50.5429V51.2121Z" fill="#A73C4C"/>
<path d="M4.50001 5.25055C4.33433 5.25055 4.20001 5.38486 4.20001 5.55055V10.9505C4.20001 11.1162 4.33433 11.2505 4.50001 11.2505H5.05952H9.90001C10.0657 11.2505 10.2 11.1162 10.2 10.9505V6.30043V5.55055C10.2 5.38486 10.0657 5.25055 9.90001 5.25055H4.50001ZM5.58463 11.0198V10.4275C5.58463 10.3722 5.6294 10.3275 5.68463 10.3275H6.2077C6.37339 10.3275 6.5077 10.1932 6.5077 10.0275V9.5044C6.5077 9.44917 6.55248 9.4044 6.6077 9.4044H7.13078C7.29647 9.4044 7.43078 9.27008 7.43078 9.1044V8.58132C7.43078 8.52609 7.47555 8.48132 7.53078 8.48132H8.05386C8.21954 8.48132 8.35386 8.347 8.35386 8.18132V7.65824C8.35386 7.60301 8.39863 7.55824 8.45386 7.55824H8.97694C9.14262 7.55824 9.27694 7.42393 9.27694 7.25824V6.73516C9.27694 6.67994 9.32171 6.63516 9.37694 6.63516H9.96924V10.9197C9.96924 10.975 9.92447 11.0197 9.86924 11.0197L5.58463 11.0198ZM9.96924 6.4044H9.34617C9.18048 6.4044 9.04617 6.53871 9.04617 6.7044V7.22747C9.04617 7.2827 9.00139 7.32747 8.94617 7.32747H8.42309C8.2574 7.32747 8.12309 7.46179 8.12309 7.62747V8.15055C8.12309 8.20578 8.07832 8.25055 8.02309 8.25055H7.50001C7.33433 8.25055 7.20001 8.38486 7.20001 8.55055V9.07363C7.20001 9.12885 7.15524 9.17363 7.10001 9.17363H6.57694C6.41125 9.17363 6.27693 9.30794 6.27693 9.47363V9.9967C6.27693 10.0519 6.23216 10.0967 6.17693 10.0967H5.65386C5.48817 10.0967 5.35386 10.231 5.35386 10.3967V11.0197H4.53078C4.47555 11.0197 4.43078 10.975 4.43078 10.9197V5.58132C4.43078 5.52609 4.47555 5.48132 4.53078 5.48132H9.86924C9.92447 5.48132 9.96924 5.52609 9.96924 5.58132V6.4044Z" fill="#A73C4C"/>
<path d="M103.72 16.1305H103.315V14.6005L102.675 14.9005C102.632 14.8839 102.595 14.8589 102.565 14.8255C102.538 14.7922 102.525 14.7505 102.525 14.7005C102.525 14.6039 102.585 14.5305 102.705 14.4805L103.405 14.1755H103.5C103.567 14.1755 103.62 14.1955 103.66 14.2355C103.7 14.2755 103.72 14.3289 103.72 14.3955V16.1305ZM103.315 15.9305H103.72V17.2555C103.7 17.2622 103.673 17.2689 103.64 17.2755C103.607 17.2855 103.57 17.2905 103.53 17.2905C103.46 17.2905 103.407 17.2755 103.37 17.2455C103.333 17.2155 103.315 17.1689 103.315 17.1055V15.9305ZM105.692 17.3155C105.459 17.3155 105.252 17.2589 105.072 17.1455C104.895 17.0289 104.757 16.8539 104.657 16.6205C104.557 16.3839 104.507 16.0872 104.507 15.7305C104.507 15.3472 104.564 15.0405 104.677 14.8105C104.79 14.5805 104.937 14.4139 105.117 14.3105C105.297 14.2039 105.489 14.1505 105.692 14.1505C105.899 14.1505 106.092 14.2039 106.272 14.3105C106.455 14.4172 106.602 14.5872 106.712 14.8205C106.825 15.0505 106.882 15.3539 106.882 15.7305C106.882 16.0839 106.832 16.3789 106.732 16.6155C106.632 16.8489 106.492 17.0239 106.312 17.1405C106.135 17.2572 105.929 17.3155 105.692 17.3155ZM105.692 16.9755C105.939 16.9755 106.13 16.8689 106.267 16.6555C106.404 16.4389 106.472 16.1305 106.472 15.7305C106.472 15.4339 106.435 15.1955 106.362 15.0155C106.292 14.8322 106.199 14.6989 106.082 14.6155C105.965 14.5322 105.835 14.4905 105.692 14.4905C105.552 14.4905 105.422 14.5339 105.302 14.6205C105.185 14.7039 105.092 14.8372 105.022 15.0205C104.952 15.2039 104.917 15.4405 104.917 15.7305C104.917 16.1305 104.985 16.4389 105.122 16.6555C105.259 16.8689 105.449 16.9755 105.692 16.9755ZM107.337 16.1355L108.792 14.2055C108.822 14.1989 108.855 14.1939 108.892 14.1905C108.932 14.1839 108.967 14.1805 108.997 14.1805C109.043 14.1805 109.087 14.1872 109.127 14.2005C109.17 14.2139 109.205 14.2389 109.232 14.2755C109.258 14.3089 109.272 14.3589 109.272 14.4255V16.1755H109.772C109.782 16.1922 109.792 16.2155 109.802 16.2455C109.812 16.2722 109.817 16.3039 109.817 16.3405C109.817 16.3939 109.803 16.4355 109.777 16.4655C109.75 16.4955 109.712 16.5105 109.662 16.5105H109.272V17.2605C109.255 17.2639 109.23 17.2689 109.197 17.2755C109.167 17.2855 109.133 17.2905 109.097 17.2905C109.027 17.2905 108.973 17.2755 108.937 17.2455C108.9 17.2155 108.882 17.1722 108.882 17.1155V16.5105H107.437C107.403 16.4939 107.373 16.4639 107.347 16.4205C107.323 16.3772 107.312 16.3289 107.312 16.2755C107.312 16.2455 107.313 16.2205 107.317 16.2005C107.323 16.1772 107.33 16.1555 107.337 16.1355ZM108.887 16.1755L108.897 14.6005H108.887L107.777 16.1755H108.887Z" fill="#A73C4C"/>
<path d="M111.72 53.1305H111.315V51.6005L110.675 51.9005C110.632 51.8839 110.595 51.8589 110.565 51.8255C110.538 51.7922 110.525 51.7505 110.525 51.7005C110.525 51.6039 110.585 51.5305 110.705 51.4805L111.405 51.1755H111.5C111.567 51.1755 111.62 51.1955 111.66 51.2355C111.7 51.2755 111.72 51.3289 111.72 51.3955V53.1305ZM111.315 52.9305H111.72V54.2555C111.7 54.2622 111.673 54.2689 111.64 54.2755C111.607 54.2855 111.57 54.2905 111.53 54.2905C111.46 54.2905 111.407 54.2755 111.37 54.2455C111.333 54.2155 111.315 54.1689 111.315 54.1055V52.9305ZM113.692 54.3155C113.459 54.3155 113.252 54.2589 113.072 54.1455C112.895 54.0289 112.757 53.8539 112.657 53.6205C112.557 53.3839 112.507 53.0872 112.507 52.7305C112.507 52.3472 112.564 52.0405 112.677 51.8105C112.79 51.5805 112.937 51.4139 113.117 51.3105C113.297 51.2039 113.489 51.1505 113.692 51.1505C113.899 51.1505 114.092 51.2039 114.272 51.3105C114.455 51.4172 114.602 51.5872 114.712 51.8205C114.825 52.0505 114.882 52.3539 114.882 52.7305C114.882 53.0839 114.832 53.3789 114.732 53.6155C114.632 53.8489 114.492 54.0239 114.312 54.1405C114.135 54.2572 113.929 54.3155 113.692 54.3155ZM113.692 53.9755C113.939 53.9755 114.13 53.8689 114.267 53.6555C114.404 53.4389 114.472 53.1305 114.472 52.7305C114.472 52.4339 114.435 52.1955 114.362 52.0155C114.292 51.8322 114.199 51.6989 114.082 51.6155C113.965 51.5322 113.835 51.4905 113.692 51.4905C113.552 51.4905 113.422 51.5339 113.302 51.6205C113.185 51.7039 113.092 51.8372 113.022 52.0205C112.952 52.2039 112.917 52.4405 112.917 52.7305C112.917 53.1305 112.985 53.4389 113.122 53.6555C113.259 53.8689 113.449 53.9755 113.692 53.9755ZM116.172 51.2105L116.037 51.5055L115.952 52.4505C116.009 52.4205 116.087 52.3922 116.187 52.3655C116.29 52.3355 116.399 52.3205 116.512 52.3205C116.712 52.3205 116.892 52.3589 117.052 52.4355C117.212 52.5089 117.339 52.6189 117.432 52.7655C117.529 52.9089 117.577 53.0872 117.577 53.3005C117.577 53.4939 117.532 53.6672 117.442 53.8205C117.355 53.9739 117.227 54.0955 117.057 54.1855C116.89 54.2722 116.685 54.3155 116.442 54.3155C116.252 54.3155 116.085 54.2939 115.942 54.2505C115.799 54.2072 115.687 54.1539 115.607 54.0905C115.527 54.0272 115.487 53.9655 115.487 53.9055C115.487 53.8522 115.504 53.8055 115.537 53.7655C115.574 53.7255 115.61 53.6989 115.647 53.6855C115.72 53.7489 115.824 53.8139 115.957 53.8805C116.09 53.9472 116.252 53.9805 116.442 53.9805C116.672 53.9805 116.85 53.9172 116.977 53.7905C117.104 53.6605 117.167 53.4972 117.167 53.3005C117.167 53.0972 117.102 52.9389 116.972 52.8255C116.842 52.7122 116.672 52.6555 116.462 52.6555C116.345 52.6555 116.239 52.6739 116.142 52.7105C116.045 52.7472 115.955 52.7889 115.872 52.8355C115.782 52.8289 115.709 52.8022 115.652 52.7555C115.599 52.7055 115.572 52.6422 115.572 52.5655C115.572 52.5455 115.572 52.5205 115.572 52.4905C115.575 52.4572 115.579 52.4255 115.582 52.3955L115.667 51.4405C115.674 51.3705 115.695 51.3155 115.732 51.2755C115.769 51.2322 115.822 51.2105 115.892 51.2105H116.172ZM115.962 51.5505V51.2105H117.422C117.432 51.2239 117.442 51.2455 117.452 51.2755C117.462 51.3055 117.467 51.3372 117.467 51.3705C117.467 51.4239 117.454 51.4672 117.427 51.5005C117.4 51.5339 117.362 51.5505 117.312 51.5505H115.962Z" fill="#A73C4C"/>
<path d="M71.72 16.1305H71.315V14.6005L70.675 14.9005C70.6317 14.8839 70.595 14.8589 70.565 14.8255C70.5383 14.7922 70.525 14.7505 70.525 14.7005C70.525 14.6039 70.585 14.5305 70.705 14.4805L71.405 14.1755H71.5C71.5667 14.1755 71.62 14.1955 71.66 14.2355C71.7 14.2755 71.72 14.3289 71.72 14.3955V16.1305ZM71.315 15.9305H71.72V17.2555C71.7 17.2622 71.6733 17.2689 71.64 17.2755C71.6067 17.2855 71.57 17.2905 71.53 17.2905C71.46 17.2905 71.4067 17.2755 71.37 17.2455C71.3333 17.2155 71.315 17.1689 71.315 17.1055V15.9305ZM73.6921 17.3155C73.4588 17.3155 73.2521 17.2589 73.0721 17.1455C72.8955 17.0289 72.7571 16.8539 72.6571 16.6205C72.5571 16.3839 72.5071 16.0872 72.5071 15.7305C72.5071 15.3472 72.5638 15.0405 72.6771 14.8105C72.7905 14.5805 72.9371 14.4139 73.1171 14.3105C73.2971 14.2039 73.4888 14.1505 73.6921 14.1505C73.8988 14.1505 74.0921 14.2039 74.2721 14.3105C74.4555 14.4172 74.6021 14.5872 74.7121 14.8205C74.8255 15.0505 74.8821 15.3539 74.8821 15.7305C74.8821 16.0839 74.8321 16.3789 74.7321 16.6155C74.6321 16.8489 74.4921 17.0239 74.3121 17.1405C74.1355 17.2572 73.9288 17.3155 73.6921 17.3155ZM73.6921 16.9755C73.9388 16.9755 74.1305 16.8689 74.2671 16.6555C74.4038 16.4389 74.4721 16.1305 74.4721 15.7305C74.4721 15.4339 74.4355 15.1955 74.3621 15.0155C74.2921 14.8322 74.1988 14.6989 74.0821 14.6155C73.9655 14.5322 73.8355 14.4905 73.6921 14.4905C73.5521 14.4905 73.4221 14.5339 73.3021 14.6205C73.1855 14.7039 73.0921 14.8372 73.0221 15.0205C72.9521 15.2039 72.9171 15.4405 72.9171 15.7305C72.9171 16.1305 72.9855 16.4389 73.1221 16.6555C73.2588 16.8689 73.4488 16.9755 73.6921 16.9755ZM77.4272 14.4455C77.4272 14.4855 77.4155 14.5239 77.3922 14.5605C77.3722 14.5939 77.3455 14.6189 77.3122 14.6355C77.2388 14.5989 77.1555 14.5672 77.0622 14.5405C76.9722 14.5105 76.8738 14.4955 76.7672 14.4955C76.5072 14.4955 76.2872 14.5889 76.1072 14.7755C75.9305 14.9622 75.8372 15.2539 75.8272 15.6505C75.8938 15.5839 75.9955 15.5139 76.1322 15.4405C76.2722 15.3639 76.4438 15.3255 76.6472 15.3255C76.9405 15.3255 77.1822 15.4089 77.3722 15.5755C77.5622 15.7422 77.6572 15.9889 77.6572 16.3155C77.6572 16.5222 77.6122 16.7005 77.5222 16.8505C77.4355 17.0005 77.3122 17.1155 77.1522 17.1955C76.9955 17.2755 76.8088 17.3155 76.5922 17.3155C76.3688 17.3155 76.1688 17.2655 75.9922 17.1655C75.8155 17.0622 75.6755 16.9022 75.5722 16.6855C75.4722 16.4655 75.4222 16.1789 75.4222 15.8255C75.4222 15.5122 75.4588 15.2489 75.5322 15.0355C75.6088 14.8189 75.7105 14.6472 75.8372 14.5205C75.9638 14.3905 76.1072 14.2972 76.2672 14.2405C76.4272 14.1805 76.5905 14.1505 76.7572 14.1505C76.8738 14.1505 76.9822 14.1622 77.0822 14.1855C77.1855 14.2089 77.2688 14.2422 77.3322 14.2855C77.3955 14.3289 77.4272 14.3822 77.4272 14.4455ZM76.5922 16.9805C76.7855 16.9805 76.9438 16.9222 77.0672 16.8055C77.1905 16.6855 77.2522 16.5189 77.2522 16.3055C77.2522 16.0889 77.1888 15.9289 77.0622 15.8255C76.9388 15.7189 76.7855 15.6655 76.6022 15.6655C76.4188 15.6655 76.2605 15.7055 76.1272 15.7855C75.9938 15.8622 75.8888 15.9555 75.8122 16.0655L75.8272 16.0305C75.8272 16.3139 75.8938 16.5439 76.0272 16.7205C76.1605 16.8939 76.3488 16.9805 76.5922 16.9805Z" fill="#A73C4C"/>
<path d="M95.72 53.1305H95.315V51.6005L94.675 51.9005C94.6317 51.8839 94.595 51.8589 94.565 51.8255C94.5383 51.7922 94.525 51.7505 94.525 51.7005C94.525 51.6039 94.585 51.5305 94.705 51.4805L95.405 51.1755H95.5C95.5667 51.1755 95.62 51.1955 95.66 51.2355C95.7 51.2755 95.72 51.3289 95.72 51.3955V53.1305ZM95.315 52.9305H95.72V54.2555C95.7 54.2622 95.6733 54.2689 95.64 54.2755C95.6067 54.2855 95.57 54.2905 95.53 54.2905C95.46 54.2905 95.4067 54.2755 95.37 54.2455C95.3333 54.2155 95.315 54.1689 95.315 54.1055V52.9305ZM97.6921 54.3155C97.4588 54.3155 97.2521 54.2589 97.0721 54.1455C96.8955 54.0289 96.7571 53.8539 96.6571 53.6205C96.5571 53.3839 96.5071 53.0872 96.5071 52.7305C96.5071 52.3472 96.5638 52.0405 96.6771 51.8105C96.7905 51.5805 96.9371 51.4139 97.1171 51.3105C97.2971 51.2039 97.4888 51.1505 97.6921 51.1505C97.8988 51.1505 98.0921 51.2039 98.2721 51.3105C98.4555 51.4172 98.6021 51.5872 98.7121 51.8205C98.8255 52.0505 98.8821 52.3539 98.8821 52.7305C98.8821 53.0839 98.8321 53.3789 98.7321 53.6155C98.6321 53.8489 98.4921 54.0239 98.3121 54.1405C98.1355 54.2572 97.9288 54.3155 97.6921 54.3155ZM97.6921 53.9755C97.9388 53.9755 98.1305 53.8689 98.2671 53.6555C98.4038 53.4389 98.4721 53.1305 98.4721 52.7305C98.4721 52.4339 98.4355 52.1955 98.3621 52.0155C98.2921 51.8322 98.1988 51.6989 98.0821 51.6155C97.9655 51.5322 97.8355 51.4905 97.6921 51.4905C97.5521 51.4905 97.4221 51.5339 97.3021 51.6205C97.1855 51.7039 97.0921 51.8372 97.0221 52.0205C96.9521 52.2039 96.9171 52.4405 96.9171 52.7305C96.9171 53.1305 96.9855 53.4389 97.1221 53.6555C97.2588 53.8689 97.4488 53.9755 97.6921 53.9755ZM99.3686 51.2105H101.169C101.205 51.2305 101.234 51.2589 101.254 51.2955C101.274 51.3289 101.284 51.3672 101.284 51.4105C101.284 51.4439 101.279 51.4772 101.269 51.5105C101.262 51.5439 101.249 51.5805 101.229 51.6205L99.9736 54.2705C99.9536 54.2739 99.9336 54.2755 99.9136 54.2755C99.8969 54.2755 99.8786 54.2755 99.8586 54.2755C99.7952 54.2755 99.7402 54.2605 99.6936 54.2305C99.6469 54.1972 99.6236 54.1522 99.6236 54.0955C99.6236 54.0555 99.6319 54.0172 99.6486 53.9805C99.6652 53.9405 99.6852 53.8955 99.7086 53.8455L100.839 51.5505H99.2586C99.2486 51.5339 99.2386 51.5122 99.2286 51.4855C99.2186 51.4555 99.2136 51.4239 99.2136 51.3905C99.2136 51.3339 99.2269 51.2905 99.2536 51.2605C99.2802 51.2272 99.3186 51.2105 99.3686 51.2105Z" fill="#A73C4C"/>
<path d="M40.72 16.1305H40.315V14.6005L39.675 14.9005C39.6317 14.8839 39.595 14.8589 39.565 14.8255C39.5383 14.7922 39.525 14.7505 39.525 14.7005C39.525 14.6039 39.585 14.5305 39.705 14.4805L40.405 14.1755H40.5C40.5667 14.1755 40.62 14.1955 40.66 14.2355C40.7 14.2755 40.72 14.3289 40.72 14.3955V16.1305ZM40.315 15.9305H40.72V17.2555C40.7 17.2622 40.6733 17.2689 40.64 17.2755C40.6067 17.2855 40.57 17.2905 40.53 17.2905C40.46 17.2905 40.4067 17.2755 40.37 17.2455C40.3333 17.2155 40.315 17.1689 40.315 17.1055V15.9305ZM42.6921 17.3155C42.4588 17.3155 42.2521 17.2589 42.0721 17.1455C41.8955 17.0289 41.7571 16.8539 41.6571 16.6205C41.5571 16.3839 41.5071 16.0872 41.5071 15.7305C41.5071 15.3472 41.5638 15.0405 41.6771 14.8105C41.7905 14.5805 41.9371 14.4139 42.1171 14.3105C42.2971 14.2039 42.4888 14.1505 42.6921 14.1505C42.8988 14.1505 43.0921 14.2039 43.2721 14.3105C43.4555 14.4172 43.6021 14.5872 43.7121 14.8205C43.8255 15.0505 43.8821 15.3539 43.8821 15.7305C43.8821 16.0839 43.8321 16.3789 43.7321 16.6155C43.6321 16.8489 43.4921 17.0239 43.3121 17.1405C43.1355 17.2572 42.9288 17.3155 42.6921 17.3155ZM42.6921 16.9755C42.9388 16.9755 43.1305 16.8689 43.2671 16.6555C43.4038 16.4389 43.4721 16.1305 43.4721 15.7305C43.4721 15.4339 43.4355 15.1955 43.3621 15.0155C43.2921 14.8322 43.1988 14.6989 43.0821 14.6155C42.9655 14.5322 42.8355 14.4905 42.6921 14.4905C42.5521 14.4905 42.4221 14.5339 42.3021 14.6205C42.1855 14.7039 42.0921 14.8372 42.0221 15.0205C41.9521 15.2039 41.9171 15.4405 41.9171 15.7305C41.9171 16.1305 41.9855 16.4389 42.1221 16.6555C42.2588 16.8689 42.4488 16.9755 42.6921 16.9755ZM45.5772 17.3155C45.3505 17.3155 45.1522 17.2822 44.9822 17.2155C44.8122 17.1455 44.6805 17.0455 44.5872 16.9155C44.4938 16.7855 44.4472 16.6289 44.4472 16.4455C44.4472 16.2822 44.4838 16.1439 44.5572 16.0305C44.6338 15.9139 44.7305 15.8205 44.8472 15.7505C44.9638 15.6805 45.0855 15.6339 45.2122 15.6105L45.5122 15.5605C45.7522 15.5139 45.9322 15.4455 46.0522 15.3555C46.1722 15.2622 46.2322 15.1389 46.2322 14.9855C46.2322 14.8289 46.1738 14.7072 46.0572 14.6205C45.9405 14.5305 45.7805 14.4855 45.5772 14.4855C45.3805 14.4855 45.2222 14.5305 45.1022 14.6205C44.9822 14.7105 44.9222 14.8305 44.9222 14.9805C44.9222 15.1072 44.9555 15.2089 45.0222 15.2855C45.0922 15.3622 45.1838 15.4205 45.2972 15.4605C45.4138 15.4972 45.5405 15.5222 45.6772 15.5355L45.8972 15.6105C46.0338 15.6372 46.1638 15.6855 46.2872 15.7555C46.4105 15.8222 46.5105 15.9122 46.5872 16.0255C46.6638 16.1389 46.7022 16.2805 46.7022 16.4505C46.7022 16.6305 46.6538 16.7855 46.5572 16.9155C46.4638 17.0455 46.3322 17.1455 46.1622 17.2155C45.9955 17.2822 45.8005 17.3155 45.5772 17.3155ZM45.5772 16.9805C45.7938 16.9805 45.9688 16.9339 46.1022 16.8405C46.2355 16.7472 46.3022 16.6122 46.3022 16.4355C46.3022 16.2422 46.2205 16.0889 46.0572 15.9755C45.8972 15.8622 45.6822 15.7972 45.4122 15.7805L45.1572 15.7055C44.9638 15.6522 44.8088 15.5655 44.6922 15.4455C44.5788 15.3255 44.5222 15.1689 44.5222 14.9755C44.5222 14.8055 44.5655 14.6589 44.6522 14.5355C44.7422 14.4122 44.8655 14.3172 45.0222 14.2505C45.1822 14.1839 45.3672 14.1505 45.5772 14.1505C45.9038 14.1505 46.1605 14.2255 46.3472 14.3755C46.5372 14.5222 46.6322 14.7255 46.6322 14.9855C46.6322 15.1955 46.5605 15.3605 46.4172 15.4805C46.2772 15.6005 46.1055 15.6789 45.9022 15.7155L45.5622 15.7855C45.3488 15.8189 45.1755 15.8922 45.0422 16.0055C44.9122 16.1155 44.8472 16.2605 44.8472 16.4405C44.8472 16.6105 44.9122 16.7439 45.0422 16.8405C45.1722 16.9339 45.3505 16.9805 45.5772 16.9805Z" fill="#A73C4C"/>
<path d="M74.72 53.1305H74.315V51.6005L73.675 51.9005C73.6317 51.8839 73.595 51.8589 73.565 51.8255C73.5383 51.7922 73.525 51.7505 73.525 51.7005C73.525 51.6039 73.585 51.5305 73.705 51.4805L74.405 51.1755H74.5C74.5667 51.1755 74.62 51.1955 74.66 51.2355C74.7 51.2755 74.72 51.3289 74.72 51.3955V53.1305ZM74.315 52.9305H74.72V54.2555C74.7 54.2622 74.6733 54.2689 74.64 54.2755C74.6067 54.2855 74.57 54.2905 74.53 54.2905C74.46 54.2905 74.4067 54.2755 74.37 54.2455C74.3333 54.2155 74.315 54.1689 74.315 54.1055V52.9305ZM76.6921 54.3155C76.4588 54.3155 76.2521 54.2589 76.0721 54.1455C75.8955 54.0289 75.7571 53.8539 75.6571 53.6205C75.5571 53.3839 75.5071 53.0872 75.5071 52.7305C75.5071 52.3472 75.5638 52.0405 75.6771 51.8105C75.7905 51.5805 75.9371 51.4139 76.1171 51.3105C76.2971 51.2039 76.4888 51.1505 76.6921 51.1505C76.8988 51.1505 77.0921 51.2039 77.2721 51.3105C77.4555 51.4172 77.6021 51.5872 77.7121 51.8205C77.8255 52.0505 77.8821 52.3539 77.8821 52.7305C77.8821 53.0839 77.8321 53.3789 77.7321 53.6155C77.6321 53.8489 77.4921 54.0239 77.3121 54.1405C77.1355 54.2572 76.9288 54.3155 76.6921 54.3155ZM76.6921 53.9755C76.9388 53.9755 77.1305 53.8689 77.2671 53.6555C77.4038 53.4389 77.4721 53.1305 77.4721 52.7305C77.4721 52.4339 77.4355 52.1955 77.3621 52.0155C77.2921 51.8322 77.1988 51.6989 77.0821 51.6155C76.9655 51.5322 76.8355 51.4905 76.6921 51.4905C76.5521 51.4905 76.4221 51.5339 76.3021 51.6205C76.1855 51.7039 76.0921 51.8372 76.0221 52.0205C75.9521 52.2039 75.9171 52.4405 75.9171 52.7305C75.9171 53.1305 75.9855 53.4389 76.1221 53.6555C76.2588 53.8689 76.4488 53.9755 76.6921 53.9755ZM78.5377 54.0055C78.5377 53.9655 78.5477 53.9272 78.5677 53.8905C78.5911 53.8539 78.6194 53.8272 78.6527 53.8105C78.7161 53.8472 78.7977 53.8839 78.8977 53.9205C79.0011 53.9539 79.1227 53.9705 79.2627 53.9705C79.4361 53.9705 79.5944 53.9339 79.7377 53.8605C79.8811 53.7872 79.9961 53.6672 80.0827 53.5005C80.1694 53.3305 80.2127 53.1072 80.2127 52.8305C80.1827 52.8639 80.1327 52.9055 80.0627 52.9555C79.9961 53.0022 79.9111 53.0439 79.8077 53.0805C79.7044 53.1172 79.5844 53.1355 79.4477 53.1355C79.2611 53.1355 79.0861 53.1039 78.9227 53.0405C78.7594 52.9739 78.6277 52.8689 78.5277 52.7255C78.4311 52.5822 78.3827 52.3939 78.3827 52.1605C78.3827 51.9505 78.4294 51.7705 78.5227 51.6205C78.6161 51.4672 78.7427 51.3505 78.9027 51.2705C79.0627 51.1905 79.2411 51.1505 79.4377 51.1505C79.6677 51.1505 79.8711 51.2039 80.0477 51.3105C80.2244 51.4139 80.3627 51.5755 80.4627 51.7955C80.5661 52.0122 80.6177 52.2922 80.6177 52.6355C80.6177 53.0422 80.5611 53.3689 80.4477 53.6155C80.3344 53.8622 80.1761 54.0405 79.9727 54.1505C79.7727 54.2605 79.5377 54.3155 79.2677 54.3155C79.0677 54.3155 78.8961 54.2889 78.7527 54.2355C78.6094 54.1822 78.5377 54.1055 78.5377 54.0055ZM79.5027 52.8005C79.6727 52.8005 79.8227 52.7589 79.9527 52.6755C80.0861 52.5889 80.1744 52.4939 80.2177 52.3905L80.2127 52.4455C80.2127 52.1489 80.1444 51.9155 80.0077 51.7455C79.8744 51.5722 79.6844 51.4855 79.4377 51.4855C79.2544 51.4855 79.0994 51.5455 78.9727 51.6655C78.8494 51.7822 78.7877 51.9439 78.7877 52.1505C78.7877 52.3805 78.8577 52.5472 78.9977 52.6505C79.1377 52.7505 79.3061 52.8005 79.5027 52.8005Z" fill="#A73C4C"/>
<path d="M63.22 53.1305H62.815V51.6005L62.175 51.9005C62.1317 51.8839 62.095 51.8589 62.065 51.8255C62.0383 51.7922 62.025 51.7505 62.025 51.7005C62.025 51.6039 62.085 51.5305 62.205 51.4805L62.905 51.1755H63C63.0667 51.1755 63.12 51.1955 63.16 51.2355C63.2 51.2755 63.22 51.3289 63.22 51.3955V53.1305ZM62.815 52.9305H63.22V54.2555C63.2 54.2622 63.1733 54.2689 63.14 54.2755C63.1067 54.2855 63.07 54.2905 63.03 54.2905C62.96 54.2905 62.9067 54.2755 62.87 54.2455C62.8333 54.2155 62.815 54.1689 62.815 54.1055V52.9305ZM65.0315 53.1305H64.6265V51.6005L63.9865 51.9005C63.9432 51.8839 63.9065 51.8589 63.8765 51.8255C63.8499 51.7922 63.8365 51.7505 63.8365 51.7005C63.8365 51.6039 63.8965 51.5305 64.0165 51.4805L64.7165 51.1755H64.8115C64.8782 51.1755 64.9315 51.1955 64.9715 51.2355C65.0115 51.2755 65.0315 51.3289 65.0315 51.3955V53.1305ZM64.6265 52.9305H65.0315V54.2555C65.0115 54.2622 64.9849 54.2689 64.9515 54.2755C64.9182 54.2855 64.8815 54.2905 64.8415 54.2905C64.7715 54.2905 64.7182 54.2755 64.6815 54.2455C64.6449 54.2155 64.6265 54.1689 64.6265 54.1055V52.9305ZM66.6581 51.1455C66.9747 51.1455 67.2297 51.2155 67.4231 51.3555C67.6197 51.4922 67.7181 51.6989 67.7181 51.9755C67.7181 52.1089 67.6897 52.2239 67.6331 52.3205C67.5797 52.4139 67.5147 52.4872 67.4381 52.5405C67.3647 52.5939 67.2981 52.6289 67.2381 52.6455C67.3281 52.6722 67.4164 52.7189 67.5031 52.7855C67.5897 52.8489 67.6614 52.9322 67.7181 53.0355C67.7781 53.1355 67.8081 53.2572 67.8081 53.4005C67.8081 53.6005 67.7597 53.7672 67.6631 53.9005C67.5664 54.0339 67.4331 54.1355 67.2631 54.2055C67.0931 54.2722 66.8964 54.3055 66.6731 54.3055C66.4897 54.3055 66.3264 54.2872 66.1831 54.2505C66.0431 54.2105 65.9331 54.1605 65.8531 54.1005C65.7731 54.0405 65.7331 53.9772 65.7331 53.9105C65.7331 53.8639 65.7447 53.8239 65.7681 53.7905C65.7947 53.7572 65.8281 53.7289 65.8681 53.7055C65.9547 53.7722 66.0597 53.8322 66.1831 53.8855C66.3097 53.9389 66.4731 53.9655 66.6731 53.9655C66.8931 53.9655 67.0714 53.9189 67.2081 53.8255C67.3447 53.7289 67.4131 53.5839 67.4131 53.3905C67.4131 53.2205 67.3497 53.0839 67.2231 52.9805C67.0964 52.8772 66.9131 52.8255 66.6731 52.8255H66.2581C66.2447 52.8089 66.2331 52.7855 66.2231 52.7555C66.2131 52.7222 66.2081 52.6889 66.2081 52.6555C66.2081 52.6189 66.2131 52.5855 66.2231 52.5555C66.2331 52.5255 66.2447 52.5022 66.2581 52.4855H66.6381C66.8847 52.4855 67.0597 52.4405 67.1631 52.3505C67.2697 52.2572 67.3231 52.1355 67.3231 51.9855C67.3231 51.8222 67.2631 51.6989 67.1431 51.6155C67.0231 51.5289 66.8597 51.4855 66.6531 51.4855C66.4931 51.4855 66.3514 51.5105 66.2281 51.5605C66.1081 51.6072 66.0081 51.6589 65.9281 51.7155C65.8947 51.6989 65.8647 51.6722 65.8381 51.6355C65.8114 51.5989 65.7981 51.5589 65.7981 51.5155C65.7981 51.4555 65.8364 51.3972 65.9131 51.3405C65.9897 51.2839 66.0931 51.2372 66.2231 51.2005C66.3531 51.1639 66.4981 51.1455 66.6581 51.1455Z" fill="#A73C4C"/>
<path d="M42.72 53.1305H42.315V51.6005L41.675 51.9005C41.6317 51.8839 41.595 51.8589 41.565 51.8255C41.5383 51.7922 41.525 51.7505 41.525 51.7005C41.525 51.6039 41.585 51.5305 41.705 51.4805L42.405 51.1755H42.5C42.5667 51.1755 42.62 51.1955 42.66 51.2355C42.7 51.2755 42.72 51.3289 42.72 51.3955V53.1305ZM42.315 52.9305H42.72V54.2555C42.7 54.2622 42.6733 54.2689 42.64 54.2755C42.6067 54.2855 42.57 54.2905 42.53 54.2905C42.46 54.2905 42.4067 54.2755 42.37 54.2455C42.3333 54.2155 42.315 54.1689 42.315 54.1055V52.9305ZM44.5315 53.1305H44.1265V51.6005L43.4865 51.9005C43.4432 51.8839 43.4065 51.8589 43.3765 51.8255C43.3499 51.7922 43.3365 51.7505 43.3365 51.7005C43.3365 51.6039 43.3965 51.5305 43.5165 51.4805L44.2165 51.1755H44.3115C44.3782 51.1755 44.4315 51.1955 44.4715 51.2355C44.5115 51.2755 44.5315 51.3289 44.5315 51.3955V53.1305ZM44.1265 52.9305H44.5315V54.2555C44.5115 54.2622 44.4849 54.2689 44.4515 54.2755C44.4182 54.2855 44.3815 54.2905 44.3415 54.2905C44.2715 54.2905 44.2182 54.2755 44.1815 54.2455C44.1449 54.2155 44.1265 54.1689 44.1265 54.1055V52.9305ZM46.0686 51.2105L45.9336 51.5055L45.8486 52.4505C45.9053 52.4205 45.9836 52.3922 46.0836 52.3655C46.187 52.3355 46.2953 52.3205 46.4086 52.3205C46.6086 52.3205 46.7886 52.3589 46.9486 52.4355C47.1086 52.5089 47.2353 52.6189 47.3286 52.7655C47.4253 52.9089 47.4736 53.0872 47.4736 53.3005C47.4736 53.4939 47.4286 53.6672 47.3386 53.8205C47.252 53.9739 47.1236 54.0955 46.9536 54.1855C46.787 54.2722 46.582 54.3155 46.3386 54.3155C46.1486 54.3155 45.982 54.2939 45.8386 54.2505C45.6953 54.2072 45.5836 54.1539 45.5036 54.0905C45.4236 54.0272 45.3836 53.9655 45.3836 53.9055C45.3836 53.8522 45.4003 53.8055 45.4336 53.7655C45.4703 53.7255 45.507 53.6989 45.5436 53.6855C45.617 53.7489 45.7203 53.8139 45.8536 53.8805C45.987 53.9472 46.1486 53.9805 46.3386 53.9805C46.5686 53.9805 46.747 53.9172 46.8736 53.7905C47.0003 53.6605 47.0636 53.4972 47.0636 53.3005C47.0636 53.0972 46.9986 52.9389 46.8686 52.8255C46.7386 52.7122 46.5686 52.6555 46.3586 52.6555C46.242 52.6555 46.1353 52.6739 46.0386 52.7105C45.942 52.7472 45.852 52.7889 45.7686 52.8355C45.6786 52.8289 45.6053 52.8022 45.5486 52.7555C45.4953 52.7055 45.4686 52.6422 45.4686 52.5655C45.4686 52.5455 45.4686 52.5205 45.4686 52.4905C45.472 52.4572 45.4753 52.4255 45.4786 52.3955L45.5636 51.4405C45.5703 51.3705 45.592 51.3155 45.6286 51.2755C45.6653 51.2322 45.7186 51.2105 45.7886 51.2105H46.0686ZM45.8586 51.5505V51.2105H47.3186C47.3286 51.2239 47.3386 51.2455 47.3486 51.2755C47.3586 51.3055 47.3636 51.3372 47.3636 51.3705C47.3636 51.4239 47.3503 51.4672 47.3236 51.5005C47.297 51.5339 47.2586 51.5505 47.2086 51.5505H45.8586Z" fill="#A73C4C"/>
<path d="M160.72 68.6305H160.315V67.1005L159.675 67.4005C159.632 67.3839 159.595 67.3589 159.565 67.3255C159.538 67.2922 159.525 67.2505 159.525 67.2005C159.525 67.1039 159.585 67.0305 159.705 66.9805L160.405 66.6755H160.5C160.567 66.6755 160.62 66.6955 160.66 66.7355C160.7 66.7755 160.72 66.8289 160.72 66.8955V68.6305ZM160.315 68.4305H160.72V69.7555C160.7 69.7622 160.673 69.7689 160.64 69.7755C160.607 69.7855 160.57 69.7905 160.53 69.7905C160.46 69.7905 160.407 69.7755 160.37 69.7455C160.333 69.7155 160.315 69.6689 160.315 69.6055V68.4305ZM162.692 69.8155C162.459 69.8155 162.252 69.7589 162.072 69.6455C161.895 69.5289 161.757 69.3539 161.657 69.1205C161.557 68.8839 161.507 68.5872 161.507 68.2305C161.507 67.8472 161.564 67.5405 161.677 67.3105C161.79 67.0805 161.937 66.9139 162.117 66.8105C162.297 66.7039 162.489 66.6505 162.692 66.6505C162.899 66.6505 163.092 66.7039 163.272 66.8105C163.455 66.9172 163.602 67.0872 163.712 67.3205C163.825 67.5505 163.882 67.8539 163.882 68.2305C163.882 68.5839 163.832 68.8789 163.732 69.1155C163.632 69.3489 163.492 69.5239 163.312 69.6405C163.135 69.7572 162.929 69.8155 162.692 69.8155ZM162.692 69.4755C162.939 69.4755 163.13 69.3689 163.267 69.1555C163.404 68.9389 163.472 68.6305 163.472 68.2305C163.472 67.9339 163.435 67.6955 163.362 67.5155C163.292 67.3322 163.199 67.1989 163.082 67.1155C162.965 67.0322 162.835 66.9905 162.692 66.9905C162.552 66.9905 162.422 67.0339 162.302 67.1205C162.185 67.2039 162.092 67.3372 162.022 67.5205C161.952 67.7039 161.917 67.9405 161.917 68.2305C161.917 68.6305 161.985 68.9389 162.122 69.1555C162.259 69.3689 162.449 69.4755 162.692 69.4755ZM165.373 68.6305H164.968V67.1005L164.328 67.4005C164.285 67.3839 164.248 67.3589 164.218 67.3255C164.192 67.2922 164.178 67.2505 164.178 67.2005C164.178 67.1039 164.238 67.0305 164.358 66.9805L165.058 66.6755H165.153C165.22 66.6755 165.273 66.6955 165.313 66.7355C165.353 66.7755 165.373 66.8289 165.373 66.8955V68.6305ZM164.968 68.4305H165.373V69.7555C165.353 69.7622 165.327 69.7689 165.293 69.7755C165.26 69.7855 165.223 69.7905 165.183 69.7905C165.113 69.7905 165.06 69.7755 165.023 69.7455C164.987 69.7155 164.968 69.6689 164.968 69.6055V68.4305Z" fill="#A73C4C"/>
<path d="M83.72 53.1305H83.315V51.6005L82.675 51.9005C82.6317 51.8839 82.595 51.8589 82.565 51.8255C82.5383 51.7922 82.525 51.7505 82.525 51.7005C82.525 51.6039 82.585 51.5305 82.705 51.4805L83.405 51.1755H83.5C83.5667 51.1755 83.62 51.1955 83.66 51.2355C83.7 51.2755 83.72 51.3289 83.72 51.3955V53.1305ZM83.315 52.9305H83.72V54.2555C83.7 54.2622 83.6733 54.2689 83.64 54.2755C83.6067 54.2855 83.57 54.2905 83.53 54.2905C83.46 54.2905 83.4067 54.2755 83.37 54.2455C83.3333 54.2155 83.315 54.1689 83.315 54.1055V52.9305ZM85.5315 53.1305H85.1265V51.6005L84.4865 51.9005C84.4432 51.8839 84.4065 51.8589 84.3765 51.8255C84.3499 51.7922 84.3365 51.7505 84.3365 51.7005C84.3365 51.6039 84.3965 51.5305 84.5165 51.4805L85.2165 51.1755H85.3115C85.3782 51.1755 85.4315 51.1955 85.4715 51.2355C85.5115 51.2755 85.5315 51.3289 85.5315 51.3955V53.1305ZM85.1265 52.9305H85.5315V54.2555C85.5115 54.2622 85.4849 54.2689 85.4515 54.2755C85.4182 54.2855 85.3815 54.2905 85.3415 54.2905C85.2715 54.2905 85.2182 54.2755 85.1815 54.2455C85.1449 54.2155 85.1265 54.1689 85.1265 54.1055V52.9305ZM87.3431 53.1305H86.9381V51.6005L86.2981 51.9005C86.2547 51.8839 86.2181 51.8589 86.1881 51.8255C86.1614 51.7922 86.1481 51.7505 86.1481 51.7005C86.1481 51.6039 86.2081 51.5305 86.3281 51.4805L87.0281 51.1755H87.1231C87.1897 51.1755 87.2431 51.1955 87.2831 51.2355C87.3231 51.2755 87.3431 51.3289 87.3431 51.3955V53.1305ZM86.9381 52.9305H87.3431V54.2555C87.3231 54.2622 87.2964 54.2689 87.2631 54.2755C87.2297 54.2855 87.1931 54.2905 87.1531 54.2905C87.0831 54.2905 87.0297 54.2755 86.9931 54.2455C86.9564 54.2155 86.9381 54.1689 86.9381 54.1055V52.9305Z" fill="#A73C4C"/>
<path d="M127.72 16.1305H127.315V14.6005L126.675 14.9005C126.632 14.8839 126.595 14.8589 126.565 14.8255C126.538 14.7922 126.525 14.7505 126.525 14.7005C126.525 14.6039 126.585 14.5305 126.705 14.4805L127.405 14.1755H127.5C127.567 14.1755 127.62 14.1955 127.66 14.2355C127.7 14.2755 127.72 14.3289 127.72 14.3955V16.1305ZM127.315 15.9305H127.72V17.2555C127.7 17.2622 127.673 17.2689 127.64 17.2755C127.607 17.2855 127.57 17.2905 127.53 17.2905C127.46 17.2905 127.407 17.2755 127.37 17.2455C127.333 17.2155 127.315 17.1689 127.315 17.1055V15.9305ZM129.692 17.3155C129.459 17.3155 129.252 17.2589 129.072 17.1455C128.895 17.0289 128.757 16.8539 128.657 16.6205C128.557 16.3839 128.507 16.0872 128.507 15.7305C128.507 15.3472 128.564 15.0405 128.677 14.8105C128.79 14.5805 128.937 14.4139 129.117 14.3105C129.297 14.2039 129.489 14.1505 129.692 14.1505C129.899 14.1505 130.092 14.2039 130.272 14.3105C130.455 14.4172 130.602 14.5872 130.712 14.8205C130.825 15.0505 130.882 15.3539 130.882 15.7305C130.882 16.0839 130.832 16.3789 130.732 16.6155C130.632 16.8489 130.492 17.0239 130.312 17.1405C130.135 17.2572 129.929 17.3155 129.692 17.3155ZM129.692 16.9755C129.939 16.9755 130.13 16.8689 130.267 16.6555C130.404 16.4389 130.472 16.1305 130.472 15.7305C130.472 15.4339 130.435 15.1955 130.362 15.0155C130.292 14.8322 130.199 14.6989 130.082 14.6155C129.965 14.5322 129.835 14.4905 129.692 14.4905C129.552 14.4905 129.422 14.5339 129.302 14.6205C129.185 14.7039 129.092 14.8372 129.022 15.0205C128.952 15.2039 128.917 15.4405 128.917 15.7305C128.917 16.1305 128.985 16.4389 129.122 16.6555C129.259 16.8689 129.449 16.9755 129.692 16.9755ZM131.432 14.5255C131.432 14.4655 131.471 14.4072 131.547 14.3505C131.624 14.2905 131.727 14.2422 131.857 14.2055C131.987 14.1689 132.129 14.1505 132.282 14.1505C132.496 14.1505 132.679 14.1872 132.832 14.2605C132.986 14.3305 133.104 14.4305 133.187 14.5605C133.271 14.6905 133.312 14.8439 133.312 15.0205C133.312 15.2039 133.261 15.3839 133.157 15.5605C133.057 15.7372 132.884 15.9389 132.637 16.1655L131.822 16.9205H133.307C133.321 16.9339 133.332 16.9555 133.342 16.9855C133.352 17.0122 133.357 17.0439 133.357 17.0805C133.357 17.1339 133.342 17.1755 133.312 17.2055C133.286 17.2355 133.249 17.2505 133.202 17.2505H131.437C131.404 17.2272 131.379 17.1989 131.362 17.1655C131.346 17.1289 131.337 17.0905 131.337 17.0505C131.337 16.9972 131.347 16.9505 131.367 16.9105C131.387 16.8672 131.417 16.8272 131.457 16.7905L132.357 15.9255C132.564 15.7322 132.706 15.5705 132.782 15.4405C132.859 15.3072 132.897 15.1689 132.897 15.0255C132.897 14.8689 132.844 14.7405 132.737 14.6405C132.631 14.5405 132.469 14.4905 132.252 14.4905C132.106 14.4905 131.974 14.5155 131.857 14.5655C131.744 14.6155 131.649 14.6689 131.572 14.7255C131.536 14.7089 131.502 14.6839 131.472 14.6505C131.446 14.6172 131.432 14.5755 131.432 14.5255Z" fill="#A73C4C"/>
<path d="M127.72 53.1305H127.315V51.6005L126.675 51.9005C126.632 51.8839 126.595 51.8589 126.565 51.8255C126.538 51.7922 126.525 51.7505 126.525 51.7005C126.525 51.6039 126.585 51.5305 126.705 51.4805L127.405 51.1755H127.5C127.567 51.1755 127.62 51.1955 127.66 51.2355C127.7 51.2755 127.72 51.3289 127.72 51.3955V53.1305ZM127.315 52.9305H127.72V54.2555C127.7 54.2622 127.673 54.2689 127.64 54.2755C127.607 54.2855 127.57 54.2905 127.53 54.2905C127.46 54.2905 127.407 54.2755 127.37 54.2455C127.333 54.2155 127.315 54.1689 127.315 54.1055V52.9305ZM129.692 54.3155C129.459 54.3155 129.252 54.2589 129.072 54.1455C128.895 54.0289 128.757 53.8539 128.657 53.6205C128.557 53.3839 128.507 53.0872 128.507 52.7305C128.507 52.3472 128.564 52.0405 128.677 51.8105C128.79 51.5805 128.937 51.4139 129.117 51.3105C129.297 51.2039 129.489 51.1505 129.692 51.1505C129.899 51.1505 130.092 51.2039 130.272 51.3105C130.455 51.4172 130.602 51.5872 130.712 51.8205C130.825 52.0505 130.882 52.3539 130.882 52.7305C130.882 53.0839 130.832 53.3789 130.732 53.6155C130.632 53.8489 130.492 54.0239 130.312 54.1405C130.135 54.2572 129.929 54.3155 129.692 54.3155ZM129.692 53.9755C129.939 53.9755 130.13 53.8689 130.267 53.6555C130.404 53.4389 130.472 53.1305 130.472 52.7305C130.472 52.4339 130.435 52.1955 130.362 52.0155C130.292 51.8322 130.199 51.6989 130.082 51.6155C129.965 51.5322 129.835 51.4905 129.692 51.4905C129.552 51.4905 129.422 51.5339 129.302 51.6205C129.185 51.7039 129.092 51.8372 129.022 52.0205C128.952 52.2039 128.917 52.4405 128.917 52.7305C128.917 53.1305 128.985 53.4389 129.122 53.6555C129.259 53.8689 129.449 53.9755 129.692 53.9755ZM132.198 51.1455C132.515 51.1455 132.77 51.2155 132.963 51.3555C133.16 51.4922 133.258 51.6989 133.258 51.9755C133.258 52.1089 133.23 52.2239 133.173 52.3205C133.12 52.4139 133.055 52.4872 132.978 52.5405C132.905 52.5939 132.838 52.6289 132.778 52.6455C132.868 52.6722 132.956 52.7189 133.043 52.7855C133.13 52.8489 133.201 52.9322 133.258 53.0355C133.318 53.1355 133.348 53.2572 133.348 53.4005C133.348 53.6005 133.3 53.7672 133.203 53.9005C133.106 54.0339 132.973 54.1355 132.803 54.2055C132.633 54.2722 132.436 54.3055 132.213 54.3055C132.03 54.3055 131.866 54.2872 131.723 54.2505C131.583 54.2105 131.473 54.1605 131.393 54.1005C131.313 54.0405 131.273 53.9772 131.273 53.9105C131.273 53.8639 131.285 53.8239 131.308 53.7905C131.335 53.7572 131.368 53.7289 131.408 53.7055C131.495 53.7722 131.6 53.8322 131.723 53.8855C131.85 53.9389 132.013 53.9655 132.213 53.9655C132.433 53.9655 132.611 53.9189 132.748 53.8255C132.885 53.7289 132.953 53.5839 132.953 53.3905C132.953 53.2205 132.89 53.0839 132.763 52.9805C132.636 52.8772 132.453 52.8255 132.213 52.8255H131.798C131.785 52.8089 131.773 52.7855 131.763 52.7555C131.753 52.7222 131.748 52.6889 131.748 52.6555C131.748 52.6189 131.753 52.5855 131.763 52.5555C131.773 52.5255 131.785 52.5022 131.798 52.4855H132.178C132.425 52.4855 132.6 52.4405 132.703 52.3505C132.81 52.2572 132.863 52.1355 132.863 51.9855C132.863 51.8222 132.803 51.6989 132.683 51.6155C132.563 51.5289 132.4 51.4855 132.193 51.4855C132.033 51.4855 131.891 51.5105 131.768 51.5605C131.648 51.6072 131.548 51.6589 131.468 51.7155C131.435 51.6989 131.405 51.6722 131.378 51.6355C131.351 51.5989 131.338 51.5589 131.338 51.5155C131.338 51.4555 131.376 51.3972 131.453 51.3405C131.53 51.2839 131.633 51.2372 131.763 51.2005C131.893 51.1639 132.038 51.1455 132.198 51.1455Z" fill="#A73C4C"/>
<path d="M10.1383 48.0065V46.4924C10.138 46.4503 10.1213 46.41 10.0918 46.3804C10.0624 46.3508 10.0226 46.3341 9.9812 46.3341H9.60596C9.58075 46.3339 9.55597 46.3276 9.53369 46.3156C9.51142 46.3036 9.4923 46.2864 9.47795 46.2653C9.46361 46.2443 9.45446 46.22 9.45127 46.1946C9.44809 46.1692 9.45096 46.1434 9.45965 46.1194L10.3551 43.6418C10.3663 43.6114 10.3862 43.5852 10.4123 43.5665C10.4384 43.5479 10.4695 43.5376 10.5014 43.5372H11.4496C11.4821 43.5371 11.5137 43.5472 11.5402 43.5662C11.5666 43.5852 11.5866 43.6121 11.5973 43.6432L12.4751 46.1208C12.4832 46.1456 12.4851 46.1721 12.4807 46.1979C12.4763 46.2236 12.4658 46.2479 12.45 46.2686C12.4342 46.2893 12.4137 46.3057 12.3902 46.3164C12.3667 46.3271 12.341 46.3318 12.3153 46.33H11.9089C11.8684 46.3325 11.8304 46.3508 11.8029 46.381C11.7754 46.4113 11.7604 46.4512 11.7612 46.4924V48.0065" stroke="#3A3A3A" stroke-width="0.5" stroke-linecap="round"/>
<path d="M10.9608 42.7554C11.4029 42.7554 11.7614 42.3912 11.7614 41.942C11.7614 41.4927 11.4029 41.1285 10.9608 41.1285C10.5186 41.1285 10.1602 41.4927 10.1602 41.942C10.1602 42.3912 10.5186 42.7554 10.9608 42.7554Z" stroke="#3A3A3A" stroke-width="0.5" stroke-linecap="round"/>
<path d="M10.189 35.1285V33.3548C10.1893 33.3112 10.1804 33.2681 10.163 33.2283C10.1455 33.1885 10.1199 33.1529 10.0879 33.1239L9.7845 32.8424C9.76875 32.8277 9.75618 32.8099 9.7476 32.79C9.73901 32.7701 9.73459 32.7486 9.73462 32.7269V30.8969C9.73462 30.8147 9.76669 30.7357 9.82381 30.6774C9.88093 30.6191 9.95846 30.5862 10.0394 30.5858H11.9929C12.1143 30.5862 12.2305 30.6354 12.3162 30.7228C12.4019 30.8101 12.4501 30.9284 12.4501 31.0518V32.741C12.4497 32.7807 12.4349 32.8188 12.4085 32.848L12.1162 33.1647C12.0626 33.2221 12.0328 33.2982 12.0331 33.3773V35.1285" stroke="#3A3A3A" stroke-width="0.5" stroke-linecap="round"/>
<path d="M11.0922 29.9143C11.5444 29.9143 11.911 29.5419 11.911 29.0824C11.911 28.6229 11.5444 28.2504 11.0922 28.2504C10.64 28.2504 10.2734 28.6229 10.2734 29.0824C10.2734 29.5419 10.64 29.9143 11.0922 29.9143Z" stroke="#3A3A3A" stroke-width="0.5" stroke-linecap="round"/>
</svg>
