<svg width="170" height="97" viewBox="0 0 170 97" fill="none" xmlns="http://www.w3.org/2000/svg">
<path d="M0.25 3.75007H24.75L24.75 0.249969L152.537 0.249603V20.75H168.75V96.75H152.25V74.7501H142.75V65.7501H119.296V61.5045H26.016V71.7501H0.25V3.75007Z" fill="white"/>
<path d="M160.75 74.75H142.75V65.75H119.25V61.25L26.0794 61.52V71.7317H0.25V3.65389H24.72V0.25H152.508V20.6733H168.821L168.75 74.75H166.25" stroke="#A73C4C" stroke-width="0.5"/>
<path d="M26.08 20.25V23.25" stroke="#A73C4C" stroke-width="0.5"/>
<path d="M26.08 28.6187V61.381" stroke="#A73C4C" stroke-width="0.5"/>
<path d="M17.75 20.2499V28.0946" stroke="#A73C4C" stroke-width="0.5"/>
<path d="M17.75 34.5147V41.4861" stroke="#A73C4C" stroke-width="0.5"/>
<path d="M17.75 47.7499V63.2499" stroke="#A73C4C" stroke-width="0.5"/>
<path d="M19.0504 61.5H0.25" stroke="#A73C4C" stroke-width="0.5"/>
<path d="M17.75 38.25H0.25" stroke="#A73C4C" stroke-width="0.5"/>
<path d="M17.75 25.75H14.25" stroke="#A73C4C" stroke-width="0.5"/>
<path d="M8.75 25.75H0.25" stroke="#A73C4C" stroke-width="0.5"/>
<path d="M9.75 13.75V3.74997" stroke="#A73C4C" stroke-width="0.5"/>
<path d="M9.75 20.25V18.75" stroke="#A73C4C" stroke-width="0.5"/>
<path d="M19.0504 51.25H0.25" stroke="#A73C4C" stroke-width="0.5"/>
<path d="M17.75 68.8632V71.7499" stroke="#A73C4C" stroke-width="0.5"/>
<path d="M26.25 61.5H24.5589" stroke="#A73C4C" stroke-width="0.5"/>
<path d="M26.2501 51.25H24.5589" stroke="#A73C4C" stroke-width="0.5"/>
<path d="M119.25 20.25H60.3599" stroke="#A73C4C" stroke-width="0.5"/>
<path d="M53.4053 20.25H25.8287" stroke="#A73C4C" stroke-width="0.5"/>
<path d="M17.9961 20.25H0.25" stroke="#A73C4C" stroke-width="0.5"/>
<path d="M119.25 20.0041V21.7499" stroke="#A73C4C" stroke-width="0.5"/>
<path d="M119.25 27.25V51.7499" stroke="#A73C4C" stroke-width="0.5"/>
<path d="M119.25 57.2499V61.1796" stroke="#A73C4C" stroke-width="0.5"/>
<path d="M142.75 61.25V66.25" stroke="#A73C4C" stroke-width="0.5"/>
<path d="M152.25 61.25H149.25" stroke="#A73C4C" stroke-width="0.5"/>
<path d="M144.047 61.25H140.25" stroke="#A73C4C" stroke-width="0.5"/>
<path d="M134.36 61.25H119.25" stroke="#A73C4C" stroke-width="0.5"/>
<path d="M152.51 50.5V20.75" stroke="#A73C4C" stroke-width="0.5"/>
<path d="M152.285 50.25H158.25" stroke="#A73C4C" stroke-width="0.5"/>
<path d="M152.25 96.75V61.0039" stroke="#A73C4C" stroke-width="0.5"/>
<path d="M168.75 96.75V74.75" stroke="#A73C4C" stroke-width="0.5"/>
<path d="M159.75 95.1643V74.75" stroke="#A73C4C" stroke-width="0.5"/>
<path d="M159.5 95.25H168.75" stroke="#A73C4C" stroke-width="0.5"/>
<path d="M144.3 64.65C144.134 64.65 144 64.7843 144 64.95V71.35C144 71.5156 144.134 71.65 144.3 71.65H145.003H150.7C150.866 71.65 151 71.5156 151 71.35V65.8748V64.95C151 64.7843 150.866 64.65 150.7 64.65H144.3ZM145.615 71.3807V70.673C145.615 70.6178 145.66 70.573 145.715 70.573H146.392C146.558 70.573 146.692 70.4387 146.692 70.273V69.5961C146.692 69.5409 146.737 69.4961 146.792 69.4961H147.469C147.635 69.4961 147.769 69.3618 147.769 69.1961V68.5192C147.769 68.464 147.814 68.4192 147.869 68.4192H148.546C148.712 68.4192 148.846 68.2849 148.846 68.1192V67.4423C148.846 67.387 148.891 67.3423 148.946 67.3423H149.623C149.789 67.3423 149.923 67.208 149.923 67.0423V66.3653C149.923 66.3101 149.968 66.2653 150.023 66.2653H150.731V71.2807C150.731 71.3359 150.686 71.3807 150.631 71.3807L145.615 71.3807ZM150.731 65.9961H149.954C149.788 65.9961 149.654 66.1304 149.654 66.2961V66.973C149.654 67.0283 149.609 67.073 149.554 67.073H148.877C148.711 67.073 148.577 67.2074 148.577 67.373V68.05C148.577 68.1052 148.532 68.15 148.477 68.15H147.8C147.634 68.15 147.5 68.2843 147.5 68.45V69.1269C147.5 69.1821 147.455 69.2269 147.4 69.2269H146.723C146.557 69.2269 146.423 69.3612 146.423 69.5269V70.2038C146.423 70.259 146.378 70.3038 146.323 70.3038H145.646C145.48 70.3038 145.346 70.4381 145.346 70.6038V71.3807H144.369C144.314 71.3807 144.269 71.3359 144.269 71.2807V65.0192C144.269 64.964 144.314 64.9192 144.369 64.9192H150.631C150.686 64.9192 150.731 64.964 150.731 65.0192V65.9961Z" fill="#A73C4C"/>
<path d="M160.55 42.25C160.384 42.25 160.25 42.3843 160.25 42.55V48.95C160.25 49.1157 160.384 49.25 160.55 49.25H161.253H166.95C167.116 49.25 167.25 49.1157 167.25 48.95V43.4748V42.55C167.25 42.3843 167.116 42.25 166.95 42.25H160.55ZM161.865 48.9807V48.273C161.865 48.2178 161.91 48.173 161.965 48.173H162.642C162.808 48.173 162.942 48.0387 162.942 47.873V47.1961C162.942 47.1409 162.987 47.0961 163.042 47.0961H163.719C163.885 47.0961 164.019 46.9618 164.019 46.7961V46.1192C164.019 46.064 164.064 46.0192 164.119 46.0192H164.796C164.962 46.0192 165.096 45.8849 165.096 45.7192V45.0423C165.096 44.987 165.141 44.9423 165.196 44.9423H165.873C166.039 44.9423 166.173 44.808 166.173 44.6423V43.9654C166.173 43.9101 166.218 43.8654 166.273 43.8654H166.981V48.8807C166.981 48.9359 166.936 48.9807 166.881 48.9807L161.865 48.9807ZM166.981 43.5961H166.204C166.038 43.5961 165.904 43.7304 165.904 43.8961V44.573C165.904 44.6283 165.859 44.673 165.804 44.673H165.127C164.961 44.673 164.827 44.8074 164.827 44.973V45.65C164.827 45.7052 164.782 45.75 164.727 45.75H164.05C163.884 45.75 163.75 45.8843 163.75 46.05V46.7269C163.75 46.7821 163.705 46.8269 163.65 46.8269H162.973C162.807 46.8269 162.673 46.9612 162.673 47.1269V47.8038C162.673 47.859 162.628 47.9038 162.573 47.9038H161.896C161.73 47.9038 161.596 48.0381 161.596 48.2038V48.9807H160.619C160.564 48.9807 160.519 48.9359 160.519 48.8807V42.6192C160.519 42.564 160.564 42.5192 160.619 42.5192H166.881C166.936 42.5192 166.981 42.564 166.981 42.6192V43.5961Z" fill="#A73C4C"/>
<path d="M1.8 5.24997C1.63431 5.24997 1.5 5.38428 1.5 5.54997V11.95C1.5 12.1157 1.63431 12.25 1.8 12.25H2.50276H8.2C8.36568 12.25 8.5 12.1157 8.5 11.95V6.47484V5.54997C8.5 5.38428 8.36569 5.24997 8.2 5.24997H1.8ZM3.11538 11.9807V11.273C3.11538 11.2178 3.16016 11.173 3.21538 11.173H3.89231C4.05799 11.173 4.19231 11.0387 4.19231 10.873V10.1961C4.19231 10.1409 4.23708 10.0961 4.29231 10.0961H4.96923C5.13492 10.0961 5.26923 9.96181 5.26923 9.79612V9.1192C5.26923 9.06397 5.314 9.0192 5.36923 9.0192H6.04615C6.21184 9.0192 6.34615 8.88489 6.34615 8.7192V8.04228C6.34615 7.98705 6.39093 7.94228 6.44615 7.94228H7.12308C7.28876 7.94228 7.42308 7.80796 7.42308 7.64228V6.96535C7.42308 6.91013 7.46785 6.86535 7.52308 6.86535H8.23077V11.8807C8.23077 11.9359 8.186 11.9807 8.13077 11.9807L3.11538 11.9807ZM8.23077 6.59612H7.45385C7.28816 6.59612 7.15385 6.73044 7.15385 6.89612V7.57305C7.15385 7.62827 7.10907 7.67305 7.05385 7.67305H6.37692C6.21124 7.67305 6.07692 7.80736 6.07692 7.97305V8.64997C6.07692 8.7052 6.03215 8.74997 5.97692 8.74997H5.3C5.13431 8.74997 5 8.88428 5 9.04997V9.72689C5 9.78212 4.95523 9.82689 4.9 9.82689H4.22308C4.05739 9.82689 3.92308 9.96121 3.92308 10.1269V10.8038C3.92308 10.859 3.8783 10.9038 3.82308 10.9038H3.14615C2.98047 10.9038 2.84615 11.0381 2.84615 11.2038V11.9807H1.86923C1.814 11.9807 1.76923 11.9359 1.76923 11.8807V5.6192C1.76923 5.56397 1.814 5.5192 1.86923 5.5192H8.13077C8.186 5.5192 8.23077 5.56397 8.23077 5.6192V6.59612Z" fill="#A73C4C"/>
<path d="M143.55 22.25C143.384 22.25 143.25 22.3843 143.25 22.55V28.95C143.25 29.1157 143.384 29.25 143.55 29.25H144.253H149.95C150.116 29.25 150.25 29.1157 150.25 28.95V23.4748V22.55C150.25 22.3843 150.116 22.25 149.95 22.25H143.55ZM144.865 28.9807V28.273C144.865 28.2178 144.91 28.173 144.965 28.173H145.642C145.808 28.173 145.942 28.0387 145.942 27.873V27.1961C145.942 27.1409 145.987 27.0961 146.042 27.0961H146.719C146.885 27.0961 147.019 26.9618 147.019 26.7961V26.1192C147.019 26.064 147.064 26.0192 147.119 26.0192H147.796C147.962 26.0192 148.096 25.8849 148.096 25.7192V25.0423C148.096 24.987 148.141 24.9423 148.196 24.9423H148.873C149.039 24.9423 149.173 24.808 149.173 24.6423V23.9654C149.173 23.9101 149.218 23.8654 149.273 23.8654H149.981V28.8807C149.981 28.9359 149.936 28.9807 149.881 28.9807L144.865 28.9807ZM149.981 23.5961H149.204C149.038 23.5961 148.904 23.7304 148.904 23.8961V24.573C148.904 24.6283 148.859 24.673 148.804 24.673H148.127C147.961 24.673 147.827 24.8074 147.827 24.973V25.65C147.827 25.7052 147.782 25.75 147.727 25.75H147.05C146.884 25.75 146.75 25.8843 146.75 26.05V26.7269C146.75 26.7821 146.705 26.8269 146.65 26.8269H145.973C145.807 26.8269 145.673 26.9612 145.673 27.1269V27.8038C145.673 27.859 145.628 27.9038 145.573 27.9038H144.896C144.73 27.9038 144.596 28.0381 144.596 28.2038V28.9807H143.619C143.564 28.9807 143.519 28.9359 143.519 28.8807V22.6192C143.519 22.564 143.564 22.5192 143.619 22.5192H149.881C149.936 22.5192 149.981 22.564 149.981 22.6192V23.5961Z" fill="#A73C4C"/>
<path d="M6.3 63.15C6.13431 63.15 6 63.2843 6 63.45V69.85C6 70.0157 6.13431 70.15 6.3 70.15H7.00276H12.7C12.8657 70.15 13 70.0157 13 69.85V64.3749V63.45C13 63.2843 12.8657 63.15 12.7 63.15H6.3ZM7.61538 69.8808V69.1731C7.61538 69.1178 7.66016 69.0731 7.71538 69.0731H8.39231C8.55799 69.0731 8.69231 68.9388 8.69231 68.7731V68.0961C8.69231 68.0409 8.73708 67.9961 8.79231 67.9961H9.46923C9.63492 67.9961 9.76923 67.8618 9.76923 67.6961V67.0192C9.76923 66.964 9.814 66.9192 9.86923 66.9192H10.5462C10.7118 66.9192 10.8462 66.7849 10.8462 66.6192V65.9423C10.8462 65.8871 10.8909 65.8423 10.9462 65.8423H11.6231C11.7888 65.8423 11.9231 65.708 11.9231 65.5423V64.8654C11.9231 64.8102 11.9678 64.7654 12.0231 64.7654H12.7308V69.7807C12.7308 69.8359 12.686 69.8807 12.6308 69.8807L7.61538 69.8808ZM12.7308 64.4961H11.9538C11.7882 64.4961 11.6538 64.6305 11.6538 64.7961V65.4731C11.6538 65.5283 11.6091 65.5731 11.5538 65.5731H10.8769C10.7112 65.5731 10.5769 65.7074 10.5769 65.8731V66.55C10.5769 66.6052 10.5322 66.65 10.4769 66.65H9.8C9.63431 66.65 9.5 66.7843 9.5 66.95V67.6269C9.5 67.6821 9.45523 67.7269 9.4 67.7269H8.72308C8.55739 67.7269 8.42308 67.8612 8.42308 68.0269V68.7038C8.42308 68.7591 8.3783 68.8038 8.32308 68.8038H7.64615C7.48047 68.8038 7.34615 68.9382 7.34615 69.1038V69.8807H6.36923C6.314 69.8807 6.26923 69.8359 6.26923 69.7807V63.5192C6.26923 63.464 6.314 63.4192 6.36923 63.4192H12.6308C12.686 63.4192 12.7308 63.464 12.7308 63.5192V64.4961Z" fill="#A73C4C"/>
<path d="M145.849 47.8735L146.994 46.4623L147.518 47.1413L146.508 48.4461C146.122 48.9454 145.406 48.4192 145.849 47.8735ZM147.187 44.6599C147.296 44.2983 147.246 43.9894 146.836 43.5304L145.834 42.3062C145.692 42.1366 145.357 42.3857 145.497 42.5911L146.298 43.5936C146.45 43.7806 146.168 44.028 146.012 43.8354L145.183 42.7988C145.029 42.6191 144.71 42.8564 144.871 43.0618C145.105 43.3473 145.466 43.8136 145.7 44.0991C145.862 44.2664 145.615 44.5144 145.456 44.3056L144.633 43.2757C144.513 43.1424 144.315 43.2253 144.263 43.3809C144.207 43.5471 144.345 43.6686 144.439 43.7918L145.357 44.9963C145.642 45.3316 145.96 45.5303 146.331 45.4178C146.387 45.4005 146.457 45.3652 146.531 45.3188L148.997 48.553C149.13 48.7271 149.386 48.7456 149.552 48.6051L149.59 48.5732C149.777 48.4147 149.808 48.1254 149.647 47.9384L147.036 44.89C147.112 44.8038 147.168 44.7221 147.187 44.6599ZM147.885 45.3652L148.291 44.8648C147.768 43.5494 149.704 41.7962 150.642 42.6023C151.782 43.5824 150.088 45.9446 148.897 45.3607L148.416 45.9815L147.885 45.3652Z" fill="#3A3A3A"/>
<path d="M5.93502 55.525C5.93502 55.465 5.97336 55.4066 6.05002 55.35C6.12669 55.29 6.23002 55.2416 6.36002 55.205C6.49002 55.1683 6.63169 55.15 6.78502 55.15C6.99836 55.15 7.18169 55.1866 7.33502 55.26C7.48836 55.33 7.60669 55.43 7.69002 55.56C7.77336 55.69 7.81502 55.8433 7.81502 56.02C7.81502 56.2033 7.76336 56.3833 7.66002 56.56C7.56002 56.7366 7.38669 56.9383 7.14002 57.165L6.32502 57.92H7.81002C7.82336 57.9333 7.83502 57.955 7.84502 57.985C7.85502 58.0116 7.86002 58.0433 7.86002 58.08C7.86002 58.1333 7.84502 58.175 7.81502 58.205C7.78836 58.235 7.75169 58.25 7.70502 58.25H5.94002C5.90669 58.2266 5.88169 58.1983 5.86502 58.165C5.84836 58.1283 5.84002 58.09 5.84002 58.05C5.84002 57.9966 5.85002 57.95 5.87002 57.91C5.89002 57.8666 5.92002 57.8266 5.96002 57.79L6.86002 56.925C7.06669 56.7316 7.20836 56.57 7.28502 56.44C7.36169 56.3066 7.40002 56.1683 7.40002 56.025C7.40002 55.8683 7.34669 55.74 7.24002 55.64C7.13336 55.54 6.97169 55.49 6.75502 55.49C6.60836 55.49 6.47669 55.515 6.36002 55.565C6.24669 55.615 6.15169 55.6683 6.07502 55.725C6.03836 55.7083 6.00502 55.6833 5.97502 55.65C5.94836 55.6166 5.93502 55.575 5.93502 55.525ZM9.59526 58.315C9.36193 58.315 9.15526 58.2583 8.97526 58.145C8.79859 58.0283 8.66026 57.8533 8.56026 57.62C8.46026 57.3833 8.41026 57.0866 8.41026 56.73C8.41026 56.3466 8.46693 56.04 8.58026 55.81C8.69359 55.58 8.84026 55.4133 9.02026 55.31C9.20026 55.2033 9.39193 55.15 9.59526 55.15C9.80193 55.15 9.99526 55.2033 10.1753 55.31C10.3586 55.4166 10.5053 55.5866 10.6153 55.82C10.7286 56.05 10.7853 56.3533 10.7853 56.73C10.7853 57.0833 10.7353 57.3783 10.6353 57.615C10.5353 57.8483 10.3953 58.0233 10.2153 58.14C10.0386 58.2566 9.83193 58.315 9.59526 58.315ZM9.59526 57.975C9.84193 57.975 10.0336 57.8683 10.1703 57.655C10.3069 57.4383 10.3753 57.13 10.3753 56.73C10.3753 56.4333 10.3386 56.195 10.2653 56.015C10.1953 55.8316 10.1019 55.6983 9.98526 55.615C9.86859 55.5316 9.73859 55.49 9.59526 55.49C9.45526 55.49 9.32526 55.5333 9.20526 55.62C9.08859 55.7033 8.99526 55.8366 8.92526 56.02C8.85526 56.2033 8.82026 56.44 8.82026 56.73C8.82026 57.13 8.88859 57.4383 9.02526 57.655C9.16193 57.8683 9.35193 57.975 9.59526 57.975ZM12.1012 55.145C12.4179 55.145 12.6729 55.215 12.8662 55.355C13.0629 55.4916 13.1612 55.6983 13.1612 55.975C13.1612 56.1083 13.1329 56.2233 13.0762 56.32C13.0229 56.4133 12.9579 56.4866 12.8812 56.54C12.8079 56.5933 12.7412 56.6283 12.6812 56.645C12.7712 56.6716 12.8596 56.7183 12.9462 56.785C13.0329 56.8483 13.1046 56.9316 13.1612 57.035C13.2212 57.135 13.2512 57.2566 13.2512 57.4C13.2512 57.6 13.2029 57.7666 13.1062 57.9C13.0096 58.0333 12.8762 58.135 12.7062 58.205C12.5362 58.2716 12.3396 58.305 12.1162 58.305C11.9329 58.305 11.7696 58.2866 11.6262 58.25C11.4862 58.21 11.3762 58.16 11.2962 58.1C11.2162 58.04 11.1762 57.9766 11.1762 57.91C11.1762 57.8633 11.1879 57.8233 11.2112 57.79C11.2379 57.7566 11.2712 57.7283 11.3112 57.705C11.3979 57.7716 11.5029 57.8316 11.6262 57.885C11.7529 57.9383 11.9162 57.965 12.1162 57.965C12.3362 57.965 12.5146 57.9183 12.6512 57.825C12.7879 57.7283 12.8562 57.5833 12.8562 57.39C12.8562 57.22 12.7929 57.0833 12.6662 56.98C12.5396 56.8766 12.3562 56.825 12.1162 56.825H11.7012C11.6879 56.8083 11.6762 56.785 11.6662 56.755C11.6562 56.7216 11.6512 56.6883 11.6512 56.655C11.6512 56.6183 11.6562 56.585 11.6662 56.555C11.6762 56.525 11.6879 56.5016 11.7012 56.485H12.0812C12.3279 56.485 12.5029 56.44 12.6062 56.35C12.7129 56.2566 12.7662 56.135 12.7662 55.985C12.7662 55.8216 12.7062 55.6983 12.5862 55.615C12.4662 55.5283 12.3029 55.485 12.0962 55.485C11.9362 55.485 11.7946 55.51 11.6712 55.56C11.5512 55.6066 11.4512 55.6583 11.3712 55.715C11.3379 55.6983 11.3079 55.6716 11.2812 55.635C11.2546 55.5983 11.2412 55.5583 11.2412 55.515C11.2412 55.455 11.2796 55.3966 11.3562 55.34C11.4329 55.2833 11.5362 55.2366 11.6662 55.2C11.7962 55.1633 11.9412 55.145 12.1012 55.145Z" fill="#A73C4C"/>
<path d="M161.035 83.525C161.035 83.465 161.073 83.4066 161.15 83.35C161.227 83.29 161.33 83.2416 161.46 83.205C161.59 83.1683 161.732 83.15 161.885 83.15C162.098 83.15 162.282 83.1866 162.435 83.26C162.588 83.33 162.707 83.43 162.79 83.56C162.873 83.69 162.915 83.8433 162.915 84.02C162.915 84.2033 162.863 84.3833 162.76 84.56C162.66 84.7366 162.487 84.9383 162.24 85.165L161.425 85.92H162.91C162.923 85.9333 162.935 85.955 162.945 85.985C162.955 86.0116 162.96 86.0433 162.96 86.08C162.96 86.1333 162.945 86.175 162.915 86.205C162.888 86.235 162.852 86.25 162.805 86.25H161.04C161.007 86.2266 160.982 86.1983 160.965 86.165C160.948 86.1283 160.94 86.09 160.94 86.05C160.94 85.9966 160.95 85.95 160.97 85.91C160.99 85.8666 161.02 85.8266 161.06 85.79L161.96 84.925C162.167 84.7316 162.308 84.57 162.385 84.44C162.462 84.3066 162.5 84.1683 162.5 84.025C162.5 83.8683 162.447 83.74 162.34 83.64C162.233 83.54 162.072 83.49 161.855 83.49C161.708 83.49 161.577 83.515 161.46 83.565C161.347 83.615 161.252 83.6683 161.175 83.725C161.138 83.7083 161.105 83.6833 161.075 83.65C161.048 83.6166 161.035 83.575 161.035 83.525ZM164.695 86.315C164.462 86.315 164.255 86.2583 164.075 86.145C163.899 86.0283 163.76 85.8533 163.66 85.62C163.56 85.3833 163.51 85.0866 163.51 84.73C163.51 84.3466 163.567 84.04 163.68 83.81C163.794 83.58 163.94 83.4133 164.12 83.31C164.3 83.2033 164.492 83.15 164.695 83.15C164.902 83.15 165.095 83.2033 165.275 83.31C165.459 83.4166 165.605 83.5866 165.715 83.82C165.829 84.05 165.885 84.3533 165.885 84.73C165.885 85.0833 165.835 85.3783 165.735 85.615C165.635 85.8483 165.495 86.0233 165.315 86.14C165.139 86.2566 164.932 86.315 164.695 86.315ZM164.695 85.975C164.942 85.975 165.134 85.8683 165.27 85.655C165.407 85.4383 165.475 85.13 165.475 84.73C165.475 84.4333 165.439 84.195 165.365 84.015C165.295 83.8316 165.202 83.6983 165.085 83.615C164.969 83.5316 164.839 83.49 164.695 83.49C164.555 83.49 164.425 83.5333 164.305 83.62C164.189 83.7033 164.095 83.8366 164.025 84.02C163.955 84.2033 163.92 84.44 163.92 84.73C163.92 85.13 163.989 85.4383 164.125 85.655C164.262 85.8683 164.452 85.975 164.695 85.975ZM167.376 85.13H166.971V83.6L166.331 83.9C166.288 83.8833 166.251 83.8583 166.221 83.825C166.195 83.7916 166.181 83.75 166.181 83.7C166.181 83.6033 166.241 83.53 166.361 83.48L167.061 83.175H167.156C167.223 83.175 167.276 83.195 167.316 83.235C167.356 83.275 167.376 83.3283 167.376 83.395V85.13ZM166.971 84.93H167.376V86.255C167.356 86.2616 167.33 86.2683 167.296 86.275C167.263 86.285 167.226 86.29 167.186 86.29C167.116 86.29 167.063 86.275 167.026 86.245C166.99 86.215 166.971 86.1683 166.971 86.105V84.93Z" fill="#A73C4C"/>
<path d="M58.7209 40.2C58.6875 40.2366 58.6425 40.2533 58.5859 40.25C58.5292 40.25 58.4842 40.23 58.4509 40.19L56.8309 38.265L58.3209 36.405C58.3575 36.365 58.4025 36.345 58.4559 36.345C58.5092 36.3416 58.5542 36.3583 58.5909 36.395C58.6309 36.435 58.6492 36.4783 58.6459 36.525C58.6459 36.5683 58.6292 36.61 58.5959 36.65L57.3009 38.245L58.7409 39.94C58.7775 39.9833 58.7925 40.0283 58.7859 40.075C58.7825 40.1183 58.7609 40.16 58.7209 40.2ZM56.2009 40.25C56.1442 40.25 56.0975 40.2316 56.0609 40.195C56.0242 40.1583 56.0059 40.1116 56.0059 40.055V36.54C56.0059 36.4833 56.0242 36.4366 56.0609 36.4C56.0975 36.3633 56.1442 36.345 56.2009 36.345C56.2575 36.345 56.3042 36.3633 56.3409 36.4C56.3775 36.4366 56.3959 36.4833 56.3959 36.54V38.1H57.1859V38.45H56.3959V40.055C56.3959 40.1116 56.3775 40.1583 56.3409 40.195C56.3042 40.2316 56.2575 40.25 56.2009 40.25ZM60.3356 40.275C60.069 40.275 59.8306 40.215 59.6206 40.095C59.4106 39.975 59.2456 39.81 59.1256 39.6C59.0056 39.39 58.9456 39.1516 58.9456 38.885C58.9456 38.615 59.0056 38.375 59.1256 38.165C59.2456 37.955 59.4106 37.79 59.6206 37.67C59.8306 37.55 60.069 37.49 60.3356 37.49C60.6023 37.49 60.839 37.55 61.0456 37.67C61.2556 37.79 61.4206 37.955 61.5406 38.165C61.6606 38.375 61.7223 38.615 61.7256 38.885C61.7256 39.1516 61.664 39.39 61.5406 39.6C61.4206 39.81 61.2556 39.975 61.0456 40.095C60.839 40.215 60.6023 40.275 60.3356 40.275ZM60.3356 39.925C60.529 39.925 60.7023 39.88 60.8556 39.79C61.009 39.7 61.129 39.5766 61.2156 39.42C61.3023 39.2633 61.3456 39.085 61.3456 38.885C61.3456 38.685 61.3023 38.5066 61.2156 38.35C61.129 38.19 61.009 38.065 60.8556 37.975C60.7023 37.885 60.529 37.84 60.3356 37.84C60.1423 37.84 59.969 37.885 59.8156 37.975C59.6623 38.065 59.5406 38.19 59.4506 38.35C59.364 38.5066 59.3206 38.685 59.3206 38.885C59.3206 39.085 59.364 39.2633 59.4506 39.42C59.5406 39.5766 59.6623 39.7 59.8156 39.79C59.969 39.88 60.1423 39.925 60.3356 39.925ZM64.8144 40.25C64.7577 40.25 64.7111 40.2333 64.6744 40.2C64.6377 40.1633 64.6194 40.115 64.6194 40.055V37.71C64.6194 37.65 64.6377 37.6033 64.6744 37.57C64.7111 37.5333 64.7577 37.515 64.8144 37.515C64.8711 37.515 64.9161 37.5333 64.9494 37.57C64.9827 37.6033 64.9994 37.65 64.9994 37.71V40.055C64.9994 40.115 64.9827 40.1633 64.9494 40.2C64.9161 40.2333 64.8711 40.25 64.8144 40.25ZM62.6644 40.25C62.6077 40.25 62.5611 40.2333 62.5244 40.2C62.4911 40.1633 62.4744 40.115 62.4744 40.055V37.71C62.4744 37.65 62.4911 37.6033 62.5244 37.57C62.5611 37.5333 62.6077 37.515 62.6644 37.515C62.7211 37.515 62.7661 37.5333 62.7994 37.57C62.8361 37.6033 62.8544 37.65 62.8544 37.71V40.055C62.8544 40.115 62.8361 40.1633 62.7994 40.2C62.7661 40.2333 62.7211 40.25 62.6644 40.25ZM62.7894 39.045V38.7H64.7544V39.045H62.7894ZM67.0873 40.28C66.8439 40.28 66.6289 40.2266 66.4423 40.12C66.2556 40.01 66.1089 39.8583 66.0023 39.665C65.8989 39.4716 65.8473 39.2516 65.8473 39.005V37.705C65.8473 37.6483 65.8639 37.6033 65.8973 37.57C65.9339 37.5333 65.9806 37.515 66.0373 37.515C66.0939 37.515 66.1406 37.5333 66.1773 37.57C66.2139 37.6033 66.2323 37.6483 66.2323 37.705V39.005C66.2323 39.1816 66.2706 39.3383 66.3473 39.475C66.4239 39.6116 66.5289 39.72 66.6623 39.8C66.7956 39.8766 66.9506 39.915 67.1273 39.915C67.2973 39.915 67.4473 39.885 67.5773 39.825C67.7073 39.7616 67.8089 39.675 67.8823 39.565C67.9589 39.455 67.9973 39.3283 67.9973 39.185L68.2223 39.195C68.2156 39.405 68.1623 39.5933 68.0623 39.76C67.9623 39.9233 67.8273 40.0516 67.6573 40.145C67.4906 40.235 67.3006 40.28 67.0873 40.28ZM68.6873 41.105C68.6306 41.105 68.5839 41.0866 68.5473 41.05C68.5139 41.0166 68.4973 40.97 68.4973 40.91V40.25H68.3723C68.2389 40.25 68.1423 40.22 68.0823 40.16C68.0256 40.1 67.9973 40.005 67.9973 39.875V37.705C67.9973 37.6483 68.0139 37.6033 68.0473 37.57C68.0839 37.5333 68.1306 37.515 68.1873 37.515C68.2439 37.515 68.2906 37.5333 68.3273 37.57C68.3639 37.6033 68.3823 37.6483 68.3823 37.705V39.915H68.6723C68.7323 39.915 68.7789 39.9333 68.8123 39.97C68.8489 40.0033 68.8673 40.05 68.8673 40.11V40.91C68.8673 40.97 68.8506 41.0166 68.8173 41.05C68.7873 41.0866 68.7439 41.105 68.6873 41.105ZM70.6627 40.275C70.3927 40.275 70.1527 40.2166 69.9427 40.1C69.736 39.98 69.5727 39.815 69.4527 39.605C69.336 39.395 69.2777 39.155 69.2777 38.885C69.2777 38.6116 69.3327 38.3716 69.4427 38.165C69.556 37.955 69.711 37.79 69.9077 37.67C70.1043 37.55 70.331 37.49 70.5877 37.49C70.841 37.49 71.061 37.5483 71.2477 37.665C71.4377 37.7783 71.5843 37.9366 71.6877 38.14C71.791 38.3433 71.8427 38.575 71.8427 38.835C71.8427 38.8883 71.826 38.9316 71.7927 38.965C71.7593 38.995 71.716 39.01 71.6627 39.01H69.5377V38.69H71.7027L71.4877 38.845C71.491 38.6516 71.456 38.4783 71.3827 38.325C71.3093 38.1716 71.2043 38.0516 71.0677 37.965C70.9343 37.8783 70.7743 37.835 70.5877 37.835C70.3977 37.835 70.231 37.88 70.0877 37.97C69.9443 38.06 69.8327 38.185 69.7527 38.345C69.676 38.5016 69.6377 38.6816 69.6377 38.885C69.6377 39.0883 69.681 39.2683 69.7677 39.425C69.8577 39.5816 69.9793 39.705 70.1327 39.795C70.286 39.885 70.4627 39.93 70.6627 39.93C70.7827 39.93 70.9027 39.91 71.0227 39.87C71.146 39.8266 71.2443 39.7733 71.3177 39.71C71.3543 39.68 71.396 39.665 71.4427 39.665C71.4893 39.6616 71.5293 39.6733 71.5627 39.7C71.606 39.74 71.6277 39.7833 71.6277 39.83C71.631 39.8766 71.6127 39.9166 71.5727 39.95C71.4627 40.0433 71.3227 40.1216 71.1527 40.185C70.9827 40.245 70.8193 40.275 70.6627 40.275ZM72.6889 41.42C72.6289 41.42 72.5806 41.4016 72.5439 41.365C72.5106 41.3316 72.4939 41.285 72.4939 41.225V38.865C72.4973 38.605 72.5589 38.3716 72.6789 38.165C72.8023 37.955 72.9673 37.79 73.1739 37.67C73.3839 37.55 73.6189 37.49 73.8789 37.49C74.1456 37.49 74.3839 37.5516 74.5939 37.675C74.8039 37.795 74.9689 37.96 75.0889 38.17C75.2123 38.38 75.2739 38.6183 75.2739 38.885C75.2739 39.1483 75.2139 39.385 75.0939 39.595C74.9773 39.805 74.8173 39.9716 74.6139 40.095C74.4106 40.215 74.1806 40.275 73.9239 40.275C73.7006 40.275 73.4973 40.2283 73.3139 40.135C73.1339 40.0383 72.9889 39.9116 72.8789 39.755V41.225C72.8789 41.285 72.8606 41.3316 72.8239 41.365C72.7906 41.4016 72.7456 41.42 72.6889 41.42ZM73.8789 39.925C74.0723 39.925 74.2456 39.88 74.3989 39.79C74.5523 39.7 74.6723 39.5766 74.7589 39.42C74.8489 39.26 74.8939 39.0816 74.8939 38.885C74.8939 38.685 74.8489 38.5066 74.7589 38.35C74.6723 38.1933 74.5523 38.07 74.3989 37.98C74.2456 37.8866 74.0723 37.84 73.8789 37.84C73.6889 37.84 73.5173 37.8866 73.3639 37.98C73.2106 38.07 73.0906 38.1933 73.0039 38.35C72.9173 38.5066 72.8739 38.685 72.8739 38.885C72.8739 39.0816 72.9173 39.26 73.0039 39.42C73.0906 39.5766 73.2106 39.7 73.3639 39.79C73.5173 39.88 73.6889 39.925 73.8789 39.925ZM79.7241 40.25C79.6674 40.25 79.6208 40.2333 79.5841 40.2C79.5474 40.1633 79.5291 40.1166 79.5291 40.06V38.62C79.5291 38.3833 79.4674 38.1966 79.3441 38.06C79.2208 37.92 79.0624 37.85 78.8691 37.85C78.6624 37.85 78.4924 37.92 78.3591 38.06C78.2291 38.1966 78.1658 38.38 78.1691 38.61H77.8241C77.8274 38.3866 77.8758 38.19 77.9691 38.02C78.0624 37.85 78.1908 37.7183 78.3541 37.625C78.5174 37.5316 78.7024 37.485 78.9091 37.485C79.1058 37.485 79.2791 37.5316 79.4291 37.625C79.5824 37.7183 79.7008 37.85 79.7841 38.02C79.8708 38.19 79.9141 38.39 79.9141 38.62V40.06C79.9141 40.1166 79.8958 40.1633 79.8591 40.2C79.8258 40.2333 79.7808 40.25 79.7241 40.25ZM76.2241 40.25C76.1641 40.25 76.1158 40.2333 76.0791 40.2C76.0458 40.1633 76.0291 40.1166 76.0291 40.06V37.71C76.0291 37.6533 76.0458 37.6066 76.0791 37.57C76.1158 37.5333 76.1641 37.515 76.2241 37.515C76.2808 37.515 76.3258 37.5333 76.3591 37.57C76.3958 37.6066 76.4141 37.6533 76.4141 37.71V40.06C76.4141 40.1166 76.3958 40.1633 76.3591 40.2C76.3258 40.2333 76.2808 40.25 76.2241 40.25ZM77.9791 40.25C77.9224 40.25 77.8758 40.2333 77.8391 40.2C77.8024 40.1633 77.7841 40.1166 77.7841 40.06V38.62C77.7841 38.3833 77.7224 38.1966 77.5991 38.06C77.4758 37.92 77.3174 37.85 77.1241 37.85C76.9174 37.85 76.7474 37.9183 76.6141 38.055C76.4808 38.1883 76.4141 38.3633 76.4141 38.58H76.1391C76.1458 38.3666 76.1924 38.1783 76.2791 38.015C76.3691 37.8483 76.4908 37.7183 76.6441 37.625C76.7974 37.5316 76.9708 37.485 77.1641 37.485C77.3608 37.485 77.5341 37.5316 77.6841 37.625C77.8374 37.7183 77.9558 37.85 78.0391 38.02C78.1258 38.19 78.1691 38.39 78.1691 38.62V40.06C78.1691 40.1166 78.1508 40.1633 78.1141 40.2C78.0808 40.2333 78.0358 40.25 77.9791 40.25ZM83.1054 40.25C83.0488 40.25 83.0021 40.2333 82.9654 40.2C82.9288 40.1633 82.9104 40.115 82.9104 40.055V37.71C82.9104 37.65 82.9288 37.6033 82.9654 37.57C83.0021 37.5333 83.0488 37.515 83.1054 37.515C83.1621 37.515 83.2071 37.5333 83.2404 37.57C83.2738 37.6033 83.2904 37.65 83.2904 37.71V40.055C83.2904 40.115 83.2738 40.1633 83.2404 40.2C83.2071 40.2333 83.1621 40.25 83.1054 40.25ZM80.9554 40.25C80.8988 40.25 80.8521 40.2333 80.8154 40.2C80.7821 40.1633 80.7654 40.115 80.7654 40.055V37.71C80.7654 37.65 80.7821 37.6033 80.8154 37.57C80.8521 37.5333 80.8988 37.515 80.9554 37.515C81.0121 37.515 81.0571 37.5333 81.0904 37.57C81.1271 37.6033 81.1454 37.65 81.1454 37.71V40.055C81.1454 40.115 81.1271 40.1633 81.0904 40.2C81.0571 40.2333 81.0121 40.25 80.9554 40.25ZM81.0804 39.045V38.7H83.0454V39.045H81.0804ZM85.2933 40.3C85.0766 40.3 84.8849 40.2566 84.7183 40.17C84.5549 40.0833 84.4249 39.9633 84.3283 39.81C84.2349 39.6566 84.1883 39.48 84.1883 39.28V37.705C84.1916 37.6483 84.2099 37.6033 84.2433 37.57C84.2799 37.5333 84.3266 37.515 84.3833 37.515C84.4399 37.515 84.4849 37.5333 84.5183 37.57C84.5549 37.6033 84.5733 37.65 84.5733 37.71V38.42H85.3133C85.5133 38.42 85.6899 38.4583 85.8433 38.535C85.9999 38.6083 86.1216 38.715 86.2083 38.855C86.2949 38.9916 86.3383 39.155 86.3383 39.345C86.3383 39.5383 86.2933 39.7066 86.2033 39.85C86.1166 39.9933 85.9933 40.105 85.8333 40.185C85.6766 40.2616 85.4966 40.3 85.2933 40.3ZM85.2933 39.945C85.4866 39.945 85.6466 39.895 85.7733 39.795C85.8999 39.695 85.9633 39.545 85.9633 39.345C85.9633 39.145 85.9016 38.9966 85.7783 38.9C85.6583 38.8033 85.5033 38.755 85.3133 38.755H84.5733V39.28C84.5733 39.4733 84.6399 39.6333 84.7733 39.76C84.9099 39.8833 85.0833 39.945 85.2933 39.945ZM86.9633 40.25C86.9066 40.25 86.8599 40.2333 86.8233 40.2C86.7899 40.1633 86.7733 40.115 86.7733 40.055V37.71C86.7733 37.65 86.7899 37.6033 86.8233 37.57C86.8599 37.5333 86.9066 37.515 86.9633 37.515C87.0233 37.515 87.0699 37.5333 87.1033 37.57C87.1399 37.6033 87.1583 37.65 87.1583 37.71V40.055C87.1583 40.115 87.1399 40.1633 87.1033 40.2C87.0699 40.2333 87.0233 40.25 86.9633 40.25ZM89.2504 40.28C89.0137 40.28 88.802 40.2316 88.6154 40.135C88.4287 40.035 88.2804 39.89 88.1704 39.7C88.0637 39.51 88.0104 39.2783 88.0104 39.005V37.705C88.0104 37.6516 88.0287 37.6066 88.0654 37.57C88.102 37.5333 88.147 37.515 88.2004 37.515C88.257 37.515 88.3037 37.5333 88.3404 37.57C88.377 37.6066 88.3954 37.6516 88.3954 37.705V39.005C88.3954 39.2116 88.4337 39.3816 88.5104 39.515C88.5904 39.6483 88.697 39.7483 88.8304 39.815C88.967 39.8816 89.1204 39.915 89.2904 39.915C89.4537 39.915 89.6004 39.8833 89.7304 39.82C89.8637 39.7566 89.9687 39.67 90.0454 39.56C90.122 39.45 90.1604 39.325 90.1604 39.185H90.4354C90.4254 39.395 90.367 39.5833 90.2604 39.75C90.157 39.9133 90.017 40.0433 89.8404 40.14C89.6637 40.2333 89.467 40.28 89.2504 40.28ZM90.3504 40.25C90.2937 40.25 90.247 40.2333 90.2104 40.2C90.177 40.1633 90.1604 40.115 90.1604 40.055V37.705C90.1604 37.6483 90.177 37.6033 90.2104 37.57C90.247 37.5333 90.2937 37.515 90.3504 37.515C90.407 37.515 90.4537 37.5333 90.4904 37.57C90.527 37.6033 90.5454 37.6483 90.5454 37.705V40.055C90.5454 40.115 90.527 40.1633 90.4904 40.2C90.4537 40.2333 90.407 40.25 90.3504 40.25ZM89.3054 37.16C89.142 37.16 88.9954 37.1333 88.8654 37.08C88.7354 37.0233 88.632 36.9466 88.5554 36.85C88.482 36.7533 88.4454 36.645 88.4454 36.525C88.4454 36.4716 88.462 36.4266 88.4954 36.39C88.532 36.3533 88.5754 36.335 88.6254 36.335C88.6787 36.335 88.722 36.3533 88.7554 36.39C88.7887 36.4266 88.8054 36.4766 88.8054 36.54C88.8054 36.6333 88.8537 36.7083 88.9504 36.765C89.047 36.8216 89.1654 36.85 89.3054 36.85C89.4487 36.85 89.567 36.8216 89.6604 36.765C89.757 36.7083 89.8054 36.6333 89.8054 36.54C89.8054 36.4766 89.822 36.4266 89.8554 36.39C89.892 36.3533 89.9354 36.335 89.9854 36.335C90.0387 36.335 90.082 36.3533 90.1154 36.39C90.1487 36.4266 90.1654 36.4716 90.1654 36.525C90.1654 36.645 90.127 36.7533 90.0504 36.85C89.977 36.9466 89.8754 37.0233 89.7454 37.08C89.6154 37.1333 89.4687 37.16 89.3054 37.16ZM70.1192 46.295C69.9759 46.295 69.8359 46.2766 69.6992 46.24C69.5625 46.2 69.4392 46.1466 69.3292 46.08C69.2192 46.01 69.1325 45.9333 69.0692 45.85C69.0359 45.8066 69.0225 45.76 69.0292 45.71C69.0392 45.66 69.0692 45.62 69.1192 45.59C69.1559 45.5666 69.1992 45.5616 69.2492 45.575C69.3025 45.585 69.3459 45.6083 69.3792 45.645C69.4625 45.7316 69.5675 45.8033 69.6942 45.86C69.8209 45.9166 69.9609 45.945 70.1142 45.945C70.3142 45.945 70.4759 45.9033 70.5992 45.82C70.7259 45.7366 70.7892 45.6183 70.7892 45.465C70.7892 45.3316 70.7392 45.22 70.6392 45.13C70.5425 45.04 70.4209 44.9916 70.2742 44.985H70.0192C69.9559 44.985 69.9042 44.97 69.8642 44.94C69.8242 44.9066 69.8042 44.8666 69.8042 44.82C69.8042 44.7733 69.8242 44.735 69.8642 44.705C69.9042 44.675 69.9559 44.66 70.0192 44.66H70.2742C70.3975 44.6566 70.4975 44.615 70.5742 44.535C70.6509 44.455 70.6892 44.3566 70.6892 44.24C70.6892 44.12 70.6359 44.0216 70.5292 43.945C70.4259 43.8683 70.2859 43.83 70.1092 43.83C69.9459 43.83 69.8092 43.8566 69.6992 43.91C69.5892 43.9633 69.5009 44.0316 69.4342 44.115C69.3975 44.155 69.3542 44.18 69.3042 44.19C69.2575 44.1966 69.2125 44.1866 69.1692 44.16C69.1259 44.1366 69.1009 44.1 69.0942 44.05C69.0909 44 69.1059 43.9533 69.1392 43.91C69.2459 43.7866 69.3809 43.6833 69.5442 43.6C69.7109 43.5166 69.8975 43.475 70.1042 43.475C70.2909 43.475 70.4559 43.5083 70.5992 43.575C70.7459 43.6383 70.8609 43.7266 70.9442 43.84C71.0275 43.95 71.0692 44.0733 71.0692 44.21C71.0692 44.32 71.0392 44.4216 70.9792 44.515C70.9225 44.605 70.8442 44.68 70.7442 44.74C70.6475 44.7966 70.5392 44.83 70.4192 44.84V44.785C70.5592 44.785 70.6859 44.815 70.7992 44.875C70.9125 44.935 71.0025 45.0183 71.0692 45.125C71.1359 45.2283 71.1692 45.345 71.1692 45.475C71.1692 45.6316 71.1225 45.7716 71.0292 45.895C70.9392 46.0183 70.8142 46.1166 70.6542 46.19C70.4975 46.26 70.3192 46.295 70.1192 46.295ZM73.0276 46.275C72.7709 46.275 72.5409 46.215 72.3376 46.095C72.1342 45.9716 71.9726 45.805 71.8526 45.595C71.7359 45.385 71.6776 45.1483 71.6776 44.885C71.6776 44.6183 71.7376 44.38 71.8576 44.17C71.9809 43.96 72.1476 43.795 72.3576 43.675C72.5676 43.5516 72.8042 43.49 73.0676 43.49C73.3309 43.49 73.5659 43.5516 73.7726 43.675C73.9826 43.795 74.1476 43.96 74.2676 44.17C74.3909 44.38 74.4542 44.6183 74.4576 44.885L74.3026 45.005C74.3026 45.245 74.2459 45.4616 74.1326 45.655C74.0226 45.845 73.8709 45.9966 73.6776 46.11C73.4876 46.22 73.2709 46.275 73.0276 46.275ZM73.0676 45.925C73.2609 45.925 73.4326 45.88 73.5826 45.79C73.7359 45.7 73.8559 45.5766 73.9426 45.42C74.0326 45.26 74.0776 45.0816 74.0776 44.885C74.0776 44.685 74.0326 44.5066 73.9426 44.35C73.8559 44.1933 73.7359 44.07 73.5826 43.98C73.4326 43.8866 73.2609 43.84 73.0676 43.84C72.8776 43.84 72.7059 43.8866 72.5526 43.98C72.3992 44.07 72.2776 44.1933 72.1876 44.35C72.0976 44.5066 72.0526 44.685 72.0526 44.885C72.0526 45.0816 72.0976 45.26 72.1876 45.42C72.2776 45.5766 72.3992 45.7 72.5526 45.79C72.7059 45.88 72.8776 45.925 73.0676 45.925ZM74.2626 46.25C74.2059 46.25 74.1592 46.2333 74.1226 46.2C74.0859 46.1633 74.0676 46.1166 74.0676 46.06V45.205L74.1626 44.81L74.4576 44.885V46.06C74.4576 46.1166 74.4392 46.1633 74.4026 46.2C74.3659 46.2333 74.3192 46.25 74.2626 46.25ZM76.2263 43.515C76.2663 43.515 76.303 43.525 76.3363 43.545C76.3697 43.565 76.3963 43.5983 76.4163 43.645L77.5013 46.005C77.5247 46.0516 77.5263 46.0966 77.5063 46.14C77.4897 46.18 77.458 46.2116 77.4113 46.235C77.358 46.2583 77.3097 46.2633 77.2663 46.25C77.223 46.2333 77.188 46.2 77.1613 46.15L76.1263 43.845H76.3513L75.2963 46.145C75.273 46.195 75.2363 46.2283 75.1863 46.245C75.1397 46.2583 75.0913 46.2533 75.0413 46.23C74.9947 46.2066 74.9613 46.175 74.9413 46.135C74.9247 46.0916 74.9263 46.0466 74.9463 46L76.0463 43.645C76.0863 43.5583 76.1463 43.515 76.2263 43.515Z" fill="#A73C4C"/>
<path d="M7.93832 48.128V46.6139C7.93797 46.5718 7.92125 46.5315 7.89182 46.5019C7.86239 46.4722 7.82263 46.4556 7.78118 46.4556H7.40594C7.38074 46.4554 7.35596 46.4491 7.33368 46.4371C7.3114 46.4251 7.29229 46.4079 7.27794 46.3868C7.2636 46.3658 7.25445 46.3415 7.25126 46.3161C7.24808 46.2907 7.25095 46.2649 7.25964 46.2409L8.15507 43.7633C8.16625 43.7329 8.1862 43.7067 8.21231 43.688C8.23841 43.6694 8.26946 43.6591 8.30137 43.6587H9.24963C9.28204 43.6586 9.31368 43.6687 9.34014 43.6877C9.36661 43.7067 9.38659 43.7336 9.39729 43.7647L10.2751 46.2423C10.2832 46.2671 10.2851 46.2936 10.2807 46.3194C10.2763 46.3451 10.2658 46.3694 10.25 46.3901C10.2342 46.4108 10.2136 46.4272 10.1902 46.4379C10.1667 46.4486 10.1409 46.4532 10.1153 46.4515H9.70886C9.66838 46.454 9.63041 46.4722 9.60289 46.5025C9.57537 46.5328 9.56043 46.5727 9.56121 46.6139V48.128" stroke="#3A3A3A" stroke-width="0.5" stroke-linecap="round"/>
<path d="M8.76075 42.8769C9.20291 42.8769 9.56135 42.5127 9.56135 42.0634C9.56135 41.6142 9.20291 41.25 8.76075 41.25C8.31859 41.25 7.96014 41.6142 7.96014 42.0634C7.96014 42.5127 8.31859 42.8769 8.76075 42.8769Z" stroke="#3A3A3A" stroke-width="0.5" stroke-linecap="round"/>
<path d="M7.98903 35.25V33.4763C7.98927 33.4327 7.98038 33.3896 7.96294 33.3498C7.9455 33.31 7.91992 33.2744 7.8879 33.2454L7.58449 32.9639C7.56874 32.9492 7.55617 32.9314 7.54758 32.9115C7.539 32.8916 7.53458 32.8701 7.53461 32.8484V31.0184C7.53461 30.9361 7.56668 30.8572 7.6238 30.7989C7.68092 30.7406 7.75844 30.7077 7.83941 30.7073H9.79287C9.91425 30.7077 10.0305 30.7569 10.1162 30.8443C10.2019 30.9316 10.2501 31.0499 10.2501 31.1733V32.8625C10.2497 32.9022 10.2349 32.9403 10.2085 32.9695L9.91617 33.2862C9.86254 33.3435 9.83276 33.4197 9.83305 33.4988V35.25" stroke="#3A3A3A" stroke-width="0.5" stroke-linecap="round"/>
<path d="M8.89222 30.0358C9.34442 30.0358 9.71101 29.6633 9.71101 29.2039C9.71101 28.7444 9.34442 28.3719 8.89222 28.3719C8.44002 28.3719 8.07343 28.7444 8.07343 29.2039C8.07343 29.6633 8.44002 30.0358 8.89222 30.0358Z" stroke="#3A3A3A" stroke-width="0.5" stroke-linecap="round"/>
</svg>
