<svg width="153" height="76" viewBox="0 0 153 76" fill="none" xmlns="http://www.w3.org/2000/svg">
<path d="M0.292053 3.68467L24.6894 3.68473L24.6907 0.254578L152 0.254608V1.00003V21.0001V75.3014H142.284V65.7367H119.205V61H24.7473V71.3067H0.292106L0.292053 3.68467Z" fill="white"/>
<path d="M152.008 0.25V75.3164H142.312V65.7852H119.201V61.0195H24.7501V71.249L0.250061 71.2314V3.6543H24.7198V0.25H152.008Z" stroke="#A73C4C" stroke-width="0.5"/>
<path d="M24.7401 3.49986V60.9999" stroke="#A73C4C" stroke-width="0.5"/>
<path d="M119.2 1.67316V61" stroke="#A73C4C" stroke-width="0.5"/>
<path d="M152 61H150" stroke="#A73C4C" stroke-width="0.5"/>
<path d="M144.662 61H142.313" stroke="#A73C4C" stroke-width="0.5"/>
<path d="M142.31 66V60.75" stroke="#A73C4C" stroke-width="0.5"/>
<path d="M136.742 61H119" stroke="#A73C4C" stroke-width="0.5"/>
<path d="M136 55.742C136 55.742 136 44.5377 136 31.5" stroke="#A73C4C" stroke-width="0.5"/>
<path d="M136 26.5C136 23.7028 136 22.4822 136 20" stroke="#A73C4C" stroke-width="0.5"/>
<path d="M136 32.0001H119" stroke="#A73C4C" stroke-width="0.5"/>
<path d="M17.0001 30.0001H6.10352e-05" stroke="#A73C4C" stroke-width="0.5"/>
<path d="M17.0001 40.0001H6.10352e-05" stroke="#A73C4C" stroke-width="0.5"/>
<path d="M136 55.0001H135.5" stroke="#A73C4C" stroke-width="0.5"/>
<path d="M130.5 55.0001H119" stroke="#A73C4C" stroke-width="0.5"/>
<path d="M152 32.0001H143.5" stroke="#A73C4C" stroke-width="0.5"/>
<path d="M152 1.90005H118.953" stroke="#A73C4C" stroke-width="0.5"/>
<path d="M143.5 32.2422V19.8489" stroke="#A73C4C" stroke-width="0.5"/>
<path d="M136.242 20C92.7995 20 68.4428 20 25.0001 20" stroke="#A73C4C" stroke-width="0.5"/>
<path d="M24.6 60.9999H23.5001" stroke="#A73C4C" stroke-width="0.5"/>
<path d="M18.7754 60.9999H0" stroke="#A73C4C" stroke-width="0.5"/>
<path d="M25 19.9999H23.6719" stroke="#A73C4C" stroke-width="0.5"/>
<path d="M18.7695 19.9999H0" stroke="#A73C4C" stroke-width="0.5"/>
<path d="M17.2501 71.4999V68.2039" stroke="#A73C4C" stroke-width="0.5"/>
<path d="M17.2501 62.6819V59.2061" stroke="#A73C4C" stroke-width="0.5"/>
<path d="M17.2501 53.6404V47.5" stroke="#A73C4C" stroke-width="0.5"/>
<path d="M17.2501 42.3594V36.9999" stroke="#A73C4C" stroke-width="0.5"/>
<path d="M17.2501 31.5V26.9999" stroke="#A73C4C" stroke-width="0.5"/>
<path d="M17.2501 21.6686V20" stroke="#A73C4C" stroke-width="0.5"/>
<path d="M145.05 24.0001C144.884 24.0001 144.75 24.1344 144.75 24.3001V29.7001C144.75 29.8657 144.884 30.0001 145.05 30.0001H145.61H150.45C150.616 30.0001 150.75 29.8657 150.75 29.7001V25.0499V24.3001C150.75 24.1344 150.616 24.0001 150.45 24.0001H145.05ZM146.135 29.7693V29.177C146.135 29.1218 146.179 29.077 146.235 29.077H146.758C146.923 29.077 147.058 28.9427 147.058 28.777V28.2539C147.058 28.1987 147.103 28.1539 147.158 28.1539H147.681C147.847 28.1539 147.981 28.0196 147.981 27.8539V27.3308C147.981 27.2756 148.026 27.2308 148.081 27.2308H148.604C148.77 27.2308 148.904 27.0965 148.904 26.9308V26.4078C148.904 26.3525 148.949 26.3078 149.004 26.3078H149.527C149.693 26.3078 149.827 26.1734 149.827 26.0078V25.4847C149.827 25.4294 149.872 25.3847 149.927 25.3847H150.519V29.6692C150.519 29.7245 150.475 29.7692 150.419 29.7692L146.135 29.7693ZM150.519 25.1539H149.896C149.731 25.1539 149.596 25.2882 149.596 25.4539V25.977C149.596 26.0322 149.551 26.077 149.496 26.077H148.973C148.807 26.077 148.673 26.2113 148.673 26.377V26.9001C148.673 26.9553 148.628 27.0001 148.573 27.0001H148.05C147.884 27.0001 147.75 27.1344 147.75 27.3001V27.8231C147.75 27.8784 147.705 27.9231 147.65 27.9231H147.127C146.961 27.9231 146.827 28.0575 146.827 28.2231V28.7462C146.827 28.8014 146.782 28.8462 146.727 28.8462H146.204C146.038 28.8462 145.904 28.9805 145.904 29.1462V29.7692H145.081C145.026 29.7692 144.981 29.7245 144.981 29.6692V24.3308C144.981 24.2756 145.026 24.2308 145.081 24.2308H150.419C150.475 24.2308 150.519 24.2756 150.519 24.3308V25.1539Z" fill="#A73C4C"/>
<path d="M6.50007 63.0001C6.33439 63.0001 6.20007 63.1344 6.20007 63.3001V68.7001C6.20007 68.8657 6.33439 69.0001 6.50007 69.0001H7.05958H11.9001C12.0658 69.0001 12.2001 68.8657 12.2001 68.7001V64.0499V63.3001C12.2001 63.1344 12.0658 63.0001 11.9001 63.0001H6.50007ZM7.58469 68.7693V68.177C7.58469 68.1218 7.62946 68.077 7.68469 68.077H8.20777C8.37345 68.077 8.50777 67.9427 8.50777 67.777V67.2539C8.50777 67.1987 8.55254 67.1539 8.60777 67.1539H9.13084C9.29653 67.1539 9.43084 67.0196 9.43084 66.8539V66.3308C9.43084 66.2756 9.47561 66.2308 9.53084 66.2308H10.0539C10.2196 66.2308 10.3539 66.0965 10.3539 65.9308V65.4078C10.3539 65.3525 10.3987 65.3078 10.4539 65.3078H10.977C11.1427 65.3078 11.277 65.1734 11.277 65.0078V64.4847C11.277 64.4294 11.3218 64.3847 11.377 64.3847H11.9693V68.6692C11.9693 68.7245 11.9245 68.7692 11.8693 68.7692L7.58469 68.7693ZM11.9693 64.1539H11.3462C11.1805 64.1539 11.0462 64.2882 11.0462 64.4539V64.977C11.0462 65.0322 11.0015 65.077 10.9462 65.077H10.4232C10.2575 65.077 10.1232 65.2113 10.1232 65.377V65.9001C10.1232 65.9553 10.0784 66.0001 10.0232 66.0001H9.50007C9.33439 66.0001 9.20007 66.1344 9.20007 66.3001V66.8231C9.20007 66.8784 9.1553 66.9231 9.10007 66.9231H8.577C8.41131 66.9231 8.277 67.0575 8.277 67.2231V67.7462C8.277 67.8014 8.23222 67.8462 8.177 67.8462H7.65392C7.48823 67.8462 7.35392 67.9805 7.35392 68.1462V68.7692H6.53084C6.47561 68.7692 6.43084 68.7245 6.43084 68.6692V63.3308C6.43084 63.2756 6.47561 63.2308 6.53084 63.2308H11.8693C11.9245 63.2308 11.9693 63.2756 11.9693 63.3308V64.1539Z" fill="#A73C4C"/>
<path d="M144.05 66.5001C143.884 66.5001 143.75 66.6344 143.75 66.8001V73.2001C143.75 73.3657 143.884 73.5001 144.05 73.5001H144.753H150.45C150.616 73.5001 150.75 73.3657 150.75 73.2001V67.7249V66.8001C150.75 66.6344 150.616 66.5001 150.45 66.5001H144.05ZM145.365 73.2308V72.5231C145.365 72.4679 145.41 72.4231 145.465 72.4231H146.142C146.308 72.4231 146.442 72.2888 146.442 72.1231V71.4462C146.442 71.391 146.487 71.3462 146.542 71.3462H147.219C147.385 71.3462 147.519 71.2119 147.519 71.0462V70.3693C147.519 70.3141 147.564 70.2693 147.619 70.2693H148.296C148.462 70.2693 148.596 70.135 148.596 69.9693V69.2924C148.596 69.2371 148.641 69.1924 148.696 69.1924H149.373C149.539 69.1924 149.673 69.0581 149.673 68.8924V68.2154C149.673 68.1602 149.718 68.1154 149.773 68.1154H150.481V73.1308C150.481 73.186 150.436 73.2308 150.381 73.2308L145.365 73.2308ZM150.481 67.8462H149.704C149.538 67.8462 149.404 67.9805 149.404 68.1462V68.8231C149.404 68.8784 149.359 68.9231 149.304 68.9231H148.627C148.461 68.9231 148.327 69.0575 148.327 69.2231V69.9001C148.327 69.9553 148.282 70.0001 148.227 70.0001H147.55C147.384 70.0001 147.25 70.1344 147.25 70.3001V70.977C147.25 71.0322 147.205 71.077 147.15 71.077H146.473C146.307 71.077 146.173 71.2113 146.173 71.377V72.0539C146.173 72.1091 146.128 72.1539 146.073 72.1539H145.396C145.231 72.1539 145.096 72.2882 145.096 72.4539V73.2308H144.119C144.064 73.2308 144.019 73.186 144.019 73.1308V66.8693C144.019 66.8141 144.064 66.7693 144.119 66.7693H150.381C150.436 66.7693 150.481 66.8141 150.481 66.8693V67.8462Z" fill="#A73C4C"/>
<path d="M6.08506 52.8951C6.40173 52.8951 6.65673 52.9651 6.85006 53.1051C7.04673 53.2417 7.14506 53.4484 7.14506 53.7251C7.14506 53.8584 7.11673 53.9734 7.06006 54.0701C7.00673 54.1634 6.94173 54.2367 6.86506 54.2901C6.79173 54.3434 6.72506 54.3784 6.66506 54.3951C6.75506 54.4217 6.84339 54.4684 6.93006 54.5351C7.01673 54.5984 7.08839 54.6817 7.14506 54.7851C7.20506 54.8851 7.23506 55.0067 7.23506 55.1501C7.23506 55.3501 7.18673 55.5167 7.09006 55.6501C6.99339 55.7834 6.86006 55.8851 6.69006 55.9551C6.52006 56.0217 6.32339 56.0551 6.10006 56.0551C5.91673 56.0551 5.75339 56.0367 5.61006 56.0001C5.47006 55.9601 5.36006 55.9101 5.28006 55.8501C5.20006 55.7901 5.16006 55.7267 5.16006 55.6601C5.16006 55.6134 5.17173 55.5734 5.19506 55.5401C5.22173 55.5067 5.25506 55.4784 5.29506 55.4551C5.38173 55.5217 5.48673 55.5817 5.61006 55.6351C5.73673 55.6884 5.90006 55.7151 6.10006 55.7151C6.32006 55.7151 6.49839 55.6684 6.63506 55.5751C6.77173 55.4784 6.84006 55.3334 6.84006 55.1401C6.84006 54.9701 6.77673 54.8334 6.65006 54.7301C6.52339 54.6267 6.34006 54.5751 6.10006 54.5751H5.68506C5.67173 54.5584 5.66006 54.5351 5.65006 54.5051C5.64006 54.4717 5.63506 54.4384 5.63506 54.4051C5.63506 54.3684 5.64006 54.3351 5.65006 54.3051C5.66006 54.2751 5.67173 54.2517 5.68506 54.2351H6.06506C6.31173 54.2351 6.48673 54.1901 6.59006 54.1001C6.69673 54.0067 6.75006 53.8851 6.75006 53.7351C6.75006 53.5717 6.69006 53.4484 6.57006 53.3651C6.45006 53.2784 6.28673 53.2351 6.08006 53.2351C5.92006 53.2351 5.77839 53.2601 5.65506 53.3101C5.53506 53.3567 5.43506 53.4084 5.35506 53.4651C5.32173 53.4484 5.29173 53.4217 5.26506 53.3851C5.23839 53.3484 5.22506 53.3084 5.22506 53.2651C5.22506 53.2051 5.26339 53.1467 5.34006 53.0901C5.41673 53.0334 5.52006 52.9867 5.65006 52.9501C5.78006 52.9134 5.92506 52.8951 6.08506 52.8951ZM8.98436 56.0651C8.75102 56.0651 8.54436 56.0084 8.36436 55.8951C8.18769 55.7784 8.04936 55.6034 7.94936 55.3701C7.84936 55.1334 7.79936 54.8367 7.79936 54.4801C7.79936 54.0967 7.85602 53.7901 7.96936 53.5601C8.08269 53.3301 8.22936 53.1634 8.40936 53.0601C8.58936 52.9534 8.78102 52.9001 8.98436 52.9001C9.19102 52.9001 9.38436 52.9534 9.56436 53.0601C9.74769 53.1667 9.89436 53.3367 10.0044 53.5701C10.1177 53.8001 10.1744 54.1034 10.1744 54.4801C10.1744 54.8334 10.1244 55.1284 10.0244 55.3651C9.92436 55.5984 9.78436 55.7734 9.60436 55.8901C9.42769 56.0067 9.22102 56.0651 8.98436 56.0651ZM8.98436 55.7251C9.23102 55.7251 9.42269 55.6184 9.55936 55.4051C9.69602 55.1884 9.76436 54.8801 9.76436 54.4801C9.76436 54.1834 9.72769 53.9451 9.65436 53.7651C9.58436 53.5817 9.49102 53.4484 9.37436 53.3651C9.25769 53.2817 9.12769 53.2401 8.98436 53.2401C8.84436 53.2401 8.71436 53.2834 8.59436 53.3701C8.47769 53.4534 8.38436 53.5867 8.31436 53.7701C8.24436 53.9534 8.20936 54.1901 8.20936 54.4801C8.20936 54.8801 8.27769 55.1884 8.41436 55.4051C8.55102 55.6184 8.74102 55.7251 8.98436 55.7251ZM10.6288 54.8851L12.0838 52.9551C12.1138 52.9484 12.1471 52.9434 12.1838 52.9401C12.2238 52.9334 12.2588 52.9301 12.2888 52.9301C12.3355 52.9301 12.3788 52.9367 12.4188 52.9501C12.4621 52.9634 12.4971 52.9884 12.5238 53.0251C12.5505 53.0584 12.5638 53.1084 12.5638 53.1751V54.9251H13.0638C13.0738 54.9417 13.0838 54.9651 13.0938 54.9951C13.1038 55.0217 13.1088 55.0534 13.1088 55.0901C13.1088 55.1434 13.0955 55.1851 13.0688 55.2151C13.0421 55.2451 13.0038 55.2601 12.9538 55.2601H12.5638V56.0101C12.5471 56.0134 12.5221 56.0184 12.4888 56.0251C12.4588 56.0351 12.4255 56.0401 12.3888 56.0401C12.3188 56.0401 12.2655 56.0251 12.2288 55.9951C12.1921 55.9651 12.1738 55.9217 12.1738 55.8651V55.2601H10.7288C10.6955 55.2434 10.6655 55.2134 10.6388 55.1701C10.6155 55.1267 10.6038 55.0784 10.6038 55.0251C10.6038 54.9951 10.6055 54.9701 10.6088 54.9501C10.6155 54.9267 10.6221 54.9051 10.6288 54.8851ZM12.1788 54.9251L12.1888 53.3501H12.1788L11.0688 54.9251H12.1788Z" fill="#A73C4C"/>
<path d="M6.08506 43.8951C6.40173 43.8951 6.65673 43.9651 6.85006 44.1051C7.04673 44.2417 7.14506 44.4484 7.14506 44.7251C7.14506 44.8584 7.11673 44.9734 7.06006 45.0701C7.00673 45.1634 6.94173 45.2367 6.86506 45.2901C6.79173 45.3434 6.72506 45.3784 6.66506 45.3951C6.75506 45.4217 6.84339 45.4684 6.93006 45.5351C7.01673 45.5984 7.08839 45.6817 7.14506 45.7851C7.20506 45.8851 7.23506 46.0067 7.23506 46.1501C7.23506 46.3501 7.18673 46.5167 7.09006 46.6501C6.99339 46.7834 6.86006 46.8851 6.69006 46.9551C6.52006 47.0217 6.32339 47.0551 6.10006 47.0551C5.91673 47.0551 5.75339 47.0367 5.61006 47.0001C5.47006 46.9601 5.36006 46.9101 5.28006 46.8501C5.20006 46.7901 5.16006 46.7267 5.16006 46.6601C5.16006 46.6134 5.17173 46.5734 5.19506 46.5401C5.22173 46.5067 5.25506 46.4784 5.29506 46.4551C5.38173 46.5217 5.48673 46.5817 5.61006 46.6351C5.73673 46.6884 5.90006 46.7151 6.10006 46.7151C6.32006 46.7151 6.49839 46.6684 6.63506 46.5751C6.77173 46.4784 6.84006 46.3334 6.84006 46.1401C6.84006 45.9701 6.77673 45.8334 6.65006 45.7301C6.52339 45.6267 6.34006 45.5751 6.10006 45.5751H5.68506C5.67173 45.5584 5.66006 45.5351 5.65006 45.5051C5.64006 45.4717 5.63506 45.4384 5.63506 45.4051C5.63506 45.3684 5.64006 45.3351 5.65006 45.3051C5.66006 45.2751 5.67173 45.2517 5.68506 45.2351H6.06506C6.31173 45.2351 6.48673 45.1901 6.59006 45.1001C6.69673 45.0067 6.75006 44.8851 6.75006 44.7351C6.75006 44.5717 6.69006 44.4484 6.57006 44.3651C6.45006 44.2784 6.28673 44.2351 6.08006 44.2351C5.92006 44.2351 5.77839 44.2601 5.65506 44.3101C5.53506 44.3567 5.43506 44.4084 5.35506 44.4651C5.32173 44.4484 5.29173 44.4217 5.26506 44.3851C5.23839 44.3484 5.22506 44.3084 5.22506 44.2651C5.22506 44.2051 5.26339 44.1467 5.34006 44.0901C5.41673 44.0334 5.52006 43.9867 5.65006 43.9501C5.78006 43.9134 5.92506 43.8951 6.08506 43.8951ZM8.98436 47.0651C8.75102 47.0651 8.54436 47.0084 8.36436 46.8951C8.18769 46.7784 8.04936 46.6034 7.94936 46.3701C7.84936 46.1334 7.79936 45.8367 7.79936 45.4801C7.79936 45.0967 7.85602 44.7901 7.96936 44.5601C8.08269 44.3301 8.22936 44.1634 8.40936 44.0601C8.58936 43.9534 8.78102 43.9001 8.98436 43.9001C9.19102 43.9001 9.38436 43.9534 9.56436 44.0601C9.74769 44.1667 9.89436 44.3367 10.0044 44.5701C10.1177 44.8001 10.1744 45.1034 10.1744 45.4801C10.1744 45.8334 10.1244 46.1284 10.0244 46.3651C9.92436 46.5984 9.78436 46.7734 9.60436 46.8901C9.42769 47.0067 9.22102 47.0651 8.98436 47.0651ZM8.98436 46.7251C9.23102 46.7251 9.42269 46.6184 9.55936 46.4051C9.69602 46.1884 9.76436 45.8801 9.76436 45.4801C9.76436 45.1834 9.72769 44.9451 9.65436 44.7651C9.58436 44.5817 9.49102 44.4484 9.37436 44.3651C9.25769 44.2817 9.12769 44.2401 8.98436 44.2401C8.84436 44.2401 8.71436 44.2834 8.59436 44.3701C8.47769 44.4534 8.38436 44.5867 8.31436 44.7701C8.24436 44.9534 8.20936 45.1901 8.20936 45.4801C8.20936 45.8801 8.27769 46.1884 8.41436 46.4051C8.55102 46.6184 8.74102 46.7251 8.98436 46.7251ZM11.4644 43.9601L11.3294 44.2551L11.2444 45.2001C11.3011 45.1701 11.3794 45.1417 11.4794 45.1151C11.5827 45.0851 11.6911 45.0701 11.8044 45.0701C12.0044 45.0701 12.1844 45.1084 12.3444 45.1851C12.5044 45.2584 12.6311 45.3684 12.7244 45.5151C12.8211 45.6584 12.8694 45.8367 12.8694 46.0501C12.8694 46.2434 12.8244 46.4167 12.7344 46.5701C12.6477 46.7234 12.5194 46.8451 12.3494 46.9351C12.1827 47.0217 11.9777 47.0651 11.7344 47.0651C11.5444 47.0651 11.3777 47.0434 11.2344 47.0001C11.0911 46.9567 10.9794 46.9034 10.8994 46.8401C10.8194 46.7767 10.7794 46.7151 10.7794 46.6551C10.7794 46.6017 10.7961 46.5551 10.8294 46.5151C10.8661 46.4751 10.9027 46.4484 10.9394 46.4351C11.0127 46.4984 11.1161 46.5634 11.2494 46.6301C11.3827 46.6967 11.5444 46.7301 11.7344 46.7301C11.9644 46.7301 12.1427 46.6667 12.2694 46.5401C12.3961 46.4101 12.4594 46.2467 12.4594 46.0501C12.4594 45.8467 12.3944 45.6884 12.2644 45.5751C12.1344 45.4617 11.9644 45.4051 11.7544 45.4051C11.6377 45.4051 11.5311 45.4234 11.4344 45.4601C11.3377 45.4967 11.2477 45.5384 11.1644 45.5851C11.0744 45.5784 11.0011 45.5517 10.9444 45.5051C10.8911 45.4551 10.8644 45.3917 10.8644 45.3151C10.8644 45.2951 10.8644 45.2701 10.8644 45.2401C10.8677 45.2067 10.8711 45.1751 10.8744 45.1451L10.9594 44.1901C10.9661 44.1201 10.9877 44.0651 11.0244 44.0251C11.0611 43.9817 11.1144 43.9601 11.1844 43.9601H11.4644ZM11.2544 44.3001V43.9601H12.7144C12.7244 43.9734 12.7344 43.9951 12.7444 44.0251C12.7544 44.0551 12.7594 44.0867 12.7594 44.1201C12.7594 44.1734 12.7461 44.2167 12.7194 44.2501C12.6927 44.2834 12.6544 44.3001 12.6044 44.3001H11.2544Z" fill="#A73C4C"/>
<path d="M6.08506 33.3951C6.40173 33.3951 6.65673 33.4651 6.85006 33.6051C7.04673 33.7417 7.14506 33.9484 7.14506 34.2251C7.14506 34.3584 7.11673 34.4734 7.06006 34.5701C7.00673 34.6634 6.94173 34.7367 6.86506 34.7901C6.79173 34.8434 6.72506 34.8784 6.66506 34.8951C6.75506 34.9217 6.84339 34.9684 6.93006 35.0351C7.01673 35.0984 7.08839 35.1817 7.14506 35.2851C7.20506 35.3851 7.23506 35.5067 7.23506 35.6501C7.23506 35.8501 7.18673 36.0167 7.09006 36.1501C6.99339 36.2834 6.86006 36.3851 6.69006 36.4551C6.52006 36.5217 6.32339 36.5551 6.10006 36.5551C5.91673 36.5551 5.75339 36.5367 5.61006 36.5001C5.47006 36.4601 5.36006 36.4101 5.28006 36.3501C5.20006 36.2901 5.16006 36.2267 5.16006 36.1601C5.16006 36.1134 5.17173 36.0734 5.19506 36.0401C5.22173 36.0067 5.25506 35.9784 5.29506 35.9551C5.38173 36.0217 5.48673 36.0817 5.61006 36.1351C5.73673 36.1884 5.90006 36.2151 6.10006 36.2151C6.32006 36.2151 6.49839 36.1684 6.63506 36.0751C6.77173 35.9784 6.84006 35.8334 6.84006 35.6401C6.84006 35.4701 6.77673 35.3334 6.65006 35.2301C6.52339 35.1267 6.34006 35.0751 6.10006 35.0751H5.68506C5.67173 35.0584 5.66006 35.0351 5.65006 35.0051C5.64006 34.9717 5.63506 34.9384 5.63506 34.9051C5.63506 34.8684 5.64006 34.8351 5.65006 34.8051C5.66006 34.7751 5.67173 34.7517 5.68506 34.7351H6.06506C6.31173 34.7351 6.48673 34.6901 6.59006 34.6001C6.69673 34.5067 6.75006 34.3851 6.75006 34.2351C6.75006 34.0717 6.69006 33.9484 6.57006 33.8651C6.45006 33.7784 6.28673 33.7351 6.08006 33.7351C5.92006 33.7351 5.77839 33.7601 5.65506 33.8101C5.53506 33.8567 5.43506 33.9084 5.35506 33.9651C5.32173 33.9484 5.29173 33.9217 5.26506 33.8851C5.23839 33.8484 5.22506 33.8084 5.22506 33.7651C5.22506 33.7051 5.26339 33.6467 5.34006 33.5901C5.41673 33.5334 5.52006 33.4867 5.65006 33.4501C5.78006 33.4134 5.92506 33.3951 6.08506 33.3951ZM8.98436 36.5651C8.75102 36.5651 8.54436 36.5084 8.36436 36.3951C8.18769 36.2784 8.04936 36.1034 7.94936 35.8701C7.84936 35.6334 7.79936 35.3367 7.79936 34.9801C7.79936 34.5967 7.85602 34.2901 7.96936 34.0601C8.08269 33.8301 8.22936 33.6634 8.40936 33.5601C8.58936 33.4534 8.78102 33.4001 8.98436 33.4001C9.19102 33.4001 9.38436 33.4534 9.56436 33.5601C9.74769 33.6667 9.89436 33.8367 10.0044 34.0701C10.1177 34.3001 10.1744 34.6034 10.1744 34.9801C10.1744 35.3334 10.1244 35.6284 10.0244 35.8651C9.92436 36.0984 9.78436 36.2734 9.60436 36.3901C9.42769 36.5067 9.22102 36.5651 8.98436 36.5651ZM8.98436 36.2251C9.23102 36.2251 9.42269 36.1184 9.55936 35.9051C9.69602 35.6884 9.76436 35.3801 9.76436 34.9801C9.76436 34.6834 9.72769 34.4451 9.65436 34.2651C9.58436 34.0817 9.49102 33.9484 9.37436 33.8651C9.25769 33.7817 9.12769 33.7401 8.98436 33.7401C8.84436 33.7401 8.71436 33.7834 8.59436 33.8701C8.47769 33.9534 8.38436 34.0867 8.31436 34.2701C8.24436 34.4534 8.20936 34.6901 8.20936 34.9801C8.20936 35.3801 8.27769 35.6884 8.41436 35.9051C8.55102 36.1184 8.74102 36.2251 8.98436 36.2251ZM12.7194 33.6951C12.7194 33.7351 12.7077 33.7734 12.6844 33.8101C12.6644 33.8434 12.6377 33.8684 12.6044 33.8851C12.5311 33.8484 12.4477 33.8167 12.3544 33.7901C12.2644 33.7601 12.1661 33.7451 12.0594 33.7451C11.7994 33.7451 11.5794 33.8384 11.3994 34.0251C11.2227 34.2117 11.1294 34.5034 11.1194 34.9001C11.1861 34.8334 11.2877 34.7634 11.4244 34.6901C11.5644 34.6134 11.7361 34.5751 11.9394 34.5751C12.2327 34.5751 12.4744 34.6584 12.6644 34.8251C12.8544 34.9917 12.9494 35.2384 12.9494 35.5651C12.9494 35.7717 12.9044 35.9501 12.8144 36.1001C12.7277 36.2501 12.6044 36.3651 12.4444 36.4451C12.2877 36.5251 12.1011 36.5651 11.8844 36.5651C11.6611 36.5651 11.4611 36.5151 11.2844 36.4151C11.1077 36.3117 10.9677 36.1517 10.8644 35.9351C10.7644 35.7151 10.7144 35.4284 10.7144 35.0751C10.7144 34.7617 10.7511 34.4984 10.8244 34.2851C10.9011 34.0684 11.0027 33.8967 11.1294 33.7701C11.2561 33.6401 11.3994 33.5467 11.5594 33.4901C11.7194 33.4301 11.8827 33.4001 12.0494 33.4001C12.1661 33.4001 12.2744 33.4117 12.3744 33.4351C12.4777 33.4584 12.5611 33.4917 12.6244 33.5351C12.6877 33.5784 12.7194 33.6317 12.7194 33.6951ZM11.8844 36.2301C12.0777 36.2301 12.2361 36.1717 12.3594 36.0551C12.4827 35.9351 12.5444 35.7684 12.5444 35.5551C12.5444 35.3384 12.4811 35.1784 12.3544 35.0751C12.2311 34.9684 12.0777 34.9151 11.8944 34.9151C11.7111 34.9151 11.5527 34.9551 11.4194 35.0351C11.2861 35.1117 11.1811 35.2051 11.1044 35.3151L11.1194 35.2801C11.1194 35.5634 11.1861 35.7934 11.3194 35.9701C11.4527 36.1434 11.6411 36.2301 11.8844 36.2301Z" fill="#A73C4C"/>
<path d="M6.08506 23.2451C6.40173 23.2451 6.65673 23.3151 6.85006 23.4551C7.04673 23.5917 7.14506 23.7984 7.14506 24.0751C7.14506 24.2084 7.11673 24.3234 7.06006 24.4201C7.00673 24.5134 6.94173 24.5867 6.86506 24.6401C6.79173 24.6934 6.72506 24.7284 6.66506 24.7451C6.75506 24.7717 6.84339 24.8184 6.93006 24.8851C7.01673 24.9484 7.08839 25.0317 7.14506 25.1351C7.20506 25.2351 7.23506 25.3567 7.23506 25.5001C7.23506 25.7001 7.18673 25.8667 7.09006 26.0001C6.99339 26.1334 6.86006 26.2351 6.69006 26.3051C6.52006 26.3717 6.32339 26.4051 6.10006 26.4051C5.91673 26.4051 5.75339 26.3867 5.61006 26.3501C5.47006 26.3101 5.36006 26.2601 5.28006 26.2001C5.20006 26.1401 5.16006 26.0767 5.16006 26.0101C5.16006 25.9634 5.17173 25.9234 5.19506 25.8901C5.22173 25.8567 5.25506 25.8284 5.29506 25.8051C5.38173 25.8717 5.48673 25.9317 5.61006 25.9851C5.73673 26.0384 5.90006 26.0651 6.10006 26.0651C6.32006 26.0651 6.49839 26.0184 6.63506 25.9251C6.77173 25.8284 6.84006 25.6834 6.84006 25.4901C6.84006 25.3201 6.77673 25.1834 6.65006 25.0801C6.52339 24.9767 6.34006 24.9251 6.10006 24.9251H5.68506C5.67173 24.9084 5.66006 24.8851 5.65006 24.8551C5.64006 24.8217 5.63506 24.7884 5.63506 24.7551C5.63506 24.7184 5.64006 24.6851 5.65006 24.6551C5.66006 24.6251 5.67173 24.6017 5.68506 24.5851H6.06506C6.31173 24.5851 6.48673 24.5401 6.59006 24.4501C6.69673 24.3567 6.75006 24.2351 6.75006 24.0851C6.75006 23.9217 6.69006 23.7984 6.57006 23.7151C6.45006 23.6284 6.28673 23.5851 6.08006 23.5851C5.92006 23.5851 5.77839 23.6101 5.65506 23.6601C5.53506 23.7067 5.43506 23.7584 5.35506 23.8151C5.32173 23.7984 5.29173 23.7717 5.26506 23.7351C5.23839 23.6984 5.22506 23.6584 5.22506 23.6151C5.22506 23.5551 5.26339 23.4967 5.34006 23.4401C5.41673 23.3834 5.52006 23.3367 5.65006 23.3001C5.78006 23.2634 5.92506 23.2451 6.08506 23.2451ZM8.98436 26.4151C8.75102 26.4151 8.54436 26.3584 8.36436 26.2451C8.18769 26.1284 8.04936 25.9534 7.94936 25.7201C7.84936 25.4834 7.79936 25.1867 7.79936 24.8301C7.79936 24.4467 7.85602 24.1401 7.96936 23.9101C8.08269 23.6801 8.22936 23.5134 8.40936 23.4101C8.58936 23.3034 8.78102 23.2501 8.98436 23.2501C9.19102 23.2501 9.38436 23.3034 9.56436 23.4101C9.74769 23.5167 9.89436 23.6867 10.0044 23.9201C10.1177 24.1501 10.1744 24.4534 10.1744 24.8301C10.1744 25.1834 10.1244 25.4784 10.0244 25.7151C9.92436 25.9484 9.78436 26.1234 9.60436 26.2401C9.42769 26.3567 9.22102 26.4151 8.98436 26.4151ZM8.98436 26.0751C9.23102 26.0751 9.42269 25.9684 9.55936 25.7551C9.69602 25.5384 9.76436 25.2301 9.76436 24.8301C9.76436 24.5334 9.72769 24.2951 9.65436 24.1151C9.58436 23.9317 9.49102 23.7984 9.37436 23.7151C9.25769 23.6317 9.12769 23.5901 8.98436 23.5901C8.84436 23.5901 8.71436 23.6334 8.59436 23.7201C8.47769 23.8034 8.38436 23.9367 8.31436 24.1201C8.24436 24.3034 8.20936 24.5401 8.20936 24.8301C8.20936 25.2301 8.27769 25.5384 8.41436 25.7551C8.55102 25.9684 8.74102 26.0751 8.98436 26.0751ZM10.6608 23.3101H12.4608C12.4975 23.3301 12.5258 23.3584 12.5458 23.3951C12.5658 23.4284 12.5758 23.4667 12.5758 23.5101C12.5758 23.5434 12.5708 23.5767 12.5608 23.6101C12.5541 23.6434 12.5408 23.6801 12.5208 23.7201L11.2658 26.3701C11.2458 26.3734 11.2258 26.3751 11.2058 26.3751C11.1891 26.3751 11.1708 26.3751 11.1508 26.3751C11.0875 26.3751 11.0325 26.3601 10.9858 26.3301C10.9391 26.2967 10.9158 26.2517 10.9158 26.1951C10.9158 26.1551 10.9241 26.1167 10.9408 26.0801C10.9575 26.0401 10.9775 25.9951 11.0008 25.9451L12.1308 23.6501H10.5508C10.5408 23.6334 10.5308 23.6117 10.5208 23.5851C10.5108 23.5551 10.5058 23.5234 10.5058 23.4901C10.5058 23.4334 10.5191 23.3901 10.5458 23.3601C10.5725 23.3267 10.6108 23.3101 10.6608 23.3101Z" fill="#A73C4C"/>
<path d="M125.085 23.8951C125.402 23.8951 125.657 23.9651 125.85 24.1051C126.047 24.2417 126.145 24.4484 126.145 24.7251C126.145 24.8584 126.117 24.9734 126.06 25.0701C126.007 25.1634 125.942 25.2367 125.865 25.2901C125.792 25.3434 125.725 25.3784 125.665 25.3951C125.755 25.4217 125.843 25.4684 125.93 25.5351C126.017 25.5984 126.088 25.6817 126.145 25.7851C126.205 25.8851 126.235 26.0067 126.235 26.1501C126.235 26.3501 126.187 26.5167 126.09 26.6501C125.993 26.7834 125.86 26.8851 125.69 26.9551C125.52 27.0217 125.323 27.0551 125.1 27.0551C124.917 27.0551 124.753 27.0367 124.61 27.0001C124.47 26.9601 124.36 26.9101 124.28 26.8501C124.2 26.7901 124.16 26.7267 124.16 26.6601C124.16 26.6134 124.172 26.5734 124.195 26.5401C124.222 26.5067 124.255 26.4784 124.295 26.4551C124.382 26.5217 124.487 26.5817 124.61 26.6351C124.737 26.6884 124.9 26.7151 125.1 26.7151C125.32 26.7151 125.498 26.6684 125.635 26.5751C125.772 26.4784 125.84 26.3334 125.84 26.1401C125.84 25.9701 125.777 25.8334 125.65 25.7301C125.523 25.6267 125.34 25.5751 125.1 25.5751H124.685C124.672 25.5584 124.66 25.5351 124.65 25.5051C124.64 25.4717 124.635 25.4384 124.635 25.4051C124.635 25.3684 124.64 25.3351 124.65 25.3051C124.66 25.2751 124.672 25.2517 124.685 25.2351H125.065C125.312 25.2351 125.487 25.1901 125.59 25.1001C125.697 25.0067 125.75 24.8851 125.75 24.7351C125.75 24.5717 125.69 24.4484 125.57 24.3651C125.45 24.2784 125.287 24.2351 125.08 24.2351C124.92 24.2351 124.778 24.2601 124.655 24.3101C124.535 24.3567 124.435 24.4084 124.355 24.4651C124.322 24.4484 124.292 24.4217 124.265 24.3851C124.238 24.3484 124.225 24.3084 124.225 24.2651C124.225 24.2051 124.263 24.1467 124.34 24.0901C124.417 24.0334 124.52 23.9867 124.65 23.9501C124.78 23.9134 124.925 23.8951 125.085 23.8951ZM127.984 27.0651C127.751 27.0651 127.544 27.0084 127.364 26.8951C127.188 26.7784 127.049 26.6034 126.949 26.3701C126.849 26.1334 126.799 25.8367 126.799 25.4801C126.799 25.0967 126.856 24.7901 126.969 24.5601C127.083 24.3301 127.229 24.1634 127.409 24.0601C127.589 23.9534 127.781 23.9001 127.984 23.9001C128.191 23.9001 128.384 23.9534 128.564 24.0601C128.748 24.1667 128.894 24.3367 129.004 24.5701C129.118 24.8001 129.174 25.1034 129.174 25.4801C129.174 25.8334 129.124 26.1284 129.024 26.3651C128.924 26.5984 128.784 26.7734 128.604 26.8901C128.428 27.0067 128.221 27.0651 127.984 27.0651ZM127.984 26.7251C128.231 26.7251 128.423 26.6184 128.559 26.4051C128.696 26.1884 128.764 25.8801 128.764 25.4801C128.764 25.1834 128.728 24.9451 128.654 24.7651C128.584 24.5817 128.491 24.4484 128.374 24.3651C128.258 24.2817 128.128 24.2401 127.984 24.2401C127.844 24.2401 127.714 24.2834 127.594 24.3701C127.478 24.4534 127.384 24.5867 127.314 24.7701C127.244 24.9534 127.209 25.1901 127.209 25.4801C127.209 25.8801 127.278 26.1884 127.414 26.4051C127.551 26.6184 127.741 26.7251 127.984 26.7251ZM130.49 23.8951C130.807 23.8951 131.062 23.9651 131.255 24.1051C131.452 24.2417 131.55 24.4484 131.55 24.7251C131.55 24.8584 131.522 24.9734 131.465 25.0701C131.412 25.1634 131.347 25.2367 131.27 25.2901C131.197 25.3434 131.13 25.3784 131.07 25.3951C131.16 25.4217 131.249 25.4684 131.335 25.5351C131.422 25.5984 131.494 25.6817 131.55 25.7851C131.61 25.8851 131.64 26.0067 131.64 26.1501C131.64 26.3501 131.592 26.5167 131.495 26.6501C131.399 26.7834 131.265 26.8851 131.095 26.9551C130.925 27.0217 130.729 27.0551 130.505 27.0551C130.322 27.0551 130.159 27.0367 130.015 27.0001C129.875 26.9601 129.765 26.9101 129.685 26.8501C129.605 26.7901 129.565 26.7267 129.565 26.6601C129.565 26.6134 129.577 26.5734 129.6 26.5401C129.627 26.5067 129.66 26.4784 129.7 26.4551C129.787 26.5217 129.892 26.5817 130.015 26.6351C130.142 26.6884 130.305 26.7151 130.505 26.7151C130.725 26.7151 130.904 26.6684 131.04 26.5751C131.177 26.4784 131.245 26.3334 131.245 26.1401C131.245 25.9701 131.182 25.8334 131.055 25.7301C130.929 25.6267 130.745 25.5751 130.505 25.5751H130.09C130.077 25.5584 130.065 25.5351 130.055 25.5051C130.045 25.4717 130.04 25.4384 130.04 25.4051C130.04 25.3684 130.045 25.3351 130.055 25.3051C130.065 25.2751 130.077 25.2517 130.09 25.2351H130.47C130.717 25.2351 130.892 25.1901 130.995 25.1001C131.102 25.0067 131.155 24.8851 131.155 24.7351C131.155 24.5717 131.095 24.4484 130.975 24.3651C130.855 24.2784 130.692 24.2351 130.485 24.2351C130.325 24.2351 130.184 24.2601 130.06 24.3101C129.94 24.3567 129.84 24.4084 129.76 24.4651C129.727 24.4484 129.697 24.4217 129.67 24.3851C129.644 24.3484 129.63 24.3084 129.63 24.2651C129.63 24.2051 129.669 24.1467 129.745 24.0901C129.822 24.0334 129.925 23.9867 130.055 23.9501C130.185 23.9134 130.33 23.8951 130.49 23.8951Z" fill="#A73C4C"/>
<path d="M125.085 37.8951C125.402 37.8951 125.657 37.9651 125.85 38.1051C126.047 38.2417 126.145 38.4484 126.145 38.7251C126.145 38.8584 126.117 38.9734 126.06 39.0701C126.007 39.1634 125.942 39.2367 125.865 39.2901C125.792 39.3434 125.725 39.3784 125.665 39.3951C125.755 39.4217 125.843 39.4684 125.93 39.5351C126.017 39.5984 126.088 39.6817 126.145 39.7851C126.205 39.8851 126.235 40.0067 126.235 40.1501C126.235 40.3501 126.187 40.5167 126.09 40.6501C125.993 40.7834 125.86 40.8851 125.69 40.9551C125.52 41.0217 125.323 41.0551 125.1 41.0551C124.917 41.0551 124.753 41.0367 124.61 41.0001C124.47 40.9601 124.36 40.9101 124.28 40.8501C124.2 40.7901 124.16 40.7267 124.16 40.6601C124.16 40.6134 124.172 40.5734 124.195 40.5401C124.222 40.5067 124.255 40.4784 124.295 40.4551C124.382 40.5217 124.487 40.5817 124.61 40.6351C124.737 40.6884 124.9 40.7151 125.1 40.7151C125.32 40.7151 125.498 40.6684 125.635 40.5751C125.772 40.4784 125.84 40.3334 125.84 40.1401C125.84 39.9701 125.777 39.8334 125.65 39.7301C125.523 39.6267 125.34 39.5751 125.1 39.5751H124.685C124.672 39.5584 124.66 39.5351 124.65 39.5051C124.64 39.4717 124.635 39.4384 124.635 39.4051C124.635 39.3684 124.64 39.3351 124.65 39.3051C124.66 39.2751 124.672 39.2517 124.685 39.2351H125.065C125.312 39.2351 125.487 39.1901 125.59 39.1001C125.697 39.0067 125.75 38.8851 125.75 38.7351C125.75 38.5717 125.69 38.4484 125.57 38.3651C125.45 38.2784 125.287 38.2351 125.08 38.2351C124.92 38.2351 124.778 38.2601 124.655 38.3101C124.535 38.3567 124.435 38.4084 124.355 38.4651C124.322 38.4484 124.292 38.4217 124.265 38.3851C124.238 38.3484 124.225 38.3084 124.225 38.2651C124.225 38.2051 124.263 38.1467 124.34 38.0901C124.417 38.0334 124.52 37.9867 124.65 37.9501C124.78 37.9134 124.925 37.8951 125.085 37.8951ZM127.984 41.0651C127.751 41.0651 127.544 41.0084 127.364 40.8951C127.188 40.7784 127.049 40.6034 126.949 40.3701C126.849 40.1334 126.799 39.8367 126.799 39.4801C126.799 39.0967 126.856 38.7901 126.969 38.5601C127.083 38.3301 127.229 38.1634 127.409 38.0601C127.589 37.9534 127.781 37.9001 127.984 37.9001C128.191 37.9001 128.384 37.9534 128.564 38.0601C128.748 38.1667 128.894 38.3367 129.004 38.5701C129.118 38.8001 129.174 39.1034 129.174 39.4801C129.174 39.8334 129.124 40.1284 129.024 40.3651C128.924 40.5984 128.784 40.7734 128.604 40.8901C128.428 41.0067 128.221 41.0651 127.984 41.0651ZM127.984 40.7251C128.231 40.7251 128.423 40.6184 128.559 40.4051C128.696 40.1884 128.764 39.8801 128.764 39.4801C128.764 39.1834 128.728 38.9451 128.654 38.7651C128.584 38.5817 128.491 38.4484 128.374 38.3651C128.258 38.2817 128.128 38.2401 127.984 38.2401C127.844 38.2401 127.714 38.2834 127.594 38.3701C127.478 38.4534 127.384 38.5867 127.314 38.7701C127.244 38.9534 127.209 39.1901 127.209 39.4801C127.209 39.8801 127.278 40.1884 127.414 40.4051C127.551 40.6184 127.741 40.7251 127.984 40.7251ZM129.725 38.2751C129.725 38.2151 129.763 38.1567 129.84 38.1001C129.916 38.0401 130.02 37.9917 130.15 37.9551C130.28 37.9184 130.421 37.9001 130.575 37.9001C130.788 37.9001 130.971 37.9367 131.125 38.0101C131.278 38.0801 131.396 38.1801 131.48 38.3101C131.563 38.4401 131.605 38.5934 131.605 38.7701C131.605 38.9534 131.553 39.1334 131.45 39.3101C131.35 39.4867 131.176 39.6884 130.93 39.9151L130.115 40.6701H131.6C131.613 40.6834 131.625 40.7051 131.635 40.7351C131.645 40.7617 131.65 40.7934 131.65 40.8301C131.65 40.8834 131.635 40.9251 131.605 40.9551C131.578 40.9851 131.541 41.0001 131.495 41.0001H129.73C129.696 40.9767 129.671 40.9484 129.655 40.9151C129.638 40.8784 129.63 40.8401 129.63 40.8001C129.63 40.7467 129.64 40.7001 129.66 40.6601C129.68 40.6167 129.71 40.5767 129.75 40.5401L130.65 39.6751C130.856 39.4817 130.998 39.3201 131.075 39.1901C131.151 39.0567 131.19 38.9184 131.19 38.7751C131.19 38.6184 131.136 38.4901 131.03 38.3901C130.923 38.2901 130.761 38.2401 130.545 38.2401C130.398 38.2401 130.266 38.2651 130.15 38.3151C130.036 38.3651 129.941 38.4184 129.865 38.4751C129.828 38.4584 129.795 38.4334 129.765 38.4001C129.738 38.3667 129.725 38.3251 129.725 38.2751Z" fill="#A73C4C"/>
<path d="M125.085 46.8951C125.402 46.8951 125.657 46.9651 125.85 47.1051C126.047 47.2417 126.145 47.4484 126.145 47.7251C126.145 47.8584 126.117 47.9734 126.06 48.0701C126.007 48.1634 125.942 48.2367 125.865 48.2901C125.792 48.3434 125.725 48.3784 125.665 48.3951C125.755 48.4217 125.843 48.4684 125.93 48.5351C126.017 48.5984 126.088 48.6817 126.145 48.7851C126.205 48.8851 126.235 49.0067 126.235 49.1501C126.235 49.3501 126.187 49.5167 126.09 49.6501C125.993 49.7834 125.86 49.8851 125.69 49.9551C125.52 50.0217 125.323 50.0551 125.1 50.0551C124.917 50.0551 124.753 50.0367 124.61 50.0001C124.47 49.9601 124.36 49.9101 124.28 49.8501C124.2 49.7901 124.16 49.7267 124.16 49.6601C124.16 49.6134 124.172 49.5734 124.195 49.5401C124.222 49.5067 124.255 49.4784 124.295 49.4551C124.382 49.5217 124.487 49.5817 124.61 49.6351C124.737 49.6884 124.9 49.7151 125.1 49.7151C125.32 49.7151 125.498 49.6684 125.635 49.5751C125.772 49.4784 125.84 49.3334 125.84 49.1401C125.84 48.9701 125.777 48.8334 125.65 48.7301C125.523 48.6267 125.34 48.5751 125.1 48.5751H124.685C124.672 48.5584 124.66 48.5351 124.65 48.5051C124.64 48.4717 124.635 48.4384 124.635 48.4051C124.635 48.3684 124.64 48.3351 124.65 48.3051C124.66 48.2751 124.672 48.2517 124.685 48.2351H125.065C125.312 48.2351 125.487 48.1901 125.59 48.1001C125.697 48.0067 125.75 47.8851 125.75 47.7351C125.75 47.5717 125.69 47.4484 125.57 47.3651C125.45 47.2784 125.287 47.2351 125.08 47.2351C124.92 47.2351 124.778 47.2601 124.655 47.3101C124.535 47.3567 124.435 47.4084 124.355 47.4651C124.322 47.4484 124.292 47.4217 124.265 47.3851C124.238 47.3484 124.225 47.3084 124.225 47.2651C124.225 47.2051 124.263 47.1467 124.34 47.0901C124.417 47.0334 124.52 46.9867 124.65 46.9501C124.78 46.9134 124.925 46.8951 125.085 46.8951ZM127.984 50.0651C127.751 50.0651 127.544 50.0084 127.364 49.8951C127.188 49.7784 127.049 49.6034 126.949 49.3701C126.849 49.1334 126.799 48.8367 126.799 48.4801C126.799 48.0967 126.856 47.7901 126.969 47.5601C127.083 47.3301 127.229 47.1634 127.409 47.0601C127.589 46.9534 127.781 46.9001 127.984 46.9001C128.191 46.9001 128.384 46.9534 128.564 47.0601C128.748 47.1667 128.894 47.3367 129.004 47.5701C129.118 47.8001 129.174 48.1034 129.174 48.4801C129.174 48.8334 129.124 49.1284 129.024 49.3651C128.924 49.5984 128.784 49.7734 128.604 49.8901C128.428 50.0067 128.221 50.0651 127.984 50.0651ZM127.984 49.7251C128.231 49.7251 128.423 49.6184 128.559 49.4051C128.696 49.1884 128.764 48.8801 128.764 48.4801C128.764 48.1834 128.728 47.9451 128.654 47.7651C128.584 47.5817 128.491 47.4484 128.374 47.3651C128.258 47.2817 128.128 47.2401 127.984 47.2401C127.844 47.2401 127.714 47.2834 127.594 47.3701C127.478 47.4534 127.384 47.5867 127.314 47.7701C127.244 47.9534 127.209 48.1901 127.209 48.4801C127.209 48.8801 127.278 49.1884 127.414 49.4051C127.551 49.6184 127.741 49.7251 127.984 49.7251ZM130.666 48.8801H130.261V47.3501L129.621 47.6501C129.577 47.6334 129.541 47.6084 129.511 47.5751C129.484 47.5417 129.471 47.5001 129.471 47.4501C129.471 47.3534 129.531 47.2801 129.651 47.2301L130.351 46.9251H130.446C130.512 46.9251 130.566 46.9451 130.606 46.9851C130.646 47.0251 130.666 47.0784 130.666 47.1451V48.8801ZM130.261 48.6801H130.666V50.0051C130.646 50.0117 130.619 50.0184 130.586 50.0251C130.552 50.0351 130.516 50.0401 130.476 50.0401C130.406 50.0401 130.352 50.0251 130.316 49.9951C130.279 49.9651 130.261 49.9184 130.261 49.8551V48.6801Z" fill="#A73C4C"/>
<path d="M10.5851 9.89506C10.9017 9.89506 11.1567 9.96506 11.3501 10.1051C11.5467 10.2417 11.6451 10.4484 11.6451 10.7251C11.6451 10.8584 11.6167 10.9734 11.5601 11.0701C11.5067 11.1634 11.4417 11.2367 11.3651 11.2901C11.2917 11.3434 11.2251 11.3784 11.1651 11.3951C11.2551 11.4217 11.3434 11.4684 11.4301 11.5351C11.5167 11.5984 11.5884 11.6817 11.6451 11.7851C11.7051 11.8851 11.7351 12.0067 11.7351 12.1501C11.7351 12.3501 11.6867 12.5167 11.5901 12.6501C11.4934 12.7834 11.3601 12.8851 11.1901 12.9551C11.0201 13.0217 10.8234 13.0551 10.6001 13.0551C10.4167 13.0551 10.2534 13.0367 10.1101 13.0001C9.97006 12.9601 9.86006 12.9101 9.78006 12.8501C9.70006 12.7901 9.66006 12.7267 9.66006 12.6601C9.66006 12.6134 9.67173 12.5734 9.69506 12.5401C9.72173 12.5067 9.75506 12.4784 9.79506 12.4551C9.88173 12.5217 9.98673 12.5817 10.1101 12.6351C10.2367 12.6884 10.4001 12.7151 10.6001 12.7151C10.8201 12.7151 10.9984 12.6684 11.1351 12.5751C11.2717 12.4784 11.3401 12.3334 11.3401 12.1401C11.3401 11.9701 11.2767 11.8334 11.1501 11.7301C11.0234 11.6267 10.8401 11.5751 10.6001 11.5751H10.1851C10.1717 11.5584 10.1601 11.5351 10.1501 11.5051C10.1401 11.4717 10.1351 11.4384 10.1351 11.4051C10.1351 11.3684 10.1401 11.3351 10.1501 11.3051C10.1601 11.2751 10.1717 11.2517 10.1851 11.2351H10.5651C10.8117 11.2351 10.9867 11.1901 11.0901 11.1001C11.1967 11.0067 11.2501 10.8851 11.2501 10.7351C11.2501 10.5717 11.1901 10.4484 11.0701 10.3651C10.9501 10.2784 10.7867 10.2351 10.5801 10.2351C10.4201 10.2351 10.2784 10.2601 10.1551 10.3101C10.0351 10.3567 9.93506 10.4084 9.85506 10.4651C9.82173 10.4484 9.79173 10.4217 9.76506 10.3851C9.73839 10.3484 9.72506 10.3084 9.72506 10.2651C9.72506 10.2051 9.76339 10.1467 9.84006 10.0901C9.91673 10.0334 10.0201 9.98673 10.1501 9.95006C10.2801 9.91339 10.4251 9.89506 10.5851 9.89506ZM13.4844 13.0651C13.251 13.0651 13.0444 13.0084 12.8644 12.8951C12.6877 12.7784 12.5494 12.6034 12.4494 12.3701C12.3494 12.1334 12.2994 11.8367 12.2994 11.4801C12.2994 11.0967 12.356 10.7901 12.4694 10.5601C12.5827 10.3301 12.7294 10.1634 12.9094 10.0601C13.0894 9.95339 13.281 9.90006 13.4844 9.90006C13.691 9.90006 13.8844 9.95339 14.0644 10.0601C14.2477 10.1667 14.3944 10.3367 14.5044 10.5701C14.6177 10.8001 14.6744 11.1034 14.6744 11.4801C14.6744 11.8334 14.6244 12.1284 14.5244 12.3651C14.4244 12.5984 14.2844 12.7734 14.1044 12.8901C13.9277 13.0067 13.721 13.0651 13.4844 13.0651ZM13.4844 12.7251C13.731 12.7251 13.9227 12.6184 14.0594 12.4051C14.196 12.1884 14.2644 11.8801 14.2644 11.4801C14.2644 11.1834 14.2277 10.9451 14.1544 10.7651C14.0844 10.5817 13.991 10.4484 13.8744 10.3651C13.7577 10.2817 13.6277 10.2401 13.4844 10.2401C13.3444 10.2401 13.2144 10.2834 13.0944 10.3701C12.9777 10.4534 12.8844 10.5867 12.8144 10.7701C12.7444 10.9534 12.7094 11.1901 12.7094 11.4801C12.7094 11.8801 12.7777 12.1884 12.9144 12.4051C13.051 12.6184 13.241 12.7251 13.4844 12.7251ZM16.3694 13.0651C16.1427 13.0651 15.9444 13.0317 15.7744 12.9651C15.6044 12.8951 15.4727 12.7951 15.3794 12.6651C15.2861 12.5351 15.2394 12.3784 15.2394 12.1951C15.2394 12.0317 15.2761 11.8934 15.3494 11.7801C15.4261 11.6634 15.5227 11.5701 15.6394 11.5001C15.7561 11.4301 15.8777 11.3834 16.0044 11.3601L16.3044 11.3101C16.5444 11.2634 16.7244 11.1951 16.8444 11.1051C16.9644 11.0117 17.0244 10.8884 17.0244 10.7351C17.0244 10.5784 16.9661 10.4567 16.8494 10.3701C16.7327 10.2801 16.5727 10.2351 16.3694 10.2351C16.1727 10.2351 16.0144 10.2801 15.8944 10.3701C15.7744 10.4601 15.7144 10.5801 15.7144 10.7301C15.7144 10.8567 15.7477 10.9584 15.8144 11.0351C15.8844 11.1117 15.9761 11.1701 16.0894 11.2101C16.2061 11.2467 16.3327 11.2717 16.4694 11.2851L16.6894 11.3601C16.8261 11.3867 16.9561 11.4351 17.0794 11.5051C17.2027 11.5717 17.3027 11.6617 17.3794 11.7751C17.4561 11.8884 17.4944 12.0301 17.4944 12.2001C17.4944 12.3801 17.4461 12.5351 17.3494 12.6651C17.2561 12.7951 17.1244 12.8951 16.9544 12.9651C16.7877 13.0317 16.5927 13.0651 16.3694 13.0651ZM16.3694 12.7301C16.5861 12.7301 16.7611 12.6834 16.8944 12.5901C17.0277 12.4967 17.0944 12.3617 17.0944 12.1851C17.0944 11.9917 17.0127 11.8384 16.8494 11.7251C16.6894 11.6117 16.4744 11.5467 16.2044 11.5301L15.9494 11.4551C15.7561 11.4017 15.6011 11.3151 15.4844 11.1951C15.3711 11.0751 15.3144 10.9184 15.3144 10.7251C15.3144 10.5551 15.3577 10.4084 15.4444 10.2851C15.5344 10.1617 15.6577 10.0667 15.8144 10.0001C15.9744 9.93339 16.1594 9.90006 16.3694 9.90006C16.6961 9.90006 16.9527 9.97506 17.1394 10.1251C17.3294 10.2717 17.4244 10.4751 17.4244 10.7351C17.4244 10.9451 17.3527 11.1101 17.2094 11.2301C17.0694 11.3501 16.8977 11.4284 16.6944 11.4651L16.3544 11.5351C16.1411 11.5684 15.9677 11.6417 15.8344 11.7551C15.7044 11.8651 15.6394 12.0101 15.6394 12.1901C15.6394 12.3601 15.7044 12.4934 15.8344 12.5901C15.9644 12.6834 16.1427 12.7301 16.3694 12.7301Z" fill="#A73C4C"/>
</svg>
