<svg width="153" height="76" viewBox="0 0 153 76" fill="none" xmlns="http://www.w3.org/2000/svg">
<path d="M0.291992 3.57939L24.6893 3.57945L24.6907 0.149292L152 0.149322V0.894745V20.8948V75.1961H142.284V65.6314H119.205V60.8947H24.7472V71.2014H0.292045L0.291992 3.57939Z" fill="white"/>
<path d="M152.008 0.25V75.3164H142.312V65.7852H119.201V61.0195H24.75V71.249L0.25 71.2314V3.6543H24.7197V0.25H152.008Z" stroke="#A73C4C" stroke-width="0.5"/>
<path d="M24.75 61C24.75 37.178 24.75 23.822 24.75 3.05176e-05" stroke="#A73C4C" stroke-width="0.5"/>
<path d="M119 55.4999C119 44.1613 119 36.8386 119 25.4999" stroke="#A73C4C" stroke-width="0.5"/>
<path d="M24.9999 19.5C24.4999 19.5 152 19.5 152 19.5" stroke="#A73C4C" stroke-width="0.5"/>
<path d="M135.5 19.5V29.5001" stroke="#A73C4C" stroke-width="0.5"/>
<path d="M135.5 35.5993V50" stroke="#A73C4C" stroke-width="0.5"/>
<path d="M17 41.2942V54" stroke="#A73C4C" stroke-width="0.5"/>
<path d="M17 58.7763V62.4571" stroke="#A73C4C" stroke-width="0.5"/>
<path d="M17 67.8535V71.5" stroke="#A73C4C" stroke-width="0.5"/>
<path d="M25 37.75H23.2957" stroke="#A73C4C" stroke-width="0.5"/>
<path d="M18.4135 37.75H7.3335" stroke="#A73C4C" stroke-width="0.5"/>
<path d="M2.5 37.75H0" stroke="#A73C4C" stroke-width="0.5"/>
<path d="M25 61H23" stroke="#A73C4C" stroke-width="0.5"/>
<path d="M18.5 61H0" stroke="#A73C4C" stroke-width="0.5"/>
<path d="M17 42H0M18.5 61H0" stroke="#A73C4C" stroke-width="0.5"/>
<path d="M135.5 56V61" stroke="#A73C4C" stroke-width="0.5"/>
<path d="M119 55L113 61" stroke="#A73C4C" stroke-width="0.5"/>
<path d="M119 26L112.5 19.5" stroke="#A73C4C" stroke-width="0.5"/>
<path d="M152 61.02H149.336" stroke="#A73C4C" stroke-width="0.5"/>
<path d="M144 61L141.5 61" stroke="#A73C4C" stroke-width="0.5"/>
<path d="M142.31 61V66" stroke="#A73C4C" stroke-width="0.5"/>
<path d="M136 61L119 61.02" stroke="#A73C4C" stroke-width="0.5"/>
<path d="M4.66 51.885L6.115 49.955C6.145 49.9483 6.17833 49.9433 6.215 49.94C6.255 49.9333 6.29 49.93 6.32 49.93C6.36667 49.93 6.41 49.9367 6.45 49.95C6.49333 49.9633 6.52833 49.9883 6.555 50.025C6.58167 50.0583 6.595 50.1083 6.595 50.175V51.925H7.095C7.105 51.9417 7.115 51.965 7.125 51.995C7.135 52.0217 7.14 52.0533 7.14 52.09C7.14 52.1433 7.12667 52.185 7.1 52.215C7.07333 52.245 7.035 52.26 6.985 52.26H6.595V53.01C6.57833 53.0133 6.55333 53.0183 6.52 53.025C6.49 53.035 6.45667 53.04 6.42 53.04C6.35 53.04 6.29667 53.025 6.26 52.995C6.22333 52.965 6.205 52.9217 6.205 52.865V52.26H4.76C4.72667 52.2433 4.69667 52.2133 4.67 52.17C4.64667 52.1267 4.635 52.0783 4.635 52.025C4.635 51.995 4.63667 51.97 4.64 51.95C4.64667 51.9267 4.65333 51.905 4.66 51.885ZM6.21 51.925L6.22 50.35H6.21L5.1 51.925H6.21ZM8.74309 53.065C8.50975 53.065 8.30309 53.0083 8.12309 52.895C7.94642 52.7783 7.80809 52.6033 7.70809 52.37C7.60809 52.1333 7.55809 51.8367 7.55809 51.48C7.55809 51.0967 7.61475 50.79 7.72809 50.56C7.84142 50.33 7.98809 50.1633 8.16809 50.06C8.34809 49.9533 8.53975 49.9 8.74309 49.9C8.94975 49.9 9.14309 49.9533 9.32309 50.06C9.50642 50.1667 9.65309 50.3367 9.76309 50.57C9.87642 50.8 9.93309 51.1033 9.93309 51.48C9.93309 51.8333 9.88309 52.1283 9.78309 52.365C9.68309 52.5983 9.54309 52.7733 9.36309 52.89C9.18642 53.0067 8.97975 53.065 8.74309 53.065ZM8.74309 52.725C8.98975 52.725 9.18142 52.6183 9.31809 52.405C9.45475 52.1883 9.52309 51.88 9.52309 51.48C9.52309 51.1833 9.48642 50.945 9.41309 50.765C9.34309 50.5817 9.24975 50.4483 9.13309 50.365C9.01642 50.2817 8.88642 50.24 8.74309 50.24C8.60309 50.24 8.47309 50.2833 8.35309 50.37C8.23642 50.4533 8.14309 50.5867 8.07309 50.77C8.00309 50.9533 7.96809 51.19 7.96809 51.48C7.96809 51.88 8.03642 52.1883 8.17309 52.405C8.30975 52.6183 8.49975 52.725 8.74309 52.725ZM10.4832 50.275C10.4832 50.215 10.5216 50.1567 10.5982 50.1C10.6749 50.04 10.7782 49.9917 10.9082 49.955C11.0382 49.9183 11.1799 49.9 11.3332 49.9C11.5466 49.9 11.7299 49.9367 11.8832 50.01C12.0366 50.08 12.1549 50.18 12.2382 50.31C12.3216 50.44 12.3632 50.5933 12.3632 50.77C12.3632 50.9533 12.3116 51.1333 12.2082 51.31C12.1082 51.4867 11.9349 51.6883 11.6882 51.915L10.8732 52.67H12.3582C12.3716 52.6833 12.3832 52.705 12.3932 52.735C12.4032 52.7617 12.4082 52.7933 12.4082 52.83C12.4082 52.8833 12.3932 52.925 12.3632 52.955C12.3366 52.985 12.2999 53 12.2532 53H10.4882C10.4549 52.9767 10.4299 52.9483 10.4132 52.915C10.3966 52.8783 10.3882 52.84 10.3882 52.8C10.3882 52.7467 10.3982 52.7 10.4182 52.66C10.4382 52.6167 10.4682 52.5767 10.5082 52.54L11.4082 51.675C11.6149 51.4817 11.7566 51.32 11.8332 51.19C11.9099 51.0567 11.9482 50.9183 11.9482 50.775C11.9482 50.6183 11.8949 50.49 11.7882 50.39C11.6816 50.29 11.5199 50.24 11.3032 50.24C11.1566 50.24 11.0249 50.265 10.9082 50.315C10.7949 50.365 10.6999 50.4183 10.6232 50.475C10.5866 50.4583 10.5532 50.4333 10.5232 50.4C10.4966 50.3667 10.4832 50.325 10.4832 50.275Z" fill="#A73C4C"/>
<path d="M124.785 27.5519C124.785 27.4632 124.809 27.3886 124.855 27.3279C124.907 27.2719 124.974 27.2439 125.058 27.2439L129.979 27.2439C130.059 27.2439 130.124 27.2696 130.175 27.3209C130.227 27.3722 130.252 27.4376 130.252 27.5169L130.252 30.4989C130.252 30.5689 130.227 30.6272 130.175 30.6739C130.129 30.7252 130.066 30.7509 129.986 30.7509C129.907 30.7509 129.844 30.7252 129.797 30.6739C129.751 30.6272 129.727 30.5689 129.727 30.4989L129.727 27.7899L128.012 27.7899L128.012 29.5189C128.012 29.8456 127.942 30.1349 127.802 30.3869C127.667 30.6436 127.478 30.8442 127.235 30.9889C126.997 31.1336 126.722 31.2059 126.409 31.2059C126.092 31.2059 125.81 31.1336 125.562 30.9889C125.32 30.8442 125.128 30.6436 124.988 30.3869C124.853 30.1349 124.785 29.8456 124.785 29.5189L124.785 27.5519ZM125.31 27.7899L125.31 29.5189C125.31 29.7429 125.357 29.9412 125.45 30.1139C125.544 30.2866 125.674 30.4219 125.842 30.5199C126.01 30.6179 126.206 30.6669 126.43 30.6669C126.654 30.6669 126.848 30.6179 127.011 30.5199C127.179 30.4219 127.308 30.2866 127.396 30.1139C127.485 29.9412 127.529 29.7429 127.529 29.5189L127.529 27.7899L125.31 27.7899ZM124.75 33.9058C124.75 33.5465 124.834 33.2245 125.002 32.9398C125.175 32.6552 125.408 32.4288 125.702 32.2608C125.996 32.0975 126.328 32.0158 126.696 32.0158C127.07 32.0158 127.403 32.0998 127.697 32.2678C127.991 32.4405 128.222 32.6738 128.39 32.9678C128.563 33.2618 128.649 33.5932 128.649 33.9618C128.649 34.3305 128.563 34.6595 128.39 34.9488C128.222 35.2428 127.991 35.4738 127.697 35.6418C127.403 35.8145 127.07 35.9032 126.696 35.9078L126.528 35.6908C126.192 35.6908 125.889 35.6115 125.618 35.4528C125.352 35.2988 125.14 35.0865 124.981 34.8158C124.827 34.5498 124.75 34.2465 124.75 33.9058ZM125.24 33.9618C125.24 34.2325 125.303 34.4728 125.429 34.6828C125.555 34.8975 125.728 35.0655 125.947 35.1868C126.171 35.3128 126.421 35.3758 126.696 35.3758C126.976 35.3758 127.226 35.3128 127.445 35.1868C127.665 35.0655 127.837 34.8975 127.963 34.6828C128.094 34.4728 128.159 34.2325 128.159 33.9618C128.159 33.6958 128.094 33.4555 127.963 33.2408C127.837 33.0262 127.665 32.8558 127.445 32.7298C127.226 32.6038 126.976 32.5408 126.696 32.5408C126.421 32.5408 126.171 32.6038 125.947 32.7298C125.728 32.8558 125.555 33.0262 125.429 33.2408C125.303 33.4555 125.24 33.6958 125.24 33.9618ZM124.785 35.6348C124.785 35.5555 124.809 35.4902 124.855 35.4388C124.907 35.3875 124.972 35.3618 125.051 35.3618L126.248 35.3618L126.801 35.4948L126.696 35.9078L125.051 35.9078C124.972 35.9078 124.907 35.8822 124.855 35.8308C124.809 35.7795 124.785 35.7142 124.785 35.6348ZM128.614 38.3841C128.614 38.4401 128.6 38.4915 128.572 38.5381C128.544 38.5848 128.498 38.6221 128.432 38.6501L125.128 40.1691C125.063 40.2018 125 40.2041 124.939 40.1761C124.883 40.1528 124.839 40.1085 124.806 40.0431C124.774 39.9685 124.767 39.9008 124.785 39.8401C124.809 39.7795 124.855 39.7305 124.925 39.6931L128.152 38.2441L128.152 38.5591L124.932 37.0821C124.862 37.0495 124.816 36.9981 124.792 36.9281C124.774 36.8628 124.781 36.7951 124.813 36.7251C124.846 36.6598 124.89 36.6131 124.946 36.5851C125.007 36.5618 125.07 36.5641 125.135 36.5921L128.432 38.1321C128.554 38.1881 128.614 38.2721 128.614 38.3841ZM124.855 44.0464C124.809 43.9997 124.785 43.9367 124.785 43.8574C124.785 43.7827 124.811 43.722 124.862 43.6754L126.696 42.0024L128.53 43.6054C128.582 43.652 128.61 43.7104 128.614 43.7804C128.619 43.8504 128.6 43.911 128.558 43.9624C128.507 44.0184 128.449 44.0487 128.383 44.0534C128.323 44.058 128.264 44.037 128.208 43.9904L126.724 42.6744L125.198 44.0604C125.147 44.107 125.089 44.1304 125.023 44.1304C124.963 44.1304 124.907 44.1024 124.855 44.0464ZM124.785 41.3304C124.785 41.251 124.809 41.188 124.855 41.1414C124.907 41.0947 124.972 41.0714 125.051 41.0714L128.341 41.0714C128.425 41.0714 128.491 41.0947 128.537 41.1414C128.589 41.188 128.614 41.251 128.614 41.3304C128.614 41.4144 128.589 41.4797 128.537 41.5264C128.491 41.5777 128.425 41.6034 128.341 41.6034L126.955 41.6034L126.955 42.4574L126.465 42.4574L126.465 41.6034L125.051 41.6034C124.972 41.6034 124.907 41.5777 124.855 41.5264C124.809 41.4797 124.785 41.4144 124.785 41.3304ZM124.75 46.3964C124.75 46.0231 124.834 45.6894 125.002 45.3954C125.17 45.1014 125.401 44.8704 125.695 44.7024C125.989 44.5344 126.323 44.4504 126.696 44.4504C127.074 44.4504 127.41 44.5344 127.704 44.7024C127.998 44.8704 128.229 45.1014 128.397 45.3954C128.565 45.6894 128.649 46.0231 128.649 46.3964C128.649 46.7697 128.565 47.1011 128.397 47.3904C128.229 47.6844 127.998 47.9154 127.704 48.0834C127.41 48.2514 127.074 48.3377 126.696 48.3424C126.323 48.3424 125.989 48.2561 125.695 48.0834C125.401 47.9154 125.17 47.6844 125.002 47.3904C124.834 47.1011 124.75 46.7697 124.75 46.3964ZM125.24 46.3964C125.24 46.6671 125.303 46.9097 125.429 47.1244C125.555 47.3391 125.728 47.5071 125.947 47.6284C126.167 47.7497 126.416 47.8104 126.696 47.8104C126.976 47.8104 127.226 47.7497 127.445 47.6284C127.669 47.5071 127.844 47.3391 127.97 47.1244C128.096 46.9097 128.159 46.6671 128.159 46.3964C128.159 46.1257 128.096 45.8831 127.97 45.6684C127.844 45.4537 127.669 45.2834 127.445 45.1574C127.226 45.0361 126.976 44.9754 126.696 44.9754C126.416 44.9754 126.167 45.0361 125.947 45.1574C125.728 45.2834 125.555 45.4537 125.429 45.6684C125.303 45.8831 125.24 46.1257 125.24 46.3964ZM124.785 52.6667C124.785 52.5874 124.809 52.522 124.855 52.4707C124.907 52.4194 124.974 52.3937 125.058 52.3937L128.341 52.3937C128.425 52.3937 128.491 52.4194 128.537 52.4707C128.589 52.522 128.614 52.5874 128.614 52.6667C128.614 52.746 128.589 52.809 128.537 52.8557C128.491 52.9024 128.425 52.9257 128.341 52.9257L125.058 52.9257C124.974 52.9257 124.907 52.9024 124.855 52.8557C124.809 52.809 124.785 52.746 124.785 52.6667ZM124.785 49.6567C124.785 49.5774 124.809 49.512 124.855 49.4607C124.907 49.414 124.974 49.3907 125.058 49.3907L128.341 49.3907C128.425 49.3907 128.491 49.414 128.537 49.4607C128.589 49.512 128.614 49.5774 128.614 49.6567C128.614 49.736 128.589 49.799 128.537 49.8457C128.491 49.897 128.425 49.9227 128.341 49.9227L125.058 49.9227C124.974 49.9227 124.907 49.897 124.855 49.8457C124.809 49.799 124.785 49.736 124.785 49.6567ZM126.472 49.8317L126.955 49.8317L126.955 52.5827L126.472 52.5827L126.472 49.8317Z" fill="#A73C4C"/>
</svg>
