<svg width="249" height="52" viewBox="0 0 249 52" fill="none" xmlns="http://www.w3.org/2000/svg">
<path d="M0.304199 2.33537H29.3042V8.83537H78.0138V2.33537H171.804V8.78664H212.467V2.33537H249V51.6656H171.073V45.115L78.0138 45.1637V51.8354H0.304199V6.33537V2.33537Z" fill="white"/>
<path d="M36.58 8.78116H57.8042" stroke="#A73C4C" stroke-width="0.5"/>
<path d="M63.3042 8.78116H72.0813" stroke="#A73C4C" stroke-width="0.5"/>
<path d="M119.304 2.24176H77.9961V8.78116H77.3042" stroke="#A73C4C" stroke-width="0.5"/>
<path d="M125.184 2.24176L126.304 2.24176" stroke="#A73C4C" stroke-width="0.5"/>
<path d="M132.143 2.24176H146.804" stroke="#A73C4C" stroke-width="0.5"/>
<path d="M152.804 2.24176H154.804" stroke="#A73C4C" stroke-width="0.5"/>
<path d="M156.804 2.24176H158.434" stroke="#A73C4C" stroke-width="0.5"/>
<path d="M164.304 2.24176H165.304" stroke="#A73C4C" stroke-width="0.5"/>
<path d="M171.155 2.24176H171.727V8.78116H186.804" stroke="#A73C4C" stroke-width="0.5"/>
<path d="M192.304 8.78116H212.417V2.24176H248.747V28.3354" stroke="#A73C4C" stroke-width="0.5"/>
<path d="M248.747 34.8354V51.6505H171.001V45.1111H131.804" stroke="#A73C4C" stroke-width="0.5"/>
<path d="M0.25 2.24176H29.5549M0.25001 34.2121V51.6505H77.9961V45.1111H118.304" stroke="#A73C4C" stroke-width="0.5"/>
<path d="M0.380217 26.0854H6.3043M12.1536 26.0854H31.8043M37.8043 26.0854H41.8043M47.4752 26.0854H50.8043M56.3043 26.0854H57.918M70.4499 26.0854H71.5388M63.5319 26.0854H64.8043M10.8042 34.2121H23.3043M28.8042 34.2121H41.8042M47.4752 34.2121H50.8042M56.3042 34.2121H57.8042M63.3042 34.2121H64.8042M70.4499 34.2121H71.8042M81.8042 26.0854H77.9961V45.1111M86.8042 19.6396H77.9961V8.78116M87.5482 26.0854H92.8042V45.1111M64.3042 20.8354H71.3042M99.3042 26.0854H111.804V29.3354M92.8042 19.6396H118.137V17.3354M111.804 11.3354H118.304M111.804 41.3354H112.804M115.304 41.3354H118.304V45.3588M133.804 41.8354H131.804V45.3588M136.804 41.8354H138.304M151.304 26.0854H138.304V29.3354M131.804 19.6396H171.728L171.727 8.78116M171.728 14.3354H157.942V2.24176M156.804 26.0854H161.051M166.804 26.3354H171.001V36.8354M171.001 35.8354H176.501M179.804 27.3354H179.304V19.3354M185.304 27.3354H186.804M192.304 27.3354H193.804M182.304 35.8354H202.304M199.304 27.3354H202.804M207.804 35.8354H221.304M209.304 27.3354H235.304M227.304 35.8354H248.747M241.304 27.3354H248.747M231.804 40.3354H239.804V50.8354M15.3042 8.33537V9.33537H24.8042V8.33537M15.3042 3.33537V2.24177M24.8042 3.33537V2.33537M21.8042 19.8354V9.33537M21.8042 26.3354V25.3354M21.8042 51.5881V34.3354M39.8042 51.6505V34.2121M49.8042 51.6505V34.3354M57.0542 51.6505V34.2121M64.0542 51.6505V34.2121M71.127 51.6505V34.2121M64.1681 26.0854V8.96213M57.0542 25.9044V8.78116M49.8042 25.9044V8.78116M39.8043 26.0854V8.96213M29.3042 19.8354V2.24177M36.5799 8.78116H29.3042M71.3042 13.3354V8.78116M71.3042 26.0854V19.3354M99.8042 45.1111V26.0854M111.804 45.1111V35.3354M138.304 45.1111V35.3354M150.47 45.1111V26.0854M157.509 45.1111V26.0854M111.804 19.8354V2.24176M118.137 12.0611V10.8354M118.304 5.64689V2.24176M145.068 19.6396V2.24176M154.091 19.6396V2.33537M164.804 14.3354V2.33537M179.304 13.8354V8.83537M186.054 27.3354V8.83537M186.054 20.8354H179.304M193.304 27.3354V8.78116M200.304 27.3354V8.83537M212.417 20.8354V8.78116M212.417 27.4537V26.6204M230.804 27.3354V2.24177M200.304 51.6505V35.8354M214.804 51.6505V35.8354M231.804 51.6505V46.8354M231.804 42.3354V39.8354M231.804 36.8354V35.8354M124.804 46.8354V43.3354M171.001 45.1111V42.3354M0.25 34.2121V1.99124" stroke="#A73C4C" stroke-width="0.5"/>
<path d="M59.9965 9.62805H63.0991M63.0991 9.62805L62.253 8.625M63.0991 9.62805L62.2529 10.6311" stroke="#A73C4C" stroke-width="0.5" stroke-linecap="round" stroke-linejoin="round"/>
<path d="M61.1247 8.37749V7.47866C61.1247 7.39952 61.0616 7.33537 60.9837 7.33537H58.4452C58.3673 7.33537 58.3042 7.39952 58.3042 7.47866V11.7774C58.3042 11.8566 58.3673 11.9207 58.4452 11.9207H60.9837C61.0616 11.9207 61.1247 11.8566 61.1247 11.7774V10.8786" stroke="#A73C4C" stroke-width="0.5" stroke-linecap="round" stroke-linejoin="round"/>
<path d="M149.202 2.62805H152.304M152.304 2.62805L151.458 1.625M152.304 2.62805L151.458 3.6311" stroke="#A73C4C" stroke-width="0.5" stroke-linecap="round" stroke-linejoin="round"/>
<path d="M150.33 1.37749V0.478658C150.33 0.399521 150.267 0.335366 150.189 0.335366H147.65C147.572 0.335366 147.509 0.399521 147.509 0.478658V4.77744C147.509 4.85656 147.572 4.92073 147.65 4.92073H150.189C150.267 4.92073 150.33 4.85656 150.33 4.77744V3.87859" stroke="#A73C4C" stroke-width="0.5" stroke-linecap="round" stroke-linejoin="round"/>
<path d="M160.702 2.54269H163.804M163.804 2.54269L162.958 1.53964M163.804 2.54269L162.958 3.54573" stroke="#A73C4C" stroke-width="0.5" stroke-linecap="round" stroke-linejoin="round"/>
<path d="M161.83 1.29213V0.393293C161.83 0.314155 161.767 0.25 161.689 0.25H159.15C159.072 0.25 159.009 0.314155 159.009 0.393293V4.69207C159.009 4.7712 159.072 4.83537 159.15 4.83537H161.689C161.767 4.83537 161.83 4.7712 161.83 4.69207V3.79323" stroke="#A73C4C" stroke-width="0.5" stroke-linecap="round" stroke-linejoin="round"/>
<path d="M167.497 2.62805H170.599M170.599 2.62805L169.753 1.625M170.599 2.62805L169.753 3.6311" stroke="#A73C4C" stroke-width="0.5" stroke-linecap="round" stroke-linejoin="round"/>
<path d="M168.625 1.37749V0.478658C168.625 0.399521 168.562 0.335366 168.484 0.335366H165.945C165.867 0.335366 165.804 0.399521 165.804 0.478658V4.77744C165.804 4.85656 165.867 4.92073 165.945 4.92073H168.484C168.562 4.92073 168.625 4.85656 168.625 4.77744V3.87859" stroke="#A73C4C" stroke-width="0.5" stroke-linecap="round" stroke-linejoin="round"/>
<path d="M121.497 2.62805H124.599M124.599 2.62805L123.753 1.625M124.599 2.62805L123.753 3.6311" stroke="#A73C4C" stroke-width="0.5" stroke-linecap="round" stroke-linejoin="round"/>
<path d="M122.625 1.37749V0.478658C122.625 0.399521 122.562 0.335366 122.484 0.335366H119.945C119.867 0.335366 119.804 0.399521 119.804 0.478658V4.77744C119.804 4.85656 119.867 4.92073 119.945 4.92073H122.484C122.562 4.92073 122.625 4.85656 122.625 4.77744V3.87859" stroke="#A73C4C" stroke-width="0.5" stroke-linecap="round" stroke-linejoin="round"/>
<path d="M128.497 2.62805H131.599M131.599 2.62805L130.753 1.625M131.599 2.62805L130.753 3.6311" stroke="#A73C4C" stroke-width="0.5" stroke-linecap="round" stroke-linejoin="round"/>
<path d="M129.625 1.37749V0.478658C129.625 0.399521 129.562 0.335366 129.484 0.335366H126.945C126.867 0.335366 126.804 0.399521 126.804 0.478658V4.77744C126.804 4.85656 126.867 4.92073 126.945 4.92073H129.484C129.562 4.92073 129.625 4.85656 129.625 4.77744V3.87859" stroke="#A73C4C" stroke-width="0.5" stroke-linecap="round" stroke-linejoin="round"/>
<path d="M188.997 9.54269H192.099M192.099 9.54269L191.253 8.53964M192.099 9.54269L191.253 10.5457" stroke="#A73C4C" stroke-width="0.5" stroke-linecap="round" stroke-linejoin="round"/>
<path d="M190.125 8.29213V7.39329C190.125 7.31415 190.062 7.25 189.984 7.25H187.445C187.367 7.25 187.304 7.31415 187.304 7.39329V11.6921C187.304 11.7712 187.367 11.8354 187.445 11.8354H189.984C190.062 11.8354 190.125 11.7712 190.125 11.6921V10.7932" stroke="#A73C4C" stroke-width="0.5" stroke-linecap="round" stroke-linejoin="round"/>
<path d="M74.2016 9.62805H77.3042M77.3042 9.62805L76.4582 8.625M77.3042 9.62805L76.458 10.6311" stroke="#A73C4C" stroke-width="0.5" stroke-linecap="round" stroke-linejoin="round"/>
<path d="M75.3298 8.37749V7.47866C75.3298 7.39952 75.2667 7.33537 75.1888 7.33537H72.6503C72.5725 7.33537 72.5093 7.39952 72.5093 7.47866V11.7774C72.5093 11.8566 72.5725 11.9207 72.6503 11.9207H75.1888C75.2667 11.9207 75.3298 11.8566 75.3298 11.7774V10.8786" stroke="#A73C4C" stroke-width="0.5" stroke-linecap="round" stroke-linejoin="round"/>
<path d="M120.997 44.6281H124.099M124.099 44.6281L123.253 43.625M124.099 44.6281L123.253 45.6311M127.702 44.6281H130.804M130.804 44.6281L129.958 43.625M130.804 44.6281L129.958 45.6311" stroke="#A73C4C" stroke-width="0.5" stroke-linecap="round" stroke-linejoin="round"/>
<path d="M122.125 43.3775V42.4787C122.125 42.3995 122.062 42.3354 121.984 42.3354H119.445C119.367 42.3354 119.304 42.3995 119.304 42.4787V46.7774C119.304 46.8566 119.367 46.9207 119.445 46.9207H121.984C122.062 46.9207 122.125 46.8566 122.125 46.7774V45.8786M128.83 43.3775V42.4787C128.83 42.3995 128.767 42.3354 128.689 42.3354H126.15C126.072 42.3354 126.009 42.3995 126.009 42.4787V46.7774C126.009 46.8566 126.072 46.9207 126.15 46.9207H128.689C128.767 46.9207 128.83 46.8566 128.83 46.7774V45.8786" stroke="#A73C4C" stroke-width="0.5" stroke-linecap="round" stroke-linejoin="round"/>
<path d="M8.40324 19.9589L9.54855 18.5477L10.0725 19.2267L9.06266 20.5315C8.67593 21.0308 7.96032 20.5046 8.40324 19.9589ZM9.74081 16.7453C9.84989 16.3837 9.79976 16.0748 9.38989 15.6158L8.38837 14.3916C8.24623 14.222 7.91129 14.4711 8.05122 14.6765L8.85222 15.679C9.00372 15.866 8.72221 16.1134 8.56575 15.9208L7.73721 14.8842C7.58296 14.7045 7.26399 14.9418 7.4254 15.1473C7.65898 15.4327 8.02037 15.899 8.25395 16.1845C8.41591 16.3518 8.16966 16.5998 8.0099 16.391L7.18741 15.3611C7.06677 15.2279 6.86955 15.3107 6.81721 15.4663C6.76102 15.6326 6.8993 15.754 6.9935 15.8772L7.91129 17.0818C8.1961 17.417 8.51452 17.6158 8.88472 17.5032C8.94146 17.4859 9.01088 17.4506 9.08525 17.4042L11.5511 20.6384C11.6838 20.8125 11.94 20.831 12.1064 20.6905L12.1444 20.6586C12.3317 20.5001 12.362 20.2108 12.2017 20.0238L9.59042 16.9754C9.66644 16.8892 9.72208 16.8075 9.74081 16.7453ZM10.4388 17.4506L10.8448 16.9502C10.3226 15.6348 12.2579 13.8817 13.196 14.6877C14.3358 15.6678 12.6418 18.03 11.4513 17.4461L10.9704 18.0669L10.4388 17.4506Z" fill="#3A3A3A"/>
<path d="M8.40324 44.9589L9.54855 43.5477L10.0725 44.2267L9.06266 45.5315C8.67593 46.0308 7.96032 45.5046 8.40324 44.9589ZM9.74081 41.7453C9.84989 41.3837 9.79976 41.0748 9.38989 40.6158L8.38837 39.3916C8.24623 39.222 7.91129 39.4711 8.05122 39.6765L8.85222 40.679C9.00372 40.866 8.72221 41.1134 8.56575 40.9208L7.73721 39.8842C7.58296 39.7045 7.26399 39.9418 7.4254 40.1473C7.65898 40.4327 8.02037 40.899 8.25395 41.1845C8.41591 41.3518 8.16966 41.5998 8.0099 41.391L7.18741 40.3611C7.06677 40.2279 6.86955 40.3107 6.81721 40.4663C6.76102 40.6326 6.8993 40.754 6.9935 40.8772L7.91129 42.0818C8.1961 42.417 8.51452 42.6158 8.88472 42.5032C8.94146 42.4859 9.01088 42.4506 9.08525 42.4042L11.5511 45.6384C11.6838 45.8125 11.94 45.831 12.1064 45.6905L12.1444 45.6586C12.3317 45.5001 12.362 45.2108 12.2017 45.0238L9.59042 41.9754C9.66644 41.8892 9.72208 41.8075 9.74081 41.7453ZM10.4388 42.4506L10.8448 41.9502C10.3226 40.6348 12.2579 38.8817 13.196 39.6877C14.3358 40.6678 12.6418 43.03 11.4513 42.4461L10.9704 43.0669L10.4388 42.4506Z" fill="#3A3A3A"/>
<path d="M133.104 7.33537C132.939 7.33537 132.804 7.46968 132.804 7.63537V17.97C132.804 18.1356 132.939 18.27 133.104 18.27H134.346H143.266C143.431 18.27 143.566 18.1356 143.566 17.97V9.24871V7.63537C143.566 7.46968 143.431 7.33537 143.266 7.33537H133.104ZM135.288 17.8494V16.6877C135.288 16.6325 135.332 16.5877 135.388 16.5877H136.643C136.809 16.5877 136.943 16.4534 136.943 16.2877V15.0055C136.943 14.9502 136.988 14.9055 137.043 14.9055H138.299C138.465 14.9055 138.599 14.7712 138.599 14.6055V13.3232C138.599 13.268 138.644 13.2232 138.699 13.2232H139.955C140.12 13.2232 140.255 13.0889 140.255 12.9232V11.641C140.255 11.5858 140.299 11.541 140.355 11.541H141.61C141.776 11.541 141.91 11.4067 141.91 11.241V9.95873C141.91 9.90351 141.955 9.85873 142.01 9.85873H143.152V17.7493C143.152 17.8045 143.107 17.8493 143.052 17.8493L135.288 17.8494ZM143.152 9.43817H141.796C141.631 9.43817 141.496 9.57249 141.496 9.73817V11.0204C141.496 11.0756 141.451 11.1204 141.396 11.1204H140.141C139.975 11.1204 139.841 11.2547 139.841 11.4204V12.7027C139.841 12.7579 139.796 12.8027 139.741 12.8027H138.485C138.319 12.8027 138.185 12.937 138.185 13.1027V14.3849C138.185 14.4401 138.14 14.4849 138.085 14.4849H136.829C136.664 14.4849 136.529 14.6192 136.529 14.7849V16.0672C136.529 16.1224 136.485 16.1672 136.429 16.1672H135.174C135.008 16.1672 134.874 16.3015 134.874 16.4672V17.8493H133.318C133.263 17.8493 133.218 17.8045 133.218 17.7493V7.85593C133.218 7.8007 133.263 7.75593 133.318 7.75593H143.052C143.107 7.75593 143.152 7.8007 143.152 7.85593V9.43817Z" fill="#A73C4C"/>
<path d="M187.604 15.3354C187.439 15.3354 187.304 15.4697 187.304 15.6354V20.0354C187.304 20.2011 187.439 20.3354 187.604 20.3354H188.02H192.004C192.17 20.3354 192.304 20.2011 192.304 20.0354V16.2103V15.6354C192.304 15.4697 192.17 15.3354 192.004 15.3354H187.604ZM188.458 20.1431V19.6661C188.458 19.6109 188.503 19.5661 188.558 19.5661H188.927C189.093 19.5661 189.227 19.4318 189.227 19.2661V18.8969C189.227 18.8417 189.272 18.7969 189.327 18.7969H189.697C189.862 18.7969 189.997 18.6626 189.997 18.4969V18.1277C189.997 18.0724 190.041 18.0277 190.097 18.0277H190.466C190.631 18.0277 190.766 17.8934 190.766 17.7277V17.3584C190.766 17.3032 190.811 17.2584 190.866 17.2584H191.235C191.401 17.2584 191.535 17.1241 191.535 16.9584V16.5892C191.535 16.534 191.58 16.4892 191.635 16.4892H192.112V20.043C192.112 20.0982 192.067 20.143 192.012 20.143L188.458 20.1431ZM192.112 16.2969H191.643C191.477 16.2969 191.343 16.4312 191.343 16.5969V16.9661C191.343 17.0214 191.298 17.0661 191.243 17.0661H190.873C190.708 17.0661 190.573 17.2004 190.573 17.3661V17.7354C190.573 17.7906 190.529 17.8354 190.473 17.8354H190.104C189.939 17.8354 189.804 17.9697 189.804 18.1354V18.5046C189.804 18.5598 189.759 18.6046 189.704 18.6046H189.335C189.169 18.6046 189.035 18.7389 189.035 18.9046V19.2738C189.035 19.3291 188.99 19.3738 188.935 19.3738H188.566C188.4 19.3738 188.266 19.5081 188.266 19.6738V20.143H187.597C187.541 20.143 187.497 20.0982 187.497 20.043V15.6277C187.497 15.5724 187.541 15.5277 187.597 15.5277H192.012C192.067 15.5277 192.112 15.5724 192.112 15.6277V16.2969Z" fill="#A73C4C"/>
<path d="M58.6042 15.3354C58.4385 15.3354 58.3042 15.4697 58.3042 15.6354V20.0354C58.3042 20.2011 58.4385 20.3354 58.6042 20.3354H59.0205H63.0042C63.1699 20.3354 63.3042 20.2011 63.3042 20.0354V16.2103V15.6354C63.3042 15.4697 63.1699 15.3354 63.0042 15.3354H58.6042ZM59.458 20.1431V19.6661C59.458 19.6109 59.5028 19.5661 59.558 19.5661H59.9273C60.093 19.5661 60.2273 19.4318 60.2273 19.2661V18.8969C60.2273 18.8417 60.272 18.7969 60.3273 18.7969H60.6965C60.8622 18.7969 60.9965 18.6626 60.9965 18.4969V18.1277C60.9965 18.0724 61.0413 18.0277 61.0965 18.0277H61.4657C61.6314 18.0277 61.7657 17.8934 61.7657 17.7277V17.3584C61.7657 17.3032 61.8105 17.2584 61.8657 17.2584H62.235C62.4007 17.2584 62.535 17.1241 62.535 16.9584V16.5892C62.535 16.534 62.5797 16.4892 62.635 16.4892H63.1119V20.043C63.1119 20.0982 63.0671 20.143 63.0119 20.143L59.458 20.1431ZM63.1119 16.2969H62.6427C62.477 16.2969 62.3427 16.4312 62.3427 16.5969V16.9661C62.3427 17.0214 62.2979 17.0661 62.2427 17.0661H61.8734C61.7077 17.0661 61.5734 17.2004 61.5734 17.3661V17.7354C61.5734 17.7906 61.5287 17.8354 61.4734 17.8354H61.1042C60.9385 17.8354 60.8042 17.9697 60.8042 18.1354V18.5046C60.8042 18.5598 60.7594 18.6046 60.7042 18.6046H60.335C60.1693 18.6046 60.035 18.7389 60.035 18.9046V19.2738C60.035 19.3291 59.9902 19.3738 59.935 19.3738H59.5657C59.4001 19.3738 59.2657 19.5081 59.2657 19.6738V20.143H58.5965C58.5413 20.143 58.4965 20.0982 58.4965 20.043V15.6277C58.4965 15.5724 58.5413 15.5277 58.5965 15.5277H63.0119C63.0671 15.5277 63.1119 15.5724 63.1119 15.6277V16.2969Z" fill="#A73C4C"/>
<path d="M195.991 21.7134V20.1993C195.991 20.1572 195.974 20.1169 195.945 20.0873C195.915 20.0577 195.876 20.041 195.834 20.041H195.459C195.434 20.0408 195.409 20.0345 195.387 20.0225C195.364 20.0105 195.345 19.9933 195.331 19.9722C195.317 19.9512 195.307 19.9269 195.304 19.9015C195.301 19.8761 195.304 19.8503 195.313 19.8263L196.208 17.3487C196.219 17.3183 196.239 17.2921 196.265 17.2734C196.291 17.2548 196.322 17.2445 196.354 17.2441H197.303C197.335 17.244 197.367 17.2541 197.393 17.2731C197.42 17.2921 197.44 17.319 197.45 17.3501L198.328 19.8277C198.336 19.8525 198.338 19.879 198.334 19.9048C198.329 19.9305 198.319 19.9548 198.303 19.9755C198.287 19.9962 198.267 20.0126 198.243 20.0233C198.22 20.034 198.194 20.0387 198.168 20.0369H197.762C197.721 20.0394 197.683 20.0577 197.656 20.0879C197.628 20.1182 197.613 20.1581 197.614 20.1993V21.7134" stroke="#3A3A3A" stroke-width="0.5" stroke-linecap="round"/>
<path d="M196.814 16.4623C197.256 16.4623 197.614 16.0981 197.614 15.6488C197.614 15.1996 197.256 14.8354 196.814 14.8354C196.372 14.8354 196.013 15.1996 196.013 15.6488C196.013 16.0981 196.372 16.4623 196.814 16.4623Z" stroke="#3A3A3A" stroke-width="0.5" stroke-linecap="round"/>
<path d="M183.334 17.7572V16.7718C183.335 16.7476 183.33 16.7236 183.32 16.7015C183.31 16.6794 183.296 16.6596 183.278 16.6435L183.11 16.4871C183.101 16.479 183.094 16.4691 183.089 16.458C183.084 16.447 183.082 16.435 183.082 16.423V15.4063C183.082 15.3606 183.1 15.3168 183.132 15.2844C183.163 15.252 183.206 15.2337 183.251 15.2335H184.337C184.404 15.2337 184.469 15.2611 184.516 15.3096C184.564 15.3581 184.591 15.4238 184.591 15.4923V16.4308C184.59 16.4528 184.582 16.474 184.567 16.4902L184.405 16.6662C184.375 16.6981 184.359 16.7404 184.359 16.7843V17.7572" stroke="#3A3A3A" stroke-width="0.3" stroke-linecap="round"/>
<path d="M183.836 14.8604C184.088 14.8604 184.291 14.6535 184.291 14.3982C184.291 14.143 184.088 13.936 183.836 13.936C183.585 13.936 183.381 14.143 183.381 14.3982C183.381 14.6535 183.585 14.8604 183.836 14.8604Z" stroke="#3A3A3A" stroke-width="0.3" stroke-linecap="round"/>
<path d="M185.149 13.3354C185.235 13.3354 185.304 13.4012 185.304 13.4824V18.1883C185.304 18.2695 185.235 18.3354 185.149 18.3354H180.459C180.374 18.3354 180.304 18.2695 180.304 18.1883V13.4824C180.304 13.4012 180.374 13.3354 180.459 13.3354H185.149ZM180.614 17.9412C180.614 17.9965 180.659 18.0412 180.714 18.0412H184.899C184.955 18.0412 184.999 17.9965 184.999 17.9412V13.7295C184.999 13.6743 184.955 13.6295 184.899 13.6295H180.714C180.659 13.6295 180.614 13.6743 180.614 13.7295V17.9412Z" fill="#3A3A3A"/>
<path d="M181.107 15.4117C181.059 15.4716 180.972 15.4814 180.912 15.4334C180.852 15.3855 180.842 15.298 180.89 15.2381L181.446 14.5437C181.472 14.5107 181.512 14.4916 181.554 14.4916C181.596 14.4916 181.636 14.5107 181.663 14.5437L182.218 15.2381C182.266 15.298 182.256 15.3855 182.197 15.4334C182.137 15.4814 182.049 15.4716 182.001 15.4117L181.632 14.9505C181.592 14.9005 181.516 14.9005 181.476 14.9505L181.107 15.4117Z" fill="#3A3A3A"/>
<path d="M182.001 16.2104C182.049 16.1505 182.137 16.1407 182.197 16.1887C182.256 16.2366 182.266 16.3241 182.218 16.384L181.663 17.0784C181.636 17.1114 181.596 17.1305 181.554 17.1305C181.512 17.1305 181.472 17.1114 181.446 17.0784L180.89 16.384C180.842 16.3241 180.852 16.2366 180.912 16.1887C180.972 16.1407 181.059 16.1505 181.107 16.2104L181.476 16.6716C181.516 16.7216 181.592 16.7216 181.632 16.6716L182.001 16.2104Z" fill="#3A3A3A"/>
<path d="M115.334 17.2572V16.2718C115.335 16.2476 115.33 16.2236 115.32 16.2015C115.31 16.1794 115.296 16.1596 115.278 16.1435L115.11 15.9871C115.101 15.979 115.094 15.9691 115.089 15.958C115.084 15.947 115.082 15.935 115.082 15.923V14.9063C115.082 14.8606 115.1 14.8168 115.132 14.7844C115.163 14.752 115.206 14.7337 115.251 14.7335H116.337C116.404 14.7337 116.469 14.7611 116.516 14.8096C116.564 14.8581 116.591 14.9238 116.591 14.9923V15.9308C116.59 15.9528 116.582 15.974 116.567 15.9902L116.405 16.1662C116.375 16.1981 116.359 16.2404 116.359 16.2843V17.2572" stroke="#3A3A3A" stroke-width="0.3" stroke-linecap="round"/>
<path d="M115.836 14.3604C116.088 14.3604 116.291 14.1535 116.291 13.8982C116.291 13.643 116.088 13.436 115.836 13.436C115.585 13.436 115.381 13.643 115.381 13.8982C115.381 14.1535 115.585 14.3604 115.836 14.3604Z" stroke="#3A3A3A" stroke-width="0.3" stroke-linecap="round"/>
<path d="M117.149 12.8354C117.235 12.8354 117.304 12.9012 117.304 12.9824V17.6883C117.304 17.7695 117.235 17.8354 117.149 17.8354H112.459C112.374 17.8354 112.304 17.7695 112.304 17.6883V12.9824C112.304 12.9012 112.374 12.8354 112.459 12.8354H117.149ZM112.614 17.4412C112.614 17.4965 112.659 17.5412 112.714 17.5412H116.899C116.955 17.5412 116.999 17.4965 116.999 17.4412V13.2295C116.999 13.1743 116.955 13.1295 116.899 13.1295H112.714C112.659 13.1295 112.614 13.1743 112.614 13.2295V17.4412Z" fill="#3A3A3A"/>
<path d="M113.107 14.9117C113.059 14.9716 112.972 14.9814 112.912 14.9334C112.852 14.8855 112.842 14.798 112.89 14.7381L113.446 14.0437C113.472 14.0107 113.512 13.9916 113.554 13.9916C113.596 13.9916 113.636 14.0107 113.663 14.0437L114.218 14.7381C114.266 14.798 114.256 14.8855 114.197 14.9334C114.137 14.9814 114.049 14.9716 114.001 14.9117L113.632 14.4505C113.592 14.4005 113.516 14.4005 113.476 14.4505L113.107 14.9117Z" fill="#3A3A3A"/>
<path d="M114.001 15.7104C114.049 15.6505 114.137 15.6407 114.197 15.6887C114.256 15.7366 114.266 15.8241 114.218 15.884L113.663 16.5784C113.636 16.6114 113.596 16.6305 113.554 16.6305C113.512 16.6305 113.472 16.6114 113.446 16.5784L112.89 15.884C112.842 15.8241 112.852 15.7366 112.912 15.6887C112.972 15.6407 113.059 15.6505 113.107 15.7104L113.476 16.1716C113.516 16.2216 113.592 16.2216 113.632 16.1716L114.001 15.7104Z" fill="#3A3A3A"/>
<path d="M115.334 8.75718V7.77179C115.335 7.74758 115.33 7.72362 115.32 7.70151C115.31 7.6794 115.296 7.65963 115.278 7.64353L115.11 7.48712C115.101 7.47897 115.094 7.46906 115.089 7.45802C115.084 7.44698 115.082 7.43505 115.082 7.42299V6.40631C115.082 6.36061 115.1 6.31677 115.132 6.28438C115.163 6.25199 115.206 6.23369 115.251 6.23348H116.337C116.404 6.23369 116.469 6.26105 116.516 6.30957C116.564 6.3581 116.591 6.42382 116.591 6.49234V7.43081C116.59 7.45284 116.582 7.47401 116.567 7.49025L116.405 7.66621C116.375 7.69806 116.359 7.74036 116.359 7.7843V8.75718" stroke="#3A3A3A" stroke-width="0.3" stroke-linecap="round"/>
<path d="M115.836 5.86044C116.088 5.86044 116.291 5.6535 116.291 5.39824C116.291 5.14298 116.088 4.93604 115.836 4.93604C115.585 4.93604 115.381 5.14298 115.381 5.39824C115.381 5.6535 115.585 5.86044 115.836 5.86044Z" stroke="#3A3A3A" stroke-width="0.3" stroke-linecap="round"/>
<path d="M117.149 4.33537C117.235 4.33537 117.304 4.40121 117.304 4.48242V9.18831C117.304 9.26953 117.235 9.33537 117.149 9.33537H112.459C112.374 9.33537 112.304 9.26953 112.304 9.18831V4.48242C112.304 4.40121 112.374 4.33537 112.459 4.33537H117.149ZM112.614 8.94125C112.614 8.99648 112.659 9.04125 112.714 9.04125H116.899C116.955 9.04125 116.999 8.99648 116.999 8.94125V4.72948C116.999 4.67426 116.955 4.62948 116.899 4.62948H112.714C112.659 4.62948 112.614 4.67425 112.614 4.72948V8.94125Z" fill="#3A3A3A"/>
<path d="M113.107 6.41174C113.059 6.47163 112.972 6.48135 112.912 6.43344C112.852 6.38552 112.842 6.29802 112.89 6.23812L113.446 5.54368C113.472 5.51073 113.512 5.4916 113.554 5.4916C113.596 5.4916 113.636 5.51073 113.663 5.54368L114.218 6.23812C114.266 6.29802 114.256 6.38552 114.197 6.43344C114.137 6.48135 114.049 6.47163 114.001 6.41174L113.632 5.95053C113.592 5.90049 113.516 5.90049 113.476 5.95053L113.107 6.41174Z" fill="#3A3A3A"/>
<path d="M114.001 7.21035C114.049 7.15046 114.137 7.14073 114.197 7.18865C114.256 7.23657 114.266 7.32407 114.218 7.38396L113.663 8.07841C113.636 8.11136 113.596 8.13049 113.554 8.13049C113.512 8.13049 113.472 8.11136 113.446 8.07841L112.89 7.38396C112.842 7.32407 112.852 7.23657 112.912 7.18865C112.972 7.14073 113.059 7.15046 113.107 7.21035L113.476 7.67156C113.516 7.7216 113.592 7.7216 113.632 7.67156L114.001 7.21035Z" fill="#3A3A3A"/>
<path d="M68.3344 16.7572V15.7718C68.3346 15.7476 68.3296 15.7236 68.3199 15.7015C68.3102 15.6794 68.296 15.6596 68.2782 15.6435L68.1097 15.4871C68.1009 15.479 68.0939 15.4691 68.0892 15.458C68.0844 15.447 68.082 15.435 68.082 15.423V14.4063C68.082 14.3606 68.0998 14.3168 68.1315 14.2844C68.1633 14.252 68.2063 14.2337 68.2513 14.2335H69.3366C69.404 14.2337 69.4686 14.2611 69.5162 14.3096C69.5638 14.3581 69.5906 14.4238 69.5906 14.4923V15.4308C69.5903 15.4528 69.5821 15.474 69.5675 15.4902L69.4051 15.6662C69.3753 15.6981 69.3587 15.7404 69.3589 15.7843V16.7572" stroke="#3A3A3A" stroke-width="0.3" stroke-linecap="round"/>
<path d="M68.8363 13.8604C69.0875 13.8604 69.2912 13.6535 69.2912 13.3982C69.2912 13.143 69.0875 12.936 68.8363 12.936C68.5851 12.936 68.3814 13.143 68.3814 13.3982C68.3814 13.6535 68.5851 13.8604 68.8363 13.8604Z" stroke="#3A3A3A" stroke-width="0.3" stroke-linecap="round"/>
<path d="M70.1492 12.3354C70.2348 12.3354 70.3042 12.4012 70.3042 12.4824V17.1883C70.3042 17.2695 70.2348 17.3354 70.1492 17.3354H65.4592C65.3736 17.3354 65.3042 17.2695 65.3042 17.1883V12.4824C65.3042 12.4012 65.3736 12.3354 65.4592 12.3354H70.1492ZM65.6142 16.9412C65.6142 16.9965 65.659 17.0412 65.7142 17.0412H69.8994C69.9547 17.0412 69.9994 16.9965 69.9994 16.9412V12.7295C69.9994 12.6743 69.9547 12.6295 69.8994 12.6295H65.7142C65.659 12.6295 65.6142 12.6743 65.6142 12.7295V16.9412Z" fill="#3A3A3A"/>
<path d="M66.1072 14.4117C66.0593 14.4716 65.9718 14.4814 65.9119 14.4334C65.852 14.3855 65.8422 14.298 65.8902 14.2381L66.4457 13.5437C66.4721 13.5107 66.512 13.4916 66.5542 13.4916C66.5964 13.4916 66.6364 13.5107 66.6627 13.5437L67.2183 14.2381C67.2662 14.298 67.2565 14.3855 67.1966 14.4334C67.1367 14.4814 67.0492 14.4716 67.0013 14.4117L66.6323 13.9505C66.5923 13.9005 66.5162 13.9005 66.4761 13.9505L66.1072 14.4117Z" fill="#3A3A3A"/>
<path d="M67.0012 15.2104C67.0491 15.1505 67.1366 15.1407 67.1965 15.1887C67.2564 15.2366 67.2662 15.3241 67.2182 15.384L66.6627 16.0784C66.6363 16.1114 66.5964 16.1305 66.5542 16.1305C66.512 16.1305 66.472 16.1114 66.4457 16.0784L65.8901 15.384C65.8422 15.3241 65.8519 15.2366 65.9118 15.1887C65.9717 15.1407 66.0592 15.1505 66.1071 15.2104L66.4761 15.6716C66.5161 15.7216 66.5922 15.7216 66.6323 15.6716L67.0012 15.2104Z" fill="#3A3A3A"/>
<path d="M132.986 6.83537C132.886 6.83537 132.804 6.75396 132.804 6.65355V3.74454C132.804 3.69632 132.823 3.65009 132.857 3.616C132.892 3.58194 132.938 3.56273 132.986 3.56273L137.54 3.56273C137.64 3.56276 137.722 3.64415 137.722 3.74454V6.65355C137.722 6.70177 137.703 6.748 137.668 6.7821C137.634 6.8162 137.588 6.83537 137.54 6.83537L132.986 6.83537ZM137.358 4.02636C137.358 3.97113 137.313 3.92636 137.258 3.92636L133.268 3.92636C133.213 3.92636 133.168 3.97113 133.168 4.02636V6.37174C133.168 6.42697 133.213 6.47174 133.268 6.47174L137.258 6.47174C137.313 6.47174 137.358 6.42697 137.358 6.37174V4.02636Z" fill="#3A3A3A"/>
<path d="M136.412 5.74049C136.33 5.72352 136.267 5.65015 136.267 5.5623L136.267 4.8356C136.267 4.78738 136.286 4.74075 136.32 4.70665C136.354 4.67257 136.401 4.65361 136.449 4.65361L137.54 4.65361L137.54 4.83528L137.54 5.01728L136.731 5.01756C136.676 5.01758 136.631 5.06235 136.631 5.11756V5.28123C136.631 5.33647 136.676 5.38125 136.731 5.38123L137.54 5.38095L137.54 5.7443L136.449 5.74461L136.412 5.74049Z" fill="#3A3A3A"/>
<path d="M137.507 3.92351L133.84 3.25675C133.778 3.24559 133.722 3.29275 133.722 3.35514V3.74453H133.358V3.01728C133.358 2.96337 133.382 2.91192 133.423 2.87737C133.465 2.84293 133.52 2.82868 133.573 2.83831L137.572 3.56556C137.671 3.58358 137.737 3.67845 137.719 3.7772C137.701 3.87593 137.606 3.94146 137.507 3.92351Z" fill="#3A3A3A"/>
<path d="M32.0742 17.2154H31.6692V15.6854L31.0292 15.9854C30.9859 15.9687 30.9492 15.9437 30.9192 15.9104C30.8925 15.877 30.8792 15.8354 30.8792 15.7854C30.8792 15.6887 30.9392 15.6154 31.0592 15.5654L31.7592 15.2604H31.8542C31.9209 15.2604 31.9742 15.2804 32.0142 15.3204C32.0542 15.3604 32.0742 15.4137 32.0742 15.4804V17.2154ZM31.6692 17.0154H32.0742V18.3404C32.0542 18.347 32.0275 18.3537 31.9942 18.3604C31.9609 18.3704 31.9242 18.3754 31.8842 18.3754C31.8142 18.3754 31.7609 18.3604 31.7242 18.3304C31.6875 18.3004 31.6692 18.2537 31.6692 18.1904V17.0154ZM34.0463 18.4004C33.813 18.4004 33.6063 18.3437 33.4263 18.2304C33.2496 18.1137 33.1113 17.9387 33.0113 17.7054C32.9113 17.4687 32.8613 17.172 32.8613 16.8154C32.8613 16.432 32.918 16.1254 33.0313 15.8954C33.1446 15.6654 33.2913 15.4987 33.4713 15.3954C33.6513 15.2887 33.843 15.2354 34.0463 15.2354C34.253 15.2354 34.4463 15.2887 34.6263 15.3954C34.8096 15.502 34.9563 15.672 35.0663 15.9054C35.1796 16.1354 35.2363 16.4387 35.2363 16.8154C35.2363 17.1687 35.1863 17.4637 35.0863 17.7004C34.9863 17.9337 34.8463 18.1087 34.6663 18.2254C34.4896 18.342 34.283 18.4004 34.0463 18.4004ZM34.0463 18.0604C34.293 18.0604 34.4846 17.9537 34.6213 17.7404C34.758 17.5237 34.8263 17.2154 34.8263 16.8154C34.8263 16.5187 34.7896 16.2804 34.7163 16.1004C34.6463 15.917 34.553 15.7837 34.4363 15.7004C34.3196 15.617 34.1896 15.5754 34.0463 15.5754C33.9063 15.5754 33.7763 15.6187 33.6563 15.7054C33.5396 15.7887 33.4463 15.922 33.3763 16.1054C33.3063 16.2887 33.2713 16.5254 33.2713 16.8154C33.2713 17.2154 33.3396 17.5237 33.4763 17.7404C33.613 17.9537 33.803 18.0604 34.0463 18.0604ZM36.5523 15.2304C36.869 15.2304 37.124 15.3004 37.3173 15.4404C37.514 15.577 37.6123 15.7837 37.6123 16.0604C37.6123 16.1937 37.584 16.3087 37.5273 16.4054C37.474 16.4987 37.409 16.572 37.3323 16.6254C37.259 16.6787 37.1923 16.7137 37.1323 16.7304C37.2223 16.757 37.3106 16.8037 37.3973 16.8704C37.484 16.9337 37.5556 17.017 37.6123 17.1204C37.6723 17.2204 37.7023 17.342 37.7023 17.4854C37.7023 17.6854 37.654 17.852 37.5573 17.9854C37.4606 18.1187 37.3273 18.2204 37.1573 18.2904C36.9873 18.357 36.7906 18.3904 36.5673 18.3904C36.384 18.3904 36.2206 18.372 36.0773 18.3354C35.9373 18.2954 35.8273 18.2454 35.7473 18.1854C35.6673 18.1254 35.6273 18.062 35.6273 17.9954C35.6273 17.9487 35.639 17.9087 35.6623 17.8754C35.689 17.842 35.7223 17.8137 35.7623 17.7904C35.849 17.857 35.954 17.917 36.0773 17.9704C36.204 18.0237 36.3673 18.0504 36.5673 18.0504C36.7873 18.0504 36.9656 18.0037 37.1023 17.9104C37.239 17.8137 37.3073 17.6687 37.3073 17.4754C37.3073 17.3054 37.244 17.1687 37.1173 17.0654C36.9906 16.962 36.8073 16.9104 36.5673 16.9104H36.1523C36.139 16.8937 36.1273 16.8704 36.1173 16.8404C36.1073 16.807 36.1023 16.7737 36.1023 16.7404C36.1023 16.7037 36.1073 16.6704 36.1173 16.6404C36.1273 16.6104 36.139 16.587 36.1523 16.5704H36.5323C36.779 16.5704 36.954 16.5254 37.0573 16.4354C37.164 16.342 37.2173 16.2204 37.2173 16.0704C37.2173 15.907 37.1573 15.7837 37.0373 15.7004C36.9173 15.6137 36.754 15.5704 36.5473 15.5704C36.3873 15.5704 36.2456 15.5954 36.1223 15.6454C36.0023 15.692 35.9023 15.7437 35.8223 15.8004C35.789 15.7837 35.759 15.757 35.7323 15.7204C35.7056 15.6837 35.6923 15.6437 35.6923 15.6004C35.6923 15.5404 35.7306 15.482 35.8073 15.4254C35.884 15.3687 35.9873 15.322 36.1173 15.2854C36.2473 15.2487 36.3923 15.2304 36.5523 15.2304Z" fill="#A73C4C"/>
<path d="M42.0742 17.2154H41.6692V15.6854L41.0292 15.9854C40.9859 15.9687 40.9492 15.9437 40.9192 15.9104C40.8925 15.877 40.8792 15.8354 40.8792 15.7854C40.8792 15.6887 40.9392 15.6154 41.0592 15.5654L41.7592 15.2604H41.8542C41.9209 15.2604 41.9742 15.2804 42.0142 15.3204C42.0542 15.3604 42.0742 15.4137 42.0742 15.4804V17.2154ZM41.6692 17.0154H42.0742V18.3404C42.0542 18.347 42.0275 18.3537 41.9942 18.3604C41.9609 18.3704 41.9242 18.3754 41.8842 18.3754C41.8142 18.3754 41.7609 18.3604 41.7242 18.3304C41.6875 18.3004 41.6692 18.2537 41.6692 18.1904V17.0154ZM44.0463 18.4004C43.813 18.4004 43.6063 18.3437 43.4263 18.2304C43.2496 18.1137 43.1113 17.9387 43.0113 17.7054C42.9113 17.4687 42.8613 17.172 42.8613 16.8154C42.8613 16.432 42.918 16.1254 43.0313 15.8954C43.1446 15.6654 43.2913 15.4987 43.4713 15.3954C43.6513 15.2887 43.843 15.2354 44.0463 15.2354C44.253 15.2354 44.4463 15.2887 44.6263 15.3954C44.8096 15.502 44.9563 15.672 45.0663 15.9054C45.1796 16.1354 45.2363 16.4387 45.2363 16.8154C45.2363 17.1687 45.1863 17.4637 45.0863 17.7004C44.9863 17.9337 44.8463 18.1087 44.6663 18.2254C44.4896 18.342 44.283 18.4004 44.0463 18.4004ZM44.0463 18.0604C44.293 18.0604 44.4846 17.9537 44.6213 17.7404C44.758 17.5237 44.8263 17.2154 44.8263 16.8154C44.8263 16.5187 44.7896 16.2804 44.7163 16.1004C44.6463 15.917 44.553 15.7837 44.4363 15.7004C44.3196 15.617 44.1896 15.5754 44.0463 15.5754C43.9063 15.5754 43.7763 15.6187 43.6563 15.7054C43.5396 15.7887 43.4463 15.922 43.3763 16.1054C43.3063 16.2887 43.2713 16.5254 43.2713 16.8154C43.2713 17.2154 43.3396 17.5237 43.4763 17.7404C43.613 17.9537 43.803 18.0604 44.0463 18.0604ZM46.5263 15.2954L46.3913 15.5904L46.3063 16.5354C46.363 16.5054 46.4413 16.477 46.5413 16.4504C46.6447 16.4204 46.753 16.4054 46.8663 16.4054C47.0663 16.4054 47.2463 16.4437 47.4063 16.5204C47.5663 16.5937 47.693 16.7037 47.7863 16.8504C47.883 16.9937 47.9313 17.172 47.9313 17.3854C47.9313 17.5787 47.8863 17.752 47.7963 17.9054C47.7097 18.0587 47.5813 18.1804 47.4113 18.2704C47.2447 18.357 47.0397 18.4004 46.7963 18.4004C46.6063 18.4004 46.4397 18.3787 46.2963 18.3354C46.153 18.292 46.0413 18.2387 45.9613 18.1754C45.8813 18.112 45.8413 18.0504 45.8413 17.9904C45.8413 17.937 45.858 17.8904 45.8913 17.8504C45.928 17.8104 45.9647 17.7837 46.0013 17.7704C46.0747 17.8337 46.178 17.8987 46.3113 17.9654C46.4447 18.032 46.6063 18.0654 46.7963 18.0654C47.0263 18.0654 47.2047 18.002 47.3313 17.8754C47.458 17.7454 47.5213 17.582 47.5213 17.3854C47.5213 17.182 47.4563 17.0237 47.3263 16.9104C47.1963 16.797 47.0263 16.7404 46.8163 16.7404C46.6997 16.7404 46.593 16.7587 46.4963 16.7954C46.3997 16.832 46.3097 16.8737 46.2263 16.9204C46.1363 16.9137 46.063 16.887 46.0063 16.8404C45.953 16.7904 45.9263 16.727 45.9263 16.6504C45.9263 16.6304 45.9263 16.6054 45.9263 16.5754C45.9297 16.542 45.933 16.5104 45.9363 16.4804L46.0213 15.5254C46.028 15.4554 46.0497 15.4004 46.0863 15.3604C46.123 15.317 46.1763 15.2954 46.2463 15.2954H46.5263ZM46.3163 15.6354V15.2954H47.7763C47.7863 15.3087 47.7963 15.3304 47.8063 15.3604C47.8163 15.3904 47.8213 15.422 47.8213 15.4554C47.8213 15.5087 47.808 15.552 47.7813 15.5854C47.7547 15.6187 47.7163 15.6354 47.6663 15.6354H46.3163Z" fill="#A73C4C"/>
<path d="M28.0742 43.2154H27.6692V41.6854L27.0292 41.9854C26.9859 41.9687 26.9492 41.9437 26.9192 41.9104C26.8925 41.877 26.8792 41.8354 26.8792 41.7854C26.8792 41.6887 26.9392 41.6154 27.0592 41.5654L27.7592 41.2604H27.8542C27.9209 41.2604 27.9742 41.2804 28.0142 41.3204C28.0542 41.3604 28.0742 41.4137 28.0742 41.4804V43.2154ZM27.6692 43.0154H28.0742V44.3404C28.0542 44.347 28.0275 44.3537 27.9942 44.3604C27.9609 44.3704 27.9242 44.3754 27.8842 44.3754C27.8142 44.3754 27.7609 44.3604 27.7242 44.3304C27.6875 44.3004 27.6692 44.2537 27.6692 44.1904V43.0154ZM30.0463 44.4004C29.813 44.4004 29.6063 44.3437 29.4263 44.2304C29.2496 44.1137 29.1113 43.9387 29.0113 43.7054C28.9113 43.4687 28.8613 43.172 28.8613 42.8154C28.8613 42.432 28.918 42.1254 29.0313 41.8954C29.1446 41.6654 29.2913 41.4987 29.4713 41.3954C29.6513 41.2887 29.843 41.2354 30.0463 41.2354C30.253 41.2354 30.4463 41.2887 30.6263 41.3954C30.8096 41.502 30.9563 41.672 31.0663 41.9054C31.1796 42.1354 31.2363 42.4387 31.2363 42.8154C31.2363 43.1687 31.1863 43.4637 31.0863 43.7004C30.9863 43.9337 30.8463 44.1087 30.6663 44.2254C30.4896 44.342 30.283 44.4004 30.0463 44.4004ZM30.0463 44.0604C30.293 44.0604 30.4846 43.9537 30.6213 43.7404C30.758 43.5237 30.8263 43.2154 30.8263 42.8154C30.8263 42.5187 30.7896 42.2804 30.7163 42.1004C30.6463 41.917 30.553 41.7837 30.4363 41.7004C30.3196 41.617 30.1896 41.5754 30.0463 41.5754C29.9063 41.5754 29.7763 41.6187 29.6563 41.7054C29.5396 41.7887 29.4463 41.922 29.3763 42.1054C29.3063 42.2887 29.2713 42.5254 29.2713 42.8154C29.2713 43.2154 29.3396 43.5237 29.4763 43.7404C29.613 43.9537 29.803 44.0604 30.0463 44.0604ZM31.6908 43.2204L33.1458 41.2904C33.1758 41.2837 33.2091 41.2787 33.2458 41.2754C33.2858 41.2687 33.3208 41.2654 33.3508 41.2654C33.3974 41.2654 33.4408 41.272 33.4808 41.2854C33.5241 41.2987 33.5591 41.3237 33.5858 41.3604C33.6124 41.3937 33.6258 41.4437 33.6258 41.5104V43.2604H34.1258C34.1358 43.277 34.1458 43.3004 34.1558 43.3304C34.1658 43.357 34.1708 43.3887 34.1708 43.4254C34.1708 43.4787 34.1574 43.5204 34.1308 43.5504C34.1041 43.5804 34.0658 43.5954 34.0158 43.5954H33.6258V44.3454C33.6091 44.3487 33.5841 44.3537 33.5508 44.3604C33.5208 44.3704 33.4874 44.3754 33.4508 44.3754C33.3808 44.3754 33.3274 44.3604 33.2908 44.3304C33.2541 44.3004 33.2358 44.257 33.2358 44.2004V43.5954H31.7908C31.7574 43.5787 31.7274 43.5487 31.7008 43.5054C31.6774 43.462 31.6658 43.4137 31.6658 43.3604C31.6658 43.3304 31.6674 43.3054 31.6708 43.2854C31.6774 43.262 31.6841 43.2404 31.6908 43.2204ZM33.2408 43.2604L33.2508 41.6854H33.2408L32.1308 43.2604H33.2408Z" fill="#A73C4C"/>
<path d="M42.0742 43.2154H41.6692V41.6854L41.0292 41.9854C40.9859 41.9687 40.9492 41.9437 40.9192 41.9104C40.8925 41.877 40.8792 41.8354 40.8792 41.7854C40.8792 41.6887 40.9392 41.6154 41.0592 41.5654L41.7592 41.2604H41.8542C41.9209 41.2604 41.9742 41.2804 42.0142 41.3204C42.0542 41.3604 42.0742 41.4137 42.0742 41.4804V43.2154ZM41.6692 43.0154H42.0742V44.3404C42.0542 44.347 42.0275 44.3537 41.9942 44.3604C41.9609 44.3704 41.9242 44.3754 41.8842 44.3754C41.8142 44.3754 41.7609 44.3604 41.7242 44.3304C41.6875 44.3004 41.6692 44.2537 41.6692 44.1904V43.0154ZM44.0463 44.4004C43.813 44.4004 43.6063 44.3437 43.4263 44.2304C43.2496 44.1137 43.1113 43.9387 43.0113 43.7054C42.9113 43.4687 42.8613 43.172 42.8613 42.8154C42.8613 42.432 42.918 42.1254 43.0313 41.8954C43.1446 41.6654 43.2913 41.4987 43.4713 41.3954C43.6513 41.2887 43.843 41.2354 44.0463 41.2354C44.253 41.2354 44.4463 41.2887 44.6263 41.3954C44.8096 41.502 44.9563 41.672 45.0663 41.9054C45.1796 42.1354 45.2363 42.4387 45.2363 42.8154C45.2363 43.1687 45.1863 43.4637 45.0863 43.7004C44.9863 43.9337 44.8463 44.1087 44.6663 44.2254C44.4896 44.342 44.283 44.4004 44.0463 44.4004ZM44.0463 44.0604C44.293 44.0604 44.4846 43.9537 44.6213 43.7404C44.758 43.5237 44.8263 43.2154 44.8263 42.8154C44.8263 42.5187 44.7896 42.2804 44.7163 42.1004C44.6463 41.917 44.553 41.7837 44.4363 41.7004C44.3196 41.617 44.1896 41.5754 44.0463 41.5754C43.9063 41.5754 43.7763 41.6187 43.6563 41.7054C43.5396 41.7887 43.4463 41.922 43.3763 42.1054C43.3063 42.2887 43.2713 42.5254 43.2713 42.8154C43.2713 43.2154 43.3396 43.5237 43.4763 43.7404C43.613 43.9537 43.803 44.0604 44.0463 44.0604ZM47.7813 41.5304C47.7813 41.5704 47.7697 41.6087 47.7463 41.6454C47.7263 41.6787 47.6997 41.7037 47.6663 41.7204C47.593 41.6837 47.5097 41.652 47.4163 41.6254C47.3263 41.5954 47.228 41.5804 47.1213 41.5804C46.8613 41.5804 46.6413 41.6737 46.4613 41.8604C46.2847 42.047 46.1913 42.3387 46.1813 42.7354C46.248 42.6687 46.3497 42.5987 46.4863 42.5254C46.6263 42.4487 46.798 42.4104 47.0013 42.4104C47.2947 42.4104 47.5363 42.4937 47.7263 42.6604C47.9163 42.827 48.0113 43.0737 48.0113 43.4004C48.0113 43.607 47.9663 43.7854 47.8763 43.9354C47.7897 44.0854 47.6663 44.2004 47.5063 44.2804C47.3497 44.3604 47.163 44.4004 46.9463 44.4004C46.723 44.4004 46.523 44.3504 46.3463 44.2504C46.1697 44.147 46.0297 43.987 45.9263 43.7704C45.8263 43.5504 45.7763 43.2637 45.7763 42.9104C45.7763 42.597 45.813 42.3337 45.8863 42.1204C45.963 41.9037 46.0647 41.732 46.1913 41.6054C46.318 41.4754 46.4613 41.382 46.6213 41.3254C46.7813 41.2654 46.9447 41.2354 47.1113 41.2354C47.228 41.2354 47.3363 41.247 47.4363 41.2704C47.5397 41.2937 47.623 41.327 47.6863 41.3704C47.7497 41.4137 47.7813 41.467 47.7813 41.5304ZM46.9463 44.0654C47.1397 44.0654 47.298 44.007 47.4213 43.8904C47.5447 43.7704 47.6063 43.6037 47.6063 43.3904C47.6063 43.1737 47.543 43.0137 47.4163 42.9104C47.293 42.8037 47.1397 42.7504 46.9563 42.7504C46.773 42.7504 46.6147 42.7904 46.4813 42.8704C46.348 42.947 46.243 43.0404 46.1663 43.1504L46.1813 43.1154C46.1813 43.3987 46.248 43.6287 46.3813 43.8054C46.5147 43.9787 46.703 44.0654 46.9463 44.0654Z" fill="#A73C4C"/>
<path d="M50.9641 43.1966L50.6133 42.9941L51.3783 41.6691L50.6741 41.6089C50.6449 41.5728 50.6256 41.5328 50.6163 41.4889C50.6099 41.4467 50.6192 41.404 50.6442 41.3607C50.6925 41.2769 50.7811 41.2434 50.91 41.2601L51.6688 41.346L51.751 41.3935C51.8088 41.4268 51.8449 41.4708 51.8596 41.5255C51.8742 41.5801 51.8649 41.6363 51.8316 41.694L50.9641 43.1966ZM50.7133 42.8209L51.0641 43.0234L50.4016 44.1708C50.3809 44.1666 50.3545 44.1591 50.3223 44.1482C50.2884 44.1402 50.2541 44.1262 50.2195 44.1062C50.1589 44.0712 50.1202 44.0315 50.1034 43.9872C50.0867 43.9429 50.0941 43.8933 50.1258 43.8384L50.7133 42.8209ZM52.0794 45.2089C51.8774 45.0922 51.7267 44.9398 51.6275 44.7516C51.5328 44.5623 51.5005 44.3415 51.5306 44.0895C51.5623 43.8345 51.6674 43.5526 51.8457 43.2437C52.0374 42.9117 52.2398 42.6745 52.4529 42.532C52.6661 42.3895 52.8764 42.3184 53.084 42.319C53.2932 42.3166 53.4859 42.3662 53.6619 42.4679C53.8409 42.5712 53.9817 42.7141 54.0842 42.8965C54.1897 43.0805 54.2317 43.3011 54.2103 43.5581C54.1934 43.814 54.0909 44.105 53.9025 44.4312C53.7259 44.7372 53.5351 44.9677 53.3301 45.1226C53.1268 45.2747 52.9181 45.3563 52.7039 45.3673C52.4926 45.38 52.2844 45.3272 52.0794 45.2089ZM52.2494 44.9144C52.4631 45.0377 52.6824 45.0412 52.9074 44.9248C53.1341 44.8055 53.3474 44.5726 53.5474 44.2262C53.6958 43.9693 53.7832 43.7446 53.8097 43.552C53.8407 43.3582 53.8266 43.1961 53.7672 43.0656C53.7078 42.9351 53.6161 42.834 53.4919 42.7623C53.3707 42.6923 53.2365 42.6649 53.0892 42.6799C52.9465 42.6938 52.799 42.7626 52.6467 42.8863C52.4944 43.0101 52.3458 43.1976 52.2008 43.4487C52.0008 43.7951 51.9058 44.0963 51.9158 44.3523C51.9275 44.6054 52.0387 44.7927 52.2494 44.9144ZM54.578 46.6514C54.3817 46.5381 54.2266 46.41 54.1127 46.2673C54.0005 46.1217 53.9364 45.9692 53.9206 45.81C53.9048 45.6507 53.9427 45.4917 54.0344 45.3329C54.116 45.1915 54.2169 45.09 54.3371 45.0285C54.4618 44.9658 54.5922 44.9333 54.7283 44.9311C54.8643 44.9288 54.993 44.9492 55.1144 44.9923L55.3992 45.099C55.6304 45.1786 55.8204 45.2094 55.9693 45.1915C56.1199 45.1706 56.2335 45.0938 56.3102 44.961C56.3885 44.8254 56.3989 44.6908 56.3412 44.5574C56.2851 44.4212 56.1691 44.3022 55.993 44.2005C55.8226 44.1022 55.663 44.062 55.5141 44.0799C55.3652 44.0979 55.2532 44.1718 55.1782 44.3017C55.1149 44.4114 55.0929 44.5161 55.1123 44.6159C55.1346 44.7172 55.1848 44.8136 55.263 44.9049C55.3457 44.995 55.4429 45.08 55.5546 45.1599L55.7076 45.3348C55.8126 45.4262 55.901 45.5331 55.9728 45.6554C56.0463 45.7748 56.0879 45.9027 56.0977 46.0392C56.1074 46.1757 56.0697 46.3175 55.9847 46.4648C55.8947 46.6207 55.7754 46.7307 55.6267 46.795C55.4808 46.8609 55.3168 46.8817 55.1346 46.8573C54.9569 46.8317 54.7714 46.7631 54.578 46.6514ZM54.7455 46.3613C54.9331 46.4696 55.108 46.5167 55.2701 46.5025C55.4323 46.4884 55.5575 46.4048 55.6458 46.2518C55.7425 46.0844 55.7484 45.9107 55.6637 45.7309C55.5818 45.5528 55.4281 45.389 55.2026 45.2395L55.0192 45.0471C54.8785 44.9042 54.7876 44.7517 54.7465 44.5894C54.7084 44.4288 54.7376 44.2648 54.8343 44.0974C54.9193 43.9502 55.0302 43.8448 55.1669 43.7813C55.3065 43.7195 55.4608 43.6989 55.6298 43.7195C55.8017 43.7418 55.9786 43.8054 56.1605 43.9104C56.4434 44.0737 56.6281 44.267 56.7148 44.4903C56.806 44.7123 56.7866 44.9359 56.6566 45.161C56.5516 45.3429 56.4071 45.45 56.2229 45.4822C56.0417 45.5162 55.8538 45.4982 55.6594 45.4282L55.33 45.3189C55.1286 45.2411 54.9418 45.2179 54.7696 45.2494C54.6021 45.2797 54.4733 45.3727 54.3833 45.5286C54.2983 45.6758 54.2879 45.8238 54.3521 45.9725C54.4181 46.1184 54.5492 46.2479 54.7455 46.3613Z" fill="#A73C4C"/>
<path d="M72.9641 43.1966L72.6133 42.9941L73.3783 41.6691L72.6741 41.6089C72.6449 41.5728 72.6256 41.5328 72.6163 41.4889C72.6099 41.4467 72.6192 41.404 72.6442 41.3607C72.6925 41.2769 72.7811 41.2434 72.91 41.2601L73.6688 41.346L73.751 41.3935C73.8088 41.4268 73.8449 41.4708 73.8596 41.5255C73.8742 41.5801 73.8649 41.6363 73.8316 41.694L72.9641 43.1966ZM72.7133 42.8209L73.0641 43.0234L72.4016 44.1708C72.3809 44.1666 72.3545 44.1591 72.3223 44.1482C72.2884 44.1402 72.2541 44.1262 72.2195 44.1062C72.1589 44.0712 72.1202 44.0315 72.1034 43.9872C72.0867 43.9429 72.0941 43.8933 72.1258 43.8384L72.7133 42.8209ZM74.5329 44.1023L74.1821 43.8998L74.9471 42.5748L74.2429 42.5146C74.2137 42.4785 74.1944 42.4385 74.1851 42.3947C74.1787 42.3525 74.188 42.3097 74.213 42.2664C74.2613 42.1827 74.3499 42.1492 74.4789 42.1659L75.2376 42.2518L75.3199 42.2993C75.3776 42.3326 75.4138 42.3766 75.4284 42.4312C75.4431 42.4859 75.4337 42.542 75.4004 42.5998L74.5329 44.1023ZM74.2821 43.7266L74.6329 43.9291L73.9704 45.0766C73.9497 45.0724 73.9233 45.0648 73.8911 45.0539C73.8572 45.0459 73.823 45.0319 73.7883 45.0119C73.7277 44.9769 73.689 44.9373 73.6723 44.8929C73.6555 44.8486 73.663 44.7991 73.6946 44.7442L74.2821 43.7266ZM75.1379 44.4574L77.363 43.5135C77.3923 43.5227 77.4237 43.5351 77.4571 43.5505C77.4951 43.5647 77.527 43.5793 77.553 43.5943C77.5934 43.6177 77.6276 43.6451 77.6556 43.6767C77.6865 43.7099 77.7043 43.749 77.709 43.7941C77.7155 43.8363 77.702 43.8863 77.6687 43.944L76.7937 45.4596L77.2267 45.7096C77.227 45.729 77.224 45.7542 77.2177 45.7852C77.213 45.8133 77.2015 45.8432 77.1832 45.875C77.1565 45.9211 77.1241 45.9506 77.086 45.9632C77.0479 45.9759 77.0072 45.9697 76.9639 45.9447L76.6262 45.7497L76.2512 46.3992C76.2351 46.3938 76.2109 46.3856 76.1787 46.3747C76.1477 46.3684 76.1164 46.356 76.0846 46.3377C76.024 46.3027 75.9853 46.263 75.9686 46.2187C75.9518 46.1744 75.9576 46.1277 75.9859 46.0786L76.2884 45.5547L75.037 44.8322C75.0165 44.8011 75.0055 44.7601 75.0041 44.7092C75.0055 44.66 75.0196 44.6124 75.0463 44.5662C75.0613 44.5402 75.0752 44.5194 75.0881 44.5037C75.1055 44.4868 75.1221 44.4714 75.1379 44.4574ZM76.4603 45.2671L77.2564 43.9081L77.2478 43.9031L75.499 44.7121L76.4603 45.2671Z" fill="#A73C4C"/>
<path d="M84.0742 35.2154H83.6692V33.6854L83.0292 33.9854C82.9859 33.9687 82.9492 33.9437 82.9192 33.9104C82.8925 33.877 82.8792 33.8354 82.8792 33.7854C82.8792 33.6887 82.9392 33.6154 83.0592 33.5654L83.7592 33.2604H83.8542C83.9209 33.2604 83.9742 33.2804 84.0142 33.3204C84.0542 33.3604 84.0742 33.4137 84.0742 33.4804V35.2154ZM83.6692 35.0154H84.0742V36.3404C84.0542 36.347 84.0275 36.3537 83.9942 36.3604C83.9609 36.3704 83.9242 36.3754 83.8842 36.3754C83.8142 36.3754 83.7609 36.3604 83.7242 36.3304C83.6875 36.3004 83.6692 36.2537 83.6692 36.1904V35.0154ZM85.8857 35.2154H85.4807V33.6854L84.8407 33.9854C84.7974 33.9687 84.7607 33.9437 84.7307 33.9104C84.7041 33.877 84.6907 33.8354 84.6907 33.7854C84.6907 33.6887 84.7507 33.6154 84.8707 33.5654L85.5707 33.2604H85.6657C85.7324 33.2604 85.7857 33.2804 85.8257 33.3204C85.8657 33.3604 85.8857 33.4137 85.8857 33.4804V35.2154ZM85.4807 35.0154H85.8857V36.3404C85.8657 36.347 85.8391 36.3537 85.8057 36.3604C85.7724 36.3704 85.7357 36.3754 85.6957 36.3754C85.6257 36.3754 85.5724 36.3604 85.5357 36.3304C85.4991 36.3004 85.4807 36.2537 85.4807 36.1904V35.0154ZM88.7071 33.5304C88.7071 33.5704 88.6955 33.6087 88.6721 33.6454C88.6521 33.6787 88.6255 33.7037 88.5921 33.7204C88.5188 33.6837 88.4355 33.652 88.3421 33.6254C88.2521 33.5954 88.1538 33.5804 88.0471 33.5804C87.7871 33.5804 87.5671 33.6737 87.3871 33.8604C87.2105 34.047 87.1171 34.3387 87.1071 34.7354C87.1738 34.6687 87.2755 34.5987 87.4121 34.5254C87.5521 34.4487 87.7238 34.4104 87.9271 34.4104C88.2205 34.4104 88.4621 34.4937 88.6521 34.6604C88.8421 34.827 88.9371 35.0737 88.9371 35.4004C88.9371 35.607 88.8921 35.7854 88.8021 35.9354C88.7155 36.0854 88.5921 36.2004 88.4321 36.2804C88.2755 36.3604 88.0888 36.4004 87.8721 36.4004C87.6488 36.4004 87.4488 36.3504 87.2721 36.2504C87.0955 36.147 86.9555 35.987 86.8521 35.7704C86.7521 35.5504 86.7021 35.2637 86.7021 34.9104C86.7021 34.597 86.7388 34.3337 86.8121 34.1204C86.8888 33.9037 86.9905 33.732 87.1171 33.6054C87.2438 33.4754 87.3871 33.382 87.5471 33.3254C87.7071 33.2654 87.8705 33.2354 88.0371 33.2354C88.1538 33.2354 88.2621 33.247 88.3621 33.2704C88.4655 33.2937 88.5488 33.327 88.6121 33.3704C88.6755 33.4137 88.7071 33.467 88.7071 33.5304ZM87.8721 36.0654C88.0655 36.0654 88.2238 36.007 88.3471 35.8904C88.4705 35.7704 88.5321 35.6037 88.5321 35.3904C88.5321 35.1737 88.4688 35.0137 88.3421 34.9104C88.2188 34.8037 88.0655 34.7504 87.8821 34.7504C87.6988 34.7504 87.5405 34.7904 87.4071 34.8704C87.2738 34.947 87.1688 35.0404 87.0921 35.1504L87.1071 35.1154C87.1071 35.3987 87.1738 35.6287 87.3071 35.8054C87.4405 35.9787 87.6288 36.0654 87.8721 36.0654Z" fill="#A73C4C"/>
<path d="M93.9641 34.1966L93.6133 33.9941L94.3783 32.6691L93.6741 32.6089C93.6449 32.5728 93.6256 32.5328 93.6163 32.4889C93.6099 32.4467 93.6192 32.404 93.6442 32.3607C93.6925 32.2769 93.7811 32.2434 93.91 32.2601L94.6688 32.346L94.751 32.3935C94.8088 32.4268 94.8449 32.4708 94.8596 32.5255C94.8742 32.5801 94.8649 32.6363 94.8316 32.694L93.9641 34.1966ZM93.7133 33.8209L94.0641 34.0234L93.4016 35.1708C93.3809 35.1666 93.3545 35.1591 93.3223 35.1482C93.2884 35.1402 93.2541 35.1262 93.2195 35.1062C93.1589 35.0712 93.1202 35.0315 93.1034 34.9872C93.0867 34.9429 93.0941 34.8933 93.1258 34.8384L93.7133 33.8209ZM95.5329 35.1023L95.1821 34.8998L95.9471 33.5748L95.2429 33.5146C95.2137 33.4785 95.1944 33.4385 95.1851 33.3947C95.1787 33.3525 95.188 33.3097 95.213 33.2664C95.2613 33.1827 95.3499 33.1492 95.4789 33.1659L96.2376 33.2518L96.3199 33.2993C96.3776 33.3326 96.4138 33.3766 96.4284 33.4312C96.4431 33.4859 96.4337 33.542 96.4004 33.5998L95.5329 35.1023ZM95.2821 34.7266L95.6329 34.9291L94.9704 36.0766C94.9497 36.0724 94.9233 36.0648 94.8911 36.0539C94.8572 36.0459 94.823 36.0319 94.7883 36.0119C94.7277 35.9769 94.689 35.9373 94.6723 35.8929C94.6555 35.8486 94.663 35.7991 94.6946 35.7442L95.2821 34.7266ZM96.6477 37.1143C96.4514 37.0009 96.2963 36.8729 96.1824 36.7302C96.0702 36.5846 96.0061 36.4321 95.9903 36.2729C95.9745 36.1136 96.0124 35.9546 96.1041 35.7958C96.1857 35.6544 96.2866 35.5529 96.4068 35.4914C96.5315 35.4287 96.6619 35.3962 96.798 35.3939C96.934 35.3917 97.0627 35.4121 97.1841 35.4552L97.4689 35.5619C97.7001 35.6415 97.8901 35.6723 98.039 35.6544C98.1896 35.6335 98.3032 35.5567 98.3799 35.4239C98.4582 35.2883 98.4686 35.1537 98.4109 35.0203C98.3548 34.8841 98.2388 34.7651 98.0627 34.6634C97.8923 34.5651 97.7327 34.5249 97.5838 34.5428C97.4349 34.5608 97.3229 34.6347 97.2479 34.7646C97.1846 34.8743 97.1626 34.979 97.182 35.0787C97.2043 35.1801 97.2545 35.2765 97.3327 35.3678C97.4154 35.4579 97.5126 35.5429 97.6243 35.6227L97.7773 35.7977C97.8823 35.8891 97.9707 35.996 98.0425 36.1183C98.116 36.2377 98.1576 36.3656 98.1674 36.5021C98.1771 36.6386 98.1394 36.7804 98.0544 36.9277C97.9644 37.0835 97.8451 37.1936 97.6964 37.2579C97.5505 37.3238 97.3865 37.3446 97.2043 37.3202C97.0266 37.2946 96.8411 37.2259 96.6477 37.1143ZM96.8152 36.8242C97.0028 36.9325 97.1777 36.9796 97.3398 36.9654C97.502 36.9513 97.6272 36.8677 97.7155 36.7147C97.8122 36.5472 97.8181 36.3736 97.7334 36.1938C97.6515 36.0157 97.4978 35.8519 97.2723 35.7024L97.0889 35.51C96.9482 35.3671 96.8573 35.2146 96.8162 35.0523C96.7781 34.8917 96.8073 34.7277 96.904 34.5603C96.989 34.4131 97.0999 34.3077 97.2366 34.2442C97.3762 34.1824 97.5305 34.1618 97.6995 34.1824C97.8714 34.2047 98.0483 34.2683 98.2302 34.3733C98.5131 34.5366 98.6978 34.7299 98.7845 34.9532C98.8757 35.1752 98.8563 35.3988 98.7263 35.6239C98.6213 35.8058 98.4768 35.9129 98.2926 35.9451C98.1114 35.979 97.9235 35.961 97.7291 35.8911L97.3997 35.7818C97.1983 35.704 97.0115 35.6808 96.8393 35.7123C96.6718 35.7425 96.543 35.8356 96.453 35.9915C96.368 36.1387 96.3576 36.2867 96.4218 36.4354C96.4878 36.5812 96.6189 36.7108 96.8152 36.8242Z" fill="#A73C4C"/>
<path d="M58.9641 43.1966L58.6133 42.9941L59.3783 41.6691L58.6741 41.6089C58.6449 41.5728 58.6256 41.5328 58.6163 41.4889C58.6099 41.4467 58.6192 41.404 58.6442 41.3607C58.6925 41.2769 58.7811 41.2434 58.91 41.2601L59.6688 41.346L59.751 41.3935C59.8088 41.4268 59.8449 41.4708 59.8596 41.5255C59.8742 41.5801 59.8649 41.6363 59.8316 41.694L58.9641 43.1966ZM58.7133 42.8209L59.0641 43.0234L58.4016 44.1708C58.3809 44.1666 58.3545 44.1591 58.3223 44.1482C58.2884 44.1402 58.2541 44.1262 58.2195 44.1062C58.1589 44.0712 58.1202 44.0315 58.1034 43.9872C58.0867 43.9429 58.0941 43.8933 58.1258 43.8384L58.7133 42.8209ZM60.5329 44.1023L60.1821 43.8998L60.9471 42.5748L60.2429 42.5146C60.2137 42.4785 60.1944 42.4385 60.1851 42.3947C60.1787 42.3525 60.188 42.3097 60.213 42.2664C60.2613 42.1827 60.3499 42.1492 60.4789 42.1659L61.2376 42.2518L61.3199 42.2993C61.3776 42.3326 61.4138 42.3766 61.4284 42.4312C61.4431 42.4859 61.4337 42.542 61.4004 42.5998L60.5329 44.1023ZM60.2821 43.7266L60.6329 43.9291L59.9704 45.0766C59.9497 45.0724 59.9233 45.0648 59.8911 45.0539C59.8572 45.0459 59.823 45.0319 59.7883 45.0119C59.7277 44.9769 59.689 44.9373 59.6723 44.8929C59.6555 44.8486 59.663 44.7991 59.6946 44.7442L60.2821 43.7266ZM61.6483 46.1146C61.4462 45.998 61.2956 45.8456 61.1963 45.6574C61.1017 45.468 61.0694 45.2473 61.0994 44.9952C61.1312 44.7403 61.2362 44.4584 61.4145 44.1495C61.6062 43.8175 61.8086 43.5803 62.0218 43.4377C62.2349 43.2952 62.4453 43.2242 62.6528 43.2247C62.862 43.2223 63.0547 43.272 63.2308 43.3737C63.4098 43.477 63.5505 43.6198 63.6531 43.8022C63.7585 43.9863 63.8005 44.2068 63.7791 44.4639C63.7623 44.7197 63.6597 45.0108 63.4713 45.337C63.2947 45.643 63.1039 45.8734 62.8989 46.0284C62.6957 46.1805 62.4869 46.262 62.2727 46.2731C62.0614 46.2858 61.8532 46.233 61.6483 46.1146ZM61.8183 45.8202C62.0319 45.9435 62.2512 45.947 62.4762 45.8305C62.7029 45.7112 62.9163 45.4784 63.1163 45.132C63.2646 44.8751 63.352 44.6503 63.3785 44.4578C63.4096 44.264 63.3954 44.1019 63.336 43.9714C63.2767 43.8409 63.1849 43.7398 63.0608 43.6681C62.9395 43.5981 62.8053 43.5706 62.658 43.5857C62.5153 43.5995 62.3678 43.6683 62.2155 43.7921C62.0632 43.9159 61.9146 44.1033 61.7696 44.3545C61.5696 44.7009 61.4746 45.0021 61.4846 45.258C61.4963 45.5111 61.6075 45.6985 61.8183 45.8202Z" fill="#A73C4C"/>
<path d="M65.9641 43.1966L65.6133 42.9941L66.3783 41.6691L65.6741 41.6089C65.6449 41.5728 65.6256 41.5328 65.6163 41.4889C65.6099 41.4467 65.6192 41.404 65.6442 41.3607C65.6925 41.2769 65.7811 41.2434 65.91 41.2601L66.6688 41.346L66.751 41.3935C66.8088 41.4268 66.8449 41.4708 66.8596 41.5255C66.8742 41.5801 66.8649 41.6363 66.8316 41.694L65.9641 43.1966ZM65.7133 42.8209L66.0641 43.0234L65.4016 44.1708C65.3809 44.1666 65.3545 44.1591 65.3223 44.1482C65.2884 44.1402 65.2541 44.1262 65.2195 44.1062C65.1589 44.0712 65.1202 44.0315 65.1034 43.9872C65.0867 43.9429 65.0941 43.8933 65.1258 43.8384L65.7133 42.8209ZM67.5329 44.1023L67.1821 43.8998L67.9471 42.5748L67.2429 42.5146C67.2137 42.4785 67.1944 42.4385 67.1851 42.3947C67.1787 42.3525 67.188 42.3097 67.213 42.2664C67.2613 42.1827 67.3499 42.1492 67.4789 42.1659L68.2376 42.2518L68.3199 42.2993C68.3776 42.3326 68.4138 42.3766 68.4284 42.4312C68.4431 42.4859 68.4337 42.542 68.4004 42.5998L67.5329 44.1023ZM67.2821 43.7266L67.6329 43.9291L66.9704 45.0766C66.9497 45.0724 66.9233 45.0648 66.8911 45.0539C66.8572 45.0459 66.823 45.0319 66.7883 45.0119C66.7277 44.9769 66.689 44.9373 66.6723 44.8929C66.6555 44.8486 66.663 44.7991 66.6946 44.7442L67.2821 43.7266ZM69.0723 43.1378C69.1023 43.0859 69.1647 43.0545 69.2594 43.0438C69.3558 43.0301 69.4695 43.04 69.6004 43.0732C69.7313 43.1064 69.8631 43.1614 69.9959 43.2381C70.1807 43.3447 70.3211 43.4682 70.4172 43.6083C70.515 43.7456 70.5675 43.8914 70.5747 44.0456C70.5819 44.1999 70.5413 44.3535 70.4529 44.5065C70.3613 44.6653 70.2265 44.7953 70.0487 44.8967C69.8738 44.9997 69.6228 45.0876 69.2959 45.1606L68.2126 45.407L69.4986 46.1495C69.5035 46.1677 69.5028 46.1923 69.4964 46.2233C69.4917 46.2513 69.4802 46.2813 69.4619 46.313C69.4352 46.3592 69.4014 46.3878 69.3604 46.3988C69.3223 46.4114 69.2831 46.4061 69.2427 46.3827L67.7141 45.5002C67.6969 45.4634 67.6895 45.4263 67.6917 45.3891C67.6956 45.349 67.7075 45.3117 67.7275 45.277C67.7542 45.2309 67.7862 45.1954 67.8235 45.1708C67.8625 45.1433 67.9085 45.1236 67.9615 45.1119L69.1734 44.8128C69.449 44.7487 69.6525 44.6795 69.7839 44.6052C69.917 44.5281 70.0194 44.4275 70.091 44.3033C70.1694 44.1677 70.1873 44.0299 70.145 43.8899C70.1026 43.75 69.9876 43.6259 69.8 43.5175C69.6729 43.4442 69.5464 43.4 69.4204 43.385C69.2972 43.3716 69.1883 43.3703 69.0936 43.381C69.0701 43.3483 69.0538 43.3099 69.0445 43.2661C69.038 43.2239 69.0473 43.1811 69.0723 43.1378Z" fill="#A73C4C"/>
<path d="M93.0742 11.2154H92.6692V9.68537L92.0292 9.98537C91.9859 9.9687 91.9492 9.9437 91.9192 9.91037C91.8925 9.87703 91.8792 9.83537 91.8792 9.78537C91.8792 9.6887 91.9392 9.61537 92.0592 9.56537L92.7592 9.26037H92.8542C92.9209 9.26037 92.9742 9.28037 93.0142 9.32037C93.0542 9.36037 93.0742 9.4137 93.0742 9.48037V11.2154ZM92.6692 11.0154H93.0742V12.3404C93.0542 12.347 93.0275 12.3537 92.9942 12.3604C92.9609 12.3704 92.9242 12.3754 92.8842 12.3754C92.8142 12.3754 92.7609 12.3604 92.7242 12.3304C92.6875 12.3004 92.6692 12.2537 92.6692 12.1904V11.0154ZM95.0463 12.4004C94.813 12.4004 94.6063 12.3437 94.4263 12.2304C94.2496 12.1137 94.1113 11.9387 94.0113 11.7054C93.9113 11.4687 93.8613 11.172 93.8613 10.8154C93.8613 10.432 93.918 10.1254 94.0313 9.89537C94.1446 9.66537 94.2913 9.4987 94.4713 9.39537C94.6513 9.2887 94.843 9.23537 95.0463 9.23537C95.253 9.23537 95.4463 9.2887 95.6263 9.39537C95.8096 9.50203 95.9563 9.67203 96.0663 9.90537C96.1796 10.1354 96.2363 10.4387 96.2363 10.8154C96.2363 11.1687 96.1863 11.4637 96.0863 11.7004C95.9863 11.9337 95.8463 12.1087 95.6663 12.2254C95.4896 12.342 95.283 12.4004 95.0463 12.4004ZM95.0463 12.0604C95.293 12.0604 95.4846 11.9537 95.6213 11.7404C95.758 11.5237 95.8263 11.2154 95.8263 10.8154C95.8263 10.5187 95.7896 10.2804 95.7163 10.1004C95.6463 9.91703 95.553 9.7837 95.4363 9.70037C95.3196 9.61703 95.1896 9.57537 95.0463 9.57537C94.9063 9.57537 94.7763 9.6187 94.6563 9.70537C94.5396 9.7887 94.4463 9.92203 94.3763 10.1054C94.3063 10.2887 94.2713 10.5254 94.2713 10.8154C94.2713 11.2154 94.3396 11.5237 94.4763 11.7404C94.613 11.9537 94.803 12.0604 95.0463 12.0604ZM96.8919 12.0904C96.8919 12.0504 96.9019 12.012 96.9219 11.9754C96.9453 11.9387 96.9736 11.912 97.0069 11.8954C97.0703 11.932 97.1519 11.9687 97.2519 12.0054C97.3553 12.0387 97.4769 12.0554 97.6169 12.0554C97.7903 12.0554 97.9486 12.0187 98.0919 11.9454C98.2353 11.872 98.3503 11.752 98.4369 11.5854C98.5236 11.4154 98.5669 11.192 98.5669 10.9154C98.5369 10.9487 98.4869 10.9904 98.4169 11.0404C98.3503 11.087 98.2653 11.1287 98.1619 11.1654C98.0586 11.202 97.9386 11.2204 97.8019 11.2204C97.6153 11.2204 97.4403 11.1887 97.2769 11.1254C97.1136 11.0587 96.9819 10.9537 96.8819 10.8104C96.7853 10.667 96.7369 10.4787 96.7369 10.2454C96.7369 10.0354 96.7836 9.85537 96.8769 9.70537C96.9703 9.55203 97.0969 9.43537 97.2569 9.35537C97.4169 9.27537 97.5953 9.23537 97.7919 9.23537C98.0219 9.23537 98.2253 9.2887 98.4019 9.39537C98.5786 9.4987 98.7169 9.66037 98.8169 9.88037C98.9203 10.097 98.9719 10.377 98.9719 10.7204C98.9719 11.127 98.9153 11.4537 98.8019 11.7004C98.6886 11.947 98.5303 12.1254 98.3269 12.2354C98.1269 12.3454 97.8919 12.4004 97.6219 12.4004C97.4219 12.4004 97.2503 12.3737 97.1069 12.3204C96.9636 12.267 96.8919 12.1904 96.8919 12.0904ZM97.8569 10.8854C98.0269 10.8854 98.1769 10.8437 98.3069 10.7604C98.4403 10.6737 98.5286 10.5787 98.5719 10.4754L98.5669 10.5304C98.5669 10.2337 98.4986 10.0004 98.3619 9.83037C98.2286 9.65703 98.0386 9.57037 97.7919 9.57037C97.6086 9.57037 97.4536 9.63037 97.3269 9.75037C97.2036 9.86703 97.1419 10.0287 97.1419 10.2354C97.1419 10.4654 97.2119 10.632 97.3519 10.7354C97.4919 10.8354 97.6603 10.8854 97.8569 10.8854Z" fill="#A73C4C"/>
<path d="M151.964 35.1966L151.613 34.9941L152.378 33.6691L151.674 33.6089C151.645 33.5728 151.626 33.5328 151.616 33.4889C151.61 33.4467 151.619 33.404 151.644 33.3607C151.692 33.2769 151.781 33.2434 151.91 33.2601L152.669 33.346L152.751 33.3935C152.809 33.4268 152.845 33.4708 152.86 33.5255C152.874 33.5801 152.865 33.6363 152.832 33.694L151.964 35.1966ZM151.713 34.8209L152.064 35.0234L151.402 36.1708C151.381 36.1666 151.354 36.1591 151.322 36.1482C151.288 36.1402 151.254 36.1262 151.22 36.1062C151.159 36.0712 151.12 36.0315 151.103 35.9872C151.087 35.9429 151.094 35.8933 151.126 35.8384L151.713 34.8209ZM153.503 34.2321C153.533 34.1801 153.596 34.1488 153.691 34.138C153.787 34.1244 153.901 34.1342 154.032 34.1674C154.162 34.2007 154.294 34.2556 154.427 34.3323C154.612 34.439 154.752 34.5624 154.848 34.7026C154.946 34.8399 154.999 34.9856 155.006 35.1399C155.013 35.2941 154.972 35.4478 154.884 35.6008C154.792 35.7595 154.658 35.8896 154.48 35.9909C154.305 36.0939 154.054 36.1819 153.727 36.2548L152.644 36.5012L153.93 37.2437C153.935 37.2619 153.934 37.2865 153.928 37.3175C153.923 37.3456 153.911 37.3755 153.893 37.4073C153.866 37.4535 153.833 37.482 153.792 37.493C153.754 37.5057 153.714 37.5003 153.674 37.477L152.145 36.5945C152.128 36.5576 152.121 36.5206 152.123 36.4834C152.127 36.4433 152.139 36.4059 152.159 36.3713C152.185 36.3251 152.217 36.2897 152.255 36.265C152.294 36.2375 152.34 36.2179 152.393 36.2061L153.605 35.907C153.88 35.8429 154.084 35.7737 154.215 35.6995C154.348 35.6223 154.451 35.5217 154.522 35.3976C154.601 35.2619 154.619 35.1241 154.576 34.9842C154.534 34.8442 154.419 34.7201 154.231 34.6118C154.104 34.5384 153.978 34.4942 153.852 34.4792C153.728 34.4658 153.619 34.4645 153.525 34.4753C153.501 34.4425 153.485 34.4042 153.476 34.3603C153.469 34.3181 153.478 34.2754 153.503 34.2321ZM154.709 36.787L156.934 35.8431C156.963 35.8523 156.995 35.8646 157.028 35.8801C157.066 35.8943 157.098 35.9089 157.124 35.9239C157.164 35.9473 157.198 35.9747 157.226 36.0063C157.257 36.0395 157.275 36.0786 157.28 36.1237C157.286 36.1659 157.273 36.2159 157.24 36.2736L156.365 37.7892L156.798 38.0392C156.798 38.0586 156.795 38.0838 156.789 38.1148C156.784 38.1429 156.772 38.1728 156.754 38.2045C156.727 38.2507 156.695 38.2802 156.657 38.2928C156.619 38.3054 156.578 38.2993 156.535 38.2743L156.197 38.0793L155.822 38.7288C155.806 38.7233 155.782 38.7152 155.75 38.7043C155.719 38.6979 155.687 38.6856 155.655 38.6673C155.595 38.6323 155.556 38.5926 155.539 38.5483C155.523 38.504 155.528 38.4573 155.557 38.4082L155.859 37.8843L154.608 37.1618C154.587 37.1307 154.576 37.0897 154.575 37.0388C154.576 36.9896 154.59 36.9419 154.617 36.8958C154.632 36.8698 154.646 36.849 154.659 36.8333C154.676 36.8164 154.693 36.801 154.709 36.787ZM156.031 37.5967L156.827 36.2377L156.819 36.2327L155.07 37.0417L156.031 37.5967Z" fill="#A73C4C"/>
<path d="M162.074 36.2154H161.669V34.6854L161.029 34.9854C160.986 34.9687 160.949 34.9437 160.919 34.9104C160.893 34.877 160.879 34.8354 160.879 34.7854C160.879 34.6887 160.939 34.6154 161.059 34.5654L161.759 34.2604H161.854C161.921 34.2604 161.974 34.2804 162.014 34.3204C162.054 34.3604 162.074 34.4137 162.074 34.4804V36.2154ZM161.669 36.0154H162.074V37.3404C162.054 37.347 162.028 37.3537 161.994 37.3604C161.961 37.3704 161.924 37.3754 161.884 37.3754C161.814 37.3754 161.761 37.3604 161.724 37.3304C161.688 37.3004 161.669 37.2537 161.669 37.1904V36.0154ZM162.925 34.6104C162.925 34.5504 162.963 34.492 163.04 34.4354C163.117 34.3754 163.22 34.327 163.35 34.2904C163.48 34.2537 163.622 34.2354 163.775 34.2354C163.988 34.2354 164.172 34.272 164.325 34.3454C164.478 34.4154 164.597 34.5154 164.68 34.6454C164.763 34.7754 164.805 34.9287 164.805 35.1054C164.805 35.2887 164.753 35.4687 164.65 35.6454C164.55 35.822 164.377 36.0237 164.13 36.2504L163.315 37.0054H164.8C164.813 37.0187 164.825 37.0404 164.835 37.0704C164.845 37.097 164.85 37.1287 164.85 37.1654C164.85 37.2187 164.835 37.2604 164.805 37.2904C164.778 37.3204 164.742 37.3354 164.695 37.3354H162.93C162.897 37.312 162.872 37.2837 162.855 37.2504C162.838 37.2137 162.83 37.1754 162.83 37.1354C162.83 37.082 162.84 37.0354 162.86 36.9954C162.88 36.952 162.91 36.912 162.95 36.8754L163.85 36.0104C164.057 35.817 164.198 35.6554 164.275 35.5254C164.352 35.392 164.39 35.2537 164.39 35.1104C164.39 34.9537 164.337 34.8254 164.23 34.7254C164.123 34.6254 163.962 34.5754 163.745 34.5754C163.598 34.5754 163.467 34.6004 163.35 34.6504C163.237 34.7004 163.142 34.7537 163.065 34.8104C163.028 34.7937 162.995 34.7687 162.965 34.7354C162.938 34.702 162.925 34.6604 162.925 34.6104ZM167.405 34.5304C167.405 34.5704 167.394 34.6087 167.37 34.6454C167.35 34.6787 167.324 34.7037 167.29 34.7204C167.217 34.6837 167.134 34.652 167.04 34.6254C166.95 34.5954 166.852 34.5804 166.745 34.5804C166.485 34.5804 166.265 34.6737 166.085 34.8604C165.909 35.047 165.815 35.3387 165.805 35.7354C165.872 35.6687 165.974 35.5987 166.11 35.5254C166.25 35.4487 166.422 35.4104 166.625 35.4104C166.919 35.4104 167.16 35.4937 167.35 35.6604C167.54 35.827 167.635 36.0737 167.635 36.4004C167.635 36.607 167.59 36.7854 167.5 36.9354C167.414 37.0854 167.29 37.2004 167.13 37.2804C166.974 37.3604 166.787 37.4004 166.57 37.4004C166.347 37.4004 166.147 37.3504 165.97 37.2504C165.794 37.147 165.654 36.987 165.55 36.7704C165.45 36.5504 165.4 36.2637 165.4 35.9104C165.4 35.597 165.437 35.3337 165.51 35.1204C165.587 34.9037 165.689 34.732 165.815 34.6054C165.942 34.4754 166.085 34.382 166.245 34.3254C166.405 34.2654 166.569 34.2354 166.735 34.2354C166.852 34.2354 166.96 34.247 167.06 34.2704C167.164 34.2937 167.247 34.327 167.31 34.3704C167.374 34.4137 167.405 34.467 167.405 34.5304ZM166.57 37.0654C166.764 37.0654 166.922 37.007 167.045 36.8904C167.169 36.7704 167.23 36.6037 167.23 36.3904C167.23 36.1737 167.167 36.0137 167.04 35.9104C166.917 35.8037 166.764 35.7504 166.58 35.7504C166.397 35.7504 166.239 35.7904 166.105 35.8704C165.972 35.947 165.867 36.0404 165.79 36.1504L165.805 36.1154C165.805 36.3987 165.872 36.6287 166.005 36.8054C166.139 36.9787 166.327 37.0654 166.57 37.0654Z" fill="#A73C4C"/>
<path d="M184.074 44.2154H183.669V42.6854L183.029 42.9854C182.986 42.9687 182.949 42.9437 182.919 42.9104C182.893 42.877 182.879 42.8354 182.879 42.7854C182.879 42.6887 182.939 42.6154 183.059 42.5654L183.759 42.2604H183.854C183.921 42.2604 183.974 42.2804 184.014 42.3204C184.054 42.3604 184.074 42.4137 184.074 42.4804V44.2154ZM183.669 44.0154H184.074V45.3404C184.054 45.347 184.028 45.3537 183.994 45.3604C183.961 45.3704 183.924 45.3754 183.884 45.3754C183.814 45.3754 183.761 45.3604 183.724 45.3304C183.688 45.3004 183.669 45.2537 183.669 45.1904V44.0154ZM184.925 42.6104C184.925 42.5504 184.963 42.492 185.04 42.4354C185.117 42.3754 185.22 42.327 185.35 42.2904C185.48 42.2537 185.622 42.2354 185.775 42.2354C185.988 42.2354 186.172 42.272 186.325 42.3454C186.478 42.4154 186.597 42.5154 186.68 42.6454C186.763 42.7754 186.805 42.9287 186.805 43.1054C186.805 43.2887 186.753 43.4687 186.65 43.6454C186.55 43.822 186.377 44.0237 186.13 44.2504L185.315 45.0054H186.8C186.813 45.0187 186.825 45.0404 186.835 45.0704C186.845 45.097 186.85 45.1287 186.85 45.1654C186.85 45.2187 186.835 45.2604 186.805 45.2904C186.778 45.3204 186.742 45.3354 186.695 45.3354H184.93C184.897 45.312 184.872 45.2837 184.855 45.2504C184.838 45.2137 184.83 45.1754 184.83 45.1354C184.83 45.082 184.84 45.0354 184.86 44.9954C184.88 44.952 184.91 44.912 184.95 44.8754L185.85 44.0104C186.057 43.817 186.198 43.6554 186.275 43.5254C186.352 43.392 186.39 43.2537 186.39 43.1104C186.39 42.9537 186.337 42.8254 186.23 42.7254C186.123 42.6254 185.962 42.5754 185.745 42.5754C185.598 42.5754 185.467 42.6004 185.35 42.6504C185.237 42.7004 185.142 42.7537 185.065 42.8104C185.028 42.7937 184.995 42.7687 184.965 42.7354C184.938 42.702 184.925 42.6604 184.925 42.6104ZM188.536 45.4004C188.309 45.4004 188.111 45.367 187.941 45.3004C187.771 45.2304 187.639 45.1304 187.546 45.0004C187.453 44.8704 187.406 44.7137 187.406 44.5304C187.406 44.367 187.443 44.2287 187.516 44.1154C187.593 43.9987 187.689 43.9054 187.806 43.8354C187.923 43.7654 188.044 43.7187 188.171 43.6954L188.471 43.6454C188.711 43.5987 188.891 43.5304 189.011 43.4404C189.131 43.347 189.191 43.2237 189.191 43.0704C189.191 42.9137 189.133 42.792 189.016 42.7054C188.899 42.6154 188.739 42.5704 188.536 42.5704C188.339 42.5704 188.181 42.6154 188.061 42.7054C187.941 42.7954 187.881 42.9154 187.881 43.0654C187.881 43.192 187.914 43.2937 187.981 43.3704C188.051 43.447 188.143 43.5054 188.256 43.5454C188.373 43.582 188.499 43.607 188.636 43.6204L188.856 43.6954C188.993 43.722 189.123 43.7704 189.246 43.8404C189.369 43.907 189.469 43.997 189.546 44.1104C189.623 44.2237 189.661 44.3654 189.661 44.5354C189.661 44.7154 189.613 44.8704 189.516 45.0004C189.423 45.1304 189.291 45.2304 189.121 45.3004C188.954 45.367 188.759 45.4004 188.536 45.4004ZM188.536 45.0654C188.753 45.0654 188.928 45.0187 189.061 44.9254C189.194 44.832 189.261 44.697 189.261 44.5204C189.261 44.327 189.179 44.1737 189.016 44.0604C188.856 43.947 188.641 43.882 188.371 43.8654L188.116 43.7904C187.923 43.737 187.768 43.6504 187.651 43.5304C187.538 43.4104 187.481 43.2537 187.481 43.0604C187.481 42.8904 187.524 42.7437 187.611 42.6204C187.701 42.497 187.824 42.402 187.981 42.3354C188.141 42.2687 188.326 42.2354 188.536 42.2354C188.863 42.2354 189.119 42.3104 189.306 42.4604C189.496 42.607 189.591 42.8104 189.591 43.0704C189.591 43.2804 189.519 43.4454 189.376 43.5654C189.236 43.6854 189.064 43.7637 188.861 43.8004L188.521 43.8704C188.308 43.9037 188.134 43.977 188.001 44.0904C187.871 44.2004 187.806 44.3454 187.806 44.5254C187.806 44.6954 187.871 44.8287 188.001 44.9254C188.131 45.0187 188.309 45.0654 188.536 45.0654Z" fill="#A73C4C"/>
<path d="M205.074 44.2154H204.669V42.6854L204.029 42.9854C203.986 42.9687 203.949 42.9437 203.919 42.9104C203.893 42.877 203.879 42.8354 203.879 42.7854C203.879 42.6887 203.939 42.6154 204.059 42.5654L204.759 42.2604H204.854C204.921 42.2604 204.974 42.2804 205.014 42.3204C205.054 42.3604 205.074 42.4137 205.074 42.4804V44.2154ZM204.669 44.0154H205.074V45.3404C205.054 45.347 205.028 45.3537 204.994 45.3604C204.961 45.3704 204.924 45.3754 204.884 45.3754C204.814 45.3754 204.761 45.3604 204.724 45.3304C204.688 45.3004 204.669 45.2537 204.669 45.1904V44.0154ZM206.701 42.2304C207.017 42.2304 207.272 42.3004 207.466 42.4404C207.662 42.577 207.761 42.7837 207.761 43.0604C207.761 43.1937 207.732 43.3087 207.676 43.4054C207.622 43.4987 207.557 43.572 207.481 43.6254C207.407 43.6787 207.341 43.7137 207.281 43.7304C207.371 43.757 207.459 43.8037 207.546 43.8704C207.632 43.9337 207.704 44.017 207.761 44.1204C207.821 44.2204 207.851 44.342 207.851 44.4854C207.851 44.6854 207.802 44.852 207.706 44.9854C207.609 45.1187 207.476 45.2204 207.306 45.2904C207.136 45.357 206.939 45.3904 206.716 45.3904C206.532 45.3904 206.369 45.372 206.226 45.3354C206.086 45.2954 205.976 45.2454 205.896 45.1854C205.816 45.1254 205.776 45.062 205.776 44.9954C205.776 44.9487 205.787 44.9087 205.811 44.8754C205.837 44.842 205.871 44.8137 205.911 44.7904C205.997 44.857 206.102 44.917 206.226 44.9704C206.352 45.0237 206.516 45.0504 206.716 45.0504C206.936 45.0504 207.114 45.0037 207.251 44.9104C207.387 44.8137 207.456 44.6687 207.456 44.4754C207.456 44.3054 207.392 44.1687 207.266 44.0654C207.139 43.962 206.956 43.9104 206.716 43.9104H206.301C206.287 43.8937 206.276 43.8704 206.266 43.8404C206.256 43.807 206.251 43.7737 206.251 43.7404C206.251 43.7037 206.256 43.6704 206.266 43.6404C206.276 43.6104 206.287 43.587 206.301 43.5704H206.681C206.927 43.5704 207.102 43.5254 207.206 43.4354C207.312 43.342 207.366 43.2204 207.366 43.0704C207.366 42.907 207.306 42.7837 207.186 42.7004C207.066 42.6137 206.902 42.5704 206.696 42.5704C206.536 42.5704 206.394 42.5954 206.271 42.6454C206.151 42.692 206.051 42.7437 205.971 42.8004C205.937 42.7837 205.907 42.757 205.881 42.7204C205.854 42.6837 205.841 42.6437 205.841 42.6004C205.841 42.5404 205.879 42.482 205.956 42.4254C206.032 42.3687 206.136 42.322 206.266 42.2854C206.396 42.2487 206.541 42.2304 206.701 42.2304ZM209.6 45.4004C209.367 45.4004 209.16 45.3437 208.98 45.2304C208.803 45.1137 208.665 44.9387 208.565 44.7054C208.465 44.4687 208.415 44.172 208.415 43.8154C208.415 43.432 208.472 43.1254 208.585 42.8954C208.698 42.6654 208.845 42.4987 209.025 42.3954C209.205 42.2887 209.397 42.2354 209.6 42.2354C209.807 42.2354 210 42.2887 210.18 42.3954C210.363 42.502 210.51 42.672 210.62 42.9054C210.733 43.1354 210.79 43.4387 210.79 43.8154C210.79 44.1687 210.74 44.4637 210.64 44.7004C210.54 44.9337 210.4 45.1087 210.22 45.2254C210.043 45.342 209.837 45.4004 209.6 45.4004ZM209.6 45.0604C209.847 45.0604 210.038 44.9537 210.175 44.7404C210.312 44.5237 210.38 44.2154 210.38 43.8154C210.38 43.5187 210.343 43.2804 210.27 43.1004C210.2 42.917 210.107 42.7837 209.99 42.7004C209.873 42.617 209.743 42.5754 209.6 42.5754C209.46 42.5754 209.33 42.6187 209.21 42.7054C209.093 42.7887 209 42.922 208.93 43.1054C208.86 43.2887 208.825 43.5254 208.825 43.8154C208.825 44.2154 208.893 44.5237 209.03 44.7404C209.167 44.9537 209.357 45.0604 209.6 45.0604Z" fill="#A73C4C"/>
<path d="M221.074 44.2154H220.669V42.6854L220.029 42.9854C219.986 42.9687 219.949 42.9437 219.919 42.9104C219.893 42.877 219.879 42.8354 219.879 42.7854C219.879 42.6887 219.939 42.6154 220.059 42.5654L220.759 42.2604H220.854C220.921 42.2604 220.974 42.2804 221.014 42.3204C221.054 42.3604 221.074 42.4137 221.074 42.4804V44.2154ZM220.669 44.0154H221.074V45.3404C221.054 45.347 221.028 45.3537 220.994 45.3604C220.961 45.3704 220.924 45.3754 220.884 45.3754C220.814 45.3754 220.761 45.3604 220.724 45.3304C220.688 45.3004 220.669 45.2537 220.669 45.1904V44.0154ZM222.701 42.2304C223.017 42.2304 223.272 42.3004 223.466 42.4404C223.662 42.577 223.761 42.7837 223.761 43.0604C223.761 43.1937 223.732 43.3087 223.676 43.4054C223.622 43.4987 223.557 43.572 223.481 43.6254C223.407 43.6787 223.341 43.7137 223.281 43.7304C223.371 43.757 223.459 43.8037 223.546 43.8704C223.632 43.9337 223.704 44.017 223.761 44.1204C223.821 44.2204 223.851 44.342 223.851 44.4854C223.851 44.6854 223.802 44.852 223.706 44.9854C223.609 45.1187 223.476 45.2204 223.306 45.2904C223.136 45.357 222.939 45.3904 222.716 45.3904C222.532 45.3904 222.369 45.372 222.226 45.3354C222.086 45.2954 221.976 45.2454 221.896 45.1854C221.816 45.1254 221.776 45.062 221.776 44.9954C221.776 44.9487 221.787 44.9087 221.811 44.8754C221.837 44.842 221.871 44.8137 221.911 44.7904C221.997 44.857 222.102 44.917 222.226 44.9704C222.352 45.0237 222.516 45.0504 222.716 45.0504C222.936 45.0504 223.114 45.0037 223.251 44.9104C223.387 44.8137 223.456 44.6687 223.456 44.4754C223.456 44.3054 223.392 44.1687 223.266 44.0654C223.139 43.962 222.956 43.9104 222.716 43.9104H222.301C222.287 43.8937 222.276 43.8704 222.266 43.8404C222.256 43.807 222.251 43.7737 222.251 43.7404C222.251 43.7037 222.256 43.6704 222.266 43.6404C222.276 43.6104 222.287 43.587 222.301 43.5704H222.681C222.927 43.5704 223.102 43.5254 223.206 43.4354C223.312 43.342 223.366 43.2204 223.366 43.0704C223.366 42.907 223.306 42.7837 223.186 42.7004C223.066 42.6137 222.902 42.5704 222.696 42.5704C222.536 42.5704 222.394 42.5954 222.271 42.6454C222.151 42.692 222.051 42.7437 221.971 42.8004C221.937 42.7837 221.907 42.757 221.881 42.7204C221.854 42.6837 221.841 42.6437 221.841 42.6004C221.841 42.5404 221.879 42.482 221.956 42.4254C222.032 42.3687 222.136 42.322 222.266 42.2854C222.396 42.2487 222.541 42.2304 222.701 42.2304ZM224.43 42.6104C224.43 42.5504 224.468 42.492 224.545 42.4354C224.622 42.3754 224.725 42.327 224.855 42.2904C224.985 42.2537 225.127 42.2354 225.28 42.2354C225.493 42.2354 225.677 42.272 225.83 42.3454C225.983 42.4154 226.102 42.5154 226.185 42.6454C226.268 42.7754 226.31 42.9287 226.31 43.1054C226.31 43.2887 226.258 43.4687 226.155 43.6454C226.055 43.822 225.882 44.0237 225.635 44.2504L224.82 45.0054H226.305C226.318 45.0187 226.33 45.0404 226.34 45.0704C226.35 45.097 226.355 45.1287 226.355 45.1654C226.355 45.2187 226.34 45.2604 226.31 45.2904C226.283 45.3204 226.247 45.3354 226.2 45.3354H224.435C224.402 45.312 224.377 45.2837 224.36 45.2504C224.343 45.2137 224.335 45.1754 224.335 45.1354C224.335 45.082 224.345 45.0354 224.365 44.9954C224.385 44.952 224.415 44.912 224.455 44.8754L225.355 44.0104C225.562 43.817 225.703 43.6554 225.78 43.5254C225.857 43.392 225.895 43.2537 225.895 43.1104C225.895 42.9537 225.842 42.8254 225.735 42.7254C225.628 42.6254 225.467 42.5754 225.25 42.5754C225.103 42.5754 224.972 42.6004 224.855 42.6504C224.742 42.7004 224.647 42.7537 224.57 42.8104C224.533 42.7937 224.5 42.7687 224.47 42.7354C224.443 42.702 224.43 42.6604 224.43 42.6104Z" fill="#A73C4C"/>
<path d="M205.074 18.2154H204.669V16.6854L204.029 16.9854C203.986 16.9687 203.949 16.9437 203.919 16.9104C203.893 16.877 203.879 16.8354 203.879 16.7854C203.879 16.6887 203.939 16.6154 204.059 16.5654L204.759 16.2604H204.854C204.921 16.2604 204.974 16.2804 205.014 16.3204C205.054 16.3604 205.074 16.4137 205.074 16.4804V18.2154ZM204.669 18.0154H205.074V19.3404C205.054 19.347 205.028 19.3537 204.994 19.3604C204.961 19.3704 204.924 19.3754 204.884 19.3754C204.814 19.3754 204.761 19.3604 204.724 19.3304C204.688 19.3004 204.669 19.2537 204.669 19.1904V18.0154ZM206.886 18.2154H206.481V16.6854L205.841 16.9854C205.797 16.9687 205.761 16.9437 205.731 16.9104C205.704 16.877 205.691 16.8354 205.691 16.7854C205.691 16.6887 205.751 16.6154 205.871 16.5654L206.571 16.2604H206.666C206.732 16.2604 206.786 16.2804 206.826 16.3204C206.866 16.3604 206.886 16.4137 206.886 16.4804V18.2154ZM206.481 18.0154H206.886V19.3404C206.866 19.347 206.839 19.3537 206.806 19.3604C206.772 19.3704 206.736 19.3754 206.696 19.3754C206.626 19.3754 206.572 19.3604 206.536 19.3304C206.499 19.3004 206.481 19.2537 206.481 19.1904V18.0154ZM208.512 16.2304C208.829 16.2304 209.084 16.3004 209.277 16.4404C209.474 16.577 209.572 16.7837 209.572 17.0604C209.572 17.1937 209.544 17.3087 209.487 17.4054C209.434 17.4987 209.369 17.572 209.292 17.6254C209.219 17.6787 209.152 17.7137 209.092 17.7304C209.182 17.757 209.271 17.8037 209.357 17.8704C209.444 17.9337 209.516 18.017 209.572 18.1204C209.632 18.2204 209.662 18.342 209.662 18.4854C209.662 18.6854 209.614 18.852 209.517 18.9854C209.421 19.1187 209.287 19.2204 209.117 19.2904C208.947 19.357 208.751 19.3904 208.527 19.3904C208.344 19.3904 208.181 19.372 208.037 19.3354C207.897 19.2954 207.787 19.2454 207.707 19.1854C207.627 19.1254 207.587 19.062 207.587 18.9954C207.587 18.9487 207.599 18.9087 207.622 18.8754C207.649 18.842 207.682 18.8137 207.722 18.7904C207.809 18.857 207.914 18.917 208.037 18.9704C208.164 19.0237 208.327 19.0504 208.527 19.0504C208.747 19.0504 208.926 19.0037 209.062 18.9104C209.199 18.8137 209.267 18.6687 209.267 18.4754C209.267 18.3054 209.204 18.1687 209.077 18.0654C208.951 17.962 208.767 17.9104 208.527 17.9104H208.112C208.099 17.8937 208.087 17.8704 208.077 17.8404C208.067 17.807 208.062 17.7737 208.062 17.7404C208.062 17.7037 208.067 17.6704 208.077 17.6404C208.087 17.6104 208.099 17.587 208.112 17.5704H208.492C208.739 17.5704 208.914 17.5254 209.017 17.4354C209.124 17.342 209.177 17.2204 209.177 17.0704C209.177 16.907 209.117 16.7837 208.997 16.7004C208.877 16.6137 208.714 16.5704 208.507 16.5704C208.347 16.5704 208.206 16.5954 208.082 16.6454C207.962 16.692 207.862 16.7437 207.782 16.8004C207.749 16.7837 207.719 16.757 207.692 16.7204C207.666 16.6837 207.652 16.6437 207.652 16.6004C207.652 16.5404 207.691 16.482 207.767 16.4254C207.844 16.3687 207.947 16.322 208.077 16.2854C208.207 16.2487 208.352 16.2304 208.512 16.2304Z" fill="#A73C4C"/>
<path d="M181.074 25.2154H180.669V23.6854L180.029 23.9854C179.986 23.9687 179.949 23.9437 179.919 23.9104C179.893 23.877 179.879 23.8354 179.879 23.7854C179.879 23.6887 179.939 23.6154 180.059 23.5654L180.759 23.2604H180.854C180.921 23.2604 180.974 23.2804 181.014 23.3204C181.054 23.3604 181.074 23.4137 181.074 23.4804V25.2154ZM180.669 25.0154H181.074V26.3404C181.054 26.347 181.028 26.3537 180.994 26.3604C180.961 26.3704 180.924 26.3754 180.884 26.3754C180.814 26.3754 180.761 26.3604 180.724 26.3304C180.688 26.3004 180.669 26.2537 180.669 26.1904V25.0154ZM182.886 25.2154H182.481V23.6854L181.841 23.9854C181.797 23.9687 181.761 23.9437 181.731 23.9104C181.704 23.877 181.691 23.8354 181.691 23.7854C181.691 23.6887 181.751 23.6154 181.871 23.5654L182.571 23.2604H182.666C182.732 23.2604 182.786 23.2804 182.826 23.3204C182.866 23.3604 182.886 23.4137 182.886 23.4804V25.2154ZM182.481 25.0154H182.886V26.3404C182.866 26.347 182.839 26.3537 182.806 26.3604C182.772 26.3704 182.736 26.3754 182.696 26.3754C182.626 26.3754 182.572 26.3604 182.536 26.3304C182.499 26.3004 182.481 26.2537 182.481 26.1904V25.0154ZM184.697 25.2154H184.292V23.6854L183.652 23.9854C183.609 23.9687 183.572 23.9437 183.542 23.9104C183.516 23.877 183.502 23.8354 183.502 23.7854C183.502 23.6887 183.562 23.6154 183.682 23.5654L184.382 23.2604H184.477C184.544 23.2604 184.597 23.2804 184.637 23.3204C184.677 23.3604 184.697 23.4137 184.697 23.4804V25.2154ZM184.292 25.0154H184.697V26.3404C184.677 26.347 184.651 26.3537 184.617 26.3604C184.584 26.3704 184.547 26.3754 184.507 26.3754C184.437 26.3754 184.384 26.3604 184.347 26.3304C184.311 26.3004 184.292 26.2537 184.292 26.1904V25.0154Z" fill="#A73C4C"/>
<path d="M238.074 16.2154H237.669V14.6854L237.029 14.9854C236.986 14.9687 236.949 14.9437 236.919 14.9104C236.893 14.877 236.879 14.8354 236.879 14.7854C236.879 14.6887 236.939 14.6154 237.059 14.5654L237.759 14.2604H237.854C237.921 14.2604 237.974 14.2804 238.014 14.3204C238.054 14.3604 238.074 14.4137 238.074 14.4804V16.2154ZM237.669 16.0154H238.074V17.3404C238.054 17.347 238.028 17.3537 237.994 17.3604C237.961 17.3704 237.924 17.3754 237.884 17.3754C237.814 17.3754 237.761 17.3604 237.724 17.3304C237.688 17.3004 237.669 17.2537 237.669 17.1904V16.0154ZM239.886 16.2154H239.481V14.6854L238.841 14.9854C238.797 14.9687 238.761 14.9437 238.731 14.9104C238.704 14.877 238.691 14.8354 238.691 14.7854C238.691 14.6887 238.751 14.6154 238.871 14.5654L239.571 14.2604H239.666C239.732 14.2604 239.786 14.2804 239.826 14.3204C239.866 14.3604 239.886 14.4137 239.886 14.4804V16.2154ZM239.481 16.0154H239.886V17.3404C239.866 17.347 239.839 17.3537 239.806 17.3604C239.772 17.3704 239.736 17.3754 239.696 17.3754C239.626 17.3754 239.572 17.3604 239.536 17.3304C239.499 17.3004 239.481 17.2537 239.481 17.1904V16.0154ZM241.423 14.2954L241.288 14.5904L241.203 15.5354C241.259 15.5054 241.338 15.477 241.438 15.4504C241.541 15.4204 241.649 15.4054 241.763 15.4054C241.963 15.4054 242.143 15.4437 242.303 15.5204C242.463 15.5937 242.589 15.7037 242.683 15.8504C242.779 15.9937 242.828 16.172 242.828 16.3854C242.828 16.5787 242.783 16.752 242.693 16.9054C242.606 17.0587 242.478 17.1804 242.308 17.2704C242.141 17.357 241.936 17.4004 241.693 17.4004C241.503 17.4004 241.336 17.3787 241.193 17.3354C241.049 17.292 240.938 17.2387 240.858 17.1754C240.778 17.112 240.738 17.0504 240.738 16.9904C240.738 16.937 240.754 16.8904 240.788 16.8504C240.824 16.8104 240.861 16.7837 240.898 16.7704C240.971 16.8337 241.074 16.8987 241.208 16.9654C241.341 17.032 241.503 17.0654 241.693 17.0654C241.923 17.0654 242.101 17.002 242.228 16.8754C242.354 16.7454 242.418 16.582 242.418 16.3854C242.418 16.182 242.353 16.0237 242.223 15.9104C242.093 15.797 241.923 15.7404 241.713 15.7404C241.596 15.7404 241.489 15.7587 241.393 15.7954C241.296 15.832 241.206 15.8737 241.123 15.9204C241.033 15.9137 240.959 15.887 240.903 15.8404C240.849 15.7904 240.823 15.727 240.823 15.6504C240.823 15.6304 240.823 15.6054 240.823 15.5754C240.826 15.542 240.829 15.5104 240.833 15.4804L240.918 14.5254C240.924 14.4554 240.946 14.4004 240.983 14.3604C241.019 14.317 241.073 14.2954 241.143 14.2954H241.423ZM241.213 14.6354V14.2954H242.673C242.683 14.3087 242.693 14.3304 242.703 14.3604C242.713 14.3904 242.718 14.422 242.718 14.4554C242.718 14.5087 242.704 14.552 242.678 14.5854C242.651 14.6187 242.613 14.6354 242.563 14.6354H241.213Z" fill="#A73C4C"/>
</svg>
