<svg width="250" height="50" viewBox="0 0 250 50" fill="none" xmlns="http://www.w3.org/2000/svg">
<path d="M0.2565 0.343626H35.5374V6.84363H78.2931V0.343626H172.037V6.84363H212.537V0.343626H249.037V49.8436H171.037V43.202H78.2931V49.8436H0.537445L0.2565 0.343626Z" fill="white"/>
<path d="M35.2885 6.7894L58.5375 6.84361" stroke="#A73C4C" stroke-width="0.5"/>
<path d="M58.0374 6.7894L77.5374 6.7894" stroke="#A73C4C" stroke-width="0.5"/>
<path d="M132.376 0.25H78.2294V6.7894H77.5374" stroke="#A73C4C" stroke-width="0.5"/>
<path d="M132.376 0.25H153.037" stroke="#A73C4C" stroke-width="0.5"/>
<path d="M153.037 0.25H157.037" stroke="#A73C4C" stroke-width="0.5"/>
<path d="M157.037 0.25H158.667" stroke="#A73C4C" stroke-width="0.5"/>
<path d="M158.667 0.25H165.537" stroke="#A73C4C" stroke-width="0.5"/>
<path d="M165.537 0.25H171.961V6.7894H187.037" stroke="#A73C4C" stroke-width="0.5"/>
<path d="M187.037 6.7894L212.65 6.7894V0.250006H248.98L248.98 32.8436" stroke="#A73C4C" stroke-width="0.5"/>
<path d="M248.98 32.8436V49.6588H171.234V43.1194L118.537 43.1194" stroke="#A73C4C" stroke-width="0.5"/>
<path d="M0.483246 32.7239V49.6588H78.2294V43.1194H118.537" stroke="#A73C4C" stroke-width="0.5"/>
<path d="M0.475956 24.0784H3.03745M13.5374 8.34362H19.5374V14.8436M9.03745 24.0936H37.5374M56.1736 24.0936H57.2874M70.6831 24.0936H71.772M63.7652 24.0936H65.0375M52.5374 32.3436H71.772M89.5374 24.0936L78.2293 24.0936V43.1194M82.0374 17.6478H78.2293V6.7894M64.5374 18.8436H71.5374M110.537 17.6478H118.37V15.3436M112.037 9.34361H118.537M115.037 24.0936H122.037M131.037 8.8436V11.367M70.6831 49.782V40.8436M64.4014 24.0936V6.97037M56.4236 23.9126V6.7894M36.0374 49.6587L36.0376 32.5675M35.5374 6.7894V0.343611H0.252441L0.483246 24.0936M71.5374 11.3436V6.7894M71.5374 24.0936V17.3436M117.537 43.1193V24.0936M112.037 17.6478V0.250006M118.37 10.0693V8.84361M118.537 3.65513V0.250006M145.301 17.6478V0.250006M76.5374 32.3436H78.2293M131.037 3.3436V0.320166M9.53745 32.3436H0.483246M91.0374 17.6478V0.249987M104.537 17.6478V0.249998M87.0374 17.6478H97.5374M103.037 17.6478H105.947M43.5374 24.0784H50.5374M49.0373 23.9126L49.0374 6.82146M96.0374 24.0936H109.037M46.5374 32.3436H15.0374M63.5374 49.6587V32.3436M19.5374 20.3436V24.0936M13.5374 0.343618V24.0936M70.6831 35.3436V32.2204M171.234 23.2414L171.234 22.3436M171.234 21.3436L171.234 20.4458M171.234 19.5445L171.234 18.6467" stroke="#A73C4C" stroke-width="0.5"/>
<path d="M128.037 24.0936L163.037 24.0935" stroke="#A73C4C" stroke-width="0.5"/>
<path d="M169.037 24.0936H171.234L171.234 40.3436V43.1194" stroke="#A73C4C" stroke-width="0.5"/>
<path d="M144.537 43.1193V24.0936" stroke="#A73C4C" stroke-width="0.5"/>
<path d="M131.037 16.3436V17.6478L148.037 17.6477" stroke="#A73C4C" stroke-width="0.5"/>
<path d="M153.707 17.6478L160.537 17.6477" stroke="#A73C4C" stroke-width="0.5"/>
<path d="M166.537 17.6477L171.961 17.6478L171.961 6.7894" stroke="#A73C4C" stroke-width="0.5"/>
<path d="M0.483246 32.724V24.0936" stroke="#A73C4C" stroke-width="0.5"/>
<path d="M133.337 5.34363C133.172 5.34363 133.037 5.47794 133.037 5.64363V15.9782C133.037 16.1439 133.172 16.2782 133.337 16.2782H134.579H143.499C143.665 16.2782 143.799 16.1439 143.799 15.9782V7.25697V5.64363C143.799 5.47794 143.665 5.34363 143.499 5.34363H133.337ZM135.521 15.8577V14.696C135.521 14.6407 135.566 14.596 135.621 14.596H136.877C137.042 14.596 137.177 14.4617 137.177 14.296V13.0137C137.177 12.9585 137.221 12.9137 137.277 12.9137H138.532C138.698 12.9137 138.832 12.7794 138.832 12.6137V11.3315C138.832 11.2763 138.877 11.2315 138.932 11.2315H140.188C140.353 11.2315 140.488 11.0972 140.488 10.9315V9.64924C140.488 9.59401 140.533 9.54924 140.588 9.54924H141.843C142.009 9.54924 142.143 9.41492 142.143 9.24924V7.96699C142.143 7.91177 142.188 7.86699 142.243 7.86699H143.385V15.7576C143.385 15.8128 143.34 15.8576 143.285 15.8576L135.521 15.8577ZM143.385 7.44643H142.03C141.864 7.44643 141.73 7.58075 141.73 7.74643V9.02868C141.73 9.08391 141.685 9.12868 141.63 9.12868H140.374C140.208 9.12868 140.074 9.26299 140.074 9.42868V10.7109C140.074 10.7662 140.029 10.8109 139.974 10.8109H138.718C138.553 10.8109 138.418 10.9452 138.418 11.1109V12.3932C138.418 12.4484 138.374 12.4932 138.318 12.4932H137.063C136.897 12.4932 136.763 12.6275 136.763 12.7932V14.0754C136.763 14.1306 136.718 14.1754 136.663 14.1754H135.407C135.241 14.1754 135.107 14.3097 135.107 14.4754V15.8576H133.551C133.496 15.8576 133.451 15.8128 133.451 15.7576V5.86419C133.451 5.80896 133.496 5.76419 133.551 5.76419H143.285C143.34 5.76419 143.385 5.80896 143.385 5.86419V7.44643Z" fill="#A73C4C"/>
<path d="M58.3374 13.3436C58.1718 13.3436 58.0374 13.4779 58.0374 13.6436V18.0436C58.0374 18.2093 58.1718 18.3436 58.3374 18.3436H58.7537H62.7374C62.9031 18.3436 63.0374 18.2093 63.0374 18.0436V14.2185V13.6436C63.0374 13.4779 62.9031 13.3436 62.7374 13.3436H58.3374ZM59.1913 18.1513V17.6744C59.1913 17.6192 59.2361 17.5744 59.2913 17.5744H59.6605C59.8262 17.5744 59.9605 17.4401 59.9605 17.2744V16.9052C59.9605 16.8499 60.0053 16.8052 60.0605 16.8052H60.4298C60.5954 16.8052 60.7298 16.6709 60.7298 16.5052V16.1359C60.7298 16.0807 60.7745 16.0359 60.8298 16.0359H61.199C61.3647 16.0359 61.499 15.9016 61.499 15.7359V15.3667C61.499 15.3115 61.5438 15.2667 61.599 15.2667H61.9682C62.1339 15.2667 62.2682 15.1324 62.2682 14.9667V14.5975C62.2682 14.5422 62.313 14.4975 62.3682 14.4975H62.8451V18.0513C62.8451 18.1065 62.8004 18.1513 62.7451 18.1513L59.1913 18.1513ZM62.8451 14.3052H62.3759C62.2102 14.3052 62.0759 14.4395 62.0759 14.6052V14.9744C62.0759 15.0296 62.0311 15.0744 61.9759 15.0744H61.6067C61.441 15.0744 61.3067 15.2087 61.3067 15.3744V15.7436C61.3067 15.7989 61.2619 15.8436 61.2067 15.8436H60.8374C60.6718 15.8436 60.5374 15.9779 60.5374 16.1436V16.5129C60.5374 16.5681 60.4927 16.6129 60.4374 16.6129H60.0682C59.9025 16.6129 59.7682 16.7472 59.7682 16.9129V17.2821C59.7682 17.3373 59.7234 17.3821 59.6682 17.3821H59.299C59.1333 17.3821 58.999 17.5164 58.999 17.6821V18.1513H58.3298C58.2745 18.1513 58.2298 18.1065 58.2298 18.0513V13.6359C58.2298 13.5807 58.2745 13.5359 58.3298 13.5359H62.7451C62.8004 13.5359 62.8451 13.5807 62.8451 13.6359V14.3052Z" fill="#A73C4C"/>
<path d="M115.568 15.2654V14.28C115.568 14.2558 115.563 14.2319 115.553 14.2098C115.544 14.1877 115.529 14.1679 115.512 14.1518L115.343 13.9954C115.334 13.9872 115.327 13.9773 115.322 13.9663C115.318 13.9552 115.315 13.9433 115.315 13.9312V12.9146C115.315 12.8689 115.333 12.825 115.365 12.7926C115.397 12.7602 115.44 12.7419 115.485 12.7417H116.57C116.637 12.7419 116.702 12.7693 116.749 12.8178C116.797 12.8664 116.824 12.9321 116.824 13.0006V13.9391C116.824 13.9611 116.815 13.9823 116.801 13.9985L116.638 14.1745C116.609 14.2063 116.592 14.2486 116.592 14.2926V15.2654" stroke="#3A3A3A" stroke-width="0.3" stroke-linecap="round"/>
<path d="M116.07 12.3687C116.321 12.3687 116.524 12.1618 116.524 11.9065C116.524 11.6512 116.321 11.4443 116.07 11.4443C115.818 11.4443 115.615 11.6512 115.615 11.9065C115.615 12.1618 115.818 12.3687 116.07 12.3687Z" stroke="#3A3A3A" stroke-width="0.3" stroke-linecap="round"/>
<path d="M117.382 10.8436C117.468 10.8436 117.537 10.9095 117.537 10.9907V15.6966C117.537 15.7778 117.468 15.8436 117.382 15.8436H112.692C112.607 15.8436 112.537 15.7778 112.537 15.6966V10.9907C112.537 10.9095 112.607 10.8436 112.692 10.8436H117.382ZM112.847 15.4495C112.847 15.5047 112.892 15.5495 112.947 15.5495H117.133C117.188 15.5495 117.233 15.5047 117.233 15.4495V11.2377C117.233 11.1825 117.188 11.1377 117.133 11.1377H112.947C112.892 11.1377 112.847 11.1825 112.847 11.2377V15.4495Z" fill="#3A3A3A"/>
<path d="M113.34 12.92C113.293 12.9799 113.205 12.9896 113.145 12.9417C113.085 12.8938 113.076 12.8063 113.123 12.7464L113.679 12.0519C113.705 12.019 113.745 11.9999 113.787 11.9999C113.83 11.9999 113.87 12.019 113.896 12.0519L114.452 12.7464C114.499 12.8063 114.49 12.8938 114.43 12.9417C114.37 12.9896 114.282 12.9799 114.235 12.92L113.866 12.4588C113.826 12.4088 113.749 12.4088 113.709 12.4588L113.34 12.92Z" fill="#3A3A3A"/>
<path d="M114.235 13.7186C114.282 13.6587 114.37 13.649 114.43 13.6969C114.49 13.7448 114.499 13.8323 114.452 13.8922L113.896 14.5867C113.87 14.6196 113.83 14.6387 113.787 14.6387C113.745 14.6387 113.705 14.6196 113.679 14.5867L113.123 13.8922C113.075 13.8323 113.085 13.7448 113.145 13.6969C113.205 13.649 113.292 13.6587 113.34 13.7186L113.709 14.1798C113.749 14.2299 113.826 14.2299 113.866 14.1798L114.235 13.7186Z" fill="#3A3A3A"/>
<path d="M115.568 6.76543V5.78004C115.568 5.75583 115.563 5.73187 115.553 5.70976C115.544 5.68764 115.529 5.66788 115.512 5.65178L115.343 5.49537C115.334 5.48722 115.327 5.47731 115.322 5.46627C115.318 5.45523 115.315 5.4433 115.315 5.43124V4.41456C115.315 4.36886 115.333 4.32502 115.365 4.29263C115.397 4.26024 115.44 4.24193 115.485 4.24173H116.57C116.637 4.24193 116.702 4.2693 116.749 4.31782C116.797 4.36635 116.824 4.43207 116.824 4.50059V5.43906C116.824 5.46109 116.815 5.48226 116.801 5.49849L116.638 5.67446C116.609 5.7063 116.592 5.74861 116.592 5.79255V6.76543" stroke="#3A3A3A" stroke-width="0.3" stroke-linecap="round"/>
<path d="M116.07 3.8687C116.321 3.8687 116.524 3.66176 116.524 3.4065C116.524 3.15124 116.321 2.9443 116.07 2.9443C115.818 2.9443 115.615 3.15124 115.615 3.4065C115.615 3.66176 115.818 3.8687 116.07 3.8687Z" stroke="#3A3A3A" stroke-width="0.3" stroke-linecap="round"/>
<path d="M117.382 2.34363C117.468 2.34363 117.537 2.40947 117.537 2.49068V7.19657C117.537 7.27779 117.468 7.34363 117.382 7.34363H112.692C112.607 7.34363 112.537 7.27779 112.537 7.19657V2.49068C112.537 2.40947 112.607 2.34363 112.692 2.34363H117.382ZM112.847 6.94951C112.847 7.00474 112.892 7.04951 112.947 7.04951H117.133C117.188 7.04951 117.233 7.00474 117.233 6.94951V2.73774C117.233 2.68252 117.188 2.63774 117.133 2.63774H112.947C112.892 2.63774 112.847 2.68252 112.847 2.73774V6.94951Z" fill="#3A3A3A"/>
<path d="M113.34 4.42C113.293 4.4799 113.205 4.48962 113.145 4.4417C113.085 4.39378 113.076 4.30628 113.123 4.24639L113.679 3.55194C113.705 3.519 113.745 3.49986 113.787 3.49986C113.83 3.49986 113.87 3.519 113.896 3.55194L114.452 4.24639C114.499 4.30628 114.49 4.39378 114.43 4.4417C114.37 4.48962 114.282 4.4799 114.235 4.42L113.866 3.9588C113.826 3.90876 113.749 3.90876 113.709 3.9588L113.34 4.42Z" fill="#3A3A3A"/>
<path d="M114.235 5.21861C114.282 5.15871 114.37 5.14899 114.43 5.19691C114.49 5.24483 114.499 5.33232 114.452 5.39222L113.896 6.08666C113.87 6.11961 113.83 6.13875 113.787 6.13875C113.745 6.13875 113.705 6.11961 113.679 6.08666L113.123 5.39222C113.075 5.33232 113.085 5.24483 113.145 5.19691C113.205 5.14899 113.292 5.15871 113.34 5.21861L113.709 5.67981C113.749 5.72985 113.826 5.72985 113.866 5.67981L114.235 5.21861Z" fill="#3A3A3A"/>
<path d="M68.5677 14.7654V13.78C68.5678 13.7558 68.5629 13.7319 68.5532 13.7098C68.5435 13.6877 68.5293 13.6679 68.5115 13.6518L68.3429 13.4954C68.3342 13.4872 68.3272 13.4773 68.3224 13.4663C68.3177 13.4552 68.3152 13.4433 68.3152 13.4312V12.4146C68.3152 12.3689 68.333 12.325 68.3648 12.2926C68.3965 12.2602 68.4396 12.2419 68.4845 12.2417H69.5698C69.6372 12.2419 69.7018 12.2693 69.7495 12.3178C69.7971 12.3664 69.8238 12.4321 69.8238 12.5006V13.4391C69.8236 13.4611 69.8154 13.4823 69.8007 13.4985L69.6383 13.6745C69.6085 13.7063 69.592 13.7486 69.5921 13.7926V14.7654" stroke="#3A3A3A" stroke-width="0.3" stroke-linecap="round"/>
<path d="M69.0695 11.8687C69.3208 11.8687 69.5244 11.6618 69.5244 11.4065C69.5244 11.1512 69.3208 10.9443 69.0695 10.9443C68.8183 10.9443 68.6147 11.1512 68.6147 11.4065C68.6147 11.6618 68.8183 11.8687 69.0695 11.8687Z" stroke="#3A3A3A" stroke-width="0.3" stroke-linecap="round"/>
<path d="M70.3824 10.3436C70.468 10.3436 70.5374 10.4095 70.5374 10.4907V15.1966C70.5374 15.2778 70.468 15.3436 70.3824 15.3436H65.6925C65.6068 15.3436 65.5374 15.2778 65.5374 15.1966V10.4907C65.5374 10.4095 65.6068 10.3436 65.6925 10.3436H70.3824ZM65.8475 14.9495C65.8475 15.0047 65.8922 15.0495 65.9475 15.0495H70.1327C70.1879 15.0495 70.2327 15.0047 70.2327 14.9495V10.7377C70.2327 10.6825 70.1879 10.6377 70.1327 10.6377H65.9475C65.8922 10.6377 65.8475 10.6825 65.8475 10.7377V14.9495Z" fill="#3A3A3A"/>
<path d="M66.3404 12.42C66.2925 12.4799 66.205 12.4896 66.1451 12.4417C66.0852 12.3938 66.0755 12.3063 66.1234 12.2464L66.679 11.5519C66.7053 11.519 66.7453 11.4999 66.7875 11.4999C66.8297 11.4999 66.8696 11.519 66.896 11.5519L67.4515 12.2464C67.4994 12.3063 67.4897 12.3938 67.4298 12.4417C67.3699 12.4896 67.2824 12.4799 67.2345 12.42L66.8656 11.9588C66.8255 11.9088 66.7494 11.9088 66.7094 11.9588L66.3404 12.42Z" fill="#3A3A3A"/>
<path d="M67.2345 13.2186C67.2824 13.1587 67.3699 13.149 67.4298 13.1969C67.4897 13.2448 67.4994 13.3323 67.4515 13.3922L66.8959 14.0867C66.8696 14.1196 66.8296 14.1388 66.7874 14.1388C66.7452 14.1388 66.7053 14.1196 66.6789 14.0867L66.1234 13.3922C66.0754 13.3323 66.0852 13.2448 66.1451 13.1969C66.205 13.149 66.2925 13.1587 66.3404 13.2186L66.7093 13.6798C66.7494 13.7299 66.8255 13.7299 66.8655 13.6798L67.2345 13.2186Z" fill="#3A3A3A"/>
<path d="M3.31245 10.3036H5.11245C5.14911 10.3236 5.17745 10.352 5.19745 10.3886C5.21745 10.422 5.22745 10.4603 5.22745 10.5036C5.22745 10.537 5.22245 10.5703 5.21245 10.6036C5.20578 10.637 5.19245 10.6736 5.17245 10.7136L3.91745 13.3636C3.89745 13.367 3.87745 13.3686 3.85745 13.3686C3.84078 13.3686 3.82245 13.3686 3.80245 13.3686C3.73911 13.3686 3.68411 13.3536 3.63745 13.3236C3.59078 13.2903 3.56745 13.2453 3.56745 13.1886C3.56745 13.1486 3.57578 13.1103 3.59245 13.0736C3.60911 13.0336 3.62911 12.9886 3.65245 12.9386L4.78245 10.6436H3.20245C3.19245 10.627 3.18245 10.6053 3.17245 10.5786C3.16245 10.5486 3.15745 10.517 3.15745 10.4836C3.15745 10.427 3.17078 10.3836 3.19745 10.3536C3.22411 10.3203 3.26245 10.3036 3.31245 10.3036ZM6.79713 13.4086C6.5638 13.4086 6.35713 13.352 6.17713 13.2386C6.00047 13.122 5.86213 12.947 5.76213 12.7136C5.66213 12.477 5.61213 12.1803 5.61213 11.8236C5.61213 11.4403 5.6688 11.1336 5.78213 10.9036C5.89547 10.6736 6.04213 10.507 6.22213 10.4036C6.40213 10.297 6.5938 10.2436 6.79713 10.2436C7.0038 10.2436 7.19713 10.297 7.37713 10.4036C7.56047 10.5103 7.70713 10.6803 7.81713 10.9136C7.93047 11.1436 7.98713 11.447 7.98713 11.8236C7.98713 12.177 7.93713 12.472 7.83713 12.7086C7.73713 12.942 7.59713 13.117 7.41713 13.2336C7.24047 13.3503 7.0338 13.4086 6.79713 13.4086ZM6.79713 13.0686C7.0438 13.0686 7.23547 12.962 7.37213 12.7486C7.5088 12.532 7.57713 12.2236 7.57713 11.8236C7.57713 11.527 7.54047 11.2886 7.46713 11.1086C7.39713 10.9253 7.3038 10.792 7.18713 10.7086C7.07047 10.6253 6.94047 10.5836 6.79713 10.5836C6.65713 10.5836 6.52713 10.627 6.40713 10.7136C6.29047 10.797 6.19713 10.9303 6.12713 11.1136C6.05713 11.297 6.02213 11.5336 6.02213 11.8236C6.02213 12.2236 6.09047 12.532 6.22713 12.7486C6.3638 12.962 6.5538 13.0686 6.79713 13.0686ZM9.47834 12.2236H9.07334V10.6936L8.43334 10.9936C8.39001 10.977 8.35334 10.952 8.32334 10.9186C8.29668 10.8853 8.28334 10.8436 8.28334 10.7936C8.28334 10.697 8.34334 10.6236 8.46334 10.5736L9.16334 10.2686H9.25834C9.32501 10.2686 9.37834 10.2886 9.41834 10.3286C9.45834 10.3686 9.47834 10.422 9.47834 10.4886V12.2236ZM9.07334 12.0236H9.47834V13.3486C9.45834 13.3553 9.43168 13.362 9.39834 13.3686C9.36501 13.3786 9.32834 13.3836 9.28834 13.3836C9.21834 13.3836 9.16501 13.3686 9.12834 13.3386C9.09168 13.3086 9.07334 13.262 9.07334 13.1986V12.0236Z" fill="#A73C4C"/>
<path d="M15.3124 38.3036H17.1124C17.1491 38.3236 17.1774 38.352 17.1974 38.3886C17.2174 38.422 17.2274 38.4603 17.2274 38.5036C17.2274 38.537 17.2224 38.5703 17.2124 38.6036C17.2058 38.637 17.1924 38.6736 17.1724 38.7136L15.9174 41.3636C15.8974 41.367 15.8774 41.3686 15.8574 41.3686C15.8408 41.3686 15.8224 41.3686 15.8024 41.3686C15.7391 41.3686 15.6841 41.3536 15.6374 41.3236C15.5908 41.2903 15.5674 41.2453 15.5674 41.1886C15.5674 41.1486 15.5758 41.1103 15.5924 41.0736C15.6091 41.0336 15.6291 40.9886 15.6524 40.9386L16.7824 38.6436H15.2024C15.1924 38.627 15.1824 38.6053 15.1724 38.5786C15.1624 38.5486 15.1574 38.517 15.1574 38.4836C15.1574 38.427 15.1708 38.3836 15.1974 38.3536C15.2241 38.3203 15.2624 38.3036 15.3124 38.3036ZM18.7971 41.4086C18.5638 41.4086 18.3571 41.352 18.1771 41.2386C18.0005 41.122 17.8621 40.947 17.7621 40.7136C17.6621 40.477 17.6121 40.1803 17.6121 39.8236C17.6121 39.4403 17.6688 39.1336 17.7821 38.9036C17.8955 38.6736 18.0421 38.507 18.2221 38.4036C18.4021 38.297 18.5938 38.2436 18.7971 38.2436C19.0038 38.2436 19.1971 38.297 19.3771 38.4036C19.5605 38.5103 19.7071 38.6803 19.8171 38.9136C19.9305 39.1436 19.9871 39.447 19.9871 39.8236C19.9871 40.177 19.9371 40.472 19.8371 40.7086C19.7371 40.942 19.5971 41.117 19.4171 41.2336C19.2405 41.3503 19.0338 41.4086 18.7971 41.4086ZM18.7971 41.0686C19.0438 41.0686 19.2355 40.962 19.3721 40.7486C19.5088 40.532 19.5771 40.2236 19.5771 39.8236C19.5771 39.527 19.5405 39.2886 19.4671 39.1086C19.3971 38.9253 19.3038 38.792 19.1871 38.7086C19.0705 38.6253 18.9405 38.5836 18.7971 38.5836C18.6571 38.5836 18.5271 38.627 18.4071 38.7136C18.2905 38.797 18.1971 38.9303 18.1271 39.1136C18.0571 39.297 18.0221 39.5336 18.0221 39.8236C18.0221 40.2236 18.0905 40.532 18.2271 40.7486C18.3638 40.962 18.5538 41.0686 18.7971 41.0686ZM20.5373 38.6186C20.5373 38.5586 20.5756 38.5003 20.6523 38.4436C20.729 38.3836 20.8323 38.3353 20.9623 38.2986C21.0923 38.262 21.234 38.2436 21.3873 38.2436C21.6006 38.2436 21.784 38.2803 21.9373 38.3536C22.0906 38.4236 22.209 38.5236 22.2923 38.6536C22.3756 38.7836 22.4173 38.937 22.4173 39.1136C22.4173 39.297 22.3656 39.477 22.2623 39.6536C22.1623 39.8303 21.989 40.032 21.7423 40.2586L20.9273 41.0136H22.4123C22.4256 41.027 22.4373 41.0486 22.4473 41.0786C22.4573 41.1053 22.4623 41.137 22.4623 41.1736C22.4623 41.227 22.4473 41.2686 22.4173 41.2986C22.3906 41.3286 22.354 41.3436 22.3073 41.3436H20.5423C20.509 41.3203 20.484 41.292 20.4673 41.2586C20.4506 41.222 20.4423 41.1836 20.4423 41.1436C20.4423 41.0903 20.4523 41.0436 20.4723 41.0036C20.4923 40.9603 20.5223 40.9203 20.5623 40.8836L21.4623 40.0186C21.669 39.8253 21.8106 39.6636 21.8873 39.5336C21.964 39.4003 22.0023 39.262 22.0023 39.1186C22.0023 38.962 21.949 38.8336 21.8423 38.7336C21.7356 38.6336 21.574 38.5836 21.3573 38.5836C21.2106 38.5836 21.079 38.6086 20.9623 38.6586C20.849 38.7086 20.754 38.762 20.6773 38.8186C20.6406 38.802 20.6073 38.777 20.5773 38.7436C20.5506 38.7103 20.5373 38.6686 20.5373 38.6186Z" fill="#A73C4C"/>
<path d="M25.3124 10.3036H27.1124C27.1491 10.3236 27.1774 10.352 27.1974 10.3886C27.2174 10.422 27.2274 10.4603 27.2274 10.5036C27.2274 10.537 27.2224 10.5703 27.2124 10.6036C27.2058 10.637 27.1924 10.6736 27.1724 10.7136L25.9174 13.3636C25.8974 13.367 25.8774 13.3686 25.8574 13.3686C25.8408 13.3686 25.8224 13.3686 25.8024 13.3686C25.7391 13.3686 25.6841 13.3536 25.6374 13.3236C25.5908 13.2903 25.5674 13.2453 25.5674 13.1886C25.5674 13.1486 25.5758 13.1103 25.5924 13.0736C25.6091 13.0336 25.6291 12.9886 25.6524 12.9386L26.7824 10.6436H25.2024C25.1924 10.627 25.1824 10.6053 25.1724 10.5786C25.1624 10.5486 25.1574 10.517 25.1574 10.4836C25.1574 10.427 25.1708 10.3836 25.1974 10.3536C25.2241 10.3203 25.2624 10.3036 25.3124 10.3036ZM28.7971 13.4086C28.5638 13.4086 28.3571 13.352 28.1771 13.2386C28.0005 13.122 27.8621 12.947 27.7621 12.7136C27.6621 12.477 27.6121 12.1803 27.6121 11.8236C27.6121 11.4403 27.6688 11.1336 27.7821 10.9036C27.8955 10.6736 28.0421 10.507 28.2221 10.4036C28.4021 10.297 28.5938 10.2436 28.7971 10.2436C29.0038 10.2436 29.1971 10.297 29.3771 10.4036C29.5605 10.5103 29.7071 10.6803 29.8171 10.9136C29.9305 11.1436 29.9871 11.447 29.9871 11.8236C29.9871 12.177 29.9371 12.472 29.8371 12.7086C29.7371 12.942 29.5971 13.117 29.4171 13.2336C29.2405 13.3503 29.0338 13.4086 28.7971 13.4086ZM28.7971 13.0686C29.0438 13.0686 29.2355 12.962 29.3721 12.7486C29.5088 12.532 29.5771 12.2236 29.5771 11.8236C29.5771 11.527 29.5405 11.2886 29.4671 11.1086C29.3971 10.9253 29.3038 10.792 29.1871 10.7086C29.0705 10.6253 28.9405 10.5836 28.7971 10.5836C28.6571 10.5836 28.5271 10.627 28.4071 10.7136C28.2905 10.797 28.1971 10.9303 28.1271 11.1136C28.0571 11.297 28.0221 11.5336 28.0221 11.8236C28.0221 12.2236 28.0905 12.532 28.2271 12.7486C28.3638 12.962 28.5538 13.0686 28.7971 13.0686ZM31.3031 10.2386C31.6198 10.2386 31.8748 10.3086 32.0681 10.4486C32.2648 10.5853 32.3631 10.792 32.3631 11.0686C32.3631 11.202 32.3348 11.317 32.2781 11.4136C32.2248 11.507 32.1598 11.5803 32.0831 11.6336C32.0098 11.687 31.9431 11.722 31.8831 11.7386C31.9731 11.7653 32.0614 11.812 32.1481 11.8786C32.2348 11.942 32.3064 12.0253 32.3631 12.1286C32.4231 12.2286 32.4531 12.3503 32.4531 12.4936C32.4531 12.6936 32.4048 12.8603 32.3081 12.9936C32.2114 13.127 32.0781 13.2286 31.9081 13.2986C31.7381 13.3653 31.5414 13.3986 31.3181 13.3986C31.1348 13.3986 30.9714 13.3803 30.8281 13.3436C30.6881 13.3036 30.5781 13.2536 30.4981 13.1936C30.4181 13.1336 30.3781 13.0703 30.3781 13.0036C30.3781 12.957 30.3898 12.917 30.4131 12.8836C30.4398 12.8503 30.4731 12.822 30.5131 12.7986C30.5998 12.8653 30.7048 12.9253 30.8281 12.9786C30.9548 13.032 31.1181 13.0586 31.3181 13.0586C31.5381 13.0586 31.7164 13.012 31.8531 12.9186C31.9898 12.822 32.0581 12.677 32.0581 12.4836C32.0581 12.3136 31.9948 12.177 31.8681 12.0736C31.7414 11.9703 31.5581 11.9186 31.3181 11.9186H30.9031C30.8898 11.902 30.8781 11.8786 30.8681 11.8486C30.8581 11.8153 30.8531 11.782 30.8531 11.7486C30.8531 11.712 30.8581 11.6786 30.8681 11.6486C30.8781 11.6186 30.8898 11.5953 30.9031 11.5786H31.2831C31.5298 11.5786 31.7048 11.5336 31.8081 11.4436C31.9148 11.3503 31.9681 11.2286 31.9681 11.0786C31.9681 10.9153 31.9081 10.792 31.7881 10.7086C31.6681 10.622 31.5048 10.5786 31.2981 10.5786C31.1381 10.5786 30.9964 10.6036 30.8731 10.6536C30.7531 10.7003 30.6531 10.752 30.5731 10.8086C30.5398 10.792 30.5098 10.7653 30.4831 10.7286C30.4564 10.692 30.4431 10.652 30.4431 10.6086C30.4431 10.5486 30.4814 10.4903 30.5581 10.4336C30.6348 10.377 30.7381 10.3303 30.8681 10.2936C30.9981 10.257 31.1431 10.2386 31.3031 10.2386Z" fill="#A73C4C"/>
<path d="M94.3125 31.3036H96.1125C96.1491 31.3236 96.1775 31.352 96.1975 31.3886C96.2175 31.422 96.2275 31.4603 96.2275 31.5036C96.2275 31.537 96.2225 31.5703 96.2125 31.6036C96.2058 31.637 96.1925 31.6736 96.1725 31.7136L94.9175 34.3636C94.8975 34.367 94.8775 34.3686 94.8575 34.3686C94.8408 34.3686 94.8225 34.3686 94.8025 34.3686C94.7391 34.3686 94.6841 34.3536 94.6375 34.3236C94.5908 34.2903 94.5675 34.2453 94.5675 34.1886C94.5675 34.1486 94.5758 34.1103 94.5925 34.0736C94.6091 34.0336 94.6291 33.9886 94.6525 33.9386L95.7825 31.6436H94.2025C94.1925 31.627 94.1825 31.6053 94.1725 31.5786C94.1625 31.5486 94.1575 31.517 94.1575 31.4836C94.1575 31.427 94.1708 31.3836 94.1975 31.3536C94.2241 31.3203 94.2625 31.3036 94.3125 31.3036ZM97.7972 34.4086C97.5638 34.4086 97.3572 34.352 97.1772 34.2386C97.0005 34.122 96.8622 33.947 96.7622 33.7136C96.6622 33.477 96.6122 33.1803 96.6122 32.8236C96.6122 32.4403 96.6688 32.1336 96.7822 31.9036C96.8955 31.6736 97.0422 31.507 97.2222 31.4036C97.4022 31.297 97.5938 31.2436 97.7972 31.2436C98.0038 31.2436 98.1972 31.297 98.3772 31.4036C98.5605 31.5103 98.7072 31.6803 98.8172 31.9136C98.9305 32.1436 98.9872 32.447 98.9872 32.8236C98.9872 33.177 98.9372 33.472 98.8372 33.7086C98.7372 33.942 98.5972 34.117 98.4172 34.2336C98.2405 34.3503 98.0338 34.4086 97.7972 34.4086ZM97.7972 34.0686C98.0438 34.0686 98.2355 33.962 98.3722 33.7486C98.5088 33.532 98.5772 33.2236 98.5772 32.8236C98.5772 32.527 98.5405 32.2886 98.4672 32.1086C98.3972 31.9253 98.3038 31.792 98.1872 31.7086C98.0705 31.6253 97.9405 31.5836 97.7972 31.5836C97.6572 31.5836 97.5272 31.627 97.4072 31.7136C97.2905 31.797 97.1972 31.9303 97.1272 32.1136C97.0572 32.297 97.0222 32.5336 97.0222 32.8236C97.0222 33.2236 97.0905 33.532 97.2272 33.7486C97.3638 33.962 97.5538 34.0686 97.7972 34.0686ZM100.682 34.4086C100.456 34.4086 100.257 34.3753 100.087 34.3086C99.9172 34.2386 99.7855 34.1386 99.6922 34.0086C99.5989 33.8786 99.5522 33.722 99.5522 33.5386C99.5522 33.3753 99.5889 33.237 99.6622 33.1236C99.7389 33.007 99.8355 32.9136 99.9522 32.8436C100.069 32.7736 100.191 32.727 100.317 32.7036L100.617 32.6536C100.857 32.607 101.037 32.5386 101.157 32.4486C101.277 32.3553 101.337 32.232 101.337 32.0786C101.337 31.922 101.279 31.8003 101.162 31.7136C101.046 31.6236 100.886 31.5786 100.682 31.5786C100.486 31.5786 100.327 31.6236 100.207 31.7136C100.087 31.8036 100.027 31.9236 100.027 32.0736C100.027 32.2003 100.061 32.302 100.127 32.3786C100.197 32.4553 100.289 32.5136 100.402 32.5536C100.519 32.5903 100.646 32.6153 100.782 32.6286L101.002 32.7036C101.139 32.7303 101.269 32.7786 101.392 32.8486C101.516 32.9153 101.616 33.0053 101.692 33.1186C101.769 33.232 101.807 33.3736 101.807 33.5436C101.807 33.7236 101.759 33.8786 101.662 34.0086C101.569 34.1386 101.437 34.2386 101.267 34.3086C101.101 34.3753 100.906 34.4086 100.682 34.4086ZM100.682 34.0736C100.899 34.0736 101.074 34.027 101.207 33.9336C101.341 33.8403 101.407 33.7053 101.407 33.5286C101.407 33.3353 101.326 33.182 101.162 33.0686C101.002 32.9553 100.787 32.8903 100.517 32.8736L100.262 32.7986C100.069 32.7453 99.9139 32.6586 99.7972 32.5386C99.6839 32.4186 99.6272 32.262 99.6272 32.0686C99.6272 31.8986 99.6705 31.752 99.7572 31.6286C99.8472 31.5053 99.9705 31.4103 100.127 31.3436C100.287 31.277 100.472 31.2436 100.682 31.2436C101.009 31.2436 101.266 31.3186 101.452 31.4686C101.642 31.6153 101.737 31.8186 101.737 32.0786C101.737 32.2886 101.666 32.4536 101.522 32.5736C101.382 32.6936 101.211 32.772 101.007 32.8086L100.667 32.8786C100.454 32.912 100.281 32.9853 100.147 33.0986C100.017 33.2086 99.9522 33.3536 99.9522 33.5336C99.9522 33.7036 100.017 33.837 100.147 33.9336C100.277 34.027 100.456 34.0736 100.682 34.0736Z" fill="#A73C4C"/>
<path d="M154.312 31.3036H156.112C156.149 31.3236 156.177 31.352 156.197 31.3886C156.217 31.422 156.227 31.4603 156.227 31.5036C156.227 31.537 156.222 31.5703 156.212 31.6036C156.206 31.637 156.192 31.6736 156.172 31.7136L154.917 34.3636C154.897 34.367 154.877 34.3686 154.857 34.3686C154.841 34.3686 154.822 34.3686 154.802 34.3686C154.739 34.3686 154.684 34.3536 154.637 34.3236C154.591 34.2903 154.567 34.2453 154.567 34.1886C154.567 34.1486 154.576 34.1103 154.592 34.0736C154.609 34.0336 154.629 33.9886 154.652 33.9386L155.782 31.6436H154.202C154.192 31.627 154.182 31.6053 154.172 31.5786C154.162 31.5486 154.157 31.517 154.157 31.4836C154.157 31.427 154.171 31.3836 154.197 31.3536C154.224 31.3203 154.262 31.3036 154.312 31.3036ZM157.798 33.2236H157.393V31.6936L156.753 31.9936C156.709 31.977 156.673 31.952 156.643 31.9186C156.616 31.8853 156.603 31.8436 156.603 31.7936C156.603 31.697 156.663 31.6236 156.783 31.5736L157.483 31.2686H157.578C157.644 31.2686 157.698 31.2886 157.738 31.3286C157.778 31.3686 157.798 31.422 157.798 31.4886V33.2236ZM157.393 33.0236H157.798V34.3486C157.778 34.3553 157.751 34.362 157.718 34.3686C157.684 34.3786 157.648 34.3836 157.608 34.3836C157.538 34.3836 157.484 34.3686 157.448 34.3386C157.411 34.3086 157.393 34.262 157.393 34.1986V33.0236ZM158.649 31.6186C158.649 31.5586 158.687 31.5003 158.764 31.4436C158.84 31.3836 158.944 31.3353 159.074 31.2986C159.204 31.262 159.345 31.2436 159.499 31.2436C159.712 31.2436 159.895 31.2803 160.049 31.3536C160.202 31.4236 160.32 31.5236 160.404 31.6536C160.487 31.7836 160.529 31.937 160.529 32.1136C160.529 32.297 160.477 32.477 160.374 32.6536C160.274 32.8303 160.1 33.032 159.854 33.2586L159.039 34.0136H160.524C160.537 34.027 160.549 34.0486 160.559 34.0786C160.569 34.1053 160.574 34.137 160.574 34.1736C160.574 34.227 160.559 34.2686 160.529 34.2986C160.502 34.3286 160.465 34.3436 160.419 34.3436H158.654C158.62 34.3203 158.595 34.292 158.579 34.2586C158.562 34.222 158.554 34.1836 158.554 34.1436C158.554 34.0903 158.564 34.0436 158.584 34.0036C158.604 33.9603 158.634 33.9203 158.674 33.8836L159.574 33.0186C159.78 32.8253 159.922 32.6636 159.999 32.5336C160.075 32.4003 160.114 32.262 160.114 32.1186C160.114 31.962 160.06 31.8336 159.954 31.7336C159.847 31.6336 159.685 31.5836 159.469 31.5836C159.322 31.5836 159.19 31.6086 159.074 31.6586C158.96 31.7086 158.865 31.762 158.789 31.8186C158.752 31.802 158.719 31.777 158.689 31.7436C158.662 31.7103 158.649 31.6686 158.649 31.6186Z" fill="#A73C4C"/>
<path d="M128.312 31.3036H130.112C130.149 31.3236 130.177 31.352 130.197 31.3886C130.217 31.422 130.227 31.4603 130.227 31.5036C130.227 31.537 130.222 31.5703 130.212 31.6036C130.206 31.637 130.192 31.6736 130.172 31.7136L128.917 34.3636C128.897 34.367 128.877 34.3686 128.857 34.3686C128.841 34.3686 128.822 34.3686 128.802 34.3686C128.739 34.3686 128.684 34.3536 128.637 34.3236C128.591 34.2903 128.567 34.2453 128.567 34.1886C128.567 34.1486 128.576 34.1103 128.592 34.0736C128.609 34.0336 128.629 33.9886 128.652 33.9386L129.782 31.6436H128.202C128.192 31.627 128.182 31.6053 128.172 31.5786C128.162 31.5486 128.157 31.517 128.157 31.4836C128.157 31.427 128.171 31.3836 128.197 31.3536C128.224 31.3203 128.262 31.3036 128.312 31.3036ZM131.798 33.2236H131.393V31.6936L130.753 31.9936C130.709 31.977 130.673 31.952 130.643 31.9186C130.616 31.8853 130.603 31.8436 130.603 31.7936C130.603 31.697 130.663 31.6236 130.783 31.5736L131.483 31.2686H131.578C131.644 31.2686 131.698 31.2886 131.738 31.3286C131.778 31.3686 131.798 31.422 131.798 31.4886V33.2236ZM131.393 33.0236H131.798V34.3486C131.778 34.3553 131.751 34.362 131.718 34.3686C131.684 34.3786 131.648 34.3836 131.608 34.3836C131.538 34.3836 131.484 34.3686 131.448 34.3386C131.411 34.3086 131.393 34.262 131.393 34.1986V33.0236ZM133.77 34.4086C133.536 34.4086 133.33 34.352 133.15 34.2386C132.973 34.122 132.835 33.947 132.735 33.7136C132.635 33.477 132.585 33.1803 132.585 32.8236C132.585 32.4403 132.641 32.1336 132.755 31.9036C132.868 31.6736 133.015 31.507 133.195 31.4036C133.375 31.297 133.566 31.2436 133.77 31.2436C133.976 31.2436 134.17 31.297 134.35 31.4036C134.533 31.5103 134.68 31.6803 134.79 31.9136C134.903 32.1436 134.96 32.447 134.96 32.8236C134.96 33.177 134.91 33.472 134.81 33.7086C134.71 33.942 134.57 34.117 134.39 34.2336C134.213 34.3503 134.006 34.4086 133.77 34.4086ZM133.77 34.0686C134.016 34.0686 134.208 33.962 134.345 33.7486C134.481 33.532 134.55 33.2236 134.55 32.8236C134.55 32.527 134.513 32.2886 134.44 32.1086C134.37 31.9253 134.276 31.792 134.16 31.7086C134.043 31.6253 133.913 31.5836 133.77 31.5836C133.63 31.5836 133.5 31.627 133.38 31.7136C133.263 31.797 133.17 31.9303 133.1 32.1136C133.03 32.297 132.995 32.5336 132.995 32.8236C132.995 33.2236 133.063 33.532 133.2 33.7486C133.336 33.962 133.526 34.0686 133.77 34.0686Z" fill="#A73C4C"/>
<path d="M46.3124 38.3036H48.1124C48.1491 38.3236 48.1774 38.352 48.1974 38.3886C48.2174 38.422 48.2274 38.4603 48.2274 38.5036C48.2274 38.537 48.2224 38.5703 48.2124 38.6036C48.2058 38.637 48.1924 38.6736 48.1724 38.7136L46.9174 41.3636C46.8974 41.367 46.8774 41.3686 46.8574 41.3686C46.8408 41.3686 46.8224 41.3686 46.8024 41.3686C46.7391 41.3686 46.6841 41.3536 46.6374 41.3236C46.5908 41.2903 46.5674 41.2453 46.5674 41.1886C46.5674 41.1486 46.5758 41.1103 46.5924 41.0736C46.6091 41.0336 46.6291 40.9886 46.6524 40.9386L47.7824 38.6436H46.2024C46.1924 38.627 46.1824 38.6053 46.1724 38.5786C46.1624 38.5486 46.1574 38.517 46.1574 38.4836C46.1574 38.427 46.1708 38.3836 46.1974 38.3536C46.2241 38.3203 46.2624 38.3036 46.3124 38.3036ZM49.7971 41.4086C49.5638 41.4086 49.3571 41.352 49.1771 41.2386C49.0005 41.122 48.8621 40.947 48.7621 40.7136C48.6621 40.477 48.6121 40.1803 48.6121 39.8236C48.6121 39.4403 48.6688 39.1336 48.7821 38.9036C48.8955 38.6736 49.0421 38.507 49.2221 38.4036C49.4021 38.297 49.5938 38.2436 49.7971 38.2436C50.0038 38.2436 50.1971 38.297 50.3771 38.4036C50.5605 38.5103 50.7071 38.6803 50.8171 38.9136C50.9305 39.1436 50.9871 39.447 50.9871 39.8236C50.9871 40.177 50.9371 40.472 50.8371 40.7086C50.7371 40.942 50.5971 41.117 50.4171 41.2336C50.2405 41.3503 50.0338 41.4086 49.7971 41.4086ZM49.7971 41.0686C50.0438 41.0686 50.2355 40.962 50.3721 40.7486C50.5088 40.532 50.5771 40.2236 50.5771 39.8236C50.5771 39.527 50.5405 39.2886 50.4671 39.1086C50.3971 38.9253 50.3038 38.792 50.1871 38.7086C50.0705 38.6253 49.9405 38.5836 49.7971 38.5836C49.6571 38.5836 49.5271 38.627 49.4071 38.7136C49.2905 38.797 49.1971 38.9303 49.1271 39.1136C49.0571 39.297 49.0221 39.5336 49.0221 39.8236C49.0221 40.2236 49.0905 40.532 49.2271 40.7486C49.3638 40.962 49.5538 41.0686 49.7971 41.0686ZM51.4416 40.2286L52.8966 38.2986C52.9266 38.292 52.9599 38.287 52.9966 38.2836C53.0366 38.277 53.0716 38.2736 53.1016 38.2736C53.1483 38.2736 53.1916 38.2803 53.2316 38.2936C53.2749 38.307 53.3099 38.332 53.3366 38.3686C53.3633 38.402 53.3766 38.452 53.3766 38.5186V40.2686H53.8766C53.8866 40.2853 53.8966 40.3086 53.9066 40.3386C53.9166 40.3653 53.9216 40.397 53.9216 40.4336C53.9216 40.487 53.9083 40.5286 53.8816 40.5586C53.8549 40.5886 53.8166 40.6036 53.7666 40.6036H53.3766V41.3536C53.3599 41.357 53.3349 41.362 53.3016 41.3686C53.2716 41.3786 53.2383 41.3836 53.2016 41.3836C53.1316 41.3836 53.0783 41.3686 53.0416 41.3386C53.0049 41.3086 52.9866 41.2653 52.9866 41.2086V40.6036H51.5416C51.5083 40.587 51.4783 40.557 51.4516 40.5136C51.4283 40.4703 51.4166 40.422 51.4166 40.3686C51.4166 40.3386 51.4183 40.3136 51.4216 40.2936C51.4283 40.2703 51.4349 40.2486 51.4416 40.2286ZM52.9916 40.2686L53.0016 38.6936H52.9916L51.8816 40.2686H52.9916Z" fill="#A73C4C"/>
<path d="M76.0774 37.6186L76.0774 39.4186C76.0574 39.4553 76.0291 39.4836 75.9924 39.5036C75.9591 39.5236 75.9208 39.5336 75.8774 39.5336C75.8441 39.5336 75.8108 39.5286 75.7774 39.5186C75.7441 39.512 75.7074 39.4986 75.6674 39.4786L73.0174 38.2236C73.0141 38.2036 73.0124 38.1836 73.0124 38.1636C73.0124 38.147 73.0124 38.1286 73.0124 38.1086C73.0124 38.0453 73.0274 37.9903 73.0574 37.9436C73.0908 37.897 73.1358 37.8736 73.1924 37.8736C73.2324 37.8736 73.2708 37.882 73.3074 37.8986C73.3474 37.9153 73.3924 37.9353 73.4424 37.9586L75.7374 39.0886L75.7374 37.5086C75.7541 37.4986 75.7758 37.4886 75.8024 37.4786C75.8324 37.4686 75.8641 37.4636 75.8974 37.4636C75.9541 37.4636 75.9974 37.477 76.0274 37.5036C76.0608 37.5303 76.0774 37.5686 76.0774 37.6186ZM72.9724 41.1033C72.9724 40.87 73.0291 40.6633 73.1424 40.4833C73.2591 40.3066 73.4341 40.1683 73.6674 40.0683C73.9041 39.9683 74.2008 39.9183 74.5574 39.9183C74.9408 39.9183 75.2474 39.975 75.4774 40.0883C75.7074 40.2016 75.8741 40.3483 75.9774 40.5283C76.0841 40.7083 76.1374 40.9 76.1374 41.1033C76.1374 41.31 76.0841 41.5033 75.9774 41.6833C75.8708 41.8666 75.7008 42.0133 75.4674 42.1233C75.2374 42.2366 74.9341 42.2933 74.5574 42.2933C74.2041 42.2933 73.9091 42.2433 73.6724 42.1433C73.4391 42.0433 73.2641 41.9033 73.1474 41.7233C73.0308 41.5466 72.9724 41.34 72.9724 41.1033ZM73.3124 41.1033C73.3124 41.35 73.4191 41.5416 73.6324 41.6783C73.8491 41.815 74.1574 41.8833 74.5574 41.8833C74.8541 41.8833 75.0924 41.8466 75.2724 41.7733C75.4558 41.7033 75.5891 41.61 75.6724 41.4933C75.7558 41.3766 75.7974 41.2466 75.7974 41.1033C75.7974 40.9633 75.7541 40.8333 75.6674 40.7133C75.5841 40.5966 75.4508 40.5033 75.2674 40.4333C75.0841 40.3633 74.8474 40.3283 74.5574 40.3283C74.1574 40.3283 73.8491 40.3966 73.6324 40.5333C73.4191 40.67 73.3124 40.86 73.3124 41.1033ZM75.8424 44.8384C75.8024 44.8384 75.7641 44.8267 75.7274 44.8034C75.6941 44.7834 75.6691 44.7567 75.6524 44.7234C75.6891 44.65 75.7208 44.5667 75.7474 44.4734C75.7774 44.3834 75.7924 44.285 75.7924 44.1784C75.7924 43.9184 75.6991 43.6984 75.5124 43.5184C75.3258 43.3417 75.0341 43.2484 74.6374 43.2384C74.7041 43.305 74.7741 43.4067 74.8474 43.5434C74.9241 43.6834 74.9624 43.855 74.9624 44.0584C74.9624 44.3517 74.8791 44.5934 74.7124 44.7834C74.5458 44.9734 74.2991 45.0684 73.9724 45.0684C73.7658 45.0684 73.5874 45.0234 73.4374 44.9334C73.2874 44.8467 73.1724 44.7234 73.0924 44.5634C73.0124 44.4067 72.9724 44.22 72.9724 44.0034C72.9724 43.78 73.0224 43.58 73.1224 43.4034C73.2258 43.2267 73.3858 43.0867 73.6024 42.9834C73.8224 42.8834 74.1091 42.8334 74.4624 42.8334C74.7758 42.8334 75.0391 42.87 75.2524 42.9434C75.4691 43.02 75.6408 43.1217 75.7674 43.2484C75.8974 43.375 75.9908 43.5184 76.0474 43.6784C76.1074 43.8384 76.1374 44.0017 76.1374 44.1684C76.1374 44.285 76.1258 44.3934 76.1024 44.4934C76.0791 44.5967 76.0458 44.68 76.0024 44.7434C75.9591 44.8067 75.9058 44.8384 75.8424 44.8384ZM73.3074 44.0034C73.3074 44.1967 73.3658 44.355 73.4824 44.4784C73.6024 44.6017 73.7691 44.6634 73.9824 44.6634C74.1991 44.6634 74.3591 44.6 74.4624 44.4734C74.5691 44.35 74.6224 44.1967 74.6224 44.0134C74.6224 43.83 74.5824 43.6717 74.5024 43.5384C74.4258 43.405 74.3324 43.3 74.2224 43.2234L74.2574 43.2384C73.9741 43.2384 73.7441 43.305 73.5674 43.4384C73.3941 43.5717 73.3074 43.76 73.3074 44.0034Z" fill="#A73C4C"/>
<path d="M65.2574 20.9116H66.6974C66.7268 20.9276 66.7494 20.9503 66.7654 20.9796C66.7814 21.0063 66.7894 21.037 66.7894 21.0716C66.7894 21.0983 66.7854 21.125 66.7774 21.1516C66.7721 21.1783 66.7614 21.2076 66.7454 21.2396L65.7414 23.3596C65.7254 23.3623 65.7094 23.3636 65.6934 23.3636C65.6801 23.3636 65.6654 23.3636 65.6494 23.3636C65.5988 23.3636 65.5548 23.3516 65.5174 23.3276C65.4801 23.301 65.4614 23.265 65.4614 23.2196C65.4614 23.1876 65.4681 23.157 65.4814 23.1276C65.4948 23.0956 65.5108 23.0596 65.5294 23.0196L66.4334 21.1836H65.1694C65.1614 21.1703 65.1534 21.153 65.1454 21.1316C65.1374 21.1076 65.1334 21.0823 65.1334 21.0556C65.1334 21.0103 65.1441 20.9756 65.1654 20.9516C65.1868 20.925 65.2174 20.9116 65.2574 20.9116ZM68.0452 23.3956C67.8585 23.3956 67.6932 23.3503 67.5492 23.2596C67.4079 23.1663 67.2972 23.0263 67.2172 22.8396C67.1372 22.6503 67.0972 22.413 67.0972 22.1276C67.0972 21.821 67.1425 21.5756 67.2332 21.3916C67.3239 21.2076 67.4412 21.0743 67.5852 20.9916C67.7292 20.9063 67.8825 20.8636 68.0452 20.8636C68.2105 20.8636 68.3652 20.9063 68.5092 20.9916C68.6559 21.077 68.7732 21.213 68.8612 21.3996C68.9519 21.5836 68.9972 21.8263 68.9972 22.1276C68.9972 22.4103 68.9572 22.6463 68.8772 22.8356C68.7972 23.0223 68.6852 23.1623 68.5412 23.2556C68.3999 23.349 68.2345 23.3956 68.0452 23.3956ZM68.0452 23.1236C68.2425 23.1236 68.3959 23.0383 68.5052 22.8676C68.6145 22.6943 68.6692 22.4476 68.6692 22.1276C68.6692 21.8903 68.6399 21.6996 68.5812 21.5556C68.5252 21.409 68.4505 21.3023 68.3572 21.2356C68.2639 21.169 68.1599 21.1356 68.0452 21.1356C67.9332 21.1356 67.8292 21.1703 67.7332 21.2396C67.6399 21.3063 67.5652 21.413 67.5092 21.5596C67.4532 21.7063 67.4252 21.8956 67.4252 22.1276C67.4252 22.4476 67.4799 22.6943 67.5892 22.8676C67.6985 23.0383 67.8505 23.1236 68.0452 23.1236ZM70.0292 20.9116L69.9212 21.1476L69.8532 21.9036C69.8986 21.8796 69.9612 21.857 70.0412 21.8356C70.1239 21.8116 70.2106 21.7996 70.3012 21.7996C70.4612 21.7996 70.6052 21.8303 70.7332 21.8916C70.8612 21.9503 70.9626 22.0383 71.0372 22.1556C71.1146 22.2703 71.1532 22.413 71.1532 22.5836C71.1532 22.7383 71.1172 22.877 71.0452 22.9996C70.9759 23.1223 70.8732 23.2196 70.7372 23.2916C70.6039 23.361 70.4399 23.3956 70.2452 23.3956C70.0932 23.3956 69.9599 23.3783 69.8452 23.3436C69.7306 23.309 69.6412 23.2663 69.5772 23.2156C69.5132 23.165 69.4812 23.1156 69.4812 23.0676C69.4812 23.025 69.4946 22.9876 69.5212 22.9556C69.5506 22.9236 69.5799 22.9023 69.6092 22.8916C69.6679 22.9423 69.7506 22.9943 69.8572 23.0476C69.9639 23.101 70.0932 23.1276 70.2452 23.1276C70.4292 23.1276 70.5719 23.077 70.6732 22.9756C70.7746 22.8716 70.8252 22.741 70.8252 22.5836C70.8252 22.421 70.7732 22.2943 70.6692 22.2036C70.5652 22.113 70.4292 22.0676 70.2612 22.0676C70.1679 22.0676 70.0826 22.0823 70.0052 22.1116C69.9279 22.141 69.8559 22.1743 69.7892 22.2116C69.7172 22.2063 69.6586 22.185 69.6132 22.1476C69.5706 22.1076 69.5492 22.057 69.5492 21.9956C69.5492 21.9796 69.5492 21.9596 69.5492 21.9356C69.5519 21.909 69.5546 21.8836 69.5572 21.8596L69.6252 21.0956C69.6306 21.0396 69.6479 20.9956 69.6772 20.9636C69.7066 20.929 69.7492 20.9116 69.8052 20.9116H70.0292ZM69.8612 21.1836V20.9116H71.0292C71.0372 20.9223 71.0452 20.9396 71.0532 20.9636C71.0612 20.9876 71.0652 21.013 71.0652 21.0396C71.0652 21.0823 71.0546 21.117 71.0332 21.1436C71.0119 21.1703 70.9812 21.1836 70.9412 21.1836H69.8612Z" fill="#A73C4C"/>
<path d="M81.3124 7.30363H83.1124C83.1491 7.32363 83.1774 7.35196 83.1974 7.38863C83.2174 7.42196 83.2274 7.46029 83.2274 7.50363C83.2274 7.53696 83.2224 7.57029 83.2124 7.60363C83.2058 7.63696 83.1924 7.67363 83.1724 7.71363L81.9174 10.3636C81.8974 10.367 81.8774 10.3686 81.8574 10.3686C81.8408 10.3686 81.8224 10.3686 81.8024 10.3686C81.7391 10.3686 81.6841 10.3536 81.6374 10.3236C81.5908 10.2903 81.5674 10.2453 81.5674 10.1886C81.5674 10.1486 81.5758 10.1103 81.5924 10.0736C81.6091 10.0336 81.6291 9.98863 81.6524 9.93863L82.7824 7.64363H81.2024C81.1924 7.62696 81.1824 7.60529 81.1724 7.57863C81.1624 7.54863 81.1574 7.51696 81.1574 7.48363C81.1574 7.42696 81.1708 7.38363 81.1974 7.35363C81.2241 7.32029 81.2624 7.30363 81.3124 7.30363ZM84.7971 10.4086C84.5638 10.4086 84.3571 10.352 84.1771 10.2386C84.0005 10.122 83.8621 9.94696 83.7621 9.71363C83.6621 9.47696 83.6121 9.18029 83.6121 8.82363C83.6121 8.44029 83.6688 8.13363 83.7821 7.90363C83.8955 7.67363 84.0421 7.50696 84.2221 7.40363C84.4021 7.29696 84.5938 7.24363 84.7971 7.24363C85.0038 7.24363 85.1971 7.29696 85.3771 7.40363C85.5605 7.51029 85.7071 7.68029 85.8171 7.91363C85.9305 8.14363 85.9871 8.44696 85.9871 8.82363C85.9871 9.17696 85.9371 9.47196 85.8371 9.70863C85.7371 9.94196 85.5971 10.117 85.4171 10.2336C85.2405 10.3503 85.0338 10.4086 84.7971 10.4086ZM84.7971 10.0686C85.0438 10.0686 85.2355 9.96196 85.3721 9.74863C85.5088 9.53196 85.5771 9.22363 85.5771 8.82363C85.5771 8.52696 85.5405 8.28863 85.4671 8.10863C85.3971 7.92529 85.3038 7.79196 85.1871 7.70863C85.0705 7.62529 84.9405 7.58363 84.7971 7.58363C84.6571 7.58363 84.5271 7.62696 84.4071 7.71363C84.2905 7.79696 84.1971 7.93029 84.1271 8.11363C84.0571 8.29696 84.0221 8.53363 84.0221 8.82363C84.0221 9.22363 84.0905 9.53196 84.2271 9.74863C84.3638 9.96196 84.5538 10.0686 84.7971 10.0686ZM86.4736 7.30363L88.2736 7.30363C88.3102 7.32363 88.3386 7.35196 88.3586 7.38863C88.3786 7.42196 88.3886 7.46029 88.3886 7.50363C88.3886 7.53696 88.3836 7.57029 88.3736 7.60363C88.3669 7.63696 88.3536 7.67363 88.3336 7.71363L87.0786 10.3636C87.0586 10.367 87.0386 10.3686 87.0186 10.3686C87.0019 10.3686 86.9836 10.3686 86.9636 10.3686C86.9002 10.3686 86.8452 10.3536 86.7986 10.3236C86.7519 10.2903 86.7286 10.2453 86.7286 10.1886C86.7286 10.1486 86.7369 10.1103 86.7536 10.0736C86.7702 10.0336 86.7902 9.98863 86.8136 9.93863L87.9436 7.64363L86.3636 7.64363C86.3536 7.62696 86.3436 7.60529 86.3336 7.57863C86.3236 7.54863 86.3186 7.51696 86.3186 7.48363C86.3186 7.42696 86.3319 7.38363 86.3586 7.35363C86.3852 7.32029 86.4236 7.30363 86.4736 7.30363Z" fill="#A73C4C"/>
<path d="M94.3125 7.30363H96.1125C96.1491 7.32363 96.1775 7.35196 96.1975 7.38863C96.2175 7.42196 96.2275 7.46029 96.2275 7.50363C96.2275 7.53696 96.2225 7.57029 96.2125 7.60363C96.2058 7.63696 96.1925 7.67363 96.1725 7.71363L94.9175 10.3636C94.8975 10.367 94.8775 10.3686 94.8575 10.3686C94.8408 10.3686 94.8225 10.3686 94.8025 10.3686C94.7391 10.3686 94.6841 10.3536 94.6375 10.3236C94.5908 10.2903 94.5675 10.2453 94.5675 10.1886C94.5675 10.1486 94.5758 10.1103 94.5925 10.0736C94.6091 10.0336 94.6291 9.98863 94.6525 9.93863L95.7825 7.64363H94.2025C94.1925 7.62696 94.1825 7.60529 94.1725 7.57863C94.1625 7.54863 94.1575 7.51696 94.1575 7.48363C94.1575 7.42696 94.1708 7.38363 94.1975 7.35363C94.2241 7.32029 94.2625 7.30363 94.3125 7.30363ZM97.7972 10.4086C97.5638 10.4086 97.3572 10.352 97.1772 10.2386C97.0005 10.122 96.8622 9.94696 96.7622 9.71363C96.6622 9.47696 96.6122 9.18029 96.6122 8.82363C96.6122 8.44029 96.6688 8.13363 96.7822 7.90363C96.8955 7.67363 97.0422 7.50696 97.2222 7.40363C97.4022 7.29696 97.5938 7.24363 97.7972 7.24363C98.0038 7.24363 98.1972 7.29696 98.3772 7.40363C98.5605 7.51029 98.7072 7.68029 98.8172 7.91363C98.9305 8.14363 98.9872 8.44696 98.9872 8.82363C98.9872 9.17696 98.9372 9.47196 98.8372 9.70863C98.7372 9.94196 98.5972 10.117 98.4172 10.2336C98.2405 10.3503 98.0338 10.4086 97.7972 10.4086ZM97.7972 10.0686C98.0438 10.0686 98.2355 9.96196 98.3722 9.74863C98.5088 9.53196 98.5772 9.22363 98.5772 8.82363C98.5772 8.52696 98.5405 8.28863 98.4672 8.10863C98.3972 7.92529 98.3038 7.79196 98.1872 7.70863C98.0705 7.62529 97.9405 7.58363 97.7972 7.58363C97.6572 7.58363 97.5272 7.62696 97.4072 7.71363C97.2905 7.79696 97.1972 7.93029 97.1272 8.11363C97.0572 8.29696 97.0222 8.53363 97.0222 8.82363C97.0222 9.22363 97.0905 9.53196 97.2272 9.74863C97.3638 9.96196 97.5538 10.0686 97.7972 10.0686ZM99.6428 10.0986C99.6428 10.0586 99.6528 10.0203 99.6728 9.98363C99.6961 9.94696 99.7245 9.92029 99.7578 9.90363C99.8211 9.94029 99.9028 9.97696 100.003 10.0136C100.106 10.047 100.228 10.0636 100.368 10.0636C100.541 10.0636 100.699 10.027 100.843 9.95363C100.986 9.88029 101.101 9.76029 101.188 9.59363C101.274 9.42363 101.318 9.20029 101.318 8.92363C101.288 8.95696 101.238 8.99863 101.168 9.04863C101.101 9.09529 101.016 9.13696 100.913 9.17363C100.809 9.21029 100.689 9.22863 100.553 9.22863C100.366 9.22863 100.191 9.19696 100.028 9.13363C99.8645 9.06696 99.7328 8.96196 99.6328 8.81863C99.5361 8.67529 99.4878 8.48696 99.4878 8.25363C99.4878 8.04363 99.5345 7.86363 99.6278 7.71363C99.7211 7.56029 99.8478 7.44363 100.008 7.36363C100.168 7.28363 100.346 7.24363 100.543 7.24363C100.773 7.24363 100.976 7.29696 101.153 7.40363C101.329 7.50696 101.468 7.66863 101.568 7.88863C101.671 8.10529 101.723 8.38529 101.723 8.72863C101.723 9.13529 101.666 9.46196 101.553 9.70863C101.439 9.95529 101.281 10.1336 101.078 10.2436C100.878 10.3536 100.643 10.4086 100.373 10.4086C100.173 10.4086 100.001 10.382 99.8578 10.3286C99.7145 10.2753 99.6428 10.1986 99.6428 10.0986ZM100.608 8.89363C100.778 8.89363 100.928 8.85196 101.058 8.76863C101.191 8.68196 101.279 8.58696 101.323 8.48363L101.318 8.53863C101.318 8.24196 101.249 8.00863 101.113 7.83863C100.979 7.66529 100.789 7.57863 100.543 7.57863C100.359 7.57863 100.204 7.63863 100.078 7.75863C99.9545 7.87529 99.8928 8.03696 99.8928 8.24363C99.8928 8.47363 99.9628 8.64029 100.103 8.74363C100.243 8.84363 100.411 8.89363 100.608 8.89363Z" fill="#A73C4C"/>
<path d="M155.312 5.30363H157.112C157.149 5.32363 157.177 5.35196 157.197 5.38863C157.217 5.42196 157.227 5.46029 157.227 5.50363C157.227 5.53696 157.222 5.57029 157.212 5.60363C157.206 5.63696 157.192 5.67363 157.172 5.71363L155.917 8.36363C155.897 8.36696 155.877 8.36863 155.857 8.36863C155.841 8.36863 155.822 8.36863 155.802 8.36863C155.739 8.36863 155.684 8.35363 155.637 8.32363C155.591 8.29029 155.567 8.24529 155.567 8.18863C155.567 8.14863 155.576 8.11029 155.592 8.07363C155.609 8.03363 155.629 7.98863 155.652 7.93863L156.782 5.64363H155.202C155.192 5.62696 155.182 5.60529 155.172 5.57863C155.162 5.54863 155.157 5.51696 155.157 5.48363C155.157 5.42696 155.171 5.38363 155.197 5.35363C155.224 5.32029 155.262 5.30363 155.312 5.30363ZM158.798 7.22363H158.393V5.69363L157.753 5.99363C157.709 5.97696 157.673 5.95196 157.643 5.91863C157.616 5.88529 157.603 5.84363 157.603 5.79363C157.603 5.69696 157.663 5.62363 157.783 5.57363L158.483 5.26863H158.578C158.644 5.26863 158.698 5.28863 158.738 5.32863C158.778 5.36863 158.798 5.42196 158.798 5.48863V7.22363ZM158.393 7.02363H158.798V8.34863C158.778 8.35529 158.751 8.36196 158.718 8.36863C158.684 8.37863 158.648 8.38363 158.608 8.38363C158.538 8.38363 158.484 8.36863 158.448 8.33863C158.411 8.30863 158.393 8.26196 158.393 8.19863V7.02363ZM160.424 5.23863C160.741 5.23863 160.996 5.30863 161.189 5.44863C161.386 5.58529 161.484 5.79196 161.484 6.06863C161.484 6.20196 161.456 6.31696 161.399 6.41363C161.346 6.50696 161.281 6.58029 161.204 6.63363C161.131 6.68696 161.064 6.72196 161.004 6.73863C161.094 6.76529 161.183 6.81196 161.269 6.87863C161.356 6.94196 161.428 7.02529 161.484 7.12863C161.544 7.22863 161.574 7.35029 161.574 7.49363C161.574 7.69363 161.526 7.86029 161.429 7.99363C161.333 8.12696 161.199 8.22863 161.029 8.29863C160.859 8.36529 160.663 8.39863 160.439 8.39863C160.256 8.39863 160.093 8.38029 159.949 8.34363C159.809 8.30363 159.699 8.25363 159.619 8.19363C159.539 8.13363 159.499 8.07029 159.499 8.00363C159.499 7.95696 159.511 7.91696 159.534 7.88363C159.561 7.85029 159.594 7.82196 159.634 7.79863C159.721 7.86529 159.826 7.92529 159.949 7.97863C160.076 8.03196 160.239 8.05863 160.439 8.05863C160.659 8.05863 160.838 8.01196 160.974 7.91863C161.111 7.82196 161.179 7.67696 161.179 7.48363C161.179 7.31363 161.116 7.17696 160.989 7.07363C160.863 6.97029 160.679 6.91863 160.439 6.91863H160.024C160.011 6.90196 159.999 6.87863 159.989 6.84863C159.979 6.81529 159.974 6.78196 159.974 6.74863C159.974 6.71196 159.979 6.67863 159.989 6.64863C159.999 6.61863 160.011 6.59529 160.024 6.57863H160.404C160.651 6.57863 160.826 6.53363 160.929 6.44363C161.036 6.35029 161.089 6.22863 161.089 6.07863C161.089 5.91529 161.029 5.79196 160.909 5.70863C160.789 5.62196 160.626 5.57863 160.419 5.57863C160.259 5.57863 160.118 5.60363 159.994 5.65363C159.874 5.70029 159.774 5.75196 159.694 5.80863C159.661 5.79196 159.631 5.76529 159.604 5.72863C159.578 5.69196 159.564 5.65196 159.564 5.60863C159.564 5.54863 159.603 5.49029 159.679 5.43363C159.756 5.37696 159.859 5.33029 159.989 5.29363C160.119 5.25696 160.264 5.23863 160.424 5.23863Z" fill="#A73C4C"/>
<path d="M155.312 10.3036H157.112C157.149 10.3236 157.177 10.352 157.197 10.3886C157.217 10.422 157.227 10.4603 157.227 10.5036C157.227 10.537 157.222 10.5703 157.212 10.6036C157.206 10.637 157.192 10.6736 157.172 10.7136L155.917 13.3636C155.897 13.367 155.877 13.3686 155.857 13.3686C155.841 13.3686 155.822 13.3686 155.802 13.3686C155.739 13.3686 155.684 13.3536 155.637 13.3236C155.591 13.2903 155.567 13.2453 155.567 13.1886C155.567 13.1486 155.576 13.1103 155.592 13.0736C155.609 13.0336 155.629 12.9886 155.652 12.9386L156.782 10.6436H155.202C155.192 10.627 155.182 10.6053 155.172 10.5786C155.162 10.5486 155.157 10.517 155.157 10.4836C155.157 10.427 155.171 10.3836 155.197 10.3536C155.224 10.3203 155.262 10.3036 155.312 10.3036ZM158.798 12.2236H158.393V10.6936L157.753 10.9936C157.709 10.977 157.673 10.952 157.643 10.9186C157.616 10.8853 157.603 10.8436 157.603 10.7936C157.603 10.697 157.663 10.6236 157.783 10.5736L158.483 10.2686H158.578C158.644 10.2686 158.698 10.2886 158.738 10.3286C158.778 10.3686 158.798 10.422 158.798 10.4886V12.2236ZM158.393 12.0236H158.798V13.3486C158.778 13.3553 158.751 13.362 158.718 13.3686C158.684 13.3786 158.648 13.3836 158.608 13.3836C158.538 13.3836 158.484 13.3686 158.448 13.3386C158.411 13.3086 158.393 13.262 158.393 13.1986V12.0236ZM160.335 10.3036L160.2 10.5986L160.115 11.5436C160.171 11.5136 160.25 11.4853 160.35 11.4586C160.453 11.4286 160.561 11.4136 160.675 11.4136C160.875 11.4136 161.055 11.452 161.215 11.5286C161.375 11.602 161.501 11.712 161.595 11.8586C161.691 12.002 161.74 12.1803 161.74 12.3936C161.74 12.587 161.695 12.7603 161.605 12.9136C161.518 13.067 161.39 13.1886 161.22 13.2786C161.053 13.3653 160.848 13.4086 160.605 13.4086C160.415 13.4086 160.248 13.387 160.105 13.3436C159.961 13.3003 159.85 13.247 159.77 13.1836C159.69 13.1203 159.65 13.0586 159.65 12.9986C159.65 12.9453 159.666 12.8986 159.7 12.8586C159.736 12.8186 159.773 12.792 159.81 12.7786C159.883 12.842 159.986 12.907 160.12 12.9736C160.253 13.0403 160.415 13.0736 160.605 13.0736C160.835 13.0736 161.013 13.0103 161.14 12.8836C161.266 12.7536 161.33 12.5903 161.33 12.3936C161.33 12.1903 161.265 12.032 161.135 11.9186C161.005 11.8053 160.835 11.7486 160.625 11.7486C160.508 11.7486 160.401 11.767 160.305 11.8036C160.208 11.8403 160.118 11.882 160.035 11.9286C159.945 11.922 159.871 11.8953 159.815 11.8486C159.761 11.7986 159.735 11.7353 159.735 11.6586C159.735 11.6386 159.735 11.6136 159.735 11.5836C159.738 11.5503 159.741 11.5186 159.745 11.4886L159.83 10.5336C159.836 10.4636 159.858 10.4086 159.895 10.3686C159.931 10.3253 159.985 10.3036 160.055 10.3036H160.335ZM160.125 10.6436V10.3036H161.585C161.595 10.317 161.605 10.3386 161.615 10.3686C161.625 10.3986 161.63 10.4303 161.63 10.4636C161.63 10.517 161.616 10.5603 161.59 10.5936C161.563 10.627 161.525 10.6436 161.475 10.6436H160.125Z" fill="#A73C4C"/>
<path d="M51.7257 19.2216V17.7076C51.7253 17.6655 51.7086 17.6252 51.6792 17.5955C51.6498 17.5659 51.61 17.5493 51.5685 17.5493H51.1933C51.1681 17.5491 51.1433 17.5427 51.121 17.5308C51.0988 17.5188 51.0796 17.5015 51.0653 17.4805C51.051 17.4594 51.0418 17.4352 51.0386 17.4098C51.0354 17.3844 51.0383 17.3586 51.047 17.3345L51.9424 14.857C51.9536 14.8266 51.9736 14.8003 51.9997 14.7817C52.0258 14.763 52.0568 14.7528 52.0887 14.7524H53.037C53.0694 14.7522 53.101 14.7624 53.1275 14.7814C53.154 14.8004 53.1739 14.8273 53.1847 14.8583L54.0625 17.3359C54.0705 17.3608 54.0724 17.3872 54.0681 17.413C54.0637 17.4388 54.0531 17.4631 54.0373 17.4837C54.0215 17.5044 54.001 17.5208 53.9775 17.5315C53.954 17.5422 53.9283 17.5469 53.9026 17.5451H53.4962C53.4557 17.5476 53.4178 17.5659 53.3902 17.5962C53.3627 17.6264 53.3478 17.6664 53.3486 17.7076V19.2216" stroke="#3A3A3A" stroke-width="0.5" stroke-linecap="round"/>
<path d="M52.5481 13.9706C52.9903 13.9706 53.3487 13.6064 53.3487 13.1571C53.3487 12.7079 52.9903 12.3436 52.5481 12.3436C52.1059 12.3436 51.7475 12.7079 51.7475 13.1571C51.7475 13.6064 52.1059 13.9706 52.5481 13.9706Z" stroke="#3A3A3A" stroke-width="0.5" stroke-linecap="round"/>
</svg>
