<svg width="149" height="125" viewBox="0 0 149 125" fill="none" xmlns="http://www.w3.org/2000/svg">
<path d="M1.98712 2.21744H148.886V82H15.6567V90.7464H22.75V108H1.98712V2.21744Z" fill="white"/>
<path d="M6.4041 2.242H1.98126V44" stroke="#A73C4C" stroke-width="0.5"/>
<path d="M12.0259 2.242H25.4589" stroke="#A73C4C" stroke-width="0.5"/>
<path d="M31.0754 2.242H76.4984" stroke="#A73C4C" stroke-width="0.5"/>
<path d="M81.9426 2.242H134.25" stroke="#A73C4C" stroke-width="0.5"/>
<path d="M86.75 81.9397H148.754V2.242H140.25" stroke="#A73C4C" stroke-width="0.5"/>
<path d="M104.75 45.5L89.2177 45.5L88.75 45.5" stroke="#A73C4C" stroke-width="0.5"/>
<path d="M104.75 61H88.75" stroke="#A73C4C" stroke-width="0.5"/>
<path d="M15.5527 91V81.9397H80.25" stroke="#A73C4C" stroke-width="0.5"/>
<path d="M1.98126 108V106.541" stroke="#A73C4C" stroke-width="0.5"/>
<path d="M1.98126 101V49.5" stroke="#A73C4C" stroke-width="0.5"/>
<path d="M22.75 107.75H1.98126" stroke="#A73C4C" stroke-width="0.5"/>
<path d="M22.5655 107.743H15.5527" stroke="#A73C4C" stroke-width="0.5"/>
<path d="M22.5527 107.743L22.5527 90.5" stroke="#A73C4C" stroke-width="0.5"/>
<path d="M22.75 90.7502H15.3866" stroke="#A73C4C" stroke-width="0.5"/>
<path d="M64.75 67.7283H71.25" stroke="#A73C4C" stroke-width="0.5"/>
<path d="M75.25 67.7283H79" stroke="#A73C4C" stroke-width="0.5"/>
<path d="M9 61L25.75 61" stroke="#A73C4C" stroke-width="0.5"/>
<path d="M2.25 36.5L34.5 36.5" stroke="#A73C4C" stroke-width="0.5"/>
<path d="M33.25 30.25L43.0615 30.25" stroke="#A73C4C" stroke-width="0.5"/>
<path d="M47.4577 30.25H60.7489" stroke="#A73C4C" stroke-width="0.5"/>
<path d="M88.25 67.73H104.75" stroke="#A73C4C" stroke-width="0.5"/>
<path d="M51.25 67.7283H60.25" stroke="#A73C4C" stroke-width="0.5"/>
<path d="M25.75 67.7283H51.25" stroke="#A73C4C" stroke-width="0.5"/>
<path d="M15.4477 67.7283H21.4742" stroke="#A73C4C" stroke-width="0.5"/>
<path d="M1.75 67.5H9.25" stroke="#A73C4C" stroke-width="0.5"/>
<path d="M88.75 30H117.75M88.75 52.25H148.75M122.25 30H129.25M122.25 19.5H148.75M113.25 19.5H117.75" stroke="#A73C4C" stroke-width="0.5"/>
<path d="M88.75 36.75H115.702M120.06 36.75H148.75" stroke="#A73C4C" stroke-width="0.5"/>
<path d="M30.25 61H33.75" stroke="#A73C4C" stroke-width="0.5"/>
<path d="M40.2192 61H42.2808" stroke="#A73C4C" stroke-width="0.5"/>
<path d="M67.4 61H69.5" stroke="#A73C4C" stroke-width="0.5"/>
<path d="M67.25 36.5H69.5" stroke="#A73C4C" stroke-width="0.5"/>
<path d="M33.75 67.5V67V66.5" stroke="#A73C4C" stroke-width="0.5"/>
<path d="M89 81.9999V75.5" stroke="#A73C4C" stroke-width="0.5"/>
<path d="M51 82V67.5" stroke="#A73C4C" stroke-width="0.5"/>
<path d="M15.56 82V74.7667L15.56 66.5" stroke="#A73C4C" stroke-width="0.5"/>
<path d="M89 47V41.5V36.5" stroke="#A73C4C" stroke-width="0.5"/>
<path d="M69 30V15.5952V2.5" stroke="#A73C4C" stroke-width="0.5"/>
<path d="M129 36.725V36V35.332" stroke="#A73C4C" stroke-width="0.5"/>
<path d="M89 61.25V59.875V58.5" stroke="#A73C4C" stroke-width="0.5"/>
<path d="M89 54V52.625V51.25" stroke="#A73C4C" stroke-width="0.5"/>
<path d="M33.75 61.9994V52.8058L33.75 42.9994" stroke="#A73C4C" stroke-width="0.5"/>
<path d="M40.25 61.25V52.4193V43" stroke="#A73C4C" stroke-width="0.5"/>
<path d="M62.75 36.5L51.379 36.5L39.25 36.5" stroke="#A73C4C" stroke-width="0.5"/>
<path d="M69.25 45.5L55.2177 45.5L40.25 45.5" stroke="#A73C4C" stroke-width="0.5"/>
<path d="M69.25 52.25L55.2177 52.25L40.25 52.25" stroke="#A73C4C" stroke-width="0.5"/>
<path d="M64.75 61L55.25 61L47.25 61M69.25 52.25L55.2177 52.25L40.25 52.25" stroke="#A73C4C" stroke-width="0.5"/>
<path d="M15.25 38.5L15.25 21.0806L15.25 2.49997" stroke="#A73C4C" stroke-width="0.5"/>
<path d="M33.25 30.5V16.9516L33.25 2.49997" stroke="#A73C4C" stroke-width="0.5"/>
<path d="M51.25 30.5V16.9516L51.25 2.49997" stroke="#A73C4C" stroke-width="0.5"/>
<path d="M51.25 61V49.1451V36.5" stroke="#A73C4C" stroke-width="0.5"/>
<path d="M69.25 46.9166V36.3548" stroke="#A73C4C" stroke-width="0.5"/>
<path d="M69.25 61V50.5" stroke="#A73C4C" stroke-width="0.5"/>
<path d="M33.75 38.5077V37.528V36.483" stroke="#A73C4C" stroke-width="0.5"/>
<path d="M40.25 38.5247V37.545V36.5" stroke="#A73C4C" stroke-width="0.5"/>
<path d="M15.25 43.5V43.0161V42.5" stroke="#A73C4C" stroke-width="0.5"/>
<path d="M15.25 49.5V49.0161V48.5" stroke="#A73C4C" stroke-width="0.5"/>
<path d="M9.25 67.75V64.232V60.75" stroke="#A73C4C" stroke-width="0.5"/>
<path d="M69 81.9999V67.5" stroke="#A73C4C" stroke-width="0.5"/>
<path d="M79 81.9999V67.5" stroke="#A73C4C" stroke-width="0.5"/>
<path d="M89 29.9998V2.49979" stroke="#A73C4C" stroke-width="0.5"/>
<path d="M113.5 30V2.49997" stroke="#A73C4C" stroke-width="0.5"/>
<path d="M129 30.9995V2.49951" stroke="#A73C4C" stroke-width="0.5"/>
<path d="M104.5 81.9999V66.5" stroke="#A73C4C" stroke-width="0.5"/>
<path d="M104.5 62V36.5" stroke="#A73C4C" stroke-width="0.5"/>
<line x1="89" y1="71.5" x2="89" y2="67.5" stroke="#A73C4C" stroke-width="0.5"/>
<path d="M15.25 62L15.25 54" stroke="#A73C4C" stroke-width="0.5"/>
<path d="M40.25 36.5V30" stroke="#A73C4C" stroke-width="0.5"/>
<path d="M65.1875 30.25H69.25" stroke="#A73C4C" stroke-width="0.5"/>
<path d="M1.66174 46.5H4.24997M4.24997 46.5L3.54418 45.625M4.24997 46.5L3.54409 47.375" stroke="#A73C4C" stroke-width="0.5" stroke-linecap="round" stroke-linejoin="round"/>
<path d="M2.60293 45.4091V44.625C2.60293 44.556 2.55025 44.5 2.48529 44.5H0.367647C0.302673 44.5 0.25 44.556 0.25 44.625V48.375C0.25 48.444 0.302673 48.5 0.367647 48.5H2.48529C2.55025 48.5 2.60293 48.444 2.60293 48.375V47.5909" stroke="#A73C4C" stroke-width="0.5" stroke-linecap="round" stroke-linejoin="round"/>
<path d="M8.66174 2.24998H11.25M11.25 2.24998L10.5442 1.37498M11.25 2.24998L10.5441 3.12498" stroke="#A73C4C" stroke-width="0.5" stroke-linecap="round" stroke-linejoin="round"/>
<path d="M9.60293 1.15909V0.375C9.60293 0.305965 9.55025 0.25 9.48529 0.25H7.36765C7.30267 0.25 7.25 0.305965 7.25 0.375V4.125C7.25 4.19403 7.30267 4.25 7.36765 4.25H9.48529C9.55025 4.25 9.60293 4.19403 9.60293 4.125V3.3409" stroke="#A73C4C" stroke-width="0.5" stroke-linecap="round" stroke-linejoin="round"/>
<path d="M78.6617 2.24998H81.25M81.25 2.24998L80.5442 1.37498M81.25 2.24998L80.5441 3.12498" stroke="#A73C4C" stroke-width="0.5" stroke-linecap="round" stroke-linejoin="round"/>
<path d="M79.6029 1.15909V0.375C79.6029 0.305965 79.5503 0.25 79.4853 0.25H77.3676C77.3027 0.25 77.25 0.305965 77.25 0.375V4.125C77.25 4.19403 77.3027 4.25 77.3676 4.25H79.4853C79.5503 4.25 79.6029 4.19403 79.6029 4.125V3.3409" stroke="#A73C4C" stroke-width="0.5" stroke-linecap="round" stroke-linejoin="round"/>
<path d="M136.662 2.24998H139.25M139.25 2.24998L138.544 1.37498M139.25 2.24998L138.544 3.12498" stroke="#A73C4C" stroke-width="0.5" stroke-linecap="round" stroke-linejoin="round"/>
<path d="M137.603 1.15909V0.375C137.603 0.305965 137.55 0.25 137.485 0.25H135.368C135.303 0.25 135.25 0.305965 135.25 0.375V4.125C135.25 4.19403 135.303 4.25 135.368 4.25H137.485C137.55 4.25 137.603 4.19403 137.603 4.125V3.3409" stroke="#A73C4C" stroke-width="0.5" stroke-linecap="round" stroke-linejoin="round"/>
<path d="M27.6617 2.24998H30.25M30.25 2.24998L29.5442 1.37498M30.25 2.24998L29.5441 3.12498" stroke="#A73C4C" stroke-width="0.5" stroke-linecap="round" stroke-linejoin="round"/>
<path d="M28.6029 1.15909V0.375C28.6029 0.305965 28.5503 0.25 28.4853 0.25H26.3676C26.3027 0.25 26.25 0.305965 26.25 0.375V4.125C26.25 4.19403 26.3027 4.25 26.3676 4.25H28.4853C28.5503 4.25 28.6029 4.19403 28.6029 4.125V3.3409" stroke="#A73C4C" stroke-width="0.5" stroke-linecap="round" stroke-linejoin="round"/>
<path d="M82.9117 82H85.5M85.5 82L84.7942 81.125M85.5 82L84.7941 82.875" stroke="#A73C4C" stroke-width="0.5" stroke-linecap="round" stroke-linejoin="round"/>
<path d="M83.8529 80.9091V80.125C83.8529 80.056 83.8003 80 83.7353 80H81.6176C81.5527 80 81.5 80.056 81.5 80.125V83.875C81.5 83.944 81.5527 84 81.6176 84H83.7353C83.8003 84 83.8529 83.944 83.8529 83.875V83.0909" stroke="#A73C4C" stroke-width="0.5" stroke-linecap="round" stroke-linejoin="round"/>
<path d="M1.66174 103.75H4.24997M4.24997 103.75L3.54418 102.875M4.24997 103.75L3.54409 104.625" stroke="#A73C4C" stroke-width="0.5" stroke-linecap="round" stroke-linejoin="round"/>
<path d="M2.60293 102.659V101.875C2.60293 101.806 2.55025 101.75 2.48529 101.75H0.367647C0.302673 101.75 0.25 101.806 0.25 101.875V105.625C0.25 105.694 0.302673 105.75 0.367647 105.75H2.48529C2.55025 105.75 2.60293 105.694 2.60293 105.625V104.841" stroke="#A73C4C" stroke-width="0.5" stroke-linecap="round" stroke-linejoin="round"/>
<path d="M118.52 25.38H118.115V23.85L117.475 24.15C117.432 24.1333 117.395 24.1083 117.365 24.075C117.338 24.0417 117.325 24 117.325 23.95C117.325 23.8533 117.385 23.78 117.505 23.73L118.205 23.425H118.3C118.367 23.425 118.42 23.445 118.46 23.485C118.5 23.525 118.52 23.5783 118.52 23.645V25.38ZM118.115 25.18H118.52V26.505C118.5 26.5117 118.473 26.5183 118.44 26.525C118.407 26.535 118.37 26.54 118.33 26.54C118.26 26.54 118.207 26.525 118.17 26.495C118.133 26.465 118.115 26.4183 118.115 26.355V25.18ZM120.492 26.565C120.259 26.565 120.052 26.5083 119.872 26.395C119.695 26.2783 119.557 26.1033 119.457 25.87C119.357 25.6333 119.307 25.3367 119.307 24.98C119.307 24.5967 119.364 24.29 119.477 24.06C119.59 23.83 119.737 23.6633 119.917 23.56C120.097 23.4533 120.289 23.4 120.492 23.4C120.699 23.4 120.892 23.4533 121.072 23.56C121.255 23.6667 121.402 23.8367 121.512 24.07C121.625 24.3 121.682 24.6033 121.682 24.98C121.682 25.3333 121.632 25.6283 121.532 25.865C121.432 26.0983 121.292 26.2733 121.112 26.39C120.935 26.5067 120.729 26.565 120.492 26.565ZM120.492 26.225C120.739 26.225 120.93 26.1183 121.067 25.905C121.204 25.6883 121.272 25.38 121.272 24.98C121.272 24.6833 121.235 24.445 121.162 24.265C121.092 24.0817 120.999 23.9483 120.882 23.865C120.765 23.7817 120.635 23.74 120.492 23.74C120.352 23.74 120.222 23.7833 120.102 23.87C119.985 23.9533 119.892 24.0867 119.822 24.27C119.752 24.4533 119.717 24.69 119.717 24.98C119.717 25.38 119.785 25.6883 119.922 25.905C120.059 26.1183 120.249 26.225 120.492 26.225ZM122.998 23.395C123.315 23.395 123.57 23.465 123.763 23.605C123.96 23.7417 124.058 23.9483 124.058 24.225C124.058 24.3583 124.03 24.4733 123.973 24.57C123.92 24.6633 123.855 24.7367 123.778 24.79C123.705 24.8433 123.638 24.8783 123.578 24.895C123.668 24.9217 123.756 24.9683 123.843 25.035C123.93 25.0983 124.001 25.1817 124.058 25.285C124.118 25.385 124.148 25.5067 124.148 25.65C124.148 25.85 124.1 26.0167 124.003 26.15C123.906 26.2833 123.773 26.385 123.603 26.455C123.433 26.5217 123.236 26.555 123.013 26.555C122.83 26.555 122.666 26.5367 122.523 26.5C122.383 26.46 122.273 26.41 122.193 26.35C122.113 26.29 122.073 26.2267 122.073 26.16C122.073 26.1133 122.085 26.0733 122.108 26.04C122.135 26.0067 122.168 25.9783 122.208 25.955C122.295 26.0217 122.4 26.0817 122.523 26.135C122.65 26.1883 122.813 26.215 123.013 26.215C123.233 26.215 123.411 26.1683 123.548 26.075C123.685 25.9783 123.753 25.8333 123.753 25.64C123.753 25.47 123.69 25.3333 123.563 25.23C123.436 25.1267 123.253 25.075 123.013 25.075H122.598C122.585 25.0583 122.573 25.035 122.563 25.005C122.553 24.9717 122.548 24.9383 122.548 24.905C122.548 24.8683 122.553 24.835 122.563 24.805C122.573 24.775 122.585 24.7517 122.598 24.735H122.978C123.225 24.735 123.4 24.69 123.503 24.6C123.61 24.5067 123.663 24.385 123.663 24.235C123.663 24.0717 123.603 23.9483 123.483 23.865C123.363 23.7783 123.2 23.735 122.993 23.735C122.833 23.735 122.691 23.76 122.568 23.81C122.448 23.8567 122.348 23.9083 122.268 23.965C122.235 23.9483 122.205 23.9217 122.178 23.885C122.151 23.8483 122.138 23.8083 122.138 23.765C122.138 23.705 122.176 23.6467 122.253 23.59C122.33 23.5333 122.433 23.4867 122.563 23.45C122.693 23.4133 122.838 23.395 122.998 23.395Z" fill="#A73C4C"/>
<path d="M136.52 28.38H136.115V26.85L135.475 27.15C135.432 27.1333 135.395 27.1083 135.365 27.075C135.338 27.0417 135.325 27 135.325 26.95C135.325 26.8533 135.385 26.78 135.505 26.73L136.205 26.425H136.3C136.367 26.425 136.42 26.445 136.46 26.485C136.5 26.525 136.52 26.5783 136.52 26.645V28.38ZM136.115 28.18H136.52V29.505C136.5 29.5117 136.473 29.5183 136.44 29.525C136.407 29.535 136.37 29.54 136.33 29.54C136.26 29.54 136.207 29.525 136.17 29.495C136.133 29.465 136.115 29.4183 136.115 29.355V28.18ZM138.492 29.565C138.259 29.565 138.052 29.5083 137.872 29.395C137.695 29.2783 137.557 29.1033 137.457 28.87C137.357 28.6333 137.307 28.3367 137.307 27.98C137.307 27.5967 137.364 27.29 137.477 27.06C137.59 26.83 137.737 26.6633 137.917 26.56C138.097 26.4533 138.289 26.4 138.492 26.4C138.699 26.4 138.892 26.4533 139.072 26.56C139.255 26.6667 139.402 26.8367 139.512 27.07C139.625 27.3 139.682 27.6033 139.682 27.98C139.682 28.3333 139.632 28.6283 139.532 28.865C139.432 29.0983 139.292 29.2733 139.112 29.39C138.935 29.5067 138.729 29.565 138.492 29.565ZM138.492 29.225C138.739 29.225 138.93 29.1183 139.067 28.905C139.204 28.6883 139.272 28.38 139.272 27.98C139.272 27.6833 139.235 27.445 139.162 27.265C139.092 27.0817 138.999 26.9483 138.882 26.865C138.765 26.7817 138.635 26.74 138.492 26.74C138.352 26.74 138.222 26.7833 138.102 26.87C137.985 26.9533 137.892 27.0867 137.822 27.27C137.752 27.4533 137.717 27.69 137.717 27.98C137.717 28.38 137.785 28.6883 137.922 28.905C138.059 29.1183 138.249 29.225 138.492 29.225ZM140.137 28.385L141.592 26.455C141.622 26.4483 141.655 26.4433 141.692 26.44C141.732 26.4333 141.767 26.43 141.797 26.43C141.843 26.43 141.887 26.4367 141.927 26.45C141.97 26.4633 142.005 26.4883 142.032 26.525C142.058 26.5583 142.072 26.6083 142.072 26.675V28.425H142.572C142.582 28.4417 142.592 28.465 142.602 28.495C142.612 28.5217 142.617 28.5533 142.617 28.59C142.617 28.6433 142.603 28.685 142.577 28.715C142.55 28.745 142.512 28.76 142.462 28.76H142.072V29.51C142.055 29.5133 142.03 29.5183 141.997 29.525C141.967 29.535 141.933 29.54 141.897 29.54C141.827 29.54 141.773 29.525 141.737 29.495C141.7 29.465 141.682 29.4217 141.682 29.365V28.76H140.237C140.203 28.7433 140.173 28.7133 140.147 28.67C140.123 28.6267 140.112 28.5783 140.112 28.525C140.112 28.495 140.113 28.47 140.117 28.45C140.123 28.4267 140.13 28.405 140.137 28.385ZM141.687 28.425L141.697 26.85H141.687L140.577 28.425H141.687Z" fill="#A73C4C"/>
<path d="M123.52 45.38H123.115V43.85L122.475 44.15C122.432 44.1333 122.395 44.1083 122.365 44.075C122.338 44.0417 122.325 44 122.325 43.95C122.325 43.8533 122.385 43.78 122.505 43.73L123.205 43.425H123.3C123.367 43.425 123.42 43.445 123.46 43.485C123.5 43.525 123.52 43.5783 123.52 43.645V45.38ZM123.115 45.18H123.52V46.505C123.5 46.5117 123.473 46.5183 123.44 46.525C123.407 46.535 123.37 46.54 123.33 46.54C123.26 46.54 123.207 46.525 123.17 46.495C123.133 46.465 123.115 46.4183 123.115 46.355V45.18ZM125.492 46.565C125.259 46.565 125.052 46.5083 124.872 46.395C124.695 46.2783 124.557 46.1033 124.457 45.87C124.357 45.6333 124.307 45.3367 124.307 44.98C124.307 44.5967 124.364 44.29 124.477 44.06C124.59 43.83 124.737 43.6633 124.917 43.56C125.097 43.4533 125.289 43.4 125.492 43.4C125.699 43.4 125.892 43.4533 126.072 43.56C126.255 43.6667 126.402 43.8367 126.512 44.07C126.625 44.3 126.682 44.6033 126.682 44.98C126.682 45.3333 126.632 45.6283 126.532 45.865C126.432 46.0983 126.292 46.2733 126.112 46.39C125.935 46.5067 125.729 46.565 125.492 46.565ZM125.492 46.225C125.739 46.225 125.93 46.1183 126.067 45.905C126.204 45.6883 126.272 45.38 126.272 44.98C126.272 44.6833 126.235 44.445 126.162 44.265C126.092 44.0817 125.999 43.9483 125.882 43.865C125.765 43.7817 125.635 43.74 125.492 43.74C125.352 43.74 125.222 43.7833 125.102 43.87C124.985 43.9533 124.892 44.0867 124.822 44.27C124.752 44.4533 124.717 44.69 124.717 44.98C124.717 45.38 124.785 45.6883 124.922 45.905C125.059 46.1183 125.249 46.225 125.492 46.225ZM127.972 43.46L127.837 43.755L127.752 44.7C127.809 44.67 127.887 44.6417 127.987 44.615C128.09 44.585 128.199 44.57 128.312 44.57C128.512 44.57 128.692 44.6083 128.852 44.685C129.012 44.7583 129.139 44.8683 129.232 45.015C129.329 45.1583 129.377 45.3367 129.377 45.55C129.377 45.7433 129.332 45.9167 129.242 46.07C129.155 46.2233 129.027 46.345 128.857 46.435C128.69 46.5217 128.485 46.565 128.242 46.565C128.052 46.565 127.885 46.5433 127.742 46.5C127.599 46.4567 127.487 46.4033 127.407 46.34C127.327 46.2767 127.287 46.215 127.287 46.155C127.287 46.1017 127.304 46.055 127.337 46.015C127.374 45.975 127.41 45.9483 127.447 45.935C127.52 45.9983 127.624 46.0633 127.757 46.13C127.89 46.1967 128.052 46.23 128.242 46.23C128.472 46.23 128.65 46.1667 128.777 46.04C128.904 45.91 128.967 45.7467 128.967 45.55C128.967 45.3467 128.902 45.1883 128.772 45.075C128.642 44.9617 128.472 44.905 128.262 44.905C128.145 44.905 128.039 44.9233 127.942 44.96C127.845 44.9967 127.755 45.0383 127.672 45.085C127.582 45.0783 127.509 45.0517 127.452 45.005C127.399 44.955 127.372 44.8917 127.372 44.815C127.372 44.795 127.372 44.77 127.372 44.74C127.375 44.7067 127.379 44.675 127.382 44.645L127.467 43.69C127.474 43.62 127.495 43.565 127.532 43.525C127.569 43.4817 127.622 43.46 127.692 43.46H127.972ZM127.762 43.8V43.46H129.222C129.232 43.4733 129.242 43.495 129.252 43.525C129.262 43.555 129.267 43.5867 129.267 43.62C129.267 43.6733 129.254 43.7167 129.227 43.75C129.2 43.7833 129.162 43.8 129.112 43.8H127.762Z" fill="#A73C4C"/>
<path d="M124.52 68.38H124.115V66.85L123.475 67.15C123.432 67.1333 123.395 67.1083 123.365 67.075C123.338 67.0417 123.325 67 123.325 66.95C123.325 66.8533 123.385 66.78 123.505 66.73L124.205 66.425H124.3C124.367 66.425 124.42 66.445 124.46 66.485C124.5 66.525 124.52 66.5783 124.52 66.645V68.38ZM124.115 68.18H124.52V69.505C124.5 69.5117 124.473 69.5183 124.44 69.525C124.407 69.535 124.37 69.54 124.33 69.54C124.26 69.54 124.207 69.525 124.17 69.495C124.133 69.465 124.115 69.4183 124.115 69.355V68.18ZM126.492 69.565C126.259 69.565 126.052 69.5083 125.872 69.395C125.695 69.2783 125.557 69.1033 125.457 68.87C125.357 68.6333 125.307 68.3367 125.307 67.98C125.307 67.5967 125.364 67.29 125.477 67.06C125.59 66.83 125.737 66.6633 125.917 66.56C126.097 66.4533 126.289 66.4 126.492 66.4C126.699 66.4 126.892 66.4533 127.072 66.56C127.255 66.6667 127.402 66.8367 127.512 67.07C127.625 67.3 127.682 67.6033 127.682 67.98C127.682 68.3333 127.632 68.6283 127.532 68.865C127.432 69.0983 127.292 69.2733 127.112 69.39C126.935 69.5067 126.729 69.565 126.492 69.565ZM126.492 69.225C126.739 69.225 126.93 69.1183 127.067 68.905C127.204 68.6883 127.272 68.38 127.272 67.98C127.272 67.6833 127.235 67.445 127.162 67.265C127.092 67.0817 126.999 66.9483 126.882 66.865C126.765 66.7817 126.635 66.74 126.492 66.74C126.352 66.74 126.222 66.7833 126.102 66.87C125.985 66.9533 125.892 67.0867 125.822 67.27C125.752 67.4533 125.717 67.69 125.717 67.98C125.717 68.38 125.785 68.6883 125.922 68.905C126.059 69.1183 126.249 69.225 126.492 69.225ZM128.169 66.46H129.969C130.005 66.48 130.034 66.5083 130.054 66.545C130.074 66.5783 130.084 66.6167 130.084 66.66C130.084 66.6933 130.079 66.7267 130.069 66.76C130.062 66.7933 130.049 66.83 130.029 66.87L128.774 69.52C128.754 69.5233 128.734 69.525 128.714 69.525C128.697 69.525 128.679 69.525 128.659 69.525C128.595 69.525 128.54 69.51 128.494 69.48C128.447 69.4467 128.424 69.4017 128.424 69.345C128.424 69.305 128.432 69.2667 128.449 69.23C128.465 69.19 128.485 69.145 128.509 69.095L129.639 66.8H128.059C128.049 66.7833 128.039 66.7617 128.029 66.735C128.019 66.705 128.014 66.6733 128.014 66.64C128.014 66.5833 128.027 66.54 128.054 66.51C128.08 66.4767 128.119 66.46 128.169 66.46Z" fill="#A73C4C"/>
<path d="M94.52 43.38H94.115V41.85L93.475 42.15C93.4317 42.1333 93.395 42.1083 93.365 42.075C93.3383 42.0417 93.325 42 93.325 41.95C93.325 41.8533 93.385 41.78 93.505 41.73L94.205 41.425H94.3C94.3667 41.425 94.42 41.445 94.46 41.485C94.5 41.525 94.52 41.5783 94.52 41.645V43.38ZM94.115 43.18H94.52V44.505C94.5 44.5117 94.4733 44.5183 94.44 44.525C94.4067 44.535 94.37 44.54 94.33 44.54C94.26 44.54 94.2067 44.525 94.17 44.495C94.1333 44.465 94.115 44.4183 94.115 44.355V43.18ZM96.4921 44.565C96.2588 44.565 96.0521 44.5083 95.8721 44.395C95.6954 44.2783 95.5571 44.1033 95.4571 43.87C95.3571 43.6333 95.3071 43.3367 95.3071 42.98C95.3071 42.5967 95.3638 42.29 95.4771 42.06C95.5904 41.83 95.7371 41.6633 95.9171 41.56C96.0971 41.4533 96.2888 41.4 96.4921 41.4C96.6988 41.4 96.8921 41.4533 97.0721 41.56C97.2554 41.6667 97.4021 41.8367 97.5121 42.07C97.6254 42.3 97.6821 42.6033 97.6821 42.98C97.6821 43.3333 97.6321 43.6283 97.5321 43.865C97.4321 44.0983 97.2921 44.2733 97.1121 44.39C96.9354 44.5067 96.7288 44.565 96.4921 44.565ZM96.4921 44.225C96.7388 44.225 96.9304 44.1183 97.0671 43.905C97.2038 43.6883 97.2721 43.38 97.2721 42.98C97.2721 42.6833 97.2354 42.445 97.1621 42.265C97.0921 42.0817 96.9988 41.9483 96.8821 41.865C96.7654 41.7817 96.6354 41.74 96.4921 41.74C96.3521 41.74 96.2221 41.7833 96.1021 41.87C95.9854 41.9533 95.8921 42.0867 95.8221 42.27C95.7521 42.4533 95.7171 42.69 95.7171 42.98C95.7171 43.38 95.7854 43.6883 95.9221 43.905C96.0588 44.1183 96.2488 44.225 96.4921 44.225ZM100.227 41.695C100.227 41.735 100.215 41.7733 100.192 41.81C100.172 41.8433 100.145 41.8683 100.112 41.885C100.039 41.8483 99.9555 41.8167 99.8621 41.79C99.7721 41.76 99.6738 41.745 99.5671 41.745C99.3071 41.745 99.0871 41.8383 98.9071 42.025C98.7305 42.2117 98.6371 42.5033 98.6271 42.9C98.6938 42.8333 98.7955 42.7633 98.9321 42.69C99.0721 42.6133 99.2438 42.575 99.4471 42.575C99.7405 42.575 99.9821 42.6583 100.172 42.825C100.362 42.9917 100.457 43.2383 100.457 43.565C100.457 43.7717 100.412 43.95 100.322 44.1C100.235 44.25 100.112 44.365 99.9521 44.445C99.7955 44.525 99.6088 44.565 99.3921 44.565C99.1688 44.565 98.9688 44.515 98.7921 44.415C98.6155 44.3117 98.4755 44.1517 98.3721 43.935C98.2721 43.715 98.2221 43.4283 98.2221 43.075C98.2221 42.7617 98.2588 42.4983 98.3321 42.285C98.4088 42.0683 98.5105 41.8967 98.6371 41.77C98.7638 41.64 98.9071 41.5467 99.0671 41.49C99.2271 41.43 99.3905 41.4 99.5571 41.4C99.6738 41.4 99.7821 41.4117 99.8821 41.435C99.9855 41.4583 100.069 41.4917 100.132 41.535C100.195 41.5783 100.227 41.6317 100.227 41.695ZM99.3921 44.23C99.5855 44.23 99.7438 44.1717 99.8671 44.055C99.9905 43.935 100.052 43.7683 100.052 43.555C100.052 43.3383 99.9888 43.1783 99.8621 43.075C99.7388 42.9683 99.5855 42.915 99.4021 42.915C99.2188 42.915 99.0605 42.955 98.9271 43.035C98.7938 43.1117 98.6888 43.205 98.6121 43.315L98.6271 43.28C98.6271 43.5633 98.6938 43.7933 98.8271 43.97C98.9605 44.1433 99.1488 44.23 99.3921 44.23Z" fill="#A73C4C"/>
<path d="M94.52 75.38H94.115V73.85L93.475 74.15C93.4317 74.1333 93.395 74.1083 93.365 74.075C93.3383 74.0417 93.325 74 93.325 73.95C93.325 73.8533 93.385 73.78 93.505 73.73L94.205 73.425H94.3C94.3667 73.425 94.42 73.445 94.46 73.485C94.5 73.525 94.52 73.5783 94.52 73.645V75.38ZM94.115 75.18H94.52V76.505C94.5 76.5117 94.4733 76.5183 94.44 76.525C94.4067 76.535 94.37 76.54 94.33 76.54C94.26 76.54 94.2067 76.525 94.17 76.495C94.1333 76.465 94.115 76.4183 94.115 76.355V75.18ZM96.4921 76.565C96.2588 76.565 96.0521 76.5083 95.8721 76.395C95.6954 76.2783 95.5571 76.1033 95.4571 75.87C95.3571 75.6333 95.3071 75.3367 95.3071 74.98C95.3071 74.5967 95.3638 74.29 95.4771 74.06C95.5904 73.83 95.7371 73.6633 95.9171 73.56C96.0971 73.4533 96.2888 73.4 96.4921 73.4C96.6988 73.4 96.8921 73.4533 97.0721 73.56C97.2554 73.6667 97.4021 73.8367 97.5121 74.07C97.6254 74.3 97.6821 74.6033 97.6821 74.98C97.6821 75.3333 97.6321 75.6283 97.5321 75.865C97.4321 76.0983 97.2921 76.2733 97.1121 76.39C96.9354 76.5067 96.7288 76.565 96.4921 76.565ZM96.4921 76.225C96.7388 76.225 96.9304 76.1183 97.0671 75.905C97.2038 75.6883 97.2721 75.38 97.2721 74.98C97.2721 74.6833 97.2354 74.445 97.1621 74.265C97.0921 74.0817 96.9988 73.9483 96.8821 73.865C96.7654 73.7817 96.6354 73.74 96.4921 73.74C96.3521 73.74 96.2221 73.7833 96.1021 73.87C95.9854 73.9533 95.8921 74.0867 95.8221 74.27C95.7521 74.4533 95.7171 74.69 95.7171 74.98C95.7171 75.38 95.7854 75.6883 95.9221 75.905C96.0588 76.1183 96.2488 76.225 96.4921 76.225ZM99.3771 76.565C99.1505 76.565 98.9521 76.5317 98.7821 76.465C98.6121 76.395 98.4805 76.295 98.3871 76.165C98.2938 76.035 98.2471 75.8783 98.2471 75.695C98.2471 75.5317 98.2838 75.3933 98.3571 75.28C98.4338 75.1633 98.5305 75.07 98.6471 75C98.7638 74.93 98.8855 74.8833 99.0121 74.86L99.3121 74.81C99.5521 74.7633 99.7321 74.695 99.8521 74.605C99.9721 74.5117 100.032 74.3883 100.032 74.235C100.032 74.0783 99.9738 73.9567 99.8571 73.87C99.7405 73.78 99.5805 73.735 99.3771 73.735C99.1805 73.735 99.0221 73.78 98.9021 73.87C98.7821 73.96 98.7221 74.08 98.7221 74.23C98.7221 74.3567 98.7555 74.4583 98.8221 74.535C98.8921 74.6117 98.9838 74.67 99.0971 74.71C99.2138 74.7467 99.3405 74.7717 99.4771 74.785L99.6971 74.86C99.8338 74.8867 99.9638 74.935 100.087 75.005C100.21 75.0717 100.31 75.1617 100.387 75.275C100.464 75.3883 100.502 75.53 100.502 75.7C100.502 75.88 100.454 76.035 100.357 76.165C100.264 76.295 100.132 76.395 99.9621 76.465C99.7955 76.5317 99.6005 76.565 99.3771 76.565ZM99.3771 76.23C99.5938 76.23 99.7688 76.1833 99.9021 76.09C100.035 75.9967 100.102 75.8617 100.102 75.685C100.102 75.4917 100.02 75.3383 99.8571 75.225C99.6971 75.1117 99.4821 75.0467 99.2121 75.03L98.9571 74.955C98.7638 74.9017 98.6088 74.815 98.4921 74.695C98.3788 74.575 98.3221 74.4183 98.3221 74.225C98.3221 74.055 98.3655 73.9083 98.4521 73.785C98.5421 73.6617 98.6655 73.5667 98.8221 73.5C98.9821 73.4333 99.1671 73.4 99.3771 73.4C99.7038 73.4 99.9605 73.475 100.147 73.625C100.337 73.7717 100.432 73.975 100.432 74.235C100.432 74.445 100.36 74.61 100.217 74.73C100.077 74.85 99.9055 74.9283 99.7021 74.965L99.3621 75.035C99.1488 75.0683 98.9755 75.1417 98.8421 75.255C98.7121 75.365 98.6471 75.51 98.6471 75.69C98.6471 75.86 98.7121 75.9933 98.8421 76.09C98.9721 76.1833 99.1505 76.23 99.3771 76.23Z" fill="#A73C4C"/>
<path d="M71.52 75.38H71.115V73.85L70.475 74.15C70.4317 74.1333 70.395 74.1083 70.365 74.075C70.3383 74.0417 70.325 74 70.325 73.95C70.325 73.8533 70.385 73.78 70.505 73.73L71.205 73.425H71.3C71.3667 73.425 71.42 73.445 71.46 73.485C71.5 73.525 71.52 73.5783 71.52 73.645V75.38ZM71.115 75.18H71.52V76.505C71.5 76.5117 71.4733 76.5183 71.44 76.525C71.4067 76.535 71.37 76.54 71.33 76.54C71.26 76.54 71.2067 76.525 71.17 76.495C71.1333 76.465 71.115 76.4183 71.115 76.355V75.18ZM73.4921 76.565C73.2588 76.565 73.0521 76.5083 72.8721 76.395C72.6954 76.2783 72.5571 76.1033 72.4571 75.87C72.3571 75.6333 72.3071 75.3367 72.3071 74.98C72.3071 74.5967 72.3638 74.29 72.4771 74.06C72.5904 73.83 72.7371 73.6633 72.9171 73.56C73.0971 73.4533 73.2888 73.4 73.4921 73.4C73.6988 73.4 73.8921 73.4533 74.0721 73.56C74.2554 73.6667 74.4021 73.8367 74.5121 74.07C74.6254 74.3 74.6821 74.6033 74.6821 74.98C74.6821 75.3333 74.6321 75.6283 74.5321 75.865C74.4321 76.0983 74.2921 76.2733 74.1121 76.39C73.9354 76.5067 73.7288 76.565 73.4921 76.565ZM73.4921 76.225C73.7388 76.225 73.9304 76.1183 74.0671 75.905C74.2038 75.6883 74.2721 75.38 74.2721 74.98C74.2721 74.6833 74.2354 74.445 74.1621 74.265C74.0921 74.0817 73.9988 73.9483 73.8821 73.865C73.7654 73.7817 73.6354 73.74 73.4921 73.74C73.3521 73.74 73.2221 73.7833 73.1021 73.87C72.9854 73.9533 72.8921 74.0867 72.8221 74.27C72.7521 74.4533 72.7171 74.69 72.7171 74.98C72.7171 75.38 72.7854 75.6883 72.9221 75.905C73.0588 76.1183 73.2488 76.225 73.4921 76.225ZM75.3377 76.255C75.3377 76.215 75.3477 76.1767 75.3677 76.14C75.3911 76.1033 75.4194 76.0767 75.4527 76.06C75.5161 76.0967 75.5977 76.1333 75.6977 76.17C75.8011 76.2033 75.9227 76.22 76.0627 76.22C76.2361 76.22 76.3944 76.1833 76.5377 76.11C76.6811 76.0367 76.7961 75.9167 76.8827 75.75C76.9694 75.58 77.0127 75.3567 77.0127 75.08C76.9827 75.1133 76.9327 75.155 76.8627 75.205C76.7961 75.2517 76.7111 75.2933 76.6077 75.33C76.5044 75.3667 76.3844 75.385 76.2477 75.385C76.0611 75.385 75.8861 75.3533 75.7227 75.29C75.5594 75.2233 75.4277 75.1183 75.3277 74.975C75.2311 74.8317 75.1827 74.6433 75.1827 74.41C75.1827 74.2 75.2294 74.02 75.3227 73.87C75.4161 73.7167 75.5427 73.6 75.7027 73.52C75.8627 73.44 76.0411 73.4 76.2377 73.4C76.4677 73.4 76.6711 73.4533 76.8477 73.56C77.0244 73.6633 77.1627 73.825 77.2627 74.045C77.3661 74.2617 77.4177 74.5417 77.4177 74.885C77.4177 75.2917 77.3611 75.6183 77.2477 75.865C77.1344 76.1117 76.9761 76.29 76.7727 76.4C76.5727 76.51 76.3377 76.565 76.0677 76.565C75.8677 76.565 75.6961 76.5383 75.5527 76.485C75.4094 76.4317 75.3377 76.355 75.3377 76.255ZM76.3027 75.05C76.4727 75.05 76.6227 75.0083 76.7527 74.925C76.8861 74.8383 76.9744 74.7433 77.0177 74.64L77.0127 74.695C77.0127 74.3983 76.9444 74.165 76.8077 73.995C76.6744 73.8217 76.4844 73.735 76.2377 73.735C76.0544 73.735 75.8994 73.795 75.7727 73.915C75.6494 74.0317 75.5877 74.1933 75.5877 74.4C75.5877 74.63 75.6577 74.7967 75.7977 74.9C75.9377 75 76.1061 75.05 76.3027 75.05Z" fill="#A73C4C"/>
<path d="M32.52 73.38H32.115V71.85L31.475 72.15C31.4317 72.1333 31.395 72.1083 31.365 72.075C31.3383 72.0417 31.325 72 31.325 71.95C31.325 71.8533 31.385 71.78 31.505 71.73L32.205 71.425H32.3C32.3667 71.425 32.42 71.445 32.46 71.485C32.5 71.525 32.52 71.5783 32.52 71.645V73.38ZM32.115 73.18H32.52V74.505C32.5 74.5117 32.4733 74.5183 32.44 74.525C32.4067 74.535 32.37 74.54 32.33 74.54C32.26 74.54 32.2067 74.525 32.17 74.495C32.1333 74.465 32.115 74.4183 32.115 74.355V73.18ZM34.3315 73.38H33.9265V71.85L33.2865 72.15C33.2432 72.1333 33.2065 72.1083 33.1765 72.075C33.1499 72.0417 33.1365 72 33.1365 71.95C33.1365 71.8533 33.1965 71.78 33.3165 71.73L34.0165 71.425H34.1115C34.1782 71.425 34.2315 71.445 34.2715 71.485C34.3115 71.525 34.3315 71.5783 34.3315 71.645V73.38ZM33.9265 73.18H34.3315V74.505C34.3115 74.5117 34.2849 74.5183 34.2515 74.525C34.2182 74.535 34.1815 74.54 34.1415 74.54C34.0715 74.54 34.0182 74.525 33.9815 74.495C33.9449 74.465 33.9265 74.4183 33.9265 74.355V73.18ZM35.1825 71.775C35.1825 71.715 35.2208 71.6567 35.2975 71.6C35.3741 71.54 35.4775 71.4917 35.6075 71.455C35.7375 71.4183 35.8791 71.4 36.0325 71.4C36.2458 71.4 36.4291 71.4367 36.5825 71.51C36.7358 71.58 36.8541 71.68 36.9375 71.81C37.0208 71.94 37.0625 72.0933 37.0625 72.27C37.0625 72.4533 37.0108 72.6333 36.9075 72.81C36.8075 72.9867 36.6341 73.1883 36.3875 73.415L35.5725 74.17H37.0575C37.0708 74.1833 37.0825 74.205 37.0925 74.235C37.1025 74.2617 37.1075 74.2933 37.1075 74.33C37.1075 74.3833 37.0925 74.425 37.0625 74.455C37.0358 74.485 36.9991 74.5 36.9525 74.5H35.1875C35.1541 74.4767 35.1291 74.4483 35.1125 74.415C35.0958 74.3783 35.0875 74.34 35.0875 74.3C35.0875 74.2467 35.0975 74.2 35.1175 74.16C35.1375 74.1167 35.1675 74.0767 35.2075 74.04L36.1075 73.175C36.3141 72.9817 36.4558 72.82 36.5325 72.69C36.6091 72.5567 36.6475 72.4183 36.6475 72.275C36.6475 72.1183 36.5941 71.99 36.4875 71.89C36.3808 71.79 36.2191 71.74 36.0025 71.74C35.8558 71.74 35.7241 71.765 35.6075 71.815C35.4941 71.865 35.3991 71.9183 35.3225 71.975C35.2858 71.9583 35.2525 71.9333 35.2225 71.9C35.1958 71.8667 35.1825 71.825 35.1825 71.775Z" fill="#A73C4C"/>
<path d="M32.52 78.38H32.115V76.85L31.475 77.15C31.4317 77.1333 31.395 77.1083 31.365 77.075C31.3383 77.0417 31.325 77 31.325 76.95C31.325 76.8533 31.385 76.78 31.505 76.73L32.205 76.425H32.3C32.3667 76.425 32.42 76.445 32.46 76.485C32.5 76.525 32.52 76.5783 32.52 76.645V78.38ZM32.115 78.18H32.52V79.505C32.5 79.5117 32.4733 79.5183 32.44 79.525C32.4067 79.535 32.37 79.54 32.33 79.54C32.26 79.54 32.2067 79.525 32.17 79.495C32.1333 79.465 32.115 79.4183 32.115 79.355V78.18ZM34.3315 78.38H33.9265V76.85L33.2865 77.15C33.2432 77.1333 33.2065 77.1083 33.1765 77.075C33.1499 77.0417 33.1365 77 33.1365 76.95C33.1365 76.8533 33.1965 76.78 33.3165 76.73L34.0165 76.425H34.1115C34.1782 76.425 34.2315 76.445 34.2715 76.485C34.3115 76.525 34.3315 76.5783 34.3315 76.645V78.38ZM33.9265 78.18H34.3315V79.505C34.3115 79.5117 34.2849 79.5183 34.2515 79.525C34.2182 79.535 34.1815 79.54 34.1415 79.54C34.0715 79.54 34.0182 79.525 33.9815 79.495C33.9449 79.465 33.9265 79.4183 33.9265 79.355V78.18ZM35.958 76.395C36.2747 76.395 36.5297 76.465 36.723 76.605C36.9197 76.7417 37.018 76.9483 37.018 77.225C37.018 77.3583 36.9897 77.4733 36.933 77.57C36.8797 77.6633 36.8147 77.7367 36.738 77.79C36.6647 77.8433 36.598 77.8783 36.538 77.895C36.628 77.9217 36.7164 77.9683 36.803 78.035C36.8897 78.0983 36.9614 78.1817 37.018 78.285C37.078 78.385 37.108 78.5067 37.108 78.65C37.108 78.85 37.0597 79.0167 36.963 79.15C36.8664 79.2833 36.733 79.385 36.563 79.455C36.393 79.5217 36.1964 79.555 35.973 79.555C35.7897 79.555 35.6264 79.5367 35.483 79.5C35.343 79.46 35.233 79.41 35.153 79.35C35.073 79.29 35.033 79.2267 35.033 79.16C35.033 79.1133 35.0447 79.0733 35.068 79.04C35.0947 79.0067 35.128 78.9783 35.168 78.955C35.2547 79.0217 35.3597 79.0817 35.483 79.135C35.6097 79.1883 35.773 79.215 35.973 79.215C36.193 79.215 36.3714 79.1683 36.508 79.075C36.6447 78.9783 36.713 78.8333 36.713 78.64C36.713 78.47 36.6497 78.3333 36.523 78.23C36.3964 78.1267 36.213 78.075 35.973 78.075H35.558C35.5447 78.0583 35.533 78.035 35.523 78.005C35.513 77.9717 35.508 77.9383 35.508 77.905C35.508 77.8683 35.513 77.835 35.523 77.805C35.533 77.775 35.5447 77.7517 35.558 77.735H35.938C36.1847 77.735 36.3597 77.69 36.463 77.6C36.5697 77.5067 36.623 77.385 36.623 77.235C36.623 77.0717 36.563 76.9483 36.443 76.865C36.323 76.7783 36.1597 76.735 35.953 76.735C35.793 76.735 35.6514 76.76 35.528 76.81C35.408 76.8567 35.308 76.9083 35.228 76.965C35.1947 76.9483 35.1647 76.9217 35.138 76.885C35.1114 76.8483 35.098 76.8083 35.098 76.765C35.098 76.705 35.1364 76.6467 35.213 76.59C35.2897 76.5333 35.393 76.4867 35.523 76.45C35.653 76.4133 35.798 76.395 35.958 76.395Z" fill="#A73C4C"/>
<path d="M22.52 48.38H22.115V46.85L21.475 47.15C21.4317 47.1333 21.395 47.1083 21.365 47.075C21.3383 47.0417 21.325 47 21.325 46.95C21.325 46.8533 21.385 46.78 21.505 46.73L22.205 46.425H22.3C22.3667 46.425 22.42 46.445 22.46 46.485C22.5 46.525 22.52 46.5783 22.52 46.645V48.38ZM22.115 48.18H22.52V49.505C22.5 49.5117 22.4733 49.5183 22.44 49.525C22.4067 49.535 22.37 49.54 22.33 49.54C22.26 49.54 22.2067 49.525 22.17 49.495C22.1333 49.465 22.115 49.4183 22.115 49.355V48.18ZM24.3315 48.38H23.9265V46.85L23.2865 47.15C23.2432 47.1333 23.2065 47.1083 23.1765 47.075C23.1499 47.0417 23.1365 47 23.1365 46.95C23.1365 46.8533 23.1965 46.78 23.3165 46.73L24.0165 46.425H24.1115C24.1782 46.425 24.2315 46.445 24.2715 46.485C24.3115 46.525 24.3315 46.5783 24.3315 46.645V48.38ZM23.9265 48.18H24.3315V49.505C24.3115 49.5117 24.2849 49.5183 24.2515 49.525C24.2182 49.535 24.1815 49.54 24.1415 49.54C24.0715 49.54 24.0182 49.525 23.9815 49.495C23.9449 49.465 23.9265 49.4183 23.9265 49.355V48.18ZM25.8686 46.46L25.7336 46.755L25.6486 47.7C25.7053 47.67 25.7836 47.6417 25.8836 47.615C25.987 47.585 26.0953 47.57 26.2086 47.57C26.4086 47.57 26.5886 47.6083 26.7486 47.685C26.9086 47.7583 27.0353 47.8683 27.1286 48.015C27.2253 48.1583 27.2736 48.3367 27.2736 48.55C27.2736 48.7433 27.2286 48.9167 27.1386 49.07C27.052 49.2233 26.9236 49.345 26.7536 49.435C26.587 49.5217 26.382 49.565 26.1386 49.565C25.9486 49.565 25.782 49.5433 25.6386 49.5C25.4953 49.4567 25.3836 49.4033 25.3036 49.34C25.2236 49.2767 25.1836 49.215 25.1836 49.155C25.1836 49.1017 25.2003 49.055 25.2336 49.015C25.2703 48.975 25.307 48.9483 25.3436 48.935C25.417 48.9983 25.5203 49.0633 25.6536 49.13C25.787 49.1967 25.9486 49.23 26.1386 49.23C26.3686 49.23 26.547 49.1667 26.6736 49.04C26.8003 48.91 26.8636 48.7467 26.8636 48.55C26.8636 48.3467 26.7986 48.1883 26.6686 48.075C26.5386 47.9617 26.3686 47.905 26.1586 47.905C26.042 47.905 25.9353 47.9233 25.8386 47.96C25.742 47.9967 25.652 48.0383 25.5686 48.085C25.4786 48.0783 25.4053 48.0517 25.3486 48.005C25.2953 47.955 25.2686 47.8917 25.2686 47.815C25.2686 47.795 25.2686 47.77 25.2686 47.74C25.272 47.7067 25.2753 47.675 25.2786 47.645L25.3636 46.69C25.3703 46.62 25.392 46.565 25.4286 46.525C25.4653 46.4817 25.5186 46.46 25.5886 46.46H25.8686ZM25.6586 46.8V46.46H27.1186C27.1286 46.4733 27.1386 46.495 27.1486 46.525C27.1586 46.555 27.1636 46.5867 27.1636 46.62C27.1636 46.6733 27.1503 46.7167 27.1236 46.75C27.097 46.7833 27.0586 46.8 27.0086 46.8H25.6586Z" fill="#A73C4C"/>
<path d="M99.52 16.38H99.115V14.85L98.475 15.15C98.4317 15.1333 98.395 15.1083 98.365 15.075C98.3383 15.0417 98.325 15 98.325 14.95C98.325 14.8533 98.385 14.78 98.505 14.73L99.205 14.425H99.3C99.3667 14.425 99.42 14.445 99.46 14.485C99.5 14.525 99.52 14.5783 99.52 14.645V16.38ZM99.115 16.18H99.52V17.505C99.5 17.5117 99.4733 17.5183 99.44 17.525C99.4067 17.535 99.37 17.54 99.33 17.54C99.26 17.54 99.2067 17.525 99.17 17.495C99.1333 17.465 99.115 17.4183 99.115 17.355V16.18ZM101.492 17.565C101.259 17.565 101.052 17.5083 100.872 17.395C100.695 17.2783 100.557 17.1033 100.457 16.87C100.357 16.6333 100.307 16.3367 100.307 15.98C100.307 15.5967 100.364 15.29 100.477 15.06C100.59 14.83 100.737 14.6633 100.917 14.56C101.097 14.4533 101.289 14.4 101.492 14.4C101.699 14.4 101.892 14.4533 102.072 14.56C102.255 14.6667 102.402 14.8367 102.512 15.07C102.625 15.3 102.682 15.6033 102.682 15.98C102.682 16.3333 102.632 16.6283 102.532 16.865C102.432 17.0983 102.292 17.2733 102.112 17.39C101.935 17.5067 101.729 17.565 101.492 17.565ZM101.492 17.225C101.739 17.225 101.93 17.1183 102.067 16.905C102.204 16.6883 102.272 16.38 102.272 15.98C102.272 15.6833 102.235 15.445 102.162 15.265C102.092 15.0817 101.999 14.9483 101.882 14.865C101.765 14.7817 101.635 14.74 101.492 14.74C101.352 14.74 101.222 14.7833 101.102 14.87C100.985 14.9533 100.892 15.0867 100.822 15.27C100.752 15.4533 100.717 15.69 100.717 15.98C100.717 16.38 100.785 16.6883 100.922 16.905C101.059 17.1183 101.249 17.225 101.492 17.225ZM103.232 14.775C103.232 14.715 103.271 14.6567 103.347 14.6C103.424 14.54 103.527 14.4917 103.657 14.455C103.787 14.4183 103.929 14.4 104.082 14.4C104.296 14.4 104.479 14.4367 104.632 14.51C104.786 14.58 104.904 14.68 104.987 14.81C105.071 14.94 105.112 15.0933 105.112 15.27C105.112 15.4533 105.061 15.6333 104.957 15.81C104.857 15.9867 104.684 16.1883 104.437 16.415L103.622 17.17H105.107C105.121 17.1833 105.132 17.205 105.142 17.235C105.152 17.2617 105.157 17.2933 105.157 17.33C105.157 17.3833 105.142 17.425 105.112 17.455C105.086 17.485 105.049 17.5 105.002 17.5H103.237C103.204 17.4767 103.179 17.4483 103.162 17.415C103.146 17.3783 103.137 17.34 103.137 17.3C103.137 17.2467 103.147 17.2 103.167 17.16C103.187 17.1167 103.217 17.0767 103.257 17.04L104.157 16.175C104.364 15.9817 104.506 15.82 104.582 15.69C104.659 15.5567 104.697 15.4183 104.697 15.275C104.697 15.1183 104.644 14.99 104.537 14.89C104.431 14.79 104.269 14.74 104.052 14.74C103.906 14.74 103.774 14.765 103.657 14.815C103.544 14.865 103.449 14.9183 103.372 14.975C103.336 14.9583 103.302 14.9333 103.272 14.9C103.246 14.8667 103.232 14.825 103.232 14.775Z" fill="#A73C4C"/>
<path d="M57.52 16.38H57.115V14.85L56.475 15.15C56.4317 15.1333 56.395 15.1083 56.365 15.075C56.3383 15.0417 56.325 15 56.325 14.95C56.325 14.8533 56.385 14.78 56.505 14.73L57.205 14.425H57.3C57.3667 14.425 57.42 14.445 57.46 14.485C57.5 14.525 57.52 14.5783 57.52 14.645V16.38ZM57.115 16.18H57.52V17.505C57.5 17.5117 57.4733 17.5183 57.44 17.525C57.4067 17.535 57.37 17.54 57.33 17.54C57.26 17.54 57.2067 17.525 57.17 17.495C57.1333 17.465 57.115 17.4183 57.115 17.355V16.18ZM58.3709 14.775C58.3709 14.715 58.4093 14.6567 58.4859 14.6C58.5626 14.54 58.6659 14.4917 58.7959 14.455C58.9259 14.4183 59.0676 14.4 59.2209 14.4C59.4343 14.4 59.6176 14.4367 59.7709 14.51C59.9243 14.58 60.0426 14.68 60.1259 14.81C60.2093 14.94 60.2509 15.0933 60.2509 15.27C60.2509 15.4533 60.1993 15.6333 60.0959 15.81C59.9959 15.9867 59.8226 16.1883 59.5759 16.415L58.7609 17.17H60.2459C60.2593 17.1833 60.2709 17.205 60.2809 17.235C60.2909 17.2617 60.2959 17.2933 60.2959 17.33C60.2959 17.3833 60.2809 17.425 60.2509 17.455C60.2243 17.485 60.1876 17.5 60.1409 17.5H58.3759C58.3426 17.4767 58.3176 17.4483 58.3009 17.415C58.2843 17.3783 58.2759 17.34 58.2759 17.3C58.2759 17.2467 58.2859 17.2 58.3059 17.16C58.3259 17.1167 58.3559 17.0767 58.3959 17.04L59.2959 16.175C59.5026 15.9817 59.6443 15.82 59.7209 15.69C59.7976 15.5567 59.8359 15.4183 59.8359 15.275C59.8359 15.1183 59.7826 14.99 59.6759 14.89C59.5693 14.79 59.4076 14.74 59.1909 14.74C59.0443 14.74 58.9126 14.765 58.7959 14.815C58.6826 14.865 58.5876 14.9183 58.5109 14.975C58.4743 14.9583 58.4409 14.9333 58.4109 14.9C58.3843 14.8667 58.3709 14.825 58.3709 14.775ZM60.91 14.775C60.91 14.715 60.9483 14.6567 61.025 14.6C61.1017 14.54 61.205 14.4917 61.335 14.455C61.465 14.4183 61.6067 14.4 61.76 14.4C61.9733 14.4 62.1567 14.4367 62.31 14.51C62.4633 14.58 62.5817 14.68 62.665 14.81C62.7483 14.94 62.79 15.0933 62.79 15.27C62.79 15.4533 62.7383 15.6333 62.635 15.81C62.535 15.9867 62.3617 16.1883 62.115 16.415L61.3 17.17H62.785C62.7983 17.1833 62.81 17.205 62.82 17.235C62.83 17.2617 62.835 17.2933 62.835 17.33C62.835 17.3833 62.82 17.425 62.79 17.455C62.7633 17.485 62.7267 17.5 62.68 17.5H60.915C60.8817 17.4767 60.8567 17.4483 60.84 17.415C60.8233 17.3783 60.815 17.34 60.815 17.3C60.815 17.2467 60.825 17.2 60.845 17.16C60.865 17.1167 60.895 17.0767 60.935 17.04L61.835 16.175C62.0417 15.9817 62.1833 15.82 62.26 15.69C62.3367 15.5567 62.375 15.4183 62.375 15.275C62.375 15.1183 62.3217 14.99 62.215 14.89C62.1083 14.79 61.9467 14.74 61.73 14.74C61.5833 14.74 61.4517 14.765 61.335 14.815C61.2217 14.865 61.1267 14.9183 61.05 14.975C61.0133 14.9583 60.98 14.9333 60.95 14.9C60.9233 14.8667 60.91 14.825 60.91 14.775Z" fill="#A73C4C"/>
<path d="M43.52 42.38H43.115V40.85L42.475 41.15C42.4317 41.1333 42.395 41.1083 42.365 41.075C42.3383 41.0417 42.325 41 42.325 40.95C42.325 40.8533 42.385 40.78 42.505 40.73L43.205 40.425H43.3C43.3667 40.425 43.42 40.445 43.46 40.485C43.5 40.525 43.52 40.5783 43.52 40.645V42.38ZM43.115 42.18H43.52V43.505C43.5 43.5117 43.4733 43.5183 43.44 43.525C43.4067 43.535 43.37 43.54 43.33 43.54C43.26 43.54 43.2067 43.525 43.17 43.495C43.1333 43.465 43.115 43.4183 43.115 43.355V42.18ZM45.3315 42.38H44.9265V40.85L44.2865 41.15C44.2432 41.1333 44.2065 41.1083 44.1765 41.075C44.1499 41.0417 44.1365 41 44.1365 40.95C44.1365 40.8533 44.1965 40.78 44.3165 40.73L45.0165 40.425H45.1115C45.1782 40.425 45.2315 40.445 45.2715 40.485C45.3115 40.525 45.3315 40.5783 45.3315 40.645V42.38ZM44.9265 42.18H45.3315V43.505C45.3115 43.5117 45.2849 43.5183 45.2515 43.525C45.2182 43.535 45.1815 43.54 45.1415 43.54C45.0715 43.54 45.0182 43.525 44.9815 43.495C44.9449 43.465 44.9265 43.4183 44.9265 43.355V42.18ZM47.3029 43.565C47.0763 43.565 46.8779 43.5317 46.7079 43.465C46.5379 43.395 46.4063 43.295 46.3129 43.165C46.2196 43.035 46.1729 42.8783 46.1729 42.695C46.1729 42.5317 46.2096 42.3933 46.2829 42.28C46.3596 42.1633 46.4563 42.07 46.5729 42C46.6896 41.93 46.8113 41.8833 46.9379 41.86L47.2379 41.81C47.4779 41.7633 47.6579 41.695 47.7779 41.605C47.8979 41.5117 47.9579 41.3883 47.9579 41.235C47.9579 41.0783 47.8996 40.9567 47.7829 40.87C47.6663 40.78 47.5063 40.735 47.3029 40.735C47.1063 40.735 46.9479 40.78 46.8279 40.87C46.7079 40.96 46.6479 41.08 46.6479 41.23C46.6479 41.3567 46.6813 41.4583 46.7479 41.535C46.8179 41.6117 46.9096 41.67 47.0229 41.71C47.1396 41.7467 47.2663 41.7717 47.4029 41.785L47.6229 41.86C47.7596 41.8867 47.8896 41.935 48.0129 42.005C48.1363 42.0717 48.2363 42.1617 48.3129 42.275C48.3896 42.3883 48.4279 42.53 48.4279 42.7C48.4279 42.88 48.3796 43.035 48.2829 43.165C48.1896 43.295 48.0579 43.395 47.8879 43.465C47.7213 43.5317 47.5263 43.565 47.3029 43.565ZM47.3029 43.23C47.5196 43.23 47.6946 43.1833 47.8279 43.09C47.9613 42.9967 48.0279 42.8617 48.0279 42.685C48.0279 42.4917 47.9463 42.3383 47.7829 42.225C47.6229 42.1117 47.4079 42.0467 47.1379 42.03L46.8829 41.955C46.6896 41.9017 46.5346 41.815 46.4179 41.695C46.3046 41.575 46.2479 41.4183 46.2479 41.225C46.2479 41.055 46.2913 40.9083 46.3779 40.785C46.4679 40.6617 46.5913 40.5667 46.7479 40.5C46.9079 40.4333 47.0929 40.4 47.3029 40.4C47.6296 40.4 47.8863 40.475 48.0729 40.625C48.2629 40.7717 48.3579 40.975 48.3579 41.235C48.3579 41.445 48.2863 41.61 48.1429 41.73C48.0029 41.85 47.8313 41.9283 47.6279 41.965L47.2879 42.035C47.0746 42.0683 46.9013 42.1417 46.7679 42.255C46.6379 42.365 46.5729 42.51 46.5729 42.69C46.5729 42.86 46.6379 42.9933 46.7679 43.09C46.8979 43.1833 47.0763 43.23 47.3029 43.23Z" fill="#A73C4C"/>
<path d="M43.52 57.38H43.115V55.85L42.475 56.15C42.4317 56.1333 42.395 56.1083 42.365 56.075C42.3383 56.0417 42.325 56 42.325 55.95C42.325 55.8533 42.385 55.78 42.505 55.73L43.205 55.425H43.3C43.3667 55.425 43.42 55.445 43.46 55.485C43.5 55.525 43.52 55.5783 43.52 55.645V57.38ZM43.115 57.18H43.52V58.505C43.5 58.5117 43.4733 58.5183 43.44 58.525C43.4067 58.535 43.37 58.54 43.33 58.54C43.26 58.54 43.2067 58.525 43.17 58.495C43.1333 58.465 43.115 58.4183 43.115 58.355V57.18ZM45.3315 57.38H44.9265V55.85L44.2865 56.15C44.2432 56.1333 44.2065 56.1083 44.1765 56.075C44.1499 56.0417 44.1365 56 44.1365 55.95C44.1365 55.8533 44.1965 55.78 44.3165 55.73L45.0165 55.425H45.1115C45.1782 55.425 45.2315 55.445 45.2715 55.485C45.3115 55.525 45.3315 55.5783 45.3315 55.645V57.38ZM44.9265 57.18H45.3315V58.505C45.3115 58.5117 45.2849 58.5183 45.2515 58.525C45.2182 58.535 45.1815 58.54 45.1415 58.54C45.0715 58.54 45.0182 58.525 44.9815 58.495C44.9449 58.465 44.9265 58.4183 44.9265 58.355V57.18ZM47.3036 58.565C47.0703 58.565 46.8636 58.5083 46.6836 58.395C46.507 58.2783 46.3686 58.1033 46.2686 57.87C46.1686 57.6333 46.1186 57.3367 46.1186 56.98C46.1186 56.5967 46.1753 56.29 46.2886 56.06C46.402 55.83 46.5486 55.6633 46.7286 55.56C46.9086 55.4533 47.1003 55.4 47.3036 55.4C47.5103 55.4 47.7036 55.4533 47.8836 55.56C48.067 55.6667 48.2136 55.8367 48.3236 56.07C48.437 56.3 48.4936 56.6033 48.4936 56.98C48.4936 57.3333 48.4436 57.6283 48.3436 57.865C48.2436 58.0983 48.1036 58.2733 47.9236 58.39C47.747 58.5067 47.5403 58.565 47.3036 58.565ZM47.3036 58.225C47.5503 58.225 47.742 58.1183 47.8786 57.905C48.0153 57.6883 48.0836 57.38 48.0836 56.98C48.0836 56.6833 48.047 56.445 47.9736 56.265C47.9036 56.0817 47.8103 55.9483 47.6936 55.865C47.577 55.7817 47.447 55.74 47.3036 55.74C47.1636 55.74 47.0336 55.7833 46.9136 55.87C46.797 55.9533 46.7036 56.0867 46.6336 56.27C46.5636 56.4533 46.5286 56.69 46.5286 56.98C46.5286 57.38 46.597 57.6883 46.7336 57.905C46.8703 58.1183 47.0603 58.225 47.3036 58.225Z" fill="#A73C4C"/>
<path d="M43.52 33.38H43.115V31.85L42.475 32.15C42.4317 32.1333 42.395 32.1083 42.365 32.075C42.3383 32.0417 42.325 32 42.325 31.95C42.325 31.8533 42.385 31.78 42.505 31.73L43.205 31.425H43.3C43.3667 31.425 43.42 31.445 43.46 31.485C43.5 31.525 43.52 31.5783 43.52 31.645V33.38ZM43.115 33.18H43.52V34.505C43.5 34.5117 43.4733 34.5183 43.44 34.525C43.4067 34.535 43.37 34.54 43.33 34.54C43.26 34.54 43.2067 34.525 43.17 34.495C43.1333 34.465 43.115 34.4183 43.115 34.355V33.18ZM45.3315 33.38H44.9265V31.85L44.2865 32.15C44.2432 32.1333 44.2065 32.1083 44.1765 32.075C44.1499 32.0417 44.1365 32 44.1365 31.95C44.1365 31.8533 44.1965 31.78 44.3165 31.73L45.0165 31.425H45.1115C45.1782 31.425 45.2315 31.445 45.2715 31.485C45.3115 31.525 45.3315 31.5783 45.3315 31.645V33.38ZM44.9265 33.18H45.3315V34.505C45.3115 34.5117 45.2849 34.5183 45.2515 34.525C45.2182 34.535 45.1815 34.54 45.1415 34.54C45.0715 34.54 45.0182 34.525 44.9815 34.495C44.9449 34.465 44.9265 34.4183 44.9265 34.355V33.18ZM46.2879 34.255C46.2879 34.215 46.2979 34.1767 46.3179 34.14C46.3413 34.1033 46.3696 34.0767 46.4029 34.06C46.4663 34.0967 46.5479 34.1333 46.6479 34.17C46.7513 34.2033 46.8729 34.22 47.0129 34.22C47.1863 34.22 47.3446 34.1833 47.4879 34.11C47.6313 34.0367 47.7463 33.9167 47.8329 33.75C47.9196 33.58 47.9629 33.3567 47.9629 33.08C47.9329 33.1133 47.8829 33.155 47.8129 33.205C47.7463 33.2517 47.6613 33.2933 47.5579 33.33C47.4546 33.3667 47.3346 33.385 47.1979 33.385C47.0113 33.385 46.8363 33.3533 46.6729 33.29C46.5096 33.2233 46.3779 33.1183 46.2779 32.975C46.1813 32.8317 46.1329 32.6433 46.1329 32.41C46.1329 32.2 46.1796 32.02 46.2729 31.87C46.3663 31.7167 46.4929 31.6 46.6529 31.52C46.8129 31.44 46.9913 31.4 47.1879 31.4C47.4179 31.4 47.6213 31.4533 47.7979 31.56C47.9746 31.6633 48.1129 31.825 48.2129 32.045C48.3163 32.2617 48.3679 32.5417 48.3679 32.885C48.3679 33.2917 48.3113 33.6183 48.1979 33.865C48.0846 34.1117 47.9263 34.29 47.7229 34.4C47.5229 34.51 47.2879 34.565 47.0179 34.565C46.8179 34.565 46.6463 34.5383 46.5029 34.485C46.3596 34.4317 46.2879 34.355 46.2879 34.255ZM47.2529 33.05C47.4229 33.05 47.5729 33.0083 47.7029 32.925C47.8363 32.8383 47.9246 32.7433 47.9679 32.64L47.9629 32.695C47.9629 32.3983 47.8946 32.165 47.7579 31.995C47.6246 31.8217 47.4346 31.735 47.1879 31.735C47.0046 31.735 46.8496 31.795 46.7229 31.915C46.5996 32.0317 46.5379 32.1933 46.5379 32.4C46.5379 32.63 46.6079 32.7967 46.7479 32.9C46.8879 33 47.0563 33.05 47.2529 33.05Z" fill="#A73C4C"/>
<path d="M40.52 16.38H40.115V14.85L39.475 15.15C39.4317 15.1333 39.395 15.1083 39.365 15.075C39.3383 15.0417 39.325 15 39.325 14.95C39.325 14.8533 39.385 14.78 39.505 14.73L40.205 14.425H40.3C40.3667 14.425 40.42 14.445 40.46 14.485C40.5 14.525 40.52 14.5783 40.52 14.645V16.38ZM40.115 16.18H40.52V17.505C40.5 17.5117 40.4733 17.5183 40.44 17.525C40.4067 17.535 40.37 17.54 40.33 17.54C40.26 17.54 40.2067 17.525 40.17 17.495C40.1333 17.465 40.115 17.4183 40.115 17.355V16.18ZM41.3709 14.775C41.3709 14.715 41.4093 14.6567 41.4859 14.6C41.5626 14.54 41.6659 14.4917 41.7959 14.455C41.9259 14.4183 42.0676 14.4 42.2209 14.4C42.4343 14.4 42.6176 14.4367 42.7709 14.51C42.9243 14.58 43.0426 14.68 43.1259 14.81C43.2093 14.94 43.2509 15.0933 43.2509 15.27C43.2509 15.4533 43.1993 15.6333 43.0959 15.81C42.9959 15.9867 42.8226 16.1883 42.5759 16.415L41.7609 17.17H43.2459C43.2593 17.1833 43.2709 17.205 43.2809 17.235C43.2909 17.2617 43.2959 17.2933 43.2959 17.33C43.2959 17.3833 43.2809 17.425 43.2509 17.455C43.2243 17.485 43.1876 17.5 43.1409 17.5H41.3759C41.3426 17.4767 41.3176 17.4483 41.3009 17.415C41.2843 17.3783 41.2759 17.34 41.2759 17.3C41.2759 17.2467 41.2859 17.2 41.3059 17.16C41.3259 17.1167 41.3559 17.0767 41.3959 17.04L42.2959 16.175C42.5026 15.9817 42.6443 15.82 42.7209 15.69C42.7976 15.5567 42.8359 15.4183 42.8359 15.275C42.8359 15.1183 42.7826 14.99 42.6759 14.89C42.5693 14.79 42.4076 14.74 42.1909 14.74C42.0443 14.74 41.9126 14.765 41.7959 14.815C41.6826 14.865 41.5876 14.9183 41.5109 14.975C41.4743 14.9583 41.4409 14.9333 41.4109 14.9C41.3843 14.8667 41.3709 14.825 41.3709 14.775ZM44.895 16.38H44.49V14.85L43.85 15.15C43.8067 15.1333 43.77 15.1083 43.74 15.075C43.7133 15.0417 43.7 15 43.7 14.95C43.7 14.8533 43.76 14.78 43.88 14.73L44.58 14.425H44.675C44.7417 14.425 44.795 14.445 44.835 14.485C44.875 14.525 44.895 14.5783 44.895 14.645V16.38ZM44.49 16.18H44.895V17.505C44.875 17.5117 44.8483 17.5183 44.815 17.525C44.7817 17.535 44.745 17.54 44.705 17.54C44.635 17.54 44.5817 17.525 44.545 17.495C44.5083 17.465 44.49 17.4183 44.49 17.355V16.18Z" fill="#A73C4C"/>
<path d="M59.7039 51.3079V50.2495C59.7037 50.2201 59.6926 50.1919 59.6732 50.1712C59.6538 50.1505 59.6276 50.1389 59.6003 50.1389H59.3528C59.3362 50.1387 59.3199 50.1343 59.3052 50.1259C59.2905 50.1176 59.2779 50.1055 59.2684 50.0908C59.259 50.0761 59.2529 50.0591 59.2508 50.0414C59.2487 50.0236 59.2506 50.0056 59.2564 49.9888L59.8468 48.2569C59.8542 48.2357 59.8673 48.2173 59.8846 48.2043C59.9018 48.1912 59.9222 48.1841 59.9433 48.1838H60.5686C60.59 48.1837 60.6108 48.1908 60.6283 48.204C60.6457 48.2173 60.6589 48.2361 60.666 48.2579L61.2448 49.9897C61.2501 50.0071 61.2514 50.0256 61.2485 50.0436C61.2456 50.0616 61.2386 50.0786 61.2282 50.0931C61.2178 50.1075 61.2043 50.119 61.1888 50.1265C61.1733 50.1339 61.1563 50.1372 61.1394 50.136H60.8714C60.8447 50.1377 60.8197 50.1505 60.8015 50.1717C60.7834 50.1928 60.7735 50.2207 60.774 50.2495V51.3079" stroke="#3A3A3A" stroke-width="0.4" stroke-linecap="round"/>
<path d="M60.25 47.6373C60.5675 47.6373 60.8249 47.3827 60.8249 47.0686C60.8249 46.7546 60.5675 46.5 60.25 46.5C59.9325 46.5 59.6751 46.7546 59.6751 47.0686C59.6751 47.3827 59.9325 47.6373 60.25 47.6373Z" stroke="#3A3A3A" stroke-width="0.4" stroke-linecap="round"/>
<path d="M96.5378 51.38V50.1216C96.538 50.0907 96.5324 50.0601 96.5213 50.0318C96.5103 50.0036 96.4941 49.9783 96.4738 49.9578L96.2816 49.758C96.2716 49.7476 96.2637 49.735 96.2582 49.7209C96.2528 49.7068 96.25 49.6915 96.25 49.6761V48.3777C96.25 48.3193 96.2703 48.2634 96.3065 48.222C96.3427 48.1806 96.3918 48.1573 96.4431 48.157H97.6804C97.7573 48.1573 97.831 48.1922 97.8852 48.2542C97.9395 48.3161 97.97 48.4001 97.97 48.4876V49.6861C97.9698 49.7142 97.9604 49.7413 97.9437 49.762L97.7585 49.9867C97.7245 50.0274 97.7057 50.0814 97.7059 50.1376V51.38" stroke="#3A3A3A" stroke-width="0.4" stroke-linecap="round"/>
<path d="M97.1153 47.6805C97.4342 47.6805 97.6927 47.4163 97.6927 47.0903C97.6927 46.7643 97.4342 46.5 97.1153 46.5C96.7964 46.5 96.5378 46.7643 96.5378 47.0903C96.5378 47.4163 96.7964 47.6805 97.1153 47.6805Z" stroke="#3A3A3A" stroke-width="0.4" stroke-linecap="round"/>
<path d="M56.55 53C56.3843 53 56.25 53.1343 56.25 53.3V59.7C56.25 59.8657 56.3843 60 56.55 60H57.2528H62.95C63.1157 60 63.25 59.8657 63.25 59.7V54.2249V53.3C63.25 53.1343 63.1157 53 62.95 53H56.55ZM57.8654 59.7308V59.0231C57.8654 58.9678 57.9102 58.9231 57.9654 58.9231H58.6423C58.808 58.9231 58.9423 58.7888 58.9423 58.6231V57.9462C58.9423 57.8909 58.9871 57.8462 59.0423 57.8462H59.7192C59.8849 57.8462 60.0192 57.7118 60.0192 57.5462V56.8692C60.0192 56.814 60.064 56.7692 60.1192 56.7692H60.7962C60.9618 56.7692 61.0962 56.6349 61.0962 56.4692V55.7923C61.0962 55.7371 61.1409 55.6923 61.1962 55.6923H61.8731C62.0388 55.6923 62.1731 55.558 62.1731 55.3923V54.7154C62.1731 54.6602 62.2178 54.6154 62.2731 54.6154H62.9808V59.6307C62.9808 59.6859 62.936 59.7307 62.8808 59.7307L57.8654 59.7308ZM62.9808 54.3462H62.2038C62.0382 54.3462 61.9038 54.4805 61.9038 54.6462V55.3231C61.9038 55.3783 61.8591 55.4231 61.8038 55.4231H61.1269C60.9612 55.4231 60.8269 55.5574 60.8269 55.7231V56.4C60.8269 56.4552 60.7822 56.5 60.7269 56.5H60.05C59.8843 56.5 59.75 56.6343 59.75 56.8V57.4769C59.75 57.5321 59.7052 57.5769 59.65 57.5769H58.9731C58.8074 57.5769 58.6731 57.7112 58.6731 57.8769V58.5538C58.6731 58.6091 58.6283 58.6538 58.5731 58.6538H57.8962C57.7305 58.6538 57.5962 58.7882 57.5962 58.9538V59.7307H56.6192C56.564 59.7307 56.5192 59.6859 56.5192 59.6307V53.3692C56.5192 53.314 56.564 53.2692 56.6192 53.2692H62.8808C62.936 53.2692 62.9808 53.314 62.9808 53.3692V54.3462Z" fill="#A73C4C"/>
<path d="M93.55 53C93.3843 53 93.25 53.1343 93.25 53.3V59.7C93.25 59.8657 93.3843 60 93.55 60H94.2528H99.95C100.116 60 100.25 59.8657 100.25 59.7V54.2249V53.3C100.25 53.1343 100.116 53 99.95 53H93.55ZM94.8654 59.7308V59.0231C94.8654 58.9678 94.9102 58.9231 94.9654 58.9231H95.6423C95.808 58.9231 95.9423 58.7888 95.9423 58.6231V57.9462C95.9423 57.8909 95.9871 57.8462 96.0423 57.8462H96.7192C96.8849 57.8462 97.0192 57.7118 97.0192 57.5462V56.8692C97.0192 56.814 97.064 56.7692 97.1192 56.7692H97.7962C97.9618 56.7692 98.0962 56.6349 98.0962 56.4692V55.7923C98.0962 55.7371 98.1409 55.6923 98.1962 55.6923H98.8731C99.0388 55.6923 99.1731 55.558 99.1731 55.3923V54.7154C99.1731 54.6602 99.2178 54.6154 99.2731 54.6154H99.9808V59.6307C99.9808 59.6859 99.936 59.7307 99.8808 59.7307L94.8654 59.7308ZM99.9808 54.3462H99.2038C99.0382 54.3462 98.9038 54.4805 98.9038 54.6462V55.3231C98.9038 55.3783 98.8591 55.4231 98.8038 55.4231H98.1269C97.9612 55.4231 97.8269 55.5574 97.8269 55.7231V56.4C97.8269 56.4552 97.7822 56.5 97.7269 56.5H97.05C96.8843 56.5 96.75 56.6343 96.75 56.8V57.4769C96.75 57.5321 96.7052 57.5769 96.65 57.5769H95.9731C95.8074 57.5769 95.6731 57.7112 95.6731 57.8769V58.5538C95.6731 58.6091 95.6283 58.6538 95.5731 58.6538H94.8962C94.7305 58.6538 94.5962 58.7882 94.5962 58.9538V59.7307H93.6192C93.564 59.7307 93.5192 59.6859 93.5192 59.6307V53.3692C93.5192 53.314 93.564 53.2692 93.6192 53.2692H99.8808C99.936 53.2692 99.9808 53.314 99.9808 53.3692V54.3462Z" fill="#A73C4C"/>
<path d="M17.55 3.5C17.3843 3.5 17.25 3.63432 17.25 3.8V10.2C17.25 10.3657 17.3843 10.5 17.55 10.5H18.2528H23.95C24.1157 10.5 24.25 10.3657 24.25 10.2V4.72487V3.8C24.25 3.63432 24.1157 3.5 23.95 3.5H17.55ZM18.8654 10.2308V9.52308C18.8654 9.46785 18.9102 9.42308 18.9654 9.42308H19.6423C19.808 9.42308 19.9423 9.28876 19.9423 9.12308V8.44616C19.9423 8.39093 19.9871 8.34616 20.0423 8.34616H20.7192C20.8849 8.34616 21.0192 8.21184 21.0192 8.04616V7.36923C21.0192 7.314 21.064 7.26923 21.1192 7.26923H21.7962C21.9618 7.26923 22.0962 7.13492 22.0962 6.96923V6.29231C22.0962 6.23708 22.1409 6.19231 22.1962 6.19231H22.8731C23.0388 6.19231 23.1731 6.058 23.1731 5.89231V5.21539C23.1731 5.16016 23.2178 5.11539 23.2731 5.11539H23.9808V10.1307C23.9808 10.1859 23.936 10.2307 23.8808 10.2307L18.8654 10.2308ZM23.9808 4.84616H23.2038C23.0382 4.84616 22.9038 4.98047 22.9038 5.14616V5.82308C22.9038 5.87831 22.8591 5.92308 22.8038 5.92308H22.1269C21.9612 5.92308 21.8269 6.05739 21.8269 6.22308V6.9C21.8269 6.95523 21.7822 7 21.7269 7H21.05C20.8843 7 20.75 7.13432 20.75 7.3V7.97693C20.75 8.03215 20.7052 8.07693 20.65 8.07693H19.9731C19.8074 8.07693 19.6731 8.21124 19.6731 8.37692V9.05385C19.6731 9.10908 19.6283 9.15385 19.5731 9.15385H18.8962C18.7305 9.15385 18.5962 9.28816 18.5962 9.45385V10.2307H17.6192C17.564 10.2307 17.5192 10.1859 17.5192 10.1307V3.86923C17.5192 3.814 17.564 3.76923 17.6192 3.76923H23.8808C23.936 3.76923 23.9808 3.814 23.9808 3.86923V4.84616Z" fill="#A73C4C"/>
</svg>
