<svg width="147" height="123" viewBox="0 0 147 123" fill="none" xmlns="http://www.w3.org/2000/svg">
<path d="M0 0H146.578L146.5 79.5H13.5L13.6695 88.5289L13.5 122H0V105.783V0Z" fill="white"/>
<path d="M146.523 0.25V79.4473H13.3213V121.818H0.25V0.25H146.523Z" stroke="#A73C4C" stroke-width="0.5"/>
<path d="M13.3182 79.6978L13.3182 26.5" stroke="#A73C4C" stroke-width="0.5"/>
<path d="M13.5 10L31.2458 10" stroke="#A73C4C" stroke-width="0.5"/>
<path d="M0 21L4.5 21" stroke="#A73C4C" stroke-width="0.5"/>
<path d="M9.07098 21L31.25 21" stroke="#A73C4C" stroke-width="0.5"/>
<path d="M31 9.99997V12.1015" stroke="#A73C4C" stroke-width="0.5"/>
<path d="M31.25 79.5V74.1171" stroke="#A73C4C" stroke-width="0.5"/>
<path d="M31.25 69.6468L31.25 57.4376" stroke="#A73C4C" stroke-width="0.5"/>
<path d="M31.25 53L31.25 26.4558" stroke="#A73C4C" stroke-width="0.5"/>
<path d="M37.5567 28.9999L53.5 28.9999" stroke="#A73C4C" stroke-width="0.5"/>
<path d="M57.6875 29L82.0273 29" stroke="#A73C4C" stroke-width="0.5"/>
<path d="M86.4999 29L107.5 29" stroke="#A73C4C" stroke-width="0.5"/>
<path d="M124.152 29L137.336 29" stroke="#A73C4C" stroke-width="0.5"/>
<path d="M141.82 29L146.5 29" stroke="#A73C4C" stroke-width="0.5"/>
<path d="M112 29H119.67" stroke="#A73C4C" stroke-width="0.5"/>
<path d="M92 1.90735e-05V29" stroke="#A73C4C" stroke-width="0.5"/>
<path d="M117 2.67029e-05V29.0001" stroke="#A73C4C" stroke-width="0.5"/>
<path d="M66.5 7.62939e-06V29" stroke="#A73C4C" stroke-width="0.5"/>
<path d="M37.5567 3.8147e-05L37.5567 29.25" stroke="#A73C4C" stroke-width="0.5"/>
<path d="M13.3182 0.177863L13.3182 15.5" stroke="#A73C4C" stroke-width="0.5"/>
<path d="M13.3182 19.8813V22.2038" stroke="#A73C4C" stroke-width="0.5"/>
<path d="M31.25 16.6098V22.1115" stroke="#A73C4C" stroke-width="0.5"/>
<path d="M4.64683 14.5H0" stroke="#A73C4C" stroke-width="0.5"/>
<path d="M13.5 14.5H9" stroke="#A73C4C" stroke-width="0.5"/>
<path d="M13.3865 51.1752L24.5 51.1752" stroke="#A73C4C" stroke-width="0.5"/>
<path d="M29 51.1752L31.25 51.1752" stroke="#A73C4C" stroke-width="0.5"/>
<path d="M13.1181 29L31.5 29" stroke="#A73C4C" stroke-width="0.5"/>
<path d="M13.5 60L37.8187 60" stroke="#A73C4C" stroke-width="0.5"/>
<path d="M42.3077 60L68.8028 60" stroke="#A73C4C" stroke-width="0.5"/>
<path d="M66.5 66.5H69" stroke="#A73C4C" stroke-width="0.5"/>
<path d="M73.5 66.5H75.5" stroke="#A73C4C" stroke-width="0.5"/>
<path d="M82.153 60L111.247 60" stroke="#A73C4C" stroke-width="0.5"/>
<path d="M111 51H117.5" stroke="#A73C4C" stroke-width="0.5"/>
<path d="M122 51H137.5" stroke="#A73C4C" stroke-width="0.5"/>
<path d="M141.82 51H146.773" stroke="#A73C4C" stroke-width="0.5"/>
<path d="M31.25 66.6659L37.8187 66.6659" stroke="#A73C4C" stroke-width="0.5"/>
<path d="M42.1823 66.666L49 66.6659" stroke="#A73C4C" stroke-width="0.5"/>
<path d="M49 59.6599L49 79.6977" stroke="#A73C4C" stroke-width="0.5"/>
<path d="M66.5 60V69.5" stroke="#A73C4C" stroke-width="0.5"/>
<path d="M66.5 74V79.5" stroke="#A73C4C" stroke-width="0.5"/>
<path d="M77.6445 60H73.2915" stroke="#A73C4C" stroke-width="0.5"/>
<path d="M75.5 59.7722V79.5" stroke="#A73C4C" stroke-width="0.5"/>
<path d="M111 50.7504V79.6977" stroke="#A73C4C" stroke-width="0.5"/>
<path d="M20.599 17.6235L21.7444 16.2124L22.2683 16.8914L21.2585 18.1961C20.8717 18.6954 20.1561 18.1693 20.599 17.6235ZM21.9366 14.41C22.0457 14.0484 21.9956 13.7394 21.5857 13.2804L20.5842 12.0562C20.442 11.8866 20.1071 12.1357 20.247 12.3411L21.048 13.3436C21.1995 13.5306 20.918 13.778 20.7616 13.5855L19.933 12.5488C19.7788 12.3691 19.4598 12.6065 19.6212 12.8119C19.8548 13.0974 20.2162 13.5636 20.4497 13.8491C20.6117 14.0165 20.3655 14.2644 20.2057 14.0557L19.3832 13.0257C19.2626 12.8925 19.0653 12.9753 19.013 13.1309C18.9568 13.2972 19.0951 13.4187 19.1893 13.5418L20.1071 14.7464C20.3919 15.0817 20.7103 15.2804 21.0805 15.1679C21.1373 15.1505 21.2067 15.1153 21.281 15.0688L23.7469 18.303C23.8796 18.4771 24.1358 18.4956 24.3022 18.3551L24.3402 18.3232C24.5275 18.1648 24.5578 17.8754 24.3975 17.6884L21.7862 14.64C21.8622 14.5538 21.9179 14.4721 21.9366 14.41ZM22.6346 15.1153L23.0406 14.6148C22.5184 13.2994 24.4537 11.5463 25.3918 12.3523C26.5316 13.3325 24.8376 15.6946 23.6471 15.1108L23.1662 15.7315L22.6346 15.1153Z" fill="#3A3A3A"/>
<path d="M54.3 51C54.1343 51 54 51.1343 54 51.3V57.7C54 57.8657 54.1343 58 54.3 58H55.0028H60.7C60.8657 58 61 57.8657 61 57.7V52.2249V51.3C61 51.1343 60.8657 51 60.7 51H54.3ZM55.6154 57.7308V57.0231C55.6154 56.9678 55.6602 56.9231 55.7154 56.9231H56.3923C56.558 56.9231 56.6923 56.7888 56.6923 56.6231V55.9462C56.6923 55.8909 56.7371 55.8462 56.7923 55.8462H57.4692C57.6349 55.8462 57.7692 55.7118 57.7692 55.5462V54.8692C57.7692 54.814 57.814 54.7692 57.8692 54.7692H58.5462C58.7118 54.7692 58.8462 54.6349 58.8462 54.4692V53.7923C58.8462 53.7371 58.8909 53.6923 58.9462 53.6923H59.6231C59.7888 53.6923 59.9231 53.558 59.9231 53.3923V52.7154C59.9231 52.6602 59.9678 52.6154 60.0231 52.6154H60.7308V57.6307C60.7308 57.6859 60.686 57.7307 60.6308 57.7307L55.6154 57.7308ZM60.7308 52.3462H59.9538C59.7882 52.3462 59.6538 52.4805 59.6538 52.6462V53.3231C59.6538 53.3783 59.6091 53.4231 59.5538 53.4231H58.8769C58.7112 53.4231 58.5769 53.5574 58.5769 53.7231V54.4C58.5769 54.4552 58.5322 54.5 58.4769 54.5H57.8C57.6343 54.5 57.5 54.6343 57.5 54.8V55.4769C57.5 55.5322 57.4552 55.5769 57.4 55.5769H56.7231C56.5574 55.5769 56.4231 55.7112 56.4231 55.8769V56.5538C56.4231 56.6091 56.3783 56.6538 56.3231 56.6538H55.6462C55.4805 56.6538 55.3462 56.7882 55.3462 56.9538V57.7307H54.3692C54.314 57.7307 54.2692 57.6859 54.2692 57.6307V51.3692C54.2692 51.314 54.314 51.2692 54.3692 51.2692H60.6308C60.686 51.2692 60.7308 51.314 60.7308 51.3692V52.3462Z" fill="#A73C4C"/>
<path d="M90.3 51C90.1343 51 90 51.1343 90 51.3V57.7C90 57.8657 90.1343 58 90.3 58H91.0028H96.7C96.8657 58 97 57.8657 97 57.7V52.2249V51.3C97 51.1343 96.8657 51 96.7 51H90.3ZM91.6154 57.7308V57.0231C91.6154 56.9678 91.6602 56.9231 91.7154 56.9231H92.3923C92.558 56.9231 92.6923 56.7888 92.6923 56.6231V55.9462C92.6923 55.8909 92.7371 55.8462 92.7923 55.8462H93.4692C93.6349 55.8462 93.7692 55.7118 93.7692 55.5462V54.8692C93.7692 54.814 93.814 54.7692 93.8692 54.7692H94.5462C94.7118 54.7692 94.8462 54.6349 94.8462 54.4692V53.7923C94.8462 53.7371 94.8909 53.6923 94.9462 53.6923H95.6231C95.7888 53.6923 95.9231 53.558 95.9231 53.3923V52.7154C95.9231 52.6602 95.9678 52.6154 96.0231 52.6154H96.7308V57.6307C96.7308 57.6859 96.686 57.7307 96.6308 57.7307L91.6154 57.7308ZM96.7308 52.3462H95.9538C95.7882 52.3462 95.6538 52.4805 95.6538 52.6462V53.3231C95.6538 53.3783 95.6091 53.4231 95.5538 53.4231H94.8769C94.7112 53.4231 94.5769 53.5574 94.5769 53.7231V54.4C94.5769 54.4552 94.5322 54.5 94.4769 54.5H93.8C93.6343 54.5 93.5 54.6343 93.5 54.8V55.4769C93.5 55.5322 93.4552 55.5769 93.4 55.5769H92.7231C92.5574 55.5769 92.4231 55.7112 92.4231 55.8769V56.5538C92.4231 56.6091 92.3783 56.6538 92.3231 56.6538H91.6462C91.4805 56.6538 91.3462 56.7882 91.3462 56.9538V57.7307H90.3692C90.314 57.7307 90.2692 57.6859 90.2692 57.6307V51.3692C90.2692 51.314 90.314 51.2692 90.3692 51.2692H96.6308C96.686 51.2692 96.7308 51.314 96.7308 51.3692V52.3462Z" fill="#A73C4C"/>
<path d="M36.285 72.275C36.285 72.215 36.3233 72.1567 36.4 72.1C36.4767 72.04 36.58 71.9917 36.71 71.955C36.84 71.9183 36.9817 71.9 37.135 71.9C37.3483 71.9 37.5317 71.9367 37.685 72.01C37.8383 72.08 37.9567 72.18 38.04 72.31C38.1233 72.44 38.165 72.5933 38.165 72.77C38.165 72.9533 38.1133 73.1333 38.01 73.31C37.91 73.4867 37.7367 73.6883 37.49 73.915L36.675 74.67H38.16C38.1733 74.6833 38.185 74.705 38.195 74.735C38.205 74.7617 38.21 74.7933 38.21 74.83C38.21 74.8833 38.195 74.925 38.165 74.955C38.1383 74.985 38.1017 75 38.055 75H36.29C36.2567 74.9767 36.2317 74.9483 36.215 74.915C36.1983 74.8783 36.19 74.84 36.19 74.8C36.19 74.7467 36.2 74.7 36.22 74.66C36.24 74.6167 36.27 74.5767 36.31 74.54L37.21 73.675C37.4167 73.4817 37.5583 73.32 37.635 73.19C37.7117 73.0567 37.75 72.9183 37.75 72.775C37.75 72.6183 37.6967 72.49 37.59 72.39C37.4833 72.29 37.3217 72.24 37.105 72.24C36.9583 72.24 36.8267 72.265 36.71 72.315C36.5967 72.365 36.5017 72.4183 36.425 72.475C36.3883 72.4583 36.355 72.4333 36.325 72.4C36.2983 72.3667 36.285 72.325 36.285 72.275ZM39.9452 75.065C39.7119 75.065 39.5052 75.0083 39.3252 74.895C39.1486 74.7783 39.0102 74.6033 38.9102 74.37C38.8102 74.1333 38.7602 73.8367 38.7602 73.48C38.7602 73.0967 38.8169 72.79 38.9302 72.56C39.0436 72.33 39.1902 72.1633 39.3702 72.06C39.5502 71.9533 39.7419 71.9 39.9452 71.9C40.1519 71.9 40.3452 71.9533 40.5252 72.06C40.7086 72.1667 40.8552 72.3367 40.9652 72.57C41.0786 72.8 41.1352 73.1033 41.1352 73.48C41.1352 73.8333 41.0852 74.1283 40.9852 74.365C40.8852 74.5983 40.7452 74.7733 40.5652 74.89C40.3886 75.0067 40.1819 75.065 39.9452 75.065ZM39.9452 74.725C40.1919 74.725 40.3836 74.6183 40.5202 74.405C40.6569 74.1883 40.7252 73.88 40.7252 73.48C40.7252 73.1833 40.6886 72.945 40.6152 72.765C40.5452 72.5817 40.4519 72.4483 40.3352 72.365C40.2186 72.2817 40.0886 72.24 39.9452 72.24C39.8052 72.24 39.6752 72.2833 39.5552 72.37C39.4386 72.4533 39.3452 72.5867 39.2752 72.77C39.2052 72.9533 39.1702 73.19 39.1702 73.48C39.1702 73.88 39.2386 74.1883 39.3752 74.405C39.5119 74.6183 39.7019 74.725 39.9452 74.725ZM41.7909 74.755C41.7909 74.715 41.8009 74.6767 41.8209 74.64C41.8442 74.6033 41.8725 74.5767 41.9059 74.56C41.9692 74.5967 42.0509 74.6333 42.1509 74.67C42.2542 74.7033 42.3759 74.72 42.5159 74.72C42.6892 74.72 42.8475 74.6833 42.9909 74.61C43.1342 74.5367 43.2492 74.4167 43.3359 74.25C43.4225 74.08 43.4659 73.8567 43.4659 73.58C43.4359 73.6133 43.3859 73.655 43.3159 73.705C43.2492 73.7517 43.1642 73.7933 43.0609 73.83C42.9575 73.8667 42.8375 73.885 42.7009 73.885C42.5142 73.885 42.3392 73.8533 42.1759 73.79C42.0125 73.7233 41.8809 73.6183 41.7809 73.475C41.6842 73.3317 41.6359 73.1433 41.6359 72.91C41.6359 72.7 41.6825 72.52 41.7759 72.37C41.8692 72.2167 41.9959 72.1 42.1559 72.02C42.3159 71.94 42.4942 71.9 42.6909 71.9C42.9209 71.9 43.1242 71.9533 43.3009 72.06C43.4775 72.1633 43.6159 72.325 43.7159 72.545C43.8192 72.7617 43.8709 73.0417 43.8709 73.385C43.8709 73.7917 43.8142 74.1183 43.7009 74.365C43.5875 74.6117 43.4292 74.79 43.2259 74.9C43.0259 75.01 42.7909 75.065 42.5209 75.065C42.3209 75.065 42.1492 75.0383 42.0059 74.985C41.8625 74.9317 41.7909 74.855 41.7909 74.755ZM42.7559 73.55C42.9259 73.55 43.0759 73.5083 43.2059 73.425C43.3392 73.3383 43.4275 73.2433 43.4709 73.14L43.4659 73.195C43.4659 72.8983 43.3975 72.665 43.2609 72.495C43.1275 72.3217 42.9375 72.235 42.6909 72.235C42.5075 72.235 42.3525 72.295 42.2259 72.415C42.1025 72.5317 42.0409 72.6933 42.0409 72.9C42.0409 73.13 42.1109 73.2967 42.2509 73.4C42.3909 73.5 42.5592 73.55 42.7559 73.55Z" fill="#A73C4C"/>
<path d="M19.285 68.275C19.285 68.215 19.3233 68.1567 19.4 68.1C19.4767 68.04 19.58 67.9917 19.71 67.955C19.84 67.9183 19.9817 67.9 20.135 67.9C20.3483 67.9 20.5317 67.9367 20.685 68.01C20.8383 68.08 20.9567 68.18 21.04 68.31C21.1233 68.44 21.165 68.5933 21.165 68.77C21.165 68.9533 21.1133 69.1333 21.01 69.31C20.91 69.4867 20.7367 69.6883 20.49 69.915L19.675 70.67H21.16C21.1733 70.6833 21.185 70.705 21.195 70.735C21.205 70.7617 21.21 70.7933 21.21 70.83C21.21 70.8833 21.195 70.925 21.165 70.955C21.1383 70.985 21.1017 71 21.055 71H19.29C19.2567 70.9767 19.2317 70.9483 19.215 70.915C19.1983 70.8783 19.19 70.84 19.19 70.8C19.19 70.7467 19.2 70.7 19.22 70.66C19.24 70.6167 19.27 70.5767 19.31 70.54L20.21 69.675C20.4167 69.4817 20.5583 69.32 20.635 69.19C20.7117 69.0567 20.75 68.9183 20.75 68.775C20.75 68.6183 20.6967 68.49 20.59 68.39C20.4833 68.29 20.3217 68.24 20.105 68.24C19.9583 68.24 19.8267 68.265 19.71 68.315C19.5967 68.365 19.5017 68.4183 19.425 68.475C19.3883 68.4583 19.355 68.4333 19.325 68.4C19.2983 68.3667 19.285 68.325 19.285 68.275ZM22.8091 69.88H22.4041V68.35L21.7641 68.65C21.7207 68.6333 21.6841 68.6083 21.6541 68.575C21.6274 68.5417 21.6141 68.5 21.6141 68.45C21.6141 68.3533 21.6741 68.28 21.7941 68.23L22.4941 67.925H22.5891C22.6557 67.925 22.7091 67.945 22.7491 67.985C22.7891 68.025 22.8091 68.0783 22.8091 68.145V69.88ZM22.4041 69.68H22.8091V71.005C22.7891 71.0117 22.7624 71.0183 22.7291 71.025C22.6957 71.035 22.6591 71.04 22.6191 71.04C22.5491 71.04 22.4957 71.025 22.4591 70.995C22.4224 70.965 22.4041 70.9183 22.4041 70.855V69.68ZM24.7812 71.065C24.5478 71.065 24.3412 71.0083 24.1612 70.895C23.9845 70.7783 23.8462 70.6033 23.7462 70.37C23.6462 70.1333 23.5962 69.8367 23.5962 69.48C23.5962 69.0967 23.6528 68.79 23.7662 68.56C23.8795 68.33 24.0262 68.1633 24.2062 68.06C24.3862 67.9533 24.5778 67.9 24.7812 67.9C24.9878 67.9 25.1812 67.9533 25.3612 68.06C25.5445 68.1667 25.6912 68.3367 25.8012 68.57C25.9145 68.8 25.9712 69.1033 25.9712 69.48C25.9712 69.8333 25.9212 70.1283 25.8212 70.365C25.7212 70.5983 25.5812 70.7733 25.4012 70.89C25.2245 71.0067 25.0178 71.065 24.7812 71.065ZM24.7812 70.725C25.0278 70.725 25.2195 70.6183 25.3562 70.405C25.4928 70.1883 25.5612 69.88 25.5612 69.48C25.5612 69.1833 25.5245 68.945 25.4512 68.765C25.3812 68.5817 25.2878 68.4483 25.1712 68.365C25.0545 68.2817 24.9245 68.24 24.7812 68.24C24.6412 68.24 24.5112 68.2833 24.3912 68.37C24.2745 68.4533 24.1812 68.5867 24.1112 68.77C24.0412 68.9533 24.0062 69.19 24.0062 69.48C24.0062 69.88 24.0745 70.1883 24.2112 70.405C24.3478 70.6183 24.5378 70.725 24.7812 70.725Z" fill="#A73C4C"/>
<path d="M19.285 54.275C19.285 54.215 19.3233 54.1567 19.4 54.1C19.4767 54.04 19.58 53.9917 19.71 53.955C19.84 53.9183 19.9817 53.9 20.135 53.9C20.3483 53.9 20.5317 53.9367 20.685 54.01C20.8383 54.08 20.9567 54.18 21.04 54.31C21.1233 54.44 21.165 54.5933 21.165 54.77C21.165 54.9533 21.1133 55.1333 21.01 55.31C20.91 55.4867 20.7367 55.6883 20.49 55.915L19.675 56.67H21.16C21.1733 56.6833 21.185 56.705 21.195 56.735C21.205 56.7617 21.21 56.7933 21.21 56.83C21.21 56.8833 21.195 56.925 21.165 56.955C21.1383 56.985 21.1017 57 21.055 57H19.29C19.2567 56.9767 19.2317 56.9483 19.215 56.915C19.1983 56.8783 19.19 56.84 19.19 56.8C19.19 56.7467 19.2 56.7 19.22 56.66C19.24 56.6167 19.27 56.5767 19.31 56.54L20.21 55.675C20.4167 55.4817 20.5583 55.32 20.635 55.19C20.7117 55.0567 20.75 54.9183 20.75 54.775C20.75 54.6183 20.6967 54.49 20.59 54.39C20.4833 54.29 20.3217 54.24 20.105 54.24C19.9583 54.24 19.8267 54.265 19.71 54.315C19.5967 54.365 19.5017 54.4183 19.425 54.475C19.3883 54.4583 19.355 54.4333 19.325 54.4C19.2983 54.3667 19.285 54.325 19.285 54.275ZM22.8091 55.88H22.4041V54.35L21.7641 54.65C21.7207 54.6333 21.6841 54.6083 21.6541 54.575C21.6274 54.5417 21.6141 54.5 21.6141 54.45C21.6141 54.3533 21.6741 54.28 21.7941 54.23L22.4941 53.925H22.5891C22.6557 53.925 22.7091 53.945 22.7491 53.985C22.7891 54.025 22.8091 54.0783 22.8091 54.145V55.88ZM22.4041 55.68H22.8091V57.005C22.7891 57.0117 22.7624 57.0183 22.7291 57.025C22.6957 57.035 22.6591 57.04 22.6191 57.04C22.5491 57.04 22.4957 57.025 22.4591 56.995C22.4224 56.965 22.4041 56.9183 22.4041 56.855V55.68ZM24.6206 55.88H24.2156V54.35L23.5756 54.65C23.5323 54.6333 23.4956 54.6083 23.4656 54.575C23.4389 54.5417 23.4256 54.5 23.4256 54.45C23.4256 54.3533 23.4856 54.28 23.6056 54.23L24.3056 53.925H24.4006C24.4673 53.925 24.5206 53.945 24.5606 53.985C24.6006 54.025 24.6206 54.0783 24.6206 54.145V55.88ZM24.2156 55.68H24.6206V57.005C24.6006 57.0117 24.5739 57.0183 24.5406 57.025C24.5073 57.035 24.4706 57.04 24.4306 57.04C24.3606 57.04 24.3073 57.025 24.2706 56.995C24.2339 56.965 24.2156 56.9183 24.2156 56.855V55.68Z" fill="#A73C4C"/>
<path d="M3.285 16.275C3.285 16.215 3.32333 16.1567 3.4 16.1C3.47667 16.04 3.58 15.9917 3.71 15.955C3.84 15.9183 3.98167 15.9 4.135 15.9C4.34833 15.9 4.53167 15.9367 4.685 16.01C4.83833 16.08 4.95667 16.18 5.04 16.31C5.12333 16.44 5.165 16.5933 5.165 16.77C5.165 16.9533 5.11333 17.1333 5.01 17.31C4.91 17.4867 4.73667 17.6883 4.49 17.915L3.675 18.67H5.16C5.17333 18.6833 5.185 18.705 5.195 18.735C5.205 18.7617 5.21 18.7933 5.21 18.83C5.21 18.8833 5.195 18.925 5.165 18.955C5.13833 18.985 5.10167 19 5.055 19H3.29C3.25667 18.9767 3.23167 18.9483 3.215 18.915C3.19833 18.8783 3.19 18.84 3.19 18.8C3.19 18.7467 3.2 18.7 3.22 18.66C3.24 18.6167 3.27 18.5767 3.31 18.54L4.21 17.675C4.41667 17.4817 4.55833 17.32 4.635 17.19C4.71167 17.0567 4.75 16.9183 4.75 16.775C4.75 16.6183 4.69667 16.49 4.59 16.39C4.48333 16.29 4.32167 16.24 4.105 16.24C3.95833 16.24 3.82667 16.265 3.71 16.315C3.59667 16.365 3.50167 16.4183 3.425 16.475C3.38833 16.4583 3.355 16.4333 3.325 16.4C3.29833 16.3667 3.285 16.325 3.285 16.275ZM6.80906 17.88H6.40406V16.35L5.76406 16.65C5.72073 16.6333 5.68406 16.6083 5.65406 16.575C5.6274 16.5417 5.61406 16.5 5.61406 16.45C5.61406 16.3533 5.67406 16.28 5.79406 16.23L6.49406 15.925H6.58906C6.65573 15.925 6.70906 15.945 6.74906 15.985C6.78906 16.025 6.80906 16.0783 6.80906 16.145V17.88ZM6.40406 17.68H6.80906V19.005C6.78906 19.0117 6.7624 19.0183 6.72906 19.025C6.69573 19.035 6.65906 19.04 6.61906 19.04C6.54906 19.04 6.49573 19.025 6.45906 18.995C6.4224 18.965 6.40406 18.9183 6.40406 18.855V17.68ZM7.66 16.275C7.66 16.215 7.69833 16.1567 7.775 16.1C7.85167 16.04 7.955 15.9917 8.085 15.955C8.215 15.9183 8.35667 15.9 8.51 15.9C8.72333 15.9 8.90667 15.9367 9.06 16.01C9.21333 16.08 9.33167 16.18 9.415 16.31C9.49833 16.44 9.54 16.5933 9.54 16.77C9.54 16.9533 9.48833 17.1333 9.385 17.31C9.285 17.4867 9.11167 17.6883 8.865 17.915L8.05 18.67H9.535C9.54833 18.6833 9.56 18.705 9.57 18.735C9.58 18.7617 9.585 18.7933 9.585 18.83C9.585 18.8833 9.57 18.925 9.54 18.955C9.51333 18.985 9.47667 19 9.43 19H7.665C7.63167 18.9767 7.60667 18.9483 7.59 18.915C7.57333 18.8783 7.565 18.84 7.565 18.8C7.565 18.7467 7.575 18.7 7.595 18.66C7.615 18.6167 7.645 18.5767 7.685 18.54L8.585 17.675C8.79167 17.4817 8.93333 17.32 9.01 17.19C9.08667 17.0567 9.125 16.9183 9.125 16.775C9.125 16.6183 9.07167 16.49 8.965 16.39C8.85833 16.29 8.69667 16.24 8.48 16.24C8.33333 16.24 8.20167 16.265 8.085 16.315C7.97167 16.365 7.87667 16.4183 7.8 16.475C7.76333 16.4583 7.73 16.4333 7.7 16.4C7.67333 16.3667 7.66 16.325 7.66 16.275Z" fill="#A73C4C"/>
<path d="M3.285 9.275C3.285 9.215 3.32333 9.15667 3.4 9.1C3.47667 9.04 3.58 8.99167 3.71 8.955C3.84 8.91833 3.98167 8.9 4.135 8.9C4.34833 8.9 4.53167 8.93667 4.685 9.01C4.83833 9.08 4.95667 9.18 5.04 9.31C5.12333 9.44 5.165 9.59333 5.165 9.77C5.165 9.95333 5.11333 10.1333 5.01 10.31C4.91 10.4867 4.73667 10.6883 4.49 10.915L3.675 11.67H5.16C5.17333 11.6833 5.185 11.705 5.195 11.735C5.205 11.7617 5.21 11.7933 5.21 11.83C5.21 11.8833 5.195 11.925 5.165 11.955C5.13833 11.985 5.10167 12 5.055 12H3.29C3.25667 11.9767 3.23167 11.9483 3.215 11.915C3.19833 11.8783 3.19 11.84 3.19 11.8C3.19 11.7467 3.2 11.7 3.22 11.66C3.24 11.6167 3.27 11.5767 3.31 11.54L4.21 10.675C4.41667 10.4817 4.55833 10.32 4.635 10.19C4.71167 10.0567 4.75 9.91833 4.75 9.775C4.75 9.61833 4.69667 9.49 4.59 9.39C4.48333 9.29 4.32167 9.24 4.105 9.24C3.95833 9.24 3.82667 9.265 3.71 9.315C3.59667 9.365 3.50167 9.41833 3.425 9.475C3.38833 9.45833 3.355 9.43333 3.325 9.4C3.29833 9.36667 3.285 9.325 3.285 9.275ZM6.80906 10.88H6.40406V9.35L5.76406 9.65C5.72073 9.63333 5.68406 9.60833 5.65406 9.575C5.6274 9.54167 5.61406 9.5 5.61406 9.45C5.61406 9.35333 5.67406 9.28 5.79406 9.23L6.49406 8.925H6.58906C6.65573 8.925 6.70906 8.945 6.74906 8.985C6.78906 9.025 6.80906 9.07833 6.80906 9.145V10.88ZM6.40406 10.68H6.80906V12.005C6.78906 12.0117 6.7624 12.0183 6.72906 12.025C6.69573 12.035 6.65906 12.04 6.61906 12.04C6.54906 12.04 6.49573 12.025 6.45906 11.995C6.4224 11.965 6.40406 11.9183 6.40406 11.855V10.68ZM8.43559 8.895C8.75225 8.895 9.00725 8.965 9.20059 9.105C9.39725 9.24167 9.49559 9.44833 9.49559 9.725C9.49559 9.85833 9.46725 9.97333 9.41059 10.07C9.35725 10.1633 9.29225 10.2367 9.21559 10.29C9.14225 10.3433 9.07559 10.3783 9.01559 10.395C9.10559 10.4217 9.19392 10.4683 9.28059 10.535C9.36725 10.5983 9.43892 10.6817 9.49559 10.785C9.55559 10.885 9.58559 11.0067 9.58559 11.15C9.58559 11.35 9.53725 11.5167 9.44059 11.65C9.34392 11.7833 9.21059 11.885 9.04059 11.955C8.87059 12.0217 8.67392 12.055 8.45059 12.055C8.26725 12.055 8.10392 12.0367 7.96059 12C7.82059 11.96 7.71059 11.91 7.63059 11.85C7.55059 11.79 7.51059 11.7267 7.51059 11.66C7.51059 11.6133 7.52225 11.5733 7.54559 11.54C7.57225 11.5067 7.60559 11.4783 7.64559 11.455C7.73225 11.5217 7.83725 11.5817 7.96059 11.635C8.08725 11.6883 8.25059 11.715 8.45059 11.715C8.67059 11.715 8.84892 11.6683 8.98559 11.575C9.12225 11.4783 9.19059 11.3333 9.19059 11.14C9.19059 10.97 9.12725 10.8333 9.00059 10.73C8.87392 10.6267 8.69059 10.575 8.45059 10.575H8.03559C8.02225 10.5583 8.01059 10.535 8.00059 10.505C7.99059 10.4717 7.98559 10.4383 7.98559 10.405C7.98559 10.3683 7.99059 10.335 8.00059 10.305C8.01059 10.275 8.02225 10.2517 8.03559 10.235H8.41559C8.66225 10.235 8.83725 10.19 8.94059 10.1C9.04725 10.0067 9.10059 9.885 9.10059 9.735C9.10059 9.57167 9.04059 9.44833 8.92059 9.365C8.80059 9.27833 8.63725 9.235 8.43059 9.235C8.27059 9.235 8.12892 9.26 8.00559 9.31C7.88559 9.35667 7.78559 9.40833 7.70559 9.465C7.67225 9.44833 7.64225 9.42167 7.61559 9.385C7.58892 9.34833 7.57559 9.30833 7.57559 9.265C7.57559 9.205 7.61392 9.14667 7.69059 9.09C7.76725 9.03333 7.87059 8.98667 8.00059 8.95C8.13059 8.91333 8.27559 8.895 8.43559 8.895Z" fill="#A73C4C"/>
<path d="M3.285 3.275C3.285 3.215 3.32333 3.15667 3.4 3.1C3.47667 3.04 3.58 2.99167 3.71 2.955C3.84 2.91833 3.98167 2.9 4.135 2.9C4.34833 2.9 4.53167 2.93667 4.685 3.01C4.83833 3.08 4.95667 3.18 5.04 3.31C5.12333 3.44 5.165 3.59333 5.165 3.77C5.165 3.95333 5.11333 4.13333 5.01 4.31C4.91 4.48667 4.73667 4.68833 4.49 4.915L3.675 5.67H5.16C5.17333 5.68333 5.185 5.705 5.195 5.735C5.205 5.76167 5.21 5.79333 5.21 5.83C5.21 5.88333 5.195 5.925 5.165 5.955C5.13833 5.985 5.10167 6 5.055 6H3.29C3.25667 5.97667 3.23167 5.94833 3.215 5.915C3.19833 5.87833 3.19 5.84 3.19 5.8C3.19 5.74667 3.2 5.7 3.22 5.66C3.24 5.61667 3.27 5.57667 3.31 5.54L4.21 4.675C4.41667 4.48167 4.55833 4.32 4.635 4.19C4.71167 4.05667 4.75 3.91833 4.75 3.775C4.75 3.61833 4.69667 3.49 4.59 3.39C4.48333 3.29 4.32167 3.24 4.105 3.24C3.95833 3.24 3.82667 3.265 3.71 3.315C3.59667 3.365 3.50167 3.41833 3.425 3.475C3.38833 3.45833 3.355 3.43333 3.325 3.4C3.29833 3.36667 3.285 3.325 3.285 3.275ZM6.80906 4.88H6.40406V3.35L5.76406 3.65C5.72073 3.63333 5.68406 3.60833 5.65406 3.575C5.6274 3.54167 5.61406 3.5 5.61406 3.45C5.61406 3.35333 5.67406 3.28 5.79406 3.23L6.49406 2.925H6.58906C6.65573 2.925 6.70906 2.945 6.74906 2.985C6.78906 3.025 6.80906 3.07833 6.80906 3.145V4.88ZM6.40406 4.68H6.80906V6.005C6.78906 6.01167 6.7624 6.01833 6.72906 6.025C6.69573 6.035 6.65906 6.04 6.61906 6.04C6.54906 6.04 6.49573 6.025 6.45906 5.995C6.4224 5.965 6.40406 5.91833 6.40406 5.855V4.68ZM7.51059 4.885L8.96559 2.955C8.99559 2.94833 9.02892 2.94333 9.06559 2.94C9.10559 2.93333 9.14059 2.93 9.17059 2.93C9.21725 2.93 9.26059 2.93667 9.30059 2.95C9.34392 2.96333 9.37892 2.98833 9.40559 3.025C9.43225 3.05833 9.44559 3.10833 9.44559 3.175V4.925H9.94559C9.95559 4.94167 9.96559 4.965 9.97559 4.995C9.98559 5.02167 9.99059 5.05333 9.99059 5.09C9.99059 5.14333 9.97725 5.185 9.95059 5.215C9.92392 5.245 9.88559 5.26 9.83559 5.26H9.44559V6.01C9.42892 6.01333 9.40392 6.01833 9.37059 6.025C9.34059 6.035 9.30725 6.04 9.27059 6.04C9.20059 6.04 9.14725 6.025 9.11059 5.995C9.07392 5.965 9.05559 5.92167 9.05559 5.865V5.26H7.61059C7.57725 5.24333 7.54725 5.21333 7.52059 5.17C7.49725 5.12667 7.48559 5.07833 7.48559 5.025C7.48559 4.995 7.48725 4.97 7.49059 4.95C7.49725 4.92667 7.50392 4.905 7.51059 4.885ZM9.06059 4.925L9.07059 3.35H9.06059L7.95059 4.925H9.06059Z" fill="#A73C4C"/>
<path d="M54.285 69.275C54.285 69.215 54.3233 69.1567 54.4 69.1C54.4767 69.04 54.58 68.9917 54.71 68.955C54.84 68.9183 54.9817 68.9 55.135 68.9C55.3483 68.9 55.5317 68.9367 55.685 69.01C55.8383 69.08 55.9567 69.18 56.04 69.31C56.1233 69.44 56.165 69.5933 56.165 69.77C56.165 69.9533 56.1133 70.1333 56.01 70.31C55.91 70.4867 55.7367 70.6883 55.49 70.915L54.675 71.67H56.16C56.1733 71.6833 56.185 71.705 56.195 71.735C56.205 71.7617 56.21 71.7933 56.21 71.83C56.21 71.8833 56.195 71.925 56.165 71.955C56.1383 71.985 56.1017 72 56.055 72H54.29C54.2567 71.9767 54.2317 71.9483 54.215 71.915C54.1983 71.8783 54.19 71.84 54.19 71.8C54.19 71.7467 54.2 71.7 54.22 71.66C54.24 71.6167 54.27 71.5767 54.31 71.54L55.21 70.675C55.4167 70.4817 55.5583 70.32 55.635 70.19C55.7117 70.0567 55.75 69.9183 55.75 69.775C55.75 69.6183 55.6967 69.49 55.59 69.39C55.4833 69.29 55.3217 69.24 55.105 69.24C54.9583 69.24 54.8267 69.265 54.71 69.315C54.5967 69.365 54.5017 69.4183 54.425 69.475C54.3883 69.4583 54.355 69.4333 54.325 69.4C54.2983 69.3667 54.285 69.325 54.285 69.275ZM57.9452 72.065C57.7119 72.065 57.5052 72.0083 57.3252 71.895C57.1486 71.7783 57.0102 71.6033 56.9102 71.37C56.8102 71.1333 56.7602 70.8367 56.7602 70.48C56.7602 70.0967 56.8169 69.79 56.9302 69.56C57.0436 69.33 57.1902 69.1633 57.3702 69.06C57.5502 68.9533 57.7419 68.9 57.9452 68.9C58.1519 68.9 58.3452 68.9533 58.5252 69.06C58.7086 69.1667 58.8552 69.3367 58.9652 69.57C59.0786 69.8 59.1352 70.1033 59.1352 70.48C59.1352 70.8333 59.0852 71.1283 58.9852 71.365C58.8852 71.5983 58.7452 71.7733 58.5652 71.89C58.3886 72.0067 58.1819 72.065 57.9452 72.065ZM57.9452 71.725C58.1919 71.725 58.3836 71.6183 58.5202 71.405C58.6569 71.1883 58.7252 70.88 58.7252 70.48C58.7252 70.1833 58.6886 69.945 58.6152 69.765C58.5452 69.5817 58.4519 69.4483 58.3352 69.365C58.2186 69.2817 58.0886 69.24 57.9452 69.24C57.8052 69.24 57.6752 69.2833 57.5552 69.37C57.4386 69.4533 57.3452 69.5867 57.2752 69.77C57.2052 69.9533 57.1702 70.19 57.1702 70.48C57.1702 70.88 57.2386 71.1883 57.3752 71.405C57.5119 71.6183 57.7019 71.725 57.9452 71.725ZM59.6217 68.96H61.4217C61.4583 68.98 61.4867 69.0083 61.5067 69.045C61.5267 69.0783 61.5367 69.1167 61.5367 69.16C61.5367 69.1933 61.5317 69.2267 61.5217 69.26C61.515 69.2933 61.5017 69.33 61.4817 69.37L60.2267 72.02C60.2067 72.0233 60.1867 72.025 60.1667 72.025C60.15 72.025 60.1317 72.025 60.1117 72.025C60.0483 72.025 59.9933 72.01 59.9467 71.98C59.9 71.9467 59.8767 71.9017 59.8767 71.845C59.8767 71.805 59.885 71.7667 59.9017 71.73C59.9183 71.69 59.9383 71.645 59.9617 71.595L61.0917 69.3H59.5117C59.5017 69.2833 59.4917 69.2617 59.4817 69.235C59.4717 69.205 59.4667 69.1733 59.4667 69.14C59.4667 69.0833 59.48 69.04 59.5067 69.01C59.5333 68.9767 59.5717 68.96 59.6217 68.96Z" fill="#A73C4C"/>
<path d="M89.285 69.275C89.285 69.215 89.3233 69.1567 89.4 69.1C89.4767 69.04 89.58 68.9917 89.71 68.955C89.84 68.9183 89.9817 68.9 90.135 68.9C90.3483 68.9 90.5317 68.9367 90.685 69.01C90.8383 69.08 90.9567 69.18 91.04 69.31C91.1233 69.44 91.165 69.5933 91.165 69.77C91.165 69.9533 91.1133 70.1333 91.01 70.31C90.91 70.4867 90.7367 70.6883 90.49 70.915L89.675 71.67H91.16C91.1733 71.6833 91.185 71.705 91.195 71.735C91.205 71.7617 91.21 71.7933 91.21 71.83C91.21 71.8833 91.195 71.925 91.165 71.955C91.1383 71.985 91.1017 72 91.055 72H89.29C89.2567 71.9767 89.2317 71.9483 89.215 71.915C89.1983 71.8783 89.19 71.84 89.19 71.8C89.19 71.7467 89.2 71.7 89.22 71.66C89.24 71.6167 89.27 71.5767 89.31 71.54L90.21 70.675C90.4167 70.4817 90.5583 70.32 90.635 70.19C90.7117 70.0567 90.75 69.9183 90.75 69.775C90.75 69.6183 90.6967 69.49 90.59 69.39C90.4833 69.29 90.3217 69.24 90.105 69.24C89.9583 69.24 89.8267 69.265 89.71 69.315C89.5967 69.365 89.5017 69.4183 89.425 69.475C89.3883 69.4583 89.355 69.4333 89.325 69.4C89.2983 69.3667 89.285 69.325 89.285 69.275ZM92.9452 72.065C92.7119 72.065 92.5052 72.0083 92.3252 71.895C92.1486 71.7783 92.0102 71.6033 91.9102 71.37C91.8102 71.1333 91.7602 70.8367 91.7602 70.48C91.7602 70.0967 91.8169 69.79 91.9302 69.56C92.0436 69.33 92.1902 69.1633 92.3702 69.06C92.5502 68.9533 92.7419 68.9 92.9452 68.9C93.1519 68.9 93.3452 68.9533 93.5252 69.06C93.7086 69.1667 93.8552 69.3367 93.9652 69.57C94.0786 69.8 94.1352 70.1033 94.1352 70.48C94.1352 70.8333 94.0852 71.1283 93.9852 71.365C93.8852 71.5983 93.7452 71.7733 93.5652 71.89C93.3886 72.0067 93.1819 72.065 92.9452 72.065ZM92.9452 71.725C93.1919 71.725 93.3836 71.6183 93.5202 71.405C93.6569 71.1883 93.7252 70.88 93.7252 70.48C93.7252 70.1833 93.6886 69.945 93.6152 69.765C93.5452 69.5817 93.4519 69.4483 93.3352 69.365C93.2186 69.2817 93.0886 69.24 92.9452 69.24C92.8052 69.24 92.6752 69.2833 92.5552 69.37C92.4386 69.4533 92.3452 69.5867 92.2752 69.77C92.2052 69.9533 92.1702 70.19 92.1702 70.48C92.1702 70.88 92.2386 71.1883 92.3752 71.405C92.5119 71.6183 92.7019 71.725 92.9452 71.725ZM96.6803 69.195C96.6803 69.235 96.6686 69.2733 96.6453 69.31C96.6253 69.3433 96.5986 69.3683 96.5653 69.385C96.4919 69.3483 96.4086 69.3167 96.3153 69.29C96.2253 69.26 96.1269 69.245 96.0203 69.245C95.7603 69.245 95.5403 69.3383 95.3603 69.525C95.1836 69.7117 95.0903 70.0033 95.0803 70.4C95.1469 70.3333 95.2486 70.2633 95.3853 70.19C95.5253 70.1133 95.6969 70.075 95.9003 70.075C96.1936 70.075 96.4353 70.1583 96.6253 70.325C96.8153 70.4917 96.9103 70.7383 96.9103 71.065C96.9103 71.2717 96.8653 71.45 96.7753 71.6C96.6886 71.75 96.5653 71.865 96.4053 71.945C96.2486 72.025 96.0619 72.065 95.8453 72.065C95.6219 72.065 95.4219 72.015 95.2453 71.915C95.0686 71.8117 94.9286 71.6517 94.8253 71.435C94.7253 71.215 94.6753 70.9283 94.6753 70.575C94.6753 70.2617 94.7119 69.9983 94.7853 69.785C94.8619 69.5683 94.9636 69.3967 95.0903 69.27C95.2169 69.14 95.3603 69.0467 95.5203 68.99C95.6803 68.93 95.8436 68.9 96.0103 68.9C96.1269 68.9 96.2353 68.9117 96.3353 68.935C96.4386 68.9583 96.5219 68.9917 96.5853 69.035C96.6486 69.0783 96.6803 69.1317 96.6803 69.195ZM95.8453 71.73C96.0386 71.73 96.1969 71.6717 96.3203 71.555C96.4436 71.435 96.5053 71.2683 96.5053 71.055C96.5053 70.8383 96.4419 70.6783 96.3153 70.575C96.1919 70.4683 96.0386 70.415 95.8553 70.415C95.6719 70.415 95.5136 70.455 95.3803 70.535C95.2469 70.6117 95.1419 70.705 95.0653 70.815L95.0803 70.78C95.0803 71.0633 95.1469 71.2933 95.2803 71.47C95.4136 71.6433 95.6019 71.73 95.8453 71.73Z" fill="#A73C4C"/>
<path d="M125.285 64.275C125.285 64.215 125.323 64.1567 125.4 64.1C125.477 64.04 125.58 63.9917 125.71 63.955C125.84 63.9183 125.982 63.9 126.135 63.9C126.348 63.9 126.532 63.9367 126.685 64.01C126.838 64.08 126.957 64.18 127.04 64.31C127.123 64.44 127.165 64.5933 127.165 64.77C127.165 64.9533 127.113 65.1333 127.01 65.31C126.91 65.4867 126.737 65.6883 126.49 65.915L125.675 66.67H127.16C127.173 66.6833 127.185 66.705 127.195 66.735C127.205 66.7617 127.21 66.7933 127.21 66.83C127.21 66.8833 127.195 66.925 127.165 66.955C127.138 66.985 127.102 67 127.055 67H125.29C125.257 66.9767 125.232 66.9483 125.215 66.915C125.198 66.8783 125.19 66.84 125.19 66.8C125.19 66.7467 125.2 66.7 125.22 66.66C125.24 66.6167 125.27 66.5767 125.31 66.54L126.21 65.675C126.417 65.4817 126.558 65.32 126.635 65.19C126.712 65.0567 126.75 64.9183 126.75 64.775C126.75 64.6183 126.697 64.49 126.59 64.39C126.483 64.29 126.322 64.24 126.105 64.24C125.958 64.24 125.827 64.265 125.71 64.315C125.597 64.365 125.502 64.4183 125.425 64.475C125.388 64.4583 125.355 64.4333 125.325 64.4C125.298 64.3667 125.285 64.325 125.285 64.275ZM128.945 67.065C128.712 67.065 128.505 67.0083 128.325 66.895C128.149 66.7783 128.01 66.6033 127.91 66.37C127.81 66.1333 127.76 65.8367 127.76 65.48C127.76 65.0967 127.817 64.79 127.93 64.56C128.044 64.33 128.19 64.1633 128.37 64.06C128.55 63.9533 128.742 63.9 128.945 63.9C129.152 63.9 129.345 63.9533 129.525 64.06C129.709 64.1667 129.855 64.3367 129.965 64.57C130.079 64.8 130.135 65.1033 130.135 65.48C130.135 65.8333 130.085 66.1283 129.985 66.365C129.885 66.5983 129.745 66.7733 129.565 66.89C129.389 67.0067 129.182 67.065 128.945 67.065ZM128.945 66.725C129.192 66.725 129.384 66.6183 129.52 66.405C129.657 66.1883 129.725 65.88 129.725 65.48C129.725 65.1833 129.689 64.945 129.615 64.765C129.545 64.5817 129.452 64.4483 129.335 64.365C129.219 64.2817 129.089 64.24 128.945 64.24C128.805 64.24 128.675 64.2833 128.555 64.37C128.439 64.4533 128.345 64.5867 128.275 64.77C128.205 64.9533 128.17 65.19 128.17 65.48C128.17 65.88 128.239 66.1883 128.375 66.405C128.512 66.6183 128.702 66.725 128.945 66.725ZM131.425 63.96L131.29 64.255L131.205 65.2C131.262 65.17 131.34 65.1417 131.44 65.115C131.544 65.085 131.652 65.07 131.765 65.07C131.965 65.07 132.145 65.1083 132.305 65.185C132.465 65.2583 132.592 65.3683 132.685 65.515C132.782 65.6583 132.83 65.8367 132.83 66.05C132.83 66.2433 132.785 66.4167 132.695 66.57C132.609 66.7233 132.48 66.845 132.31 66.935C132.144 67.0217 131.939 67.065 131.695 67.065C131.505 67.065 131.339 67.0433 131.195 67C131.052 66.9567 130.94 66.9033 130.86 66.84C130.78 66.7767 130.74 66.715 130.74 66.655C130.74 66.6017 130.757 66.555 130.79 66.515C130.827 66.475 130.864 66.4483 130.9 66.435C130.974 66.4983 131.077 66.5633 131.21 66.63C131.344 66.6967 131.505 66.73 131.695 66.73C131.925 66.73 132.104 66.6667 132.23 66.54C132.357 66.41 132.42 66.2467 132.42 66.05C132.42 65.8467 132.355 65.6883 132.225 65.575C132.095 65.4617 131.925 65.405 131.715 65.405C131.599 65.405 131.492 65.4233 131.395 65.46C131.299 65.4967 131.209 65.5383 131.125 65.585C131.035 65.5783 130.962 65.5517 130.905 65.505C130.852 65.455 130.825 65.3917 130.825 65.315C130.825 65.295 130.825 65.27 130.825 65.24C130.829 65.2067 130.832 65.175 130.835 65.145L130.92 64.19C130.927 64.12 130.949 64.065 130.985 64.025C131.022 63.9817 131.075 63.96 131.145 63.96H131.425ZM131.215 64.3V63.96H132.675C132.685 63.9733 132.695 63.995 132.705 64.025C132.715 64.055 132.72 64.0867 132.72 64.12C132.72 64.1733 132.707 64.2167 132.68 64.25C132.654 64.2833 132.615 64.3 132.565 64.3H131.215Z" fill="#A73C4C"/>
<path d="M49.285 14.275C49.285 14.215 49.3233 14.1567 49.4 14.1C49.4767 14.04 49.58 13.9917 49.71 13.955C49.84 13.9183 49.9817 13.9 50.135 13.9C50.3483 13.9 50.5317 13.9367 50.685 14.01C50.8383 14.08 50.9567 14.18 51.04 14.31C51.1233 14.44 51.165 14.5933 51.165 14.77C51.165 14.9533 51.1133 15.1333 51.01 15.31C50.91 15.4867 50.7367 15.6883 50.49 15.915L49.675 16.67H51.16C51.1733 16.6833 51.185 16.705 51.195 16.735C51.205 16.7617 51.21 16.7933 51.21 16.83C51.21 16.8833 51.195 16.925 51.165 16.955C51.1383 16.985 51.1017 17 51.055 17H49.29C49.2567 16.9767 49.2317 16.9483 49.215 16.915C49.1983 16.8783 49.19 16.84 49.19 16.8C49.19 16.7467 49.2 16.7 49.22 16.66C49.24 16.6167 49.27 16.5767 49.31 16.54L50.21 15.675C50.4167 15.4817 50.5583 15.32 50.635 15.19C50.7117 15.0567 50.75 14.9183 50.75 14.775C50.75 14.6183 50.6967 14.49 50.59 14.39C50.4833 14.29 50.3217 14.24 50.105 14.24C49.9583 14.24 49.8267 14.265 49.71 14.315C49.5967 14.365 49.5017 14.4183 49.425 14.475C49.3883 14.4583 49.355 14.4333 49.325 14.4C49.2983 14.3667 49.285 14.325 49.285 14.275ZM52.9452 17.065C52.7119 17.065 52.5052 17.0083 52.3252 16.895C52.1486 16.7783 52.0102 16.6033 51.9102 16.37C51.8102 16.1333 51.7602 15.8367 51.7602 15.48C51.7602 15.0967 51.8169 14.79 51.9302 14.56C52.0436 14.33 52.1902 14.1633 52.3702 14.06C52.5502 13.9533 52.7419 13.9 52.9452 13.9C53.1519 13.9 53.3452 13.9533 53.5252 14.06C53.7086 14.1667 53.8552 14.3367 53.9652 14.57C54.0786 14.8 54.1352 15.1033 54.1352 15.48C54.1352 15.8333 54.0852 16.1283 53.9852 16.365C53.8852 16.5983 53.7452 16.7733 53.5652 16.89C53.3886 17.0067 53.1819 17.065 52.9452 17.065ZM52.9452 16.725C53.1919 16.725 53.3836 16.6183 53.5202 16.405C53.6569 16.1883 53.7252 15.88 53.7252 15.48C53.7252 15.1833 53.6886 14.945 53.6152 14.765C53.5452 14.5817 53.4519 14.4483 53.3352 14.365C53.2186 14.2817 53.0886 14.24 52.9452 14.24C52.8052 14.24 52.6752 14.2833 52.5552 14.37C52.4386 14.4533 52.3452 14.5867 52.2752 14.77C52.2052 14.9533 52.1702 15.19 52.1702 15.48C52.1702 15.88 52.2386 16.1883 52.3752 16.405C52.5119 16.6183 52.7019 16.725 52.9452 16.725ZM55.6264 15.88H55.2214V14.35L54.5814 14.65C54.5381 14.6333 54.5014 14.6083 54.4714 14.575C54.4448 14.5417 54.4314 14.5 54.4314 14.45C54.4314 14.3533 54.4914 14.28 54.6114 14.23L55.3114 13.925H55.4064C55.4731 13.925 55.5264 13.945 55.5664 13.985C55.6064 14.025 55.6264 14.0783 55.6264 14.145V15.88ZM55.2214 15.68H55.6264V17.005C55.6064 17.0117 55.5798 17.0183 55.5464 17.025C55.5131 17.035 55.4764 17.04 55.4364 17.04C55.3664 17.04 55.3131 17.025 55.2764 16.995C55.2398 16.965 55.2214 16.9183 55.2214 16.855V15.68Z" fill="#A73C4C"/>
<path d="M76.285 14.275C76.285 14.215 76.3233 14.1567 76.4 14.1C76.4767 14.04 76.58 13.9917 76.71 13.955C76.84 13.9183 76.9817 13.9 77.135 13.9C77.3483 13.9 77.5317 13.9367 77.685 14.01C77.8383 14.08 77.9567 14.18 78.04 14.31C78.1233 14.44 78.165 14.5933 78.165 14.77C78.165 14.9533 78.1133 15.1333 78.01 15.31C77.91 15.4867 77.7367 15.6883 77.49 15.915L76.675 16.67H78.16C78.1733 16.6833 78.185 16.705 78.195 16.735C78.205 16.7617 78.21 16.7933 78.21 16.83C78.21 16.8833 78.195 16.925 78.165 16.955C78.1383 16.985 78.1017 17 78.055 17H76.29C76.2567 16.9767 76.2317 16.9483 76.215 16.915C76.1983 16.8783 76.19 16.84 76.19 16.8C76.19 16.7467 76.2 16.7 76.22 16.66C76.24 16.6167 76.27 16.5767 76.31 16.54L77.21 15.675C77.4167 15.4817 77.5583 15.32 77.635 15.19C77.7117 15.0567 77.75 14.9183 77.75 14.775C77.75 14.6183 77.6967 14.49 77.59 14.39C77.4833 14.29 77.3217 14.24 77.105 14.24C76.9583 14.24 76.8267 14.265 76.71 14.315C76.5967 14.365 76.5017 14.4183 76.425 14.475C76.3883 14.4583 76.355 14.4333 76.325 14.4C76.2983 14.3667 76.285 14.325 76.285 14.275ZM79.9452 17.065C79.7119 17.065 79.5052 17.0083 79.3252 16.895C79.1486 16.7783 79.0102 16.6033 78.9102 16.37C78.8102 16.1333 78.7602 15.8367 78.7602 15.48C78.7602 15.0967 78.8169 14.79 78.9302 14.56C79.0436 14.33 79.1902 14.1633 79.3702 14.06C79.5502 13.9533 79.7419 13.9 79.9452 13.9C80.1519 13.9 80.3452 13.9533 80.5252 14.06C80.7086 14.1667 80.8552 14.3367 80.9652 14.57C81.0786 14.8 81.1352 15.1033 81.1352 15.48C81.1352 15.8333 81.0852 16.1283 80.9852 16.365C80.8852 16.5983 80.7452 16.7733 80.5652 16.89C80.3886 17.0067 80.1819 17.065 79.9452 17.065ZM79.9452 16.725C80.1919 16.725 80.3836 16.6183 80.5202 16.405C80.6569 16.1883 80.7252 15.88 80.7252 15.48C80.7252 15.1833 80.6886 14.945 80.6152 14.765C80.5452 14.5817 80.4519 14.4483 80.3352 14.365C80.2186 14.2817 80.0886 14.24 79.9452 14.24C79.8052 14.24 79.6752 14.2833 79.5552 14.37C79.4386 14.4533 79.3452 14.5867 79.2752 14.77C79.2052 14.9533 79.1702 15.19 79.1702 15.48C79.1702 15.88 79.2386 16.1883 79.3752 16.405C79.5119 16.6183 79.7019 16.725 79.9452 16.725ZM81.6854 14.275C81.6854 14.215 81.7237 14.1567 81.8004 14.1C81.8771 14.04 81.9804 13.9917 82.1104 13.955C82.2404 13.9183 82.3821 13.9 82.5354 13.9C82.7487 13.9 82.9321 13.9367 83.0854 14.01C83.2387 14.08 83.3571 14.18 83.4404 14.31C83.5237 14.44 83.5654 14.5933 83.5654 14.77C83.5654 14.9533 83.5137 15.1333 83.4104 15.31C83.3104 15.4867 83.1371 15.6883 82.8904 15.915L82.0754 16.67H83.5604C83.5737 16.6833 83.5854 16.705 83.5954 16.735C83.6054 16.7617 83.6104 16.7933 83.6104 16.83C83.6104 16.8833 83.5954 16.925 83.5654 16.955C83.5387 16.985 83.5021 17 83.4554 17H81.6904C81.6571 16.9767 81.6321 16.9483 81.6154 16.915C81.5987 16.8783 81.5904 16.84 81.5904 16.8C81.5904 16.7467 81.6004 16.7 81.6204 16.66C81.6404 16.6167 81.6704 16.5767 81.7104 16.54L82.6104 15.675C82.8171 15.4817 82.9587 15.32 83.0354 15.19C83.1121 15.0567 83.1504 14.9183 83.1504 14.775C83.1504 14.6183 83.0971 14.49 82.9904 14.39C82.8837 14.29 82.7221 14.24 82.5054 14.24C82.3587 14.24 82.2271 14.265 82.1104 14.315C81.9971 14.365 81.9021 14.4183 81.8254 14.475C81.7887 14.4583 81.7554 14.4333 81.7254 14.4C81.6987 14.3667 81.6854 14.325 81.6854 14.275Z" fill="#A73C4C"/>
<path d="M101.285 14.275C101.285 14.215 101.323 14.1567 101.4 14.1C101.477 14.04 101.58 13.9917 101.71 13.955C101.84 13.9183 101.982 13.9 102.135 13.9C102.348 13.9 102.532 13.9367 102.685 14.01C102.838 14.08 102.957 14.18 103.04 14.31C103.123 14.44 103.165 14.5933 103.165 14.77C103.165 14.9533 103.113 15.1333 103.01 15.31C102.91 15.4867 102.737 15.6883 102.49 15.915L101.675 16.67H103.16C103.173 16.6833 103.185 16.705 103.195 16.735C103.205 16.7617 103.21 16.7933 103.21 16.83C103.21 16.8833 103.195 16.925 103.165 16.955C103.138 16.985 103.102 17 103.055 17H101.29C101.257 16.9767 101.232 16.9483 101.215 16.915C101.198 16.8783 101.19 16.84 101.19 16.8C101.19 16.7467 101.2 16.7 101.22 16.66C101.24 16.6167 101.27 16.5767 101.31 16.54L102.21 15.675C102.417 15.4817 102.558 15.32 102.635 15.19C102.712 15.0567 102.75 14.9183 102.75 14.775C102.75 14.6183 102.697 14.49 102.59 14.39C102.483 14.29 102.322 14.24 102.105 14.24C101.958 14.24 101.827 14.265 101.71 14.315C101.597 14.365 101.502 14.4183 101.425 14.475C101.388 14.4583 101.355 14.4333 101.325 14.4C101.298 14.3667 101.285 14.325 101.285 14.275ZM104.945 17.065C104.712 17.065 104.505 17.0083 104.325 16.895C104.149 16.7783 104.01 16.6033 103.91 16.37C103.81 16.1333 103.76 15.8367 103.76 15.48C103.76 15.0967 103.817 14.79 103.93 14.56C104.044 14.33 104.19 14.1633 104.37 14.06C104.55 13.9533 104.742 13.9 104.945 13.9C105.152 13.9 105.345 13.9533 105.525 14.06C105.709 14.1667 105.855 14.3367 105.965 14.57C106.079 14.8 106.135 15.1033 106.135 15.48C106.135 15.8333 106.085 16.1283 105.985 16.365C105.885 16.5983 105.745 16.7733 105.565 16.89C105.389 17.0067 105.182 17.065 104.945 17.065ZM104.945 16.725C105.192 16.725 105.384 16.6183 105.52 16.405C105.657 16.1883 105.725 15.88 105.725 15.48C105.725 15.1833 105.689 14.945 105.615 14.765C105.545 14.5817 105.452 14.4483 105.335 14.365C105.219 14.2817 105.089 14.24 104.945 14.24C104.805 14.24 104.675 14.2833 104.555 14.37C104.439 14.4533 104.345 14.5867 104.275 14.77C104.205 14.9533 104.17 15.19 104.17 15.48C104.17 15.88 104.239 16.1883 104.375 16.405C104.512 16.6183 104.702 16.725 104.945 16.725ZM107.451 13.895C107.768 13.895 108.023 13.965 108.216 14.105C108.413 14.2417 108.511 14.4483 108.511 14.725C108.511 14.8583 108.483 14.9733 108.426 15.07C108.373 15.1633 108.308 15.2367 108.231 15.29C108.158 15.3433 108.091 15.3783 108.031 15.395C108.121 15.4217 108.21 15.4683 108.296 15.535C108.383 15.5983 108.455 15.6817 108.511 15.785C108.571 15.885 108.601 16.0067 108.601 16.15C108.601 16.35 108.553 16.5167 108.456 16.65C108.36 16.7833 108.226 16.885 108.056 16.955C107.886 17.0217 107.69 17.055 107.466 17.055C107.283 17.055 107.12 17.0367 106.976 17C106.836 16.96 106.726 16.91 106.646 16.85C106.566 16.79 106.526 16.7267 106.526 16.66C106.526 16.6133 106.538 16.5733 106.561 16.54C106.588 16.5067 106.621 16.4783 106.661 16.455C106.748 16.5217 106.853 16.5817 106.976 16.635C107.103 16.6883 107.266 16.715 107.466 16.715C107.686 16.715 107.865 16.6683 108.001 16.575C108.138 16.4783 108.206 16.3333 108.206 16.14C108.206 15.97 108.143 15.8333 108.016 15.73C107.89 15.6267 107.706 15.575 107.466 15.575H107.051C107.038 15.5583 107.026 15.535 107.016 15.505C107.006 15.4717 107.001 15.4383 107.001 15.405C107.001 15.3683 107.006 15.335 107.016 15.305C107.026 15.275 107.038 15.2517 107.051 15.235H107.431C107.678 15.235 107.853 15.19 107.956 15.1C108.063 15.0067 108.116 14.885 108.116 14.735C108.116 14.5717 108.056 14.4483 107.936 14.365C107.816 14.2783 107.653 14.235 107.446 14.235C107.286 14.235 107.145 14.26 107.021 14.31C106.901 14.3567 106.801 14.4083 106.721 14.465C106.688 14.4483 106.658 14.4217 106.631 14.385C106.605 14.3483 106.591 14.3083 106.591 14.265C106.591 14.205 106.63 14.1467 106.706 14.09C106.783 14.0333 106.886 13.9867 107.016 13.95C107.146 13.9133 107.291 13.895 107.451 13.895Z" fill="#A73C4C"/>
<path d="M128.285 14.275C128.285 14.215 128.323 14.1567 128.4 14.1C128.477 14.04 128.58 13.9917 128.71 13.955C128.84 13.9183 128.982 13.9 129.135 13.9C129.348 13.9 129.532 13.9367 129.685 14.01C129.838 14.08 129.957 14.18 130.04 14.31C130.123 14.44 130.165 14.5933 130.165 14.77C130.165 14.9533 130.113 15.1333 130.01 15.31C129.91 15.4867 129.737 15.6883 129.49 15.915L128.675 16.67H130.16C130.173 16.6833 130.185 16.705 130.195 16.735C130.205 16.7617 130.21 16.7933 130.21 16.83C130.21 16.8833 130.195 16.925 130.165 16.955C130.138 16.985 130.102 17 130.055 17H128.29C128.257 16.9767 128.232 16.9483 128.215 16.915C128.198 16.8783 128.19 16.84 128.19 16.8C128.19 16.7467 128.2 16.7 128.22 16.66C128.24 16.6167 128.27 16.5767 128.31 16.54L129.21 15.675C129.417 15.4817 129.558 15.32 129.635 15.19C129.712 15.0567 129.75 14.9183 129.75 14.775C129.75 14.6183 129.697 14.49 129.59 14.39C129.483 14.29 129.322 14.24 129.105 14.24C128.958 14.24 128.827 14.265 128.71 14.315C128.597 14.365 128.502 14.4183 128.425 14.475C128.388 14.4583 128.355 14.4333 128.325 14.4C128.298 14.3667 128.285 14.325 128.285 14.275ZM131.945 17.065C131.712 17.065 131.505 17.0083 131.325 16.895C131.149 16.7783 131.01 16.6033 130.91 16.37C130.81 16.1333 130.76 15.8367 130.76 15.48C130.76 15.0967 130.817 14.79 130.93 14.56C131.044 14.33 131.19 14.1633 131.37 14.06C131.55 13.9533 131.742 13.9 131.945 13.9C132.152 13.9 132.345 13.9533 132.525 14.06C132.709 14.1667 132.855 14.3367 132.965 14.57C133.079 14.8 133.135 15.1033 133.135 15.48C133.135 15.8333 133.085 16.1283 132.985 16.365C132.885 16.5983 132.745 16.7733 132.565 16.89C132.389 17.0067 132.182 17.065 131.945 17.065ZM131.945 16.725C132.192 16.725 132.384 16.6183 132.52 16.405C132.657 16.1883 132.725 15.88 132.725 15.48C132.725 15.1833 132.689 14.945 132.615 14.765C132.545 14.5817 132.452 14.4483 132.335 14.365C132.219 14.2817 132.089 14.24 131.945 14.24C131.805 14.24 131.675 14.2833 131.555 14.37C131.439 14.4533 131.345 14.5867 131.275 14.77C131.205 14.9533 131.17 15.19 131.17 15.48C131.17 15.88 131.239 16.1883 131.375 16.405C131.512 16.6183 131.702 16.725 131.945 16.725ZM133.59 15.885L135.045 13.955C135.075 13.9483 135.108 13.9433 135.145 13.94C135.185 13.9333 135.22 13.93 135.25 13.93C135.296 13.93 135.34 13.9367 135.38 13.95C135.423 13.9633 135.458 13.9883 135.485 14.025C135.511 14.0583 135.525 14.1083 135.525 14.175V15.925H136.025C136.035 15.9417 136.045 15.965 136.055 15.995C136.065 16.0217 136.07 16.0533 136.07 16.09C136.07 16.1433 136.056 16.185 136.03 16.215C136.003 16.245 135.965 16.26 135.915 16.26H135.525V17.01C135.508 17.0133 135.483 17.0183 135.45 17.025C135.42 17.035 135.386 17.04 135.35 17.04C135.28 17.04 135.226 17.025 135.19 16.995C135.153 16.965 135.135 16.9217 135.135 16.865V16.26H133.69C133.656 16.2433 133.626 16.2133 133.6 16.17C133.576 16.1267 133.565 16.0783 133.565 16.025C133.565 15.995 133.566 15.97 133.57 15.95C133.576 15.9267 133.583 15.905 133.59 15.885ZM135.14 15.925L135.15 14.35H135.14L134.03 15.925H135.14Z" fill="#A73C4C"/>
</svg>
