<svg width="41" height="227" viewBox="0 0 41 227" fill="none" xmlns="http://www.w3.org/2000/svg">
<path d="M3 29H40.7832V200.477H3V29Z" fill="#B1B1B1"/>
<path d="M15.85 53.2226C15.85 52.3426 15.995 51.5376 16.285 50.8076C16.585 50.0776 17 49.4476 17.53 48.9176C18.07 48.3976 18.705 47.9926 19.435 47.7026C20.175 47.4126 20.985 47.2676 21.865 47.2676C22.745 47.2676 23.55 47.4126 24.28 47.7026C25.01 47.9926 25.64 48.3976 26.17 48.9176C26.71 49.4476 27.125 50.0776 27.415 50.8076C27.715 51.5376 27.865 52.3426 27.865 53.2226C27.865 54.1026 27.715 54.9026 27.415 55.6226C27.125 56.3526 26.71 56.9826 26.17 57.5126C25.64 58.0426 25.01 58.4526 24.28 58.7426C23.55 59.0326 22.745 59.1776 21.865 59.1776C20.985 59.1776 20.175 59.0326 19.435 58.7426C18.705 58.4526 18.07 58.0426 17.53 57.5126C17 56.9826 16.585 56.3526 16.285 55.6226C15.995 54.9026 15.85 54.1026 15.85 53.2226ZM17.26 53.2226C17.26 53.8726 17.375 54.4676 17.605 55.0076C17.845 55.5576 18.17 56.0326 18.58 56.4326C19 56.8326 19.49 57.1376 20.05 57.3476C20.61 57.5676 21.215 57.6776 21.865 57.6776C22.515 57.6776 23.12 57.5676 23.68 57.3476C24.24 57.1376 24.725 56.8326 25.135 56.4326C25.555 56.0326 25.88 55.5576 26.11 55.0076C26.34 54.4676 26.455 53.8726 26.455 53.2226C26.455 52.5726 26.34 51.9726 26.11 51.4226C25.88 50.8826 25.555 50.4126 25.135 50.0126C24.725 49.6226 24.24 49.3176 23.68 49.0976C23.12 48.8776 22.515 48.7676 21.865 48.7676C21.215 48.7676 20.61 48.8776 20.05 49.0976C19.49 49.3176 19 49.6226 18.58 50.0126C18.17 50.4126 17.845 50.8826 17.605 51.4226C17.375 51.9726 17.26 52.5726 17.26 53.2226ZM15.94 65.2211C15.94 64.4211 16.105 63.7111 16.435 63.0911C16.765 62.4711 17.22 61.9861 17.8 61.6361C18.39 61.2861 19.06 61.1061 19.81 61.0961L19.81 61.8311C20.57 61.8311 21.235 61.9861 21.805 62.2961C22.385 62.6161 22.84 63.0511 23.17 63.6011C23.5 64.1611 23.665 64.8011 23.665 65.5211C23.665 66.2411 23.5 66.8761 23.17 67.4261C22.84 67.9861 22.385 68.4211 21.805 68.7311C21.235 69.0511 20.57 69.2111 19.81 69.2111C19.06 69.2111 18.39 69.0411 17.8 68.7011C17.22 68.3611 16.765 67.8911 16.435 67.2911C16.105 66.6911 15.94 66.0011 15.94 65.2211ZM17.29 65.2211C17.29 65.7211 17.395 66.1561 17.605 66.5261C17.825 66.9061 18.125 67.2011 18.505 67.4111C18.885 67.6311 19.32 67.7411 19.81 67.7411C20.3 67.7411 20.73 67.6311 21.1 67.4111C21.48 67.2011 21.775 66.9061 21.985 66.5261C22.205 66.1561 22.315 65.7211 22.315 65.2211C22.315 64.7011 22.205 64.2411 21.985 63.8411C21.775 63.4411 21.48 63.1261 21.1 62.8961C20.73 62.6761 20.3 62.5661 19.81 62.5661C19.32 62.5661 18.885 62.6761 18.505 62.8961C18.125 63.1261 17.825 63.4411 17.605 63.8411C17.395 64.2411 17.29 64.7011 17.29 65.2211ZM19.81 61.0961L21.505 61.1111C22.685 61.1211 23.765 61.4461 24.745 62.0861C25.725 62.7361 26.52 63.7411 27.13 65.1011L28.375 67.9061C28.455 68.1061 28.465 68.2861 28.405 68.4461C28.355 68.6061 28.24 68.7211 28.06 68.7911C27.87 68.8611 27.695 68.8761 27.535 68.8361C27.385 68.8061 27.25 68.6611 27.13 68.4011L25.735 65.3561C25.415 64.6561 25.035 64.0811 24.595 63.6311C24.155 63.1811 23.66 62.8461 23.11 62.6261C22.57 62.4161 21.985 62.3011 21.355 62.2811L19.81 62.2511L19.81 61.0961ZM15.91 79.2306C15.91 78.6606 16.035 78.1556 16.285 77.7156C16.535 77.2756 16.9 76.9306 17.38 76.6806C17.87 76.4406 18.46 76.3206 19.15 76.3206L23.44 76.3206C23.67 76.3206 23.855 76.3906 23.995 76.5306C24.135 76.6806 24.205 76.8656 24.205 77.0856C24.205 77.3156 24.135 77.5006 23.995 77.6406C23.855 77.7806 23.67 77.8506 23.44 77.8506L19.15 77.8506C18.73 77.8506 18.38 77.9206 18.1 78.0606C17.83 78.2006 17.625 78.3956 17.485 78.6456C17.355 78.9056 17.29 79.2006 17.29 79.5306C17.29 80.0606 17.47 80.4906 17.83 80.8206C18.19 81.1606 18.645 81.3306 19.195 81.3306L19.195 81.9756C18.555 81.9756 17.985 81.8556 17.485 81.6156C16.995 81.3856 16.61 81.0656 16.33 80.6556C16.05 80.2456 15.91 79.7706 15.91 79.2306ZM15.91 74.2356C15.91 73.6656 16.035 73.1606 16.285 72.7206C16.535 72.2906 16.9 71.9506 17.38 71.7006C17.87 71.4506 18.46 71.3256 19.15 71.3256L23.44 71.3256C23.67 71.3256 23.855 71.3956 23.995 71.5356C24.135 71.6856 24.205 71.8706 24.205 72.0906C24.205 72.3206 24.135 72.5056 23.995 72.6456C23.855 72.7856 23.67 72.8556 23.44 72.8556L19.15 72.8556C18.73 72.8556 18.38 72.9256 18.1 73.0656C17.83 73.2156 17.625 73.4156 17.485 73.6656C17.355 73.9156 17.29 74.2056 17.29 74.5356C17.29 75.0656 17.47 75.4956 17.83 75.8256C18.19 76.1556 18.645 76.3206 19.195 76.3206L19.195 76.9656C18.555 76.9656 17.985 76.8506 17.485 76.6206C16.995 76.3906 16.61 76.0706 16.33 75.6606C16.05 75.2506 15.91 74.7756 15.91 74.2356ZM13.33 83.5956C13.33 83.3856 13.405 83.2106 13.555 83.0706C13.705 82.9306 13.89 82.8606 14.11 82.8606L16 82.8606L16 82.6356C16 82.1856 16.105 81.8556 16.315 81.6456C16.525 81.4356 16.855 81.3306 17.305 81.3306L23.455 81.3306C23.685 81.3306 23.87 81.4006 24.01 81.5406C24.15 81.6906 24.22 81.8756 24.22 82.0956C24.22 82.3256 24.15 82.5106 24.01 82.6506C23.87 82.7906 23.685 82.8606 23.455 82.8606L17.29 82.8606L17.29 83.4906C17.29 83.7206 17.215 83.9056 17.065 84.0456C16.925 84.1956 16.74 84.2706 16.51 84.2706L14.11 84.2706C13.89 84.2706 13.705 84.2056 13.555 84.0756C13.405 83.9556 13.33 83.7956 13.33 83.5956ZM15.94 89.7011C15.94 88.8711 16.115 88.1311 16.465 87.4811C16.825 86.8411 17.315 86.3361 17.935 85.9661C18.565 85.6061 19.285 85.4261 20.095 85.4261C20.915 85.4261 21.635 85.5961 22.255 85.9361C22.885 86.2861 23.375 86.7661 23.725 87.3761C24.085 87.9861 24.265 88.6861 24.265 89.4761C24.265 90.2561 24.09 90.9261 23.74 91.4861C23.4 92.0461 22.925 92.4711 22.315 92.7611C21.715 93.0611 21.02 93.2111 20.23 93.2111C20.04 93.2111 19.88 93.1461 19.75 93.0161C19.63 92.8861 19.57 92.7211 19.57 92.5211L19.57 86.4761L20.77 86.4761L20.77 92.4761L20.35 91.8611C20.85 91.8511 21.295 91.7511 21.685 91.5611C22.085 91.3711 22.4 91.1011 22.63 90.7511C22.86 90.4011 22.975 89.9761 22.975 89.4761C22.975 88.9061 22.85 88.4161 22.6 88.0061C22.35 87.6061 22.005 87.3011 21.565 87.0911C21.135 86.8811 20.645 86.7761 20.095 86.7761C19.545 86.7761 19.055 86.9011 18.625 87.1511C18.195 87.4011 17.855 87.7461 17.605 88.1861C17.355 88.6261 17.23 89.1311 17.23 89.7011C17.23 90.0111 17.285 90.3261 17.395 90.6461C17.515 90.9761 17.65 91.2411 17.8 91.4411C17.91 91.5911 17.965 91.7511 17.965 91.9211C17.975 92.1011 17.925 92.2561 17.815 92.3861C17.665 92.5561 17.5 92.6461 17.32 92.6561C17.14 92.6661 16.985 92.5861 16.855 92.4161C16.585 92.0761 16.365 91.6511 16.195 91.1411C16.025 90.6411 15.94 90.1611 15.94 89.7011ZM15.985 99.1934C15.985 98.9734 16.055 98.7884 16.195 98.6384C16.345 98.4984 16.53 98.4284 16.75 98.4284L19.525 98.4284L19.525 97.4084L16.21 95.1134C16.07 95.0134 16 94.8484 16 94.6184C15.99 94.3984 16.05 94.2234 16.18 94.0934C16.33 93.9434 16.485 93.8734 16.645 93.8834C16.805 93.8934 16.96 93.9484 17.11 94.0484L20.215 96.1484L23.11 94.2134C23.27 94.1134 23.43 94.0634 23.59 94.0634C23.76 94.0734 23.915 94.1534 24.055 94.3034C24.175 94.4334 24.23 94.6084 24.22 94.8284C24.22 95.0584 24.135 95.2234 23.965 95.3234L20.875 97.3184L20.875 98.4284L23.44 98.4284C23.67 98.4284 23.855 98.4984 23.995 98.6384C24.135 98.7884 24.205 98.9734 24.205 99.1934C24.205 99.4234 24.135 99.6084 23.995 99.7484C23.855 99.8884 23.67 99.9584 23.44 99.9584L20.875 99.9584L20.875 101.083L23.965 103.063C24.135 103.173 24.22 103.338 24.22 103.558C24.23 103.778 24.175 103.953 24.055 104.083C23.915 104.233 23.76 104.313 23.59 104.323C23.43 104.333 23.27 104.283 23.11 104.173L20.215 102.238L17.11 104.338C16.96 104.438 16.805 104.493 16.645 104.503C16.485 104.513 16.33 104.443 16.18 104.293C16.05 104.163 15.99 103.983 16 103.753C16 103.533 16.07 103.373 16.21 103.273L19.525 100.993L19.525 99.9584L16.75 99.9584C16.53 99.9584 16.345 99.8884 16.195 99.7484C16.055 99.6084 15.985 99.4234 15.985 99.1934ZM15.925 109.833C15.925 109.143 16.07 108.523 16.36 107.973C16.66 107.433 17.095 107.003 17.665 106.683C18.235 106.373 18.935 106.218 19.765 106.218L23.455 106.218C23.675 106.218 23.855 106.288 23.995 106.428C24.145 106.578 24.22 106.763 24.22 106.983C24.22 107.203 24.145 107.383 23.995 107.523C23.855 107.673 23.675 107.748 23.455 107.748L19.765 107.748C19.205 107.748 18.74 107.853 18.37 108.063C18.01 108.273 17.74 108.558 17.56 108.918C17.39 109.278 17.305 109.683 17.305 110.133C17.305 110.563 17.39 110.943 17.56 111.273C17.73 111.613 17.96 111.883 18.25 112.083C18.54 112.283 18.865 112.383 19.225 112.383L19.225 113.328C18.605 113.328 18.045 113.173 17.545 112.863C17.045 112.563 16.65 112.148 16.36 111.618C16.07 111.098 15.925 110.503 15.925 109.833ZM16 113.148C16 112.928 16.07 112.743 16.21 112.593C16.36 112.453 16.545 112.383 16.765 112.383L23.455 112.383C23.685 112.383 23.87 112.453 24.01 112.593C24.15 112.743 24.22 112.928 24.22 113.148C24.22 113.378 24.15 113.563 24.01 113.703C23.87 113.843 23.685 113.913 23.455 113.913L16.765 113.913C16.545 113.913 16.36 113.843 16.21 113.703C16.07 113.563 16 113.378 16 113.148ZM15.985 127.378C15.985 127.158 16.055 126.973 16.195 126.823C16.345 126.683 16.53 126.613 16.75 126.613L21.04 126.613C21.67 126.613 22.135 126.458 22.435 126.148C22.745 125.838 22.9 125.433 22.9 124.933C22.9 124.413 22.72 123.983 22.36 123.643C22 123.313 21.54 123.148 20.98 123.148L20.98 121.903C21.63 121.903 22.2 122.043 22.69 122.323C23.19 122.603 23.58 122.993 23.86 123.493C24.14 124.003 24.28 124.583 24.28 125.233C24.28 125.803 24.155 126.308 23.905 126.748C23.655 127.188 23.285 127.528 22.795 127.768C22.315 128.018 21.73 128.143 21.04 128.143L16.75 128.143C16.53 128.143 16.345 128.073 16.195 127.933C16.055 127.793 15.985 127.608 15.985 127.378ZM15.985 117.373C15.985 117.153 16.055 116.968 16.195 116.818C16.345 116.678 16.53 116.608 16.75 116.608L23.425 116.608C23.655 116.608 23.84 116.678 23.98 116.818C24.12 116.968 24.19 117.153 24.19 117.373C24.19 117.603 24.12 117.788 23.98 117.928C23.84 118.068 23.655 118.138 23.425 118.138L16.75 118.138C16.53 118.138 16.345 118.068 16.195 117.928C16.055 117.788 15.985 117.603 15.985 117.373ZM15.985 122.383C15.985 122.163 16.055 121.978 16.195 121.828C16.345 121.688 16.53 121.618 16.75 121.618L21.04 121.618C21.67 121.618 22.135 121.463 22.435 121.153C22.745 120.843 22.9 120.438 22.9 119.938C22.9 119.418 22.72 118.988 22.36 118.648C22 118.308 21.54 118.138 20.98 118.138L20.98 117.193C21.63 117.193 22.2 117.323 22.69 117.583C23.19 117.843 23.58 118.203 23.86 118.663C24.14 119.123 24.28 119.648 24.28 120.238C24.28 120.808 24.155 121.313 23.905 121.753C23.655 122.193 23.285 122.533 22.795 122.773C22.315 123.023 21.73 123.148 21.04 123.148L16.75 123.148C16.53 123.148 16.345 123.078 16.195 122.938C16.055 122.798 15.985 122.613 15.985 122.383ZM15.925 134.135C15.925 133.445 16.07 132.825 16.36 132.275C16.66 131.735 17.095 131.305 17.665 130.985C18.235 130.675 18.935 130.52 19.765 130.52L23.455 130.52C23.675 130.52 23.855 130.59 23.995 130.73C24.145 130.88 24.22 131.065 24.22 131.285C24.22 131.505 24.145 131.685 23.995 131.825C23.855 131.975 23.675 132.05 23.455 132.05L19.765 132.05C19.205 132.05 18.74 132.155 18.37 132.365C18.01 132.575 17.74 132.86 17.56 133.22C17.39 133.58 17.305 133.985 17.305 134.435C17.305 134.865 17.39 135.245 17.56 135.575C17.73 135.915 17.96 136.185 18.25 136.385C18.54 136.585 18.865 136.685 19.225 136.685L19.225 137.63C18.605 137.63 18.045 137.475 17.545 137.165C17.045 136.865 16.65 136.45 16.36 135.92C16.07 135.4 15.925 134.805 15.925 134.135ZM16 137.45C16 137.23 16.07 137.045 16.21 136.895C16.36 136.755 16.545 136.685 16.765 136.685L23.455 136.685C23.685 136.685 23.87 136.755 24.01 136.895C24.15 137.045 24.22 137.23 24.22 137.45C24.22 137.68 24.15 137.865 24.01 138.005C23.87 138.145 23.685 138.215 23.455 138.215L16.765 138.215C16.545 138.215 16.36 138.145 16.21 138.005C16.07 137.865 16 137.68 16 137.45ZM15.94 144.765C15.94 143.935 16.115 143.195 16.465 142.545C16.825 141.905 17.315 141.4 17.935 141.03C18.565 140.67 19.285 140.49 20.095 140.49C20.915 140.49 21.635 140.66 22.255 141C22.885 141.35 23.375 141.83 23.725 142.44C24.085 143.05 24.265 143.75 24.265 144.54C24.265 145.32 24.09 145.99 23.74 146.55C23.4 147.11 22.925 147.535 22.315 147.825C21.715 148.125 21.02 148.275 20.23 148.275C20.04 148.275 19.88 148.21 19.75 148.08C19.63 147.95 19.57 147.785 19.57 147.585L19.57 141.54L20.77 141.54L20.77 147.54L20.35 146.925C20.85 146.915 21.295 146.815 21.685 146.625C22.085 146.435 22.4 146.165 22.63 145.815C22.86 145.465 22.975 145.04 22.975 144.54C22.975 143.97 22.85 143.48 22.6 143.07C22.35 142.67 22.005 142.365 21.565 142.155C21.135 141.945 20.645 141.84 20.095 141.84C19.545 141.84 19.055 141.965 18.625 142.215C18.195 142.465 17.855 142.81 17.605 143.25C17.355 143.69 17.23 144.195 17.23 144.765C17.23 145.075 17.285 145.39 17.395 145.71C17.515 146.04 17.65 146.305 17.8 146.505C17.91 146.655 17.965 146.815 17.965 146.985C17.975 147.165 17.925 147.32 17.815 147.45C17.665 147.62 17.5 147.71 17.32 147.72C17.14 147.73 16.985 147.65 16.855 147.48C16.585 147.14 16.365 146.715 16.195 146.205C16.025 145.705 15.94 145.225 15.94 144.765ZM16 155.536C16 155.316 16.075 155.131 16.225 154.981C16.375 154.841 16.555 154.771 16.765 154.771L26.935 154.771C27.145 154.771 27.325 154.841 27.475 154.981C27.625 155.131 27.7 155.316 27.7 155.536C27.7 155.766 27.605 155.971 27.415 156.151L19.03 162.661L26.935 162.661C27.145 162.661 27.325 162.736 27.475 162.886C27.625 163.036 27.7 163.221 27.7 163.441C27.7 163.651 27.625 163.831 27.475 163.981C27.325 164.141 27.145 164.221 26.935 164.221L16.765 164.221C16.555 164.221 16.375 164.141 16.225 163.981C16.075 163.831 16 163.651 16 163.441C16 163.211 16.09 163.011 16.27 162.841L24.655 156.316L16.765 156.316C16.555 156.316 16.375 156.241 16.225 156.091C16.075 155.941 16 155.756 16 155.536ZM19.585 166.141C19.585 165.921 19.66 165.736 19.81 165.586C19.96 165.446 20.145 165.376 20.365 165.376C20.585 165.376 20.765 165.446 20.905 165.586C21.055 165.736 21.13 165.921 21.13 166.141L21.13 170.656C21.13 170.886 21.055 171.071 20.905 171.211C20.765 171.351 20.585 171.421 20.365 171.421C20.145 171.421 19.96 171.351 19.81 171.211C19.66 171.071 19.585 170.886 19.585 170.656L19.585 166.141ZM21.64 168.406C21.64 167.846 21.775 167.336 22.045 166.876C22.325 166.416 22.695 166.051 23.155 165.781C23.615 165.511 24.12 165.376 24.67 165.376C25.22 165.376 25.725 165.511 26.185 165.781C26.645 166.051 27.01 166.416 27.28 166.876C27.56 167.336 27.7 167.846 27.7 168.406C27.7 168.966 27.56 169.471 27.28 169.921C27.01 170.381 26.645 170.746 26.185 171.016C25.725 171.286 25.22 171.421 24.67 171.421C24.12 171.421 23.615 171.286 23.155 171.016C22.695 170.746 22.325 170.381 22.045 169.921C21.775 169.471 21.64 168.966 21.64 168.406ZM23.185 168.406C23.185 168.676 23.25 168.921 23.38 169.141C23.52 169.361 23.7 169.536 23.92 169.666C24.15 169.806 24.4 169.876 24.67 169.876C24.94 169.876 25.185 169.806 25.405 169.666C25.635 169.536 25.815 169.356 25.945 169.126C26.085 168.906 26.155 168.666 26.155 168.406C26.155 168.136 26.09 167.886 25.96 167.656C25.83 167.436 25.65 167.256 25.42 167.116C25.2 166.986 24.95 166.921 24.67 166.921C24.4 166.921 24.15 166.986 23.92 167.116C23.7 167.246 23.52 167.421 23.38 167.641C23.25 167.871 23.185 168.126 23.185 168.406ZM16 173.614C16 173.394 16.075 173.209 16.225 173.059C16.375 172.919 16.555 172.849 16.765 172.849C16.985 172.849 17.165 172.919 17.305 173.059L22.285 177.319C22.635 177.619 22.965 177.849 23.275 178.009C23.585 178.179 23.88 178.264 24.16 178.264C24.6 178.264 24.98 178.189 25.3 178.039C25.62 177.889 25.865 177.674 26.035 177.394C26.215 177.114 26.305 176.779 26.305 176.389C26.305 176.009 26.205 175.664 26.005 175.354C25.815 175.054 25.555 174.814 25.225 174.634C24.905 174.464 24.55 174.379 24.16 174.379C23.96 174.379 23.785 174.304 23.635 174.154C23.485 174.014 23.41 173.834 23.41 173.614C23.41 173.404 23.485 173.224 23.635 173.074C23.785 172.924 23.96 172.849 24.16 172.849C24.84 172.849 25.445 173.004 25.975 173.314C26.515 173.624 26.94 174.044 27.25 174.574C27.56 175.114 27.715 175.719 27.715 176.389C27.715 177.069 27.57 177.659 27.28 178.159C26.99 178.659 26.58 179.044 26.05 179.314C25.52 179.594 24.89 179.734 24.16 179.734C23.84 179.734 23.515 179.664 23.185 179.524C22.855 179.394 22.54 179.224 22.24 179.014C21.94 178.814 21.67 178.609 21.43 178.399L17.53 174.964L17.53 179.164C17.53 179.384 17.45 179.569 17.29 179.719C17.14 179.869 16.965 179.944 16.765 179.944C16.555 179.944 16.375 179.869 16.225 179.719C16.075 179.569 16 179.384 16 179.164L16 173.614Z" fill="white"/>
</svg>
