<svg width="44" height="227" viewBox="0 0 44 227" fill="none" xmlns="http://www.w3.org/2000/svg">
<path d="M0 19L43.596 19.3125V209.369H0V19Z" fill="#B1B1B1"/>
<path d="M15.8505 53.2739C15.8505 52.3939 15.9955 51.5889 16.2855 50.8589C16.5855 50.1289 17.0005 49.4989 17.5305 48.9689C18.0705 48.4489 18.7055 48.0439 19.4355 47.7539C20.1755 47.4639 20.9855 47.3189 21.8655 47.3189C22.7455 47.3189 23.5505 47.4639 24.2805 47.7539C25.0105 48.0439 25.6405 48.4489 26.1705 48.9689C26.7105 49.4989 27.1255 50.1289 27.4155 50.8589C27.7155 51.5889 27.8655 52.3939 27.8655 53.2739C27.8655 54.1539 27.7155 54.9539 27.4155 55.6739C27.1255 56.4039 26.7105 57.0339 26.1705 57.5639C25.6405 58.0939 25.0105 58.5039 24.2805 58.7939C23.5505 59.0839 22.7455 59.2289 21.8655 59.2289C20.9855 59.2289 20.1755 59.0839 19.4355 58.7939C18.7055 58.5039 18.0705 58.0939 17.5305 57.5639C17.0005 57.0339 16.5855 56.4039 16.2855 55.6739C15.9955 54.9539 15.8505 54.1539 15.8505 53.2739ZM17.2605 53.2739C17.2605 53.9239 17.3755 54.5189 17.6055 55.0589C17.8455 55.6089 18.1705 56.0839 18.5805 56.4839C19.0005 56.8839 19.4905 57.1889 20.0505 57.3989C20.6105 57.6189 21.2155 57.7289 21.8655 57.7289C22.5155 57.7289 23.1205 57.6189 23.6805 57.3989C24.2405 57.1889 24.7255 56.8839 25.1355 56.4839C25.5555 56.0839 25.8805 55.6089 26.1105 55.0589C26.3405 54.5189 26.4555 53.9239 26.4555 53.2739C26.4555 52.6239 26.3405 52.0239 26.1105 51.4739C25.8805 50.9339 25.5555 50.4639 25.1355 50.0639C24.7255 49.6739 24.2405 49.3689 23.6805 49.1489C23.1205 48.9289 22.5155 48.8189 21.8655 48.8189C21.2155 48.8189 20.6105 48.9289 20.0505 49.1489C19.4905 49.3689 19.0005 49.6739 18.5805 50.0639C18.1705 50.4639 17.8455 50.9339 17.6055 51.4739C17.3755 52.0239 17.2605 52.6239 17.2605 53.2739ZM15.9405 65.2724C15.9405 64.4724 16.1055 63.7624 16.4355 63.1424C16.7655 62.5224 17.2205 62.0374 17.8005 61.6874C18.3905 61.3374 19.0605 61.1574 19.8105 61.1474L19.8105 61.8824C20.5705 61.8824 21.2355 62.0374 21.8055 62.3474C22.3855 62.6674 22.8405 63.1024 23.1705 63.6524C23.5005 64.2124 23.6655 64.8524 23.6655 65.5724C23.6655 66.2924 23.5005 66.9274 23.1705 67.4774C22.8405 68.0374 22.3855 68.4724 21.8055 68.7824C21.2355 69.1024 20.5705 69.2624 19.8105 69.2624C19.0605 69.2624 18.3905 69.0924 17.8005 68.7524C17.2205 68.4124 16.7655 67.9424 16.4355 67.3424C16.1055 66.7424 15.9405 66.0524 15.9405 65.2724ZM17.2905 65.2724C17.2905 65.7724 17.3955 66.2074 17.6055 66.5774C17.8255 66.9574 18.1255 67.2524 18.5055 67.4624C18.8855 67.6824 19.3205 67.7924 19.8105 67.7924C20.3005 67.7924 20.7305 67.6824 21.1005 67.4624C21.4805 67.2524 21.7755 66.9574 21.9855 66.5774C22.2055 66.2074 22.3155 65.7724 22.3155 65.2724C22.3155 64.7524 22.2055 64.2924 21.9855 63.8924C21.7755 63.4924 21.4805 63.1774 21.1005 62.9474C20.7305 62.7274 20.3005 62.6174 19.8105 62.6174C19.3205 62.6174 18.8855 62.7274 18.5055 62.9474C18.1255 63.1774 17.8255 63.4924 17.6055 63.8924C17.3955 64.2924 17.2905 64.7524 17.2905 65.2724ZM19.8105 61.1474L21.5055 61.1624C22.6855 61.1724 23.7655 61.4974 24.7455 62.1374C25.7255 62.7874 26.5205 63.7924 27.1305 65.1524L28.3755 67.9574C28.4555 68.1574 28.4655 68.3374 28.4055 68.4974C28.3555 68.6574 28.2405 68.7724 28.0605 68.8424C27.8705 68.9124 27.6955 68.9274 27.5355 68.8874C27.3855 68.8574 27.2505 68.7124 27.1305 68.4524L25.7355 65.4074C25.4155 64.7074 25.0355 64.1324 24.5955 63.6824C24.1555 63.2324 23.6605 62.8974 23.1105 62.6774C22.5705 62.4674 21.9855 62.3524 21.3555 62.3324L19.8105 62.3024L19.8105 61.1474ZM15.9105 79.2819C15.9105 78.7119 16.0355 78.2069 16.2855 77.7669C16.5355 77.3269 16.9005 76.9819 17.3805 76.7319C17.8705 76.4919 18.4605 76.3719 19.1505 76.3719L23.4405 76.3719C23.6705 76.3719 23.8555 76.4419 23.9955 76.5819C24.1355 76.7319 24.2055 76.9169 24.2055 77.1369C24.2055 77.3669 24.1355 77.5519 23.9955 77.6919C23.8555 77.8319 23.6705 77.9019 23.4405 77.9019L19.1505 77.9019C18.7305 77.9019 18.3805 77.9719 18.1005 78.1119C17.8305 78.2519 17.6255 78.4469 17.4855 78.6969C17.3555 78.9569 17.2905 79.2519 17.2905 79.5819C17.2905 80.1119 17.4705 80.5419 17.8305 80.8719C18.1905 81.2119 18.6455 81.3819 19.1955 81.3819L19.1955 82.0269C18.5555 82.0269 17.9855 81.9069 17.4855 81.6669C16.9955 81.4369 16.6105 81.1169 16.3305 80.7069C16.0505 80.2969 15.9105 79.8219 15.9105 79.2819ZM15.9105 74.2869C15.9105 73.7169 16.0355 73.2119 16.2855 72.7719C16.5355 72.3419 16.9005 72.0019 17.3805 71.7519C17.8705 71.5019 18.4605 71.3769 19.1505 71.3769L23.4405 71.3769C23.6705 71.3769 23.8555 71.4469 23.9955 71.5869C24.1355 71.7369 24.2055 71.9219 24.2055 72.1419C24.2055 72.3719 24.1355 72.5569 23.9955 72.6969C23.8555 72.8369 23.6705 72.9069 23.4405 72.9069L19.1505 72.9069C18.7305 72.9069 18.3805 72.9769 18.1005 73.1169C17.8305 73.2669 17.6255 73.4669 17.4855 73.7169C17.3555 73.9669 17.2905 74.2569 17.2905 74.5869C17.2905 75.1169 17.4705 75.5469 17.8305 75.8769C18.1905 76.2069 18.6455 76.3719 19.1955 76.3719L19.1955 77.0169C18.5555 77.0169 17.9855 76.9019 17.4855 76.6719C16.9955 76.4419 16.6105 76.1219 16.3305 75.7119C16.0505 75.3019 15.9105 74.8269 15.9105 74.2869ZM13.3305 83.6469C13.3305 83.4369 13.4055 83.2619 13.5555 83.1219C13.7055 82.9819 13.8905 82.9119 14.1105 82.9119L16.0005 82.9119L16.0005 82.6869C16.0005 82.2369 16.1055 81.9069 16.3155 81.6969C16.5255 81.4869 16.8555 81.3819 17.3055 81.3819L23.4555 81.3819C23.6855 81.3819 23.8705 81.4519 24.0105 81.5919C24.1505 81.7419 24.2205 81.9269 24.2205 82.1469C24.2205 82.3769 24.1505 82.5619 24.0105 82.7019C23.8705 82.8419 23.6855 82.9119 23.4555 82.9119L17.2905 82.9119L17.2905 83.5419C17.2905 83.7719 17.2155 83.9569 17.0655 84.0969C16.9255 84.2469 16.7405 84.3219 16.5105 84.3219L14.1105 84.3219C13.8905 84.3219 13.7055 84.2569 13.5555 84.1269C13.4055 84.0069 13.3305 83.8469 13.3305 83.6469ZM15.9405 89.7524C15.9405 88.9224 16.1155 88.1824 16.4655 87.5324C16.8255 86.8924 17.3155 86.3874 17.9355 86.0174C18.5655 85.6574 19.2855 85.4774 20.0955 85.4774C20.9155 85.4774 21.6355 85.6474 22.2555 85.9874C22.8855 86.3374 23.3755 86.8174 23.7255 87.4274C24.0855 88.0374 24.2655 88.7374 24.2655 89.5274C24.2655 90.3074 24.0905 90.9774 23.7405 91.5374C23.4005 92.0974 22.9255 92.5224 22.3155 92.8124C21.7155 93.1124 21.0205 93.2624 20.2305 93.2624C20.0405 93.2624 19.8805 93.1974 19.7505 93.0674C19.6305 92.9374 19.5705 92.7724 19.5705 92.5724L19.5705 86.5274L20.7705 86.5274L20.7705 92.5274L20.3505 91.9124C20.8505 91.9024 21.2955 91.8024 21.6855 91.6124C22.0855 91.4224 22.4005 91.1524 22.6305 90.8024C22.8605 90.4524 22.9755 90.0274 22.9755 89.5274C22.9755 88.9574 22.8505 88.4674 22.6005 88.0574C22.3505 87.6574 22.0055 87.3524 21.5655 87.1424C21.1355 86.9324 20.6455 86.8274 20.0955 86.8274C19.5455 86.8274 19.0555 86.9524 18.6255 87.2024C18.1955 87.4524 17.8555 87.7974 17.6055 88.2374C17.3555 88.6774 17.2305 89.1824 17.2305 89.7524C17.2305 90.0624 17.2855 90.3774 17.3955 90.6974C17.5155 91.0274 17.6505 91.2924 17.8005 91.4924C17.9105 91.6424 17.9655 91.8024 17.9655 91.9724C17.9755 92.1524 17.9255 92.3074 17.8155 92.4374C17.6655 92.6074 17.5005 92.6974 17.3205 92.7074C17.1405 92.7174 16.9855 92.6374 16.8555 92.4674C16.5855 92.1274 16.3655 91.7024 16.1955 91.1924C16.0255 90.6924 15.9405 90.2124 15.9405 89.7524ZM15.9855 99.2447C15.9855 99.0247 16.0555 98.8397 16.1955 98.6897C16.3455 98.5497 16.5305 98.4797 16.7505 98.4797L19.5255 98.4797L19.5255 97.4597L16.2105 95.1647C16.0705 95.0647 16.0005 94.8997 16.0005 94.6697C15.9905 94.4497 16.0505 94.2747 16.1805 94.1447C16.3305 93.9947 16.4855 93.9247 16.6455 93.9347C16.8055 93.9447 16.9605 93.9997 17.1105 94.0997L20.2155 96.1997L23.1105 94.2647C23.2705 94.1647 23.4305 94.1147 23.5905 94.1147C23.7605 94.1247 23.9155 94.2047 24.0555 94.3547C24.1755 94.4847 24.2305 94.6597 24.2205 94.8797C24.2205 95.1097 24.1355 95.2747 23.9655 95.3747L20.8755 97.3697L20.8755 98.4797L23.4405 98.4797C23.6705 98.4797 23.8555 98.5497 23.9955 98.6897C24.1355 98.8397 24.2055 99.0247 24.2055 99.2447C24.2055 99.4747 24.1355 99.6597 23.9955 99.7997C23.8555 99.9397 23.6705 100.01 23.4405 100.01L20.8755 100.01L20.8755 101.135L23.9655 103.115C24.1355 103.225 24.2205 103.39 24.2205 103.61C24.2305 103.83 24.1755 104.005 24.0555 104.135C23.9155 104.285 23.7605 104.365 23.5905 104.375C23.4305 104.385 23.2705 104.335 23.1105 104.225L20.2155 102.29L17.1105 104.39C16.9605 104.49 16.8055 104.545 16.6455 104.555C16.4855 104.565 16.3305 104.495 16.1805 104.345C16.0505 104.215 15.9905 104.035 16.0005 103.805C16.0005 103.585 16.0705 103.425 16.2105 103.325L19.5255 101.045L19.5255 100.01L16.7505 100.01C16.5305 100.01 16.3455 99.9397 16.1955 99.7997C16.0555 99.6597 15.9855 99.4747 15.9855 99.2447ZM15.9255 109.884C15.9255 109.194 16.0705 108.574 16.3605 108.024C16.6605 107.484 17.0955 107.054 17.6655 106.734C18.2355 106.424 18.9355 106.269 19.7655 106.269L23.4555 106.269C23.6755 106.269 23.8555 106.339 23.9955 106.479C24.1455 106.629 24.2205 106.814 24.2205 107.034C24.2205 107.254 24.1455 107.434 23.9955 107.574C23.8555 107.724 23.6755 107.799 23.4555 107.799L19.7655 107.799C19.2055 107.799 18.7405 107.904 18.3705 108.114C18.0105 108.324 17.7405 108.609 17.5605 108.969C17.3905 109.329 17.3055 109.734 17.3055 110.184C17.3055 110.614 17.3905 110.994 17.5605 111.324C17.7305 111.664 17.9605 111.934 18.2505 112.134C18.5405 112.334 18.8655 112.434 19.2255 112.434L19.2255 113.379C18.6055 113.379 18.0455 113.224 17.5455 112.914C17.0455 112.614 16.6505 112.199 16.3605 111.669C16.0705 111.149 15.9255 110.554 15.9255 109.884ZM16.0005 113.199C16.0005 112.979 16.0705 112.794 16.2105 112.644C16.3605 112.504 16.5455 112.434 16.7655 112.434L23.4555 112.434C23.6855 112.434 23.8705 112.504 24.0105 112.644C24.1505 112.794 24.2205 112.979 24.2205 113.199C24.2205 113.429 24.1505 113.614 24.0105 113.754C23.8705 113.894 23.6855 113.964 23.4555 113.964L16.7655 113.964C16.5455 113.964 16.3605 113.894 16.2105 113.754C16.0705 113.614 16.0005 113.429 16.0005 113.199ZM15.9855 127.429C15.9855 127.209 16.0555 127.024 16.1955 126.874C16.3455 126.734 16.5305 126.664 16.7505 126.664L21.0405 126.664C21.6705 126.664 22.1355 126.509 22.4355 126.199C22.7455 125.889 22.9005 125.484 22.9005 124.984C22.9005 124.464 22.7205 124.034 22.3605 123.694C22.0005 123.364 21.5405 123.199 20.9805 123.199L20.9805 121.954C21.6305 121.954 22.2005 122.094 22.6905 122.374C23.1905 122.654 23.5805 123.044 23.8605 123.544C24.1405 124.054 24.2805 124.634 24.2805 125.284C24.2805 125.854 24.1555 126.359 23.9055 126.799C23.6555 127.239 23.2855 127.579 22.7955 127.819C22.3155 128.069 21.7305 128.194 21.0405 128.194L16.7505 128.194C16.5305 128.194 16.3455 128.124 16.1955 127.984C16.0555 127.844 15.9855 127.659 15.9855 127.429ZM15.9855 117.424C15.9855 117.204 16.0555 117.019 16.1955 116.869C16.3455 116.729 16.5305 116.659 16.7505 116.659L23.4255 116.659C23.6555 116.659 23.8405 116.729 23.9805 116.869C24.1205 117.019 24.1905 117.204 24.1905 117.424C24.1905 117.654 24.1205 117.839 23.9805 117.979C23.8405 118.119 23.6555 118.189 23.4255 118.189L16.7505 118.189C16.5305 118.189 16.3455 118.119 16.1955 117.979C16.0555 117.839 15.9855 117.654 15.9855 117.424ZM15.9855 122.434C15.9855 122.214 16.0555 122.029 16.1955 121.879C16.3455 121.739 16.5305 121.669 16.7505 121.669L21.0405 121.669C21.6705 121.669 22.1355 121.514 22.4355 121.204C22.7455 120.894 22.9005 120.489 22.9005 119.989C22.9005 119.469 22.7205 119.039 22.3605 118.699C22.0005 118.359 21.5405 118.189 20.9805 118.189L20.9805 117.244C21.6305 117.244 22.2005 117.374 22.6905 117.634C23.1905 117.894 23.5805 118.254 23.8605 118.714C24.1405 119.174 24.2805 119.699 24.2805 120.289C24.2805 120.859 24.1555 121.364 23.9055 121.804C23.6555 122.244 23.2855 122.584 22.7955 122.824C22.3155 123.074 21.7305 123.199 21.0405 123.199L16.7505 123.199C16.5305 123.199 16.3455 123.129 16.1955 122.989C16.0555 122.849 15.9855 122.664 15.9855 122.434ZM15.9255 134.186C15.9255 133.496 16.0705 132.876 16.3605 132.326C16.6605 131.786 17.0955 131.356 17.6655 131.036C18.2355 130.726 18.9355 130.571 19.7655 130.571L23.4555 130.571C23.6755 130.571 23.8555 130.641 23.9955 130.781C24.1455 130.931 24.2205 131.116 24.2205 131.336C24.2205 131.556 24.1455 131.736 23.9955 131.876C23.8555 132.026 23.6755 132.101 23.4555 132.101L19.7655 132.101C19.2055 132.101 18.7405 132.206 18.3705 132.416C18.0105 132.626 17.7405 132.911 17.5605 133.271C17.3905 133.631 17.3055 134.036 17.3055 134.486C17.3055 134.916 17.3905 135.296 17.5605 135.626C17.7305 135.966 17.9605 136.236 18.2505 136.436C18.5405 136.636 18.8655 136.736 19.2255 136.736L19.2255 137.681C18.6055 137.681 18.0455 137.526 17.5455 137.216C17.0455 136.916 16.6505 136.501 16.3605 135.971C16.0705 135.451 15.9255 134.856 15.9255 134.186ZM16.0005 137.501C16.0005 137.281 16.0705 137.096 16.2105 136.946C16.3605 136.806 16.5455 136.736 16.7655 136.736L23.4555 136.736C23.6855 136.736 23.8705 136.806 24.0105 136.946C24.1505 137.096 24.2205 137.281 24.2205 137.501C24.2205 137.731 24.1505 137.916 24.0105 138.056C23.8705 138.196 23.6855 138.266 23.4555 138.266L16.7655 138.266C16.5455 138.266 16.3605 138.196 16.2105 138.056C16.0705 137.916 16.0005 137.731 16.0005 137.501ZM15.9405 144.816C15.9405 143.986 16.1155 143.246 16.4655 142.596C16.8255 141.956 17.3155 141.451 17.9355 141.081C18.5655 140.721 19.2855 140.541 20.0955 140.541C20.9155 140.541 21.6355 140.711 22.2555 141.051C22.8855 141.401 23.3755 141.881 23.7255 142.491C24.0855 143.101 24.2655 143.801 24.2655 144.591C24.2655 145.371 24.0905 146.041 23.7405 146.601C23.4005 147.161 22.9255 147.586 22.3155 147.876C21.7155 148.176 21.0205 148.326 20.2305 148.326C20.0405 148.326 19.8805 148.261 19.7505 148.131C19.6305 148.001 19.5705 147.836 19.5705 147.636L19.5705 141.591L20.7705 141.591L20.7705 147.591L20.3505 146.976C20.8505 146.966 21.2955 146.866 21.6855 146.676C22.0855 146.486 22.4005 146.216 22.6305 145.866C22.8605 145.516 22.9755 145.091 22.9755 144.591C22.9755 144.021 22.8505 143.531 22.6005 143.121C22.3505 142.721 22.0055 142.416 21.5655 142.206C21.1355 141.996 20.6455 141.891 20.0955 141.891C19.5455 141.891 19.0555 142.016 18.6255 142.266C18.1955 142.516 17.8555 142.861 17.6055 143.301C17.3555 143.741 17.2305 144.246 17.2305 144.816C17.2305 145.126 17.2855 145.441 17.3955 145.761C17.5155 146.091 17.6505 146.356 17.8005 146.556C17.9105 146.706 17.9655 146.866 17.9655 147.036C17.9755 147.216 17.9255 147.371 17.8155 147.501C17.6655 147.671 17.5005 147.761 17.3205 147.771C17.1405 147.781 16.9855 147.701 16.8555 147.531C16.5855 147.191 16.3655 146.766 16.1955 146.256C16.0255 145.756 15.9405 145.276 15.9405 144.816ZM16.0005 155.587C16.0005 155.367 16.0755 155.182 16.2255 155.032C16.3755 154.892 16.5555 154.822 16.7655 154.822L26.9355 154.822C27.1455 154.822 27.3255 154.892 27.4755 155.032C27.6255 155.182 27.7005 155.367 27.7005 155.587C27.7005 155.817 27.6055 156.022 27.4155 156.202L19.0305 162.712L26.9355 162.712C27.1455 162.712 27.3255 162.787 27.4755 162.937C27.6255 163.087 27.7005 163.272 27.7005 163.492C27.7005 163.702 27.6255 163.882 27.4755 164.032C27.3255 164.192 27.1455 164.272 26.9355 164.272L16.7655 164.272C16.5555 164.272 16.3755 164.192 16.2255 164.032C16.0755 163.882 16.0005 163.702 16.0005 163.492C16.0005 163.262 16.0905 163.062 16.2705 162.892L24.6555 156.367L16.7655 156.367C16.5555 156.367 16.3755 156.292 16.2255 156.142C16.0755 155.992 16.0005 155.807 16.0005 155.587ZM19.5855 166.192C19.5855 165.972 19.6605 165.787 19.8105 165.637C19.9605 165.497 20.1455 165.427 20.3655 165.427C20.5855 165.427 20.7655 165.497 20.9055 165.637C21.0555 165.787 21.1305 165.972 21.1305 166.192L21.1305 170.707C21.1305 170.937 21.0555 171.122 20.9055 171.262C20.7655 171.402 20.5855 171.472 20.3655 171.472C20.1455 171.472 19.9605 171.402 19.8105 171.262C19.6605 171.122 19.5855 170.937 19.5855 170.707L19.5855 166.192ZM21.6405 168.457C21.6405 167.897 21.7755 167.387 22.0455 166.927C22.3255 166.467 22.6955 166.102 23.1555 165.832C23.6155 165.562 24.1205 165.427 24.6705 165.427C25.2205 165.427 25.7255 165.562 26.1855 165.832C26.6455 166.102 27.0105 166.467 27.2805 166.927C27.5605 167.387 27.7005 167.897 27.7005 168.457C27.7005 169.017 27.5605 169.522 27.2805 169.972C27.0105 170.432 26.6455 170.797 26.1855 171.067C25.7255 171.337 25.2205 171.472 24.6705 171.472C24.1205 171.472 23.6155 171.337 23.1555 171.067C22.6955 170.797 22.3255 170.432 22.0455 169.972C21.7755 169.522 21.6405 169.017 21.6405 168.457ZM23.1855 168.457C23.1855 168.727 23.2505 168.972 23.3805 169.192C23.5205 169.412 23.7005 169.587 23.9205 169.717C24.1505 169.857 24.4005 169.927 24.6705 169.927C24.9405 169.927 25.1855 169.857 25.4055 169.717C25.6355 169.587 25.8155 169.407 25.9455 169.177C26.0855 168.957 26.1555 168.717 26.1555 168.457C26.1555 168.187 26.0905 167.937 25.9605 167.707C25.8305 167.487 25.6505 167.307 25.4205 167.167C25.2005 167.037 24.9505 166.972 24.6705 166.972C24.4005 166.972 24.1505 167.037 23.9205 167.167C23.7005 167.297 23.5205 167.472 23.3805 167.692C23.2505 167.922 23.1855 168.177 23.1855 168.457ZM16.0155 176.29C16.0155 175.63 16.1705 175.035 16.4805 174.505C16.8005 173.985 17.2305 173.575 17.7705 173.275C18.3205 172.975 18.9355 172.825 19.6155 172.825C20.2755 172.825 20.8655 172.975 21.3855 173.275C21.9155 173.575 22.3305 173.985 22.6305 174.505C22.9305 175.035 23.0805 175.63 23.0805 176.29C23.0805 176.95 22.9305 177.54 22.6305 178.06C22.3305 178.58 21.9155 178.99 21.3855 179.29C20.8655 179.6 20.2755 179.75 19.6155 179.74C18.9355 179.74 18.3205 179.585 17.7705 179.275C17.2305 178.975 16.8005 178.565 16.4805 178.045C16.1705 177.525 16.0155 176.94 16.0155 176.29ZM17.3955 176.29C17.3955 176.66 17.4955 176.99 17.6955 177.28C17.8955 177.58 18.1605 177.815 18.4905 177.985C18.8305 178.155 19.2055 178.24 19.6155 178.24C20.0155 178.25 20.3705 178.17 20.6805 178C21.0005 177.83 21.2505 177.595 21.4305 177.295C21.6205 177.005 21.7155 176.67 21.7155 176.29C21.7155 175.92 21.6205 175.585 21.4305 175.285C21.2505 174.985 21.0005 174.75 20.6805 174.58C20.3705 174.41 20.0155 174.325 19.6155 174.325C19.2055 174.325 18.8305 174.405 18.4905 174.565C18.1605 174.735 17.8955 174.97 17.6955 175.27C17.4955 175.57 17.3955 175.91 17.3955 176.29ZM21.9855 176.29C21.9855 175.72 22.1105 175.21 22.3605 174.76C22.6105 174.32 22.9455 173.97 23.3655 173.71C23.7955 173.45 24.2805 173.32 24.8205 173.32C25.3905 173.32 25.8955 173.45 26.3355 173.71C26.7855 173.97 27.1405 174.32 27.4005 174.76C27.6705 175.21 27.8055 175.72 27.8055 176.29C27.8155 176.86 27.6905 177.365 27.4305 177.805C27.1705 178.255 26.8155 178.61 26.3655 178.87C25.9155 179.13 25.4005 179.255 24.8205 179.245C24.2805 179.245 23.7955 179.115 23.3655 178.855C22.9455 178.595 22.6105 178.24 22.3605 177.79C22.1105 177.35 21.9855 176.85 21.9855 176.29ZM23.2305 176.29C23.2305 176.57 23.3055 176.82 23.4555 177.04C23.6055 177.26 23.8005 177.435 24.0405 177.565C24.2905 177.695 24.5655 177.76 24.8655 177.76C25.1655 177.77 25.4305 177.71 25.6605 177.58C25.8905 177.45 26.0705 177.275 26.2005 177.055C26.3405 176.835 26.4105 176.58 26.4105 176.29C26.4105 175.87 26.2655 175.52 25.9755 175.24C25.6855 174.96 25.3155 174.815 24.8655 174.805C24.4155 174.795 24.0305 174.93 23.7105 175.21C23.3905 175.5 23.2305 175.86 23.2305 176.29Z" fill="white"/>
</svg>
