<svg width="163" height="371" viewBox="0 0 163 371" fill="none" xmlns="http://www.w3.org/2000/svg">
<path d="M0 370.566V284.26H8.24092V67.8115H0V0H51.5058V85.6205H162.758V123.979H51.5058V228.093H162.758V239.738V249.327V266.451H51.5058V370.566H0Z" fill="#A73C4C"/>
<path d="M23.0073 129.372C22.802 129.166 22.7066 128.888 22.7213 128.536C22.7213 128.184 22.8386 127.905 23.0733 127.7L31.4773 120.484L39.5293 127.216C39.7786 127.421 39.9033 127.685 39.9033 128.008C39.918 128.345 39.808 128.616 39.5733 128.822C39.3386 129.027 39.0893 129.122 38.8253 129.108C38.576 129.108 38.334 129.005 38.0993 128.8L31.6313 123.234L24.5033 129.372C24.2686 129.577 24.0193 129.687 23.7553 129.702C23.506 129.731 23.2566 129.621 23.0073 129.372ZM22.7213 117.888C22.7213 117.565 22.8313 117.294 23.0513 117.074C23.2713 116.854 23.5426 116.744 23.8653 116.744L38.7593 116.744C39.0966 116.744 39.368 116.854 39.5733 117.074C39.7933 117.294 39.9033 117.565 39.9033 117.888C39.9033 118.225 39.7933 118.496 39.5733 118.702C39.368 118.922 39.0966 119.032 38.7593 119.032L32.4453 119.032L32.4453 122.64L30.4213 122.64L30.4213 119.032L23.8653 119.032C23.5426 119.032 23.2713 118.922 23.0513 118.702C22.8313 118.496 22.7213 118.225 22.7213 117.888ZM22.6333 136.761C22.6333 135.573 22.89 134.524 23.4033 133.615C23.9313 132.705 24.65 131.987 25.5593 131.459C26.4833 130.945 27.5393 130.689 28.7273 130.689C29.93 130.689 30.986 130.945 31.8953 131.459C32.8193 131.987 33.538 132.705 34.0513 133.615C34.5793 134.524 34.8433 135.573 34.8433 136.761C34.8433 137.934 34.5793 138.975 34.0513 139.885C33.538 140.794 32.8193 141.505 31.8953 142.019C30.986 142.547 29.93 142.811 28.7273 142.811C27.5393 142.811 26.4833 142.554 25.5593 142.041C24.65 141.527 23.9313 140.816 23.4033 139.907C22.89 138.997 22.6333 137.949 22.6333 136.761ZM24.6133 136.761C24.6133 137.523 24.7893 138.198 25.1413 138.785C25.4933 139.371 25.9773 139.826 26.5933 140.149C27.2093 140.486 27.9206 140.655 28.7273 140.655C29.534 140.655 30.2453 140.486 30.8613 140.149C31.492 139.826 31.9833 139.371 32.3353 138.785C32.6873 138.198 32.8633 137.523 32.8633 136.761C32.8633 135.998 32.6873 135.323 32.3353 134.737C31.9833 134.15 31.492 133.688 30.8613 133.351C30.2453 133.013 29.534 132.845 28.7273 132.845C27.9206 132.845 27.2093 133.013 26.5933 133.351C25.9773 133.688 25.4933 134.15 25.1413 134.737C24.7893 135.323 24.6133 135.998 24.6133 136.761ZM17.5733 147.272C17.5733 146.95 17.6833 146.678 17.9033 146.458C18.1086 146.253 18.3726 146.15 18.6953 146.15L28.7273 146.15C29.886 146.165 30.9273 146.436 31.8513 146.964C32.7753 147.492 33.5013 148.211 34.0293 149.12C34.572 150.03 34.8433 151.056 34.8433 152.2C34.8433 153.359 34.572 154.393 34.0293 155.302C33.5013 156.212 32.7753 156.93 31.8513 157.458C30.9273 158.001 29.886 158.272 28.7273 158.272C27.5686 158.272 26.5273 158.023 25.6033 157.524C24.694 157.04 23.968 156.373 23.4253 155.522C22.8973 154.672 22.6333 153.711 22.6333 152.64C22.6333 151.775 22.8093 150.976 23.1613 150.242C23.528 149.524 24.0193 148.908 24.6353 148.394L18.6953 148.394C18.3726 148.394 18.1086 148.292 17.9033 148.086C17.6833 147.881 17.5733 147.61 17.5733 147.272ZM24.6133 152.2C24.6133 152.948 24.7893 153.616 25.1413 154.202C25.508 154.789 25.9993 155.251 26.6153 155.588C27.246 155.94 27.95 156.116 28.7273 156.116C29.5193 156.116 30.2233 155.94 30.8393 155.588C31.47 155.251 31.9613 154.789 32.3133 154.202C32.68 153.616 32.8633 152.948 32.8633 152.2C32.8633 151.467 32.68 150.8 32.3133 150.198C31.9613 149.612 31.47 149.15 30.8393 148.812C30.2233 148.475 29.5193 148.306 28.7273 148.306C27.95 148.306 27.246 148.475 26.6153 148.812C25.9993 149.15 25.508 149.612 25.1413 150.198C24.7893 150.8 24.6133 151.467 24.6133 152.2ZM22.6993 171.783C22.6993 171.461 22.802 171.189 23.0073 170.969C23.2273 170.764 23.4986 170.661 23.8213 170.661L29.2333 170.661C30.0693 170.661 30.7513 170.507 31.2793 170.199C31.8073 169.891 32.196 169.473 32.4453 168.945C32.7093 168.432 32.8413 167.838 32.8413 167.163C32.8413 166.547 32.7166 165.99 32.4673 165.491C32.218 164.993 31.8806 164.597 31.4553 164.303C31.0446 164.01 30.568 163.863 30.0253 163.863L30.0253 162.477C30.9493 162.477 31.7706 162.697 32.4893 163.137C33.2226 163.592 33.802 164.208 34.2273 164.985C34.6526 165.763 34.8653 166.635 34.8653 167.603C34.8653 168.615 34.6453 169.517 34.2053 170.309C33.78 171.116 33.1493 171.747 32.3133 172.201C31.4773 172.671 30.4506 172.905 29.2333 172.905L23.8213 172.905C23.4986 172.905 23.2273 172.795 23.0073 172.575C22.802 172.37 22.6993 172.106 22.6993 171.783ZM22.6993 162.741C22.6993 162.419 22.802 162.147 23.0073 161.927C23.2273 161.722 23.4986 161.619 23.8213 161.619L33.6333 161.619C33.9706 161.619 34.242 161.722 34.4473 161.927C34.6526 162.147 34.7553 162.419 34.7553 162.741C34.7553 163.079 34.6526 163.35 34.4473 163.555C34.242 163.761 33.9706 163.863 33.6333 163.863L23.8213 163.863C23.4986 163.863 23.2273 163.761 23.0073 163.555C22.802 163.35 22.6993 163.079 22.6993 162.741ZM17.4413 175.685C17.4413 175.421 17.478 175.15 17.5513 174.871C17.6246 174.607 17.7346 174.343 17.8813 174.079C18.072 173.757 18.3066 173.544 18.5853 173.441C18.864 173.339 19.1353 173.383 19.3993 173.573C19.6486 173.749 19.8026 173.962 19.8613 174.211C19.92 174.461 19.8686 174.725 19.7073 175.003C19.6193 175.165 19.5533 175.311 19.5093 175.443C19.4653 175.59 19.4433 175.737 19.4433 175.883C19.4433 176.353 19.6853 176.8 20.1693 177.225C20.6533 177.665 21.372 178.098 22.3253 178.523L34.2053 183.781C34.4986 183.913 34.6966 184.111 34.7993 184.375C34.902 184.654 34.8873 184.933 34.7553 185.211C34.6526 185.461 34.462 185.622 34.1833 185.695C33.9193 185.769 33.6333 185.732 33.3253 185.585L21.4453 180.283C20.2573 179.755 19.2966 179.081 18.5633 178.259C17.8153 177.453 17.4413 176.595 17.4413 175.685ZM23.2053 180.701C23.088 180.423 23.0733 180.159 23.1613 179.909C23.264 179.675 23.4546 179.484 23.7333 179.337L33.3033 174.299C33.582 174.153 33.846 174.131 34.0953 174.233C34.3593 174.351 34.55 174.549 34.6673 174.827C34.7846 175.106 34.792 175.363 34.6893 175.597C34.6013 175.847 34.418 176.045 34.1393 176.191L24.6573 181.031C24.3786 181.178 24.0926 181.229 23.7993 181.185C23.5206 181.141 23.3226 180.98 23.2053 180.701ZM22.6333 193.028C22.6333 191.855 22.8973 190.806 23.4253 189.882C23.968 188.973 24.694 188.254 25.6033 187.726C26.5273 187.213 27.5686 186.956 28.7273 186.956C29.9153 186.956 30.9713 187.213 31.8953 187.726C32.8193 188.24 33.538 188.944 34.0513 189.838C34.5793 190.733 34.8433 191.76 34.8433 192.918C34.8433 193.784 34.6746 194.576 34.3373 195.294C34.0146 196.013 33.5233 196.658 32.8633 197.23C32.6286 197.436 32.3866 197.509 32.1373 197.45C31.888 197.392 31.668 197.23 31.4773 196.966C31.3306 196.761 31.2793 196.534 31.3233 196.284C31.382 196.035 31.514 195.808 31.7193 195.602C32.482 194.884 32.8633 193.989 32.8633 192.918C32.8633 192.17 32.6873 191.51 32.3353 190.938C31.998 190.366 31.5213 189.919 30.9053 189.596C30.2893 189.274 29.5633 189.112 28.7273 189.112C27.9353 189.112 27.2313 189.274 26.6153 189.596C25.9993 189.934 25.508 190.396 25.1413 190.982C24.7893 191.569 24.6133 192.251 24.6133 193.028C24.6133 193.542 24.672 193.989 24.7893 194.37C24.9213 194.766 25.1193 195.126 25.3833 195.448C25.574 195.683 25.6766 195.925 25.6913 196.174C25.7206 196.424 25.6546 196.644 25.4933 196.834C25.288 197.084 25.0533 197.223 24.7893 197.252C24.54 197.282 24.3126 197.194 24.1073 196.988C23.1246 195.932 22.6333 194.612 22.6333 193.028ZM22.7213 208.573C22.7213 208.25 22.8313 207.979 23.0513 207.759C23.2713 207.553 23.5353 207.451 23.8433 207.451L38.7593 207.451C39.0673 207.451 39.3313 207.553 39.5513 207.759C39.7713 207.979 39.8813 208.25 39.8813 208.573C39.8813 208.91 39.742 209.211 39.4633 209.475L27.1653 219.023L38.7593 219.023C39.0673 219.023 39.3313 219.133 39.5513 219.353C39.7713 219.573 39.8813 219.844 39.8813 220.167C39.8813 220.475 39.7713 220.739 39.5513 220.959C39.3313 221.193 39.0673 221.311 38.7593 221.311L23.8433 221.311C23.5353 221.311 23.2713 221.193 23.0513 220.959C22.8313 220.739 22.7213 220.475 22.7213 220.167C22.7213 219.829 22.8533 219.536 23.1173 219.287L35.4153 209.717L23.8433 209.717C23.5353 209.717 23.2713 209.607 23.0513 209.387C22.8313 209.167 22.7213 208.895 22.7213 208.573ZM27.9793 224.127C27.9793 223.804 28.0893 223.533 28.3093 223.313C28.5293 223.107 28.8006 223.005 29.1233 223.005C29.446 223.005 29.71 223.107 29.9153 223.313C30.1353 223.533 30.2453 223.804 30.2453 224.127L30.2453 230.749C30.2453 231.086 30.1353 231.357 29.9153 231.563C29.71 231.768 29.446 231.871 29.1233 231.871C28.8006 231.871 28.5293 231.768 28.3093 231.563C28.0893 231.357 27.9793 231.086 27.9793 230.749L27.9793 224.127ZM30.9933 227.449C30.9933 226.627 31.1913 225.879 31.5873 225.205C31.998 224.53 32.5406 223.995 33.2153 223.599C33.89 223.203 34.6306 223.005 35.4373 223.005C36.244 223.005 36.9846 223.203 37.6593 223.599C38.334 223.995 38.8693 224.53 39.2653 225.205C39.676 225.879 39.8813 226.627 39.8813 227.449C39.8813 228.27 39.676 229.011 39.2653 229.671C38.8693 230.345 38.334 230.881 37.6593 231.277C36.9846 231.673 36.244 231.871 35.4373 231.871C34.6306 231.871 33.89 231.673 33.2153 231.277C32.5406 230.881 31.998 230.345 31.5873 229.671C31.1913 229.011 30.9933 228.27 30.9933 227.449ZM33.2593 227.449C33.2593 227.845 33.3546 228.204 33.5453 228.527C33.7506 228.849 34.0146 229.106 34.3373 229.297C34.6746 229.502 35.0413 229.605 35.4373 229.605C35.8333 229.605 36.1926 229.502 36.5153 229.297C36.8526 229.106 37.1166 228.842 37.3073 228.505C37.5126 228.182 37.6153 227.83 37.6153 227.449C37.6153 227.053 37.52 226.686 37.3293 226.349C37.1386 226.026 36.8746 225.762 36.5373 225.557C36.2146 225.366 35.848 225.271 35.4373 225.271C35.0413 225.271 34.6746 225.366 34.3373 225.557C34.0146 225.747 33.7506 226.004 33.5453 226.327C33.3546 226.664 33.2593 227.038 33.2593 227.449ZM22.7213 237.838C22.7213 237.544 22.8313 237.288 23.0513 237.068C23.2713 236.848 23.5353 236.738 23.8433 236.738L37.2633 236.738L36.5813 235.132C36.4786 234.882 36.4273 234.648 36.4273 234.428C36.4273 234.105 36.53 233.834 36.7353 233.614C36.9406 233.408 37.2046 233.306 37.5273 233.306C37.762 233.306 37.9746 233.364 38.1653 233.482C38.356 233.599 38.4953 233.782 38.5833 234.032L39.8153 237.464C39.8446 237.537 39.8666 237.61 39.8813 237.684C39.896 237.757 39.9033 237.823 39.9033 237.882C39.9033 238.219 39.7933 238.483 39.5733 238.674C39.368 238.879 39.0966 238.982 38.7593 238.982L23.8433 238.982C23.5353 238.982 23.2713 238.872 23.0513 238.652C22.8313 238.432 22.7213 238.16 22.7213 237.838Z" fill="white"/>
</svg>
