<svg width="178" height="62" viewBox="0 0 178 62" fill="none" xmlns="http://www.w3.org/2000/svg">
<path d="M61.6478 0H177.177V61.0343H137.214V47.229H61.6478V28.4424H0V19.9424H61.6478V0Z" fill="#A73C4C"/>
<path d="M86.9215 18.6386C86.2735 18.6386 85.6655 18.5186 85.0975 18.2786C84.5375 18.0306 84.0455 17.6906 83.6215 17.2586C83.2055 16.8186 82.8775 16.3066 82.6375 15.7226C82.4055 15.1386 82.2895 14.5066 82.2895 13.8266C82.2895 13.1546 82.4055 12.5306 82.6375 11.9546C82.8775 11.3706 83.2055 10.8626 83.6215 10.4306C84.0455 9.99055 84.5375 9.64655 85.0975 9.39855C85.6575 9.15055 86.2655 9.02655 86.9215 9.02655C87.5375 9.02655 88.0655 9.10655 88.5055 9.26655C88.9535 9.42655 89.4015 9.69055 89.8495 10.0586C89.9135 10.1066 89.9615 10.1586 89.9935 10.2146C90.0335 10.2626 90.0575 10.3146 90.0655 10.3706C90.0815 10.4186 90.0895 10.4786 90.0895 10.5506C90.0895 10.7026 90.0335 10.8306 89.9215 10.9346C89.8175 11.0306 89.6895 11.0866 89.5375 11.1026C89.3855 11.1106 89.2375 11.0586 89.0935 10.9466C88.7975 10.6906 88.4895 10.4946 88.1695 10.3586C87.8575 10.2226 87.4415 10.1546 86.9215 10.1546C86.4495 10.1546 86.0055 10.2506 85.5895 10.4426C85.1735 10.6346 84.8055 10.8986 84.4855 11.2346C84.1735 11.5706 83.9295 11.9626 83.7535 12.4106C83.5775 12.8506 83.4895 13.3226 83.4895 13.8266C83.4895 14.3386 83.5775 14.8186 83.7535 15.2666C83.9295 15.7066 84.1735 16.0946 84.4855 16.4306C84.8055 16.7666 85.1735 17.0306 85.5895 17.2226C86.0055 17.4066 86.4495 17.4986 86.9215 17.4986C87.3295 17.4986 87.7135 17.4306 88.0735 17.2946C88.4415 17.1506 88.7935 16.9546 89.1295 16.7066C89.2735 16.6026 89.4135 16.5586 89.5495 16.5746C89.6935 16.5826 89.8135 16.6386 89.9095 16.7426C90.0055 16.8386 90.0535 16.9746 90.0535 17.1506C90.0535 17.2306 90.0375 17.3106 90.0055 17.3906C89.9735 17.4626 89.9255 17.5306 89.8615 17.5946C89.4295 17.9386 88.9655 18.1986 88.4695 18.3746C87.9815 18.5506 87.4655 18.6386 86.9215 18.6386ZM97.4736 18.5306C97.2976 18.5306 97.1496 18.4746 97.0296 18.3626C96.9176 18.2426 96.8616 18.0946 96.8616 17.9186V14.9666C96.8616 14.5106 96.7776 14.1386 96.6096 13.8506C96.4416 13.5626 96.2136 13.3506 95.9256 13.2146C95.6456 13.0706 95.3216 12.9986 94.9536 12.9986C94.6176 12.9986 94.3136 13.0666 94.0416 13.2026C93.7696 13.3386 93.5536 13.5226 93.3936 13.7546C93.2336 13.9786 93.1536 14.2386 93.1536 14.5346H92.3976C92.3976 14.0306 92.5176 13.5826 92.7576 13.1906C93.0056 12.7906 93.3416 12.4746 93.7656 12.2426C94.1896 12.0106 94.6656 11.8946 95.1936 11.8946C95.7456 11.8946 96.2376 12.0146 96.6696 12.2546C97.1096 12.4866 97.4536 12.8306 97.7016 13.2866C97.9576 13.7426 98.0856 14.3026 98.0856 14.9666V17.9186C98.0856 18.0946 98.0256 18.2426 97.9056 18.3626C97.7936 18.4746 97.6496 18.5306 97.4736 18.5306ZM92.5416 18.5306C92.3656 18.5306 92.2176 18.4746 92.0976 18.3626C91.9856 18.2426 91.9296 18.0946 91.9296 17.9186V12.5666C91.9296 12.3826 91.9856 12.2346 92.0976 12.1226C92.2176 12.0106 92.3656 11.9546 92.5416 11.9546C92.7256 11.9546 92.8736 12.0106 92.9856 12.1226C93.0976 12.2346 93.1536 12.3826 93.1536 12.5666V17.9186C93.1536 18.0946 93.0976 18.2426 92.9856 18.3626C92.8736 18.4746 92.7256 18.5306 92.5416 18.5306ZM103.085 18.5666C102.437 18.5666 101.865 18.4266 101.369 18.1466C100.873 17.8586 100.481 17.4666 100.193 16.9706C99.9133 16.4666 99.7733 15.8906 99.7733 15.2426C99.7733 14.5866 99.9133 14.0106 100.193 13.5146C100.481 13.0106 100.873 12.6186 101.369 12.3386C101.865 12.0506 102.437 11.9066 103.085 11.9066C103.725 11.9066 104.293 12.0506 104.789 12.3386C105.285 12.6186 105.673 13.0106 105.953 13.5146C106.241 14.0106 106.385 14.5866 106.385 15.2426C106.385 15.8906 106.245 16.4666 105.965 16.9706C105.685 17.4666 105.297 17.8586 104.801 18.1466C104.305 18.4266 103.733 18.5666 103.085 18.5666ZM103.085 17.4866C103.501 17.4866 103.869 17.3906 104.189 17.1986C104.509 17.0066 104.757 16.7426 104.933 16.4066C105.117 16.0706 105.209 15.6826 105.209 15.2426C105.209 14.8026 105.117 14.4146 104.933 14.0786C104.757 13.7346 104.509 13.4666 104.189 13.2746C103.869 13.0826 103.501 12.9866 103.085 12.9866C102.669 12.9866 102.301 13.0826 101.981 13.2746C101.661 13.4666 101.409 13.7346 101.225 14.0786C101.041 14.4146 100.949 14.8026 100.949 15.2426C100.949 15.6826 101.041 16.0706 101.225 16.4066C101.409 16.7426 101.661 17.0066 101.981 17.1986C102.301 17.3906 102.669 17.4866 103.085 17.4866ZM108.819 21.3266C108.643 21.3266 108.495 21.2666 108.375 21.1466C108.263 21.0346 108.207 20.8906 108.207 20.7146V15.2426C108.215 14.6106 108.363 14.0426 108.651 13.5386C108.939 13.0346 109.331 12.6386 109.827 12.3506C110.323 12.0546 110.883 11.9066 111.507 11.9066C112.139 11.9066 112.703 12.0546 113.199 12.3506C113.695 12.6386 114.087 13.0346 114.375 13.5386C114.671 14.0426 114.819 14.6106 114.819 15.2426C114.819 15.8746 114.683 16.4426 114.411 16.9466C114.147 17.4426 113.783 17.8386 113.319 18.1346C112.855 18.4226 112.331 18.5666 111.747 18.5666C111.275 18.5666 110.839 18.4706 110.439 18.2786C110.047 18.0786 109.711 17.8106 109.431 17.4746V20.7146C109.431 20.8906 109.375 21.0346 109.263 21.1466C109.151 21.2666 109.003 21.3266 108.819 21.3266ZM111.507 17.4866C111.915 17.4866 112.279 17.3906 112.599 17.1986C112.919 16.9986 113.171 16.7306 113.355 16.3946C113.547 16.0506 113.643 15.6666 113.643 15.2426C113.643 14.8106 113.547 14.4266 113.355 14.0906C113.171 13.7466 112.919 13.4786 112.599 13.2866C112.279 13.0866 111.915 12.9866 111.507 12.9866C111.107 12.9866 110.743 13.0866 110.415 13.2866C110.095 13.4786 109.843 13.7466 109.659 14.0906C109.475 14.4266 109.383 14.8106 109.383 15.2426C109.383 15.6666 109.475 16.0506 109.659 16.3946C109.843 16.7306 110.095 16.9986 110.415 17.1986C110.743 17.3906 111.107 17.4866 111.507 17.4866ZM125.26 18.5306C125.084 18.5306 124.936 18.4746 124.816 18.3626C124.704 18.2426 124.648 18.0946 124.648 17.9186V14.4866C124.648 13.9826 124.524 13.6106 124.276 13.3706C124.028 13.1226 123.704 12.9986 123.304 12.9986C122.888 12.9986 122.544 13.1426 122.272 13.4306C122.008 13.7186 121.876 14.0866 121.876 14.5346H120.88C120.88 14.0146 120.992 13.5586 121.216 13.1666C121.44 12.7666 121.752 12.4546 122.152 12.2306C122.56 12.0066 123.024 11.8946 123.544 11.8946C124 11.8946 124.404 11.9946 124.756 12.1946C125.108 12.3946 125.38 12.6906 125.572 13.0826C125.772 13.4666 125.872 13.9346 125.872 14.4866V17.9186C125.872 18.0946 125.816 18.2426 125.704 18.3626C125.592 18.4746 125.444 18.5306 125.26 18.5306ZM117.256 18.5306C117.08 18.5306 116.932 18.4746 116.812 18.3626C116.7 18.2426 116.644 18.0946 116.644 17.9186V12.5786C116.644 12.3946 116.7 12.2466 116.812 12.1346C116.932 12.0226 117.08 11.9666 117.256 11.9666C117.44 11.9666 117.588 12.0226 117.7 12.1346C117.812 12.2466 117.868 12.3946 117.868 12.5786V17.9186C117.868 18.0946 117.812 18.2426 117.7 18.3626C117.588 18.4746 117.44 18.5306 117.256 18.5306ZM121.264 18.5306C121.088 18.5306 120.94 18.4746 120.82 18.3626C120.708 18.2426 120.652 18.0946 120.652 17.9186V14.4866C120.652 13.9826 120.528 13.6106 120.28 13.3706C120.032 13.1226 119.708 12.9986 119.308 12.9986C118.892 12.9986 118.548 13.1426 118.276 13.4306C118.004 13.7186 117.868 14.0866 117.868 14.5346H117.112C117.112 14.0146 117.216 13.5586 117.424 13.1666C117.632 12.7666 117.92 12.4546 118.288 12.2306C118.656 12.0066 119.076 11.8946 119.548 11.8946C120.004 11.8946 120.408 11.9946 120.76 12.1946C121.112 12.3946 121.384 12.6906 121.576 13.0826C121.776 13.4666 121.876 13.9346 121.876 14.4866V17.9186C121.876 18.0946 121.82 18.2426 121.708 18.3626C121.596 18.4746 121.448 18.5306 121.264 18.5306ZM133.234 18.3746C133.13 18.4706 132.982 18.5186 132.79 18.5186C132.606 18.5106 132.462 18.4546 132.358 18.3506L129.442 15.2186L132.19 12.1466C132.294 12.0346 132.438 11.9706 132.622 11.9546C132.814 11.9386 132.962 11.9786 133.066 12.0746C133.186 12.1866 133.254 12.3146 133.27 12.4586C133.286 12.5946 133.242 12.7186 133.138 12.8306L130.966 15.1586L133.27 17.6306C133.374 17.7346 133.426 17.8586 133.426 18.0026C133.426 18.1386 133.362 18.2626 133.234 18.3746ZM128.482 18.5306C128.306 18.5306 128.166 18.4746 128.062 18.3626C127.958 18.2426 127.906 18.0946 127.906 17.9186V12.5666C127.906 12.3826 127.958 12.2346 128.062 12.1226C128.166 12.0106 128.306 11.9546 128.482 11.9546C128.666 11.9546 128.814 12.0106 128.926 12.1226C129.046 12.2346 129.106 12.3826 129.106 12.5666V14.5706H130.642V15.6986H129.106V17.9186C129.106 18.0946 129.046 18.2426 128.926 18.3626C128.814 18.4746 128.666 18.5306 128.482 18.5306ZM137.386 11.9666C137.506 11.9666 137.614 11.9986 137.71 12.0626C137.806 12.1266 137.882 12.2266 137.938 12.3626L140.41 17.7266C140.482 17.8866 140.49 18.0306 140.434 18.1586C140.378 18.2786 140.282 18.3706 140.146 18.4346C139.97 18.5146 139.818 18.5346 139.69 18.4946C139.562 18.4546 139.454 18.3546 139.366 18.1946L137.11 13.0706H137.722L135.394 18.1946C135.322 18.3466 135.214 18.4466 135.07 18.4946C134.934 18.5346 134.782 18.5146 134.614 18.4346C134.462 18.3626 134.354 18.2666 134.29 18.1466C134.234 18.0266 134.246 17.8866 134.326 17.7266L136.81 12.3626C136.93 12.0986 137.122 11.9666 137.386 11.9666ZM141.825 21.3986C141.681 21.3986 141.533 21.3786 141.381 21.3386C141.237 21.2986 141.093 21.2386 140.949 21.1586C140.773 21.0546 140.657 20.9266 140.601 20.7746C140.545 20.6226 140.569 20.4746 140.673 20.3306C140.769 20.1946 140.885 20.1106 141.021 20.0786C141.157 20.0466 141.301 20.0746 141.453 20.1626C141.541 20.2106 141.621 20.2466 141.693 20.2706C141.773 20.2946 141.853 20.3066 141.933 20.3066C142.189 20.3066 142.433 20.1746 142.665 19.9106C142.905 19.6466 143.141 19.2546 143.373 18.7346L146.241 12.2546C146.313 12.0946 146.421 11.9866 146.565 11.9306C146.717 11.8746 146.869 11.8826 147.021 11.9546C147.157 12.0106 147.245 12.1146 147.285 12.2666C147.325 12.4106 147.305 12.5666 147.225 12.7346L144.333 19.2146C144.045 19.8626 143.677 20.3866 143.229 20.7866C142.789 21.1946 142.321 21.3986 141.825 21.3986ZM144.561 18.2546C144.409 18.3186 144.265 18.3266 144.129 18.2786C144.001 18.2226 143.897 18.1186 143.817 17.9666L141.069 12.7466C140.989 12.5946 140.977 12.4506 141.033 12.3146C141.097 12.1706 141.205 12.0666 141.357 12.0026C141.509 11.9386 141.649 11.9346 141.777 11.9906C141.913 12.0386 142.021 12.1386 142.101 12.2906L144.741 17.4626C144.821 17.6146 144.849 17.7706 144.825 17.9306C144.801 18.0826 144.713 18.1906 144.561 18.2546ZM151.543 18.5666C150.903 18.5666 150.335 18.4346 149.839 18.1706C149.343 17.9066 148.955 17.5426 148.675 17.0786C148.395 16.6066 148.251 16.0706 148.243 15.4706H148.831C148.831 14.8626 148.955 14.3306 149.203 13.8746C149.459 13.4106 149.807 13.0466 150.247 12.7826C150.695 12.5186 151.207 12.3866 151.783 12.3866C152.359 12.3866 152.867 12.5186 153.307 12.7826C153.755 13.0466 154.103 13.4106 154.351 13.8746C154.607 14.3306 154.735 14.8626 154.735 15.4706C154.735 16.0706 154.599 16.6066 154.327 17.0786C154.055 17.5426 153.679 17.9066 153.199 18.1706C152.719 18.4346 152.167 18.5666 151.543 18.5666ZM151.543 17.4866C151.943 17.4866 152.291 17.4026 152.587 17.2346C152.891 17.0586 153.127 16.8186 153.295 16.5146C153.471 16.2106 153.559 15.8626 153.559 15.4706C153.559 15.0786 153.471 14.7346 153.295 14.4386C153.127 14.1346 152.891 13.8986 152.587 13.7306C152.291 13.5546 151.943 13.4666 151.543 13.4666C151.127 13.4666 150.759 13.5546 150.439 13.7306C150.119 13.8986 149.867 14.1346 149.683 14.4386C149.507 14.7346 149.419 15.0786 149.419 15.4706C149.419 15.8626 149.507 16.2106 149.683 16.5146C149.867 16.8186 150.119 17.0586 150.439 17.2346C150.759 17.4026 151.127 17.4866 151.543 17.4866ZM148.243 15.4706L148.255 14.1146C148.263 13.1706 148.523 12.3066 149.035 11.5226C149.555 10.7386 150.359 10.1026 151.447 9.61455L153.691 8.61855C153.851 8.55455 153.995 8.54655 154.123 8.59455C154.251 8.63455 154.343 8.72655 154.399 8.87055C154.455 9.02255 154.467 9.16255 154.435 9.29055C154.411 9.41055 154.295 9.51855 154.087 9.61455L151.651 10.7306C151.091 10.9866 150.631 11.2906 150.271 11.6426C149.911 11.9946 149.643 12.3906 149.467 12.8306C149.299 13.2626 149.207 13.7306 149.191 14.2346L149.167 15.4706H148.243ZM83.5981 36.3366C83.4674 36.4672 83.2901 36.5279 83.0661 36.5186C82.8421 36.5186 82.6648 36.4439 82.5341 36.2946L77.9421 30.9466L82.2261 25.8226C82.3568 25.6639 82.5248 25.5846 82.7301 25.5846C82.9448 25.5752 83.1174 25.6452 83.2481 25.7946C83.3788 25.9439 83.4394 26.1026 83.4301 26.2706C83.4301 26.4292 83.3648 26.5832 83.2341 26.7326L79.6921 30.8486L83.5981 35.3846C83.7288 35.5339 83.7988 35.6926 83.8081 35.8606C83.8268 36.0192 83.7568 36.1779 83.5981 36.3366ZM76.2901 36.5186C76.0848 36.5186 75.9121 36.4486 75.7721 36.3086C75.6321 36.1686 75.5621 35.9959 75.5621 35.7906V26.3126C75.5621 26.0979 75.6321 25.9252 75.7721 25.7946C75.9121 25.6546 76.0848 25.5846 76.2901 25.5846C76.5048 25.5846 76.6774 25.6546 76.8081 25.7946C76.9481 25.9252 77.0181 26.0979 77.0181 26.3126V30.3306H79.3141V31.6186H77.0181V35.7906C77.0181 35.9959 76.9481 36.1686 76.8081 36.3086C76.6774 36.4486 76.5048 36.5186 76.2901 36.5186ZM88.3004 36.5746C87.5444 36.5746 86.877 36.4112 86.2984 36.0846C85.7197 35.7486 85.2624 35.2912 84.9264 34.7126C84.5997 34.1246 84.4364 33.4526 84.4364 32.6966C84.4364 31.9312 84.5997 31.2592 84.9264 30.6806C85.2624 30.0926 85.7197 29.6352 86.2984 29.3086C86.877 28.9726 87.5444 28.8046 88.3004 28.8046C89.047 28.8046 89.7097 28.9726 90.2884 29.3086C90.867 29.6352 91.3197 30.0926 91.6464 30.6806C91.9824 31.2592 92.1504 31.9312 92.1504 32.6966C92.1504 33.4526 91.987 34.1246 91.6604 34.7126C91.3337 35.2912 90.881 35.7486 90.3024 36.0846C89.7237 36.4112 89.0564 36.5746 88.3004 36.5746ZM88.3004 35.3146C88.7857 35.3146 89.215 35.2026 89.5884 34.9786C89.9617 34.7546 90.251 34.4466 90.4564 34.0546C90.671 33.6626 90.7784 33.2099 90.7784 32.6966C90.7784 32.1832 90.671 31.7306 90.4564 31.3386C90.251 30.9372 89.9617 30.6246 89.5884 30.4006C89.215 30.1766 88.7857 30.0646 88.3004 30.0646C87.815 30.0646 87.3857 30.1766 87.0124 30.4006C86.639 30.6246 86.345 30.9372 86.1304 31.3386C85.9157 31.7306 85.8084 32.1832 85.8084 32.6966C85.8084 33.2099 85.9157 33.6626 86.1304 34.0546C86.345 34.4466 86.639 34.7546 87.0124 34.9786C87.3857 35.2026 87.815 35.3146 88.3004 35.3146ZM94.9896 39.7946C94.7843 39.7946 94.6116 39.7246 94.4716 39.5846C94.341 39.4539 94.2756 39.2859 94.2756 39.0806V32.6966C94.285 31.9592 94.4576 31.2966 94.7936 30.7086C95.1296 30.1206 95.587 29.6586 96.1656 29.3226C96.7443 28.9772 97.3976 28.8046 98.1256 28.8046C98.863 28.8046 99.521 28.9772 100.1 29.3226C100.678 29.6586 101.136 30.1206 101.472 30.7086C101.817 31.2966 101.99 31.9592 101.99 32.6966C101.99 33.4339 101.831 34.0966 101.514 34.6846C101.206 35.2632 100.781 35.7252 100.24 36.0706C99.6983 36.4066 99.087 36.5746 98.4056 36.5746C97.855 36.5746 97.3463 36.4626 96.8796 36.2386C96.4223 36.0052 96.0303 35.6926 95.7036 35.3006V39.0806C95.7036 39.2859 95.6383 39.4539 95.5076 39.5846C95.377 39.7246 95.2043 39.7946 94.9896 39.7946ZM98.1256 35.3146C98.6016 35.3146 99.0263 35.2026 99.3996 34.9786C99.773 34.7452 100.067 34.4326 100.282 34.0406C100.506 33.6392 100.618 33.1912 100.618 32.6966C100.618 32.1926 100.506 31.7446 100.282 31.3526C100.067 30.9512 99.773 30.6386 99.3996 30.4146C99.0263 30.1812 98.6016 30.0646 98.1256 30.0646C97.659 30.0646 97.2343 30.1812 96.8516 30.4146C96.4783 30.6386 96.1843 30.9512 95.9696 31.3526C95.755 31.7446 95.6476 32.1926 95.6476 32.6966C95.6476 33.1912 95.755 33.6392 95.9696 34.0406C96.1843 34.4326 96.4783 34.7452 96.8516 34.9786C97.2343 35.2026 97.659 35.3146 98.1256 35.3146ZM110.587 36.5326C110.382 36.5326 110.209 36.4672 110.069 36.3366C109.939 36.1966 109.873 36.0239 109.873 35.8186V32.3746C109.873 31.8426 109.775 31.4086 109.579 31.0726C109.383 30.7366 109.117 30.4892 108.781 30.3306C108.455 30.1626 108.077 30.0786 107.647 30.0786C107.255 30.0786 106.901 30.1579 106.583 30.3166C106.266 30.4752 106.014 30.6899 105.827 30.9606C105.641 31.2219 105.547 31.5252 105.547 31.8706H104.665C104.665 31.2826 104.805 30.7599 105.085 30.3026C105.375 29.8359 105.767 29.4672 106.261 29.1966C106.756 28.9259 107.311 28.7906 107.927 28.7906C108.571 28.7906 109.145 28.9306 109.649 29.2106C110.163 29.4812 110.564 29.8826 110.853 30.4146C111.152 30.9466 111.301 31.5999 111.301 32.3746V35.8186C111.301 36.0239 111.231 36.1966 111.091 36.3366C110.961 36.4672 110.793 36.5326 110.587 36.5326ZM104.833 36.5326C104.628 36.5326 104.455 36.4672 104.315 36.3366C104.185 36.1966 104.119 36.0239 104.119 35.8186V29.5746C104.119 29.3599 104.185 29.1872 104.315 29.0566C104.455 28.9259 104.628 28.8606 104.833 28.8606C105.048 28.8606 105.221 28.9259 105.351 29.0566C105.482 29.1872 105.547 29.3599 105.547 29.5746V35.8186C105.547 36.0239 105.482 36.1966 105.351 36.3366C105.221 36.4672 105.048 36.5326 104.833 36.5326ZM113.071 39.8786C112.903 39.8786 112.73 39.8552 112.553 39.8086C112.385 39.7619 112.217 39.6919 112.049 39.5986C111.843 39.4772 111.708 39.3279 111.643 39.1506C111.577 38.9732 111.605 38.8006 111.727 38.6326C111.839 38.4739 111.974 38.3759 112.133 38.3386C112.291 38.3012 112.459 38.3339 112.637 38.4366C112.739 38.4926 112.833 38.5346 112.917 38.5626C113.01 38.5906 113.103 38.6046 113.197 38.6046C113.495 38.6046 113.78 38.4506 114.051 38.1426C114.331 37.8346 114.606 37.3772 114.877 36.7706L118.223 29.2106C118.307 29.0239 118.433 28.8979 118.601 28.8326C118.778 28.7672 118.955 28.7766 119.133 28.8606C119.291 28.9259 119.394 29.0472 119.441 29.2246C119.487 29.3926 119.464 29.5746 119.371 29.7706L115.997 37.3306C115.661 38.0866 115.231 38.6979 114.709 39.1646C114.195 39.6406 113.649 39.8786 113.071 39.8786ZM116.263 36.2106C116.085 36.2852 115.917 36.2946 115.759 36.2386C115.609 36.1732 115.488 36.0519 115.395 35.8746L112.189 29.7846C112.095 29.6072 112.081 29.4392 112.147 29.2806C112.221 29.1126 112.347 28.9912 112.525 28.9166C112.702 28.8419 112.865 28.8372 113.015 28.9026C113.173 28.9586 113.299 29.0752 113.393 29.2526L116.473 35.2866C116.566 35.4639 116.599 35.6459 116.571 35.8326C116.543 36.0099 116.44 36.1359 116.263 36.2106ZM124.107 36.5746C123.36 36.5746 122.693 36.4066 122.105 36.0706C121.526 35.7252 121.069 35.2632 120.733 34.6846C120.406 34.0966 120.243 33.4339 120.243 32.6966C120.243 31.9406 120.406 31.2686 120.733 30.6806C121.06 30.0926 121.508 29.6352 122.077 29.3086C122.646 28.9726 123.3 28.8046 124.037 28.8046C124.588 28.8046 125.092 28.9119 125.549 29.1266C126.006 29.3319 126.417 29.6446 126.781 30.0646C126.912 30.2139 126.958 30.3679 126.921 30.5266C126.884 30.6852 126.781 30.8252 126.613 30.9466C126.482 31.0399 126.338 31.0726 126.179 31.0446C126.02 31.0072 125.876 30.9232 125.745 30.7926C125.288 30.3072 124.718 30.0646 124.037 30.0646C123.561 30.0646 123.141 30.1766 122.777 30.4006C122.413 30.6152 122.128 30.9186 121.923 31.3106C121.718 31.7026 121.615 32.1646 121.615 32.6966C121.615 33.2006 121.718 33.6486 121.923 34.0406C122.138 34.4326 122.432 34.7452 122.805 34.9786C123.178 35.2026 123.612 35.3146 124.107 35.3146C124.434 35.3146 124.718 35.2772 124.961 35.2026C125.213 35.1186 125.442 34.9926 125.647 34.8246C125.796 34.7032 125.95 34.6379 126.109 34.6286C126.268 34.6099 126.408 34.6519 126.529 34.7546C126.688 34.8852 126.776 35.0346 126.795 35.2026C126.814 35.3612 126.758 35.5059 126.627 35.6366C125.955 36.2619 125.115 36.5746 124.107 36.5746ZM133.999 36.5186C133.793 36.5186 133.621 36.4486 133.481 36.3086C133.35 36.1686 133.285 36.0006 133.285 35.8046V26.3126C133.285 26.1166 133.35 25.9486 133.481 25.8086C133.621 25.6686 133.793 25.5986 133.999 25.5986C134.213 25.5986 134.405 25.6872 134.573 25.8646L140.649 33.6906V26.3126C140.649 26.1166 140.719 25.9486 140.859 25.8086C140.999 25.6686 141.171 25.5986 141.377 25.5986C141.573 25.5986 141.741 25.6686 141.881 25.8086C142.03 25.9486 142.105 26.1166 142.105 26.3126V35.8046C142.105 36.0006 142.03 36.1686 141.881 36.3086C141.741 36.4486 141.573 36.5186 141.377 36.5186C141.162 36.5186 140.975 36.4346 140.817 36.2666L134.727 28.4406V35.8046C134.727 36.0006 134.657 36.1686 134.517 36.3086C134.377 36.4486 134.204 36.5186 133.999 36.5186ZM143.897 33.1726C143.691 33.1726 143.519 33.1026 143.379 32.9626C143.248 32.8226 143.183 32.6499 143.183 32.4446C143.183 32.2392 143.248 32.0712 143.379 31.9406C143.519 31.8006 143.691 31.7306 143.897 31.7306H148.111C148.325 31.7306 148.498 31.8006 148.629 31.9406C148.759 32.0712 148.825 32.2392 148.825 32.4446C148.825 32.6499 148.759 32.8226 148.629 32.9626C148.498 33.1026 148.325 33.1726 148.111 33.1726H143.897ZM146.011 31.2546C145.488 31.2546 145.012 31.1286 144.583 30.8766C144.153 30.6152 143.813 30.2699 143.561 29.8406C143.309 29.4112 143.183 28.9399 143.183 28.4266C143.183 27.9132 143.309 27.4419 143.561 27.0126C143.813 26.5832 144.153 26.2426 144.583 25.9906C145.012 25.7292 145.488 25.5986 146.011 25.5986C146.533 25.5986 147.005 25.7292 147.425 25.9906C147.854 26.2426 148.195 26.5832 148.447 27.0126C148.699 27.4419 148.825 27.9132 148.825 28.4266C148.825 28.9399 148.699 29.4112 148.447 29.8406C148.195 30.2699 147.854 30.6152 147.425 30.8766C147.005 31.1286 146.533 31.2546 146.011 31.2546ZM146.011 29.8126C146.263 29.8126 146.491 29.7519 146.697 29.6306C146.902 29.4999 147.065 29.3319 147.187 29.1266C147.317 28.9119 147.383 28.6786 147.383 28.4266C147.383 28.1746 147.317 27.9459 147.187 27.7406C147.065 27.5259 146.897 27.3579 146.683 27.2366C146.477 27.1059 146.253 27.0406 146.011 27.0406C145.759 27.0406 145.525 27.1012 145.311 27.2226C145.105 27.3439 144.937 27.5119 144.807 27.7266C144.685 27.9319 144.625 28.1652 144.625 28.4266C144.625 28.6786 144.685 28.9119 144.807 29.1266C144.928 29.3319 145.091 29.4999 145.297 29.6306C145.511 29.7519 145.749 29.8126 146.011 29.8126ZM152.622 36.5186C152.435 36.5186 152.272 36.4486 152.132 36.3086C151.992 36.1686 151.922 36.0006 151.922 35.8046V27.2646L150.9 27.6986C150.741 27.7639 150.592 27.7966 150.452 27.7966C150.247 27.7966 150.074 27.7312 149.934 27.6006C149.803 27.4699 149.738 27.3019 149.738 27.0966C149.738 26.9472 149.775 26.8119 149.85 26.6906C149.925 26.5692 150.041 26.4806 150.2 26.4246L152.384 25.6406C152.431 25.6219 152.477 25.6079 152.524 25.5986C152.571 25.5892 152.613 25.5846 152.65 25.5846C152.865 25.5846 153.033 25.6546 153.154 25.7946C153.285 25.9252 153.35 26.0979 153.35 26.3126V35.8046C153.35 36.0006 153.28 36.1686 153.14 36.3086C153 36.4486 152.827 36.5186 152.622 36.5186ZM158.79 36.5186C158.081 36.5186 157.474 36.3039 156.97 35.8746C156.475 35.4359 156.097 34.8106 155.836 33.9986C155.575 33.1772 155.444 32.1926 155.444 31.0446C155.444 29.8966 155.575 28.9166 155.836 28.1046C156.097 27.2832 156.475 26.6579 156.97 26.2286C157.474 25.7899 158.081 25.5706 158.79 25.5706C159.499 25.5706 160.101 25.7946 160.596 26.2426C161.1 26.6812 161.483 27.3112 161.744 28.1326C162.005 28.9446 162.136 29.9152 162.136 31.0446C162.136 32.1739 162.005 33.1492 161.744 33.9706C161.483 34.7826 161.1 35.4126 160.596 35.8606C160.101 36.2992 159.499 36.5186 158.79 36.5186ZM158.79 35.0626C159.219 35.0626 159.574 34.8899 159.854 34.5446C160.134 34.1899 160.344 33.7092 160.484 33.1026C160.624 32.4959 160.694 31.8099 160.694 31.0446C160.694 30.2792 160.624 29.5932 160.484 28.9866C160.344 28.3799 160.134 27.8992 159.854 27.5446C159.574 27.1899 159.219 27.0126 158.79 27.0126C158.361 27.0126 158.006 27.1899 157.726 27.5446C157.446 27.8899 157.236 28.3659 157.096 28.9726C156.956 29.5792 156.886 30.2699 156.886 31.0446C156.886 31.8192 156.956 32.5099 157.096 33.1166C157.236 33.7232 157.446 34.1992 157.726 34.5446C158.015 34.8899 158.37 35.0626 158.79 35.0626Z" fill="white"/>
</svg>
