<svg width="63" height="94" viewBox="0 0 63 94" fill="none" xmlns="http://www.w3.org/2000/svg">
<path d="M0 4.81073H62.4875V89.0963H0V4.81073Z" fill="#A73C4C"/>
<path d="M27.4099 18.1974C27.2979 18.0854 27.2459 17.9334 27.2539 17.7414C27.2539 17.5494 27.3179 17.3974 27.4459 17.2854L32.0299 13.3494L36.4219 17.0214C36.5579 17.1334 36.6259 17.2774 36.6259 17.4534C36.6339 17.6374 36.5739 17.7854 36.4459 17.8974C36.3179 18.0094 36.1819 18.0614 36.0379 18.0534C35.9019 18.0534 35.7699 17.9974 35.6419 17.8854L32.1139 14.8494L28.2259 18.1974C28.0979 18.3094 27.9619 18.3694 27.8179 18.3774C27.6819 18.3934 27.5459 18.3334 27.4099 18.1974ZM27.2539 11.9334C27.2539 11.7574 27.3139 11.6094 27.4339 11.4894C27.5539 11.3694 27.7019 11.3094 27.8779 11.3094L36.0019 11.3094C36.1859 11.3094 36.3339 11.3694 36.4459 11.4894C36.5659 11.6094 36.6259 11.7574 36.6259 11.9334C36.6259 12.1174 36.5659 12.2654 36.4459 12.3774C36.3339 12.4974 36.1859 12.5574 36.0019 12.5574L32.5579 12.5574L32.5579 14.5254L31.4539 14.5254L31.4539 12.5574L27.8779 12.5574C27.7019 12.5574 27.5539 12.4974 27.4339 12.3774C27.3139 12.2654 27.2539 12.1174 27.2539 11.9334ZM27.2059 22.2279C27.2059 21.5799 27.3459 21.0079 27.6259 20.5119C27.9139 20.0159 28.3059 19.6239 28.8019 19.3359C29.3059 19.0559 29.8819 18.9159 30.5299 18.9159C31.1859 18.9159 31.7619 19.0559 32.2579 19.3359C32.7619 19.6239 33.1539 20.0159 33.4339 20.5119C33.7219 21.0079 33.8659 21.5799 33.8659 22.2279C33.8659 22.8679 33.7219 23.4359 33.4339 23.9319C33.1539 24.4279 32.7619 24.8159 32.2579 25.0959C31.7619 25.3839 31.1859 25.5279 30.5299 25.5279C29.8819 25.5279 29.3059 25.3879 28.8019 25.1079C28.3059 24.8279 27.9139 24.4399 27.6259 23.9439C27.3459 23.4479 27.2059 22.8759 27.2059 22.2279ZM28.2859 22.2279C28.2859 22.6439 28.3819 23.0119 28.5739 23.3319C28.7659 23.6519 29.0299 23.8999 29.3659 24.0759C29.7019 24.2599 30.0899 24.3519 30.5299 24.3519C30.9699 24.3519 31.3579 24.2599 31.6939 24.0759C32.0379 23.8999 32.3059 23.6519 32.4979 23.3319C32.6899 23.0119 32.7859 22.6439 32.7859 22.2279C32.7859 21.8119 32.6899 21.4439 32.4979 21.1239C32.3059 20.8039 32.0379 20.5519 31.6939 20.3679C31.3579 20.1839 30.9699 20.0919 30.5299 20.0919C30.0899 20.0919 29.7019 20.1839 29.3659 20.3679C29.0299 20.5519 28.7659 20.8039 28.5739 21.1239C28.3819 21.4439 28.2859 21.8119 28.2859 22.2279ZM24.4459 27.9615C24.4459 27.7855 24.5059 27.6375 24.6259 27.5175C24.7379 27.4055 24.8819 27.3495 25.0579 27.3495L30.5299 27.3495C31.1619 27.3575 31.7299 27.5055 32.2339 27.7935C32.7379 28.0815 33.1339 28.4735 33.4219 28.9695C33.7179 29.4655 33.8659 30.0255 33.8659 30.6495C33.8659 31.2815 33.7179 31.8455 33.4219 32.3415C33.1339 32.8375 32.7379 33.2295 32.2339 33.5175C31.7299 33.8135 31.1619 33.9615 30.5299 33.9615C29.8979 33.9615 29.3299 33.8255 28.8259 33.5535C28.3299 33.2895 27.9339 32.9255 27.6379 32.4615C27.3499 31.9975 27.2059 31.4735 27.2059 30.8895C27.2059 30.4175 27.3019 29.9815 27.4939 29.5815C27.6939 29.1895 27.9619 28.8535 28.2979 28.5735L25.0579 28.5735C24.8819 28.5735 24.7379 28.5175 24.6259 28.4055C24.5059 28.2935 24.4459 28.1455 24.4459 27.9615ZM28.2859 30.6495C28.2859 31.0575 28.3819 31.4215 28.5739 31.7415C28.7739 32.0615 29.0419 32.3135 29.3779 32.4975C29.7219 32.6895 30.1059 32.7855 30.5299 32.7855C30.9619 32.7855 31.3459 32.6895 31.6819 32.4975C32.0259 32.3135 32.2939 32.0615 32.4859 31.7415C32.6859 31.4215 32.7859 31.0575 32.7859 30.6495C32.7859 30.2495 32.6859 29.8855 32.4859 29.5575C32.2939 29.2375 32.0259 28.9855 31.6819 28.8015C31.3459 28.6175 30.9619 28.5255 30.5299 28.5255C30.1059 28.5255 29.7219 28.6175 29.3779 28.8015C29.0419 28.9855 28.7739 29.2375 28.5739 29.5575C28.3819 29.8855 28.2859 30.2495 28.2859 30.6495ZM27.2419 41.331C27.2419 41.155 27.2979 41.007 27.4099 40.887C27.5299 40.775 27.6779 40.719 27.8539 40.719L30.8059 40.719C31.2619 40.719 31.6339 40.635 31.9219 40.467C32.2099 40.299 32.4219 40.071 32.5579 39.783C32.7019 39.503 32.7739 39.179 32.7739 38.811C32.7739 38.475 32.7059 38.171 32.5699 37.899C32.4339 37.627 32.2499 37.411 32.0179 37.251C31.7939 37.091 31.5339 37.011 31.2379 37.011L31.2379 36.255C31.7419 36.255 32.1899 36.375 32.5819 36.615C32.9819 36.863 33.2979 37.199 33.5299 37.623C33.7619 38.047 33.8779 38.523 33.8779 39.051C33.8779 39.603 33.7579 40.095 33.5179 40.527C33.2859 40.967 32.9419 41.311 32.4859 41.559C32.0299 41.815 31.4699 41.943 30.8059 41.943L27.8539 41.943C27.6779 41.943 27.5299 41.883 27.4099 41.763C27.2979 41.651 27.2419 41.507 27.2419 41.331ZM27.2419 36.399C27.2419 36.223 27.2979 36.075 27.4099 35.955C27.5299 35.843 27.6779 35.787 27.8539 35.787L33.2059 35.787C33.3899 35.787 33.5379 35.843 33.6499 35.955C33.7619 36.075 33.8179 36.223 33.8179 36.399C33.8179 36.583 33.7619 36.731 33.6499 36.843C33.5379 36.955 33.3899 37.011 33.2059 37.011L27.8539 37.011C27.6779 37.011 27.5299 36.955 27.4099 36.843C27.2979 36.731 27.2419 36.583 27.2419 36.399ZM24.3739 43.4594C24.3739 43.3154 24.3939 43.1674 24.4339 43.0154C24.4739 42.8714 24.5339 42.7274 24.6139 42.5834C24.7179 42.4074 24.8459 42.2914 24.9979 42.2354C25.1499 42.1794 25.2979 42.2034 25.4419 42.3074C25.5779 42.4034 25.6619 42.5194 25.6939 42.6554C25.7259 42.7914 25.6979 42.9354 25.6099 43.0874C25.5619 43.1754 25.5259 43.2554 25.5019 43.3274C25.4779 43.4074 25.4659 43.4874 25.4659 43.5674C25.4659 43.8234 25.5979 44.0674 25.8619 44.2994C26.1259 44.5394 26.5179 44.7754 27.0379 45.0074L33.5179 47.8754C33.6779 47.9474 33.7859 48.0554 33.8419 48.1994C33.8979 48.3514 33.8899 48.5034 33.8179 48.6554C33.7619 48.7914 33.6579 48.8794 33.5059 48.9194C33.3619 48.9594 33.2059 48.9394 33.0379 48.8594L26.5579 45.9674C25.9099 45.6794 25.3859 45.3114 24.9859 44.8634C24.5779 44.4234 24.3739 43.9554 24.3739 43.4594ZM27.5179 46.1954C27.4539 46.0434 27.4459 45.8994 27.4939 45.7634C27.5499 45.6354 27.6539 45.5314 27.8059 45.4514L33.0259 42.7034C33.1779 42.6234 33.3219 42.6114 33.4579 42.6674C33.6019 42.7314 33.7059 42.8394 33.7699 42.9914C33.8339 43.1434 33.8379 43.2834 33.7819 43.4114C33.7339 43.5474 33.6339 43.6554 33.4819 43.7354L28.3099 46.3754C28.1579 46.4554 28.0019 46.4834 27.8419 46.4594C27.6899 46.4354 27.5819 46.3474 27.5179 46.1954ZM27.2059 52.9193C27.2059 52.2793 27.3499 51.7073 27.6379 51.2033C27.9339 50.7073 28.3299 50.3153 28.8259 50.0273C29.3299 49.7473 29.8979 49.6073 30.5299 49.6073C31.1779 49.6073 31.7539 49.7473 32.2579 50.0273C32.7619 50.3073 33.1539 50.6913 33.4339 51.1793C33.7219 51.6673 33.8659 52.2273 33.8659 52.8593C33.8659 53.3313 33.7739 53.7633 33.5899 54.1553C33.4139 54.5473 33.1459 54.8993 32.7859 55.2113C32.6579 55.3233 32.5259 55.3633 32.3899 55.3313C32.2539 55.2993 32.1339 55.2113 32.0299 55.0673C31.9499 54.9553 31.9219 54.8313 31.9459 54.6953C31.9779 54.5593 32.0499 54.4353 32.1619 54.3233C32.5779 53.9313 32.7859 53.4433 32.7859 52.8593C32.7859 52.4513 32.6899 52.0913 32.4979 51.7793C32.3139 51.4673 32.0539 51.2233 31.7179 51.0473C31.3819 50.8713 30.9859 50.7833 30.5299 50.7833C30.0979 50.7833 29.7139 50.8713 29.3779 51.0473C29.0419 51.2313 28.7739 51.4833 28.5739 51.8033C28.3819 52.1233 28.2859 52.4953 28.2859 52.9193C28.2859 53.1993 28.3179 53.4433 28.3819 53.6513C28.4539 53.8673 28.5619 54.0633 28.7059 54.2393C28.8099 54.3673 28.8659 54.4993 28.8739 54.6353C28.8899 54.7713 28.8539 54.8913 28.7659 54.9953C28.6539 55.1313 28.5259 55.2073 28.3819 55.2233C28.2459 55.2393 28.1219 55.1913 28.0099 55.0793C27.4739 54.5033 27.2059 53.7833 27.2059 52.9193ZM27.2539 61.3979C27.2539 61.2219 27.3139 61.0739 27.4339 60.9539C27.5539 60.8419 27.6979 60.7859 27.8659 60.7859L36.0019 60.7859C36.1699 60.7859 36.3139 60.8419 36.4339 60.9539C36.5539 61.0739 36.6139 61.2219 36.6139 61.3979C36.6139 61.5819 36.5379 61.7459 36.3859 61.8899L29.6779 67.0979L36.0019 67.0979C36.1699 67.0979 36.3139 67.1579 36.4339 67.2779C36.5539 67.3979 36.6139 67.5459 36.6139 67.7219C36.6139 67.8899 36.5539 68.0339 36.4339 68.1539C36.3139 68.2819 36.1699 68.3459 36.0019 68.3459L27.8659 68.3459C27.6979 68.3459 27.5539 68.2819 27.4339 68.1539C27.3139 68.0339 27.2539 67.8899 27.2539 67.7219C27.2539 67.5379 27.3259 67.3779 27.4699 67.2419L34.1779 62.0219L27.8659 62.0219C27.6979 62.0219 27.5539 61.9619 27.4339 61.8419C27.3139 61.7219 27.2539 61.5739 27.2539 61.3979ZM30.1219 69.8819C30.1219 69.7059 30.1819 69.5579 30.3019 69.4379C30.4219 69.3259 30.5699 69.2699 30.7459 69.2699C30.9219 69.2699 31.0659 69.3259 31.1779 69.4379C31.2979 69.5579 31.3579 69.7059 31.3579 69.8819L31.3579 73.4939C31.3579 73.6779 31.2979 73.8259 31.1779 73.9379C31.0659 74.0499 30.9219 74.1059 30.7459 74.1059C30.5699 74.1059 30.4219 74.0499 30.3019 73.9379C30.1819 73.8259 30.1219 73.6779 30.1219 73.4939L30.1219 69.8819ZM31.7659 71.6939C31.7659 71.2459 31.8739 70.8379 32.0899 70.4699C32.3139 70.1019 32.6099 69.8099 32.9779 69.5939C33.3459 69.3779 33.7499 69.2699 34.1899 69.2699C34.6299 69.2699 35.0339 69.3779 35.4019 69.5939C35.7699 69.8099 36.0619 70.1019 36.2779 70.4699C36.5019 70.8379 36.6139 71.2459 36.6139 71.6939C36.6139 72.1419 36.5019 72.5459 36.2779 72.9059C36.0619 73.2739 35.7699 73.5659 35.4019 73.7819C35.0339 73.9979 34.6299 74.1059 34.1899 74.1059C33.7499 74.1059 33.3459 73.9979 32.9779 73.7819C32.6099 73.5659 32.3139 73.2739 32.0899 72.9059C31.8739 72.5459 31.7659 72.1419 31.7659 71.6939ZM33.0019 71.6939C33.0019 71.9099 33.0539 72.1059 33.1579 72.2819C33.2699 72.4579 33.4139 72.5979 33.5899 72.7019C33.7739 72.8139 33.9739 72.8699 34.1899 72.8699C34.4059 72.8699 34.6019 72.8139 34.7779 72.7019C34.9619 72.5979 35.1059 72.4539 35.2099 72.2699C35.3219 72.0939 35.3779 71.9019 35.3779 71.6939C35.3779 71.4779 35.3259 71.2779 35.2219 71.0939C35.1179 70.9179 34.9739 70.7739 34.7899 70.6619C34.6139 70.5579 34.4139 70.5059 34.1899 70.5059C33.9739 70.5059 33.7739 70.5579 33.5899 70.6619C33.4139 70.7659 33.2699 70.9059 33.1579 71.0819C33.0539 71.2659 33.0019 71.4699 33.0019 71.6939ZM27.2539 77.3607C27.2539 77.2007 27.3139 77.0607 27.4339 76.9407C27.5539 76.8207 27.6979 76.7607 27.8659 76.7607L35.1859 76.7608L34.8139 75.8847C34.7579 75.7487 34.7299 75.6207 34.7299 75.5007C34.7299 75.3247 34.7859 75.1767 34.8979 75.0567C35.0099 74.9447 35.1539 74.8887 35.3299 74.8887C35.4579 74.8887 35.5739 74.9207 35.6779 74.9847C35.7819 75.0487 35.8579 75.1487 35.9059 75.2847L36.5779 77.1568C36.5939 77.1968 36.6059 77.2368 36.6139 77.2768C36.6219 77.3168 36.6259 77.3528 36.6259 77.3848C36.6259 77.5688 36.5659 77.7128 36.4459 77.8168C36.3339 77.9288 36.1859 77.9848 36.0019 77.9848L27.8659 77.9847C27.6979 77.9847 27.5539 77.9247 27.4339 77.8047C27.3139 77.6847 27.2539 77.5367 27.2539 77.3607ZM27.2539 82.0717C27.2539 81.9117 27.3139 81.7717 27.4339 81.6517C27.5539 81.5317 27.6979 81.4717 27.8659 81.4717L35.1859 81.4717L34.8139 80.5957C34.7579 80.4597 34.7299 80.3317 34.7299 80.2117C34.7299 80.0357 34.7859 79.8877 34.8979 79.7677C35.0099 79.6557 35.1539 79.5997 35.3299 79.5997C35.4579 79.5997 35.5739 79.6317 35.6779 79.6957C35.7819 79.7597 35.8579 79.8597 35.9059 79.9957L36.5779 81.8677C36.5939 81.9077 36.6059 81.9477 36.6139 81.9877C36.6219 82.0277 36.6259 82.0637 36.6259 82.0957C36.6259 82.2797 36.5659 82.4237 36.4459 82.5277C36.3339 82.6397 36.1859 82.6957 36.0019 82.6957L27.8659 82.6957C27.6979 82.6957 27.5539 82.6357 27.4339 82.5157C27.3139 82.3957 27.2539 82.2477 27.2539 82.0717Z" fill="white"/>
</svg>
