<svg width="307" height="60" viewBox="0 0 307 60" fill="none" xmlns="http://www.w3.org/2000/svg">
<path d="M6.17367 41.7753V8.28617L1.28486e-05 8.21809L0 0H34.2981V2.73936H49.3893V8.90293H79.5716V2.73936H95.3487L95.3487 0H122.787V2.73936H202.359V0H249.69V2.73936H272.327L272.327 8.5252H306.625V28.9295L272.327 29.0704L272.327 47.9389H122.787V59.5811H95.3487V47.9389H79.5716V41.7753H6.17367Z" fill="#A73C4C"/>
<path d="M85.7638 32.363C85.5771 32.5497 85.3238 32.6364 85.0038 32.623C84.6838 32.623 84.4305 32.5164 84.2438 32.303L77.6838 24.663L83.8038 17.343C83.9905 17.1164 84.2305 17.003 84.5238 17.003C84.8305 16.9897 85.0771 17.0897 85.2638 17.303C85.4505 17.5164 85.5371 17.743 85.5238 17.983C85.5238 18.2097 85.4305 18.4297 85.2438 18.643L80.1838 24.523L85.7638 31.003C85.9505 31.2164 86.0505 31.443 86.0638 31.683C86.0905 31.9097 85.9905 32.1364 85.7638 32.363ZM75.3238 32.623C75.0305 32.623 74.7838 32.523 74.5838 32.323C74.3838 32.123 74.2838 31.8764 74.2838 31.583V18.043C74.2838 17.7364 74.3838 17.4897 74.5838 17.303C74.7838 17.103 75.0305 17.003 75.3238 17.003C75.6305 17.003 75.8771 17.103 76.0638 17.303C76.2638 17.4897 76.3638 17.7364 76.3638 18.043V23.783L79.6438 23.783V25.623L76.3638 25.623V31.583C76.3638 31.8764 76.2638 32.123 76.0638 32.323C75.8771 32.523 75.6305 32.623 75.3238 32.623ZM92.4813 32.703C91.4013 32.703 90.448 32.4697 89.6213 32.003C88.7946 31.523 88.1413 30.8697 87.6613 30.043C87.1946 29.203 86.9613 28.243 86.9613 27.163C86.9613 26.0697 87.1946 25.1097 87.6613 24.283C88.1413 23.443 88.7946 22.7897 89.6213 22.323C90.448 21.843 91.4013 21.603 92.4813 21.603C93.548 21.603 94.4946 21.843 95.3213 22.323C96.148 22.7897 96.7946 23.443 97.2613 24.283C97.7413 25.1097 97.9813 26.0697 97.9813 27.163C97.9813 28.243 97.748 29.203 97.2813 30.043C96.8146 30.8697 96.168 31.523 95.3413 32.003C94.5146 32.4697 93.5613 32.703 92.4813 32.703ZM92.4813 30.903C93.1746 30.903 93.788 30.743 94.3213 30.423C94.8546 30.103 95.268 29.663 95.5613 29.103C95.868 28.543 96.0213 27.8964 96.0213 27.163C96.0213 26.4297 95.868 25.783 95.5613 25.223C95.268 24.6497 94.8546 24.203 94.3213 23.883C93.788 23.563 93.1746 23.403 92.4813 23.403C91.788 23.403 91.1746 23.563 90.6413 23.883C90.108 24.203 89.688 24.6497 89.3813 25.223C89.0746 25.783 88.9213 26.4297 88.9213 27.163C88.9213 27.8964 89.0746 28.543 89.3813 29.103C89.688 29.663 90.108 30.103 90.6413 30.423C91.1746 30.743 91.788 30.903 92.4813 30.903ZM102.037 37.303C101.744 37.303 101.497 37.203 101.297 37.003C101.111 36.8164 101.017 36.5764 101.017 36.283V27.163C101.031 26.1097 101.277 25.163 101.757 24.323C102.237 23.483 102.891 22.823 103.717 22.343C104.544 21.8497 105.477 21.603 106.517 21.603C107.571 21.603 108.511 21.8497 109.337 22.343C110.164 22.823 110.817 23.483 111.297 24.323C111.791 25.163 112.037 26.1097 112.037 27.163C112.037 28.2164 111.811 29.163 111.357 30.003C110.917 30.8297 110.311 31.4897 109.537 31.983C108.764 32.463 107.891 32.703 106.917 32.703C106.131 32.703 105.404 32.543 104.737 32.223C104.084 31.8897 103.524 31.443 103.057 30.883V36.283C103.057 36.5764 102.964 36.8164 102.777 37.003C102.591 37.203 102.344 37.303 102.037 37.303ZM106.517 30.903C107.197 30.903 107.804 30.743 108.337 30.423C108.871 30.0897 109.291 29.643 109.597 29.083C109.917 28.5097 110.077 27.8697 110.077 27.163C110.077 26.443 109.917 25.803 109.597 25.243C109.291 24.6697 108.871 24.223 108.337 23.903C107.804 23.5697 107.197 23.403 106.517 23.403C105.851 23.403 105.244 23.5697 104.697 23.903C104.164 24.223 103.744 24.6697 103.437 25.243C103.131 25.803 102.977 26.443 102.977 27.163C102.977 27.8697 103.131 28.5097 103.437 29.083C103.744 29.643 104.164 30.0897 104.697 30.423C105.244 30.743 105.851 30.903 106.517 30.903ZM124.32 32.643C124.027 32.643 123.78 32.5497 123.58 32.363C123.393 32.163 123.3 31.9164 123.3 31.623V26.703C123.3 25.943 123.16 25.323 122.88 24.843C122.6 24.363 122.22 24.0097 121.74 23.783C121.273 23.543 120.733 23.423 120.12 23.423C119.56 23.423 119.053 23.5364 118.6 23.763C118.147 23.9897 117.787 24.2964 117.52 24.683C117.253 25.0564 117.12 25.4897 117.12 25.983H115.86C115.86 25.143 116.06 24.3964 116.46 23.743C116.873 23.0764 117.433 22.5497 118.14 22.163C118.847 21.7764 119.64 21.583 120.52 21.583C121.44 21.583 122.26 21.783 122.98 22.183C123.713 22.5697 124.287 23.143 124.7 23.903C125.127 24.663 125.34 25.5964 125.34 26.703V31.623C125.34 31.9164 125.24 32.163 125.04 32.363C124.853 32.5497 124.613 32.643 124.32 32.643ZM116.1 32.643C115.807 32.643 115.56 32.5497 115.36 32.363C115.173 32.163 115.08 31.9164 115.08 31.623V22.703C115.08 22.3964 115.173 22.1497 115.36 21.963C115.56 21.7764 115.807 21.683 116.1 21.683C116.407 21.683 116.653 21.7764 116.84 21.963C117.027 22.1497 117.12 22.3964 117.12 22.703V31.623C117.12 31.9164 117.027 32.163 116.84 32.363C116.653 32.5497 116.407 32.643 116.1 32.643ZM127.867 37.423C127.627 37.423 127.381 37.3897 127.127 37.323C126.887 37.2564 126.647 37.1564 126.407 37.023C126.114 36.8497 125.921 36.6364 125.827 36.383C125.734 36.1297 125.774 35.883 125.947 35.643C126.107 35.4164 126.301 35.2764 126.527 35.223C126.754 35.1697 126.994 35.2164 127.247 35.363C127.394 35.443 127.527 35.503 127.647 35.543C127.781 35.583 127.914 35.603 128.047 35.603C128.474 35.603 128.881 35.383 129.267 34.943C129.667 34.503 130.061 33.8497 130.447 32.983L135.227 22.183C135.347 21.9164 135.527 21.7364 135.767 21.643C136.021 21.5497 136.274 21.563 136.527 21.683C136.754 21.7764 136.901 21.9497 136.967 22.203C137.034 22.443 137.001 22.703 136.867 22.983L132.047 33.783C131.567 34.863 130.954 35.7364 130.207 36.403C129.474 37.083 128.694 37.423 127.867 37.423ZM132.427 32.183C132.174 32.2897 131.934 32.303 131.707 32.223C131.494 32.1297 131.321 31.9564 131.187 31.703L126.607 23.003C126.474 22.7497 126.454 22.5097 126.547 22.283C126.654 22.043 126.834 21.8697 127.087 21.763C127.341 21.6564 127.574 21.6497 127.787 21.743C128.014 21.823 128.194 21.9897 128.327 22.243L132.727 30.863C132.861 31.1164 132.907 31.3764 132.867 31.643C132.827 31.8964 132.681 32.0764 132.427 32.183ZM143.634 32.703C142.567 32.703 141.614 32.463 140.774 31.983C139.947 31.4897 139.294 30.8297 138.814 30.003C138.347 29.163 138.114 28.2164 138.114 27.163C138.114 26.083 138.347 25.123 138.814 24.283C139.28 23.443 139.92 22.7897 140.734 22.323C141.547 21.843 142.48 21.603 143.534 21.603C144.32 21.603 145.04 21.7564 145.694 22.063C146.347 22.3564 146.934 22.803 147.454 23.403C147.64 23.6164 147.707 23.8364 147.654 24.063C147.6 24.2897 147.454 24.4897 147.214 24.663C147.027 24.7964 146.82 24.843 146.594 24.803C146.367 24.7497 146.16 24.6297 145.974 24.443C145.32 23.7497 144.507 23.403 143.534 23.403C142.854 23.403 142.254 23.563 141.734 23.883C141.214 24.1897 140.807 24.623 140.514 25.183C140.22 25.743 140.074 26.403 140.074 27.163C140.074 27.883 140.22 28.523 140.514 29.083C140.82 29.643 141.24 30.0897 141.774 30.423C142.307 30.743 142.927 30.903 143.634 30.903C144.1 30.903 144.507 30.8497 144.854 30.743C145.214 30.623 145.54 30.443 145.834 30.203C146.047 30.0297 146.267 29.9364 146.494 29.923C146.72 29.8964 146.92 29.9564 147.094 30.103C147.32 30.2897 147.447 30.503 147.474 30.743C147.5 30.9697 147.42 31.1764 147.234 31.363C146.274 32.2564 145.074 32.703 143.634 32.703ZM157.765 32.623C157.471 32.623 157.225 32.523 157.025 32.323C156.838 32.123 156.745 31.883 156.745 31.603V18.043C156.745 17.763 156.838 17.523 157.025 17.323C157.225 17.123 157.471 17.023 157.765 17.023C158.071 17.023 158.345 17.1497 158.585 17.403L167.265 28.583V18.043C167.265 17.763 167.365 17.523 167.565 17.323C167.765 17.123 168.011 17.023 168.305 17.023C168.585 17.023 168.825 17.123 169.025 17.323C169.238 17.523 169.345 17.763 169.345 18.043V31.603C169.345 31.883 169.238 32.123 169.025 32.323C168.825 32.523 168.585 32.623 168.305 32.623C167.998 32.623 167.731 32.503 167.505 32.263L158.805 21.083V31.603C158.805 31.883 158.705 32.123 158.505 32.323C158.305 32.523 158.058 32.623 157.765 32.623ZM171.905 27.843C171.611 27.843 171.365 27.743 171.165 27.543C170.978 27.343 170.885 27.0964 170.885 26.803C170.885 26.5097 170.978 26.2697 171.165 26.083C171.365 25.883 171.611 25.783 171.905 25.783H177.925C178.231 25.783 178.478 25.883 178.665 26.083C178.851 26.2697 178.945 26.5097 178.945 26.803C178.945 27.0964 178.851 27.343 178.665 27.543C178.478 27.743 178.231 27.843 177.925 27.843H171.905ZM174.925 25.103C174.178 25.103 173.498 24.923 172.885 24.563C172.271 24.1897 171.785 23.6964 171.425 23.083C171.065 22.4697 170.885 21.7964 170.885 21.063C170.885 20.3297 171.065 19.6564 171.425 19.043C171.785 18.4297 172.271 17.943 172.885 17.583C173.498 17.2097 174.178 17.023 174.925 17.023C175.671 17.023 176.345 17.2097 176.945 17.583C177.558 17.943 178.045 18.4297 178.405 19.043C178.765 19.6564 178.945 20.3297 178.945 21.063C178.945 21.7964 178.765 22.4697 178.405 23.083C178.045 23.6964 177.558 24.1897 176.945 24.563C176.345 24.923 175.671 25.103 174.925 25.103ZM174.925 23.043C175.285 23.043 175.611 22.9564 175.905 22.783C176.198 22.5964 176.431 22.3564 176.605 22.063C176.791 21.7564 176.885 21.423 176.885 21.063C176.885 20.703 176.791 20.3764 176.605 20.083C176.431 19.7764 176.191 19.5364 175.885 19.363C175.591 19.1764 175.271 19.083 174.925 19.083C174.565 19.083 174.231 19.1697 173.925 19.343C173.631 19.5164 173.391 19.7564 173.205 20.063C173.031 20.3564 172.945 20.6897 172.945 21.063C172.945 21.423 173.031 21.7564 173.205 22.063C173.378 22.3564 173.611 22.5964 173.905 22.783C174.211 22.9564 174.551 23.043 174.925 23.043ZM184.369 32.623C184.103 32.623 183.869 32.523 183.669 32.323C183.469 32.123 183.369 31.883 183.369 31.603V19.403L181.909 20.023C181.683 20.1164 181.469 20.163 181.269 20.163C180.976 20.163 180.729 20.0697 180.529 19.883C180.343 19.6964 180.249 19.4564 180.249 19.163C180.249 18.9497 180.303 18.7564 180.409 18.583C180.516 18.4097 180.683 18.283 180.909 18.203L184.029 17.083C184.096 17.0564 184.163 17.0364 184.229 17.023C184.296 17.0097 184.356 17.003 184.409 17.003C184.716 17.003 184.956 17.103 185.129 17.303C185.316 17.4897 185.409 17.7364 185.409 18.043V31.603C185.409 31.883 185.309 32.123 185.109 32.323C184.909 32.523 184.663 32.623 184.369 32.623ZM189.721 32.623C189.428 32.623 189.181 32.523 188.981 32.323C188.794 32.123 188.701 31.883 188.701 31.603C188.701 31.3097 188.794 31.0697 188.981 30.883L194.661 24.243C195.061 23.7764 195.368 23.3364 195.581 22.923C195.808 22.5097 195.921 22.1164 195.921 21.743C195.921 21.1564 195.821 20.6497 195.621 20.223C195.421 19.7964 195.134 19.4697 194.761 19.243C194.388 19.003 193.941 18.883 193.421 18.883C192.914 18.883 192.454 19.0164 192.041 19.283C191.641 19.5364 191.321 19.883 191.081 20.323C190.854 20.7497 190.741 21.223 190.741 21.743C190.741 22.0097 190.641 22.243 190.441 22.443C190.254 22.643 190.014 22.743 189.721 22.743C189.441 22.743 189.201 22.643 189.001 22.443C188.801 22.243 188.701 22.0097 188.701 21.743C188.701 20.8364 188.908 20.0297 189.321 19.323C189.734 18.603 190.294 18.0364 191.001 17.623C191.721 17.2097 192.528 17.003 193.421 17.003C194.328 17.003 195.114 17.1964 195.781 17.583C196.448 17.9697 196.961 18.5164 197.321 19.223C197.694 19.9297 197.881 20.7697 197.881 21.743C197.881 22.1697 197.788 22.603 197.601 23.043C197.428 23.483 197.201 23.903 196.921 24.303C196.654 24.703 196.381 25.063 196.101 25.383L191.521 30.583H197.121C197.414 30.583 197.661 30.6897 197.861 30.903C198.061 31.103 198.161 31.3364 198.161 31.603C198.161 31.883 198.061 32.123 197.861 32.323C197.661 32.523 197.414 32.623 197.121 32.623H189.721Z" fill="white"/>
</svg>
