<svg width="118" height="207" viewBox="0 0 118 207" fill="none" xmlns="http://www.w3.org/2000/svg">
<path d="M0 34.5912V0H117.709V34.5912H93.335V89.4599H115.331V122.858H93.335V175.341H115.926V206.354H5.94489V175.341H56.4766V122.858H49.9372V89.4599H56.4766V34.5912H0Z" fill="#A73C4C"/>
<path d="M68.5625 56.7263C68.3758 56.5396 68.2892 56.2863 68.3025 55.9663C68.3025 55.6463 68.4092 55.3929 68.6225 55.2063L76.2625 48.6463L83.5825 54.7663C83.8092 54.9529 83.9225 55.1929 83.9225 55.4863C83.9358 55.7929 83.8358 56.0396 83.6225 56.2263C83.4092 56.4129 83.1825 56.4996 82.9425 56.4863C82.7158 56.4863 82.4958 56.3929 82.2825 56.2063L76.4025 51.1463L69.9225 56.7263C69.7092 56.9129 69.4825 57.0129 69.2425 57.0263C69.0158 57.0529 68.7892 56.9529 68.5625 56.7263ZM68.3025 46.2863C68.3025 45.9929 68.4025 45.7463 68.6025 45.5463C68.8025 45.3463 69.0492 45.2463 69.3425 45.2463L82.8825 45.2463C83.1892 45.2463 83.4358 45.3463 83.6225 45.5463C83.8225 45.7463 83.9225 45.9929 83.9225 46.2863C83.9225 46.5929 83.8225 46.8396 83.6225 47.0263C83.4358 47.2263 83.1892 47.3263 82.8825 47.3263L77.1425 47.3263L77.1425 50.6063L75.3025 50.6063L75.3025 47.3263L69.3425 47.3263C69.0492 47.3263 68.8025 47.2263 68.6025 47.0263C68.4025 46.8396 68.3025 46.5929 68.3025 46.2863ZM68.2225 63.4438C68.2225 62.3638 68.4558 61.4104 68.9225 60.5838C69.4025 59.7571 70.0558 59.1038 70.8825 58.6238C71.7225 58.1571 72.6825 57.9238 73.7625 57.9238C74.8558 57.9238 75.8158 58.1571 76.6425 58.6238C77.4825 59.1038 78.1358 59.7571 78.6025 60.5838C79.0825 61.4104 79.3225 62.3638 79.3225 63.4438C79.3225 64.5104 79.0825 65.4571 78.6025 66.2838C78.1358 67.1104 77.4825 67.7571 76.6425 68.2238C75.8158 68.7038 74.8558 68.9438 73.7625 68.9438C72.6825 68.9438 71.7225 68.7104 70.8825 68.2438C70.0558 67.7771 69.4025 67.1304 68.9225 66.3038C68.4558 65.4771 68.2225 64.5238 68.2225 63.4438ZM70.0225 63.4438C70.0225 64.1371 70.1825 64.7504 70.5025 65.2838C70.8225 65.8171 71.2625 66.2304 71.8225 66.5238C72.3825 66.8304 73.0292 66.9838 73.7625 66.9838C74.4958 66.9838 75.1425 66.8304 75.7025 66.5238C76.2758 66.2304 76.7225 65.8171 77.0425 65.2838C77.3625 64.7504 77.5225 64.1371 77.5225 63.4438C77.5225 62.7504 77.3625 62.1371 77.0425 61.6038C76.7225 61.0704 76.2758 60.6504 75.7025 60.3438C75.1425 60.0371 74.4958 59.8838 73.7625 59.8838C73.0292 59.8838 72.3825 60.0371 71.8225 60.3438C71.2625 60.6504 70.8225 61.0704 70.5025 61.6038C70.1825 62.1371 70.0225 62.7504 70.0225 63.4438ZM63.6225 72.9999C63.6225 72.7065 63.7225 72.4599 63.9225 72.2599C64.1092 72.0732 64.3492 71.9799 64.6425 71.9799L73.7625 71.9799C74.8158 71.9932 75.7625 72.2399 76.6025 72.7199C77.4425 73.1999 78.1025 73.8532 78.5825 74.6799C79.0758 75.5065 79.3225 76.4399 79.3225 77.4799C79.3225 78.5332 79.0758 79.4732 78.5825 80.2999C78.1025 81.1265 77.4425 81.7799 76.6025 82.2599C75.7625 82.7532 74.8158 82.9999 73.7625 82.9999C72.7092 82.9999 71.7625 82.7732 70.9225 82.3199C70.0958 81.8799 69.4358 81.2732 68.9425 80.4999C68.4625 79.7265 68.2225 78.8532 68.2225 77.8799C68.2225 77.0932 68.3825 76.3665 68.7025 75.6999C69.0358 75.0465 69.4825 74.4865 70.0425 74.0199L64.6425 74.0199C64.3492 74.0199 64.1092 73.9265 63.9225 73.7399C63.7225 73.5532 63.6225 73.3065 63.6225 72.9999ZM70.0225 77.4799C70.0225 78.1599 70.1825 78.7665 70.5025 79.2999C70.8358 79.8332 71.2825 80.2532 71.8425 80.5599C72.4158 80.8799 73.0558 81.0399 73.7625 81.0399C74.4825 81.0399 75.1225 80.8799 75.6825 80.5599C76.2558 80.2532 76.7025 79.8332 77.0225 79.2999C77.3558 78.7665 77.5225 78.1599 77.5225 77.4799C77.5225 76.8132 77.3558 76.2065 77.0225 75.6599C76.7025 75.1265 76.2558 74.7065 75.6825 74.3999C75.1225 74.0932 74.4825 73.9399 73.7625 73.9399C73.0558 73.9399 72.4158 74.0932 71.8425 74.3999C71.2825 74.7065 70.8358 75.1265 70.5025 75.6599C70.1825 76.2065 70.0225 76.8132 70.0225 77.4799ZM68.2825 95.2824C68.2825 94.989 68.3758 94.7424 68.5625 94.5424C68.7625 94.3557 69.0092 94.2624 69.3025 94.2624L74.2225 94.2624C74.9825 94.2624 75.6025 94.1224 76.0825 93.8424C76.5625 93.5624 76.9158 93.1824 77.1425 92.7024C77.3825 92.2357 77.5025 91.6957 77.5025 91.0824C77.5025 90.5224 77.3892 90.0157 77.1625 89.5624C76.9358 89.109 76.6292 88.749 76.2425 88.4824C75.8692 88.2157 75.4358 88.0824 74.9425 88.0824L74.9425 86.8224C75.7825 86.8224 76.5292 87.0224 77.1825 87.4224C77.8492 87.8357 78.3758 88.3957 78.7625 89.1024C79.1492 89.809 79.3425 90.6024 79.3425 91.4824C79.3425 92.4024 79.1425 93.2224 78.7425 93.9424C78.3558 94.6757 77.7825 95.249 77.0225 95.6624C76.2625 96.089 75.3292 96.3024 74.2225 96.3024L69.3025 96.3024C69.0092 96.3024 68.7625 96.2024 68.5625 96.0024C68.3758 95.8157 68.2825 95.5757 68.2825 95.2824ZM68.2825 87.0624C68.2825 86.769 68.3758 86.5224 68.5625 86.3224C68.7625 86.1357 69.0092 86.0424 69.3025 86.0424L78.2225 86.0424C78.5292 86.0424 78.7758 86.1357 78.9625 86.3224C79.1492 86.5224 79.2425 86.769 79.2425 87.0624C79.2425 87.369 79.1492 87.6157 78.9625 87.8024C78.7758 87.989 78.5292 88.0824 78.2225 88.0824L69.3025 88.0824C69.0092 88.0824 68.7625 87.989 68.5625 87.8024C68.3758 87.6157 68.2825 87.369 68.2825 87.0624ZM63.5025 98.8297C63.5025 98.5897 63.5358 98.343 63.6025 98.0897C63.6692 97.8497 63.7692 97.6097 63.9025 97.3697C64.0758 97.0764 64.2892 96.883 64.5425 96.7897C64.7958 96.6964 65.0425 96.7364 65.2825 96.9097C65.5092 97.0697 65.6492 97.263 65.7025 97.4897C65.7558 97.7164 65.7092 97.9564 65.5625 98.2097C65.4825 98.3564 65.4225 98.4897 65.3825 98.6097C65.3425 98.743 65.3225 98.8764 65.3225 99.0097C65.3225 99.4364 65.5425 99.843 65.9825 100.23C66.4225 100.63 67.0758 101.023 67.9425 101.41L78.7425 106.19C79.0092 106.31 79.1892 106.49 79.2825 106.73C79.3758 106.983 79.3625 107.236 79.2425 107.49C79.1492 107.716 78.9758 107.863 78.7225 107.93C78.4825 107.996 78.2225 107.963 77.9425 107.83L67.1425 103.01C66.0625 102.53 65.1892 101.916 64.5225 101.17C63.8425 100.436 63.5025 99.6564 63.5025 98.8297ZM68.7425 103.39C68.6358 103.136 68.6225 102.896 68.7025 102.67C68.7958 102.456 68.9692 102.283 69.2225 102.15L77.9225 97.5697C78.1758 97.4364 78.4158 97.4164 78.6425 97.5097C78.8825 97.6164 79.0558 97.7964 79.1625 98.0497C79.2692 98.303 79.2758 98.5364 79.1825 98.7497C79.1025 98.9764 78.9358 99.1564 78.6825 99.2897L70.0625 103.69C69.8092 103.823 69.5492 103.87 69.2825 103.83C69.0292 103.79 68.8492 103.643 68.7425 103.39ZM68.2225 114.596C68.2225 113.529 68.4625 112.576 68.9425 111.736C69.4358 110.909 70.0958 110.256 70.9225 109.776C71.7625 109.309 72.7092 109.076 73.7625 109.076C74.8425 109.076 75.8025 109.309 76.6425 109.776C77.4825 110.243 78.1358 110.883 78.6025 111.696C79.0825 112.509 79.3225 113.443 79.3225 114.496C79.3225 115.283 79.1692 116.003 78.8625 116.656C78.5692 117.309 78.1225 117.896 77.5225 118.416C77.3092 118.603 77.0892 118.669 76.8625 118.616C76.6358 118.563 76.4358 118.416 76.2625 118.176C76.1292 117.989 76.0825 117.783 76.1225 117.556C76.1758 117.329 76.2958 117.123 76.4825 116.936C77.1758 116.283 77.5225 115.469 77.5225 114.496C77.5225 113.816 77.3625 113.216 77.0425 112.696C76.7358 112.176 76.3025 111.769 75.7425 111.476C75.1825 111.183 74.5225 111.036 73.7625 111.036C73.0425 111.036 72.4025 111.183 71.8425 111.476C71.2825 111.783 70.8358 112.203 70.5025 112.736C70.1825 113.269 70.0225 113.889 70.0225 114.596C70.0225 115.063 70.0758 115.469 70.1825 115.816C70.3025 116.176 70.4825 116.503 70.7225 116.796C70.8958 117.009 70.9892 117.229 71.0025 117.456C71.0292 117.683 70.9692 117.883 70.8225 118.056C70.6358 118.283 70.4225 118.409 70.1825 118.436C69.9558 118.463 69.7492 118.383 69.5625 118.196C68.6692 117.236 68.2225 116.036 68.2225 114.596ZM68.3025 128.727C68.3025 128.434 68.4025 128.187 68.6025 127.987C68.8025 127.801 69.0425 127.707 69.3225 127.707L82.8825 127.707C83.1625 127.707 83.4025 127.801 83.6025 127.987C83.8025 128.187 83.9025 128.434 83.9025 128.727C83.9025 129.034 83.7758 129.307 83.5225 129.547L72.3425 138.227L82.8825 138.227C83.1625 138.227 83.4025 138.327 83.6025 138.527C83.8025 138.727 83.9025 138.974 83.9025 139.267C83.9025 139.547 83.8025 139.787 83.6025 139.987C83.4025 140.201 83.1625 140.307 82.8825 140.307L69.3225 140.307C69.0425 140.307 68.8025 140.201 68.6025 139.987C68.4025 139.787 68.3025 139.547 68.3025 139.267C68.3025 138.961 68.4225 138.694 68.6625 138.467L79.8425 129.767L69.3225 129.767C69.0425 129.767 68.8025 129.667 68.6025 129.467C68.4025 129.267 68.3025 129.021 68.3025 128.727ZM73.0825 142.867C73.0825 142.574 73.1825 142.327 73.3825 142.127C73.5825 141.941 73.8292 141.847 74.1225 141.847C74.4158 141.847 74.6558 141.941 74.8425 142.127C75.0425 142.327 75.1425 142.574 75.1425 142.867L75.1425 148.887C75.1425 149.194 75.0425 149.441 74.8425 149.627C74.6558 149.814 74.4158 149.907 74.1225 149.907C73.8292 149.907 73.5825 149.814 73.3825 149.627C73.1825 149.441 73.0825 149.194 73.0825 148.887L73.0825 142.867ZM75.8225 145.887C75.8225 145.141 76.0025 144.461 76.3625 143.847C76.7358 143.234 77.2292 142.747 77.8425 142.387C78.4558 142.027 79.1292 141.847 79.8625 141.847C80.5958 141.847 81.2692 142.027 81.8825 142.387C82.4958 142.747 82.9825 143.234 83.3425 143.847C83.7158 144.461 83.9025 145.141 83.9025 145.887C83.9025 146.634 83.7158 147.307 83.3425 147.907C82.9825 148.521 82.4958 149.007 81.8825 149.367C81.2692 149.727 80.5958 149.907 79.8625 149.907C79.1292 149.907 78.4558 149.727 77.8425 149.367C77.2292 149.007 76.7358 148.521 76.3625 147.907C76.0025 147.307 75.8225 146.634 75.8225 145.887ZM77.8825 145.887C77.8825 146.247 77.9692 146.574 78.1425 146.867C78.3292 147.161 78.5692 147.394 78.8625 147.567C79.1692 147.754 79.5025 147.847 79.8625 147.847C80.2225 147.847 80.5492 147.754 80.8425 147.567C81.1492 147.394 81.3892 147.154 81.5625 146.847C81.7492 146.554 81.8425 146.234 81.8425 145.887C81.8425 145.527 81.7558 145.194 81.5825 144.887C81.4092 144.594 81.1692 144.354 80.8625 144.167C80.5692 143.994 80.2358 143.907 79.8625 143.907C79.5025 143.907 79.1692 143.994 78.8625 144.167C78.5692 144.341 78.3292 144.574 78.1425 144.867C77.9692 145.174 77.8825 145.514 77.8825 145.887ZM68.3025 152.832C68.3025 152.539 68.4025 152.292 68.6025 152.092C68.8025 151.905 69.0425 151.812 69.3225 151.812C69.6158 151.812 69.8558 151.905 70.0425 152.092L76.6825 157.772C77.1492 158.172 77.5892 158.479 78.0025 158.692C78.4158 158.919 78.8092 159.032 79.1825 159.032C79.7692 159.032 80.2758 158.932 80.7025 158.732C81.1292 158.532 81.4558 158.245 81.6825 157.872C81.9225 157.499 82.0425 157.052 82.0425 156.532C82.0425 156.025 81.9092 155.565 81.6425 155.152C81.3892 154.752 81.0425 154.432 80.6025 154.192C80.1758 153.965 79.7025 153.852 79.1825 153.852C78.9158 153.852 78.6825 153.752 78.4825 153.552C78.2825 153.365 78.1825 153.125 78.1825 152.832C78.1825 152.552 78.2825 152.312 78.4825 152.112C78.6825 151.912 78.9158 151.812 79.1825 151.812C80.0892 151.812 80.8958 152.019 81.6025 152.432C82.3225 152.845 82.8892 153.405 83.3025 154.112C83.7158 154.832 83.9225 155.639 83.9225 156.532C83.9225 157.439 83.7292 158.225 83.3425 158.892C82.9558 159.559 82.4092 160.072 81.7025 160.432C80.9958 160.805 80.1558 160.992 79.1825 160.992C78.7558 160.992 78.3225 160.899 77.8825 160.712C77.4425 160.539 77.0225 160.312 76.6225 160.032C76.2225 159.765 75.8625 159.492 75.5425 159.212L70.3425 154.632L70.3425 160.232C70.3425 160.525 70.2358 160.772 70.0225 160.972C69.8225 161.172 69.5892 161.272 69.3225 161.272C69.0425 161.272 68.8025 161.172 68.6025 160.972C68.4025 160.772 68.3025 160.525 68.3025 160.232L68.3025 152.832Z" fill="white"/>
</svg>
