<svg width="38" height="145" viewBox="0 0 38 145" fill="none" xmlns="http://www.w3.org/2000/svg">
<path d="M0 14.7911H37.7832V43.7304H34.3031V102.607H37.7832V131.047H0V14.7911Z" fill="#A73C4C"/>
<path d="M12.7391 37.8956C12.5991 37.7556 12.5341 37.5656 12.5441 37.3256C12.5441 37.0856 12.6241 36.8956 12.7841 36.7556L18.5141 31.8356L24.0041 36.4256C24.1741 36.5656 24.2591 36.7456 24.2591 36.9656C24.2691 37.1956 24.1941 37.3806 24.0341 37.5206C23.8741 37.6606 23.7041 37.7256 23.5241 37.7156C23.3541 37.7156 23.1891 37.6456 23.0291 37.5056L18.6191 33.7106L13.7591 37.8956C13.5991 38.0356 13.4291 38.1106 13.2491 38.1206C13.0791 38.1406 12.9091 38.0656 12.7391 37.8956ZM12.5441 30.0656C12.5441 29.8456 12.6191 29.6606 12.7691 29.5106C12.9191 29.3606 13.1041 29.2856 13.3241 29.2856L23.4791 29.2856C23.7091 29.2856 23.8941 29.3606 24.0341 29.5106C24.1841 29.6606 24.2591 29.8456 24.2591 30.0656C24.2591 30.2956 24.1841 30.4806 24.0341 30.6206C23.8941 30.7706 23.7091 30.8456 23.4791 30.8456L19.1741 30.8456L19.1741 33.3056L17.7941 33.3056L17.7941 30.8456L13.3241 30.8456C13.1041 30.8456 12.9191 30.7706 12.7691 30.6206C12.6191 30.4806 12.5441 30.2956 12.5441 30.0656ZM12.4841 42.9338C12.4841 42.1238 12.6591 41.4088 13.0091 40.7888C13.3691 40.1688 13.8591 39.6788 14.4791 39.3188C15.1091 38.9688 15.8291 38.7938 16.6391 38.7938C17.4591 38.7938 18.1791 38.9688 18.7991 39.3188C19.4291 39.6788 19.9191 40.1688 20.2691 40.7888C20.6291 41.4088 20.8091 42.1238 20.8091 42.9338C20.8091 43.7338 20.6291 44.4438 20.2691 45.0638C19.9191 45.6838 19.4291 46.1688 18.7991 46.5188C18.1791 46.8788 17.4591 47.0588 16.6391 47.0588C15.8291 47.0588 15.1091 46.8838 14.4791 46.5338C13.8591 46.1838 13.3691 45.6988 13.0091 45.0788C12.6591 44.4588 12.4841 43.7438 12.4841 42.9338ZM13.8341 42.9338C13.8341 43.4538 13.9541 43.9138 14.1941 44.3138C14.4341 44.7138 14.7641 45.0238 15.1841 45.2438C15.6041 45.4738 16.0891 45.5888 16.6391 45.5888C17.1891 45.5888 17.6741 45.4738 18.0941 45.2438C18.5241 45.0238 18.8591 44.7138 19.0991 44.3138C19.3391 43.9138 19.4591 43.4538 19.4591 42.9338C19.4591 42.4138 19.3391 41.9538 19.0991 41.5538C18.8591 41.1538 18.5241 40.8388 18.0941 40.6088C17.6741 40.3788 17.1891 40.2638 16.6391 40.2638C16.0891 40.2638 15.6041 40.3788 15.1841 40.6088C14.7641 40.8388 14.4341 41.1538 14.1941 41.5538C13.9541 41.9538 13.8341 42.4138 13.8341 42.9338ZM9.03413 50.1008C9.03413 49.8808 9.10913 49.6958 9.25913 49.5458C9.39913 49.4058 9.57913 49.3358 9.79913 49.3358L16.6391 49.3358C17.4291 49.3458 18.1391 49.5308 18.7691 49.8908C19.3991 50.2508 19.8941 50.7408 20.2541 51.3608C20.6241 51.9808 20.8091 52.6808 20.8091 53.4608C20.8091 54.2508 20.6241 54.9558 20.2541 55.5758C19.8941 56.1958 19.3991 56.6858 18.7691 57.0458C18.1391 57.4158 17.4291 57.6008 16.6391 57.6008C15.8491 57.6008 15.1391 57.4308 14.5091 57.0908C13.8891 56.7608 13.3941 56.3058 13.0241 55.7258C12.6641 55.1458 12.4841 54.4908 12.4841 53.7608C12.4841 53.1708 12.6041 52.6258 12.8441 52.1258C13.0941 51.6358 13.4291 51.2158 13.8491 50.8658L9.79913 50.8658C9.57913 50.8658 9.39913 50.7958 9.25913 50.6558C9.10913 50.5158 9.03413 50.3308 9.03413 50.1008ZM13.8341 53.4608C13.8341 53.9708 13.9541 54.4258 14.1941 54.8258C14.4441 55.2258 14.7791 55.5408 15.1991 55.7708C15.6291 56.0108 16.1091 56.1308 16.6391 56.1308C17.1791 56.1308 17.6591 56.0108 18.0791 55.7708C18.5091 55.5408 18.8441 55.2258 19.0841 54.8258C19.3341 54.4258 19.4591 53.9708 19.4591 53.4608C19.4591 52.9608 19.3341 52.5058 19.0841 52.0958C18.8441 51.6958 18.5091 51.3808 18.0791 51.1508C17.6591 50.9208 17.1791 50.8058 16.6391 50.8058C16.1091 50.8058 15.6291 50.9208 15.1991 51.1508C14.7791 51.3808 14.4441 51.6958 14.1941 52.0958C13.9541 52.5058 13.8341 52.9608 13.8341 53.4608ZM12.5291 66.8127C12.5291 66.5927 12.5991 66.4077 12.7391 66.2577C12.8891 66.1177 13.0741 66.0477 13.2941 66.0477L16.9841 66.0477C17.5541 66.0477 18.0191 65.9427 18.3791 65.7327C18.7391 65.5227 19.0041 65.2377 19.1741 64.8777C19.3541 64.5277 19.4441 64.1227 19.4441 63.6627C19.4441 63.2427 19.3591 62.8627 19.1891 62.5227C19.0191 62.1827 18.7891 61.9127 18.4991 61.7127C18.2191 61.5127 17.8941 61.4127 17.5241 61.4127L17.5241 60.4677C18.1541 60.4677 18.7141 60.6177 19.2041 60.9177C19.7041 61.2277 20.0991 61.6477 20.3891 62.1777C20.6791 62.7077 20.8241 63.3027 20.8241 63.9627C20.8241 64.6527 20.6741 65.2677 20.3741 65.8077C20.0841 66.3577 19.6541 66.7877 19.0841 67.0977C18.5141 67.4177 17.8141 67.5777 16.9841 67.5777L13.2941 67.5777C13.0741 67.5777 12.8891 67.5027 12.7391 67.3527C12.5991 67.2127 12.5291 67.0327 12.5291 66.8127ZM12.5291 60.6477C12.5291 60.4277 12.5991 60.2427 12.7391 60.0927C12.8891 59.9527 13.0741 59.8827 13.2941 59.8827L19.9841 59.8827C20.2141 59.8827 20.3991 59.9527 20.5391 60.0927C20.6791 60.2427 20.7491 60.4277 20.7491 60.6477C20.7491 60.8777 20.6791 61.0627 20.5391 61.2027C20.3991 61.3427 20.2141 61.4127 19.9841 61.4127L13.2941 61.4127C13.0741 61.4127 12.8891 61.3427 12.7391 61.2027C12.5991 61.0627 12.5291 60.8777 12.5291 60.6477ZM8.94413 69.4732C8.94413 69.2932 8.96913 69.1082 9.01913 68.9182C9.06913 68.7382 9.14413 68.5582 9.24413 68.3782C9.37413 68.1582 9.53413 68.0132 9.72413 67.9432C9.91413 67.8732 10.0991 67.9032 10.2791 68.0332C10.4491 68.1532 10.5541 68.2982 10.5941 68.4682C10.6341 68.6382 10.5991 68.8182 10.4891 69.0082C10.4291 69.1182 10.3841 69.2182 10.3541 69.3082C10.3241 69.4082 10.3091 69.5082 10.3091 69.6082C10.3091 69.9282 10.4741 70.2332 10.8041 70.5232C11.1341 70.8232 11.6241 71.1182 12.2741 71.4082L20.3741 74.9932C20.5741 75.0832 20.7091 75.2182 20.7791 75.3982C20.8491 75.5882 20.8391 75.7782 20.7491 75.9682C20.6791 76.1382 20.5491 76.2482 20.3591 76.2982C20.1791 76.3482 19.9841 76.3232 19.7741 76.2232L11.6741 72.6082C10.8641 72.2482 10.2091 71.7882 9.70913 71.2282C9.19913 70.6782 8.94413 70.0932 8.94413 69.4732ZM12.8741 72.8932C12.7941 72.7032 12.7841 72.5232 12.8441 72.3532C12.9141 72.1932 13.0441 72.0632 13.2341 71.9632L19.7591 68.5282C19.9491 68.4282 20.1291 68.4132 20.2991 68.4832C20.4791 68.5632 20.6091 68.6982 20.6891 68.8882C20.7691 69.0782 20.7741 69.2532 20.7041 69.4132C20.6441 69.5832 20.5191 69.7182 20.3291 69.8182L13.8641 73.1182C13.6741 73.2182 13.4791 73.2532 13.2791 73.2232C13.0891 73.1932 12.9541 73.0832 12.8741 72.8932ZM12.4841 81.298C12.4841 80.498 12.6641 79.783 13.0241 79.153C13.3941 78.533 13.8891 78.043 14.5091 77.683C15.1391 77.333 15.8491 77.158 16.6391 77.158C17.4491 77.158 18.1691 77.333 18.7991 77.683C19.4291 78.033 19.9191 78.513 20.2691 79.123C20.6291 79.733 20.8091 80.433 20.8091 81.223C20.8091 81.813 20.6941 82.353 20.4641 82.843C20.2441 83.333 19.9091 83.773 19.4591 84.163C19.2991 84.303 19.1341 84.353 18.9641 84.313C18.7941 84.273 18.6441 84.163 18.5141 83.983C18.4141 83.843 18.3791 83.688 18.4091 83.518C18.4491 83.348 18.5391 83.193 18.6791 83.053C19.1991 82.563 19.4591 81.953 19.4591 81.223C19.4591 80.713 19.3391 80.263 19.0991 79.873C18.8691 79.483 18.5441 79.178 18.1241 78.958C17.7041 78.738 17.2091 78.628 16.6391 78.628C16.0991 78.628 15.6191 78.738 15.1991 78.958C14.7791 79.188 14.4441 79.503 14.1941 79.903C13.9541 80.303 13.8341 80.768 13.8341 81.298C13.8341 81.648 13.8741 81.953 13.9541 82.213C14.0441 82.483 14.1791 82.728 14.3591 82.948C14.4891 83.108 14.5591 83.273 14.5691 83.443C14.5891 83.613 14.5441 83.763 14.4341 83.893C14.2941 84.063 14.1341 84.158 13.9541 84.178C13.7841 84.198 13.6291 84.138 13.4891 83.998C12.8191 83.278 12.4841 82.378 12.4841 81.298ZM12.5441 91.8963C12.5441 91.6763 12.6191 91.4913 12.7691 91.3413C12.9191 91.2013 13.0991 91.1313 13.3091 91.1313L23.4791 91.1313C23.6891 91.1313 23.8691 91.2013 24.0191 91.3413C24.1691 91.4913 24.2441 91.6763 24.2441 91.8963C24.2441 92.1263 24.1491 92.3313 23.9591 92.5113L15.5741 99.0213L23.4791 99.0213C23.6891 99.0213 23.8691 99.0963 24.0191 99.2463C24.1691 99.3963 24.2441 99.5813 24.2441 99.8013C24.2441 100.011 24.1691 100.191 24.0191 100.341C23.8691 100.501 23.6891 100.581 23.4791 100.581L13.3091 100.581C13.0991 100.581 12.9191 100.501 12.7691 100.341C12.6191 100.191 12.5441 100.011 12.5441 99.8013C12.5441 99.5713 12.6341 99.3713 12.8141 99.2013L21.1991 92.6763L13.3091 92.6763C13.0991 92.6763 12.9191 92.6013 12.7691 92.4513C12.6191 92.3013 12.5441 92.1163 12.5441 91.8963ZM16.1291 102.501C16.1291 102.281 16.2041 102.096 16.3541 101.946C16.5041 101.806 16.6891 101.736 16.9091 101.736C17.1291 101.736 17.3091 101.806 17.4491 101.946C17.5991 102.096 17.6741 102.281 17.6741 102.501L17.6741 107.016C17.6741 107.246 17.5991 107.431 17.4491 107.571C17.3091 107.711 17.1291 107.781 16.9091 107.781C16.6891 107.781 16.5041 107.711 16.3541 107.571C16.2041 107.431 16.1291 107.246 16.1291 107.016L16.1291 102.501ZM18.1841 104.766C18.1841 104.206 18.3191 103.696 18.5891 103.236C18.8691 102.776 19.2391 102.411 19.6991 102.141C20.1591 101.871 20.6641 101.736 21.2141 101.736C21.7641 101.736 22.2691 101.871 22.7291 102.141C23.1891 102.411 23.5541 102.776 23.8241 103.236C24.1041 103.696 24.2441 104.206 24.2441 104.766C24.2441 105.326 24.1041 105.831 23.8241 106.281C23.5541 106.741 23.1891 107.106 22.7291 107.376C22.2691 107.646 21.7641 107.781 21.2141 107.781C20.6641 107.781 20.1591 107.646 19.6991 107.376C19.2391 107.106 18.8691 106.741 18.5891 106.281C18.3191 105.831 18.1841 105.326 18.1841 104.766ZM19.7291 104.766C19.7291 105.036 19.7941 105.281 19.9241 105.501C20.0641 105.721 20.2441 105.896 20.4641 106.026C20.6941 106.166 20.9441 106.236 21.2141 106.236C21.4841 106.236 21.7291 106.166 21.9491 106.026C22.1791 105.896 22.3591 105.716 22.4891 105.486C22.6291 105.266 22.6991 105.026 22.6991 104.766C22.6991 104.496 22.6341 104.246 22.5041 104.016C22.3741 103.796 22.1941 103.616 21.9641 103.476C21.7441 103.346 21.4941 103.281 21.2141 103.281C20.9441 103.281 20.6941 103.346 20.4641 103.476C20.2441 103.606 20.0641 103.781 19.9241 104.001C19.7941 104.231 19.7291 104.486 19.7291 104.766ZM12.5441 112.915C12.5441 112.165 12.6991 111.5 13.0091 110.92C13.3291 110.34 13.7591 109.885 14.2991 109.555C14.8491 109.225 15.4641 109.06 16.1441 109.06C16.3741 109.06 16.5591 109.125 16.6991 109.255C16.8491 109.395 16.9241 109.56 16.9241 109.75C16.9241 109.95 16.8491 110.115 16.6991 110.245C16.5591 110.375 16.3741 110.44 16.1441 110.44C15.7341 110.44 15.3541 110.545 15.0041 110.755C14.6641 110.965 14.3891 111.25 14.1791 111.61C13.9791 111.97 13.8791 112.375 13.8791 112.825C13.8791 113.485 14.0591 114.015 14.4191 114.415C14.7891 114.825 15.3041 115.03 15.9641 115.03C16.3841 115.03 16.7591 114.94 17.0891 114.76C17.4291 114.58 17.6991 114.335 17.8991 114.025C18.0991 113.715 18.1991 113.365 18.1991 112.975C18.1991 112.755 18.2741 112.57 18.4241 112.42C18.5741 112.28 18.7591 112.21 18.9791 112.21C19.1991 112.21 19.3791 112.28 19.5191 112.42C19.6691 112.57 19.7441 112.755 19.7441 112.975C19.7441 113.255 19.8141 113.525 19.9541 113.785C20.1041 114.045 20.2991 114.26 20.5391 114.43C20.7891 114.6 21.0691 114.685 21.3791 114.685C21.8191 114.685 22.1891 114.525 22.4891 114.205C22.7891 113.885 22.9391 113.475 22.9391 112.975C22.9391 112.595 22.8641 112.245 22.7141 111.925C22.5641 111.615 22.3641 111.365 22.1141 111.175C21.8641 110.995 21.5841 110.905 21.2741 110.905C21.0441 110.905 20.8491 110.84 20.6891 110.71C20.5391 110.58 20.4641 110.415 20.4641 110.215C20.4641 110.025 20.5341 109.86 20.6741 109.72C20.8241 109.59 21.0091 109.525 21.2291 109.525C21.8091 109.525 22.3291 109.675 22.7891 109.975C23.2491 110.275 23.6091 110.685 23.8691 111.205C24.1391 111.725 24.2741 112.305 24.2741 112.945C24.2741 113.535 24.1441 114.065 23.8841 114.535C23.6341 115.015 23.2891 115.39 22.8491 115.66C22.4191 115.94 21.9291 116.08 21.3791 116.08C20.9891 116.08 20.6441 115.99 20.3441 115.81C20.0441 115.64 19.7841 115.42 19.5641 115.15C19.3541 114.88 19.1791 114.595 19.0391 114.295C18.8591 114.825 18.6141 115.255 18.3041 115.585C18.0041 115.915 17.6541 116.155 17.2541 116.305C16.8541 116.465 16.4191 116.545 15.9491 116.545C15.2991 116.545 14.7141 116.38 14.1941 116.05C13.6841 115.72 13.2791 115.28 12.9791 114.73C12.6891 114.18 12.5441 113.575 12.5441 112.915Z" fill="white"/>
</svg>
