<svg width="110" height="91" viewBox="0 0 110 91" fill="none" xmlns="http://www.w3.org/2000/svg">
<path d="M0.0571899 0H31.2813V22.3774H77.2338V0H109.047V67.1321H31.2813L31.2813 90.0983H0.0571899V0Z" fill="#A73C4C"/>
<path d="M26.7185 33.6162C26.6252 33.7095 26.4985 33.7528 26.3385 33.7462C26.1785 33.7462 26.0518 33.6928 25.9585 33.5862L22.6785 29.7662L25.7385 26.1062C25.8318 25.9928 25.9518 25.9362 26.0985 25.9362C26.2518 25.9295 26.3752 25.9795 26.4685 26.0862C26.5618 26.1928 26.6052 26.3062 26.5985 26.4262C26.5985 26.5395 26.5518 26.6495 26.4585 26.7562L23.9285 29.6962L26.7185 32.9362C26.8118 33.0428 26.8618 33.1562 26.8685 33.2762C26.8818 33.3895 26.8318 33.5028 26.7185 33.6162ZM21.4985 33.7462C21.3518 33.7462 21.2285 33.6962 21.1285 33.5962C21.0285 33.4962 20.9785 33.3728 20.9785 33.2262V26.4562C20.9785 26.3028 21.0285 26.1795 21.1285 26.0862C21.2285 25.9862 21.3518 25.9362 21.4985 25.9362C21.6518 25.9362 21.7752 25.9862 21.8685 26.0862C21.9685 26.1795 22.0185 26.3028 22.0185 26.4562V29.3262H23.6585V30.2462H22.0185V33.2262C22.0185 33.3728 21.9685 33.4962 21.8685 33.5962C21.7752 33.6962 21.6518 33.7462 21.4985 33.7462ZM30.0773 33.7862C29.5373 33.7862 29.0606 33.6695 28.6473 33.4362C28.2339 33.1962 27.9073 32.8695 27.6673 32.4562C27.4339 32.0362 27.3173 31.5562 27.3173 31.0162C27.3173 30.4695 27.4339 29.9895 27.6673 29.5762C27.9073 29.1562 28.2339 28.8295 28.6473 28.5962C29.0606 28.3562 29.5373 28.2362 30.0773 28.2362C30.6106 28.2362 31.0839 28.3562 31.4973 28.5962C31.9106 28.8295 32.2339 29.1562 32.4673 29.5762C32.7073 29.9895 32.8273 30.4695 32.8273 31.0162C32.8273 31.5562 32.7106 32.0362 32.4773 32.4562C32.2439 32.8695 31.9206 33.1962 31.5073 33.4362C31.0939 33.6695 30.6173 33.7862 30.0773 33.7862ZM30.0773 32.8862C30.4239 32.8862 30.7306 32.8062 30.9973 32.6462C31.2639 32.4862 31.4706 32.2662 31.6173 31.9862C31.7706 31.7062 31.8473 31.3828 31.8473 31.0162C31.8473 30.6495 31.7706 30.3262 31.6173 30.0462C31.4706 29.7595 31.2639 29.5362 30.9973 29.3762C30.7306 29.2162 30.4239 29.1362 30.0773 29.1362C29.7306 29.1362 29.4239 29.2162 29.1573 29.3762C28.8906 29.5362 28.6806 29.7595 28.5273 30.0462C28.3739 30.3262 28.2973 30.6495 28.2973 31.0162C28.2973 31.3828 28.3739 31.7062 28.5273 31.9862C28.6806 32.2662 28.8906 32.4862 29.1573 32.6462C29.4239 32.8062 29.7306 32.8862 30.0773 32.8862ZM36.3953 28.2862C36.4953 28.2862 36.5853 28.3128 36.6653 28.3662C36.7453 28.4195 36.8086 28.5028 36.8553 28.6162L38.9153 33.0862C38.9753 33.2195 38.982 33.3395 38.9353 33.4462C38.8886 33.5462 38.8086 33.6228 38.6953 33.6762C38.5486 33.7428 38.422 33.7595 38.3153 33.7262C38.2086 33.6928 38.1186 33.6095 38.0453 33.4762L36.1653 29.2062H36.6753L34.7353 33.4762C34.6753 33.6028 34.5853 33.6862 34.4653 33.7262C34.352 33.7595 34.2253 33.7428 34.0853 33.6762C33.9586 33.6162 33.8686 33.5362 33.8153 33.4362C33.7686 33.3362 33.7786 33.2195 33.8453 33.0862L35.9153 28.6162C36.0153 28.3962 36.1753 28.2862 36.3953 28.2862ZM42.2645 28.2862C42.3645 28.2862 42.4545 28.3128 42.5345 28.3662C42.6145 28.4195 42.6778 28.5028 42.7245 28.6162L44.7845 33.0862C44.8445 33.2195 44.8511 33.3395 44.8045 33.4462C44.7578 33.5462 44.6778 33.6228 44.5645 33.6762C44.4178 33.7428 44.2911 33.7595 44.1845 33.7262C44.0778 33.6928 43.9878 33.6095 43.9145 33.4762L42.0345 29.2062H42.5445L40.6045 33.4762C40.5445 33.6028 40.4545 33.6862 40.3345 33.7262C40.2211 33.7595 40.0945 33.7428 39.9545 33.6762C39.8278 33.6162 39.7378 33.5362 39.6845 33.4362C39.6378 33.3362 39.6478 33.2195 39.7145 33.0862L41.7845 28.6162C41.8845 28.3962 42.0445 28.2862 42.2645 28.2862ZM48.6536 33.7862C48.1003 33.7862 47.6069 33.6695 47.1736 33.4362C46.7469 33.1962 46.4103 32.8695 46.1636 32.4562C45.9236 32.0362 45.8036 31.5562 45.8036 31.0162C45.8036 30.4695 45.9169 29.9895 46.1436 29.5762C46.3769 29.1562 46.6969 28.8295 47.1036 28.5962C47.5103 28.3562 47.9769 28.2362 48.5036 28.2362C49.0236 28.2362 49.4703 28.3528 49.8436 28.5862C50.2169 28.8128 50.5003 29.1295 50.6936 29.5362C50.8936 29.9362 50.9936 30.3995 50.9936 30.9262C50.9936 31.0528 50.9503 31.1595 50.8636 31.2462C50.7769 31.3262 50.6669 31.3662 50.5336 31.3662H46.5036V30.5662H50.5036L50.0936 30.8462C50.0869 30.5128 50.0203 30.2162 49.8936 29.9562C49.7669 29.6895 49.5869 29.4795 49.3536 29.3262C49.1203 29.1728 48.8369 29.0962 48.5036 29.0962C48.1236 29.0962 47.7969 29.1795 47.5236 29.3462C47.2569 29.5128 47.0536 29.7428 46.9136 30.0362C46.7736 30.3228 46.7036 30.6495 46.7036 31.0162C46.7036 31.3828 46.7869 31.7095 46.9536 31.9962C47.1203 32.2828 47.3503 32.5095 47.6436 32.6762C47.9369 32.8428 48.2736 32.9262 48.6536 32.9262C48.8603 32.9262 49.0703 32.8895 49.2836 32.8162C49.5036 32.7362 49.6803 32.6462 49.8136 32.5462C49.9136 32.4728 50.0203 32.4362 50.1336 32.4362C50.2536 32.4295 50.3569 32.4628 50.4436 32.5362C50.5569 32.6362 50.6169 32.7462 50.6236 32.8662C50.6303 32.9862 50.5769 33.0895 50.4636 33.1762C50.2369 33.3562 49.9536 33.5028 49.6136 33.6162C49.2803 33.7295 48.9603 33.7862 48.6536 33.7862ZM54.3792 33.7862C53.8792 33.7862 53.4359 33.6695 53.0492 33.4362C52.6692 33.1962 52.3692 32.8695 52.1492 32.4562C51.9292 32.0362 51.8192 31.5562 51.8192 31.0162C51.8192 30.4695 51.9359 29.9895 52.1692 29.5762C52.4092 29.1562 52.7359 28.8295 53.1492 28.5962C53.5626 28.3562 54.0392 28.2362 54.5792 28.2362C55.1126 28.2362 55.5859 28.3562 55.9992 28.5962C56.4126 28.8295 56.7359 29.1562 56.9692 29.5762C57.2092 29.9895 57.3292 30.4695 57.3292 31.0162H56.7392C56.7392 31.5562 56.6359 32.0362 56.4292 32.4562C56.2292 32.8695 55.9526 33.1962 55.5992 33.4362C55.2459 33.6695 54.8392 33.7862 54.3792 33.7862ZM54.5592 36.0162C54.0859 36.0162 53.6426 35.9228 53.2292 35.7362C52.8159 35.5495 52.4659 35.2762 52.1792 34.9162C52.0926 34.8028 52.0592 34.6862 52.0792 34.5662C52.1059 34.4462 52.1726 34.3495 52.2792 34.2762C52.3992 34.1962 52.5226 34.1695 52.6492 34.1962C52.7826 34.2228 52.8892 34.2895 52.9692 34.3962C53.1492 34.6228 53.3759 34.7995 53.6492 34.9262C53.9226 35.0528 54.2326 35.1162 54.5792 35.1162C54.8992 35.1162 55.1926 35.0395 55.4592 34.8862C55.7326 34.7328 55.9492 34.5062 56.1092 34.2062C56.2692 33.9062 56.3492 33.5395 56.3492 33.1062V31.6862L56.6792 30.8062L57.3292 31.0162V33.1762C57.3292 33.7028 57.2126 34.1795 56.9792 34.6062C56.7459 35.0395 56.4192 35.3828 55.9992 35.6362C55.5859 35.8895 55.1059 36.0162 54.5592 36.0162ZM54.5792 32.8862C54.9259 32.8862 55.2326 32.8062 55.4992 32.6462C55.7659 32.4862 55.9726 32.2662 56.1192 31.9862C56.2726 31.7062 56.3492 31.3828 56.3492 31.0162C56.3492 30.6495 56.2726 30.3262 56.1192 30.0462C55.9726 29.7595 55.7659 29.5362 55.4992 29.3762C55.2326 29.2162 54.9259 29.1362 54.5792 29.1362C54.2326 29.1362 53.9259 29.2162 53.6592 29.3762C53.3926 29.5362 53.1826 29.7595 53.0292 30.0462C52.8759 30.3262 52.7992 30.6495 52.7992 31.0162C52.7992 31.3828 52.8759 31.7062 53.0292 31.9862C53.1826 32.2662 53.3926 32.4862 53.6592 32.6462C53.9259 32.8062 54.2326 32.8862 54.5792 32.8862ZM61.5345 33.7562C61.3879 33.7562 61.2645 33.7095 61.1645 33.6162C61.0712 33.5162 61.0245 33.3928 61.0245 33.2462V31.3962H60.3445L58.8145 33.6062C58.7479 33.6995 58.6379 33.7462 58.4845 33.7462C58.3379 33.7528 58.2212 33.7128 58.1345 33.6262C58.0345 33.5262 57.9879 33.4228 57.9945 33.3162C58.0012 33.2095 58.0379 33.1062 58.1045 33.0062L59.5045 30.9362L58.2145 29.0062C58.1479 28.8995 58.1145 28.7928 58.1145 28.6862C58.1212 28.5728 58.1745 28.4695 58.2745 28.3762C58.3612 28.2962 58.4779 28.2595 58.6245 28.2662C58.7779 28.2662 58.8879 28.3228 58.9545 28.4362L60.2845 30.4962H61.0245V28.7862C61.0245 28.6328 61.0712 28.5095 61.1645 28.4162C61.2645 28.3228 61.3879 28.2762 61.5345 28.2762C61.6879 28.2762 61.8112 28.3228 61.9045 28.4162C61.9979 28.5095 62.0445 28.6328 62.0445 28.7862V30.4962H62.7945L64.1145 28.4362C64.1879 28.3228 64.2979 28.2662 64.4445 28.2662C64.5912 28.2595 64.7079 28.2962 64.7945 28.3762C64.8945 28.4695 64.9479 28.5728 64.9545 28.6862C64.9612 28.7928 64.9279 28.8995 64.8545 29.0062L63.5645 30.9362L64.9645 33.0062C65.0312 33.1062 65.0679 33.2095 65.0745 33.3162C65.0812 33.4228 65.0345 33.5262 64.9345 33.6262C64.8479 33.7128 64.7279 33.7528 64.5745 33.7462C64.4279 33.7462 64.3212 33.6995 64.2545 33.6062L62.7345 31.3962H62.0445V33.2462C62.0445 33.3928 61.9979 33.5162 61.9045 33.6162C61.8112 33.7095 61.6879 33.7562 61.5345 33.7562ZM73.8774 33.7562C73.7308 33.7562 73.6074 33.7095 73.5074 33.6162C73.4141 33.5162 73.3674 33.3928 73.3674 33.2462V30.7862C73.3674 30.4062 73.2974 30.0962 73.1574 29.8562C73.0174 29.6162 72.8274 29.4395 72.5874 29.3262C72.3541 29.2062 72.0841 29.1462 71.7774 29.1462C71.4974 29.1462 71.2441 29.2028 71.0174 29.3162C70.7908 29.4295 70.6108 29.5828 70.4774 29.7762C70.3441 29.9628 70.2774 30.1795 70.2774 30.4262H69.6474C69.6474 30.0062 69.7474 29.6328 69.9474 29.3062C70.1541 28.9728 70.4341 28.7095 70.7874 28.5162C71.1408 28.3228 71.5374 28.2262 71.9774 28.2262C72.4374 28.2262 72.8474 28.3262 73.2074 28.5262C73.5741 28.7195 73.8608 29.0062 74.0674 29.3862C74.2808 29.7662 74.3874 30.2328 74.3874 30.7862V33.2462C74.3874 33.3928 74.3374 33.5162 74.2374 33.6162C74.1441 33.7095 74.0241 33.7562 73.8774 33.7562ZM69.7674 33.7562C69.6208 33.7562 69.4974 33.7095 69.3974 33.6162C69.3041 33.5162 69.2574 33.3928 69.2574 33.2462V28.7862C69.2574 28.6328 69.3041 28.5095 69.3974 28.4162C69.4974 28.3228 69.6208 28.2762 69.7674 28.2762C69.9208 28.2762 70.0441 28.3228 70.1374 28.4162C70.2308 28.5095 70.2774 28.6328 70.2774 28.7862V33.2462C70.2774 33.3928 70.2308 33.5162 70.1374 33.6162C70.0441 33.7095 69.9208 33.7562 69.7674 33.7562ZM76.5838 36.0862C76.4372 36.0862 76.3138 36.0362 76.2138 35.9362C76.1205 35.8428 76.0738 35.7228 76.0738 35.5762V31.0162C76.0805 30.4895 76.2038 30.0162 76.4438 29.5962C76.6838 29.1762 77.0105 28.8462 77.4238 28.6062C77.8372 28.3595 78.3038 28.2362 78.8238 28.2362C79.3505 28.2362 79.8205 28.3595 80.2338 28.6062C80.6472 28.8462 80.9738 29.1762 81.2138 29.5962C81.4605 30.0162 81.5838 30.4895 81.5838 31.0162C81.5838 31.5428 81.4705 32.0162 81.2438 32.4362C81.0238 32.8495 80.7205 33.1795 80.3338 33.4262C79.9472 33.6662 79.5105 33.7862 79.0238 33.7862C78.6305 33.7862 78.2672 33.7062 77.9338 33.5462C77.6072 33.3795 77.3272 33.1562 77.0938 32.8762V35.5762C77.0938 35.7228 77.0472 35.8428 76.9538 35.9362C76.8605 36.0362 76.7372 36.0862 76.5838 36.0862ZM78.8238 32.8862C79.1638 32.8862 79.4672 32.8062 79.7338 32.6462C80.0005 32.4795 80.2105 32.2562 80.3638 31.9762C80.5238 31.6895 80.6038 31.3695 80.6038 31.0162C80.6038 30.6562 80.5238 30.3362 80.3638 30.0562C80.2105 29.7695 80.0005 29.5462 79.7338 29.3862C79.4672 29.2195 79.1638 29.1362 78.8238 29.1362C78.4905 29.1362 78.1872 29.2195 77.9138 29.3862C77.6472 29.5462 77.4372 29.7695 77.2838 30.0562C77.1305 30.3362 77.0538 30.6562 77.0538 31.0162C77.0538 31.3695 77.1305 31.6895 77.2838 31.9762C77.4372 32.2562 77.6472 32.4795 77.9138 32.6462C78.1872 32.8062 78.4905 32.8862 78.8238 32.8862ZM85.4051 33.7962C84.9451 33.7962 84.5317 33.6995 84.1651 33.5062C83.8051 33.3062 83.5184 33.0162 83.3051 32.6362C83.0984 32.2562 82.9951 31.7895 82.9951 31.2362V28.7762C82.9951 28.6295 83.0417 28.5095 83.1351 28.4162C83.2351 28.3162 83.3584 28.2662 83.5051 28.2662C83.6517 28.2662 83.7717 28.3162 83.8651 28.4162C83.9651 28.5095 84.0151 28.6295 84.0151 28.7762V31.2362C84.0151 31.6095 84.0851 31.9195 84.2251 32.1662C84.3651 32.4062 84.5551 32.5862 84.7951 32.7062C85.0351 32.8195 85.3051 32.8762 85.6051 32.8762C85.8917 32.8762 86.1451 32.8195 86.3651 32.7062C86.5917 32.5928 86.7717 32.4395 86.9051 32.2462C87.0384 32.0528 87.1051 31.8362 87.1051 31.5962H87.7351C87.7351 32.0095 87.6317 32.3828 87.4251 32.7162C87.2251 33.0495 86.9484 33.3128 86.5951 33.5062C86.2484 33.6995 85.8517 33.7962 85.4051 33.7962ZM87.6151 33.7462C87.4684 33.7462 87.3451 33.6995 87.2451 33.6062C87.1517 33.5062 87.1051 33.3828 87.1051 33.2362V28.7762C87.1051 28.6228 87.1517 28.4995 87.2451 28.4062C87.3451 28.3128 87.4684 28.2662 87.6151 28.2662C87.7684 28.2662 87.8917 28.3128 87.9851 28.4062C88.0784 28.4995 88.1251 28.6228 88.1251 28.7762V33.2362C88.1251 33.3828 88.0784 33.5062 87.9851 33.6062C87.8917 33.6995 87.7684 33.7462 87.6151 33.7462ZM36.4643 45.7462C36.3177 45.7462 36.1943 45.6962 36.0943 45.5962C35.9943 45.4962 35.9443 45.3728 35.9443 45.2262V38.4562C35.9443 38.3028 35.9943 38.1795 36.0943 38.0862C36.1943 37.9862 36.3177 37.9362 36.4643 37.9362H41.7843C41.9377 37.9362 42.061 37.9862 42.1543 38.0862C42.2543 38.1795 42.3043 38.3028 42.3043 38.4562V45.2262C42.3043 45.3728 42.2543 45.4962 42.1543 45.5962C42.061 45.6962 41.9377 45.7462 41.7843 45.7462C41.6377 45.7462 41.5143 45.6962 41.4143 45.5962C41.3143 45.4962 41.2643 45.3728 41.2643 45.2262V38.8562H36.9843V45.2262C36.9843 45.3728 36.9343 45.4962 36.8343 45.5962C36.741 45.6962 36.6177 45.7462 36.4643 45.7462ZM44.8237 45.7462C44.677 45.7462 44.5537 45.6962 44.4537 45.5962C44.3537 45.4962 44.3037 45.3728 44.3037 45.2262V38.4562C44.3037 38.3028 44.3537 38.1795 44.4537 38.0862C44.5537 37.9862 44.677 37.9362 44.8237 37.9362H48.9537C49.107 37.9362 49.2304 37.9828 49.3237 38.0762C49.417 38.1628 49.4637 38.2795 49.4637 38.4262C49.4637 38.5662 49.417 38.6795 49.3237 38.7662C49.2304 38.8528 49.107 38.8962 48.9537 38.8962H45.3437V45.2262C45.3437 45.3728 45.2937 45.4962 45.1937 45.5962C45.0937 45.6962 44.9704 45.7462 44.8237 45.7462ZM51.0835 45.7462C50.9368 45.7462 50.8135 45.6962 50.7135 45.5962C50.6135 45.4962 50.5635 45.3728 50.5635 45.2262V38.4562C50.5635 38.3028 50.6135 38.1795 50.7135 38.0862C50.8135 37.9862 50.9368 37.9362 51.0835 37.9362C51.2368 37.9362 51.3601 37.9862 51.4535 38.0862C51.5535 38.1795 51.6035 38.3028 51.6035 38.4562V41.3262L56.2435 41.3262V38.4562C56.2435 38.3028 56.2935 38.1795 56.3935 38.0862C56.4935 37.9862 56.6168 37.9362 56.7635 37.9362C56.9168 37.9362 57.0401 37.9862 57.1335 38.0862C57.2268 38.1795 57.2735 38.3028 57.2735 38.4562V45.2262C57.2735 45.3728 57.2268 45.4962 57.1335 45.5962C57.0401 45.6962 56.9168 45.7462 56.7635 45.7462C56.6168 45.7462 56.4935 45.6962 56.3935 45.5962C56.2935 45.4962 56.2435 45.3728 56.2435 45.2262V42.2462L51.6035 42.2462V45.2262C51.6035 45.3728 51.5535 45.4962 51.4535 45.5962C51.3601 45.6962 51.2368 45.7462 51.0835 45.7462ZM59.8144 45.7462C59.6677 45.7462 59.5411 45.6962 59.4344 45.5962C59.3277 45.4962 59.2744 45.3728 59.2744 45.2262V38.4562C59.2744 38.3028 59.3277 38.1795 59.4344 38.0862C59.5411 37.9862 59.6677 37.9362 59.8144 37.9362C59.9677 37.9362 60.0877 37.9862 60.1744 38.0862C60.2677 38.1795 60.3144 38.3028 60.3144 38.4562V44.1262L65.1144 38.1262C65.2211 37.9995 65.3544 37.9362 65.5144 37.9362C65.6677 37.9362 65.7911 37.9862 65.8844 38.0862C65.9844 38.1795 66.0344 38.3028 66.0344 38.4562V45.2262C66.0344 45.3728 65.9844 45.4962 65.8844 45.5962C65.7911 45.6962 65.6677 45.7462 65.5144 45.7462C65.3677 45.7462 65.2444 45.6962 65.1444 45.5962C65.0444 45.4962 64.9944 45.3728 64.9944 45.2262V39.5662L60.2144 45.5662C60.1677 45.6195 60.1077 45.6628 60.0344 45.6962C59.9611 45.7295 59.8877 45.7462 59.8144 45.7462ZM68.9842 45.8362C68.6775 45.8362 68.3842 45.7462 68.1042 45.5662C67.9775 45.4862 67.8975 45.3828 67.8642 45.2562C67.8375 45.1295 67.8608 45.0095 67.9342 44.8962C68.0075 44.7762 68.1108 44.7062 68.2442 44.6862C68.3775 44.6595 68.5175 44.6862 68.6642 44.7662C68.7108 44.7928 68.7642 44.8162 68.8242 44.8362C68.8842 44.8495 68.9375 44.8562 68.9842 44.8562C69.1642 44.8562 69.3475 44.7728 69.5342 44.6062C69.7275 44.4328 69.8975 44.1928 70.0442 43.8862L72.7942 38.2462C72.9408 37.9528 73.1575 37.8695 73.4442 37.9962C73.7308 38.1228 73.8008 38.3362 73.6542 38.6362L70.9042 44.2862C70.6642 44.7728 70.3808 45.1528 70.0542 45.4262C69.7275 45.6995 69.3708 45.8362 68.9842 45.8362ZM70.4442 44.1662L67.1042 38.6862C66.9442 38.4128 67.0075 38.1928 67.2942 38.0262C67.5742 37.8662 67.7975 37.9262 67.9642 38.2062L71.0942 43.6562L70.4442 44.1662ZM26.4884 60.5902C26.3764 60.7022 26.2244 60.7542 26.0324 60.7462C25.8404 60.7462 25.6884 60.6822 25.5764 60.5542L21.6404 55.9702L25.3124 51.5782C25.4244 51.4422 25.5684 51.3742 25.7444 51.3742C25.9284 51.3662 26.0764 51.4262 26.1884 51.5542C26.3004 51.6822 26.3524 51.8182 26.3444 51.9622C26.3444 52.0982 26.2884 52.2302 26.1764 52.3582L23.1404 55.8862L26.4884 59.7742C26.6004 59.9022 26.6604 60.0382 26.6684 60.1822C26.6844 60.3182 26.6244 60.4542 26.4884 60.5902ZM20.2244 60.7462C20.0484 60.7462 19.9004 60.6862 19.7804 60.5662C19.6604 60.4462 19.6004 60.2982 19.6004 60.1222L19.6004 51.9982C19.6004 51.8142 19.6604 51.6662 19.7804 51.5542C19.9004 51.4342 20.0484 51.3742 20.2244 51.3742C20.4084 51.3742 20.5564 51.4342 20.6684 51.5542C20.7884 51.6662 20.8484 51.8142 20.8484 51.9982V55.4422H22.8164V56.5462H20.8484L20.8484 60.1222C20.8484 60.2982 20.7884 60.4462 20.6684 60.5662C20.5564 60.6862 20.4084 60.7462 20.2244 60.7462ZM30.5189 60.7942C29.8709 60.7942 29.2989 60.6542 28.8029 60.3742C28.3069 60.0862 27.9149 59.6942 27.6269 59.1982C27.3469 58.6942 27.2069 58.1182 27.2069 57.4702C27.2069 56.8142 27.3469 56.2382 27.6269 55.7422C27.9149 55.2382 28.3069 54.8462 28.8029 54.5662C29.2989 54.2782 29.8709 54.1342 30.5189 54.1342C31.1589 54.1342 31.7269 54.2782 32.2229 54.5662C32.7189 54.8462 33.1069 55.2382 33.3869 55.7422C33.6749 56.2382 33.8189 56.8142 33.8189 57.4702C33.8189 58.1182 33.6789 58.6942 33.3989 59.1982C33.1189 59.6942 32.7309 60.0862 32.2349 60.3742C31.7389 60.6542 31.1669 60.7942 30.5189 60.7942ZM30.5189 59.7142C30.9349 59.7142 31.3029 59.6182 31.6229 59.4262C31.9429 59.2342 32.1909 58.9702 32.3669 58.6342C32.5509 58.2982 32.6429 57.9102 32.6429 57.4702C32.6429 57.0302 32.5509 56.6422 32.3669 56.3062C32.1909 55.9622 31.9429 55.6942 31.6229 55.5022C31.3029 55.3102 30.9349 55.2142 30.5189 55.2142C30.1029 55.2142 29.7349 55.3102 29.4149 55.5022C29.0949 55.6942 28.8429 55.9622 28.6589 56.3062C28.4749 56.6422 28.3829 57.0302 28.3829 57.4702C28.3829 57.9102 28.4749 58.2982 28.6589 58.6342C28.8429 58.9702 29.0949 59.2342 29.4149 59.4262C29.7349 59.6182 30.1029 59.7142 30.5189 59.7142ZM36.2525 63.5542C36.0765 63.5542 35.9285 63.4942 35.8085 63.3742C35.6965 63.2622 35.6405 63.1182 35.6405 62.9422V57.4702C35.6485 56.8382 35.7965 56.2702 36.0845 55.7662C36.3725 55.2622 36.7645 54.8662 37.2605 54.5782C37.7565 54.2822 38.3165 54.1342 38.9405 54.1342C39.5725 54.1342 40.1365 54.2822 40.6325 54.5782C41.1285 54.8662 41.5205 55.2622 41.8085 55.7662C42.1045 56.2702 42.2525 56.8382 42.2525 57.4702C42.2525 58.1022 42.1165 58.6702 41.8445 59.1742C41.5805 59.6702 41.2165 60.0662 40.7525 60.3622C40.2885 60.6502 39.7645 60.7942 39.1805 60.7942C38.7085 60.7942 38.2725 60.6982 37.8725 60.5062C37.4805 60.3062 37.1445 60.0382 36.8645 59.7022V62.9422C36.8645 63.1182 36.8085 63.2622 36.6965 63.3742C36.5845 63.4942 36.4365 63.5542 36.2525 63.5542ZM38.9405 59.7142C39.3485 59.7142 39.7125 59.6182 40.0325 59.4262C40.3525 59.2262 40.6045 58.9582 40.7885 58.6222C40.9805 58.2782 41.0765 57.8942 41.0765 57.4702C41.0765 57.0382 40.9805 56.6542 40.7885 56.3182C40.6045 55.9742 40.3525 55.7062 40.0325 55.5142C39.7125 55.3142 39.3485 55.2142 38.9405 55.2142C38.5405 55.2142 38.1765 55.3142 37.8485 55.5142C37.5285 55.7062 37.2765 55.9742 37.0925 56.3182C36.9085 56.6542 36.8165 57.0382 36.8165 57.4702C36.8165 57.8942 36.9085 58.2782 37.0925 58.6222C37.2765 58.9582 37.5285 59.2262 37.8485 59.4262C38.1765 59.6182 38.5405 59.7142 38.9405 59.7142ZM49.622 60.7582C49.446 60.7582 49.298 60.7022 49.178 60.5902C49.066 60.4702 49.01 60.3222 49.01 60.1462V57.1942C49.01 56.7382 48.926 56.3662 48.758 56.0782C48.59 55.7902 48.362 55.5782 48.074 55.4422C47.794 55.2982 47.47 55.2262 47.102 55.2262C46.766 55.2262 46.462 55.2942 46.19 55.4302C45.918 55.5662 45.702 55.7502 45.542 55.9822C45.382 56.2062 45.302 56.4662 45.302 56.7622H44.546C44.546 56.2582 44.666 55.8102 44.906 55.4182C45.154 55.0182 45.49 54.7022 45.914 54.4702C46.338 54.2382 46.814 54.1222 47.342 54.1222C47.894 54.1222 48.386 54.2422 48.818 54.4822C49.258 54.7142 49.602 55.0582 49.85 55.5142C50.106 55.9702 50.234 56.5302 50.234 57.1942V60.1462C50.234 60.3222 50.174 60.4702 50.054 60.5902C49.942 60.7022 49.798 60.7582 49.622 60.7582ZM44.69 60.7582C44.514 60.7582 44.366 60.7022 44.246 60.5902C44.134 60.4702 44.078 60.3222 44.078 60.1462V54.7942C44.078 54.6102 44.134 54.4622 44.246 54.3502C44.366 54.2382 44.514 54.1822 44.69 54.1822C44.874 54.1822 45.022 54.2382 45.134 54.3502C45.246 54.4622 45.302 54.6102 45.302 54.7942V60.1462C45.302 60.3222 45.246 60.4702 45.134 60.5902C45.022 60.7022 44.874 60.7582 44.69 60.7582ZM51.7505 63.6262C51.6065 63.6262 51.4585 63.6062 51.3065 63.5662C51.1625 63.5262 51.0185 63.4662 50.8745 63.3862C50.6985 63.2822 50.5825 63.1542 50.5265 63.0022C50.4705 62.8502 50.4945 62.7022 50.5985 62.5582C50.6945 62.4222 50.8105 62.3382 50.9465 62.3062C51.0825 62.2742 51.2265 62.3022 51.3785 62.3902C51.4665 62.4382 51.5465 62.4742 51.6185 62.4982C51.6985 62.5222 51.7785 62.5342 51.8585 62.5342C52.1145 62.5342 52.3585 62.4022 52.5905 62.1382C52.8305 61.8742 53.0665 61.4822 53.2985 60.9622L56.1665 54.4822C56.2385 54.3222 56.3465 54.2142 56.4905 54.1582C56.6425 54.1022 56.7945 54.1102 56.9465 54.1822C57.0825 54.2382 57.1705 54.3422 57.2105 54.4942C57.2505 54.6382 57.2305 54.7942 57.1505 54.9622L54.2585 61.4422C53.9705 62.0902 53.6025 62.6142 53.1545 63.0142C52.7145 63.4222 52.2465 63.6262 51.7505 63.6262ZM54.4865 60.4822C54.3345 60.5462 54.1905 60.5542 54.0545 60.5062C53.9265 60.4502 53.8225 60.3462 53.7425 60.1942L50.9945 54.9742C50.9145 54.8222 50.9025 54.6782 50.9585 54.5422C51.0225 54.3982 51.1305 54.2942 51.2825 54.2302C51.4345 54.1662 51.5745 54.1622 51.7025 54.2182C51.8385 54.2662 51.9465 54.3662 52.0265 54.5182L54.6665 59.6902C54.7465 59.8422 54.7745 59.9982 54.7505 60.1582C54.7265 60.3102 54.6385 60.4182 54.4865 60.4822ZM61.2103 60.7942C60.5703 60.7942 59.9983 60.6502 59.4943 60.3622C58.9983 60.0662 58.6063 59.6702 58.3183 59.1742C58.0383 58.6702 57.8983 58.1022 57.8983 57.4702C57.8983 56.8222 58.0383 56.2462 58.3183 55.7422C58.5983 55.2382 58.9823 54.8462 59.4703 54.5662C59.9583 54.2782 60.5183 54.1342 61.1503 54.1342C61.6223 54.1342 62.0543 54.2262 62.4463 54.4102C62.8383 54.5862 63.1903 54.8542 63.5023 55.2142C63.6143 55.3422 63.6543 55.4742 63.6223 55.6102C63.5903 55.7462 63.5023 55.8662 63.3583 55.9702C63.2463 56.0502 63.1223 56.0782 62.9863 56.0542C62.8503 56.0222 62.7263 55.9502 62.6143 55.8382C62.2223 55.4222 61.7343 55.2142 61.1503 55.2142C60.7423 55.2142 60.3823 55.3102 60.0703 55.5022C59.7583 55.6862 59.5143 55.9462 59.3383 56.2822C59.1623 56.6182 59.0743 57.0142 59.0743 57.4702C59.0743 57.9022 59.1623 58.2862 59.3383 58.6222C59.5223 58.9582 59.7743 59.2262 60.0943 59.4262C60.4143 59.6182 60.7863 59.7142 61.2103 59.7142C61.4903 59.7142 61.7343 59.6822 61.9423 59.6182C62.1583 59.5462 62.3543 59.4382 62.5303 59.2942C62.6583 59.1902 62.7903 59.1342 62.9263 59.1262C63.0623 59.1102 63.1823 59.1462 63.2863 59.2342C63.4223 59.3462 63.4983 59.4742 63.5143 59.6182C63.5303 59.7542 63.4823 59.8782 63.3703 59.9902C62.7943 60.5262 62.0743 60.7942 61.2103 60.7942ZM69.689 60.7462C69.513 60.7462 69.365 60.6862 69.245 60.5662C69.133 60.4462 69.077 60.3022 69.077 60.1342V51.9982C69.077 51.8302 69.133 51.6862 69.245 51.5662C69.365 51.4462 69.513 51.3862 69.689 51.3862C69.873 51.3862 70.037 51.4622 70.181 51.6142L75.389 58.3222V51.9982C75.389 51.8302 75.449 51.6862 75.569 51.5662C75.689 51.4462 75.837 51.3862 76.013 51.3862C76.181 51.3862 76.325 51.4462 76.445 51.5662C76.573 51.6862 76.637 51.8302 76.637 51.9982V60.1342C76.637 60.3022 76.573 60.4462 76.445 60.5662C76.325 60.6862 76.181 60.7462 76.013 60.7462C75.829 60.7462 75.669 60.6742 75.533 60.5302L70.313 53.8222V60.1342C70.313 60.3022 70.253 60.4462 70.133 60.5662C70.013 60.6862 69.865 60.7462 69.689 60.7462ZM78.173 57.8782C77.997 57.8782 77.849 57.8182 77.729 57.6982C77.617 57.5782 77.561 57.4302 77.561 57.2542C77.561 57.0782 77.617 56.9342 77.729 56.8222C77.849 56.7022 77.997 56.6422 78.173 56.6422H81.785C81.969 56.6422 82.117 56.7022 82.229 56.8222C82.341 56.9342 82.397 57.0782 82.397 57.2542C82.397 57.4302 82.341 57.5782 82.229 57.6982C82.117 57.8182 81.969 57.8782 81.785 57.8782H78.173ZM79.985 56.2342C79.537 56.2342 79.129 56.1262 78.761 55.9102C78.393 55.6862 78.101 55.3902 77.885 55.0222C77.669 54.6542 77.561 54.2502 77.561 53.8102C77.561 53.3702 77.669 52.9662 77.885 52.5982C78.101 52.2302 78.393 51.9382 78.761 51.7222C79.129 51.4982 79.537 51.3862 79.985 51.3862C80.433 51.3862 80.837 51.4982 81.197 51.7222C81.565 51.9382 81.857 52.2302 82.073 52.5982C82.289 52.9662 82.397 53.3702 82.397 53.8102C82.397 54.2502 82.289 54.6542 82.073 55.0222C81.857 55.3902 81.565 55.6862 81.197 55.9102C80.837 56.1262 80.433 56.2342 79.985 56.2342ZM79.985 54.9982C80.201 54.9982 80.397 54.9462 80.573 54.8422C80.749 54.7302 80.889 54.5862 80.993 54.4102C81.105 54.2262 81.161 54.0262 81.161 53.8102C81.161 53.5942 81.105 53.3982 80.993 53.2222C80.889 53.0382 80.745 52.8942 80.561 52.7902C80.385 52.6782 80.193 52.6222 79.985 52.6222C79.769 52.6222 79.569 52.6742 79.385 52.7782C79.209 52.8822 79.065 53.0262 78.953 53.2102C78.849 53.3862 78.797 53.5862 78.797 53.8102C78.797 54.0262 78.849 54.2262 78.953 54.4102C79.057 54.5862 79.197 54.7302 79.373 54.8422C79.557 54.9462 79.761 54.9982 79.985 54.9982ZM88.1838 60.7462C88.0238 60.7462 87.8878 60.6862 87.7758 60.5662C87.6638 60.4462 87.6078 60.3022 87.6078 60.1342V58.6222H83.6118C83.4278 58.6222 83.2838 58.5662 83.1798 58.4542C83.0758 58.3422 83.0158 58.2142 82.9998 58.0702C82.9918 57.9182 83.0318 57.7822 83.1198 57.6622L87.7158 51.6382C87.7798 51.5582 87.8518 51.4942 87.9318 51.4462C88.0198 51.3982 88.1158 51.3742 88.2198 51.3742C88.3878 51.3742 88.5238 51.4342 88.6278 51.5542C88.7318 51.6742 88.7838 51.8222 88.7838 51.9982V57.5182H89.5038C89.6718 57.5182 89.8158 57.5582 89.9358 57.6382C90.0558 57.7182 90.1158 57.8622 90.1158 58.0702C90.1158 58.2222 90.0558 58.3542 89.9358 58.4662C89.8158 58.5702 89.6718 58.6222 89.5038 58.6222H88.7838V60.1342C88.7838 60.3022 88.7278 60.4462 88.6158 60.5662C88.5038 60.6862 88.3598 60.7462 88.1838 60.7462ZM84.3318 57.8542L84.0078 57.5182H87.6078V52.5742L87.9798 53.0542L84.3318 57.8542Z" fill="white"/>
</svg>
