<svg width="224" height="384" viewBox="0 0 224 384" fill="none" xmlns="http://www.w3.org/2000/svg">
<path d="M0 0H223.793V39.8057H185.467V360.31H164.936V383.644H150.564V246.383H132.77V185.302H150.564V39.1194H121.82V43.2372H96.4977V37.0605H0V0Z" fill="#A73C4C"/>
<path d="M162.33 150.278C162.162 150.11 162.084 149.882 162.096 149.594C162.096 149.306 162.192 149.078 162.384 148.91L169.26 143.006L175.848 148.514C176.052 148.682 176.154 148.898 176.154 149.162C176.166 149.438 176.076 149.66 175.884 149.828C175.692 149.996 175.488 150.074 175.272 150.062C175.068 150.062 174.87 149.978 174.678 149.81L169.386 145.256L163.554 150.278C163.362 150.446 163.158 150.536 162.942 150.548C162.738 150.572 162.534 150.482 162.33 150.278ZM162.096 140.882C162.096 140.618 162.186 140.396 162.366 140.216C162.546 140.036 162.768 139.946 163.032 139.946L175.218 139.946C175.494 139.946 175.716 140.036 175.884 140.216C176.064 140.396 176.154 140.618 176.154 140.882C176.154 141.158 176.064 141.38 175.884 141.548C175.716 141.728 175.494 141.818 175.218 141.818L170.052 141.818L170.052 144.77L168.396 144.77L168.396 141.818L163.032 141.818C162.768 141.818 162.546 141.728 162.366 141.548C162.186 141.38 162.096 141.158 162.096 140.882ZM162.024 156.324C162.024 155.352 162.234 154.494 162.654 153.75C163.086 153.006 163.674 152.418 164.418 151.986C165.174 151.566 166.038 151.356 167.01 151.356C167.994 151.356 168.858 151.566 169.602 151.986C170.358 152.418 170.946 153.006 171.366 153.75C171.798 154.494 172.014 155.352 172.014 156.324C172.014 157.284 171.798 158.136 171.366 158.88C170.946 159.624 170.358 160.206 169.602 160.626C168.858 161.058 167.994 161.274 167.01 161.274C166.038 161.274 165.174 161.064 164.418 160.644C163.674 160.224 163.086 159.642 162.654 158.898C162.234 158.154 162.024 157.296 162.024 156.324ZM163.644 156.324C163.644 156.948 163.788 157.5 164.076 157.98C164.364 158.46 164.76 158.832 165.264 159.096C165.768 159.372 166.35 159.51 167.01 159.51C167.67 159.51 168.252 159.372 168.756 159.096C169.272 158.832 169.674 158.46 169.962 157.98C170.25 157.5 170.394 156.948 170.394 156.324C170.394 155.7 170.25 155.148 169.962 154.668C169.674 154.188 169.272 153.81 168.756 153.534C168.252 153.258 167.67 153.12 167.01 153.12C166.35 153.12 165.768 153.258 165.264 153.534C164.76 153.81 164.364 154.188 164.076 154.668C163.788 155.148 163.644 155.7 163.644 156.324ZM157.884 164.925C157.884 164.661 157.974 164.439 158.154 164.259C158.322 164.091 158.538 164.007 158.802 164.007L167.01 164.007C167.958 164.019 168.81 164.241 169.566 164.673C170.322 165.105 170.916 165.693 171.348 166.437C171.792 167.181 172.014 168.021 172.014 168.957C172.014 169.905 171.792 170.751 171.348 171.495C170.916 172.239 170.322 172.827 169.566 173.259C168.81 173.703 167.958 173.925 167.01 173.925C166.062 173.925 165.21 173.721 164.454 173.313C163.71 172.917 163.116 172.371 162.672 171.675C162.24 170.979 162.024 170.193 162.024 169.317C162.024 168.609 162.168 167.955 162.456 167.355C162.756 166.767 163.158 166.263 163.662 165.843L158.802 165.843C158.538 165.843 158.322 165.759 158.154 165.591C157.974 165.423 157.884 165.201 157.884 164.925ZM163.644 168.957C163.644 169.569 163.788 170.115 164.076 170.595C164.376 171.075 164.778 171.453 165.282 171.729C165.798 172.017 166.374 172.161 167.01 172.161C167.658 172.161 168.234 172.017 168.738 171.729C169.254 171.453 169.656 171.075 169.944 170.595C170.244 170.115 170.394 169.569 170.394 168.957C170.394 168.357 170.244 167.811 169.944 167.319C169.656 166.839 169.254 166.461 168.738 166.185C168.234 165.909 167.658 165.771 167.01 165.771C166.374 165.771 165.798 165.909 165.282 166.185C164.778 166.461 164.376 166.839 164.076 167.319C163.788 167.811 163.644 168.357 163.644 168.957ZM162.078 184.979C162.078 184.715 162.162 184.493 162.33 184.313C162.51 184.145 162.732 184.061 162.996 184.061L167.424 184.061C168.108 184.061 168.666 183.935 169.098 183.683C169.53 183.431 169.848 183.089 170.052 182.657C170.268 182.237 170.376 181.751 170.376 181.199C170.376 180.695 170.274 180.239 170.07 179.831C169.866 179.423 169.59 179.099 169.242 178.859C168.906 178.619 168.516 178.499 168.072 178.499L168.072 177.365C168.828 177.365 169.5 177.545 170.088 177.905C170.688 178.277 171.162 178.781 171.51 179.417C171.858 180.053 172.032 180.767 172.032 181.559C172.032 182.387 171.852 183.125 171.492 183.773C171.144 184.433 170.628 184.949 169.944 185.321C169.26 185.705 168.42 185.897 167.424 185.897L162.996 185.897C162.732 185.897 162.51 185.807 162.33 185.627C162.162 185.459 162.078 185.243 162.078 184.979ZM162.078 177.581C162.078 177.317 162.162 177.095 162.33 176.915C162.51 176.747 162.732 176.663 162.996 176.663L171.024 176.663C171.3 176.663 171.522 176.747 171.69 176.915C171.858 177.095 171.942 177.317 171.942 177.581C171.942 177.857 171.858 178.079 171.69 178.247C171.522 178.415 171.3 178.499 171.024 178.499L162.996 178.499C162.732 178.499 162.51 178.415 162.33 178.247C162.162 178.079 162.078 177.857 162.078 177.581ZM157.776 188.172C157.776 187.956 157.806 187.734 157.866 187.506C157.926 187.29 158.016 187.074 158.136 186.858C158.292 186.594 158.484 186.42 158.712 186.336C158.94 186.252 159.162 186.288 159.378 186.444C159.582 186.588 159.708 186.762 159.756 186.966C159.804 187.17 159.762 187.386 159.63 187.614C159.558 187.746 159.504 187.866 159.468 187.974C159.432 188.094 159.414 188.214 159.414 188.334C159.414 188.718 159.612 189.084 160.008 189.432C160.404 189.792 160.992 190.146 161.772 190.494L171.492 194.796C171.732 194.904 171.894 195.066 171.978 195.282C172.062 195.51 172.05 195.738 171.942 195.966C171.858 196.17 171.702 196.302 171.474 196.362C171.258 196.422 171.024 196.392 170.772 196.272L161.052 191.934C160.08 191.502 159.294 190.95 158.694 190.278C158.082 189.618 157.776 188.916 157.776 188.172ZM162.492 192.276C162.396 192.048 162.384 191.832 162.456 191.628C162.54 191.436 162.696 191.28 162.924 191.16L170.754 187.038C170.982 186.918 171.198 186.9 171.402 186.984C171.618 187.08 171.774 187.242 171.87 187.47C171.966 187.698 171.972 187.908 171.888 188.1C171.816 188.304 171.666 188.466 171.438 188.586L163.68 192.546C163.452 192.666 163.218 192.708 162.978 192.672C162.75 192.636 162.588 192.504 162.492 192.276ZM162.024 202.361C162.024 201.401 162.24 200.543 162.672 199.787C163.116 199.043 163.71 198.455 164.454 198.023C165.21 197.603 166.062 197.393 167.01 197.393C167.982 197.393 168.846 197.603 169.602 198.023C170.358 198.443 170.946 199.019 171.366 199.751C171.798 200.483 172.014 201.323 172.014 202.271C172.014 202.979 171.876 203.627 171.6 204.215C171.336 204.803 170.934 205.331 170.394 205.799C170.202 205.967 170.004 206.027 169.8 205.979C169.596 205.931 169.416 205.799 169.26 205.583C169.14 205.415 169.098 205.229 169.134 205.025C169.182 204.821 169.29 204.635 169.458 204.467C170.082 203.879 170.394 203.147 170.394 202.271C170.394 201.659 170.25 201.119 169.962 200.651C169.686 200.183 169.296 199.817 168.792 199.553C168.288 199.289 167.694 199.157 167.01 199.157C166.362 199.157 165.786 199.289 165.282 199.553C164.778 199.829 164.376 200.207 164.076 200.687C163.788 201.167 163.644 201.725 163.644 202.361C163.644 202.781 163.692 203.147 163.788 203.459C163.896 203.783 164.058 204.077 164.274 204.341C164.43 204.533 164.514 204.731 164.526 204.935C164.55 205.139 164.496 205.319 164.364 205.475C164.196 205.679 164.004 205.793 163.788 205.817C163.584 205.841 163.398 205.769 163.23 205.601C162.426 204.737 162.024 203.657 162.024 202.361ZM162.096 215.079C162.096 214.815 162.186 214.593 162.366 214.413C162.546 214.245 162.762 214.161 163.014 214.161L175.218 214.161C175.47 214.161 175.686 214.245 175.866 214.413C176.046 214.593 176.136 214.815 176.136 215.079C176.136 215.355 176.022 215.601 175.794 215.817L165.732 223.629L175.218 223.629C175.47 223.629 175.686 223.719 175.866 223.899C176.046 224.079 176.136 224.301 176.136 224.565C176.136 224.817 176.046 225.033 175.866 225.213C175.686 225.405 175.47 225.501 175.218 225.501L163.014 225.501C162.762 225.501 162.546 225.405 162.366 225.213C162.186 225.033 162.096 224.817 162.096 224.565C162.096 224.289 162.204 224.049 162.42 223.845L172.482 216.015L163.014 216.015C162.762 216.015 162.546 215.925 162.366 215.745C162.186 215.565 162.096 215.343 162.096 215.079ZM166.398 227.805C166.398 227.541 166.488 227.319 166.668 227.139C166.848 226.971 167.07 226.887 167.334 226.887C167.598 226.887 167.814 226.971 167.982 227.139C168.162 227.319 168.252 227.541 168.252 227.805L168.252 233.223C168.252 233.499 168.162 233.721 167.982 233.889C167.814 234.057 167.598 234.141 167.334 234.141C167.07 234.141 166.848 234.057 166.668 233.889C166.488 233.721 166.398 233.499 166.398 233.223L166.398 227.805ZM168.864 230.523C168.864 229.851 169.026 229.239 169.35 228.687C169.686 228.135 170.13 227.697 170.682 227.373C171.234 227.049 171.84 226.887 172.5 226.887C173.16 226.887 173.766 227.049 174.318 227.373C174.87 227.697 175.308 228.135 175.632 228.687C175.968 229.239 176.136 229.851 176.136 230.523C176.136 231.195 175.968 231.801 175.632 232.341C175.308 232.893 174.87 233.331 174.318 233.655C173.766 233.979 173.16 234.141 172.5 234.141C171.84 234.141 171.234 233.979 170.682 233.655C170.13 233.331 169.686 232.893 169.35 232.341C169.026 231.801 168.864 231.195 168.864 230.523ZM170.718 230.523C170.718 230.847 170.796 231.141 170.952 231.405C171.12 231.669 171.336 231.879 171.6 232.035C171.876 232.203 172.176 232.287 172.5 232.287C172.824 232.287 173.118 232.203 173.382 232.035C173.658 231.879 173.874 231.663 174.03 231.387C174.198 231.123 174.282 230.835 174.282 230.523C174.282 230.199 174.204 229.899 174.048 229.623C173.892 229.359 173.676 229.143 173.4 228.975C173.136 228.819 172.836 228.741 172.5 228.741C172.176 228.741 171.876 228.819 171.6 228.975C171.336 229.131 171.12 229.341 170.952 229.605C170.796 229.881 170.718 230.187 170.718 230.523ZM162.096 240.427C162.096 239.563 162.294 238.783 162.69 238.087C163.098 237.403 163.65 236.857 164.346 236.449C165.042 236.053 165.822 235.855 166.686 235.855C166.95 235.855 167.166 235.939 167.334 236.107C167.514 236.275 167.604 236.491 167.604 236.755C167.604 237.019 167.514 237.241 167.334 237.421C167.166 237.601 166.95 237.691 166.686 237.691C166.17 237.691 165.702 237.811 165.282 238.051C164.862 238.291 164.532 238.615 164.292 239.023C164.052 239.443 163.932 239.911 163.932 240.427C163.932 240.955 164.052 241.423 164.292 241.831C164.532 242.251 164.862 242.581 165.282 242.821C165.702 243.061 166.17 243.181 166.686 243.181C167.214 243.181 167.682 243.061 168.09 242.821C168.51 242.581 168.84 242.251 169.08 241.831C169.32 241.423 169.44 240.955 169.44 240.427L169.44 237.421C169.44 237.157 169.524 236.941 169.692 236.773C169.872 236.605 170.094 236.521 170.358 236.521L175.218 236.521C175.482 236.521 175.704 236.605 175.884 236.773C176.064 236.941 176.154 237.157 176.154 237.421L176.154 243.433C176.154 243.685 176.058 243.901 175.866 244.081C175.686 244.261 175.47 244.351 175.218 244.351C174.978 244.351 174.768 244.261 174.588 244.081C174.408 243.913 174.318 243.697 174.318 243.433L174.318 238.339L171.276 238.339L171.276 240.427C171.276 241.303 171.072 242.083 170.664 242.767C170.268 243.463 169.722 244.009 169.026 244.405C168.342 244.813 167.562 245.017 166.686 245.017C165.822 245.017 165.042 244.813 164.346 244.405C163.65 244.009 163.098 243.463 162.69 242.767C162.294 242.083 162.096 241.303 162.096 240.427Z" fill="white"/>
<path d="M65.6544 25.8161C65.4678 26.0028 65.2144 26.0894 64.8944 26.0761C64.5744 26.0761 64.3211 25.9694 64.1344 25.7561L57.5744 18.1161L63.6944 10.7961C63.8811 10.5694 64.1211 10.4561 64.4144 10.4561C64.7211 10.4428 64.9678 10.5428 65.1544 10.7561C65.3411 10.9694 65.4278 11.1961 65.4144 11.4361C65.4144 11.6628 65.3211 11.8828 65.1344 12.0961L60.0744 17.9761L65.6544 24.4561C65.8411 24.6694 65.9411 24.8961 65.9544 25.1361C65.9811 25.3628 65.8811 25.5894 65.6544 25.8161ZM55.2144 26.0761C54.9211 26.0761 54.6744 25.9761 54.4744 25.7761C54.2744 25.5761 54.1744 25.3294 54.1744 25.0361V11.4961C54.1744 11.1894 54.2744 10.9428 54.4744 10.7561C54.6744 10.5561 54.9211 10.4561 55.2144 10.4561C55.5211 10.4561 55.7678 10.5561 55.9544 10.7561C56.1544 10.9428 56.2544 11.1894 56.2544 11.4961V17.2361H59.5344V19.0761H56.2544V25.0361C56.2544 25.3294 56.1544 25.5761 55.9544 25.7761C55.7678 25.9761 55.5211 26.0761 55.2144 26.0761ZM72.3719 26.1561C71.2919 26.1561 70.3386 25.9228 69.5119 25.4561C68.6853 24.9761 68.0319 24.3228 67.5519 23.4961C67.0853 22.6561 66.8519 21.6961 66.8519 20.6161C66.8519 19.5228 67.0853 18.5628 67.5519 17.7361C68.0319 16.8961 68.6853 16.2428 69.5119 15.7761C70.3386 15.2961 71.2919 15.0561 72.3719 15.0561C73.4386 15.0561 74.3853 15.2961 75.2119 15.7761C76.0386 16.2428 76.6853 16.8961 77.1519 17.7361C77.6319 18.5628 77.8719 19.5228 77.8719 20.6161C77.8719 21.6961 77.6386 22.6561 77.1719 23.4961C76.7053 24.3228 76.0586 24.9761 75.2319 25.4561C74.4053 25.9228 73.4519 26.1561 72.3719 26.1561ZM72.3719 24.3561C73.0653 24.3561 73.6786 24.1961 74.2119 23.8761C74.7453 23.5561 75.1586 23.1161 75.4519 22.5561C75.7586 21.9961 75.9119 21.3494 75.9119 20.6161C75.9119 19.8828 75.7586 19.2361 75.4519 18.6761C75.1586 18.1028 74.7453 17.6561 74.2119 17.3361C73.6786 17.0161 73.0653 16.8561 72.3719 16.8561C71.6786 16.8561 71.0653 17.0161 70.5319 17.3361C69.9986 17.6561 69.5786 18.1028 69.2719 18.6761C68.9653 19.2361 68.8119 19.8828 68.8119 20.6161C68.8119 21.3494 68.9653 21.9961 69.2719 22.5561C69.5786 23.1161 69.9986 23.5561 70.5319 23.8761C71.0653 24.1961 71.6786 24.3561 72.3719 24.3561ZM81.928 30.7561C81.6347 30.7561 81.388 30.6561 81.188 30.4561C81.0014 30.2694 80.908 30.0294 80.908 29.7361V20.6161C80.9214 19.5628 81.168 18.6161 81.648 17.7761C82.128 16.9361 82.7814 16.2761 83.608 15.7961C84.4347 15.3028 85.368 15.0561 86.408 15.0561C87.4614 15.0561 88.4014 15.3028 89.228 15.7961C90.0547 16.2761 90.708 16.9361 91.188 17.7761C91.6814 18.6161 91.928 19.5628 91.928 20.6161C91.928 21.6694 91.7014 22.6161 91.248 23.4561C90.808 24.2828 90.2014 24.9428 89.428 25.4361C88.6547 25.9161 87.7814 26.1561 86.808 26.1561C86.0214 26.1561 85.2947 25.9961 84.628 25.6761C83.9747 25.3428 83.4147 24.8961 82.948 24.3361V29.7361C82.948 30.0294 82.8547 30.2694 82.668 30.4561C82.4814 30.6561 82.2347 30.7561 81.928 30.7561ZM86.408 24.3561C87.088 24.3561 87.6947 24.1961 88.228 23.8761C88.7614 23.5428 89.1814 23.0961 89.488 22.5361C89.808 21.9628 89.968 21.3228 89.968 20.6161C89.968 19.8961 89.808 19.2561 89.488 18.6961C89.1814 18.1228 88.7614 17.6761 88.228 17.3561C87.6947 17.0228 87.088 16.8561 86.408 16.8561C85.7414 16.8561 85.1347 17.0228 84.588 17.3561C84.0547 17.6761 83.6347 18.1228 83.328 18.6961C83.0214 19.2561 82.868 19.8961 82.868 20.6161C82.868 21.3228 83.0214 21.9628 83.328 22.5361C83.6347 23.0961 84.0547 23.5428 84.588 23.8761C85.1347 24.1961 85.7414 24.3561 86.408 24.3561ZM104.211 26.0961C103.917 26.0961 103.671 26.0028 103.471 25.8161C103.284 25.6161 103.191 25.3694 103.191 25.0761V20.1561C103.191 19.3961 103.051 18.7761 102.771 18.2961C102.491 17.8161 102.111 17.4628 101.631 17.2361C101.164 16.9961 100.624 16.8761 100.011 16.8761C99.4505 16.8761 98.9439 16.9894 98.4905 17.2161C98.0372 17.4428 97.6772 17.7494 97.4105 18.1361C97.1439 18.5094 97.0105 18.9428 97.0105 19.4361H95.7505C95.7505 18.5961 95.9505 17.8494 96.3505 17.1961C96.7639 16.5294 97.3239 16.0028 98.0305 15.6161C98.7372 15.2294 99.5305 15.0361 100.411 15.0361C101.331 15.0361 102.151 15.2361 102.871 15.6361C103.604 16.0228 104.177 16.5961 104.591 17.3561C105.017 18.1161 105.231 19.0494 105.231 20.1561V25.0761C105.231 25.3694 105.131 25.6161 104.931 25.8161C104.744 26.0028 104.504 26.0961 104.211 26.0961ZM95.9905 26.0961C95.6972 26.0961 95.4505 26.0028 95.2505 25.8161C95.0639 25.6161 94.9705 25.3694 94.9705 25.0761V16.1561C94.9705 15.8494 95.0639 15.6028 95.2505 15.4161C95.4505 15.2294 95.6972 15.1361 95.9905 15.1361C96.2972 15.1361 96.5439 15.2294 96.7305 15.4161C96.9172 15.6028 97.0105 15.8494 97.0105 16.1561V25.0761C97.0105 25.3694 96.9172 25.6161 96.7305 25.8161C96.5439 26.0028 96.2972 26.0961 95.9905 26.0961ZM107.758 30.8761C107.518 30.8761 107.271 30.8428 107.018 30.7761C106.778 30.7094 106.538 30.6094 106.298 30.4761C106.005 30.3028 105.811 30.0894 105.718 29.8361C105.625 29.5828 105.665 29.3361 105.838 29.0961C105.998 28.8694 106.191 28.7294 106.418 28.6761C106.645 28.6228 106.885 28.6694 107.138 28.8161C107.285 28.8961 107.418 28.9561 107.538 28.9961C107.671 29.0361 107.805 29.0561 107.938 29.0561C108.365 29.0561 108.771 28.8361 109.158 28.3961C109.558 27.9561 109.951 27.3028 110.338 26.4361L115.118 15.6361C115.238 15.3694 115.418 15.1894 115.658 15.0961C115.911 15.0028 116.165 15.0161 116.418 15.1361C116.645 15.2294 116.791 15.4028 116.858 15.6561C116.925 15.8961 116.891 16.1561 116.758 16.4361L111.938 27.2361C111.458 28.3161 110.845 29.1894 110.098 29.8561C109.365 30.5361 108.585 30.8761 107.758 30.8761ZM112.318 25.6361C112.065 25.7428 111.825 25.7561 111.598 25.6761C111.385 25.5828 111.211 25.4094 111.078 25.1561L106.498 16.4561C106.365 16.2028 106.345 15.9628 106.438 15.7361C106.545 15.4961 106.725 15.3228 106.978 15.2161C107.231 15.1094 107.465 15.1028 107.678 15.1961C107.905 15.2761 108.085 15.4428 108.218 15.6961L112.618 24.3161C112.751 24.5694 112.798 24.8294 112.758 25.0961C112.718 25.3494 112.571 25.5294 112.318 25.6361ZM123.524 26.1561C122.458 26.1561 121.504 25.9161 120.664 25.4361C119.838 24.9428 119.184 24.2828 118.704 23.4561C118.238 22.6161 118.004 21.6694 118.004 20.6161C118.004 19.5361 118.238 18.5761 118.704 17.7361C119.171 16.8961 119.811 16.2428 120.624 15.7761C121.438 15.2961 122.371 15.0561 123.424 15.0561C124.211 15.0561 124.931 15.2094 125.584 15.5161C126.238 15.8094 126.824 16.2561 127.344 16.8561C127.531 17.0694 127.598 17.2894 127.544 17.5161C127.491 17.7428 127.344 17.9428 127.104 18.1161C126.918 18.2494 126.711 18.2961 126.484 18.2561C126.258 18.2028 126.051 18.0828 125.864 17.8961C125.211 17.2028 124.398 16.8561 123.424 16.8561C122.744 16.8561 122.144 17.0161 121.624 17.3361C121.104 17.6428 120.698 18.0761 120.404 18.6361C120.111 19.1961 119.964 19.8561 119.964 20.6161C119.964 21.3361 120.111 21.9761 120.404 22.5361C120.711 23.0961 121.131 23.5428 121.664 23.8761C122.198 24.1961 122.818 24.3561 123.524 24.3561C123.991 24.3561 124.398 24.3028 124.744 24.1961C125.104 24.0761 125.431 23.8961 125.724 23.6561C125.938 23.4828 126.158 23.3894 126.384 23.3761C126.611 23.3494 126.811 23.4094 126.984 23.5561C127.211 23.7428 127.338 23.9561 127.364 24.1961C127.391 24.4228 127.311 24.6294 127.124 24.8161C126.164 25.7094 124.964 26.1561 123.524 26.1561ZM137.655 26.0761C137.362 26.0761 137.115 25.9761 136.915 25.7761C136.729 25.5761 136.635 25.3361 136.635 25.0561V11.4961C136.635 11.2161 136.729 10.9761 136.915 10.7761C137.115 10.5761 137.362 10.4761 137.655 10.4761C137.962 10.4761 138.235 10.6028 138.475 10.8561L147.155 22.0361V11.4961C147.155 11.2161 147.255 10.9761 147.455 10.7761C147.655 10.5761 147.902 10.4761 148.195 10.4761C148.475 10.4761 148.715 10.5761 148.915 10.7761C149.129 10.9761 149.235 11.2161 149.235 11.4961V25.0561C149.235 25.3361 149.129 25.5761 148.915 25.7761C148.715 25.9761 148.475 26.0761 148.195 26.0761C147.889 26.0761 147.622 25.9561 147.395 25.7161L138.695 14.5361V25.0561C138.695 25.3361 138.595 25.5761 138.395 25.7761C138.195 25.9761 137.949 26.0761 137.655 26.0761ZM151.795 21.2961C151.502 21.2961 151.255 21.1961 151.055 20.9961C150.869 20.7961 150.775 20.5494 150.775 20.2561C150.775 19.9628 150.869 19.7228 151.055 19.5361C151.255 19.3361 151.502 19.2361 151.795 19.2361L157.815 19.2361C158.122 19.2361 158.369 19.3361 158.555 19.5361C158.742 19.7228 158.835 19.9628 158.835 20.2561C158.835 20.5494 158.742 20.7961 158.555 20.9961C158.369 21.1961 158.122 21.2961 157.815 21.2961L151.795 21.2961ZM154.815 18.5561C154.069 18.5561 153.389 18.3761 152.775 18.0161C152.162 17.6428 151.675 17.1494 151.315 16.5361C150.955 15.9228 150.775 15.2494 150.775 14.5161C150.775 13.7828 150.955 13.1094 151.315 12.4961C151.675 11.8828 152.162 11.3961 152.775 11.0361C153.389 10.6628 154.069 10.4761 154.815 10.4761C155.562 10.4761 156.235 10.6628 156.835 11.0361C157.449 11.3961 157.935 11.8828 158.295 12.4961C158.655 13.1094 158.835 13.7828 158.835 14.5161C158.835 15.2494 158.655 15.9228 158.295 16.5361C157.935 17.1494 157.449 17.6428 156.835 18.0161C156.235 18.3761 155.562 18.5561 154.815 18.5561ZM154.815 16.4961C155.175 16.4961 155.502 16.4094 155.795 16.2361C156.089 16.0494 156.322 15.8094 156.495 15.5161C156.682 15.2094 156.775 14.8761 156.775 14.5161C156.775 14.1561 156.682 13.8294 156.495 13.5361C156.322 13.2294 156.082 12.9894 155.775 12.8161C155.482 12.6294 155.162 12.5361 154.815 12.5361C154.455 12.5361 154.122 12.6228 153.815 12.7961C153.522 12.9694 153.282 13.2094 153.095 13.5161C152.922 13.8094 152.835 14.1428 152.835 14.5161C152.835 14.8761 152.922 15.2094 153.095 15.5161C153.269 15.8094 153.502 16.0494 153.795 16.2361C154.102 16.4094 154.442 16.4961 154.815 16.4961ZM165.82 26.0761C164.86 26.0761 163.993 25.8561 163.22 25.4161C162.46 24.9628 161.853 24.3494 161.4 23.5761C160.96 22.8028 160.74 21.9361 160.74 20.9761C160.74 20.6828 160.833 20.4428 161.02 20.2561C161.207 20.0561 161.447 19.9561 161.74 19.9561C162.033 19.9561 162.28 20.0561 162.48 20.2561C162.68 20.4428 162.78 20.6828 162.78 20.9761C162.78 21.5494 162.913 22.0694 163.18 22.5361C163.447 23.0028 163.807 23.3694 164.26 23.6361C164.727 23.9028 165.247 24.0361 165.82 24.0361C166.407 24.0361 166.927 23.9028 167.38 23.6361C167.847 23.3694 168.213 23.0028 168.48 22.5361C168.747 22.0694 168.88 21.5494 168.88 20.9761C168.88 20.3894 168.747 19.8694 168.48 19.4161C168.213 18.9494 167.847 18.5828 167.38 18.3161C166.927 18.0494 166.407 17.9161 165.82 17.9161H162.48C162.187 17.9161 161.947 17.8228 161.76 17.6361C161.573 17.4361 161.48 17.1894 161.48 16.8961V11.4961C161.48 11.2028 161.573 10.9561 161.76 10.7561C161.947 10.5561 162.187 10.4561 162.48 10.4561H169.16C169.44 10.4561 169.68 10.5628 169.88 10.7761C170.08 10.9761 170.18 11.2161 170.18 11.4961C170.18 11.7628 170.08 11.9961 169.88 12.1961C169.693 12.3961 169.453 12.4961 169.16 12.4961H163.5V15.8761H165.82C166.793 15.8761 167.66 16.1028 168.42 16.5561C169.193 16.9961 169.8 17.6028 170.24 18.3761C170.693 19.1361 170.92 20.0028 170.92 20.9761C170.92 21.9361 170.693 22.8028 170.24 23.5761C169.8 24.3494 169.193 24.9628 168.42 25.4161C167.66 25.8561 166.793 26.0761 165.82 26.0761Z" fill="white"/>
</svg>
