<svg width="184" height="141" viewBox="0 0 184 141" fill="none" xmlns="http://www.w3.org/2000/svg">
<path d="M19.9023 9.95117H32.3418V7.96094H175.142V22.8877H183.103V40.7998H176.634V140.81H159.717V128.371H147.278V135.834H0V99.0146H3.4834V0H19.9023V9.95117ZM49.2578 36.3223V105.98H130.36V36.3223H49.2578Z" fill="#A73C4C"/>
<path d="M56.1857 125.417C56.0457 125.557 55.8557 125.622 55.6157 125.612C55.3757 125.612 55.1857 125.532 55.0457 125.372L50.1257 119.642L54.7157 114.152C54.8557 113.982 55.0357 113.897 55.2557 113.897C55.4857 113.887 55.6707 113.962 55.8107 114.122C55.9507 114.282 56.0157 114.452 56.0057 114.632C56.0057 114.802 55.9357 114.967 55.7957 115.127L52.0007 119.537L56.1857 124.397C56.3257 124.557 56.4007 124.727 56.4107 124.907C56.4307 125.077 56.3557 125.247 56.1857 125.417ZM48.3557 125.612C48.1357 125.612 47.9507 125.537 47.8007 125.387C47.6507 125.237 47.5757 125.052 47.5757 124.832V114.677C47.5757 114.447 47.6507 114.262 47.8007 114.122C47.9507 113.972 48.1357 113.897 48.3557 113.897C48.5857 113.897 48.7707 113.972 48.9107 114.122C49.0607 114.262 49.1357 114.447 49.1357 114.677V118.982H51.5957V120.362H49.1357V124.832C49.1357 125.052 49.0607 125.237 48.9107 125.387C48.7707 125.537 48.5857 125.612 48.3557 125.612ZM61.2239 125.672C60.4139 125.672 59.6989 125.497 59.0789 125.147C58.4589 124.787 57.9689 124.297 57.6089 123.677C57.2589 123.047 57.0839 122.327 57.0839 121.517C57.0839 120.697 57.2589 119.977 57.6089 119.357C57.9689 118.727 58.4589 118.237 59.0789 117.887C59.6989 117.527 60.4139 117.347 61.2239 117.347C62.0239 117.347 62.7339 117.527 63.3539 117.887C63.9739 118.237 64.4589 118.727 64.8089 119.357C65.1689 119.977 65.3489 120.697 65.3489 121.517C65.3489 122.327 65.1739 123.047 64.8239 123.677C64.4739 124.297 63.9889 124.787 63.3689 125.147C62.7489 125.497 62.0339 125.672 61.2239 125.672ZM61.2239 124.322C61.7439 124.322 62.2039 124.202 62.6039 123.962C63.0039 123.722 63.3139 123.392 63.5339 122.972C63.7639 122.552 63.8789 122.067 63.8789 121.517C63.8789 120.967 63.7639 120.482 63.5339 120.062C63.3139 119.632 63.0039 119.297 62.6039 119.057C62.2039 118.817 61.7439 118.697 61.2239 118.697C60.7039 118.697 60.2439 118.817 59.8439 119.057C59.4439 119.297 59.1289 119.632 58.8989 120.062C58.6689 120.482 58.5539 120.967 58.5539 121.517C58.5539 122.067 58.6689 122.552 58.8989 122.972C59.1289 123.392 59.4439 123.722 59.8439 123.962C60.2439 124.202 60.7039 124.322 61.2239 124.322ZM68.3909 129.122C68.1709 129.122 67.9859 129.047 67.8359 128.897C67.6959 128.757 67.6259 128.577 67.6259 128.357V121.517C67.6359 120.727 67.8209 120.017 68.1809 119.387C68.5409 118.757 69.0309 118.262 69.6509 117.902C70.2709 117.532 70.9709 117.347 71.7509 117.347C72.5409 117.347 73.2459 117.532 73.8659 117.902C74.4859 118.262 74.9759 118.757 75.3359 119.387C75.7059 120.017 75.8909 120.727 75.8909 121.517C75.8909 122.307 75.7209 123.017 75.3809 123.647C75.0509 124.267 74.5959 124.762 74.0159 125.132C73.4359 125.492 72.7809 125.672 72.0509 125.672C71.4609 125.672 70.9159 125.552 70.4159 125.312C69.9259 125.062 69.5059 124.727 69.1559 124.307V128.357C69.1559 128.577 69.0859 128.757 68.9459 128.897C68.8059 129.047 68.6209 129.122 68.3909 129.122ZM71.7509 124.322C72.2609 124.322 72.7159 124.202 73.1159 123.962C73.5159 123.712 73.8309 123.377 74.0609 122.957C74.3009 122.527 74.4209 122.047 74.4209 121.517C74.4209 120.977 74.3009 120.497 74.0609 120.077C73.8309 119.647 73.5159 119.312 73.1159 119.072C72.7159 118.822 72.2609 118.697 71.7509 118.697C71.2509 118.697 70.7959 118.822 70.3859 119.072C69.9859 119.312 69.6709 119.647 69.4409 120.077C69.2109 120.497 69.0959 120.977 69.0959 121.517C69.0959 122.047 69.2109 122.527 69.4409 122.957C69.6709 123.377 69.9859 123.712 70.3859 123.962C70.7959 124.202 71.2509 124.322 71.7509 124.322ZM85.1028 125.627C84.8828 125.627 84.6978 125.557 84.5478 125.417C84.4078 125.267 84.3378 125.082 84.3378 124.862V121.172C84.3378 120.602 84.2328 120.137 84.0228 119.777C83.8128 119.417 83.5278 119.152 83.1678 118.982C82.8178 118.802 82.4128 118.712 81.9528 118.712C81.5328 118.712 81.1528 118.797 80.8128 118.967C80.4728 119.137 80.2028 119.367 80.0028 119.657C79.8028 119.937 79.7028 120.262 79.7028 120.632H78.7578C78.7578 120.002 78.9078 119.442 79.2078 118.952C79.5178 118.452 79.9378 118.057 80.4678 117.767C80.9978 117.477 81.5928 117.332 82.2528 117.332C82.9428 117.332 83.5578 117.482 84.0978 117.782C84.6478 118.072 85.0778 118.502 85.3878 119.072C85.7078 119.642 85.8678 120.342 85.8678 121.172V124.862C85.8678 125.082 85.7928 125.267 85.6428 125.417C85.5028 125.557 85.3228 125.627 85.1028 125.627ZM78.9378 125.627C78.7178 125.627 78.5328 125.557 78.3828 125.417C78.2428 125.267 78.1728 125.082 78.1728 124.862V118.172C78.1728 117.942 78.2428 117.757 78.3828 117.617C78.5328 117.477 78.7178 117.407 78.9378 117.407C79.1678 117.407 79.3528 117.477 79.4928 117.617C79.6328 117.757 79.7028 117.942 79.7028 118.172V124.862C79.7028 125.082 79.6328 125.267 79.4928 125.417C79.3528 125.557 79.1678 125.627 78.9378 125.627ZM87.7633 129.212C87.5833 129.212 87.3983 129.187 87.2083 129.137C87.0283 129.087 86.8483 129.012 86.6683 128.912C86.4483 128.782 86.3033 128.622 86.2333 128.432C86.1633 128.242 86.1933 128.057 86.3233 127.877C86.4433 127.707 86.5883 127.602 86.7583 127.562C86.9283 127.522 87.1083 127.557 87.2983 127.667C87.4083 127.727 87.5083 127.772 87.5983 127.802C87.6983 127.832 87.7983 127.847 87.8983 127.847C88.2183 127.847 88.5233 127.682 88.8133 127.352C89.1133 127.022 89.4083 126.532 89.6983 125.882L93.2833 117.782C93.3733 117.582 93.5083 117.447 93.6883 117.377C93.8783 117.307 94.0683 117.317 94.2583 117.407C94.4283 117.477 94.5383 117.607 94.5883 117.797C94.6383 117.977 94.6133 118.172 94.5133 118.382L90.8983 126.482C90.5383 127.292 90.0783 127.947 89.5183 128.447C88.9683 128.957 88.3833 129.212 87.7633 129.212ZM91.1833 125.282C90.9933 125.362 90.8133 125.372 90.6433 125.312C90.4833 125.242 90.3533 125.112 90.2533 124.922L86.8183 118.397C86.7183 118.207 86.7033 118.027 86.7733 117.857C86.8533 117.677 86.9883 117.547 87.1783 117.467C87.3683 117.387 87.5433 117.382 87.7033 117.452C87.8733 117.512 88.0083 117.637 88.1083 117.827L91.4083 124.292C91.5083 124.482 91.5433 124.677 91.5133 124.877C91.4833 125.067 91.3733 125.202 91.1833 125.282ZM99.5881 125.672C98.7881 125.672 98.0731 125.492 97.4431 125.132C96.8231 124.762 96.3331 124.267 95.9731 123.647C95.6231 123.017 95.4481 122.307 95.4481 121.517C95.4481 120.707 95.6231 119.987 95.9731 119.357C96.3231 118.727 96.8031 118.237 97.4131 117.887C98.0231 117.527 98.7231 117.347 99.5131 117.347C100.103 117.347 100.643 117.462 101.133 117.692C101.623 117.912 102.063 118.247 102.453 118.697C102.593 118.857 102.643 119.022 102.603 119.192C102.563 119.362 102.453 119.512 102.273 119.642C102.133 119.742 101.978 119.777 101.808 119.747C101.638 119.707 101.483 119.617 101.343 119.477C100.853 118.957 100.243 118.697 99.5131 118.697C99.0031 118.697 98.5531 118.817 98.1631 119.057C97.7731 119.287 97.4681 119.612 97.2481 120.032C97.0281 120.452 96.9181 120.947 96.9181 121.517C96.9181 122.057 97.0281 122.537 97.2481 122.957C97.4781 123.377 97.7931 123.712 98.1931 123.962C98.5931 124.202 99.0581 124.322 99.5881 124.322C99.9381 124.322 100.243 124.282 100.503 124.202C100.773 124.112 101.018 123.977 101.238 123.797C101.398 123.667 101.563 123.597 101.733 123.587C101.903 123.567 102.053 123.612 102.183 123.722C102.353 123.862 102.448 124.022 102.468 124.202C102.488 124.372 102.428 124.527 102.288 124.667C101.568 125.337 100.668 125.672 99.5881 125.672ZM110.186 125.612C109.966 125.612 109.781 125.537 109.631 125.387C109.491 125.237 109.421 125.057 109.421 124.847V114.677C109.421 114.467 109.491 114.287 109.631 114.137C109.781 113.987 109.966 113.912 110.186 113.912C110.416 113.912 110.621 114.007 110.801 114.197L117.311 122.582V114.677C117.311 114.467 117.386 114.287 117.536 114.137C117.686 113.987 117.871 113.912 118.091 113.912C118.301 113.912 118.481 113.987 118.631 114.137C118.791 114.287 118.871 114.467 118.871 114.677V124.847C118.871 125.057 118.791 125.237 118.631 125.387C118.481 125.537 118.301 125.612 118.091 125.612C117.861 125.612 117.661 125.522 117.491 125.342L110.966 116.957V124.847C110.966 125.057 110.891 125.237 110.741 125.387C110.591 125.537 110.406 125.612 110.186 125.612ZM120.791 122.027C120.571 122.027 120.386 121.952 120.236 121.802C120.096 121.652 120.026 121.467 120.026 121.247C120.026 121.027 120.096 120.847 120.236 120.707C120.386 120.557 120.571 120.482 120.791 120.482H125.306C125.536 120.482 125.721 120.557 125.861 120.707C126.001 120.847 126.071 121.027 126.071 121.247C126.071 121.467 126.001 121.652 125.861 121.802C125.721 121.952 125.536 122.027 125.306 122.027H120.791ZM123.056 119.972C122.496 119.972 121.986 119.837 121.526 119.567C121.066 119.287 120.701 118.917 120.431 118.457C120.161 117.997 120.026 117.492 120.026 116.942C120.026 116.392 120.161 115.887 120.431 115.427C120.701 114.967 121.066 114.602 121.526 114.332C121.986 114.052 122.496 113.912 123.056 113.912C123.616 113.912 124.121 114.052 124.571 114.332C125.031 114.602 125.396 114.967 125.666 115.427C125.936 115.887 126.071 116.392 126.071 116.942C126.071 117.492 125.936 117.997 125.666 118.457C125.396 118.917 125.031 119.287 124.571 119.567C124.121 119.837 123.616 119.972 123.056 119.972ZM123.056 118.427C123.326 118.427 123.571 118.362 123.791 118.232C124.011 118.092 124.186 117.912 124.316 117.692C124.456 117.462 124.526 117.212 124.526 116.942C124.526 116.672 124.456 116.427 124.316 116.207C124.186 115.977 124.006 115.797 123.776 115.667C123.556 115.527 123.316 115.457 123.056 115.457C122.786 115.457 122.536 115.522 122.306 115.652C122.086 115.782 121.906 115.962 121.766 116.192C121.636 116.412 121.571 116.662 121.571 116.942C121.571 117.212 121.636 117.462 121.766 117.692C121.896 117.912 122.071 118.092 122.291 118.232C122.521 118.362 122.776 118.427 123.056 118.427ZM131.04 125.612C130.35 125.612 129.735 125.462 129.195 125.162C128.665 124.852 128.25 124.432 127.95 123.902C127.65 123.362 127.5 122.747 127.5 122.057C127.5 121.357 127.65 120.742 127.95 120.212C128.25 119.672 128.665 119.252 129.195 118.952C129.735 118.642 130.35 118.487 131.04 118.487C131.73 118.487 132.34 118.642 132.87 118.952C133.4 119.252 133.815 119.672 134.115 120.212C134.415 120.742 134.565 121.357 134.565 122.057C134.565 122.747 134.415 123.362 134.115 123.902C133.815 124.432 133.4 124.852 132.87 125.162C132.34 125.462 131.73 125.612 131.04 125.612ZM131.025 124.262C131.435 124.262 131.795 124.172 132.105 123.992C132.425 123.802 132.675 123.542 132.855 123.212C133.035 122.872 133.125 122.487 133.125 122.057C133.125 121.617 133.035 121.232 132.855 120.902C132.675 120.572 132.425 120.312 132.105 120.122C131.795 119.932 131.435 119.837 131.025 119.837C130.615 119.837 130.25 119.932 129.93 120.122C129.62 120.312 129.375 120.572 129.195 120.902C129.025 121.232 128.94 121.617 128.94 122.057C128.94 122.487 129.025 122.872 129.195 123.212C129.375 123.542 129.62 123.802 129.93 123.992C130.25 124.172 130.615 124.262 131.025 124.262ZM127.995 120.137L131.475 114.332C131.655 114.052 131.885 113.912 132.165 113.912C132.375 113.912 132.55 113.972 132.69 114.092C132.83 114.212 132.915 114.362 132.945 114.542C132.985 114.722 132.95 114.902 132.84 115.082L130.71 118.622L127.995 120.137Z" fill="white"/>
<path d="M56.1857 27.4172C56.0457 27.5572 55.8557 27.6222 55.6157 27.6122C55.3757 27.6122 55.1857 27.5322 55.0457 27.3722L50.1257 21.6422L54.7157 16.1522C54.8557 15.9822 55.0357 15.8972 55.2557 15.8972C55.4857 15.8872 55.6707 15.9622 55.8107 16.1222C55.9507 16.2822 56.0157 16.4522 56.0057 16.6322C56.0057 16.8022 55.9357 16.9672 55.7957 17.1272L52.0007 21.5372L56.1857 26.3972C56.3257 26.5572 56.4007 26.7272 56.4107 26.9072C56.4307 27.0772 56.3557 27.2472 56.1857 27.4172ZM48.3557 27.6122C48.1357 27.6122 47.9507 27.5372 47.8007 27.3872C47.6507 27.2372 47.5757 27.0522 47.5757 26.8322V16.6772C47.5757 16.4472 47.6507 16.2622 47.8007 16.1222C47.9507 15.9722 48.1357 15.8972 48.3557 15.8972C48.5857 15.8972 48.7707 15.9722 48.9107 16.1222C49.0607 16.2622 49.1357 16.4472 49.1357 16.6772V20.9822L51.5957 20.9822V22.3622L49.1357 22.3622V26.8322C49.1357 27.0522 49.0607 27.2372 48.9107 27.3872C48.7707 27.5372 48.5857 27.6122 48.3557 27.6122ZM61.2239 27.6722C60.4139 27.6722 59.6989 27.4972 59.0789 27.1472C58.4589 26.7872 57.9689 26.2972 57.6089 25.6772C57.2589 25.0472 57.0839 24.3272 57.0839 23.5172C57.0839 22.6972 57.2589 21.9772 57.6089 21.3572C57.9689 20.7272 58.4589 20.2372 59.0789 19.8872C59.6989 19.5272 60.4139 19.3472 61.2239 19.3472C62.0239 19.3472 62.7339 19.5272 63.3539 19.8872C63.9739 20.2372 64.4589 20.7272 64.8089 21.3572C65.1689 21.9772 65.3489 22.6972 65.3489 23.5172C65.3489 24.3272 65.1739 25.0472 64.8239 25.6772C64.4739 26.2972 63.9889 26.7872 63.3689 27.1472C62.7489 27.4972 62.0339 27.6722 61.2239 27.6722ZM61.2239 26.3222C61.7439 26.3222 62.2039 26.2022 62.6039 25.9622C63.0039 25.7222 63.3139 25.3922 63.5339 24.9722C63.7639 24.5522 63.8789 24.0672 63.8789 23.5172C63.8789 22.9672 63.7639 22.4822 63.5339 22.0622C63.3139 21.6322 63.0039 21.2972 62.6039 21.0572C62.2039 20.8172 61.7439 20.6972 61.2239 20.6972C60.7039 20.6972 60.2439 20.8172 59.8439 21.0572C59.4439 21.2972 59.1289 21.6322 58.8989 22.0622C58.6689 22.4822 58.5539 22.9672 58.5539 23.5172C58.5539 24.0672 58.6689 24.5522 58.8989 24.9722C59.1289 25.3922 59.4439 25.7222 59.8439 25.9622C60.2439 26.2022 60.7039 26.3222 61.2239 26.3222ZM68.3909 31.1222C68.1709 31.1222 67.9859 31.0472 67.8359 30.8972C67.6959 30.7572 67.6259 30.5772 67.6259 30.3572V23.5172C67.6359 22.7272 67.8209 22.0172 68.1809 21.3872C68.5409 20.7572 69.0309 20.2622 69.6509 19.9022C70.2709 19.5322 70.9709 19.3472 71.7509 19.3472C72.5409 19.3472 73.2459 19.5322 73.8659 19.9022C74.4859 20.2622 74.9759 20.7572 75.3359 21.3872C75.7059 22.0172 75.8909 22.7272 75.8909 23.5172C75.8909 24.3072 75.7209 25.0172 75.3809 25.6472C75.0509 26.2672 74.5959 26.7622 74.0159 27.1322C73.4359 27.4922 72.7809 27.6722 72.0509 27.6722C71.4609 27.6722 70.9159 27.5522 70.4159 27.3122C69.9259 27.0622 69.5059 26.7272 69.1559 26.3072V30.3572C69.1559 30.5772 69.0859 30.7572 68.9459 30.8972C68.8059 31.0472 68.6209 31.1222 68.3909 31.1222ZM71.7509 26.3222C72.2609 26.3222 72.7159 26.2022 73.1159 25.9622C73.5159 25.7122 73.8309 25.3772 74.0609 24.9572C74.3009 24.5272 74.4209 24.0472 74.4209 23.5172C74.4209 22.9772 74.3009 22.4972 74.0609 22.0772C73.8309 21.6472 73.5159 21.3122 73.1159 21.0722C72.7159 20.8222 72.2609 20.6972 71.7509 20.6972C71.2509 20.6972 70.7959 20.8222 70.3859 21.0722C69.9859 21.3122 69.6709 21.6472 69.4409 22.0772C69.2109 22.4972 69.0959 22.9772 69.0959 23.5172C69.0959 24.0472 69.2109 24.5272 69.4409 24.9572C69.6709 25.3772 69.9859 25.7122 70.3859 25.9622C70.7959 26.2022 71.2509 26.3222 71.7509 26.3222ZM85.1028 27.6272C84.8828 27.6272 84.6978 27.5572 84.5478 27.4172C84.4078 27.2672 84.3378 27.0822 84.3378 26.8622V23.1722C84.3378 22.6022 84.2328 22.1372 84.0228 21.7772C83.8128 21.4172 83.5278 21.1522 83.1678 20.9822C82.8178 20.8022 82.4128 20.7122 81.9528 20.7122C81.5328 20.7122 81.1528 20.7972 80.8128 20.9672C80.4728 21.1372 80.2028 21.3672 80.0028 21.6572C79.8028 21.9372 79.7028 22.2622 79.7028 22.6322H78.7578C78.7578 22.0022 78.9078 21.4422 79.2078 20.9522C79.5178 20.4522 79.9378 20.0572 80.4678 19.7672C80.9978 19.4772 81.5928 19.3322 82.2528 19.3322C82.9428 19.3322 83.5578 19.4822 84.0978 19.7822C84.6478 20.0722 85.0778 20.5022 85.3878 21.0722C85.7078 21.6422 85.8678 22.3422 85.8678 23.1722V26.8622C85.8678 27.0822 85.7928 27.2672 85.6428 27.4172C85.5028 27.5572 85.3228 27.6272 85.1028 27.6272ZM78.9378 27.6272C78.7178 27.6272 78.5328 27.5572 78.3828 27.4172C78.2428 27.2672 78.1728 27.0822 78.1728 26.8622V20.1722C78.1728 19.9422 78.2428 19.7572 78.3828 19.6172C78.5328 19.4772 78.7178 19.4072 78.9378 19.4072C79.1678 19.4072 79.3528 19.4772 79.4928 19.6172C79.6328 19.7572 79.7028 19.9422 79.7028 20.1722V26.8622C79.7028 27.0822 79.6328 27.2672 79.4928 27.4172C79.3528 27.5572 79.1678 27.6272 78.9378 27.6272ZM87.7633 31.2122C87.5833 31.2122 87.3983 31.1872 87.2083 31.1372C87.0283 31.0872 86.8483 31.0122 86.6683 30.9122C86.4483 30.7822 86.3033 30.6222 86.2333 30.4322C86.1633 30.2422 86.1933 30.0572 86.3233 29.8772C86.4433 29.7072 86.5883 29.6022 86.7583 29.5622C86.9283 29.5222 87.1083 29.5572 87.2983 29.6672C87.4083 29.7272 87.5083 29.7722 87.5983 29.8022C87.6983 29.8322 87.7983 29.8472 87.8983 29.8472C88.2183 29.8472 88.5233 29.6822 88.8133 29.3522C89.1133 29.0222 89.4083 28.5322 89.6983 27.8822L93.2833 19.7822C93.3733 19.5822 93.5083 19.4472 93.6883 19.3772C93.8783 19.3072 94.0683 19.3172 94.2583 19.4072C94.4283 19.4772 94.5383 19.6072 94.5883 19.7972C94.6383 19.9772 94.6133 20.1722 94.5133 20.3822L90.8983 28.4822C90.5383 29.2922 90.0783 29.9472 89.5183 30.4472C88.9683 30.9572 88.3833 31.2122 87.7633 31.2122ZM91.1833 27.2822C90.9933 27.3622 90.8133 27.3722 90.6433 27.3122C90.4833 27.2422 90.3533 27.1122 90.2533 26.9222L86.8183 20.3972C86.7183 20.2072 86.7033 20.0272 86.7733 19.8572C86.8533 19.6772 86.9883 19.5472 87.1783 19.4672C87.3683 19.3872 87.5433 19.3822 87.7033 19.4522C87.8733 19.5122 88.0083 19.6372 88.1083 19.8272L91.4083 26.2922C91.5083 26.4822 91.5433 26.6772 91.5133 26.8772C91.4833 27.0672 91.3733 27.2022 91.1833 27.2822ZM99.5881 27.6722C98.7881 27.6722 98.0731 27.4922 97.4431 27.1322C96.8231 26.7622 96.3331 26.2672 95.9731 25.6472C95.6231 25.0172 95.4481 24.3072 95.4481 23.5172C95.4481 22.7072 95.6231 21.9872 95.9731 21.3572C96.3231 20.7272 96.8031 20.2372 97.4131 19.8872C98.0231 19.5272 98.7231 19.3472 99.5131 19.3472C100.103 19.3472 100.643 19.4622 101.133 19.6922C101.623 19.9122 102.063 20.2472 102.453 20.6972C102.593 20.8572 102.643 21.0222 102.603 21.1922C102.563 21.3622 102.453 21.5122 102.273 21.6422C102.133 21.7422 101.978 21.7772 101.808 21.7472C101.638 21.7072 101.483 21.6172 101.343 21.4772C100.853 20.9572 100.243 20.6972 99.5131 20.6972C99.0031 20.6972 98.5531 20.8172 98.1631 21.0572C97.7731 21.2872 97.4681 21.6122 97.2481 22.0322C97.0281 22.4522 96.9181 22.9472 96.9181 23.5172C96.9181 24.0572 97.0281 24.5372 97.2481 24.9572C97.4781 25.3772 97.7931 25.7122 98.1931 25.9622C98.5931 26.2022 99.0581 26.3222 99.5881 26.3222C99.9381 26.3222 100.243 26.2822 100.503 26.2022C100.773 26.1122 101.018 25.9772 101.238 25.7972C101.398 25.6672 101.563 25.5972 101.733 25.5872C101.903 25.5672 102.053 25.6122 102.183 25.7222C102.353 25.8622 102.448 26.0222 102.468 26.2022C102.488 26.3722 102.428 26.5272 102.288 26.6672C101.568 27.3372 100.668 27.6722 99.5881 27.6722ZM110.186 27.6122C109.966 27.6122 109.781 27.5372 109.631 27.3872C109.491 27.2372 109.421 27.0572 109.421 26.8472V16.6772C109.421 16.4672 109.491 16.2872 109.631 16.1372C109.781 15.9872 109.966 15.9122 110.186 15.9122C110.416 15.9122 110.621 16.0072 110.801 16.1972L117.311 24.5822V16.6772C117.311 16.4672 117.386 16.2872 117.536 16.1372C117.686 15.9872 117.871 15.9122 118.091 15.9122C118.301 15.9122 118.481 15.9872 118.631 16.1372C118.791 16.2872 118.871 16.4672 118.871 16.6772V26.8472C118.871 27.0572 118.791 27.2372 118.631 27.3872C118.481 27.5372 118.301 27.6122 118.091 27.6122C117.861 27.6122 117.661 27.5222 117.491 27.3422L110.966 18.9572V26.8472C110.966 27.0572 110.891 27.2372 110.741 27.3872C110.591 27.5372 110.406 27.6122 110.186 27.6122ZM120.791 24.0272C120.571 24.0272 120.386 23.9522 120.236 23.8022C120.096 23.6522 120.026 23.4672 120.026 23.2472C120.026 23.0272 120.096 22.8472 120.236 22.7072C120.386 22.5572 120.571 22.4822 120.791 22.4822H125.306C125.536 22.4822 125.721 22.5572 125.861 22.7072C126.001 22.8472 126.071 23.0272 126.071 23.2472C126.071 23.4672 126.001 23.6522 125.861 23.8022C125.721 23.9522 125.536 24.0272 125.306 24.0272H120.791ZM123.056 21.9722C122.496 21.9722 121.986 21.8372 121.526 21.5672C121.066 21.2872 120.701 20.9172 120.431 20.4572C120.161 19.9972 120.026 19.4922 120.026 18.9422C120.026 18.3922 120.161 17.8872 120.431 17.4272C120.701 16.9672 121.066 16.6022 121.526 16.3322C121.986 16.0522 122.496 15.9122 123.056 15.9122C123.616 15.9122 124.121 16.0522 124.571 16.3322C125.031 16.6022 125.396 16.9672 125.666 17.4272C125.936 17.8872 126.071 18.3922 126.071 18.9422C126.071 19.4922 125.936 19.9972 125.666 20.4572C125.396 20.9172 125.031 21.2872 124.571 21.5672C124.121 21.8372 123.616 21.9722 123.056 21.9722ZM123.056 20.4272C123.326 20.4272 123.571 20.3622 123.791 20.2322C124.011 20.0922 124.186 19.9122 124.316 19.6922C124.456 19.4622 124.526 19.2122 124.526 18.9422C124.526 18.6722 124.456 18.4272 124.316 18.2072C124.186 17.9772 124.006 17.7972 123.776 17.6672C123.556 17.5272 123.316 17.4572 123.056 17.4572C122.786 17.4572 122.536 17.5222 122.306 17.6522C122.086 17.7822 121.906 17.9622 121.766 18.1922C121.636 18.4122 121.571 18.6622 121.571 18.9422C121.571 19.2122 121.636 19.4622 121.766 19.6922C121.896 19.9122 122.071 20.0922 122.291 20.2322C122.521 20.3622 122.776 20.4272 123.056 20.4272ZM131.04 27.6122C130.35 27.6122 129.735 27.4622 129.195 27.1622C128.665 26.8522 128.25 26.4322 127.95 25.9022C127.65 25.3622 127.5 24.7472 127.5 24.0572C127.5 23.3572 127.65 22.7422 127.95 22.2122C128.25 21.6722 128.665 21.2522 129.195 20.9522C129.735 20.6422 130.35 20.4872 131.04 20.4872C131.73 20.4872 132.34 20.6422 132.87 20.9522C133.4 21.2522 133.815 21.6722 134.115 22.2122C134.415 22.7422 134.565 23.3572 134.565 24.0572C134.565 24.7472 134.415 25.3622 134.115 25.9022C133.815 26.4322 133.4 26.8522 132.87 27.1622C132.34 27.4622 131.73 27.6122 131.04 27.6122ZM131.025 26.2622C131.435 26.2622 131.795 26.1722 132.105 25.9922C132.425 25.8022 132.675 25.5422 132.855 25.2122C133.035 24.8722 133.125 24.4872 133.125 24.0572C133.125 23.6172 133.035 23.2322 132.855 22.9022C132.675 22.5722 132.425 22.3122 132.105 22.1222C131.795 21.9322 131.435 21.8372 131.025 21.8372C130.615 21.8372 130.25 21.9322 129.93 22.1222C129.62 22.3122 129.375 22.5722 129.195 22.9022C129.025 23.2322 128.94 23.6172 128.94 24.0572C128.94 24.4872 129.025 24.8722 129.195 25.2122C129.375 25.5422 129.62 25.8022 129.93 25.9922C130.25 26.1722 130.615 26.2622 131.025 26.2622ZM127.995 22.1372L131.475 16.3322C131.655 16.0522 131.885 15.9122 132.165 15.9122C132.375 15.9122 132.55 15.9722 132.69 16.0922C132.83 16.2122 132.915 16.3622 132.945 16.5422C132.985 16.7222 132.95 16.9022 132.84 17.0822L130.71 20.6222L127.995 22.1372Z" fill="white"/>
</svg>
