<svg width="446" height="63" viewBox="0 0 446 63" fill="none" xmlns="http://www.w3.org/2000/svg">
<path d="M282.332 19.6761V13.1367H318.662V37.8411H445.03V47H318.662V62.5455H240.915V56.0061H147.911V62.5455H69.438V47L59.5302 40.5V29.7656H7.55981V45.5H0V0H17.1231L17.1231 19.6761H69.438V13.1367H106.495V19.6761H147.911V13.1367H241.642V19.6761H282.332Z" fill="#A73C4C"/>
<path d="M147.833 44.7401C147.646 44.9268 147.393 45.0135 147.073 45.0001C146.753 45.0001 146.499 44.8935 146.313 44.6801L139.753 37.0401L145.873 29.7201C146.059 29.4935 146.299 29.3801 146.593 29.3801C146.899 29.3668 147.146 29.4668 147.333 29.6801C147.519 29.8935 147.606 30.1201 147.593 30.3601C147.593 30.5868 147.499 30.8068 147.313 31.0201L142.253 36.9001L147.833 43.3801C148.019 43.5935 148.119 43.8201 148.133 44.0601C148.159 44.2868 148.059 44.5135 147.833 44.7401ZM137.393 45.0001C137.099 45.0001 136.853 44.9001 136.653 44.7001C136.453 44.5001 136.353 44.2535 136.353 43.9601V30.4201C136.353 30.1135 136.453 29.8668 136.653 29.6801C136.853 29.4801 137.099 29.3801 137.393 29.3801C137.699 29.3801 137.946 29.4801 138.133 29.6801C138.333 29.8668 138.433 30.1135 138.433 30.4201V36.1601H141.713V38.0001H138.433V43.9601C138.433 44.2535 138.333 44.5001 138.133 44.7001C137.946 44.9001 137.699 45.0001 137.393 45.0001ZM154.55 45.0801C153.47 45.0801 152.517 44.8468 151.69 44.3801C150.863 43.9001 150.21 43.2468 149.73 42.4201C149.263 41.5801 149.03 40.6201 149.03 39.5401C149.03 38.4468 149.263 37.4868 149.73 36.6601C150.21 35.8201 150.863 35.1668 151.69 34.7001C152.517 34.2201 153.47 33.9801 154.55 33.9801C155.617 33.9801 156.563 34.2201 157.39 34.7001C158.217 35.1668 158.863 35.8201 159.33 36.6601C159.81 37.4868 160.05 38.4468 160.05 39.5401C160.05 40.6201 159.817 41.5801 159.35 42.4201C158.883 43.2468 158.237 43.9001 157.41 44.3801C156.583 44.8468 155.63 45.0801 154.55 45.0801ZM154.55 43.2801C155.243 43.2801 155.857 43.1201 156.39 42.8001C156.923 42.4801 157.337 42.0401 157.63 41.4801C157.937 40.9201 158.09 40.2735 158.09 39.5401C158.09 38.8068 157.937 38.1601 157.63 37.6001C157.337 37.0268 156.923 36.5801 156.39 36.2601C155.857 35.9401 155.243 35.7801 154.55 35.7801C153.857 35.7801 153.243 35.9401 152.71 36.2601C152.177 36.5801 151.757 37.0268 151.45 37.6001C151.143 38.1601 150.99 38.8068 150.99 39.5401C150.99 40.2735 151.143 40.9201 151.45 41.4801C151.757 42.0401 152.177 42.4801 152.71 42.8001C153.243 43.1201 153.857 43.2801 154.55 43.2801ZM164.106 49.6801C163.813 49.6801 163.566 49.5801 163.366 49.3801C163.179 49.1935 163.086 48.9535 163.086 48.6601V39.5401C163.099 38.4868 163.346 37.5401 163.826 36.7001C164.306 35.8601 164.959 35.2001 165.786 34.7201C166.613 34.2268 167.546 33.9801 168.586 33.9801C169.639 33.9801 170.579 34.2268 171.406 34.7201C172.233 35.2001 172.886 35.8601 173.366 36.7001C173.859 37.5401 174.106 38.4868 174.106 39.5401C174.106 40.5935 173.879 41.5401 173.426 42.3801C172.986 43.2068 172.379 43.8668 171.606 44.3601C170.833 44.8401 169.959 45.0801 168.986 45.0801C168.199 45.0801 167.473 44.9201 166.806 44.6001C166.153 44.2668 165.593 43.8201 165.126 43.2601V48.6601C165.126 48.9535 165.033 49.1935 164.846 49.3801C164.659 49.5801 164.413 49.6801 164.106 49.6801ZM168.586 43.2801C169.266 43.2801 169.873 43.1201 170.406 42.8001C170.939 42.4668 171.359 42.0201 171.666 41.4601C171.986 40.8868 172.146 40.2468 172.146 39.5401C172.146 38.8201 171.986 38.1801 171.666 37.6201C171.359 37.0468 170.939 36.6001 170.406 36.2801C169.873 35.9468 169.266 35.7801 168.586 35.7801C167.919 35.7801 167.313 35.9468 166.766 36.2801C166.233 36.6001 165.813 37.0468 165.506 37.6201C165.199 38.1801 165.046 38.8201 165.046 39.5401C165.046 40.2468 165.199 40.8868 165.506 41.4601C165.813 42.0201 166.233 42.4668 166.766 42.8001C167.313 43.1201 167.919 43.2801 168.586 43.2801ZM186.389 45.0201C186.095 45.0201 185.849 44.9268 185.649 44.7401C185.462 44.5401 185.369 44.2935 185.369 44.0001V39.0801C185.369 38.3201 185.229 37.7001 184.949 37.2201C184.669 36.7401 184.289 36.3868 183.809 36.1601C183.342 35.9201 182.802 35.8001 182.189 35.8001C181.629 35.8001 181.122 35.9135 180.669 36.1401C180.215 36.3668 179.855 36.6735 179.589 37.0601C179.322 37.4335 179.189 37.8668 179.189 38.3601H177.929C177.929 37.5201 178.129 36.7735 178.529 36.1201C178.942 35.4535 179.502 34.9268 180.209 34.5401C180.915 34.1535 181.709 33.9601 182.589 33.9601C183.509 33.9601 184.329 34.1601 185.049 34.5601C185.782 34.9468 186.355 35.5201 186.769 36.2801C187.195 37.0401 187.409 37.9735 187.409 39.0801V44.0001C187.409 44.2935 187.309 44.5401 187.109 44.7401C186.922 44.9268 186.682 45.0201 186.389 45.0201ZM178.169 45.0201C177.875 45.0201 177.629 44.9268 177.429 44.7401C177.242 44.5401 177.149 44.2935 177.149 44.0001V35.0801C177.149 34.7735 177.242 34.5268 177.429 34.3401C177.629 34.1535 177.875 34.0601 178.169 34.0601C178.475 34.0601 178.722 34.1535 178.909 34.3401C179.095 34.5268 179.189 34.7735 179.189 35.0801V44.0001C179.189 44.2935 179.095 44.5401 178.909 44.7401C178.722 44.9268 178.475 45.0201 178.169 45.0201ZM189.936 49.8001C189.696 49.8001 189.449 49.7668 189.196 49.7001C188.956 49.6335 188.716 49.5335 188.476 49.4001C188.183 49.2268 187.989 49.0135 187.896 48.7601C187.803 48.5068 187.843 48.2601 188.016 48.0201C188.176 47.7935 188.369 47.6535 188.596 47.6001C188.823 47.5468 189.063 47.5935 189.316 47.7401C189.463 47.8201 189.596 47.8801 189.716 47.9201C189.849 47.9601 189.983 47.9801 190.116 47.9801C190.543 47.9801 190.949 47.7601 191.336 47.3201C191.736 46.8801 192.129 46.2268 192.516 45.3601L197.296 34.5601C197.416 34.2935 197.596 34.1135 197.836 34.0201C198.089 33.9268 198.343 33.9401 198.596 34.0601C198.823 34.1535 198.969 34.3268 199.036 34.5801C199.103 34.8201 199.069 35.0801 198.936 35.3601L194.116 46.1601C193.636 47.2401 193.023 48.1135 192.276 48.7801C191.543 49.4601 190.763 49.8001 189.936 49.8001ZM194.496 44.5601C194.243 44.6668 194.003 44.6801 193.776 44.6001C193.563 44.5068 193.389 44.3335 193.256 44.0801L188.676 35.3801C188.543 35.1268 188.523 34.8868 188.616 34.6601C188.723 34.4201 188.903 34.2468 189.156 34.1401C189.409 34.0335 189.643 34.0268 189.856 34.1201C190.083 34.2001 190.263 34.3668 190.396 34.6201L194.796 43.2401C194.929 43.4935 194.976 43.7535 194.936 44.0201C194.896 44.2735 194.749 44.4535 194.496 44.5601ZM205.702 45.0801C204.636 45.0801 203.682 44.8401 202.842 44.3601C202.016 43.8668 201.362 43.2068 200.882 42.3801C200.416 41.5401 200.182 40.5935 200.182 39.5401C200.182 38.4601 200.416 37.5001 200.882 36.6601C201.349 35.8201 201.989 35.1668 202.802 34.7001C203.616 34.2201 204.549 33.9801 205.602 33.9801C206.389 33.9801 207.109 34.1335 207.762 34.4401C208.416 34.7335 209.002 35.1801 209.522 35.7801C209.709 35.9935 209.776 36.2135 209.722 36.4401C209.669 36.6668 209.522 36.8668 209.282 37.0401C209.096 37.1735 208.889 37.2201 208.662 37.1801C208.436 37.1268 208.229 37.0068 208.042 36.8201C207.389 36.1268 206.576 35.7801 205.602 35.7801C204.922 35.7801 204.322 35.9401 203.802 36.2601C203.282 36.5668 202.876 37.0001 202.582 37.5601C202.289 38.1201 202.142 38.7801 202.142 39.5401C202.142 40.2601 202.289 40.9001 202.582 41.4601C202.889 42.0201 203.309 42.4668 203.842 42.8001C204.376 43.1201 204.996 43.2801 205.702 43.2801C206.169 43.2801 206.576 43.2268 206.922 43.1201C207.282 43.0001 207.609 42.8201 207.902 42.5801C208.116 42.4068 208.336 42.3135 208.562 42.3001C208.789 42.2735 208.989 42.3335 209.162 42.4801C209.389 42.6668 209.516 42.8801 209.542 43.1201C209.569 43.3468 209.489 43.5535 209.302 43.7401C208.342 44.6335 207.142 45.0801 205.702 45.0801ZM219.833 45.0001C219.54 45.0001 219.293 44.9001 219.093 44.7001C218.907 44.5001 218.813 44.2601 218.813 43.9801V30.4201C218.813 30.1401 218.907 29.9001 219.093 29.7001C219.293 29.5001 219.54 29.4001 219.833 29.4001C220.14 29.4001 220.413 29.5268 220.653 29.7801L229.333 40.9601V30.4201C229.333 30.1401 229.433 29.9001 229.633 29.7001C229.833 29.5001 230.08 29.4001 230.373 29.4001C230.653 29.4001 230.893 29.5001 231.093 29.7001C231.307 29.9001 231.413 30.1401 231.413 30.4201V43.9801C231.413 44.2601 231.307 44.5001 231.093 44.7001C230.893 44.9001 230.653 45.0001 230.373 45.0001C230.067 45.0001 229.8 44.8801 229.573 44.6401L220.873 33.4601V43.9801C220.873 44.2601 220.773 44.5001 220.573 44.7001C220.373 44.9001 220.127 45.0001 219.833 45.0001ZM233.973 40.2201C233.68 40.2201 233.433 40.1201 233.233 39.9201C233.047 39.7201 232.953 39.4735 232.953 39.1801C232.953 38.8868 233.047 38.6468 233.233 38.4601C233.433 38.2601 233.68 38.1601 233.973 38.1601H239.993C240.3 38.1601 240.547 38.2601 240.733 38.4601C240.92 38.6468 241.013 38.8868 241.013 39.1801C241.013 39.4735 240.92 39.7201 240.733 39.9201C240.547 40.1201 240.3 40.2201 239.993 40.2201L233.973 40.2201ZM236.993 37.4801C236.247 37.4801 235.567 37.3001 234.953 36.9401C234.34 36.5668 233.853 36.0735 233.493 35.4601C233.133 34.8468 232.953 34.1735 232.953 33.4401C232.953 32.7068 233.133 32.0335 233.493 31.4201C233.853 30.8068 234.34 30.3201 234.953 29.9601C235.567 29.5868 236.247 29.4001 236.993 29.4001C237.74 29.4001 238.413 29.5868 239.013 29.9601C239.627 30.3201 240.113 30.8068 240.473 31.4201C240.833 32.0335 241.013 32.7068 241.013 33.4401C241.013 34.1735 240.833 34.8468 240.473 35.4601C240.113 36.0735 239.627 36.5668 239.013 36.9401C238.413 37.3001 237.74 37.4801 236.993 37.4801ZM236.993 35.4201C237.353 35.4201 237.68 35.3335 237.973 35.1601C238.267 34.9735 238.5 34.7335 238.673 34.4401C238.86 34.1335 238.953 33.8001 238.953 33.4401C238.953 33.0801 238.86 32.7535 238.673 32.4601C238.5 32.1535 238.26 31.9135 237.953 31.7401C237.66 31.5535 237.34 31.4601 236.993 31.4601C236.633 31.4601 236.3 31.5468 235.993 31.7201C235.7 31.8935 235.46 32.1335 235.273 32.4401C235.1 32.7335 235.013 33.0668 235.013 33.4401C235.013 33.8001 235.1 34.1335 235.273 34.4401C235.447 34.7335 235.68 34.9735 235.973 35.1601C236.28 35.3335 236.62 35.4201 236.993 35.4201ZM247.438 44.9801C246.558 44.9801 245.765 44.7735 245.058 44.3601C244.365 43.9335 243.818 43.3601 243.418 42.6401C243.018 41.9068 242.818 41.0868 242.818 40.1801C242.818 39.3001 243.018 38.5135 243.418 37.8201C243.818 37.1135 244.365 36.5601 245.058 36.1601C245.765 35.7601 246.558 35.5601 247.438 35.5601C248.318 35.5601 249.105 35.7601 249.798 36.1601C250.491 36.5601 251.038 37.1135 251.438 37.8201C251.851 38.5135 252.051 39.3001 252.038 40.1801C252.038 41.0868 251.831 41.9068 251.418 42.6401C251.018 43.3601 250.471 43.9335 249.778 44.3601C249.085 44.7735 248.305 44.9801 247.438 44.9801ZM247.438 43.1401C247.931 43.1401 248.371 43.0068 248.758 42.7401C249.158 42.4735 249.471 42.1201 249.698 41.6801C249.925 41.2268 250.038 40.7268 250.038 40.1801C250.051 39.6468 249.945 39.1735 249.718 38.7601C249.491 38.3335 249.178 38.0001 248.778 37.7601C248.391 37.5068 247.945 37.3801 247.438 37.3801C246.945 37.3801 246.498 37.5068 246.098 37.7601C245.698 38.0001 245.385 38.3335 245.158 38.7601C244.931 39.1735 244.818 39.6468 244.818 40.1801C244.818 40.7268 244.925 41.2268 245.138 41.6801C245.365 42.1201 245.678 42.4735 246.078 42.7401C246.478 43.0068 246.931 43.1401 247.438 43.1401ZM247.438 37.0201C246.678 37.0201 245.998 36.8535 245.398 36.5201C244.811 36.1868 244.345 35.7401 243.998 35.1801C243.651 34.6068 243.478 33.9601 243.478 33.2401C243.478 32.4801 243.651 31.8068 243.998 31.2201C244.345 30.6201 244.811 30.1468 245.398 29.8001C245.998 29.4401 246.678 29.2601 247.438 29.2601C248.198 29.2468 248.871 29.4135 249.458 29.7601C250.058 30.1068 250.531 30.5801 250.878 31.1801C251.225 31.7801 251.391 32.4668 251.378 33.2401C251.378 33.9601 251.205 34.6068 250.858 35.1801C250.511 35.7401 250.038 36.1868 249.438 36.5201C248.851 36.8535 248.185 37.0201 247.438 37.0201ZM247.438 35.3601C247.811 35.3601 248.145 35.2601 248.438 35.0601C248.731 34.8601 248.965 34.6001 249.138 34.2801C249.311 33.9468 249.398 33.5801 249.398 33.1801C249.411 32.7801 249.331 32.4268 249.158 32.1201C248.985 31.8135 248.751 31.5735 248.458 31.4001C248.165 31.2135 247.825 31.1201 247.438 31.1201C246.878 31.1201 246.411 31.3135 246.038 31.7001C245.665 32.0868 245.471 32.5801 245.458 33.1801C245.445 33.7801 245.625 34.2935 245.998 34.7201C246.385 35.1468 246.865 35.3601 247.438 35.3601Z" fill="white"/>
</svg>
