<svg width="147" height="123" viewBox="0 0 147 123" fill="none" xmlns="http://www.w3.org/2000/svg">
<path d="M0 0H146.773V79.6977H13.5715V122.069H0V0Z" fill="#A73C4C"/>
<path d="M26.8054 46.998C26.6187 47.1847 26.3654 47.2713 26.0454 47.258C25.7254 47.258 25.472 47.1513 25.2854 46.938L18.7254 39.298L24.8454 31.978C25.032 31.7513 25.272 31.638 25.5654 31.638C25.872 31.6247 26.1187 31.7247 26.3054 31.938C26.492 32.1513 26.5787 32.378 26.5654 32.618C26.5654 32.8447 26.472 33.0647 26.2854 33.278L21.2254 39.158L26.8054 45.638C26.992 45.8513 27.092 46.078 27.1054 46.318C27.132 46.5447 27.032 46.7713 26.8054 46.998ZM16.3654 47.258C16.072 47.258 15.8254 47.158 15.6254 46.958C15.4254 46.758 15.3254 46.5113 15.3254 46.218L15.3254 32.678C15.3254 32.3713 15.4254 32.1247 15.6254 31.938C15.8254 31.738 16.072 31.638 16.3654 31.638C16.672 31.638 16.9187 31.738 17.1054 31.938C17.3054 32.1247 17.4054 32.3713 17.4054 32.678V38.418H20.6854V40.258H17.4054V46.218C17.4054 46.5113 17.3054 46.758 17.1054 46.958C16.9187 47.158 16.672 47.258 16.3654 47.258ZM33.5229 47.338C32.4429 47.338 31.4895 47.1047 30.6629 46.638C29.8362 46.158 29.1829 45.5047 28.7029 44.678C28.2362 43.838 28.0029 42.878 28.0029 41.798C28.0029 40.7047 28.2362 39.7447 28.7029 38.918C29.1829 38.078 29.8362 37.4247 30.6629 36.958C31.4895 36.478 32.4429 36.238 33.5229 36.238C34.5895 36.238 35.5362 36.478 36.3629 36.958C37.1895 37.4247 37.8362 38.078 38.3029 38.918C38.7829 39.7447 39.0229 40.7047 39.0229 41.798C39.0229 42.878 38.7895 43.838 38.3229 44.678C37.8562 45.5047 37.2095 46.158 36.3829 46.638C35.5562 47.1047 34.6029 47.338 33.5229 47.338ZM33.5229 45.538C34.2162 45.538 34.8295 45.378 35.3629 45.058C35.8962 44.738 36.3095 44.298 36.6029 43.738C36.9095 43.178 37.0629 42.5313 37.0629 41.798C37.0629 41.0647 36.9095 40.418 36.6029 39.858C36.3095 39.2847 35.8962 38.838 35.3629 38.518C34.8295 38.198 34.2162 38.038 33.5229 38.038C32.8295 38.038 32.2162 38.198 31.6829 38.518C31.1495 38.838 30.7295 39.2847 30.4229 39.858C30.1162 40.418 29.9629 41.0647 29.9629 41.798C29.9629 42.5313 30.1162 43.178 30.4229 43.738C30.7295 44.298 31.1495 44.738 31.6829 45.058C32.2162 45.378 32.8295 45.538 33.5229 45.538ZM43.079 51.938C42.7856 51.938 42.539 51.838 42.339 51.638C42.1523 51.4513 42.059 51.2113 42.059 50.918V41.798C42.0723 40.7447 42.319 39.798 42.799 38.958C43.279 38.118 43.9323 37.458 44.759 36.978C45.5856 36.4847 46.519 36.238 47.559 36.238C48.6123 36.238 49.5523 36.4847 50.379 36.978C51.2056 37.458 51.859 38.118 52.339 38.958C52.8323 39.798 53.079 40.7447 53.079 41.798C53.079 42.8513 52.8523 43.798 52.399 44.638C51.959 45.4647 51.3523 46.1247 50.579 46.618C49.8056 47.098 48.9323 47.338 47.959 47.338C47.1723 47.338 46.4456 47.178 45.779 46.858C45.1256 46.5247 44.5656 46.078 44.099 45.518V50.918C44.099 51.2113 44.0056 51.4513 43.819 51.638C43.6323 51.838 43.3856 51.938 43.079 51.938ZM47.559 45.538C48.239 45.538 48.8456 45.378 49.379 45.058C49.9123 44.7247 50.3323 44.278 50.639 43.718C50.959 43.1447 51.119 42.5047 51.119 41.798C51.119 41.078 50.959 40.438 50.639 39.878C50.3323 39.3047 49.9123 38.858 49.379 38.538C48.8456 38.2047 48.239 38.038 47.559 38.038C46.8923 38.038 46.2856 38.2047 45.739 38.538C45.2056 38.858 44.7856 39.3047 44.479 39.878C44.1723 40.438 44.019 41.078 44.019 41.798C44.019 42.5047 44.1723 43.1447 44.479 43.718C44.7856 44.278 45.2056 44.7247 45.739 45.058C46.2856 45.378 46.8923 45.538 47.559 45.538ZM65.3615 47.278C65.0681 47.278 64.8215 47.1847 64.6215 46.998C64.4348 46.798 64.3415 46.5513 64.3415 46.258V41.338C64.3415 40.578 64.2015 39.958 63.9215 39.478C63.6415 38.998 63.2615 38.6447 62.7815 38.418C62.3148 38.178 61.7748 38.058 61.1615 38.058C60.6015 38.058 60.0948 38.1713 59.6415 38.398C59.1881 38.6247 58.8281 38.9313 58.5615 39.318C58.2948 39.6913 58.1615 40.1247 58.1615 40.618H56.9015C56.9015 39.778 57.1015 39.0313 57.5015 38.378C57.9148 37.7113 58.4748 37.1847 59.1815 36.798C59.8881 36.4113 60.6815 36.218 61.5615 36.218C62.4815 36.218 63.3015 36.418 64.0215 36.818C64.7548 37.2047 65.3281 37.778 65.7415 38.538C66.1681 39.298 66.3815 40.2313 66.3815 41.338V46.258C66.3815 46.5513 66.2815 46.798 66.0815 46.998C65.8948 47.1847 65.6548 47.278 65.3615 47.278ZM57.1415 47.278C56.8481 47.278 56.6015 47.1847 56.4015 46.998C56.2148 46.798 56.1215 46.5513 56.1215 46.258V37.338C56.1215 37.0313 56.2148 36.7847 56.4015 36.598C56.6015 36.4113 56.8481 36.318 57.1415 36.318C57.4481 36.318 57.6948 36.4113 57.8815 36.598C58.0681 36.7847 58.1615 37.0313 58.1615 37.338V46.258C58.1615 46.5513 58.0681 46.798 57.8815 46.998C57.6948 47.1847 57.4481 47.278 57.1415 47.278ZM68.9088 52.058C68.6688 52.058 68.4221 52.0247 68.1688 51.958C67.9288 51.8913 67.6888 51.7913 67.4488 51.658C67.1555 51.4847 66.9621 51.2713 66.8688 51.018C66.7755 50.7647 66.8155 50.518 66.9888 50.278C67.1488 50.0513 67.3421 49.9113 67.5688 49.858C67.7955 49.8047 68.0355 49.8513 68.2888 49.998C68.4355 50.078 68.5688 50.138 68.6888 50.178C68.8221 50.218 68.9555 50.238 69.0888 50.238C69.5155 50.238 69.9221 50.018 70.3088 49.578C70.7088 49.138 71.1021 48.4847 71.4888 47.618L76.2688 36.818C76.3888 36.5513 76.5688 36.3713 76.8088 36.278C77.0621 36.1847 77.3155 36.198 77.5688 36.318C77.7955 36.4113 77.9421 36.5847 78.0088 36.838C78.0755 37.078 78.0421 37.338 77.9088 37.618L73.0888 48.418C72.6088 49.498 71.9955 50.3713 71.2488 51.038C70.5155 51.718 69.7355 52.058 68.9088 52.058ZM73.4688 46.818C73.2155 46.9247 72.9755 46.938 72.7488 46.858C72.5355 46.7647 72.3621 46.5913 72.2288 46.338L67.6488 37.638C67.5155 37.3847 67.4955 37.1447 67.5888 36.918C67.6955 36.678 67.8755 36.5047 68.1288 36.398C68.3821 36.2913 68.6155 36.2847 68.8288 36.378C69.0555 36.458 69.2355 36.6247 69.3688 36.878L73.7688 45.498C73.9021 45.7513 73.9488 46.0113 73.9088 46.278C73.8688 46.5313 73.7221 46.7113 73.4688 46.818ZM84.6752 47.338C83.6086 47.338 82.6552 47.098 81.8152 46.618C80.9886 46.1247 80.3352 45.4647 79.8552 44.638C79.3886 43.798 79.1552 42.8513 79.1552 41.798C79.1552 40.718 79.3886 39.758 79.8552 38.918C80.3219 38.078 80.9619 37.4247 81.7752 36.958C82.5886 36.478 83.5219 36.238 84.5752 36.238C85.3619 36.238 86.0819 36.3913 86.7352 36.698C87.3886 36.9913 87.9752 37.438 88.4952 38.038C88.6819 38.2513 88.7486 38.4713 88.6952 38.698C88.6419 38.9247 88.4952 39.1247 88.2552 39.298C88.0686 39.4313 87.8619 39.478 87.6352 39.438C87.4086 39.3847 87.2019 39.2647 87.0152 39.078C86.3619 38.3847 85.5486 38.038 84.5752 38.038C83.8952 38.038 83.2952 38.198 82.7752 38.518C82.2552 38.8247 81.8486 39.258 81.5552 39.818C81.2619 40.378 81.1152 41.038 81.1152 41.798C81.1152 42.518 81.2619 43.158 81.5552 43.718C81.8619 44.278 82.2819 44.7247 82.8152 45.058C83.3486 45.378 83.9686 45.538 84.6752 45.538C85.1419 45.538 85.5486 45.4847 85.8952 45.378C86.2552 45.258 86.5819 45.078 86.8752 44.838C87.0886 44.6647 87.3086 44.5713 87.5352 44.558C87.7619 44.5313 87.9619 44.5913 88.1352 44.738C88.3619 44.9247 88.4886 45.138 88.5152 45.378C88.5419 45.6047 88.4619 45.8113 88.2752 45.998C87.3152 46.8913 86.1152 47.338 84.6752 47.338ZM98.8063 47.258C98.513 47.258 98.2663 47.158 98.0663 46.958C97.8796 46.758 97.7863 46.518 97.7863 46.238V32.678C97.7863 32.398 97.8796 32.158 98.0663 31.958C98.2663 31.758 98.513 31.658 98.8063 31.658C99.113 31.658 99.3863 31.7847 99.6263 32.038L108.306 43.218V32.678C108.306 32.398 108.406 32.158 108.606 31.958C108.806 31.758 109.053 31.658 109.346 31.658C109.626 31.658 109.866 31.758 110.066 31.958C110.28 32.158 110.386 32.398 110.386 32.678V46.238C110.386 46.518 110.28 46.758 110.066 46.958C109.866 47.158 109.626 47.258 109.346 47.258C109.04 47.258 108.773 47.138 108.546 46.898L99.8463 35.718V46.238C99.8463 46.518 99.7463 46.758 99.5463 46.958C99.3463 47.158 99.0996 47.258 98.8063 47.258ZM112.946 42.478C112.653 42.478 112.406 42.378 112.206 42.178C112.02 41.978 111.926 41.7313 111.926 41.438C111.926 41.1447 112.02 40.9047 112.206 40.718C112.406 40.518 112.653 40.418 112.946 40.418H118.966C119.273 40.418 119.52 40.518 119.706 40.718C119.893 40.9047 119.986 41.1447 119.986 41.438C119.986 41.7313 119.893 41.978 119.706 42.178C119.52 42.378 119.273 42.478 118.966 42.478L112.946 42.478ZM115.966 39.738C115.22 39.738 114.54 39.558 113.926 39.198C113.313 38.8247 112.826 38.3313 112.466 37.718C112.106 37.1047 111.926 36.4313 111.926 35.698C111.926 34.9647 112.106 34.2913 112.466 33.678C112.826 33.0647 113.313 32.578 113.926 32.218C114.54 31.8447 115.22 31.658 115.966 31.658C116.713 31.658 117.386 31.8447 117.986 32.218C118.6 32.578 119.086 33.0647 119.446 33.678C119.806 34.2913 119.986 34.9647 119.986 35.698C119.986 36.4313 119.806 37.1047 119.446 37.718C119.086 38.3313 118.6 38.8247 117.986 39.198C117.386 39.558 116.713 39.738 115.966 39.738ZM115.966 37.678C116.326 37.678 116.653 37.5913 116.946 37.418C117.24 37.2313 117.473 36.9913 117.646 36.698C117.833 36.3913 117.926 36.058 117.926 35.698C117.926 35.338 117.833 35.0113 117.646 34.718C117.473 34.4113 117.233 34.1713 116.926 33.998C116.633 33.8113 116.313 33.718 115.966 33.718C115.606 33.718 115.273 33.8047 114.966 33.978C114.673 34.1513 114.433 34.3913 114.246 34.698C114.073 34.9913 113.986 35.3247 113.986 35.698C113.986 36.058 114.073 36.3913 114.246 36.698C114.42 36.9913 114.653 37.2313 114.946 37.418C115.253 37.5913 115.593 37.678 115.966 37.678ZM126.191 31.618C127.124 31.618 127.944 31.8247 128.651 32.238C129.358 32.638 129.911 33.198 130.311 33.918C130.711 34.6247 130.911 35.438 130.911 36.358C130.911 37.278 130.711 38.098 130.311 38.818C129.911 39.538 129.358 40.1047 128.651 40.518C127.944 40.918 127.124 41.118 126.191 41.118C125.284 41.118 124.471 40.918 123.751 40.518C123.044 40.1047 122.491 39.538 122.091 38.818C121.691 38.098 121.491 37.278 121.491 36.358C121.491 35.438 121.691 34.6247 122.091 33.918C122.491 33.198 123.044 32.638 123.751 32.238C124.458 31.8247 125.271 31.618 126.191 31.618ZM126.211 33.418C125.664 33.418 125.178 33.5447 124.751 33.798C124.338 34.038 124.011 34.378 123.771 34.818C123.531 35.258 123.411 35.7713 123.411 36.358C123.411 36.9313 123.531 37.4447 123.771 37.898C124.011 38.338 124.338 38.6847 124.751 38.938C125.178 39.1913 125.664 39.318 126.211 39.318C126.758 39.318 127.238 39.1913 127.651 38.938C128.078 38.6847 128.404 38.338 128.631 37.898C128.871 37.4447 128.991 36.9313 128.991 36.358C128.991 35.7713 128.871 35.258 128.631 34.818C128.404 34.378 128.078 34.038 127.651 33.798C127.238 33.5447 126.758 33.418 126.211 33.418ZM130.251 38.918L125.611 46.658C125.371 47.0313 125.064 47.218 124.691 47.218C124.424 47.218 124.191 47.138 123.991 46.978C123.804 46.818 123.684 46.618 123.631 46.378C123.591 46.1247 123.644 45.8847 123.791 45.658L126.631 40.938L130.251 38.918Z" fill="white"/>
</svg>
