<svg width="291" height="178" viewBox="0 0 291 178" fill="none" xmlns="http://www.w3.org/2000/svg">
<path d="M251.272 70.6708H277.172V124.296H260.015V135.582L256.172 139.296H244.672L241 135.582V124.308L251.272 70.6708Z" fill="#A73C4C"/>
<path d="M3.5 124H20.7537V99.5001H72.238V0L90.5 6.50003V70.6708H251.272V124.296L82 124.5V135.655L78.5 139.5H48.0189V177.509H36.9937V139.5H20.7537L17 143H3.5L0 139.5V127.5L3.5 124Z" fill="#A73C4C"/>
<path d="M75.0881 95.069C74.8681 95.069 74.6831 94.994 74.5331 94.844C74.3831 94.694 74.3081 94.509 74.3081 94.289V84.134C74.3081 83.904 74.3831 83.719 74.5331 83.579C74.6831 83.429 74.8681 83.354 75.0881 83.354H81.8681C82.0981 83.354 82.2831 83.424 82.4231 83.564C82.5631 83.694 82.6331 83.869 82.6331 84.089C82.6331 84.299 82.5631 84.469 82.4231 84.599C82.2831 84.729 82.0981 84.794 81.8681 84.794H75.8681V88.439H80.1731C80.4031 88.439 80.5881 88.509 80.7281 88.649C80.8681 88.779 80.9381 88.949 80.9381 89.159C80.9381 89.369 80.8681 89.544 80.7281 89.684C80.5881 89.814 80.4031 89.879 80.1731 89.879H75.8681V93.629H81.8681C82.0981 93.629 82.2831 93.694 82.4231 93.824C82.5631 93.954 82.6331 94.124 82.6331 94.334C82.6331 94.554 82.5631 94.734 82.4231 94.874C82.2831 95.004 82.0981 95.069 81.8681 95.069H75.0881ZM88.381 95.129C87.581 95.129 86.866 94.949 86.236 94.589C85.616 94.219 85.126 93.724 84.766 93.104C84.416 92.474 84.241 91.764 84.241 90.974C84.241 90.164 84.416 89.444 84.766 88.814C85.116 88.184 85.596 87.694 86.206 87.344C86.816 86.984 87.516 86.804 88.306 86.804C88.896 86.804 89.436 86.919 89.926 87.149C90.416 87.369 90.856 87.704 91.246 88.154C91.386 88.314 91.436 88.479 91.396 88.649C91.356 88.819 91.246 88.969 91.066 89.099C90.926 89.199 90.771 89.234 90.601 89.204C90.431 89.164 90.276 89.074 90.136 88.934C89.646 88.414 89.036 88.154 88.306 88.154C87.796 88.154 87.346 88.274 86.956 88.514C86.566 88.744 86.261 89.069 86.041 89.489C85.821 89.909 85.711 90.404 85.711 90.974C85.711 91.514 85.821 91.994 86.041 92.414C86.271 92.834 86.586 93.169 86.986 93.419C87.386 93.659 87.851 93.779 88.381 93.779C88.731 93.779 89.036 93.739 89.296 93.659C89.566 93.569 89.811 93.434 90.031 93.254C90.191 93.124 90.356 93.054 90.526 93.044C90.696 93.024 90.846 93.069 90.976 93.179C91.146 93.319 91.241 93.479 91.261 93.659C91.281 93.829 91.221 93.984 91.081 94.124C90.361 94.794 89.461 95.129 88.381 95.129ZM104.44 95.084C104.22 95.084 104.035 95.014 103.885 94.874C103.745 94.724 103.675 94.539 103.675 94.319V90.029C103.675 89.399 103.52 88.934 103.21 88.634C102.9 88.324 102.495 88.169 101.995 88.169C101.475 88.169 101.045 88.349 100.705 88.709C100.375 89.069 100.21 89.529 100.21 90.089H98.9648C98.9648 89.439 99.1048 88.869 99.3848 88.379C99.6648 87.879 100.055 87.489 100.555 87.209C101.065 86.929 101.645 86.789 102.295 86.789C102.865 86.789 103.37 86.914 103.81 87.164C104.25 87.414 104.59 87.784 104.83 88.274C105.08 88.754 105.205 89.339 105.205 90.029V94.319C105.205 94.539 105.135 94.724 104.995 94.874C104.855 95.014 104.67 95.084 104.44 95.084ZM94.4348 95.084C94.2148 95.084 94.0298 95.014 93.8798 94.874C93.7398 94.724 93.6698 94.539 93.6698 94.319V87.644C93.6698 87.414 93.7398 87.229 93.8798 87.089C94.0298 86.949 94.2148 86.879 94.4348 86.879C94.6648 86.879 94.8498 86.949 94.9898 87.089C95.1298 87.229 95.1998 87.414 95.1998 87.644V94.319C95.1998 94.539 95.1298 94.724 94.9898 94.874C94.8498 95.014 94.6648 95.084 94.4348 95.084ZM99.4448 95.084C99.2248 95.084 99.0398 95.014 98.8898 94.874C98.7498 94.724 98.6798 94.539 98.6798 94.319V90.029C98.6798 89.399 98.5248 88.934 98.2148 88.634C97.9048 88.324 97.4998 88.169 96.9998 88.169C96.4798 88.169 96.0498 88.349 95.7098 88.709C95.3698 89.069 95.1998 89.529 95.1998 90.089H94.2548C94.2548 89.439 94.3848 88.869 94.6448 88.379C94.9048 87.879 95.2648 87.489 95.7248 87.209C96.1848 86.929 96.7098 86.789 97.2998 86.789C97.8698 86.789 98.3748 86.914 98.8148 87.164C99.2548 87.414 99.5948 87.784 99.8348 88.274C100.085 88.754 100.21 89.339 100.21 90.029V94.319C100.21 94.539 100.14 94.724 99.9998 94.874C99.8598 95.014 99.6748 95.084 99.4448 95.084ZM111.602 95.129C110.772 95.129 110.032 94.954 109.382 94.604C108.742 94.244 108.237 93.754 107.867 93.134C107.507 92.504 107.327 91.784 107.327 90.974C107.327 90.154 107.497 89.434 107.837 88.814C108.187 88.184 108.667 87.694 109.277 87.344C109.887 86.984 110.587 86.804 111.377 86.804C112.157 86.804 112.827 86.979 113.387 87.329C113.947 87.669 114.372 88.144 114.662 88.754C114.962 89.354 115.112 90.049 115.112 90.839C115.112 91.029 115.047 91.189 114.917 91.319C114.787 91.439 114.622 91.499 114.422 91.499H108.377V90.299H114.377L113.762 90.719C113.752 90.219 113.652 89.774 113.462 89.384C113.272 88.984 113.002 88.669 112.652 88.439C112.302 88.209 111.877 88.094 111.377 88.094C110.807 88.094 110.317 88.219 109.907 88.469C109.507 88.719 109.202 89.064 108.992 89.504C108.782 89.934 108.677 90.424 108.677 90.974C108.677 91.524 108.802 92.014 109.052 92.444C109.302 92.874 109.647 93.214 110.087 93.464C110.527 93.714 111.032 93.839 111.602 93.839C111.912 93.839 112.227 93.784 112.547 93.674C112.877 93.554 113.142 93.419 113.342 93.269C113.492 93.159 113.652 93.104 113.822 93.104C114.002 93.094 114.157 93.144 114.287 93.254C114.457 93.404 114.547 93.569 114.557 93.749C114.567 93.929 114.487 94.084 114.317 94.214C113.977 94.484 113.552 94.704 113.042 94.874C112.542 95.044 112.062 95.129 111.602 95.129ZM120.49 95.129C119.69 95.129 118.975 94.949 118.345 94.589C117.725 94.219 117.235 93.724 116.875 93.104C116.525 92.474 116.35 91.764 116.35 90.974C116.35 90.164 116.525 89.444 116.875 88.814C117.225 88.184 117.705 87.694 118.315 87.344C118.925 86.984 119.625 86.804 120.415 86.804C121.005 86.804 121.545 86.919 122.035 87.149C122.525 87.369 122.965 87.704 123.355 88.154C123.495 88.314 123.545 88.479 123.505 88.649C123.465 88.819 123.355 88.969 123.175 89.099C123.035 89.199 122.88 89.234 122.71 89.204C122.54 89.164 122.385 89.074 122.245 88.934C121.755 88.414 121.145 88.154 120.415 88.154C119.905 88.154 119.455 88.274 119.065 88.514C118.675 88.744 118.37 89.069 118.15 89.489C117.93 89.909 117.82 90.404 117.82 90.974C117.82 91.514 117.93 91.994 118.15 92.414C118.38 92.834 118.695 93.169 119.095 93.419C119.495 93.659 119.96 93.779 120.49 93.779C120.84 93.779 121.145 93.739 121.405 93.659C121.675 93.569 121.92 93.434 122.14 93.254C122.3 93.124 122.465 93.054 122.635 93.044C122.805 93.024 122.955 93.069 123.085 93.179C123.255 93.319 123.35 93.479 123.37 93.659C123.39 93.829 123.33 93.984 123.19 94.124C122.47 94.794 121.57 95.129 120.49 95.129ZM136.549 95.084C136.329 95.084 136.144 95.014 135.994 94.874C135.854 94.724 135.784 94.539 135.784 94.319V90.029C135.784 89.399 135.629 88.934 135.319 88.634C135.009 88.324 134.604 88.169 134.104 88.169C133.584 88.169 133.154 88.349 132.814 88.709C132.484 89.069 132.319 89.529 132.319 90.089H131.074C131.074 89.439 131.214 88.869 131.494 88.379C131.774 87.879 132.164 87.489 132.664 87.209C133.174 86.929 133.754 86.789 134.404 86.789C134.974 86.789 135.479 86.914 135.919 87.164C136.359 87.414 136.699 87.784 136.939 88.274C137.189 88.754 137.314 89.339 137.314 90.029V94.319C137.314 94.539 137.244 94.724 137.104 94.874C136.964 95.014 136.779 95.084 136.549 95.084ZM126.544 95.084C126.324 95.084 126.139 95.014 125.989 94.874C125.849 94.724 125.779 94.539 125.779 94.319V87.644C125.779 87.414 125.849 87.229 125.989 87.089C126.139 86.949 126.324 86.879 126.544 86.879C126.774 86.879 126.959 86.949 127.099 87.089C127.239 87.229 127.309 87.414 127.309 87.644V94.319C127.309 94.539 127.239 94.724 127.099 94.874C126.959 95.014 126.774 95.084 126.544 95.084ZM131.554 95.084C131.334 95.084 131.149 95.014 130.999 94.874C130.859 94.724 130.789 94.539 130.789 94.319V90.029C130.789 89.399 130.634 88.934 130.324 88.634C130.014 88.324 129.609 88.169 129.109 88.169C128.589 88.169 128.159 88.349 127.819 88.709C127.479 89.069 127.309 89.529 127.309 90.089H126.364C126.364 89.439 126.494 88.869 126.754 88.379C127.014 87.879 127.374 87.489 127.834 87.209C128.294 86.929 128.819 86.789 129.409 86.789C129.979 86.789 130.484 86.914 130.924 87.164C131.364 87.414 131.704 87.784 131.944 88.274C132.194 88.754 132.319 89.339 132.319 90.029V94.319C132.319 94.539 132.249 94.724 132.109 94.874C131.969 95.014 131.784 95.084 131.554 95.084ZM140.621 95.069C140.401 95.069 140.216 94.999 140.066 94.859C139.926 94.709 139.856 94.524 139.856 94.304V87.614C139.876 87.394 139.956 87.214 140.096 87.074C140.236 86.934 140.411 86.864 140.621 86.864C140.851 86.864 141.036 86.934 141.176 87.074C141.316 87.214 141.386 87.399 141.386 87.629V90.209H144.296V90.509C144.846 90.509 145.331 90.604 145.751 90.794C146.181 90.984 146.516 91.249 146.756 91.589C146.996 91.919 147.116 92.304 147.116 92.744C147.116 93.194 146.996 93.594 146.756 93.944C146.516 94.294 146.181 94.569 145.751 94.769C145.331 94.969 144.846 95.069 144.296 95.069H140.621ZM141.386 93.644H144.296C144.696 93.644 145.021 93.549 145.271 93.359C145.521 93.159 145.646 92.904 145.646 92.594C145.646 92.264 145.521 91.994 145.271 91.784C145.021 91.574 144.696 91.469 144.296 91.469H141.386V93.644ZM143.111 91.019V90.209H144.536C144.786 90.209 144.991 90.114 145.151 89.924C145.311 89.724 145.391 89.474 145.391 89.174C145.391 88.914 145.296 88.699 145.106 88.529C144.916 88.359 144.676 88.274 144.386 88.274H140.636V86.864H144.386C144.856 86.864 145.271 86.959 145.631 87.149C146.001 87.329 146.291 87.584 146.501 87.914C146.711 88.234 146.816 88.604 146.816 89.024C146.816 89.604 146.596 90.084 146.156 90.464C145.726 90.834 145.186 91.019 144.536 91.019H143.111ZM152.852 95.129C152.022 95.129 151.282 94.954 150.632 94.604C149.992 94.244 149.487 93.754 149.117 93.134C148.757 92.504 148.577 91.784 148.577 90.974C148.577 90.154 148.747 89.434 149.087 88.814C149.437 88.184 149.917 87.694 150.527 87.344C151.137 86.984 151.837 86.804 152.627 86.804C153.407 86.804 154.077 86.979 154.637 87.329C155.197 87.669 155.622 88.144 155.912 88.754C156.212 89.354 156.362 90.049 156.362 90.839C156.362 91.029 156.297 91.189 156.167 91.319C156.037 91.439 155.872 91.499 155.672 91.499H149.627V90.299H155.627L155.012 90.719C155.002 90.219 154.902 89.774 154.712 89.384C154.522 88.984 154.252 88.669 153.902 88.439C153.552 88.209 153.127 88.094 152.627 88.094C152.057 88.094 151.567 88.219 151.157 88.469C150.757 88.719 150.452 89.064 150.242 89.504C150.032 89.934 149.927 90.424 149.927 90.974C149.927 91.524 150.052 92.014 150.302 92.444C150.552 92.874 150.897 93.214 151.337 93.464C151.777 93.714 152.282 93.839 152.852 93.839C153.162 93.839 153.477 93.784 153.797 93.674C154.127 93.554 154.392 93.419 154.592 93.269C154.742 93.159 154.902 93.104 155.072 93.104C155.252 93.094 155.407 93.144 155.537 93.254C155.707 93.404 155.797 93.569 155.807 93.749C155.817 93.929 155.737 94.084 155.567 94.214C155.227 94.484 154.802 94.704 154.292 94.874C153.792 95.044 153.312 95.129 152.852 95.129ZM165.213 95.069C164.993 95.069 164.808 94.999 164.658 94.859C164.518 94.709 164.448 94.524 164.448 94.304V87.629C164.448 87.399 164.518 87.214 164.658 87.074C164.808 86.934 164.993 86.864 165.213 86.864C165.443 86.864 165.623 86.934 165.753 87.074C165.883 87.214 165.948 87.399 165.948 87.629V94.304C165.948 94.524 165.883 94.709 165.753 94.859C165.623 94.999 165.443 95.069 165.213 95.069ZM159.048 95.069C158.828 95.069 158.648 94.999 158.508 94.859C158.378 94.709 158.313 94.524 158.313 94.304V87.629C158.313 87.399 158.378 87.214 158.508 87.074C158.648 86.934 158.828 86.864 159.048 86.864C159.278 86.864 159.463 86.934 159.603 87.074C159.743 87.214 159.813 87.399 159.813 87.629V94.304C159.813 94.524 159.743 94.709 159.603 94.859C159.463 94.999 159.278 95.069 159.048 95.069ZM159.618 91.484V90.134H164.883V91.484H159.618ZM175.555 95.069C175.335 95.069 175.15 94.999 175 94.859C174.86 94.709 174.79 94.524 174.79 94.304V87.629C174.79 87.399 174.86 87.214 175 87.074C175.15 86.934 175.335 86.864 175.555 86.864C175.785 86.864 175.965 86.934 176.095 87.074C176.225 87.214 176.29 87.399 176.29 87.629V94.304C176.29 94.524 176.225 94.709 176.095 94.859C175.965 94.999 175.785 95.069 175.555 95.069ZM169.39 95.069C169.17 95.069 168.99 94.999 168.85 94.859C168.72 94.709 168.655 94.524 168.655 94.304V87.629C168.655 87.399 168.72 87.214 168.85 87.074C168.99 86.934 169.17 86.864 169.39 86.864C169.62 86.864 169.805 86.934 169.945 87.074C170.085 87.214 170.155 87.399 170.155 87.629V94.304C170.155 94.524 170.085 94.709 169.945 94.859C169.805 94.999 169.62 95.069 169.39 95.069ZM169.96 91.484V90.134H175.225V91.484L169.96 91.484ZM182.717 95.129C181.907 95.129 181.192 94.954 180.572 94.604C179.952 94.244 179.462 93.754 179.102 93.134C178.752 92.504 178.577 91.784 178.577 90.974C178.577 90.154 178.752 89.434 179.102 88.814C179.462 88.184 179.952 87.694 180.572 87.344C181.192 86.984 181.907 86.804 182.717 86.804C183.517 86.804 184.227 86.984 184.847 87.344C185.467 87.694 185.952 88.184 186.302 88.814C186.662 89.434 186.842 90.154 186.842 90.974C186.842 91.784 186.667 92.504 186.317 93.134C185.967 93.754 185.482 94.244 184.862 94.604C184.242 94.954 183.527 95.129 182.717 95.129ZM182.717 93.779C183.237 93.779 183.697 93.659 184.097 93.419C184.497 93.179 184.807 92.849 185.027 92.429C185.257 92.009 185.372 91.524 185.372 90.974C185.372 90.424 185.257 89.939 185.027 89.519C184.807 89.089 184.497 88.754 184.097 88.514C183.697 88.274 183.237 88.154 182.717 88.154C182.197 88.154 181.737 88.274 181.337 88.514C180.937 88.754 180.622 89.089 180.392 89.519C180.162 89.939 180.047 90.424 180.047 90.974C180.047 91.524 180.162 92.009 180.392 92.429C180.622 92.849 180.937 93.179 181.337 93.419C181.737 93.659 182.197 93.779 182.717 93.779ZM189.074 91.724C188.854 91.724 188.669 91.654 188.519 91.514C188.379 91.374 188.309 91.194 188.309 90.974C188.309 90.744 188.379 90.559 188.519 90.419C188.669 90.279 188.854 90.209 189.074 90.209H192.419C192.639 90.209 192.819 90.279 192.959 90.419C193.099 90.559 193.169 90.744 193.169 90.974C193.169 91.194 193.099 91.374 192.959 91.514C192.819 91.654 192.639 91.724 192.419 91.724H189.074ZM201.878 95.069C201.658 95.069 201.473 94.999 201.323 94.859C201.183 94.709 201.113 94.524 201.113 94.304V87.629C201.113 87.399 201.183 87.214 201.323 87.074C201.473 86.934 201.658 86.864 201.878 86.864C202.108 86.864 202.288 86.934 202.418 87.074C202.548 87.214 202.613 87.399 202.613 87.629V94.304C202.613 94.524 202.548 94.709 202.418 94.859C202.288 94.999 202.108 95.069 201.878 95.069ZM195.713 95.069C195.493 95.069 195.313 94.999 195.173 94.859C195.043 94.709 194.978 94.524 194.978 94.304V87.629C194.978 87.399 195.043 87.214 195.173 87.074C195.313 86.934 195.493 86.864 195.713 86.864C195.943 86.864 196.128 86.934 196.268 87.074C196.408 87.214 196.478 87.399 196.478 87.629V94.304C196.478 94.524 196.408 94.709 196.268 94.859C196.128 94.999 195.943 95.069 195.713 95.069ZM196.283 91.484V90.134H201.548V91.484H196.283ZM208.74 95.129C208.01 95.129 207.355 94.949 206.775 94.589C206.195 94.219 205.735 93.724 205.395 93.104C205.065 92.474 204.9 91.764 204.9 90.974C204.9 90.184 205.08 89.474 205.44 88.844C205.81 88.214 206.305 87.719 206.925 87.359C207.555 86.989 208.26 86.804 209.04 86.804C209.82 86.804 210.52 86.989 211.14 87.359C211.76 87.719 212.25 88.214 212.61 88.844C212.98 89.474 213.165 90.184 213.165 90.974H212.58C212.58 91.764 212.41 92.474 212.07 93.104C211.74 93.724 211.285 94.219 210.705 94.589C210.125 94.949 209.47 95.129 208.74 95.129ZM209.04 93.779C209.55 93.779 210.005 93.659 210.405 93.419C210.805 93.169 211.12 92.834 211.35 92.414C211.58 91.984 211.695 91.504 211.695 90.974C211.695 90.434 211.58 89.954 211.35 89.534C211.12 89.104 210.805 88.769 210.405 88.529C210.005 88.279 209.55 88.154 209.04 88.154C208.54 88.154 208.085 88.279 207.675 88.529C207.275 88.769 206.955 89.104 206.715 89.534C206.485 89.954 206.37 90.434 206.37 90.974C206.37 91.504 206.485 91.984 206.715 92.414C206.955 92.834 207.275 93.169 207.675 93.419C208.085 93.659 208.54 93.779 209.04 93.779ZM212.4 95.084C212.18 95.084 211.995 95.014 211.845 94.874C211.705 94.724 211.635 94.539 211.635 94.319V92.024L211.92 90.434L213.165 90.974V94.319C213.165 94.539 213.09 94.724 212.94 94.874C212.8 95.014 212.62 95.084 212.4 95.084ZM214.808 98.669C214.628 98.669 214.443 98.644 214.253 98.594C214.073 98.544 213.893 98.469 213.713 98.369C213.493 98.239 213.348 98.079 213.278 97.889C213.208 97.699 213.238 97.514 213.368 97.334C213.488 97.164 213.633 97.059 213.803 97.019C213.973 96.979 214.153 97.014 214.343 97.124C214.453 97.184 214.553 97.229 214.643 97.259C214.743 97.289 214.843 97.304 214.943 97.304C215.263 97.304 215.568 97.139 215.858 96.809C216.158 96.479 216.453 95.989 216.743 95.339L220.328 87.239C220.418 87.039 220.553 86.904 220.733 86.834C220.923 86.764 221.113 86.774 221.303 86.864C221.473 86.934 221.583 87.064 221.633 87.254C221.683 87.434 221.658 87.629 221.558 87.839L217.943 95.939C217.583 96.749 217.123 97.404 216.563 97.904C216.013 98.414 215.428 98.669 214.808 98.669ZM218.228 94.739C218.038 94.819 217.858 94.829 217.688 94.769C217.528 94.699 217.398 94.569 217.298 94.379L213.863 87.854C213.763 87.664 213.748 87.484 213.818 87.314C213.898 87.134 214.033 87.004 214.223 86.924C214.413 86.844 214.588 86.839 214.748 86.909C214.918 86.969 215.053 87.094 215.153 87.284L218.453 93.749C218.553 93.939 218.588 94.134 218.558 94.334C218.528 94.524 218.418 94.659 218.228 94.739ZM225.696 92.609C224.976 92.609 224.381 92.444 223.911 92.114C223.441 91.784 223.091 91.334 222.861 90.764C222.641 90.184 222.531 89.519 222.531 88.769V87.629C222.531 87.399 222.601 87.214 222.741 87.074C222.891 86.934 223.076 86.864 223.296 86.864C223.526 86.864 223.711 86.934 223.851 87.074C223.991 87.214 224.061 87.399 224.061 87.629V88.769C224.061 89.489 224.201 90.079 224.481 90.539C224.771 90.999 225.276 91.229 225.996 91.229C226.566 91.229 227.031 91.134 227.391 90.944C227.761 90.754 227.946 90.509 227.946 90.209H228.741C228.741 90.679 228.611 91.094 228.351 91.454C228.091 91.814 227.731 92.099 227.271 92.309C226.821 92.509 226.296 92.609 225.696 92.609ZM228.711 95.069C228.491 95.069 228.306 94.999 228.156 94.859C228.016 94.709 227.946 94.524 227.946 94.304V87.629C227.946 87.399 228.016 87.214 228.156 87.074C228.306 86.934 228.491 86.864 228.711 86.864C228.941 86.864 229.126 86.934 229.266 87.074C229.406 87.214 229.476 87.399 229.476 87.629V94.304C229.476 94.524 229.406 94.709 229.266 94.859C229.126 94.999 228.941 95.069 228.711 95.069ZM239.071 95.069C238.851 95.069 238.666 94.999 238.516 94.859C238.376 94.709 238.306 94.524 238.306 94.304V87.629C238.306 87.399 238.376 87.214 238.516 87.074C238.666 86.934 238.851 86.864 239.071 86.864C239.301 86.864 239.481 86.934 239.611 87.074C239.741 87.214 239.806 87.399 239.806 87.629V94.304C239.806 94.524 239.741 94.709 239.611 94.859C239.481 94.999 239.301 95.069 239.071 95.069ZM232.906 95.069C232.686 95.069 232.506 94.999 232.366 94.859C232.236 94.709 232.171 94.524 232.171 94.304V87.629C232.171 87.399 232.236 87.214 232.366 87.074C232.506 86.934 232.686 86.864 232.906 86.864C233.136 86.864 233.321 86.934 233.461 87.074C233.601 87.214 233.671 87.399 233.671 87.629V94.304C233.671 94.524 233.601 94.709 233.461 94.859C233.321 94.999 233.136 95.069 232.906 95.069ZM233.476 91.484V90.134H238.741V91.484H233.476ZM245.948 95.219C245.278 95.219 244.683 95.079 244.163 94.799C243.643 94.509 243.238 94.114 242.948 93.614C242.658 93.114 242.513 92.544 242.513 91.904V87.614C242.533 87.394 242.613 87.214 242.753 87.074C242.893 86.934 243.068 86.864 243.278 86.864C243.508 86.864 243.693 86.934 243.833 87.074C243.973 87.214 244.043 87.399 244.043 87.629V89.309H246.098C246.728 89.309 247.283 89.419 247.763 89.639C248.253 89.859 248.633 90.179 248.903 90.599C249.183 91.019 249.323 91.534 249.323 92.144C249.323 92.794 249.178 93.349 248.888 93.809C248.608 94.269 248.213 94.619 247.703 94.859C247.193 95.099 246.608 95.219 245.948 95.219ZM245.948 93.794C246.508 93.794 246.963 93.659 247.313 93.389C247.673 93.109 247.853 92.694 247.853 92.144C247.853 91.614 247.688 91.224 247.358 90.974C247.028 90.724 246.608 90.599 246.098 90.599H244.043V91.874C244.043 92.434 244.218 92.894 244.568 93.254C244.928 93.614 245.388 93.794 245.948 93.794ZM251.393 95.069C251.173 95.069 250.988 94.999 250.838 94.859C250.698 94.709 250.628 94.524 250.628 94.304V87.629C250.628 87.399 250.698 87.214 250.838 87.074C250.988 86.934 251.173 86.864 251.393 86.864C251.623 86.864 251.808 86.934 251.948 87.074C252.088 87.214 252.158 87.399 252.158 87.629V94.304C252.158 94.524 252.088 94.709 251.948 94.859C251.808 94.999 251.623 95.069 251.393 95.069ZM258.311 95.144C257.621 95.144 257.001 94.999 256.451 94.709C255.911 94.409 255.481 93.974 255.161 93.404C254.851 92.834 254.696 92.134 254.696 91.304V87.614C254.696 87.394 254.766 87.214 254.906 87.074C255.056 86.924 255.241 86.849 255.461 86.849C255.681 86.849 255.861 86.924 256.001 87.074C256.151 87.214 256.226 87.394 256.226 87.614V91.304C256.226 91.864 256.331 92.329 256.541 92.699C256.751 93.059 257.036 93.329 257.396 93.509C257.756 93.679 258.161 93.764 258.611 93.764C259.041 93.764 259.421 93.679 259.751 93.509C260.091 93.339 260.361 93.109 260.561 92.819C260.761 92.529 260.861 92.204 260.861 91.844H261.806C261.806 92.464 261.651 93.024 261.341 93.524C261.041 94.024 260.626 94.419 260.096 94.709C259.576 94.999 258.981 95.144 258.311 95.144ZM261.626 95.069C261.406 95.069 261.221 94.999 261.071 94.859C260.931 94.709 260.861 94.524 260.861 94.304V87.614C260.861 87.384 260.931 87.199 261.071 87.059C261.221 86.919 261.406 86.849 261.626 86.849C261.856 86.849 262.041 86.919 262.181 87.059C262.321 87.199 262.391 87.384 262.391 87.614V94.304C262.391 94.524 262.321 94.709 262.181 94.859C262.041 94.999 261.856 95.069 261.626 95.069ZM258.626 85.784C258.116 85.784 257.656 85.699 257.246 85.529C256.836 85.349 256.511 85.109 256.271 84.809C256.031 84.499 255.911 84.154 255.911 83.774C255.911 83.564 255.976 83.389 256.106 83.249C256.236 83.109 256.396 83.039 256.586 83.039C256.786 83.039 256.946 83.109 257.066 83.249C257.196 83.389 257.261 83.564 257.261 83.774C257.261 84.024 257.391 84.239 257.651 84.419C257.911 84.589 258.236 84.674 258.626 84.674C259.016 84.674 259.341 84.589 259.601 84.419C259.861 84.239 259.991 84.024 259.991 83.774C259.991 83.564 260.056 83.389 260.186 83.249C260.316 83.109 260.476 83.039 260.666 83.039C260.866 83.039 261.026 83.109 261.146 83.249C261.276 83.389 261.341 83.564 261.341 83.774C261.341 84.154 261.221 84.499 260.981 84.809C260.741 85.109 260.416 85.349 260.006 85.529C259.606 85.699 259.146 85.784 258.626 85.784ZM124.227 110.069C124.007 110.069 123.817 109.994 123.657 109.844C123.497 109.694 123.417 109.509 123.417 109.289V99.134C123.417 98.904 123.497 98.719 123.657 98.579C123.817 98.429 124.007 98.354 124.227 98.354C124.457 98.354 124.637 98.429 124.767 98.579C124.907 98.719 124.977 98.904 124.977 99.134V107.639L132.177 98.639C132.337 98.449 132.537 98.354 132.777 98.354C133.007 98.354 133.192 98.429 133.332 98.579C133.482 98.719 133.557 98.904 133.557 99.134V109.289C133.557 109.509 133.482 109.694 133.332 109.844C133.192 109.994 133.007 110.069 132.777 110.069C132.557 110.069 132.372 109.994 132.222 109.844C132.072 109.694 131.997 109.509 131.997 109.289V100.799L124.827 109.799C124.757 109.879 124.667 109.944 124.557 109.994C124.447 110.044 124.337 110.069 124.227 110.069ZM143.307 110.069C143.087 110.069 142.902 109.999 142.752 109.859C142.612 109.709 142.542 109.524 142.542 109.304V102.629C142.542 102.399 142.612 102.214 142.752 102.074C142.902 101.934 143.087 101.864 143.307 101.864C143.537 101.864 143.717 101.934 143.847 102.074C143.977 102.214 144.042 102.399 144.042 102.629V109.304C144.042 109.524 143.977 109.709 143.847 109.859C143.717 109.999 143.537 110.069 143.307 110.069ZM137.142 110.069C136.922 110.069 136.742 109.999 136.602 109.859C136.472 109.709 136.407 109.524 136.407 109.304V102.629C136.407 102.399 136.472 102.214 136.602 102.074C136.742 101.934 136.922 101.864 137.142 101.864C137.372 101.864 137.557 101.934 137.697 102.074C137.837 102.214 137.907 102.399 137.907 102.629V109.304C137.907 109.524 137.837 109.709 137.697 109.859C137.557 109.999 137.372 110.069 137.142 110.069ZM137.712 106.484V105.134H142.977V106.484H137.712ZM150.468 110.129C149.668 110.129 148.953 109.949 148.323 109.589C147.703 109.219 147.213 108.724 146.853 108.104C146.503 107.474 146.328 106.764 146.328 105.974C146.328 105.164 146.503 104.444 146.853 103.814C147.203 103.184 147.683 102.694 148.293 102.344C148.903 101.984 149.603 101.804 150.393 101.804C150.983 101.804 151.523 101.919 152.013 102.149C152.503 102.369 152.943 102.704 153.333 103.154C153.473 103.314 153.523 103.479 153.483 103.649C153.443 103.819 153.333 103.969 153.153 104.099C153.013 104.199 152.858 104.234 152.688 104.204C152.518 104.164 152.363 104.074 152.223 103.934C151.733 103.414 151.123 103.154 150.393 103.154C149.883 103.154 149.433 103.274 149.043 103.514C148.653 103.744 148.348 104.069 148.128 104.489C147.908 104.909 147.798 105.404 147.798 105.974C147.798 106.514 147.908 106.994 148.128 107.414C148.358 107.834 148.673 108.169 149.073 108.419C149.473 108.659 149.938 108.779 150.468 108.779C150.818 108.779 151.123 108.739 151.383 108.659C151.653 108.569 151.898 108.434 152.118 108.254C152.278 108.124 152.443 108.054 152.613 108.044C152.783 108.024 152.933 108.069 153.063 108.179C153.233 108.319 153.328 108.479 153.348 108.659C153.368 108.829 153.308 108.984 153.168 109.124C152.448 109.794 151.548 110.129 150.468 110.129ZM166.527 110.084C166.307 110.084 166.122 110.014 165.972 109.874C165.832 109.724 165.762 109.539 165.762 109.319V105.029C165.762 104.399 165.607 103.934 165.297 103.634C164.987 103.324 164.582 103.169 164.082 103.169C163.562 103.169 163.132 103.349 162.792 103.709C162.462 104.069 162.297 104.529 162.297 105.089H161.052C161.052 104.439 161.192 103.869 161.472 103.379C161.752 102.879 162.142 102.489 162.642 102.209C163.152 101.929 163.732 101.789 164.382 101.789C164.952 101.789 165.457 101.914 165.897 102.164C166.337 102.414 166.677 102.784 166.917 103.274C167.167 103.754 167.292 104.339 167.292 105.029V109.319C167.292 109.539 167.222 109.724 167.082 109.874C166.942 110.014 166.757 110.084 166.527 110.084ZM156.522 110.084C156.302 110.084 156.117 110.014 155.967 109.874C155.827 109.724 155.757 109.539 155.757 109.319V102.644C155.757 102.414 155.827 102.229 155.967 102.089C156.117 101.949 156.302 101.879 156.522 101.879C156.752 101.879 156.937 101.949 157.077 102.089C157.217 102.229 157.287 102.414 157.287 102.644V109.319C157.287 109.539 157.217 109.724 157.077 109.874C156.937 110.014 156.752 110.084 156.522 110.084ZM161.532 110.084C161.312 110.084 161.127 110.014 160.977 109.874C160.837 109.724 160.767 109.539 160.767 109.319V105.029C160.767 104.399 160.612 103.934 160.302 103.634C159.992 103.324 159.587 103.169 159.087 103.169C158.567 103.169 158.137 103.349 157.797 103.709C157.457 104.069 157.287 104.529 157.287 105.089H156.342C156.342 104.439 156.472 103.869 156.732 103.379C156.992 102.879 157.352 102.489 157.812 102.209C158.272 101.929 158.797 101.789 159.387 101.789C159.957 101.789 160.462 101.914 160.902 102.164C161.342 102.414 161.682 102.784 161.922 103.274C162.172 103.754 162.297 104.339 162.297 105.029V109.319C162.297 109.539 162.227 109.724 162.087 109.874C161.947 110.014 161.762 110.084 161.532 110.084ZM173.284 110.144C172.594 110.144 171.974 109.999 171.424 109.709C170.884 109.409 170.454 108.974 170.134 108.404C169.824 107.834 169.669 107.134 169.669 106.304V102.614C169.669 102.394 169.739 102.214 169.879 102.074C170.029 101.924 170.214 101.849 170.434 101.849C170.654 101.849 170.834 101.924 170.974 102.074C171.124 102.214 171.199 102.394 171.199 102.614V106.304C171.199 106.864 171.304 107.329 171.514 107.699C171.724 108.059 172.009 108.329 172.369 108.509C172.729 108.679 173.134 108.764 173.584 108.764C174.014 108.764 174.394 108.679 174.724 108.509C175.064 108.339 175.334 108.109 175.534 107.819C175.734 107.529 175.834 107.204 175.834 106.844H176.779C176.779 107.464 176.624 108.024 176.314 108.524C176.014 109.024 175.599 109.419 175.069 109.709C174.549 109.999 173.954 110.144 173.284 110.144ZM176.599 110.069C176.379 110.069 176.194 109.999 176.044 109.859C175.904 109.709 175.834 109.524 175.834 109.304V102.614C175.834 102.384 175.904 102.199 176.044 102.059C176.194 101.919 176.379 101.849 176.599 101.849C176.829 101.849 177.014 101.919 177.154 102.059C177.294 102.199 177.364 102.384 177.364 102.614V109.304C177.364 109.524 177.294 109.709 177.154 109.859C177.014 109.999 176.829 110.069 176.599 110.069ZM190.829 110.084C190.609 110.084 190.424 110.014 190.274 109.874C190.134 109.724 190.064 109.539 190.064 109.319V105.029C190.064 104.399 189.909 103.934 189.599 103.634C189.289 103.324 188.884 103.169 188.384 103.169C187.864 103.169 187.434 103.349 187.094 103.709C186.764 104.069 186.599 104.529 186.599 105.089H185.354C185.354 104.439 185.494 103.869 185.774 103.379C186.054 102.879 186.444 102.489 186.944 102.209C187.454 101.929 188.034 101.789 188.684 101.789C189.254 101.789 189.759 101.914 190.199 102.164C190.639 102.414 190.979 102.784 191.219 103.274C191.469 103.754 191.594 104.339 191.594 105.029V109.319C191.594 109.539 191.524 109.724 191.384 109.874C191.244 110.014 191.059 110.084 190.829 110.084ZM180.824 110.084C180.604 110.084 180.419 110.014 180.269 109.874C180.129 109.724 180.059 109.539 180.059 109.319V102.644C180.059 102.414 180.129 102.229 180.269 102.089C180.419 101.949 180.604 101.879 180.824 101.879C181.054 101.879 181.239 101.949 181.379 102.089C181.519 102.229 181.589 102.414 181.589 102.644V109.319C181.589 109.539 181.519 109.724 181.379 109.874C181.239 110.014 181.054 110.084 180.824 110.084ZM185.834 110.084C185.614 110.084 185.429 110.014 185.279 109.874C185.139 109.724 185.069 109.539 185.069 109.319V105.029C185.069 104.399 184.914 103.934 184.604 103.634C184.294 103.324 183.889 103.169 183.389 103.169C182.869 103.169 182.439 103.349 182.099 103.709C181.759 104.069 181.589 104.529 181.589 105.089H180.644C180.644 104.439 180.774 103.869 181.034 103.379C181.294 102.879 181.654 102.489 182.114 102.209C182.574 101.929 183.099 101.789 183.689 101.789C184.259 101.789 184.764 101.914 185.204 102.164C185.644 102.414 185.984 102.784 186.224 103.274C186.474 103.754 186.599 104.339 186.599 105.029V109.319C186.599 109.539 186.529 109.724 186.389 109.874C186.249 110.014 186.064 110.084 185.834 110.084ZM193.502 113.669C193.322 113.669 193.137 113.644 192.947 113.594C192.767 113.544 192.587 113.469 192.407 113.369C192.187 113.239 192.042 113.079 191.972 112.889C191.902 112.699 191.932 112.514 192.062 112.334C192.182 112.164 192.327 112.059 192.497 112.019C192.667 111.979 192.847 112.014 193.037 112.124C193.147 112.184 193.247 112.229 193.337 112.259C193.437 112.289 193.537 112.304 193.637 112.304C193.957 112.304 194.262 112.139 194.552 111.809C194.852 111.479 195.147 110.989 195.437 110.339L199.022 102.239C199.112 102.039 199.247 101.904 199.427 101.834C199.617 101.764 199.807 101.774 199.997 101.864C200.167 101.934 200.277 102.064 200.327 102.254C200.377 102.434 200.352 102.629 200.252 102.839L196.637 110.939C196.277 111.749 195.817 112.404 195.257 112.904C194.707 113.414 194.122 113.669 193.502 113.669ZM196.922 109.739C196.732 109.819 196.552 109.829 196.382 109.769C196.222 109.699 196.092 109.569 195.992 109.379L192.557 102.854C192.457 102.664 192.442 102.484 192.512 102.314C192.592 102.134 192.727 102.004 192.917 101.924C193.107 101.844 193.282 101.839 193.442 101.909C193.612 101.969 193.747 102.094 193.847 102.284L197.147 108.749C197.247 108.939 197.282 109.134 197.252 109.334C197.222 109.524 197.112 109.659 196.922 109.739ZM212.67 110.084C212.45 110.084 212.265 110.014 212.115 109.874C211.975 109.724 211.905 109.539 211.905 109.319V105.029C211.905 104.399 211.75 103.934 211.44 103.634C211.13 103.324 210.725 103.169 210.225 103.169C209.705 103.169 209.275 103.349 208.935 103.709C208.605 104.069 208.44 104.529 208.44 105.089H207.195C207.195 104.439 207.335 103.869 207.615 103.379C207.895 102.879 208.285 102.489 208.785 102.209C209.295 101.929 209.875 101.789 210.525 101.789C211.095 101.789 211.6 101.914 212.04 102.164C212.48 102.414 212.82 102.784 213.06 103.274C213.31 103.754 213.435 104.339 213.435 105.029V109.319C213.435 109.539 213.365 109.724 213.225 109.874C213.085 110.014 212.9 110.084 212.67 110.084ZM202.665 110.084C202.445 110.084 202.26 110.014 202.11 109.874C201.97 109.724 201.9 109.539 201.9 109.319V102.644C201.9 102.414 201.97 102.229 202.11 102.089C202.26 101.949 202.445 101.879 202.665 101.879C202.895 101.879 203.08 101.949 203.22 102.089C203.36 102.229 203.43 102.414 203.43 102.644V109.319C203.43 109.539 203.36 109.724 203.22 109.874C203.08 110.014 202.895 110.084 202.665 110.084ZM207.675 110.084C207.455 110.084 207.27 110.014 207.12 109.874C206.98 109.724 206.91 109.539 206.91 109.319V105.029C206.91 104.399 206.755 103.934 206.445 103.634C206.135 103.324 205.73 103.169 205.23 103.169C204.71 103.169 204.28 103.349 203.94 103.709C203.6 104.069 203.43 104.529 203.43 105.089H202.485C202.485 104.439 202.615 103.869 202.875 103.379C203.135 102.879 203.495 102.489 203.955 102.209C204.415 101.929 204.94 101.789 205.53 101.789C206.1 101.789 206.605 101.914 207.045 102.164C207.485 102.414 207.825 102.784 208.065 103.274C208.315 103.754 208.44 104.339 208.44 105.029V109.319C208.44 109.539 208.37 109.724 208.23 109.874C208.09 110.014 207.905 110.084 207.675 110.084Z" fill="white"/>
</svg>
