<svg width="169" height="76" viewBox="0 0 169 76" fill="none" xmlns="http://www.w3.org/2000/svg">
<path d="M24.47 3.40389V0H152.258V20.4233H168.571V75.5663H142.062V66.0354H118.951V61.27H25.8294V71.4817H0V3.40389H24.47Z" fill="#A73C4C"/>
<path d="M68.7992 38.3489C67.7192 38.3489 66.7059 38.1489 65.7592 37.7489C64.8259 37.3356 64.0059 36.7689 63.2992 36.0489C62.6059 35.3156 62.0592 34.4622 61.6592 33.4889C61.2725 32.5156 61.0792 31.4622 61.0792 30.3289C61.0792 29.2089 61.2725 28.1689 61.6592 27.2089C62.0592 26.2356 62.6059 25.3889 63.2992 24.6689C64.0059 23.9356 64.8259 23.3622 65.7592 22.9489C66.6925 22.5356 67.7059 22.3289 68.7992 22.3289C69.8259 22.3289 70.7059 22.4622 71.4392 22.7289C72.1859 22.9956 72.9325 23.4356 73.6792 24.0489C73.7859 24.1289 73.8659 24.2156 73.9192 24.3089C73.9859 24.3889 74.0259 24.4756 74.0392 24.5689C74.0659 24.6489 74.0792 24.7489 74.0792 24.8689C74.0792 25.1222 73.9859 25.3356 73.7992 25.5089C73.6259 25.6689 73.4125 25.7622 73.1592 25.7889C72.9059 25.8022 72.6592 25.7156 72.4192 25.5289C71.9259 25.1022 71.4125 24.7756 70.8792 24.5489C70.3592 24.3222 69.6659 24.2089 68.7992 24.2089C68.0125 24.2089 67.2725 24.3689 66.5792 24.6889C65.8859 25.0089 65.2725 25.4489 64.7392 26.0089C64.2192 26.5689 63.8125 27.2222 63.5192 27.9689C63.2259 28.7022 63.0792 29.4889 63.0792 30.3289C63.0792 31.1822 63.2259 31.9822 63.5192 32.7289C63.8125 33.4622 64.2192 34.1089 64.7392 34.6689C65.2725 35.2289 65.8859 35.6689 66.5792 35.9889C67.2725 36.2956 68.0125 36.4489 68.7992 36.4489C69.4792 36.4489 70.1192 36.3356 70.7192 36.1089C71.3325 35.8689 71.9192 35.5422 72.4792 35.1289C72.7192 34.9556 72.9525 34.8822 73.1792 34.9089C73.4192 34.9222 73.6192 35.0156 73.7792 35.1889C73.9392 35.3489 74.0192 35.5756 74.0192 35.8689C74.0192 36.0022 73.9925 36.1356 73.9392 36.2689C73.8859 36.3889 73.8059 36.5022 73.6992 36.6089C72.9792 37.1822 72.2059 37.6156 71.3792 37.9089C70.5659 38.2022 69.7059 38.3489 68.7992 38.3489ZM79.1261 37.5089L77.3461 36.6489L82.9661 23.2289C83.1661 22.7622 83.4927 22.5289 83.9461 22.5289C84.4261 22.5289 84.7527 22.7622 84.9261 23.2289L90.5661 36.6889L88.9061 37.5089L83.8261 25.1889H84.1061L79.1261 37.5089ZM76.8861 41.7089C76.5927 41.7089 76.3461 41.6089 76.1461 41.4089C75.9461 41.2089 75.8461 40.9622 75.8461 40.6689V37.3489C75.8461 37.0422 75.9461 36.7956 76.1461 36.6089C76.3461 36.4089 76.5927 36.3089 76.8861 36.3089H90.9661C91.2727 36.3089 91.5194 36.4089 91.7061 36.6089C91.9061 36.7956 92.0061 37.0422 92.0061 37.3489V40.6689C92.0061 40.9622 91.9061 41.2089 91.7061 41.4089C91.5194 41.6089 91.2727 41.7089 90.9661 41.7089C90.6727 41.7089 90.4261 41.6089 90.2261 41.4089C90.0261 41.2089 89.9261 40.9622 89.9261 40.6689V38.1489H77.9261V40.6689C77.9261 40.9622 77.8261 41.2089 77.6261 41.4089C77.4394 41.6089 77.1927 41.7089 76.8861 41.7089ZM105.994 37.8889C105.807 38.0756 105.554 38.1622 105.234 38.1489C104.914 38.1489 104.661 38.0422 104.474 37.8289L97.914 30.1889L104.034 22.8689C104.221 22.6422 104.461 22.5289 104.754 22.5289C105.061 22.5156 105.307 22.6156 105.494 22.8289C105.681 23.0422 105.767 23.2689 105.754 23.5089C105.754 23.7356 105.661 23.9556 105.474 24.1689L100.414 30.0489L105.994 36.5289C106.181 36.7422 106.281 36.9689 106.294 37.2089C106.321 37.4356 106.221 37.6622 105.994 37.8889ZM95.554 38.1489C95.2607 38.1489 95.014 38.0489 94.814 37.8489C94.614 37.6489 94.514 37.4022 94.514 37.1089V23.5689C94.514 23.2622 94.614 23.0156 94.814 22.8289C95.014 22.6289 95.2607 22.5289 95.554 22.5289C95.8607 22.5289 96.1074 22.6289 96.294 22.8289C96.494 23.0156 96.594 23.2622 96.594 23.5689V29.3089H99.874V31.1489H96.594V37.1089C96.594 37.4022 96.494 37.6489 96.294 37.8489C96.1074 38.0489 95.8607 38.1489 95.554 38.1489Z" fill="white"/>
</svg>
