<svg width="1440" height="900" viewBox="0 0 1440 900" fill="none" xmlns="http://www.w3.org/2000/svg">
<rect width="1440" height="900" fill="#89907E"/>
<path d="M86 27H1258L1354.5 354.5C1354.5 354.5 1248 576 1157 697C1066 818 918 874 608 874C298 874 86 874 86 874V27Z" fill="#C7D3B3"/>
<path d="M61.703 499.5H81.3251M81.3251 499.5L75.9743 493.156M81.3251 499.5L75.9736 505.844" stroke="#A73C4C" stroke-width="3" stroke-linecap="round" stroke-linejoin="round"/>
<path d="M68.8382 491.591V485.906C68.8382 485.406 68.4388 485 67.9463 485H51.8919C51.3993 485 51 485.406 51 485.906V513.094C51 513.594 51.3993 514 51.8919 514H67.9463C68.4388 514 68.8382 513.594 68.8382 513.094V507.409" stroke="#A73C4C" stroke-width="3" stroke-linecap="round" stroke-linejoin="round"/>
<path d="M61.703 173.5H81.3251M81.3251 173.5L75.9743 167.156M81.3251 173.5L75.9736 179.844" stroke="#A73C4C" stroke-width="3" stroke-linecap="round" stroke-linejoin="round"/>
<path d="M68.8382 165.591V159.906C68.8382 159.406 68.4388 159 67.9463 159H51.8919C51.3993 159 51 159.406 51 159.906V187.094C51 187.594 51.3993 188 51.8919 188H67.9463C68.4388 188 68.8382 187.594 68.8382 187.094V181.409" stroke="#A73C4C" stroke-width="3" stroke-linecap="round" stroke-linejoin="round"/>
<path d="M1347.62 240.5H1328M1328 240.5L1333.35 234.156M1328 240.5L1333.35 246.844" stroke="#A73C4C" stroke-width="3" stroke-linecap="round" stroke-linejoin="round"/>
<path d="M1340.49 232.591V226.906C1340.49 226.406 1340.89 226 1341.38 226H1357.43C1357.93 226 1358.33 226.406 1358.33 226.906V254.094C1358.33 254.594 1357.93 255 1357.43 255H1341.38C1340.89 255 1340.49 254.594 1340.49 254.094V248.409" stroke="#A73C4C" stroke-width="3" stroke-linecap="round" stroke-linejoin="round"/>
<path d="M376 336V316.5L506 321V336C506 371.899 476.899 401 441 401C405.101 401 376 371.899 376 336Z" fill="#89907E"/>
<rect x="406.126" y="383.996" width="10" height="153.279" transform="rotate(45.7599 406.126 383.996)" fill="#89907E"/>
<rect width="10" height="153.279" transform="matrix(0.697666 -0.716423 -0.716423 -0.697666 583.813 496.102)" fill="#89907E"/>
<path d="M86 165.5H288L503.5 60H628.5V77.5H507L299.5 180.5V265H547V74H564V265H638.5V282.5H299.5V356H578.5L623.5 275L633.5 279L590.5 356H633.5V366H547.5V424H630V432H563.5V467.5L555.5 458.5V432H526L522.5 424H539.5V366H348.5V424H366.5L365 432H330V463.5L322 469.5V432H296.5V424H340.5V366H299.5V486.5H437.5V398.5H447.5V486.5H626.5L627.5 265H609.772V174.5H627.5V27H737.5L737.424 32.5H703.5V77.5H644V209.5H724.5V284H644V437.5H675.5V486.5H893V99.5H736.5L737.5 27H990.5L989.5 99.5H909.5V125H981V287H909.5V486.5H959.5L958 401.5L900.5 360.5L908 345.5L971 391H1129.5V486.5H1184H1189V260H1180.5V224.5H1316.21L1326.66 260H1206.5V454.5L1260 260H1279L1209 514H633.5V556L677.5 618H667.5L633.5 568.5V618H679V632H633.5V679L667.5 632H677.5L633.5 691.5V725.5H766.5V632H738.5V618H766.5V514H801.5V679H885V514H901.5V588H912V625.5H901.5V719H977.25V514H1209C1112.5 838.5 893 862 607.5 862V857V514H86V486.5H187.5V416H151V375.5H234V416H215V486.5H282V183H86V165.5Z" fill="#89907E"/>
<path d="M572 84H609.783V255.477H572V84Z" fill="#B1B1B1"/>
<path d="M584.85 108.223C584.85 107.343 584.995 106.538 585.285 105.808C585.585 105.078 586 104.448 586.53 103.918C587.07 103.398 587.705 102.993 588.435 102.703C589.175 102.413 589.985 102.268 590.865 102.268C591.745 102.268 592.55 102.413 593.28 102.703C594.01 102.993 594.64 103.398 595.17 103.918C595.71 104.448 596.125 105.078 596.415 105.808C596.715 106.538 596.865 107.343 596.865 108.223C596.865 109.103 596.715 109.903 596.415 110.623C596.125 111.353 595.71 111.983 595.17 112.513C594.64 113.043 594.01 113.453 593.28 113.743C592.55 114.033 591.745 114.178 590.865 114.178C589.985 114.178 589.175 114.033 588.435 113.743C587.705 113.453 587.07 113.043 586.53 112.513C586 111.983 585.585 111.353 585.285 110.623C584.995 109.903 584.85 109.103 584.85 108.223ZM586.26 108.223C586.26 108.873 586.375 109.468 586.605 110.008C586.845 110.558 587.17 111.033 587.58 111.433C588 111.833 588.49 112.138 589.05 112.348C589.61 112.568 590.215 112.678 590.865 112.678C591.515 112.678 592.12 112.568 592.68 112.348C593.24 112.138 593.725 111.833 594.135 111.433C594.555 111.033 594.88 110.558 595.11 110.008C595.34 109.468 595.455 108.873 595.455 108.223C595.455 107.573 595.34 106.973 595.11 106.423C594.88 105.883 594.555 105.413 594.135 105.013C593.725 104.623 593.24 104.318 592.68 104.098C592.12 103.878 591.515 103.768 590.865 103.768C590.215 103.768 589.61 103.878 589.05 104.098C588.49 104.318 588 104.623 587.58 105.013C587.17 105.413 586.845 105.883 586.605 106.423C586.375 106.973 586.26 107.573 586.26 108.223ZM584.94 120.221C584.94 119.421 585.105 118.711 585.435 118.091C585.765 117.471 586.22 116.986 586.8 116.636C587.39 116.286 588.06 116.106 588.81 116.096L588.81 116.831C589.57 116.831 590.235 116.986 590.805 117.296C591.385 117.616 591.84 118.051 592.17 118.601C592.5 119.161 592.665 119.801 592.665 120.521C592.665 121.241 592.5 121.876 592.17 122.426C591.84 122.986 591.385 123.421 590.805 123.731C590.235 124.051 589.57 124.211 588.81 124.211C588.06 124.211 587.39 124.041 586.8 123.701C586.22 123.361 585.765 122.891 585.435 122.291C585.105 121.691 584.94 121.001 584.94 120.221ZM586.29 120.221C586.29 120.721 586.395 121.156 586.605 121.526C586.825 121.906 587.125 122.201 587.505 122.411C587.885 122.631 588.32 122.741 588.81 122.741C589.3 122.741 589.73 122.631 590.1 122.411C590.48 122.201 590.775 121.906 590.985 121.526C591.205 121.156 591.315 120.721 591.315 120.221C591.315 119.701 591.205 119.241 590.985 118.841C590.775 118.441 590.48 118.126 590.1 117.896C589.73 117.676 589.3 117.566 588.81 117.566C588.32 117.566 587.885 117.676 587.505 117.896C587.125 118.126 586.825 118.441 586.605 118.841C586.395 119.241 586.29 119.701 586.29 120.221ZM588.81 116.096L590.505 116.111C591.685 116.121 592.765 116.446 593.745 117.086C594.725 117.736 595.52 118.741 596.13 120.101L597.375 122.906C597.455 123.106 597.465 123.286 597.405 123.446C597.355 123.606 597.24 123.721 597.06 123.791C596.87 123.861 596.695 123.876 596.535 123.836C596.385 123.806 596.25 123.661 596.13 123.401L594.735 120.356C594.415 119.656 594.035 119.081 593.595 118.631C593.155 118.181 592.66 117.846 592.11 117.626C591.57 117.416 590.985 117.301 590.355 117.281L588.81 117.251L588.81 116.096ZM584.91 134.231C584.91 133.661 585.035 133.156 585.285 132.716C585.535 132.276 585.9 131.931 586.38 131.681C586.87 131.441 587.46 131.321 588.15 131.321L592.44 131.321C592.67 131.321 592.855 131.391 592.995 131.531C593.135 131.681 593.205 131.866 593.205 132.086C593.205 132.316 593.135 132.501 592.995 132.641C592.855 132.781 592.67 132.851 592.44 132.851L588.15 132.851C587.73 132.851 587.38 132.921 587.1 133.061C586.83 133.201 586.625 133.396 586.485 133.646C586.355 133.906 586.29 134.201 586.29 134.531C586.29 135.061 586.47 135.491 586.83 135.821C587.19 136.161 587.645 136.331 588.195 136.331L588.195 136.976C587.555 136.976 586.985 136.856 586.485 136.616C585.995 136.386 585.61 136.066 585.33 135.656C585.05 135.246 584.91 134.771 584.91 134.231ZM584.91 129.236C584.91 128.666 585.035 128.161 585.285 127.721C585.535 127.291 585.9 126.951 586.38 126.701C586.87 126.451 587.46 126.326 588.15 126.326L592.44 126.326C592.67 126.326 592.855 126.396 592.995 126.536C593.135 126.686 593.205 126.871 593.205 127.091C593.205 127.321 593.135 127.506 592.995 127.646C592.855 127.786 592.67 127.856 592.44 127.856L588.15 127.856C587.73 127.856 587.38 127.926 587.1 128.066C586.83 128.216 586.625 128.416 586.485 128.666C586.355 128.916 586.29 129.206 586.29 129.536C586.29 130.066 586.47 130.496 586.83 130.826C587.19 131.156 587.645 131.321 588.195 131.321L588.195 131.966C587.555 131.966 586.985 131.851 586.485 131.621C585.995 131.391 585.61 131.071 585.33 130.661C585.05 130.251 584.91 129.776 584.91 129.236ZM582.33 138.596C582.33 138.386 582.405 138.211 582.555 138.071C582.705 137.931 582.89 137.861 583.11 137.861L585 137.861L585 137.636C585 137.186 585.105 136.856 585.315 136.646C585.525 136.436 585.855 136.331 586.305 136.331L592.455 136.331C592.685 136.331 592.87 136.401 593.01 136.541C593.15 136.691 593.22 136.876 593.22 137.096C593.22 137.326 593.15 137.511 593.01 137.651C592.87 137.791 592.685 137.861 592.455 137.861L586.29 137.861L586.29 138.491C586.29 138.721 586.215 138.906 586.065 139.046C585.925 139.196 585.74 139.271 585.51 139.271L583.11 139.271C582.89 139.271 582.705 139.206 582.555 139.076C582.405 138.956 582.33 138.796 582.33 138.596ZM584.94 144.701C584.94 143.871 585.115 143.131 585.465 142.481C585.825 141.841 586.315 141.336 586.935 140.966C587.565 140.606 588.285 140.426 589.095 140.426C589.915 140.426 590.635 140.596 591.255 140.936C591.885 141.286 592.375 141.766 592.725 142.376C593.085 142.986 593.265 143.686 593.265 144.476C593.265 145.256 593.09 145.926 592.74 146.486C592.4 147.046 591.925 147.471 591.315 147.761C590.715 148.061 590.02 148.211 589.23 148.211C589.04 148.211 588.88 148.146 588.75 148.016C588.63 147.886 588.57 147.721 588.57 147.521L588.57 141.476L589.77 141.476L589.77 147.476L589.35 146.861C589.85 146.851 590.295 146.751 590.685 146.561C591.085 146.371 591.4 146.101 591.63 145.751C591.86 145.401 591.975 144.976 591.975 144.476C591.975 143.906 591.85 143.416 591.6 143.006C591.35 142.606 591.005 142.301 590.565 142.091C590.135 141.881 589.645 141.776 589.095 141.776C588.545 141.776 588.055 141.901 587.625 142.151C587.195 142.401 586.855 142.746 586.605 143.186C586.355 143.626 586.23 144.131 586.23 144.701C586.23 145.011 586.285 145.326 586.395 145.646C586.515 145.976 586.65 146.241 586.8 146.441C586.91 146.591 586.965 146.751 586.965 146.921C586.975 147.101 586.925 147.256 586.815 147.386C586.665 147.556 586.5 147.646 586.32 147.656C586.14 147.666 585.985 147.586 585.855 147.416C585.585 147.076 585.365 146.651 585.195 146.141C585.025 145.641 584.94 145.161 584.94 144.701ZM584.985 154.193C584.985 153.973 585.055 153.788 585.195 153.638C585.345 153.498 585.53 153.428 585.75 153.428L588.525 153.428L588.525 152.408L585.21 150.113C585.07 150.013 585 149.848 585 149.618C584.99 149.398 585.05 149.223 585.18 149.093C585.33 148.943 585.485 148.873 585.645 148.883C585.805 148.893 585.96 148.948 586.11 149.048L589.215 151.148L592.11 149.213C592.27 149.113 592.43 149.063 592.59 149.063C592.76 149.073 592.915 149.153 593.055 149.303C593.175 149.433 593.23 149.608 593.22 149.828C593.22 150.058 593.135 150.223 592.965 150.323L589.875 152.318L589.875 153.428L592.44 153.428C592.67 153.428 592.855 153.498 592.995 153.638C593.135 153.788 593.205 153.973 593.205 154.193C593.205 154.423 593.135 154.608 592.995 154.748C592.855 154.888 592.67 154.958 592.44 154.958L589.875 154.958L589.875 156.083L592.965 158.063C593.135 158.173 593.22 158.338 593.22 158.558C593.23 158.778 593.175 158.953 593.055 159.083C592.915 159.233 592.76 159.313 592.59 159.323C592.43 159.333 592.27 159.283 592.11 159.173L589.215 157.238L586.11 159.338C585.96 159.438 585.805 159.493 585.645 159.503C585.485 159.513 585.33 159.443 585.18 159.293C585.05 159.163 584.99 158.983 585 158.753C585 158.533 585.07 158.373 585.21 158.273L588.525 155.993L588.525 154.958L585.75 154.958C585.53 154.958 585.345 154.888 585.195 154.748C585.055 154.608 584.985 154.423 584.985 154.193ZM584.925 164.833C584.925 164.143 585.07 163.523 585.36 162.973C585.66 162.433 586.095 162.003 586.665 161.683C587.235 161.373 587.935 161.218 588.765 161.218L592.455 161.218C592.675 161.218 592.855 161.288 592.995 161.428C593.145 161.578 593.22 161.763 593.22 161.983C593.22 162.203 593.145 162.383 592.995 162.523C592.855 162.673 592.675 162.748 592.455 162.748L588.765 162.748C588.205 162.748 587.74 162.853 587.37 163.063C587.01 163.273 586.74 163.558 586.56 163.918C586.39 164.278 586.305 164.683 586.305 165.133C586.305 165.563 586.39 165.943 586.56 166.273C586.73 166.613 586.96 166.883 587.25 167.083C587.54 167.283 587.865 167.383 588.225 167.383L588.225 168.328C587.605 168.328 587.045 168.173 586.545 167.863C586.045 167.563 585.65 167.148 585.36 166.618C585.07 166.098 584.925 165.503 584.925 164.833ZM585 168.148C585 167.928 585.07 167.743 585.21 167.593C585.36 167.453 585.545 167.383 585.765 167.383L592.455 167.383C592.685 167.383 592.87 167.453 593.01 167.593C593.15 167.743 593.22 167.928 593.22 168.148C593.22 168.378 593.15 168.563 593.01 168.703C592.87 168.843 592.685 168.913 592.455 168.913L585.765 168.913C585.545 168.913 585.36 168.843 585.21 168.703C585.07 168.563 585 168.378 585 168.148ZM584.985 182.378C584.985 182.158 585.055 181.973 585.195 181.823C585.345 181.683 585.53 181.613 585.75 181.613L590.04 181.613C590.67 181.613 591.135 181.458 591.435 181.148C591.745 180.838 591.9 180.433 591.9 179.933C591.9 179.413 591.72 178.983 591.36 178.643C591 178.313 590.54 178.148 589.98 178.148L589.98 176.903C590.63 176.903 591.2 177.043 591.69 177.323C592.19 177.603 592.58 177.993 592.86 178.493C593.14 179.003 593.28 179.583 593.28 180.233C593.28 180.803 593.155 181.308 592.905 181.748C592.655 182.188 592.285 182.528 591.795 182.768C591.315 183.018 590.73 183.143 590.04 183.143L585.75 183.143C585.53 183.143 585.345 183.073 585.195 182.933C585.055 182.793 584.985 182.608 584.985 182.378ZM584.985 172.373C584.985 172.153 585.055 171.968 585.195 171.818C585.345 171.678 585.53 171.608 585.75 171.608L592.425 171.608C592.655 171.608 592.84 171.678 592.98 171.818C593.12 171.968 593.19 172.153 593.19 172.373C593.19 172.603 593.12 172.788 592.98 172.928C592.84 173.068 592.655 173.138 592.425 173.138L585.75 173.138C585.53 173.138 585.345 173.068 585.195 172.928C585.055 172.788 584.985 172.603 584.985 172.373ZM584.985 177.383C584.985 177.163 585.055 176.978 585.195 176.828C585.345 176.688 585.53 176.618 585.75 176.618L590.04 176.618C590.67 176.618 591.135 176.463 591.435 176.153C591.745 175.843 591.9 175.438 591.9 174.938C591.9 174.418 591.72 173.988 591.36 173.648C591 173.308 590.54 173.138 589.98 173.138L589.98 172.193C590.63 172.193 591.2 172.323 591.69 172.583C592.19 172.843 592.58 173.203 592.86 173.663C593.14 174.123 593.28 174.648 593.28 175.238C593.28 175.808 593.155 176.313 592.905 176.753C592.655 177.193 592.285 177.533 591.795 177.773C591.315 178.023 590.73 178.148 590.04 178.148L585.75 178.148C585.53 178.148 585.345 178.078 585.195 177.938C585.055 177.798 584.985 177.613 584.985 177.383ZM584.925 189.135C584.925 188.445 585.07 187.825 585.36 187.275C585.66 186.735 586.095 186.305 586.665 185.985C587.235 185.675 587.935 185.52 588.765 185.52L592.455 185.52C592.675 185.52 592.855 185.59 592.995 185.73C593.145 185.88 593.22 186.065 593.22 186.285C593.22 186.505 593.145 186.685 592.995 186.825C592.855 186.975 592.675 187.05 592.455 187.05L588.765 187.05C588.205 187.05 587.74 187.155 587.37 187.365C587.01 187.575 586.74 187.86 586.56 188.22C586.39 188.58 586.305 188.985 586.305 189.435C586.305 189.865 586.39 190.245 586.56 190.575C586.73 190.915 586.96 191.185 587.25 191.385C587.54 191.585 587.865 191.685 588.225 191.685L588.225 192.63C587.605 192.63 587.045 192.475 586.545 192.165C586.045 191.865 585.65 191.45 585.36 190.92C585.07 190.4 584.925 189.805 584.925 189.135ZM585 192.45C585 192.23 585.07 192.045 585.21 191.895C585.36 191.755 585.545 191.685 585.765 191.685L592.455 191.685C592.685 191.685 592.87 191.755 593.01 191.895C593.15 192.045 593.22 192.23 593.22 192.45C593.22 192.68 593.15 192.865 593.01 193.005C592.87 193.145 592.685 193.215 592.455 193.215L585.765 193.215C585.545 193.215 585.36 193.145 585.21 193.005C585.07 192.865 585 192.68 585 192.45ZM584.94 199.765C584.94 198.935 585.115 198.195 585.465 197.545C585.825 196.905 586.315 196.4 586.935 196.03C587.565 195.67 588.285 195.49 589.095 195.49C589.915 195.49 590.635 195.66 591.255 196C591.885 196.35 592.375 196.83 592.725 197.44C593.085 198.05 593.265 198.75 593.265 199.54C593.265 200.32 593.09 200.99 592.74 201.55C592.4 202.11 591.925 202.535 591.315 202.825C590.715 203.125 590.02 203.275 589.23 203.275C589.04 203.275 588.88 203.21 588.75 203.08C588.63 202.95 588.57 202.785 588.57 202.585L588.57 196.54L589.77 196.54L589.77 202.54L589.35 201.925C589.85 201.915 590.295 201.815 590.685 201.625C591.085 201.435 591.4 201.165 591.63 200.815C591.86 200.465 591.975 200.04 591.975 199.54C591.975 198.97 591.85 198.48 591.6 198.07C591.35 197.67 591.005 197.365 590.565 197.155C590.135 196.945 589.645 196.84 589.095 196.84C588.545 196.84 588.055 196.965 587.625 197.215C587.195 197.465 586.855 197.81 586.605 198.25C586.355 198.69 586.23 199.195 586.23 199.765C586.23 200.075 586.285 200.39 586.395 200.71C586.515 201.04 586.65 201.305 586.8 201.505C586.91 201.655 586.965 201.815 586.965 201.985C586.975 202.165 586.925 202.32 586.815 202.45C586.665 202.62 586.5 202.71 586.32 202.72C586.14 202.73 585.985 202.65 585.855 202.48C585.585 202.14 585.365 201.715 585.195 201.205C585.025 200.705 584.94 200.225 584.94 199.765ZM585 210.536C585 210.316 585.075 210.131 585.225 209.981C585.375 209.841 585.555 209.771 585.765 209.771L595.935 209.771C596.145 209.771 596.325 209.841 596.475 209.981C596.625 210.131 596.7 210.316 596.7 210.536C596.7 210.766 596.605 210.971 596.415 211.151L588.03 217.661L595.935 217.661C596.145 217.661 596.325 217.736 596.475 217.886C596.625 218.036 596.7 218.221 596.7 218.441C596.7 218.651 596.625 218.831 596.475 218.981C596.325 219.141 596.145 219.221 595.935 219.221L585.765 219.221C585.555 219.221 585.375 219.141 585.225 218.981C585.075 218.831 585 218.651 585 218.441C585 218.211 585.09 218.011 585.27 217.841L593.655 211.316L585.765 211.316C585.555 211.316 585.375 211.241 585.225 211.091C585.075 210.941 585 210.756 585 210.536ZM588.585 221.141C588.585 220.921 588.66 220.736 588.81 220.586C588.96 220.446 589.145 220.376 589.365 220.376C589.585 220.376 589.765 220.446 589.905 220.586C590.055 220.736 590.13 220.921 590.13 221.141L590.13 225.656C590.13 225.886 590.055 226.071 589.905 226.211C589.765 226.351 589.585 226.421 589.365 226.421C589.145 226.421 588.96 226.351 588.81 226.211C588.66 226.071 588.585 225.886 588.585 225.656L588.585 221.141ZM590.64 223.406C590.64 222.846 590.775 222.336 591.045 221.876C591.325 221.416 591.695 221.051 592.155 220.781C592.615 220.511 593.12 220.376 593.67 220.376C594.22 220.376 594.725 220.511 595.185 220.781C595.645 221.051 596.01 221.416 596.28 221.876C596.56 222.336 596.7 222.846 596.7 223.406C596.7 223.966 596.56 224.471 596.28 224.921C596.01 225.381 595.645 225.746 595.185 226.016C594.725 226.286 594.22 226.421 593.67 226.421C593.12 226.421 592.615 226.286 592.155 226.016C591.695 225.746 591.325 225.381 591.045 224.921C590.775 224.471 590.64 223.966 590.64 223.406ZM592.185 223.406C592.185 223.676 592.25 223.921 592.38 224.141C592.52 224.361 592.7 224.536 592.92 224.666C593.15 224.806 593.4 224.876 593.67 224.876C593.94 224.876 594.185 224.806 594.405 224.666C594.635 224.536 594.815 224.356 594.945 224.126C595.085 223.906 595.155 223.666 595.155 223.406C595.155 223.136 595.09 222.886 594.96 222.656C594.83 222.436 594.65 222.256 594.42 222.116C594.2 221.986 593.95 221.921 593.67 221.921C593.4 221.921 593.15 221.986 592.92 222.116C592.7 222.246 592.52 222.421 592.38 222.641C592.25 222.871 592.185 223.126 592.185 223.406ZM585 228.614C585 228.394 585.075 228.209 585.225 228.059C585.375 227.919 585.555 227.849 585.765 227.849C585.985 227.849 586.165 227.919 586.305 228.059L591.285 232.319C591.635 232.619 591.965 232.849 592.275 233.009C592.585 233.179 592.88 233.264 593.16 233.264C593.6 233.264 593.98 233.189 594.3 233.039C594.62 232.889 594.865 232.674 595.035 232.394C595.215 232.114 595.305 231.779 595.305 231.389C595.305 231.009 595.205 230.664 595.005 230.354C594.815 230.054 594.555 229.814 594.225 229.634C593.905 229.464 593.55 229.379 593.16 229.379C592.96 229.379 592.785 229.304 592.635 229.154C592.485 229.014 592.41 228.834 592.41 228.614C592.41 228.404 592.485 228.224 592.635 228.074C592.785 227.924 592.96 227.849 593.16 227.849C593.84 227.849 594.445 228.004 594.975 228.314C595.515 228.624 595.94 229.044 596.25 229.574C596.56 230.114 596.715 230.719 596.715 231.389C596.715 232.069 596.57 232.659 596.28 233.159C595.99 233.659 595.58 234.044 595.05 234.314C594.52 234.594 593.89 234.734 593.16 234.734C592.84 234.734 592.515 234.664 592.185 234.524C591.855 234.394 591.54 234.224 591.24 234.014C590.94 233.814 590.67 233.609 590.43 233.399L586.53 229.964L586.53 234.164C586.53 234.384 586.45 234.569 586.29 234.719C586.14 234.869 585.965 234.944 585.765 234.944C585.555 234.944 585.375 234.869 585.225 234.719C585.075 234.569 585 234.384 585 234.164L585 228.614Z" fill="white"/>
<path d="M909 519L952.595 519.313V709.369H909V519Z" fill="#B1B1B1"/>
<path d="M924.85 553.274C924.85 552.394 924.995 551.589 925.285 550.859C925.585 550.129 926 549.499 926.53 548.969C927.07 548.449 927.705 548.044 928.435 547.754C929.175 547.464 929.985 547.319 930.865 547.319C931.745 547.319 932.55 547.464 933.28 547.754C934.01 548.044 934.64 548.449 935.17 548.969C935.71 549.499 936.125 550.129 936.415 550.859C936.715 551.589 936.865 552.394 936.865 553.274C936.865 554.154 936.715 554.954 936.415 555.674C936.125 556.404 935.71 557.034 935.17 557.564C934.64 558.094 934.01 558.504 933.28 558.794C932.55 559.084 931.745 559.229 930.865 559.229C929.985 559.229 929.175 559.084 928.435 558.794C927.705 558.504 927.07 558.094 926.53 557.564C926 557.034 925.585 556.404 925.285 555.674C924.995 554.954 924.85 554.154 924.85 553.274ZM926.26 553.274C926.26 553.924 926.375 554.519 926.605 555.059C926.845 555.609 927.17 556.084 927.58 556.484C928 556.884 928.49 557.189 929.05 557.399C929.61 557.619 930.215 557.729 930.865 557.729C931.515 557.729 932.12 557.619 932.68 557.399C933.24 557.189 933.725 556.884 934.135 556.484C934.555 556.084 934.88 555.609 935.11 555.059C935.34 554.519 935.455 553.924 935.455 553.274C935.455 552.624 935.34 552.024 935.11 551.474C934.88 550.934 934.555 550.464 934.135 550.064C933.725 549.674 933.24 549.369 932.68 549.149C932.12 548.929 931.515 548.819 930.865 548.819C930.215 548.819 929.61 548.929 929.05 549.149C928.49 549.369 928 549.674 927.58 550.064C927.17 550.464 926.845 550.934 926.605 551.474C926.375 552.024 926.26 552.624 926.26 553.274ZM924.94 565.272C924.94 564.472 925.105 563.762 925.435 563.142C925.765 562.522 926.22 562.037 926.8 561.687C927.39 561.337 928.06 561.157 928.81 561.147L928.81 561.882C929.57 561.882 930.235 562.037 930.805 562.347C931.385 562.667 931.84 563.102 932.17 563.652C932.5 564.212 932.665 564.852 932.665 565.572C932.665 566.292 932.5 566.927 932.17 567.477C931.84 568.037 931.385 568.472 930.805 568.782C930.235 569.102 929.57 569.262 928.81 569.262C928.06 569.262 927.39 569.092 926.8 568.752C926.22 568.412 925.765 567.942 925.435 567.342C925.105 566.742 924.94 566.052 924.94 565.272ZM926.29 565.272C926.29 565.772 926.395 566.207 926.605 566.577C926.825 566.957 927.125 567.252 927.505 567.462C927.885 567.682 928.32 567.792 928.81 567.792C929.3 567.792 929.73 567.682 930.1 567.462C930.48 567.252 930.775 566.957 930.985 566.577C931.205 566.207 931.315 565.772 931.315 565.272C931.315 564.752 931.205 564.292 930.985 563.892C930.775 563.492 930.48 563.177 930.1 562.947C929.73 562.727 929.3 562.617 928.81 562.617C928.32 562.617 927.885 562.727 927.505 562.947C927.125 563.177 926.825 563.492 926.605 563.892C926.395 564.292 926.29 564.752 926.29 565.272ZM928.81 561.147L930.505 561.162C931.685 561.172 932.765 561.497 933.745 562.137C934.725 562.787 935.52 563.792 936.13 565.152L937.375 567.957C937.455 568.157 937.465 568.337 937.405 568.497C937.355 568.657 937.24 568.772 937.06 568.842C936.87 568.912 936.695 568.927 936.535 568.887C936.385 568.857 936.25 568.712 936.13 568.452L934.735 565.407C934.415 564.707 934.035 564.132 933.595 563.682C933.155 563.232 932.66 562.897 932.11 562.677C931.57 562.467 930.985 562.352 930.355 562.332L928.81 562.302L928.81 561.147ZM924.91 579.282C924.91 578.712 925.035 578.207 925.285 577.767C925.535 577.327 925.9 576.982 926.38 576.732C926.87 576.492 927.46 576.372 928.15 576.372L932.44 576.372C932.67 576.372 932.855 576.442 932.995 576.582C933.135 576.732 933.205 576.917 933.205 577.137C933.205 577.367 933.135 577.552 932.995 577.692C932.855 577.832 932.67 577.902 932.44 577.902L928.15 577.902C927.73 577.902 927.38 577.972 927.1 578.112C926.83 578.252 926.625 578.447 926.485 578.697C926.355 578.957 926.29 579.252 926.29 579.582C926.29 580.112 926.47 580.542 926.83 580.872C927.19 581.212 927.645 581.382 928.195 581.382L928.195 582.027C927.555 582.027 926.985 581.907 926.485 581.667C925.995 581.437 925.61 581.117 925.33 580.707C925.05 580.297 924.91 579.822 924.91 579.282ZM924.91 574.287C924.91 573.717 925.035 573.212 925.285 572.772C925.535 572.342 925.9 572.002 926.38 571.752C926.87 571.502 927.46 571.377 928.15 571.377L932.44 571.377C932.67 571.377 932.855 571.447 932.995 571.587C933.135 571.737 933.205 571.922 933.205 572.142C933.205 572.372 933.135 572.557 932.995 572.697C932.855 572.837 932.67 572.907 932.44 572.907L928.15 572.907C927.73 572.907 927.38 572.977 927.1 573.117C926.83 573.267 926.625 573.467 926.485 573.717C926.355 573.967 926.29 574.257 926.29 574.587C926.29 575.117 926.47 575.547 926.83 575.877C927.19 576.207 927.645 576.372 928.195 576.372L928.195 577.017C927.555 577.017 926.985 576.902 926.485 576.672C925.995 576.442 925.61 576.122 925.33 575.712C925.05 575.302 924.91 574.827 924.91 574.287ZM922.33 583.647C922.33 583.437 922.405 583.262 922.555 583.122C922.705 582.982 922.89 582.912 923.11 582.912L925 582.912L925 582.687C925 582.237 925.105 581.907 925.315 581.697C925.525 581.487 925.855 581.382 926.305 581.382L932.455 581.382C932.685 581.382 932.87 581.452 933.01 581.592C933.15 581.742 933.22 581.927 933.22 582.147C933.22 582.377 933.15 582.562 933.01 582.702C932.87 582.842 932.685 582.912 932.455 582.912L926.29 582.912L926.29 583.542C926.29 583.772 926.215 583.957 926.065 584.097C925.925 584.247 925.74 584.322 925.51 584.322L923.11 584.322C922.89 584.322 922.705 584.257 922.555 584.127C922.405 584.007 922.33 583.847 922.33 583.647ZM924.94 589.752C924.94 588.922 925.115 588.182 925.465 587.532C925.825 586.892 926.315 586.387 926.935 586.017C927.565 585.657 928.285 585.477 929.095 585.477C929.915 585.477 930.635 585.647 931.255 585.987C931.885 586.337 932.375 586.817 932.725 587.427C933.085 588.037 933.265 588.737 933.265 589.527C933.265 590.307 933.09 590.977 932.74 591.537C932.4 592.097 931.925 592.522 931.315 592.812C930.715 593.112 930.02 593.262 929.23 593.262C929.04 593.262 928.88 593.197 928.75 593.067C928.63 592.937 928.57 592.772 928.57 592.572L928.57 586.527L929.77 586.527L929.77 592.527L929.35 591.912C929.85 591.902 930.295 591.802 930.685 591.612C931.085 591.422 931.4 591.152 931.63 590.802C931.86 590.452 931.975 590.027 931.975 589.527C931.975 588.957 931.85 588.467 931.6 588.057C931.35 587.657 931.005 587.352 930.565 587.142C930.135 586.932 929.645 586.827 929.095 586.827C928.545 586.827 928.055 586.952 927.625 587.202C927.195 587.452 926.855 587.797 926.605 588.237C926.355 588.677 926.23 589.182 926.23 589.752C926.23 590.062 926.285 590.377 926.395 590.697C926.515 591.027 926.65 591.292 926.8 591.492C926.91 591.642 926.965 591.802 926.965 591.972C926.975 592.152 926.925 592.307 926.815 592.437C926.665 592.607 926.5 592.697 926.32 592.707C926.14 592.717 925.985 592.637 925.855 592.467C925.585 592.127 925.365 591.702 925.195 591.192C925.025 590.692 924.94 590.212 924.94 589.752ZM924.985 599.245C924.985 599.025 925.055 598.84 925.195 598.69C925.345 598.55 925.53 598.48 925.75 598.48L928.525 598.48L928.525 597.46L925.21 595.165C925.07 595.065 925 594.9 925 594.67C924.99 594.45 925.05 594.275 925.18 594.145C925.33 593.995 925.485 593.925 925.645 593.935C925.805 593.945 925.96 594 926.11 594.1L929.215 596.2L932.11 594.265C932.27 594.165 932.43 594.115 932.59 594.115C932.76 594.125 932.915 594.205 933.055 594.355C933.175 594.485 933.23 594.66 933.22 594.88C933.22 595.11 933.135 595.275 932.965 595.375L929.875 597.37L929.875 598.48L932.44 598.48C932.67 598.48 932.855 598.55 932.995 598.69C933.135 598.84 933.205 599.025 933.205 599.245C933.205 599.475 933.135 599.66 932.995 599.8C932.855 599.94 932.67 600.01 932.44 600.01L929.875 600.01L929.875 601.135L932.965 603.115C933.135 603.225 933.22 603.39 933.22 603.61C933.23 603.83 933.175 604.005 933.055 604.135C932.915 604.285 932.76 604.365 932.59 604.375C932.43 604.385 932.27 604.335 932.11 604.225L929.215 602.29L926.11 604.39C925.96 604.49 925.805 604.545 925.645 604.555C925.485 604.565 925.33 604.495 925.18 604.345C925.05 604.215 924.99 604.035 925 603.805C925 603.585 925.07 603.425 925.21 603.325L928.525 601.045L928.525 600.01L925.75 600.01C925.53 600.01 925.345 599.94 925.195 599.8C925.055 599.66 924.985 599.475 924.985 599.245ZM924.925 609.884C924.925 609.194 925.07 608.574 925.36 608.024C925.66 607.484 926.095 607.054 926.665 606.734C927.235 606.424 927.935 606.269 928.765 606.269L932.455 606.269C932.675 606.269 932.855 606.339 932.995 606.479C933.145 606.629 933.22 606.814 933.22 607.034C933.22 607.254 933.145 607.434 932.995 607.574C932.855 607.724 932.675 607.799 932.455 607.799L928.765 607.799C928.205 607.799 927.74 607.904 927.37 608.114C927.01 608.324 926.74 608.609 926.56 608.969C926.39 609.329 926.305 609.734 926.305 610.184C926.305 610.614 926.39 610.994 926.56 611.324C926.73 611.664 926.96 611.934 927.25 612.134C927.54 612.334 927.865 612.434 928.225 612.434L928.225 613.379C927.605 613.379 927.045 613.224 926.545 612.914C926.045 612.614 925.65 612.199 925.36 611.669C925.07 611.149 924.925 610.554 924.925 609.884ZM925 613.199C925 612.979 925.07 612.794 925.21 612.644C925.36 612.504 925.545 612.434 925.765 612.434L932.455 612.434C932.685 612.434 932.87 612.504 933.01 612.644C933.15 612.794 933.22 612.979 933.22 613.199C933.22 613.429 933.15 613.614 933.01 613.754C932.87 613.894 932.685 613.964 932.455 613.964L925.765 613.964C925.545 613.964 925.36 613.894 925.21 613.754C925.07 613.614 925 613.429 925 613.199ZM924.985 627.429C924.985 627.209 925.055 627.024 925.195 626.874C925.345 626.734 925.53 626.664 925.75 626.664L930.04 626.664C930.67 626.664 931.135 626.509 931.435 626.199C931.745 625.889 931.9 625.484 931.9 624.984C931.9 624.464 931.72 624.034 931.36 623.694C931 623.364 930.54 623.199 929.98 623.199L929.98 621.954C930.63 621.954 931.2 622.094 931.69 622.374C932.19 622.654 932.58 623.044 932.86 623.544C933.14 624.054 933.28 624.634 933.28 625.284C933.28 625.854 933.155 626.359 932.905 626.799C932.655 627.239 932.285 627.579 931.795 627.819C931.315 628.069 930.73 628.194 930.04 628.194L925.75 628.194C925.53 628.194 925.345 628.124 925.195 627.984C925.055 627.844 924.985 627.659 924.985 627.429ZM924.985 617.424C924.985 617.204 925.055 617.019 925.195 616.869C925.345 616.729 925.53 616.659 925.75 616.659L932.425 616.659C932.655 616.659 932.84 616.729 932.98 616.869C933.12 617.019 933.19 617.204 933.19 617.424C933.19 617.654 933.12 617.839 932.98 617.979C932.84 618.119 932.655 618.189 932.425 618.189L925.75 618.189C925.53 618.189 925.345 618.119 925.195 617.979C925.055 617.839 924.985 617.654 924.985 617.424ZM924.985 622.434C924.985 622.214 925.055 622.029 925.195 621.879C925.345 621.739 925.53 621.669 925.75 621.669L930.04 621.669C930.67 621.669 931.135 621.514 931.435 621.204C931.745 620.894 931.9 620.489 931.9 619.989C931.9 619.469 931.72 619.039 931.36 618.699C931 618.359 930.54 618.189 929.98 618.189L929.98 617.244C930.63 617.244 931.2 617.374 931.69 617.634C932.19 617.894 932.58 618.254 932.86 618.714C933.14 619.174 933.28 619.699 933.28 620.289C933.28 620.859 933.155 621.364 932.905 621.804C932.655 622.244 932.285 622.584 931.795 622.824C931.315 623.074 930.73 623.199 930.04 623.199L925.75 623.199C925.53 623.199 925.345 623.129 925.195 622.989C925.055 622.849 924.985 622.664 924.985 622.434ZM924.925 634.186C924.925 633.496 925.07 632.876 925.36 632.326C925.66 631.786 926.095 631.356 926.665 631.036C927.235 630.726 927.935 630.571 928.765 630.571L932.455 630.571C932.675 630.571 932.855 630.641 932.995 630.781C933.145 630.931 933.22 631.116 933.22 631.336C933.22 631.556 933.145 631.736 932.995 631.876C932.855 632.026 932.675 632.101 932.455 632.101L928.765 632.101C928.205 632.101 927.74 632.206 927.37 632.416C927.01 632.626 926.74 632.911 926.56 633.271C926.39 633.631 926.305 634.036 926.305 634.486C926.305 634.916 926.39 635.296 926.56 635.626C926.73 635.966 926.96 636.236 927.25 636.436C927.54 636.636 927.865 636.736 928.225 636.736L928.225 637.681C927.605 637.681 927.045 637.526 926.545 637.216C926.045 636.916 925.65 636.501 925.36 635.971C925.07 635.451 924.925 634.856 924.925 634.186ZM925 637.501C925 637.281 925.07 637.096 925.21 636.946C925.36 636.806 925.545 636.736 925.765 636.736L932.455 636.736C932.685 636.736 932.87 636.806 933.01 636.946C933.15 637.096 933.22 637.281 933.22 637.501C933.22 637.731 933.15 637.916 933.01 638.056C932.87 638.196 932.685 638.266 932.455 638.266L925.765 638.266C925.545 638.266 925.36 638.196 925.21 638.056C925.07 637.916 925 637.731 925 637.501ZM924.94 644.816C924.94 643.986 925.115 643.246 925.465 642.596C925.825 641.956 926.315 641.451 926.935 641.081C927.565 640.721 928.285 640.541 929.095 640.541C929.915 640.541 930.635 640.711 931.255 641.051C931.885 641.401 932.375 641.881 932.725 642.491C933.085 643.101 933.265 643.801 933.265 644.591C933.265 645.371 933.09 646.041 932.74 646.601C932.4 647.161 931.925 647.586 931.315 647.876C930.715 648.176 930.02 648.326 929.23 648.326C929.04 648.326 928.88 648.261 928.75 648.131C928.63 648.001 928.57 647.836 928.57 647.636L928.57 641.591L929.77 641.591L929.77 647.591L929.35 646.976C929.85 646.966 930.295 646.866 930.685 646.676C931.085 646.486 931.4 646.216 931.63 645.866C931.86 645.516 931.975 645.091 931.975 644.591C931.975 644.021 931.85 643.531 931.6 643.121C931.35 642.721 931.005 642.416 930.565 642.206C930.135 641.996 929.645 641.891 929.095 641.891C928.545 641.891 928.055 642.016 927.625 642.266C927.195 642.516 926.855 642.861 926.605 643.301C926.355 643.741 926.23 644.246 926.23 644.816C926.23 645.126 926.285 645.441 926.395 645.761C926.515 646.091 926.65 646.356 926.8 646.556C926.91 646.706 926.965 646.866 926.965 647.036C926.975 647.216 926.925 647.371 926.815 647.501C926.665 647.671 926.5 647.761 926.32 647.771C926.14 647.781 925.985 647.701 925.855 647.531C925.585 647.191 925.365 646.766 925.195 646.256C925.025 645.756 924.94 645.276 924.94 644.816ZM925 655.587C925 655.367 925.075 655.182 925.225 655.032C925.375 654.892 925.555 654.822 925.765 654.822L935.935 654.822C936.145 654.822 936.325 654.892 936.475 655.032C936.625 655.182 936.7 655.367 936.7 655.587C936.7 655.817 936.605 656.022 936.415 656.202L928.03 662.712L935.935 662.712C936.145 662.712 936.325 662.787 936.475 662.937C936.625 663.087 936.7 663.272 936.7 663.492C936.7 663.702 936.625 663.882 936.475 664.032C936.325 664.192 936.145 664.272 935.935 664.272L925.765 664.272C925.555 664.272 925.375 664.192 925.225 664.032C925.075 663.882 925 663.702 925 663.492C925 663.262 925.09 663.062 925.27 662.892L933.655 656.367L925.765 656.367C925.555 656.367 925.375 656.292 925.225 656.142C925.075 655.992 925 655.807 925 655.587ZM928.585 666.192C928.585 665.972 928.66 665.787 928.81 665.637C928.96 665.497 929.145 665.427 929.365 665.427C929.585 665.427 929.765 665.497 929.905 665.637C930.055 665.787 930.13 665.972 930.13 666.192L930.13 670.707C930.13 670.937 930.055 671.122 929.905 671.262C929.765 671.402 929.585 671.472 929.365 671.472C929.145 671.472 928.96 671.402 928.81 671.262C928.66 671.122 928.585 670.937 928.585 670.707L928.585 666.192ZM930.64 668.457C930.64 667.897 930.775 667.387 931.045 666.927C931.325 666.467 931.695 666.102 932.155 665.832C932.615 665.562 933.12 665.427 933.67 665.427C934.22 665.427 934.725 665.562 935.185 665.832C935.645 666.102 936.01 666.467 936.28 666.927C936.56 667.387 936.7 667.897 936.7 668.457C936.7 669.017 936.56 669.522 936.28 669.972C936.01 670.432 935.645 670.797 935.185 671.067C934.725 671.337 934.22 671.472 933.67 671.472C933.12 671.472 932.615 671.337 932.155 671.067C931.695 670.797 931.325 670.432 931.045 669.972C930.775 669.522 930.64 669.017 930.64 668.457ZM932.185 668.457C932.185 668.727 932.25 668.972 932.38 669.192C932.52 669.412 932.7 669.587 932.92 669.717C933.15 669.857 933.4 669.927 933.67 669.927C933.94 669.927 934.185 669.857 934.405 669.717C934.635 669.587 934.815 669.407 934.945 669.177C935.085 668.957 935.155 668.717 935.155 668.457C935.155 668.187 935.09 667.937 934.96 667.707C934.83 667.487 934.65 667.307 934.42 667.167C934.2 667.037 933.95 666.972 933.67 666.972C933.4 666.972 933.15 667.037 932.92 667.167C932.7 667.297 932.52 667.472 932.38 667.692C932.25 667.922 932.185 668.177 932.185 668.457ZM925.015 676.29C925.015 675.63 925.17 675.035 925.48 674.505C925.8 673.985 926.23 673.575 926.77 673.275C927.32 672.975 927.935 672.825 928.615 672.825C929.275 672.825 929.865 672.975 930.385 673.275C930.915 673.575 931.33 673.985 931.63 674.505C931.93 675.035 932.08 675.63 932.08 676.29C932.08 676.95 931.93 677.54 931.63 678.06C931.33 678.58 930.915 678.99 930.385 679.29C929.865 679.6 929.275 679.75 928.615 679.74C927.935 679.74 927.32 679.585 926.77 679.275C926.23 678.975 925.8 678.565 925.48 678.045C925.17 677.525 925.015 676.94 925.015 676.29ZM926.395 676.29C926.395 676.66 926.495 676.99 926.695 677.28C926.895 677.58 927.16 677.815 927.49 677.985C927.83 678.155 928.205 678.24 928.615 678.24C929.015 678.25 929.37 678.17 929.68 678C930 677.83 930.25 677.595 930.43 677.295C930.62 677.005 930.715 676.67 930.715 676.29C930.715 675.92 930.62 675.585 930.43 675.285C930.25 674.985 930 674.75 929.68 674.58C929.37 674.41 929.015 674.325 928.615 674.325C928.205 674.325 927.83 674.405 927.49 674.565C927.16 674.735 926.895 674.97 926.695 675.27C926.495 675.57 926.395 675.91 926.395 676.29ZM930.985 676.29C930.985 675.72 931.11 675.21 931.36 674.76C931.61 674.32 931.945 673.97 932.365 673.71C932.795 673.45 933.28 673.32 933.82 673.32C934.39 673.32 934.895 673.45 935.335 673.71C935.785 673.97 936.14 674.32 936.4 674.76C936.67 675.21 936.805 675.72 936.805 676.29C936.815 676.86 936.69 677.365 936.43 677.805C936.17 678.255 935.815 678.61 935.365 678.87C934.915 679.13 934.4 679.255 933.82 679.245C933.28 679.245 932.795 679.115 932.365 678.855C931.945 678.595 931.61 678.24 931.36 677.79C931.11 677.35 930.985 676.85 930.985 676.29ZM932.23 676.29C932.23 676.57 932.305 676.82 932.455 677.04C932.605 677.26 932.8 677.435 933.04 677.565C933.29 677.695 933.565 677.76 933.865 677.76C934.165 677.77 934.43 677.71 934.66 677.58C934.89 677.45 935.07 677.275 935.2 677.055C935.34 676.835 935.41 676.58 935.41 676.29C935.41 675.87 935.265 675.52 934.975 675.24C934.685 674.96 934.315 674.815 933.865 674.805C933.415 674.795 933.03 674.93 932.71 675.21C932.39 675.5 932.23 675.86 932.23 676.29Z" fill="white"/>
<path d="M228.881 683C228.514 683 228.206 682.875 227.956 682.625C227.706 682.375 227.581 682.067 227.581 681.7V664.775C227.581 664.392 227.706 664.083 227.956 663.85C228.206 663.6 228.514 663.475 228.881 663.475H239.481C239.814 663.475 240.089 663.592 240.306 663.825C240.539 664.042 240.656 664.333 240.656 664.7C240.656 665.033 240.539 665.317 240.306 665.55C240.089 665.767 239.814 665.875 239.481 665.875H230.181V671.5H235.881C237.131 671.5 238.239 671.742 239.206 672.225C240.172 672.692 240.922 673.35 241.456 674.2C242.006 675.033 242.281 676 242.281 677.1C242.281 678.25 242.006 679.267 241.456 680.15C240.922 681.033 240.172 681.733 239.206 682.25C238.239 682.75 237.131 683 235.881 683H228.881ZM230.181 680.6H235.881C236.647 680.6 237.322 680.467 237.906 680.2C238.489 679.933 238.947 679.542 239.281 679.025C239.614 678.508 239.781 677.867 239.781 677.1C239.781 676.333 239.614 675.708 239.281 675.225C238.947 674.725 238.489 674.358 237.906 674.125C237.322 673.875 236.647 673.75 235.881 673.75H230.181V680.6ZM252.11 683.1C250.76 683.1 249.568 682.808 248.535 682.225C247.501 681.625 246.685 680.808 246.085 679.775C245.501 678.725 245.21 677.525 245.21 676.175C245.21 674.808 245.501 673.608 246.085 672.575C246.685 671.525 247.501 670.708 248.535 670.125C249.568 669.525 250.76 669.225 252.11 669.225C253.443 669.225 254.626 669.525 255.66 670.125C256.693 670.708 257.501 671.525 258.085 672.575C258.685 673.608 258.985 674.808 258.985 676.175C258.985 677.525 258.693 678.725 258.11 679.775C257.526 680.808 256.718 681.625 255.685 682.225C254.651 682.808 253.46 683.1 252.11 683.1ZM252.11 680.85C252.976 680.85 253.743 680.65 254.41 680.25C255.076 679.85 255.593 679.3 255.96 678.6C256.343 677.9 256.535 677.092 256.535 676.175C256.535 675.258 256.343 674.45 255.96 673.75C255.593 673.033 255.076 672.475 254.41 672.075C253.743 671.675 252.976 671.475 252.11 671.475C251.243 671.475 250.476 671.675 249.81 672.075C249.143 672.475 248.618 673.033 248.235 673.75C247.851 674.45 247.66 675.258 247.66 676.175C247.66 677.092 247.851 677.9 248.235 678.6C248.618 679.3 249.143 679.85 249.81 680.25C250.476 680.65 251.243 680.85 252.11 680.85ZM280.73 683.025C280.363 683.025 280.055 682.908 279.805 682.675C279.571 682.425 279.455 682.117 279.455 681.75V674.6C279.455 673.55 279.196 672.775 278.68 672.275C278.163 671.758 277.488 671.5 276.655 671.5C275.788 671.5 275.071 671.8 274.505 672.4C273.955 673 273.68 673.767 273.68 674.7H271.605C271.605 673.617 271.838 672.667 272.305 671.85C272.771 671.017 273.421 670.367 274.255 669.9C275.105 669.433 276.071 669.2 277.155 669.2C278.105 669.2 278.946 669.408 279.68 669.825C280.413 670.242 280.98 670.858 281.38 671.675C281.796 672.475 282.005 673.45 282.005 674.6V681.75C282.005 682.117 281.888 682.425 281.655 682.675C281.421 682.908 281.113 683.025 280.73 683.025ZM264.055 683.025C263.688 683.025 263.38 682.908 263.13 682.675C262.896 682.425 262.78 682.117 262.78 681.75V670.625C262.78 670.242 262.896 669.933 263.13 669.7C263.38 669.467 263.688 669.35 264.055 669.35C264.438 669.35 264.746 669.467 264.98 669.7C265.213 669.933 265.33 670.242 265.33 670.625V681.75C265.33 682.117 265.213 682.425 264.98 682.675C264.746 682.908 264.438 683.025 264.055 683.025ZM272.405 683.025C272.038 683.025 271.73 682.908 271.48 682.675C271.246 682.425 271.13 682.117 271.13 681.75V674.6C271.13 673.55 270.871 672.775 270.355 672.275C269.838 671.758 269.163 671.5 268.33 671.5C267.463 671.5 266.746 671.8 266.18 672.4C265.613 673 265.33 673.767 265.33 674.7H263.755C263.755 673.617 263.971 672.667 264.405 671.85C264.838 671.017 265.438 670.367 266.205 669.9C266.971 669.433 267.846 669.2 268.83 669.2C269.78 669.2 270.621 669.408 271.355 669.825C272.088 670.242 272.655 670.858 273.055 671.675C273.471 672.475 273.68 673.45 273.68 674.6V681.75C273.68 682.117 273.563 682.425 273.33 682.675C273.096 682.908 272.788 683.025 272.405 683.025ZM291.942 683.1C290.725 683.1 289.633 682.8 288.667 682.2C287.7 681.583 286.933 680.758 286.367 679.725C285.817 678.675 285.542 677.492 285.542 676.175C285.542 674.858 285.842 673.675 286.442 672.625C287.058 671.575 287.883 670.75 288.917 670.15C289.967 669.533 291.142 669.225 292.442 669.225C293.742 669.225 294.908 669.533 295.942 670.15C296.975 670.75 297.792 671.575 298.392 672.625C299.008 673.675 299.317 674.858 299.317 676.175H298.342C298.342 677.492 298.058 678.675 297.492 679.725C296.942 680.758 296.183 681.583 295.217 682.2C294.25 682.8 293.158 683.1 291.942 683.1ZM292.442 680.85C293.292 680.85 294.05 680.65 294.717 680.25C295.383 679.833 295.908 679.275 296.292 678.575C296.675 677.858 296.867 677.058 296.867 676.175C296.867 675.275 296.675 674.475 296.292 673.775C295.908 673.058 295.383 672.5 294.717 672.1C294.05 671.683 293.292 671.475 292.442 671.475C291.608 671.475 290.85 671.683 290.167 672.1C289.5 672.5 288.967 673.058 288.567 673.775C288.183 674.475 287.992 675.275 287.992 676.175C287.992 677.058 288.183 677.858 288.567 678.575C288.967 679.275 289.5 679.833 290.167 680.25C290.85 680.65 291.608 680.85 292.442 680.85ZM298.042 683.025C297.675 683.025 297.367 682.908 297.117 682.675C296.883 682.425 296.767 682.117 296.767 681.75V677.925L297.242 675.275L299.317 676.175V681.75C299.317 682.117 299.192 682.425 298.942 682.675C298.708 682.908 298.408 683.025 298.042 683.025ZM314.612 683C314.245 683 313.937 682.883 313.687 682.65C313.453 682.4 313.337 682.092 313.337 681.725V670.6C313.337 670.217 313.453 669.908 313.687 669.675C313.937 669.442 314.245 669.325 314.612 669.325C314.995 669.325 315.295 669.442 315.512 669.675C315.728 669.908 315.837 670.217 315.837 670.6V681.725C315.837 682.092 315.728 682.4 315.512 682.65C315.295 682.883 314.995 683 314.612 683ZM304.337 683C303.97 683 303.67 682.883 303.437 682.65C303.22 682.4 303.112 682.092 303.112 681.725V670.6C303.112 670.217 303.22 669.908 303.437 669.675C303.67 669.442 303.97 669.325 304.337 669.325C304.72 669.325 305.028 669.442 305.262 669.675C305.495 669.908 305.612 670.217 305.612 670.6V681.725C305.612 682.092 305.495 682.4 305.262 682.65C305.028 682.883 304.72 683 304.337 683ZM305.287 677.025V674.775H314.062V677.025H305.287ZM326.098 683.125C324.948 683.125 323.915 682.883 322.998 682.4C322.098 681.9 321.381 681.175 320.848 680.225C320.331 679.275 320.073 678.108 320.073 676.725V670.575C320.073 670.208 320.19 669.908 320.423 669.675C320.673 669.425 320.981 669.3 321.348 669.3C321.715 669.3 322.015 669.425 322.248 669.675C322.498 669.908 322.623 670.208 322.623 670.575V676.725C322.623 677.658 322.798 678.433 323.148 679.05C323.498 679.65 323.973 680.1 324.573 680.4C325.173 680.683 325.848 680.825 326.598 680.825C327.315 680.825 327.948 680.683 328.498 680.4C329.065 680.117 329.515 679.733 329.848 679.25C330.181 678.767 330.348 678.225 330.348 677.625H331.923C331.923 678.658 331.665 679.592 331.148 680.425C330.648 681.258 329.956 681.917 329.073 682.4C328.206 682.883 327.215 683.125 326.098 683.125ZM331.623 683C331.256 683 330.948 682.883 330.698 682.65C330.465 682.4 330.348 682.092 330.348 681.725V670.575C330.348 670.192 330.465 669.883 330.698 669.65C330.948 669.417 331.256 669.3 331.623 669.3C332.006 669.3 332.315 669.417 332.548 669.65C332.781 669.883 332.898 670.192 332.898 670.575V681.725C332.898 682.092 332.781 682.4 332.548 682.65C332.315 682.883 332.006 683 331.623 683ZM341.539 678.9C340.339 678.9 339.347 678.625 338.564 678.075C337.781 677.525 337.197 676.775 336.814 675.825C336.447 674.858 336.264 673.75 336.264 672.5V670.6C336.264 670.217 336.381 669.908 336.614 669.675C336.864 669.442 337.172 669.325 337.539 669.325C337.922 669.325 338.231 669.442 338.464 669.675C338.697 669.908 338.814 670.217 338.814 670.6V672.5C338.814 673.7 339.047 674.683 339.514 675.45C339.997 676.217 340.839 676.6 342.039 676.6C342.989 676.6 343.764 676.442 344.364 676.125C344.981 675.808 345.289 675.4 345.289 674.9H346.614C346.614 675.683 346.397 676.375 345.964 676.975C345.531 677.575 344.931 678.05 344.164 678.4C343.414 678.733 342.539 678.9 341.539 678.9ZM346.564 683C346.197 683 345.889 682.883 345.639 682.65C345.406 682.4 345.289 682.092 345.289 681.725V670.6C345.289 670.217 345.406 669.908 345.639 669.675C345.889 669.442 346.197 669.325 346.564 669.325C346.947 669.325 347.256 669.442 347.489 669.675C347.722 669.908 347.839 670.217 347.839 670.6V681.725C347.839 682.092 347.722 682.4 347.489 682.65C347.256 682.883 346.947 683 346.564 683ZM358.756 683.1C357.372 683.1 356.139 682.808 355.056 682.225C353.989 681.625 353.147 680.808 352.531 679.775C351.931 678.725 351.631 677.525 351.631 676.175C351.631 674.808 351.914 673.608 352.481 672.575C353.064 671.525 353.864 670.708 354.881 670.125C355.897 669.525 357.064 669.225 358.381 669.225C359.681 669.225 360.797 669.517 361.731 670.1C362.664 670.667 363.372 671.458 363.856 672.475C364.356 673.475 364.606 674.633 364.606 675.95C364.606 676.267 364.497 676.533 364.281 676.75C364.064 676.95 363.789 677.05 363.456 677.05H353.381V675.05H363.381L362.356 675.75C362.339 674.917 362.172 674.175 361.856 673.525C361.539 672.858 361.089 672.333 360.506 671.95C359.922 671.567 359.214 671.375 358.381 671.375C357.431 671.375 356.614 671.583 355.931 672C355.264 672.417 354.756 672.992 354.406 673.725C354.056 674.442 353.881 675.258 353.881 676.175C353.881 677.092 354.089 677.908 354.506 678.625C354.922 679.342 355.497 679.908 356.231 680.325C356.964 680.742 357.806 680.95 358.756 680.95C359.272 680.95 359.797 680.858 360.331 680.675C360.881 680.475 361.322 680.25 361.656 680C361.906 679.817 362.172 679.725 362.456 679.725C362.756 679.708 363.014 679.792 363.231 679.975C363.514 680.225 363.664 680.5 363.681 680.8C363.697 681.1 363.564 681.358 363.281 681.575C362.714 682.025 362.006 682.392 361.156 682.675C360.322 682.958 359.522 683.1 358.756 683.1ZM373.57 683.1C372.236 683.1 371.045 682.8 369.995 682.2C368.961 681.583 368.145 680.758 367.545 679.725C366.961 678.675 366.67 677.492 366.67 676.175C366.67 674.825 366.961 673.625 367.545 672.575C368.128 671.525 368.928 670.708 369.945 670.125C370.961 669.525 372.128 669.225 373.445 669.225C374.428 669.225 375.328 669.417 376.145 669.8C376.961 670.167 377.695 670.725 378.345 671.475C378.578 671.742 378.661 672.017 378.595 672.3C378.528 672.583 378.345 672.833 378.045 673.05C377.811 673.217 377.553 673.275 377.27 673.225C376.986 673.158 376.728 673.008 376.495 672.775C375.678 671.908 374.661 671.475 373.445 671.475C372.595 671.475 371.845 671.675 371.195 672.075C370.545 672.458 370.036 673 369.67 673.7C369.303 674.4 369.12 675.225 369.12 676.175C369.12 677.075 369.303 677.875 369.67 678.575C370.053 679.275 370.578 679.833 371.245 680.25C371.911 680.65 372.686 680.85 373.57 680.85C374.153 680.85 374.661 680.783 375.095 680.65C375.545 680.5 375.953 680.275 376.32 679.975C376.586 679.758 376.861 679.642 377.145 679.625C377.428 679.592 377.678 679.667 377.895 679.85C378.178 680.083 378.336 680.35 378.37 680.65C378.403 680.933 378.303 681.192 378.07 681.425C376.87 682.542 375.37 683.1 373.57 683.1ZM393.484 682.7C393.268 682.9 392.959 683 392.559 683C392.176 682.983 391.876 682.867 391.659 682.65L385.584 676.125L391.309 669.725C391.526 669.492 391.826 669.358 392.209 669.325C392.609 669.292 392.918 669.375 393.134 669.575C393.384 669.808 393.526 670.075 393.559 670.375C393.593 670.658 393.501 670.917 393.284 671.15L388.759 676L393.559 681.15C393.776 681.367 393.884 681.625 393.884 681.925C393.884 682.208 393.751 682.467 393.484 682.7ZM383.584 683.025C383.218 683.025 382.926 682.908 382.709 682.675C382.493 682.425 382.384 682.117 382.384 681.75V670.6C382.384 670.217 382.493 669.908 382.709 669.675C382.926 669.442 383.218 669.325 383.584 669.325C383.968 669.325 384.276 669.442 384.509 669.675C384.759 669.908 384.884 670.217 384.884 670.6V674.775H388.084V677.125H384.884V681.75C384.884 682.117 384.759 682.425 384.509 682.675C384.276 682.908 383.968 683.025 383.584 683.025ZM402.758 683.125C401.608 683.125 400.575 682.883 399.658 682.4C398.758 681.9 398.042 681.175 397.508 680.225C396.992 679.275 396.733 678.108 396.733 676.725V670.575C396.733 670.208 396.85 669.908 397.083 669.675C397.333 669.425 397.642 669.3 398.008 669.3C398.375 669.3 398.675 669.425 398.908 669.675C399.158 669.908 399.283 670.208 399.283 670.575V676.725C399.283 677.658 399.458 678.433 399.808 679.05C400.158 679.65 400.633 680.1 401.233 680.4C401.833 680.683 402.508 680.825 403.258 680.825C403.975 680.825 404.608 680.683 405.158 680.4C405.725 680.117 406.175 679.733 406.508 679.25C406.842 678.767 407.008 678.225 407.008 677.625H408.583C408.583 678.658 408.325 679.592 407.808 680.425C407.308 681.258 406.617 681.917 405.733 682.4C404.867 682.883 403.875 683.125 402.758 683.125ZM408.283 683C407.917 683 407.608 682.883 407.358 682.65C407.125 682.4 407.008 682.092 407.008 681.725V670.575C407.008 670.192 407.125 669.883 407.358 669.65C407.608 669.417 407.917 669.3 408.283 669.3C408.667 669.3 408.975 669.417 409.208 669.65C409.442 669.883 409.558 670.192 409.558 670.575V681.725C409.558 682.092 409.442 682.4 409.208 682.65C408.975 682.883 408.667 683 408.283 683ZM419.799 683.125C418.649 683.125 417.616 682.883 416.699 682.4C415.799 681.9 415.083 681.175 414.549 680.225C414.033 679.275 413.774 678.108 413.774 676.725V670.575C413.774 670.208 413.891 669.908 414.124 669.675C414.374 669.425 414.683 669.3 415.049 669.3C415.416 669.3 415.716 669.425 415.949 669.675C416.199 669.908 416.324 670.208 416.324 670.575V676.725C416.324 677.658 416.499 678.433 416.849 679.05C417.199 679.65 417.674 680.1 418.274 680.4C418.874 680.683 419.549 680.825 420.299 680.825C421.016 680.825 421.649 680.683 422.199 680.4C422.766 680.117 423.216 679.733 423.549 679.25C423.883 678.767 424.049 678.225 424.049 677.625H425.624C425.624 678.658 425.366 679.592 424.849 680.425C424.349 681.258 423.658 681.917 422.774 682.4C421.908 682.883 420.916 683.125 419.799 683.125ZM425.324 683C424.958 683 424.649 682.883 424.399 682.65C424.166 682.4 424.049 682.092 424.049 681.725V670.575C424.049 670.192 424.166 669.883 424.399 669.65C424.649 669.417 424.958 669.3 425.324 669.3C425.708 669.3 426.016 669.417 426.249 669.65C426.483 669.883 426.599 670.192 426.599 670.575V681.725C426.599 682.092 426.483 682.4 426.249 682.65C426.016 682.883 425.708 683 425.324 683ZM420.324 667.525C419.474 667.525 418.708 667.383 418.024 667.1C417.341 666.8 416.799 666.4 416.399 665.9C415.999 665.383 415.799 664.808 415.799 664.175C415.799 663.825 415.908 663.533 416.124 663.3C416.341 663.067 416.608 662.95 416.924 662.95C417.258 662.95 417.524 663.067 417.724 663.3C417.941 663.533 418.049 663.825 418.049 664.175C418.049 664.592 418.266 664.95 418.699 665.25C419.133 665.533 419.674 665.675 420.324 665.675C420.974 665.675 421.516 665.533 421.949 665.25C422.383 664.95 422.599 664.592 422.599 664.175C422.599 663.825 422.708 663.533 422.924 663.3C423.141 663.067 423.408 662.95 423.724 662.95C424.058 662.95 424.324 663.067 424.524 663.3C424.741 663.533 424.849 663.825 424.849 664.175C424.849 664.808 424.649 665.383 424.249 665.9C423.849 666.4 423.308 666.8 422.624 667.1C421.958 667.383 421.191 667.525 420.324 667.525ZM444.615 683.1C443.281 683.1 442.09 682.8 441.04 682.2C440.006 681.583 439.19 680.758 438.59 679.725C438.006 678.675 437.715 677.492 437.715 676.175C437.715 674.825 438.006 673.625 438.59 672.575C439.173 671.525 439.973 670.708 440.99 670.125C442.006 669.525 443.173 669.225 444.49 669.225C445.473 669.225 446.373 669.417 447.19 669.8C448.006 670.167 448.74 670.725 449.39 671.475C449.623 671.742 449.706 672.017 449.64 672.3C449.573 672.583 449.39 672.833 449.09 673.05C448.856 673.217 448.598 673.275 448.315 673.225C448.031 673.158 447.773 673.008 447.54 672.775C446.723 671.908 445.706 671.475 444.49 671.475C443.64 671.475 442.89 671.675 442.24 672.075C441.59 672.458 441.081 673 440.715 673.7C440.348 674.4 440.165 675.225 440.165 676.175C440.165 677.075 440.348 677.875 440.715 678.575C441.098 679.275 441.623 679.833 442.29 680.25C442.956 680.65 443.731 680.85 444.615 680.85C445.198 680.85 445.706 680.783 446.14 680.65C446.59 680.5 446.998 680.275 447.365 679.975C447.631 679.758 447.906 679.642 448.19 679.625C448.473 679.592 448.723 679.667 448.94 679.85C449.223 680.083 449.381 680.35 449.415 680.65C449.448 680.933 449.348 681.192 449.115 681.425C447.915 682.542 446.415 683.1 444.615 683.1ZM459.129 683.1C457.913 683.1 456.821 682.8 455.854 682.2C454.888 681.583 454.121 680.758 453.554 679.725C453.004 678.675 452.729 677.492 452.729 676.175C452.729 674.858 453.029 673.675 453.629 672.625C454.246 671.575 455.071 670.75 456.104 670.15C457.154 669.533 458.329 669.225 459.629 669.225C460.929 669.225 462.096 669.533 463.129 670.15C464.163 670.75 464.979 671.575 465.579 672.625C466.196 673.675 466.504 674.858 466.504 676.175H465.529C465.529 677.492 465.246 678.675 464.679 679.725C464.129 680.758 463.371 681.583 462.404 682.2C461.438 682.8 460.346 683.1 459.129 683.1ZM459.629 680.85C460.479 680.85 461.238 680.65 461.904 680.25C462.571 679.833 463.096 679.275 463.479 678.575C463.863 677.858 464.054 677.058 464.054 676.175C464.054 675.275 463.863 674.475 463.479 673.775C463.096 673.058 462.571 672.5 461.904 672.1C461.238 671.683 460.479 671.475 459.629 671.475C458.796 671.475 458.038 671.683 457.354 672.1C456.688 672.5 456.154 673.058 455.754 673.775C455.371 674.475 455.179 675.275 455.179 676.175C455.179 677.058 455.371 677.858 455.754 678.575C456.154 679.275 456.688 679.833 457.354 680.25C458.038 680.65 458.796 680.85 459.629 680.85ZM465.229 683.025C464.863 683.025 464.554 682.908 464.304 682.675C464.071 682.425 463.954 682.117 463.954 681.75V677.925L464.429 675.275L466.504 676.175V681.75C466.504 682.117 466.379 682.425 466.129 682.675C465.896 682.908 465.596 683.025 465.229 683.025ZM475.999 683.1C474.749 683.1 473.641 682.808 472.674 682.225C471.724 681.625 470.974 680.808 470.424 679.775C469.874 678.725 469.599 677.525 469.599 676.175C469.599 674.808 469.891 673.608 470.474 672.575C471.074 671.525 471.891 670.708 472.924 670.125C473.958 669.525 475.149 669.225 476.499 669.225C477.833 669.225 479.016 669.525 480.049 670.125C481.083 670.708 481.891 671.525 482.474 672.575C483.074 673.608 483.374 674.808 483.374 676.175H481.899C481.899 677.525 481.641 678.725 481.124 679.775C480.624 680.808 479.933 681.625 479.049 682.225C478.166 682.808 477.149 683.1 475.999 683.1ZM476.449 688.675C475.266 688.675 474.158 688.442 473.124 687.975C472.091 687.508 471.216 686.825 470.499 685.925C470.283 685.642 470.199 685.35 470.249 685.05C470.316 684.75 470.483 684.508 470.749 684.325C471.049 684.125 471.358 684.058 471.674 684.125C472.008 684.192 472.274 684.358 472.474 684.625C472.924 685.192 473.491 685.633 474.174 685.95C474.858 686.267 475.633 686.425 476.499 686.425C477.299 686.425 478.033 686.233 478.699 685.85C479.383 685.467 479.924 684.9 480.324 684.15C480.724 683.4 480.924 682.483 480.924 681.4V677.85L481.749 675.65L483.374 676.175V681.575C483.374 682.892 483.083 684.083 482.499 685.15C481.916 686.233 481.099 687.092 480.049 687.725C479.016 688.358 477.816 688.675 476.449 688.675ZM476.499 680.85C477.366 680.85 478.133 680.65 478.799 680.25C479.466 679.85 479.983 679.3 480.349 678.6C480.733 677.9 480.924 677.092 480.924 676.175C480.924 675.258 480.733 674.45 480.349 673.75C479.983 673.033 479.466 672.475 478.799 672.075C478.133 671.675 477.366 671.475 476.499 671.475C475.633 671.475 474.866 671.675 474.199 672.075C473.533 672.475 473.008 673.033 472.624 673.75C472.241 674.45 472.049 675.258 472.049 676.175C472.049 677.092 472.241 677.9 472.624 678.6C473.008 679.3 473.533 679.85 474.199 680.25C474.866 680.65 475.633 680.85 476.499 680.85ZM309.911 713C309.544 713 309.236 712.875 308.986 712.625C308.736 712.375 308.611 712.067 308.611 711.7V694.775C308.611 694.392 308.736 694.083 308.986 693.85C309.236 693.6 309.544 693.475 309.911 693.475H323.211C323.594 693.475 323.903 693.6 324.136 693.85C324.386 694.083 324.511 694.392 324.511 694.775V711.7C324.511 712.067 324.386 712.375 324.136 712.625C323.903 712.875 323.594 713 323.211 713C322.844 713 322.536 712.875 322.286 712.625C322.036 712.375 321.911 712.067 321.911 711.7V695.775H311.211V711.7C311.211 712.067 311.086 712.375 310.836 712.625C310.603 712.875 310.294 713 309.911 713ZM330.809 713C330.443 713 330.134 712.875 329.884 712.625C329.634 712.375 329.509 712.067 329.509 711.7V694.775C329.509 694.392 329.634 694.083 329.884 693.85C330.134 693.6 330.443 693.475 330.809 693.475H341.134C341.518 693.475 341.826 693.592 342.059 693.825C342.293 694.042 342.409 694.333 342.409 694.7C342.409 695.05 342.293 695.333 342.059 695.55C341.826 695.767 341.518 695.875 341.134 695.875H332.109V711.7C332.109 712.067 331.984 712.375 331.734 712.625C331.484 712.875 331.176 713 330.809 713ZM346.459 713C346.092 713 345.784 712.875 345.534 712.625C345.284 712.375 345.159 712.067 345.159 711.7V694.775C345.159 694.392 345.284 694.083 345.534 693.85C345.784 693.6 346.092 693.475 346.459 693.475C346.842 693.475 347.15 693.6 347.384 693.85C347.634 694.083 347.759 694.392 347.759 694.775V701.95H359.359V694.775C359.359 694.392 359.484 694.083 359.734 693.85C359.984 693.6 360.292 693.475 360.659 693.475C361.042 693.475 361.35 693.6 361.584 693.85C361.817 694.083 361.934 694.392 361.934 694.775V711.7C361.934 712.067 361.817 712.375 361.584 712.625C361.35 712.875 361.042 713 360.659 713C360.292 713 359.984 712.875 359.734 712.625C359.484 712.375 359.359 712.067 359.359 711.7V704.25H347.759V711.7C347.759 712.067 347.634 712.375 347.384 712.625C347.15 712.875 346.842 713 346.459 713ZM368.286 713C367.919 713 367.603 712.875 367.336 712.625C367.069 712.375 366.936 712.067 366.936 711.7V694.775C366.936 694.392 367.069 694.083 367.336 693.85C367.603 693.6 367.919 693.475 368.286 693.475C368.669 693.475 368.969 693.6 369.186 693.85C369.419 694.083 369.536 694.392 369.536 694.775V708.95L381.536 693.95C381.803 693.633 382.136 693.475 382.536 693.475C382.919 693.475 383.228 693.6 383.461 693.85C383.711 694.083 383.836 694.392 383.836 694.775V711.7C383.836 712.067 383.711 712.375 383.461 712.625C383.228 712.875 382.919 713 382.536 713C382.169 713 381.861 712.875 381.611 712.625C381.361 712.375 381.236 712.067 381.236 711.7V697.55L369.286 712.55C369.169 712.683 369.019 712.792 368.836 712.875C368.653 712.958 368.469 713 368.286 713ZM391.21 713.225C390.444 713.225 389.71 713 389.01 712.55C388.694 712.35 388.494 712.092 388.41 711.775C388.344 711.458 388.402 711.158 388.585 710.875C388.769 710.575 389.027 710.4 389.36 710.35C389.694 710.283 390.044 710.35 390.41 710.55C390.527 710.617 390.66 710.675 390.81 710.725C390.96 710.758 391.094 710.775 391.21 710.775C391.66 710.775 392.119 710.567 392.585 710.15C393.069 709.717 393.494 709.117 393.86 708.35L400.735 694.25C401.102 693.517 401.644 693.308 402.36 693.625C403.077 693.942 403.252 694.475 402.885 695.225L396.01 709.35C395.41 710.567 394.702 711.517 393.885 712.2C393.069 712.883 392.177 713.225 391.21 713.225ZM394.86 709.05L386.51 695.35C386.11 694.667 386.269 694.117 386.985 693.7C387.685 693.3 388.244 693.45 388.66 694.15L396.485 707.775L394.86 709.05Z" fill="#4E4E4E"/>
</svg>
